G04 #@! TF.GenerationSoftware,KiCad,Pcbnew,5.1.5+dfsg1-2build2*
G04 #@! TF.CreationDate,2021-12-17T15:29:28+01:00*
G04 #@! TF.ProjectId,teebeutel_thermal_addon,74656562-6575-4746-956c-5f746865726d,rev?*
G04 #@! TF.SameCoordinates,Original*
G04 #@! TF.FileFunction,Legend,Top*
G04 #@! TF.FilePolarity,Positive*
%FSLAX46Y46*%
G04 Gerber Fmt 4.6, Leading zero omitted, Abs format (unit mm)*
G04 Created by KiCad (PCBNEW 5.1.5+dfsg1-2build2) date 2021-12-17 15:29:28*
%MOMM*%
%LPD*%
G04 APERTURE LIST*
%ADD10C,0.150000*%
%ADD11C,0.300000*%
%ADD12C,0.120000*%
G04 APERTURE END LIST*
D10*
X92866666Y-89958333D02*
X92866666Y-88558333D01*
X92866666Y-89091666D02*
X93000000Y-89025000D01*
X93266666Y-89025000D01*
X93400000Y-89091666D01*
X93466666Y-89158333D01*
X93533333Y-89291666D01*
X93533333Y-89691666D01*
X93466666Y-89825000D01*
X93400000Y-89891666D01*
X93266666Y-89958333D01*
X93000000Y-89958333D01*
X92866666Y-89891666D01*
X94000000Y-89025000D02*
X94333333Y-89958333D01*
X94666666Y-89025000D02*
X94333333Y-89958333D01*
X94200000Y-90291666D01*
X94133333Y-90358333D01*
X94000000Y-90425000D01*
X96666666Y-88558333D02*
X96666666Y-89558333D01*
X96600000Y-89758333D01*
X96466666Y-89891666D01*
X96266666Y-89958333D01*
X96133333Y-89958333D01*
X97933333Y-89958333D02*
X97933333Y-89225000D01*
X97866666Y-89091666D01*
X97733333Y-89025000D01*
X97466666Y-89025000D01*
X97333333Y-89091666D01*
X97933333Y-89891666D02*
X97800000Y-89958333D01*
X97466666Y-89958333D01*
X97333333Y-89891666D01*
X97266666Y-89758333D01*
X97266666Y-89625000D01*
X97333333Y-89491666D01*
X97466666Y-89425000D01*
X97800000Y-89425000D01*
X97933333Y-89358333D01*
X98600000Y-89025000D02*
X98600000Y-89958333D01*
X98600000Y-89158333D02*
X98666666Y-89091666D01*
X98800000Y-89025000D01*
X99000000Y-89025000D01*
X99133333Y-89091666D01*
X99200000Y-89225000D01*
X99200000Y-89958333D01*
X100466666Y-89958333D02*
X100466666Y-89225000D01*
X100400000Y-89091666D01*
X100266666Y-89025000D01*
X100000000Y-89025000D01*
X99866666Y-89091666D01*
X100466666Y-89891666D02*
X100333333Y-89958333D01*
X100000000Y-89958333D01*
X99866666Y-89891666D01*
X99800000Y-89758333D01*
X99800000Y-89625000D01*
X99866666Y-89491666D01*
X100000000Y-89425000D01*
X100333333Y-89425000D01*
X100466666Y-89358333D01*
X102200000Y-89958333D02*
X102200000Y-88558333D01*
X102666666Y-89558333D01*
X103133333Y-88558333D01*
X103133333Y-89958333D01*
X104400000Y-89958333D02*
X104400000Y-89225000D01*
X104333333Y-89091666D01*
X104200000Y-89025000D01*
X103933333Y-89025000D01*
X103800000Y-89091666D01*
X104400000Y-89891666D02*
X104266666Y-89958333D01*
X103933333Y-89958333D01*
X103800000Y-89891666D01*
X103733333Y-89758333D01*
X103733333Y-89625000D01*
X103800000Y-89491666D01*
X103933333Y-89425000D01*
X104266666Y-89425000D01*
X104400000Y-89358333D01*
X105066666Y-89958333D02*
X105066666Y-89025000D01*
X105066666Y-89291666D02*
X105133333Y-89158333D01*
X105199999Y-89091666D01*
X105333333Y-89025000D01*
X105466666Y-89025000D01*
X105933333Y-89958333D02*
X105933333Y-89025000D01*
X105933333Y-88558333D02*
X105866666Y-88625000D01*
X105933333Y-88691666D01*
X105999999Y-88625000D01*
X105933333Y-88558333D01*
X105933333Y-88691666D01*
X107133333Y-89891666D02*
X106999999Y-89958333D01*
X106733333Y-89958333D01*
X106599999Y-89891666D01*
X106533333Y-89758333D01*
X106533333Y-89225000D01*
X106599999Y-89091666D01*
X106733333Y-89025000D01*
X106999999Y-89025000D01*
X107133333Y-89091666D01*
X107199999Y-89225000D01*
X107199999Y-89358333D01*
X106533333Y-89491666D01*
X88600000Y-91541666D02*
X88533333Y-91475000D01*
X88400000Y-91408333D01*
X88266666Y-91408333D01*
X88133333Y-91475000D01*
X88066666Y-91541666D01*
X88000000Y-91675000D01*
X88000000Y-91808333D01*
X88066666Y-91941666D01*
X88133333Y-92008333D01*
X88266666Y-92075000D01*
X88400000Y-92075000D01*
X88533333Y-92008333D01*
X88600000Y-91941666D01*
X88600000Y-91408333D02*
X88600000Y-91941666D01*
X88666666Y-92008333D01*
X88733333Y-92008333D01*
X88866666Y-91941666D01*
X88933333Y-91808333D01*
X88933333Y-91475000D01*
X88800000Y-91275000D01*
X88600000Y-91141666D01*
X88333333Y-91075000D01*
X88066666Y-91141666D01*
X87866666Y-91275000D01*
X87733333Y-91475000D01*
X87666666Y-91741666D01*
X87733333Y-92008333D01*
X87866666Y-92208333D01*
X88066666Y-92341666D01*
X88333333Y-92408333D01*
X88600000Y-92341666D01*
X88800000Y-92208333D01*
X89200000Y-92341666D02*
X90266666Y-92341666D01*
X91000000Y-90808333D02*
X91000000Y-91808333D01*
X90933333Y-92008333D01*
X90800000Y-92141666D01*
X90600000Y-92208333D01*
X90466666Y-92208333D01*
X92266666Y-92208333D02*
X92266666Y-91475000D01*
X92200000Y-91341666D01*
X92066666Y-91275000D01*
X91800000Y-91275000D01*
X91666666Y-91341666D01*
X92266666Y-92141666D02*
X92133333Y-92208333D01*
X91800000Y-92208333D01*
X91666666Y-92141666D01*
X91600000Y-92008333D01*
X91600000Y-91875000D01*
X91666666Y-91741666D01*
X91800000Y-91675000D01*
X92133333Y-91675000D01*
X92266666Y-91608333D01*
X92933333Y-91275000D02*
X92933333Y-92208333D01*
X92933333Y-91408333D02*
X93000000Y-91341666D01*
X93133333Y-91275000D01*
X93333333Y-91275000D01*
X93466666Y-91341666D01*
X93533333Y-91475000D01*
X93533333Y-92208333D01*
X94800000Y-92208333D02*
X94800000Y-91475000D01*
X94733333Y-91341666D01*
X94600000Y-91275000D01*
X94333333Y-91275000D01*
X94200000Y-91341666D01*
X94800000Y-92141666D02*
X94666666Y-92208333D01*
X94333333Y-92208333D01*
X94200000Y-92141666D01*
X94133333Y-92008333D01*
X94133333Y-91875000D01*
X94200000Y-91741666D01*
X94333333Y-91675000D01*
X94666666Y-91675000D01*
X94800000Y-91608333D01*
X95133333Y-92341666D02*
X96200000Y-92341666D01*
X96533333Y-92208333D02*
X96533333Y-90808333D01*
X97000000Y-91808333D01*
X97466666Y-90808333D01*
X97466666Y-92208333D01*
X98733333Y-92208333D02*
X98733333Y-91475000D01*
X98666666Y-91341666D01*
X98533333Y-91275000D01*
X98266666Y-91275000D01*
X98133333Y-91341666D01*
X98733333Y-92141666D02*
X98600000Y-92208333D01*
X98266666Y-92208333D01*
X98133333Y-92141666D01*
X98066666Y-92008333D01*
X98066666Y-91875000D01*
X98133333Y-91741666D01*
X98266666Y-91675000D01*
X98600000Y-91675000D01*
X98733333Y-91608333D01*
X99400000Y-92208333D02*
X99400000Y-91275000D01*
X99400000Y-91541666D02*
X99466666Y-91408333D01*
X99533333Y-91341666D01*
X99666666Y-91275000D01*
X99800000Y-91275000D01*
X100266666Y-92208333D02*
X100266666Y-91275000D01*
X100266666Y-90808333D02*
X100200000Y-90875000D01*
X100266666Y-90941666D01*
X100333333Y-90875000D01*
X100266666Y-90808333D01*
X100266666Y-90941666D01*
X101466666Y-92141666D02*
X101333333Y-92208333D01*
X101066666Y-92208333D01*
X100933333Y-92141666D01*
X100866666Y-92008333D01*
X100866666Y-91475000D01*
X100933333Y-91341666D01*
X101066666Y-91275000D01*
X101333333Y-91275000D01*
X101466666Y-91341666D01*
X101533333Y-91475000D01*
X101533333Y-91608333D01*
X100866666Y-91741666D01*
X103133333Y-90941666D02*
X103200000Y-90875000D01*
X103333333Y-90808333D01*
X103666666Y-90808333D01*
X103800000Y-90875000D01*
X103866666Y-90941666D01*
X103933333Y-91075000D01*
X103933333Y-91208333D01*
X103866666Y-91408333D01*
X103066666Y-92208333D01*
X103933333Y-92208333D01*
X104800000Y-90808333D02*
X104933333Y-90808333D01*
X105066666Y-90875000D01*
X105133333Y-90941666D01*
X105200000Y-91075000D01*
X105266666Y-91341666D01*
X105266666Y-91675000D01*
X105200000Y-91941666D01*
X105133333Y-92075000D01*
X105066666Y-92141666D01*
X104933333Y-92208333D01*
X104800000Y-92208333D01*
X104666666Y-92141666D01*
X104600000Y-92075000D01*
X104533333Y-91941666D01*
X104466666Y-91675000D01*
X104466666Y-91341666D01*
X104533333Y-91075000D01*
X104600000Y-90941666D01*
X104666666Y-90875000D01*
X104800000Y-90808333D01*
X105800000Y-90941666D02*
X105866666Y-90875000D01*
X106000000Y-90808333D01*
X106333333Y-90808333D01*
X106466666Y-90875000D01*
X106533333Y-90941666D01*
X106600000Y-91075000D01*
X106600000Y-91208333D01*
X106533333Y-91408333D01*
X105733333Y-92208333D01*
X106600000Y-92208333D01*
X107933333Y-92208333D02*
X107133333Y-92208333D01*
X107533333Y-92208333D02*
X107533333Y-90808333D01*
X107400000Y-91008333D01*
X107266666Y-91141666D01*
X107133333Y-91208333D01*
X108533333Y-91675000D02*
X109600000Y-91675000D01*
X111000000Y-92208333D02*
X110200000Y-92208333D01*
X110600000Y-92208333D02*
X110600000Y-90808333D01*
X110466666Y-91008333D01*
X110333333Y-91141666D01*
X110200000Y-91208333D01*
X111533333Y-90941666D02*
X111599999Y-90875000D01*
X111733333Y-90808333D01*
X112066666Y-90808333D01*
X112199999Y-90875000D01*
X112266666Y-90941666D01*
X112333333Y-91075000D01*
X112333333Y-91208333D01*
X112266666Y-91408333D01*
X111466666Y-92208333D01*
X112333333Y-92208333D01*
D11*
X86619047Y-81604761D02*
X87761904Y-81604761D01*
X87190476Y-83604761D02*
X87190476Y-81604761D01*
X89190476Y-83509523D02*
X89000000Y-83604761D01*
X88619047Y-83604761D01*
X88428571Y-83509523D01*
X88333333Y-83319047D01*
X88333333Y-82557142D01*
X88428571Y-82366666D01*
X88619047Y-82271428D01*
X89000000Y-82271428D01*
X89190476Y-82366666D01*
X89285714Y-82557142D01*
X89285714Y-82747619D01*
X88333333Y-82938095D01*
X90904761Y-83509523D02*
X90714285Y-83604761D01*
X90333333Y-83604761D01*
X90142857Y-83509523D01*
X90047619Y-83319047D01*
X90047619Y-82557142D01*
X90142857Y-82366666D01*
X90333333Y-82271428D01*
X90714285Y-82271428D01*
X90904761Y-82366666D01*
X91000000Y-82557142D01*
X91000000Y-82747619D01*
X90047619Y-82938095D01*
X91857142Y-83604761D02*
X91857142Y-81604761D01*
X91857142Y-82366666D02*
X92047619Y-82271428D01*
X92428571Y-82271428D01*
X92619047Y-82366666D01*
X92714285Y-82461904D01*
X92809523Y-82652380D01*
X92809523Y-83223809D01*
X92714285Y-83414285D01*
X92619047Y-83509523D01*
X92428571Y-83604761D01*
X92047619Y-83604761D01*
X91857142Y-83509523D01*
X94428571Y-83509523D02*
X94238095Y-83604761D01*
X93857142Y-83604761D01*
X93666666Y-83509523D01*
X93571428Y-83319047D01*
X93571428Y-82557142D01*
X93666666Y-82366666D01*
X93857142Y-82271428D01*
X94238095Y-82271428D01*
X94428571Y-82366666D01*
X94523809Y-82557142D01*
X94523809Y-82747619D01*
X93571428Y-82938095D01*
X96238095Y-82271428D02*
X96238095Y-83604761D01*
X95380952Y-82271428D02*
X95380952Y-83319047D01*
X95476190Y-83509523D01*
X95666666Y-83604761D01*
X95952380Y-83604761D01*
X96142857Y-83509523D01*
X96238095Y-83414285D01*
X96904761Y-82271428D02*
X97666666Y-82271428D01*
X97190476Y-81604761D02*
X97190476Y-83319047D01*
X97285714Y-83509523D01*
X97476190Y-83604761D01*
X97666666Y-83604761D01*
X99095238Y-83509523D02*
X98904761Y-83604761D01*
X98523809Y-83604761D01*
X98333333Y-83509523D01*
X98238095Y-83319047D01*
X98238095Y-82557142D01*
X98333333Y-82366666D01*
X98523809Y-82271428D01*
X98904761Y-82271428D01*
X99095238Y-82366666D01*
X99190476Y-82557142D01*
X99190476Y-82747619D01*
X98238095Y-82938095D01*
X100333333Y-83604761D02*
X100142857Y-83509523D01*
X100047619Y-83319047D01*
X100047619Y-81604761D01*
X102619047Y-83604761D02*
X102619047Y-81604761D01*
X103571428Y-83604761D02*
X103571428Y-82271428D01*
X103571428Y-82461904D02*
X103666666Y-82366666D01*
X103857142Y-82271428D01*
X104142857Y-82271428D01*
X104333333Y-82366666D01*
X104428571Y-82557142D01*
X104428571Y-83604761D01*
X104428571Y-82557142D02*
X104523809Y-82366666D01*
X104714285Y-82271428D01*
X105000000Y-82271428D01*
X105190476Y-82366666D01*
X105285714Y-82557142D01*
X105285714Y-83604761D01*
X107095238Y-83604761D02*
X107095238Y-82557142D01*
X107000000Y-82366666D01*
X106809523Y-82271428D01*
X106428571Y-82271428D01*
X106238095Y-82366666D01*
X107095238Y-83509523D02*
X106904761Y-83604761D01*
X106428571Y-83604761D01*
X106238095Y-83509523D01*
X106142857Y-83319047D01*
X106142857Y-83128571D01*
X106238095Y-82938095D01*
X106428571Y-82842857D01*
X106904761Y-82842857D01*
X107095238Y-82747619D01*
X108904761Y-82271428D02*
X108904761Y-83890476D01*
X108809523Y-84080952D01*
X108714285Y-84176190D01*
X108523809Y-84271428D01*
X108238095Y-84271428D01*
X108047619Y-84176190D01*
X108904761Y-83509523D02*
X108714285Y-83604761D01*
X108333333Y-83604761D01*
X108142857Y-83509523D01*
X108047619Y-83414285D01*
X107952380Y-83223809D01*
X107952380Y-82652380D01*
X108047619Y-82461904D01*
X108142857Y-82366666D01*
X108333333Y-82271428D01*
X108714285Y-82271428D01*
X108904761Y-82366666D01*
X110619047Y-83509523D02*
X110428571Y-83604761D01*
X110047619Y-83604761D01*
X109857142Y-83509523D01*
X109761904Y-83319047D01*
X109761904Y-82557142D01*
X109857142Y-82366666D01*
X110047619Y-82271428D01*
X110428571Y-82271428D01*
X110619047Y-82366666D01*
X110714285Y-82557142D01*
X110714285Y-82747619D01*
X109761904Y-82938095D01*
X111571428Y-82842857D02*
X113095238Y-82842857D01*
X90238095Y-86809523D02*
X90523809Y-86904761D01*
X91000000Y-86904761D01*
X91190476Y-86809523D01*
X91285714Y-86714285D01*
X91380952Y-86523809D01*
X91380952Y-86333333D01*
X91285714Y-86142857D01*
X91190476Y-86047619D01*
X91000000Y-85952380D01*
X90619047Y-85857142D01*
X90428571Y-85761904D01*
X90333333Y-85666666D01*
X90238095Y-85476190D01*
X90238095Y-85285714D01*
X90333333Y-85095238D01*
X90428571Y-85000000D01*
X90619047Y-84904761D01*
X91095238Y-84904761D01*
X91380952Y-85000000D01*
X93000000Y-86809523D02*
X92809523Y-86904761D01*
X92428571Y-86904761D01*
X92238095Y-86809523D01*
X92142857Y-86619047D01*
X92142857Y-85857142D01*
X92238095Y-85666666D01*
X92428571Y-85571428D01*
X92809523Y-85571428D01*
X93000000Y-85666666D01*
X93095238Y-85857142D01*
X93095238Y-86047619D01*
X92142857Y-86238095D01*
X93952380Y-85571428D02*
X93952380Y-86904761D01*
X93952380Y-85761904D02*
X94047619Y-85666666D01*
X94238095Y-85571428D01*
X94523809Y-85571428D01*
X94714285Y-85666666D01*
X94809523Y-85857142D01*
X94809523Y-86904761D01*
X95666666Y-86809523D02*
X95857142Y-86904761D01*
X96238095Y-86904761D01*
X96428571Y-86809523D01*
X96523809Y-86619047D01*
X96523809Y-86523809D01*
X96428571Y-86333333D01*
X96238095Y-86238095D01*
X95952380Y-86238095D01*
X95761904Y-86142857D01*
X95666666Y-85952380D01*
X95666666Y-85857142D01*
X95761904Y-85666666D01*
X95952380Y-85571428D01*
X96238095Y-85571428D01*
X96428571Y-85666666D01*
X97666666Y-86904761D02*
X97476190Y-86809523D01*
X97380952Y-86714285D01*
X97285714Y-86523809D01*
X97285714Y-85952380D01*
X97380952Y-85761904D01*
X97476190Y-85666666D01*
X97666666Y-85571428D01*
X97952380Y-85571428D01*
X98142857Y-85666666D01*
X98238095Y-85761904D01*
X98333333Y-85952380D01*
X98333333Y-86523809D01*
X98238095Y-86714285D01*
X98142857Y-86809523D01*
X97952380Y-86904761D01*
X97666666Y-86904761D01*
X99190476Y-86904761D02*
X99190476Y-85571428D01*
X99190476Y-85952380D02*
X99285714Y-85761904D01*
X99380952Y-85666666D01*
X99571428Y-85571428D01*
X99761904Y-85571428D01*
X102619047Y-85857142D02*
X102904761Y-85952380D01*
X103000000Y-86047619D01*
X103095238Y-86238095D01*
X103095238Y-86523809D01*
X103000000Y-86714285D01*
X102904761Y-86809523D01*
X102714285Y-86904761D01*
X101952380Y-86904761D01*
X101952380Y-84904761D01*
X102619047Y-84904761D01*
X102809523Y-85000000D01*
X102904761Y-85095238D01*
X103000000Y-85285714D01*
X103000000Y-85476190D01*
X102904761Y-85666666D01*
X102809523Y-85761904D01*
X102619047Y-85857142D01*
X101952380Y-85857142D01*
X104238095Y-86904761D02*
X104047619Y-86809523D01*
X103952380Y-86714285D01*
X103857142Y-86523809D01*
X103857142Y-85952380D01*
X103952380Y-85761904D01*
X104047619Y-85666666D01*
X104238095Y-85571428D01*
X104523809Y-85571428D01*
X104714285Y-85666666D01*
X104809523Y-85761904D01*
X104904761Y-85952380D01*
X104904761Y-86523809D01*
X104809523Y-86714285D01*
X104714285Y-86809523D01*
X104523809Y-86904761D01*
X104238095Y-86904761D01*
X106619047Y-86904761D02*
X106619047Y-85857142D01*
X106523809Y-85666666D01*
X106333333Y-85571428D01*
X105952380Y-85571428D01*
X105761904Y-85666666D01*
X106619047Y-86809523D02*
X106428571Y-86904761D01*
X105952380Y-86904761D01*
X105761904Y-86809523D01*
X105666666Y-86619047D01*
X105666666Y-86428571D01*
X105761904Y-86238095D01*
X105952380Y-86142857D01*
X106428571Y-86142857D01*
X106619047Y-86047619D01*
X107571428Y-86904761D02*
X107571428Y-85571428D01*
X107571428Y-85952380D02*
X107666666Y-85761904D01*
X107761904Y-85666666D01*
X107952380Y-85571428D01*
X108142857Y-85571428D01*
X109666666Y-86904761D02*
X109666666Y-84904761D01*
X109666666Y-86809523D02*
X109476190Y-86904761D01*
X109095238Y-86904761D01*
X108904761Y-86809523D01*
X108809523Y-86714285D01*
X108714285Y-86523809D01*
X108714285Y-85952380D01*
X108809523Y-85761904D01*
X108904761Y-85666666D01*
X109095238Y-85571428D01*
X109476190Y-85571428D01*
X109666666Y-85666666D01*
D10*
X94504761Y-102257142D02*
X94457142Y-102304761D01*
X94314285Y-102352380D01*
X94219047Y-102352380D01*
X94076190Y-102304761D01*
X93980952Y-102209523D01*
X93933333Y-102114285D01*
X93885714Y-101923809D01*
X93885714Y-101780952D01*
X93933333Y-101590476D01*
X93980952Y-101495238D01*
X94076190Y-101400000D01*
X94219047Y-101352380D01*
X94314285Y-101352380D01*
X94457142Y-101400000D01*
X94504761Y-101447619D01*
X95409523Y-102352380D02*
X94933333Y-102352380D01*
X94933333Y-101352380D01*
X95742857Y-102352380D02*
X95742857Y-101352380D01*
X96314285Y-102352380D02*
X95885714Y-101780952D01*
X96314285Y-101352380D02*
X95742857Y-101923809D01*
X84209523Y-101557142D02*
X84161904Y-101604761D01*
X84019047Y-101652380D01*
X83923809Y-101652380D01*
X83780952Y-101604761D01*
X83685714Y-101509523D01*
X83638095Y-101414285D01*
X83590476Y-101223809D01*
X83590476Y-101080952D01*
X83638095Y-100890476D01*
X83685714Y-100795238D01*
X83780952Y-100700000D01*
X83923809Y-100652380D01*
X84019047Y-100652380D01*
X84161904Y-100700000D01*
X84209523Y-100747619D01*
X85114285Y-101652380D02*
X84638095Y-101652380D01*
X84638095Y-100652380D01*
X85447619Y-101652380D02*
X85447619Y-100652380D01*
X86019047Y-101652380D02*
X85590476Y-101080952D01*
X86019047Y-100652380D02*
X85447619Y-101223809D01*
X86447619Y-101271428D02*
X87209523Y-101271428D01*
X87685714Y-101128571D02*
X88019047Y-101128571D01*
X88161904Y-101652380D02*
X87685714Y-101652380D01*
X87685714Y-100652380D01*
X88161904Y-100652380D01*
X88590476Y-101652380D02*
X88590476Y-100652380D01*
X89161904Y-101652380D01*
X89161904Y-100652380D01*
X84085714Y-94652380D02*
X84419047Y-95652380D01*
X84752380Y-94652380D01*
X85085714Y-95652380D02*
X85085714Y-94985714D01*
X85085714Y-94652380D02*
X85038095Y-94700000D01*
X85085714Y-94747619D01*
X85133333Y-94700000D01*
X85085714Y-94652380D01*
X85085714Y-94747619D01*
X85990476Y-95652380D02*
X85990476Y-94652380D01*
X85990476Y-95604761D02*
X85895238Y-95652380D01*
X85704761Y-95652380D01*
X85609523Y-95604761D01*
X85561904Y-95557142D01*
X85514285Y-95461904D01*
X85514285Y-95176190D01*
X85561904Y-95080952D01*
X85609523Y-95033333D01*
X85704761Y-94985714D01*
X85895238Y-94985714D01*
X85990476Y-95033333D01*
X86847619Y-95604761D02*
X86752380Y-95652380D01*
X86561904Y-95652380D01*
X86466666Y-95604761D01*
X86419047Y-95509523D01*
X86419047Y-95128571D01*
X86466666Y-95033333D01*
X86561904Y-94985714D01*
X86752380Y-94985714D01*
X86847619Y-95033333D01*
X86895238Y-95128571D01*
X86895238Y-95223809D01*
X86419047Y-95319047D01*
X87466666Y-95652380D02*
X87371428Y-95604761D01*
X87323809Y-95557142D01*
X87276190Y-95461904D01*
X87276190Y-95176190D01*
X87323809Y-95080952D01*
X87371428Y-95033333D01*
X87466666Y-94985714D01*
X87609523Y-94985714D01*
X87704761Y-95033333D01*
X87752380Y-95080952D01*
X87800000Y-95176190D01*
X87800000Y-95461904D01*
X87752380Y-95557142D01*
X87704761Y-95604761D01*
X87609523Y-95652380D01*
X87466666Y-95652380D01*
X88228571Y-95271428D02*
X88990476Y-95271428D01*
X89609523Y-95652380D02*
X89514285Y-95604761D01*
X89466666Y-95557142D01*
X89419047Y-95461904D01*
X89419047Y-95176190D01*
X89466666Y-95080952D01*
X89514285Y-95033333D01*
X89609523Y-94985714D01*
X89752380Y-94985714D01*
X89847619Y-95033333D01*
X89895238Y-95080952D01*
X89942857Y-95176190D01*
X89942857Y-95461904D01*
X89895238Y-95557142D01*
X89847619Y-95604761D01*
X89752380Y-95652380D01*
X89609523Y-95652380D01*
X90800000Y-94985714D02*
X90800000Y-95652380D01*
X90371428Y-94985714D02*
X90371428Y-95509523D01*
X90419047Y-95604761D01*
X90514285Y-95652380D01*
X90657142Y-95652380D01*
X90752380Y-95604761D01*
X90800000Y-95557142D01*
X91133333Y-94985714D02*
X91514285Y-94985714D01*
X91276190Y-94652380D02*
X91276190Y-95509523D01*
X91323809Y-95604761D01*
X91419047Y-95652380D01*
X91514285Y-95652380D01*
D12*
X126610000Y-78670000D02*
X127940000Y-78670000D01*
X126610000Y-80000000D02*
X126610000Y-78670000D01*
X126610000Y-81270000D02*
X129270000Y-81270000D01*
X129270000Y-81270000D02*
X129270000Y-104190000D01*
X126610000Y-81270000D02*
X126610000Y-104190000D01*
X126610000Y-104190000D02*
X129270000Y-104190000D01*
X70730000Y-78670000D02*
X72060000Y-78670000D01*
X70730000Y-80000000D02*
X70730000Y-78670000D01*
X70730000Y-81270000D02*
X73390000Y-81270000D01*
X73390000Y-81270000D02*
X73390000Y-104190000D01*
X70730000Y-81270000D02*
X70730000Y-104190000D01*
X70730000Y-104190000D02*
X73390000Y-104190000D01*
M02*
