M48
; DRILL file {KiCad 6.0.0-d3dd2cf0fa~116~ubuntu20.04.1} date Mon 03 Jan 2022 09:45:20 PM CET
; FORMAT={-:-/ absolute / metric / decimal}
; #@! TF.CreationDate,2022-01-03T21:45:20+01:00
; #@! TF.GenerationSoftware,Kicad,Pcbnew,6.0.0-d3dd2cf0fa~116~ubuntu20.04.1
; #@! TF.FileFunction,Plated,1,2,PTH
FMAT,2
METRIC
; #@! TA.AperFunction,Plated,PTH,ViaDrill
T1C0.254
; #@! TA.AperFunction,Plated,PTH,ViaDrill
T2C0.350
; #@! TA.AperFunction,Plated,PTH,ComponentDrill
T3C0.500
; #@! TA.AperFunction,Plated,PTH,ComponentDrill
T4C1.000
%
G90
G05
T1
X99.3Y-97.8
X99.9Y-98.6
X100.473Y-98.7
X100.8Y-97.4
T2
X74.6Y-80.6
X74.7Y-83.6
X74.7Y-88.9
X74.8Y-94.0
X74.9Y-96.6
X74.9Y-99.2
X82.2Y-94.4
X82.2Y-97.9
X84.7Y-92.5
X84.7Y-97.3
X84.7Y-100.3
X85.1Y-83.5
X86.1Y-87.8
X86.3Y-82.6
X86.3Y-102.2
X86.6Y-80.6
X86.9Y-97.3
X87.0Y-99.5
X88.5Y-82.8
X88.6Y-87.9
X89.0Y-94.0
X89.0Y-95.5
X89.25Y-99.25
X89.8Y-102.6
X91.0Y-95.25
X91.2Y-90.6
X91.25Y-97.25
X92.0Y-92.4
X92.0Y-101.5
X92.8Y-96.8
X93.1Y-89.8
X93.1Y-93.1
X94.0Y-81.7
X94.4Y-80.2
X94.5Y-86.5
X94.5Y-95.5
X95.0Y-103.0
X95.1Y-81.7
X95.1Y-91.9
X95.2Y-94.3
X97.0Y-86.25
X97.1Y-97.0
X97.227Y-79.029
X98.1Y-83.5
X98.25Y-100.5
X98.75Y-94.25
X98.9Y-88.3
X99.0Y-92.5
X99.0Y-103.0
X99.25Y-84.0
X99.255Y-86.855
X99.3Y-79.9
X99.3Y-102.0
X99.35Y-81.75
X99.6Y-87.6
X99.9Y-101.0
X100.0Y-85.7
X100.3Y-96.4
X100.45Y-79.45
X100.5Y-87.3
X100.65Y-81.75
X100.75Y-93.5
X100.8Y-85.8
X100.893Y-80.15
X101.47Y-86.53
X101.75Y-98.25
X101.825Y-78.475
X102.9Y-96.6
X103.55Y-79.25
X104.1Y-98.2
X104.53Y-93.67
X105.0Y-96.1
X105.1Y-85.4
X105.2Y-79.9
X105.2Y-82.8
X106.0Y-90.0
X106.2Y-97.3
X106.215Y-81.785
X106.7Y-94.3
X106.75Y-92.25
X106.8Y-83.8
X106.865Y-82.435
X107.5Y-79.75
X107.9Y-93.1
X108.0Y-95.8
X108.5Y-88.1
X108.7Y-102.8
X108.9Y-84.7
X109.0Y-82.1
X109.2Y-94.3
X111.1Y-98.0
X111.4Y-94.0
X111.6Y-89.9
X111.9Y-92.2
X112.5Y-102.8
X114.3Y-87.2
X114.8Y-92.0
X115.4Y-90.0
X115.7Y-93.4
X117.1Y-84.1
X118.4Y-92.2
X119.0Y-90.0
X120.4Y-86.8
X120.5Y-88.5
X125.6Y-78.9
X125.6Y-81.1
X125.8Y-84.0
X125.8Y-86.7
X125.8Y-88.5
X125.8Y-92.6
T3
X90.2Y-101.2
X97.4Y-101.8
X106.5Y-95.8
T4
X72.06Y-80.0
X72.06Y-82.54
X72.06Y-85.08
X72.06Y-87.62
X72.06Y-90.16
X72.06Y-92.7
X72.06Y-95.24
X72.06Y-97.78
X72.06Y-100.32
X72.06Y-102.86
X127.94Y-80.0
X127.94Y-82.54
X127.94Y-85.08
X127.94Y-87.62
X127.94Y-90.16
X127.94Y-92.7
X127.94Y-95.24
X127.94Y-97.78
X127.94Y-100.32
X127.94Y-102.86
T0
M30
