G04 #@! TF.GenerationSoftware,KiCad,Pcbnew,6.0.0-d3dd2cf0fa~116~ubuntu20.04.1*
G04 #@! TF.CreationDate,2022-01-03T21:45:18+01:00*
G04 #@! TF.ProjectId,teebeutel_image_sensor,74656562-6575-4746-956c-5f696d616765,rev?*
G04 #@! TF.SameCoordinates,Original*
G04 #@! TF.FileFunction,Copper,L2,Bot*
G04 #@! TF.FilePolarity,Positive*
%FSLAX46Y46*%
G04 Gerber Fmt 4.6, Leading zero omitted, Abs format (unit mm)*
G04 Created by KiCad (PCBNEW 6.0.0-d3dd2cf0fa~116~ubuntu20.04.1) date 2022-01-03 21:45:18*
%MOMM*%
%LPD*%
G01*
G04 APERTURE LIST*
G04 Aperture macros list*
%AMRoundRect*
0 Rectangle with rounded corners*
0 $1 Rounding radius*
0 $2 $3 $4 $5 $6 $7 $8 $9 X,Y pos of 4 corners*
0 Add a 4 corners polygon primitive as box body*
4,1,4,$2,$3,$4,$5,$6,$7,$8,$9,$2,$3,0*
0 Add four circle primitives for the rounded corners*
1,1,$1+$1,$2,$3*
1,1,$1+$1,$4,$5*
1,1,$1+$1,$6,$7*
1,1,$1+$1,$8,$9*
0 Add four rect primitives between the rounded corners*
20,1,$1+$1,$2,$3,$4,$5,0*
20,1,$1+$1,$4,$5,$6,$7,0*
20,1,$1+$1,$6,$7,$8,$9,0*
20,1,$1+$1,$8,$9,$2,$3,0*%
%AMHorizOval*
0 Thick line with rounded ends*
0 $1 width*
0 $2 $3 position (X,Y) of the first rounded end (center of the circle)*
0 $4 $5 position (X,Y) of the second rounded end (center of the circle)*
0 Add line between two ends*
20,1,$1,$2,$3,$4,$5,0*
0 Add two circle primitives to create the rounded ends*
1,1,$1,$2,$3*
1,1,$1,$4,$5*%
%AMFreePoly0*
4,1,7,0.250000,-0.360000,0.010000,-0.360000,0.010000,-0.250000,-0.250000,-0.250000,-0.250000,0.250000,0.250000,0.250000,0.250000,-0.360000,0.250000,-0.360000,$1*%
G04 Aperture macros list end*
G04 #@! TA.AperFunction,ComponentPad*
%ADD10R,1.700000X1.700000*%
G04 #@! TD*
G04 #@! TA.AperFunction,ComponentPad*
%ADD11O,1.700000X1.700000*%
G04 #@! TD*
G04 #@! TA.AperFunction,SMDPad,CuDef*
%ADD12R,0.600000X0.500000*%
G04 #@! TD*
G04 #@! TA.AperFunction,SMDPad,CuDef*
%ADD13R,0.600000X0.900000*%
G04 #@! TD*
G04 #@! TA.AperFunction,SMDPad,CuDef*
%ADD14R,0.900000X0.600000*%
G04 #@! TD*
G04 #@! TA.AperFunction,SMDPad,CuDef*
%ADD15RoundRect,0.147500X0.147500X0.172500X-0.147500X0.172500X-0.147500X-0.172500X0.147500X-0.172500X0*%
G04 #@! TD*
G04 #@! TA.AperFunction,SMDPad,CuDef*
%ADD16R,0.500000X0.600000*%
G04 #@! TD*
G04 #@! TA.AperFunction,ComponentPad*
%ADD17R,1.000000X1.000000*%
G04 #@! TD*
G04 #@! TA.AperFunction,SMDPad,CuDef*
%ADD18HorizOval,0.180000X-0.021213X-0.021213X0.021213X0.021213X0*%
G04 #@! TD*
G04 #@! TA.AperFunction,SMDPad,CuDef*
%ADD19HorizOval,0.180000X-0.021213X0.021213X0.021213X-0.021213X0*%
G04 #@! TD*
G04 #@! TA.AperFunction,SMDPad,CuDef*
%ADD20C,0.130000*%
G04 #@! TD*
G04 #@! TA.AperFunction,SMDPad,CuDef*
%ADD21R,3.600000X0.800000*%
G04 #@! TD*
G04 #@! TA.AperFunction,SMDPad,CuDef*
%ADD22R,2.600000X0.700000*%
G04 #@! TD*
G04 #@! TA.AperFunction,SMDPad,CuDef*
%ADD23R,2.640000X0.800000*%
G04 #@! TD*
G04 #@! TA.AperFunction,SMDPad,CuDef*
%ADD24FreePoly0,0.000000*%
G04 #@! TD*
G04 #@! TA.AperFunction,SMDPad,CuDef*
%ADD25R,0.500000X0.500000*%
G04 #@! TD*
G04 #@! TA.AperFunction,SMDPad,CuDef*
%ADD26R,2.316000X1.200000*%
G04 #@! TD*
G04 #@! TA.AperFunction,SMDPad,CuDef*
%ADD27R,1.100000X1.300000*%
G04 #@! TD*
G04 #@! TA.AperFunction,SMDPad,CuDef*
%ADD28R,1.100000X0.950000*%
G04 #@! TD*
G04 #@! TA.AperFunction,SMDPad,CuDef*
%ADD29R,1.400000X2.400000*%
G04 #@! TD*
G04 #@! TA.AperFunction,SMDPad,CuDef*
%ADD30R,0.900000X0.800000*%
G04 #@! TD*
G04 #@! TA.AperFunction,SMDPad,CuDef*
%ADD31R,0.700000X1.300000*%
G04 #@! TD*
G04 #@! TA.AperFunction,ViaPad*
%ADD32C,0.600000*%
G04 #@! TD*
G04 #@! TA.AperFunction,ViaPad*
%ADD33C,0.400000*%
G04 #@! TD*
G04 #@! TA.AperFunction,Conductor*
%ADD34C,0.300000*%
G04 #@! TD*
G04 #@! TA.AperFunction,Conductor*
%ADD35C,0.400000*%
G04 #@! TD*
G04 #@! TA.AperFunction,Conductor*
%ADD36C,0.200000*%
G04 #@! TD*
G04 #@! TA.AperFunction,Conductor*
%ADD37C,0.127000*%
G04 #@! TD*
G04 #@! TA.AperFunction,Conductor*
%ADD38C,0.150000*%
G04 #@! TD*
G04 APERTURE END LIST*
D10*
X127940000Y-80000000D03*
D11*
X127940000Y-82540000D03*
X127940000Y-85080000D03*
X127940000Y-87620000D03*
X127940000Y-90160000D03*
X127940000Y-92700000D03*
X127940000Y-95240000D03*
X127940000Y-97780000D03*
X127940000Y-100320000D03*
X127940000Y-102860000D03*
D10*
X72060000Y-80000000D03*
D11*
X72060000Y-82540000D03*
X72060000Y-85080000D03*
X72060000Y-87620000D03*
X72060000Y-90160000D03*
X72060000Y-92700000D03*
X72060000Y-95240000D03*
X72060000Y-97780000D03*
X72060000Y-100320000D03*
X72060000Y-102860000D03*
D12*
X91400000Y-99070000D03*
X91400000Y-98130000D03*
X96200000Y-98070000D03*
X96200000Y-97130000D03*
D13*
X100750000Y-101000000D03*
X99250000Y-101000000D03*
X105250000Y-88800000D03*
X106750000Y-88800000D03*
D14*
X96000000Y-81750000D03*
X96000000Y-80250000D03*
D13*
X105250000Y-91200000D03*
X106750000Y-91200000D03*
D12*
X100000000Y-79670000D03*
X100000000Y-78730000D03*
X105400000Y-92730000D03*
X105400000Y-93670000D03*
D13*
X101050000Y-79200000D03*
X102550000Y-79200000D03*
D14*
X106400000Y-87550000D03*
X106400000Y-86050000D03*
D15*
X94360000Y-87600000D03*
X93385000Y-87600000D03*
X92415000Y-87600000D03*
D12*
X90200000Y-98730000D03*
X90200000Y-99670000D03*
X92200000Y-89670000D03*
X92200000Y-88730000D03*
X94400000Y-93470000D03*
X94400000Y-92530000D03*
D16*
X99070000Y-79400000D03*
X98130000Y-79400000D03*
D12*
X105200000Y-81470000D03*
X105200000Y-80530000D03*
X93200000Y-90330000D03*
X93200000Y-91270000D03*
D16*
X97330000Y-98000000D03*
X98270000Y-98000000D03*
D12*
X104000000Y-83270000D03*
X104000000Y-82330000D03*
X104200000Y-79930000D03*
X104200000Y-80870000D03*
X94400000Y-90470000D03*
X94400000Y-89530000D03*
X107700000Y-89530000D03*
X107700000Y-90470000D03*
X96200000Y-99130000D03*
X96200000Y-100070000D03*
D17*
X97400000Y-101800000D03*
X106500000Y-95800000D03*
X90200000Y-101200000D03*
D18*
X99780000Y-99620000D03*
D19*
X100220000Y-99620000D03*
X99780000Y-99180000D03*
D18*
X100220000Y-99180000D03*
D20*
X99875000Y-98125000D03*
X100125000Y-98125000D03*
X99875000Y-97875000D03*
X100125000Y-97875000D03*
D21*
X97450000Y-95500000D03*
D22*
X96950000Y-92540000D03*
X96950000Y-91270000D03*
X96950000Y-90000000D03*
X96950000Y-88730000D03*
X96950000Y-87460000D03*
D23*
X96950000Y-84500000D03*
X103050000Y-84500000D03*
D22*
X103050000Y-87460000D03*
X103050000Y-88730000D03*
X103050000Y-90000000D03*
X103050000Y-91270000D03*
X103050000Y-92573000D03*
D23*
X103030000Y-95500000D03*
D24*
X102300000Y-80690000D03*
D25*
X101550000Y-80690000D03*
X100750000Y-80690000D03*
X100000000Y-80690000D03*
X99250000Y-80690000D03*
X98450000Y-80690000D03*
X97700000Y-80690000D03*
X102710000Y-81750000D03*
D26*
X100000000Y-81750000D03*
D25*
X97300000Y-81750000D03*
X102300000Y-82810000D03*
X101550000Y-82810000D03*
X100750000Y-82810000D03*
X100000000Y-82810000D03*
X99250000Y-82810000D03*
X98450000Y-82810000D03*
X97700000Y-82810000D03*
D27*
X92975000Y-100250000D03*
X92975000Y-98150000D03*
X94625000Y-98150000D03*
X94625000Y-100250000D03*
D12*
X105200000Y-87470000D03*
X105200000Y-86530000D03*
D28*
X87250000Y-94025000D03*
X85750000Y-88975000D03*
D29*
X86500000Y-91500000D03*
D28*
X85750000Y-94025000D03*
X87250000Y-88975000D03*
X114250000Y-94025000D03*
X112750000Y-88975000D03*
D29*
X113500000Y-91500000D03*
D28*
X112750000Y-94025000D03*
X114250000Y-88975000D03*
D30*
X80500000Y-100050000D03*
X80500000Y-98150000D03*
X82500000Y-99100000D03*
X80500000Y-96550000D03*
X80500000Y-94650000D03*
X82500000Y-95600000D03*
D12*
X79300000Y-100070000D03*
X79300000Y-99130000D03*
X79300000Y-96570000D03*
X79300000Y-95630000D03*
D31*
X85750000Y-99100000D03*
X83850000Y-99100000D03*
X85750000Y-95600000D03*
X83850000Y-95600000D03*
D32*
X105000000Y-96100000D03*
X89800000Y-102600000D03*
X74900000Y-99200000D03*
X84700000Y-92500000D03*
X88600000Y-87900000D03*
X108900000Y-84700000D03*
X89000000Y-95500000D03*
X109200000Y-94300000D03*
X74700000Y-83600000D03*
X111400000Y-94000000D03*
X106700000Y-94300000D03*
X99000000Y-92500000D03*
X115700000Y-93400000D03*
X99250000Y-84000000D03*
X101750000Y-98250000D03*
X106000000Y-90000000D03*
X94500000Y-86500000D03*
X86100000Y-87800000D03*
X125800000Y-86700000D03*
X89000000Y-94000000D03*
X120500000Y-88500000D03*
X95200000Y-94300000D03*
X98250000Y-100500000D03*
X91000000Y-95250000D03*
X98750000Y-94250000D03*
X98900000Y-88300000D03*
X92000000Y-101500000D03*
X97226856Y-79028560D03*
X98100000Y-83500000D03*
X74800000Y-94000000D03*
X74900000Y-96600000D03*
X107500000Y-79750000D03*
X91250000Y-97250000D03*
X117100000Y-84100000D03*
X82200000Y-97900000D03*
X106200000Y-97300000D03*
X125800000Y-88500000D03*
X125800000Y-84000000D03*
X99350000Y-81750000D03*
X106800000Y-83800000D03*
X92800000Y-96800000D03*
X86300000Y-102200000D03*
X95100000Y-91900000D03*
X100750000Y-93500000D03*
X120400000Y-86800000D03*
X118400000Y-92200000D03*
X108000000Y-95800000D03*
X100650000Y-81750000D03*
X125600000Y-81100000D03*
X111900000Y-92200000D03*
X101470000Y-86530000D03*
X111100000Y-98000000D03*
X106750000Y-92250000D03*
X125800000Y-92600000D03*
X99900000Y-101000000D03*
X99255000Y-86855000D03*
X102900000Y-96600000D03*
X104100000Y-98200000D03*
X82200000Y-94400000D03*
X125600000Y-78900000D03*
X91200000Y-90600000D03*
X99000000Y-103000000D03*
X86900000Y-97300000D03*
X89250000Y-99250000D03*
X100300000Y-96400000D03*
X86600000Y-80600000D03*
X114800000Y-92000000D03*
X85100000Y-83500000D03*
X74600000Y-80600000D03*
X109000000Y-82100000D03*
X84700000Y-97300000D03*
X101825000Y-78475000D03*
X107900000Y-93100000D03*
X114300000Y-87200000D03*
X99300000Y-102000000D03*
X94400000Y-80200000D03*
X104530000Y-93670000D03*
X97000000Y-86250000D03*
X74700000Y-88900000D03*
X108500000Y-88100000D03*
X92000000Y-92400000D03*
X94500000Y-95500000D03*
X88500000Y-82800000D03*
X111600000Y-89900000D03*
X97100000Y-97000000D03*
X119000000Y-90000000D03*
X108700000Y-102800000D03*
X105200000Y-82800000D03*
X87000000Y-99500000D03*
X84700000Y-100300000D03*
X95000000Y-103000000D03*
X115400000Y-90000000D03*
X103550000Y-79250000D03*
X105100000Y-85400000D03*
X112500000Y-102800000D03*
X100000000Y-85700000D03*
X99600000Y-87600000D03*
X100500000Y-87300000D03*
X100800000Y-85800000D03*
D33*
X100472990Y-98700000D03*
X100800000Y-97400000D03*
D32*
X95100000Y-81700000D03*
X94000000Y-81700000D03*
X93100000Y-93100000D03*
X106215000Y-81785000D03*
X93100000Y-89800000D03*
X100450002Y-79449998D03*
X99300000Y-79900000D03*
X106865000Y-82435000D03*
X86300000Y-82600000D03*
X100892690Y-80150000D03*
X105200000Y-79900000D03*
D33*
X99299990Y-97800000D03*
X99900000Y-98600000D03*
D34*
X99350000Y-81750000D02*
X98542000Y-81750000D01*
X100650000Y-81750000D02*
X101520002Y-81750000D01*
X101825000Y-78475000D02*
X102550000Y-79200000D01*
X98100000Y-83500000D02*
X97840000Y-83500000D01*
X103550000Y-79250000D02*
X103500000Y-79200000D01*
D35*
X101470000Y-86530000D02*
X104500000Y-86530000D01*
X99255000Y-86855000D02*
X99580000Y-86530000D01*
D34*
X106750000Y-92250000D02*
X106750000Y-92920000D01*
X98542000Y-81750000D02*
X98450000Y-81842000D01*
X98542000Y-81750000D02*
X98450000Y-81658000D01*
X98450000Y-81250000D02*
X98422999Y-81222999D01*
D35*
X99250000Y-101000000D02*
X99250000Y-101950000D01*
D36*
X96950000Y-87460000D02*
X94500000Y-87460000D01*
D34*
X98450000Y-82810000D02*
X98450000Y-83360000D01*
D37*
X99250000Y-100150000D02*
X99780000Y-99620000D01*
D34*
X97360000Y-80140000D02*
X96110000Y-80140000D01*
X100000000Y-81750000D02*
X99350000Y-81750000D01*
D35*
X99250000Y-101950000D02*
X99300000Y-102000000D01*
X96950000Y-87460000D02*
X98650000Y-87460000D01*
D34*
X97840000Y-83500000D02*
X97700000Y-83360000D01*
X100000000Y-81750000D02*
X100650000Y-81750000D01*
D35*
X92975000Y-98150000D02*
X92975000Y-96975000D01*
D37*
X99600000Y-98200000D02*
X99669499Y-98130501D01*
D35*
X98900000Y-87710000D02*
X98900000Y-87875736D01*
X98650000Y-87460000D02*
X99255000Y-86855000D01*
D34*
X104200000Y-79900000D02*
X103550000Y-79250000D01*
X97700000Y-80180000D02*
X97700000Y-80690000D01*
X101520002Y-81750000D02*
X101550000Y-81720002D01*
X100000000Y-78730000D02*
X97525416Y-78730000D01*
X106750000Y-91200000D02*
X106750000Y-92250000D01*
X101550000Y-81240000D02*
X101550000Y-80690000D01*
D35*
X105400000Y-93670000D02*
X104530000Y-93670000D01*
D34*
X97700000Y-83360000D02*
X97700000Y-82810000D01*
X97360000Y-80140000D02*
X97360000Y-79161704D01*
D36*
X99250000Y-98550000D02*
X99600000Y-98200000D01*
D34*
X91400000Y-98130000D02*
X92955000Y-98130000D01*
X101550000Y-81720002D02*
X101550000Y-81240000D01*
X97740000Y-80140000D02*
X97360000Y-80140000D01*
X96150000Y-80250000D02*
X96000000Y-80250000D01*
X101550000Y-80200000D02*
X102550000Y-79200000D01*
X96170000Y-97100000D02*
X93900000Y-97100000D01*
X98450000Y-80690000D02*
X98450000Y-81250000D01*
X98310000Y-83500000D02*
X98100000Y-83500000D01*
D35*
X105920000Y-86530000D02*
X106400000Y-86050000D01*
D34*
X96200000Y-97130000D02*
X96170000Y-97100000D01*
D36*
X99250000Y-101000000D02*
X99250000Y-100150000D01*
D35*
X104500000Y-86530000D02*
X105200000Y-86530000D01*
X99250000Y-101000000D02*
X99900000Y-101000000D01*
D34*
X106000000Y-93670000D02*
X105400000Y-93670000D01*
X98450000Y-83360000D02*
X98310000Y-83500000D01*
X106750000Y-92920000D02*
X106000000Y-93670000D01*
D35*
X98900000Y-87875736D02*
X98900000Y-88300000D01*
D34*
X97740000Y-80140000D02*
X97700000Y-80180000D01*
X98450000Y-81658000D02*
X98450000Y-80690000D01*
X101725010Y-78375010D02*
X101825000Y-78475000D01*
X101550000Y-80690000D02*
X101550000Y-80200000D01*
D35*
X106750000Y-91200000D02*
X106970000Y-91200000D01*
X96970000Y-97130000D02*
X97100000Y-97000000D01*
D36*
X94500000Y-87460000D02*
X94360000Y-87600000D01*
D35*
X92975000Y-96975000D02*
X92800000Y-96800000D01*
D34*
X97740000Y-81222999D02*
X97740000Y-80140000D01*
D35*
X105200000Y-86530000D02*
X105920000Y-86530000D01*
D34*
X98450000Y-81842000D02*
X98450000Y-82810000D01*
X100354990Y-78375010D02*
X101725010Y-78375010D01*
X93900000Y-97100000D02*
X92975000Y-98025000D01*
X92975000Y-98025000D02*
X92975000Y-98150000D01*
X104200000Y-79930000D02*
X104200000Y-79900000D01*
D35*
X99580000Y-86530000D02*
X101470000Y-86530000D01*
D34*
X102300000Y-82470002D02*
X101550000Y-81720002D01*
D36*
X99250000Y-100150000D02*
X99250000Y-98550000D01*
D34*
X92955000Y-98130000D02*
X92975000Y-98150000D01*
X96110000Y-80140000D02*
X96000000Y-80250000D01*
D35*
X96200000Y-97130000D02*
X96970000Y-97130000D01*
D34*
X100000000Y-78730000D02*
X100354990Y-78375010D01*
D35*
X98650000Y-87460000D02*
X98900000Y-87710000D01*
D34*
X102300000Y-82810000D02*
X102300000Y-82470002D01*
D35*
X106970000Y-91200000D02*
X107700000Y-90470000D01*
D34*
X97525416Y-78730000D02*
X97226856Y-79028560D01*
X97360000Y-79161704D02*
X97226856Y-79028560D01*
D37*
X99669499Y-98130501D02*
X99869499Y-98130501D01*
D34*
X98422999Y-81222999D02*
X97740000Y-81222999D01*
X103500000Y-79200000D02*
X102550000Y-79200000D01*
D36*
X97930000Y-91270000D02*
X99600000Y-89600000D01*
X100000000Y-82810000D02*
X100000000Y-83260000D01*
X96950000Y-91270000D02*
X93200000Y-91270000D01*
X99600000Y-88024264D02*
X99600000Y-87600000D01*
X99600000Y-89600000D02*
X99600000Y-88024264D01*
X96950000Y-91270000D02*
X97930000Y-91270000D01*
X100000000Y-83260000D02*
X100000000Y-85700000D01*
X96950000Y-92540000D02*
X94410000Y-92540000D01*
X100750000Y-82810000D02*
X100750000Y-85750000D01*
X100200001Y-87599999D02*
X100200001Y-90299999D01*
X100200001Y-90299999D02*
X97960000Y-92540000D01*
X100500000Y-87300000D02*
X100200001Y-87599999D01*
X100750000Y-85750000D02*
X100800000Y-85800000D01*
X94410000Y-92540000D02*
X94400000Y-92530000D01*
X97960000Y-92540000D02*
X96950000Y-92540000D01*
D37*
X100330501Y-97869499D02*
X100800000Y-97400000D01*
X100220000Y-99180000D02*
X100220000Y-98952990D01*
D38*
X114600000Y-93100000D02*
X109200000Y-93100000D01*
X109200000Y-93100000D02*
X106500000Y-95800000D01*
X120080000Y-87620000D02*
X114600000Y-93100000D01*
X127940000Y-87620000D02*
X120080000Y-87620000D01*
D37*
X100272991Y-98899999D02*
X100472990Y-98700000D01*
X100220000Y-98952990D02*
X100272991Y-98899999D01*
X100130501Y-97869499D02*
X100330501Y-97869499D01*
D36*
X102310000Y-80690000D02*
X102490000Y-80870000D01*
D38*
X110480000Y-85080000D02*
X127940000Y-85080000D01*
D36*
X102300000Y-80690000D02*
X102310000Y-80690000D01*
D38*
X104650000Y-80870000D02*
X104780000Y-81000000D01*
X104780000Y-81000000D02*
X106400000Y-81000000D01*
D36*
X102490000Y-80870000D02*
X104200000Y-80870000D01*
D38*
X104200000Y-80870000D02*
X104650000Y-80870000D01*
X106400000Y-81000000D02*
X110480000Y-85080000D01*
D35*
X100450002Y-79449998D02*
X100800002Y-79449998D01*
X99300000Y-79900000D02*
X99340000Y-79670000D01*
X106215000Y-81785000D02*
X105900000Y-81470000D01*
X106865000Y-82435000D02*
X106215000Y-81785000D01*
X87200000Y-81700000D02*
X87250000Y-81750000D01*
D36*
X92425000Y-89700000D02*
X92200000Y-89700000D01*
D35*
X107800000Y-83370000D02*
X106865000Y-82435000D01*
D37*
X100600000Y-98200000D02*
X100530501Y-98130501D01*
D34*
X91130000Y-93470000D02*
X93070000Y-93470000D01*
D35*
X94000000Y-81700000D02*
X87200000Y-81700000D01*
D34*
X101200000Y-95340000D02*
X99330000Y-93470000D01*
D38*
X93100000Y-90230000D02*
X93200000Y-90330000D01*
D35*
X103050000Y-87460000D02*
X105190000Y-87460000D01*
D38*
X93070000Y-93130000D02*
X93100000Y-93100000D01*
D35*
X99930000Y-79600000D02*
X99300000Y-79600000D01*
X104870000Y-81750000D02*
X103420000Y-81750000D01*
X105200000Y-87470000D02*
X106320000Y-87470000D01*
D36*
X100750000Y-100350000D02*
X100900000Y-100200000D01*
D35*
X87300000Y-81700000D02*
X73760000Y-81700000D01*
X104000000Y-81800000D02*
X104000000Y-82330000D01*
X105243000Y-92573000D02*
X105400000Y-92730000D01*
D34*
X100750000Y-101000000D02*
X102400000Y-101000000D01*
X99330000Y-93470000D02*
X94400000Y-93470000D01*
D35*
X100000000Y-79670000D02*
X100220002Y-79449998D01*
D36*
X93125000Y-90400000D02*
X92425000Y-89700000D01*
D37*
X100530501Y-98130501D02*
X100130501Y-98130501D01*
D36*
X100900000Y-100200000D02*
X100900000Y-98468036D01*
D35*
X100800000Y-92023000D02*
X101350000Y-92573000D01*
X100800000Y-88010000D02*
X100800000Y-92023000D01*
D34*
X90200000Y-98730000D02*
X91060000Y-98730000D01*
X91060000Y-98730000D02*
X91400000Y-99070000D01*
D35*
X100000000Y-79670000D02*
X99930000Y-79600000D01*
X103050000Y-87460000D02*
X101350000Y-87460000D01*
X101350000Y-92573000D02*
X103050000Y-92573000D01*
X114250000Y-88850000D02*
X114250000Y-88975000D01*
D34*
X92130000Y-99200000D02*
X93700000Y-99200000D01*
D35*
X100220002Y-79449998D02*
X100450002Y-79449998D01*
X100000000Y-80690000D02*
X100000000Y-79670000D01*
X106320000Y-87470000D02*
X106400000Y-87550000D01*
D34*
X90200000Y-98730000D02*
X90200000Y-94400000D01*
X102400000Y-101000000D02*
X103100000Y-100300000D01*
D35*
X96000000Y-81700000D02*
X94000000Y-81700000D01*
X102710000Y-81750000D02*
X103420000Y-81750000D01*
X106400000Y-87550000D02*
X107250000Y-87550000D01*
D34*
X92000000Y-99070000D02*
X92130000Y-99200000D01*
D36*
X100750000Y-101000000D02*
X100750000Y-100350000D01*
D35*
X103420000Y-81750000D02*
X103950000Y-81750000D01*
X107800000Y-87000000D02*
X107800000Y-83370000D01*
X105150000Y-81470000D02*
X104870000Y-81750000D01*
D38*
X93100000Y-89800000D02*
X93100000Y-90230000D01*
D36*
X94300000Y-90400000D02*
X94400000Y-90500000D01*
D37*
X100750000Y-100150000D02*
X100220000Y-99620000D01*
D35*
X105190000Y-87460000D02*
X105200000Y-87470000D01*
D36*
X100900000Y-98468036D02*
X100631964Y-98200000D01*
D34*
X103100000Y-98200000D02*
X101200000Y-96300000D01*
D35*
X107250000Y-87550000D02*
X107800000Y-87000000D01*
D37*
X100750000Y-100350000D02*
X100750000Y-100150000D01*
D35*
X101350000Y-87460000D02*
X100800000Y-88010000D01*
X112400000Y-87000000D02*
X114250000Y-88850000D01*
D34*
X103100000Y-100300000D02*
X103100000Y-98200000D01*
X91400000Y-99070000D02*
X92000000Y-99070000D01*
X101200000Y-96300000D02*
X101200000Y-95340000D01*
D35*
X105900000Y-81470000D02*
X105200000Y-81470000D01*
X103950000Y-81750000D02*
X104000000Y-81800000D01*
D36*
X93300000Y-90400000D02*
X94300000Y-90400000D01*
X93200000Y-90300000D02*
X93300000Y-90400000D01*
D34*
X93070000Y-93470000D02*
X94400000Y-93470000D01*
D35*
X96000000Y-81750000D02*
X97300000Y-81750000D01*
X99300000Y-79600000D02*
X99300000Y-79900000D01*
X103050000Y-92573000D02*
X105243000Y-92573000D01*
X107800000Y-87000000D02*
X112400000Y-87000000D01*
D34*
X93700000Y-99200000D02*
X94625000Y-100125000D01*
X90200000Y-94400000D02*
X91130000Y-93470000D01*
X100800000Y-92023000D02*
X100777000Y-92023000D01*
X94625000Y-100125000D02*
X94625000Y-100250000D01*
D38*
X93070000Y-93470000D02*
X93070000Y-93130000D01*
D35*
X87250000Y-81750000D02*
X87250000Y-88975000D01*
X99340000Y-79670000D02*
X99070000Y-79400000D01*
D36*
X93200000Y-90400000D02*
X93125000Y-90400000D01*
D35*
X105200000Y-81470000D02*
X105150000Y-81470000D01*
D34*
X100777000Y-92023000D02*
X99330000Y-93470000D01*
D35*
X100800002Y-79449998D02*
X101050000Y-79200000D01*
D36*
X93200000Y-90330000D02*
X93200000Y-90400000D01*
D35*
X73760000Y-81700000D02*
X72060000Y-80000000D01*
D36*
X86240000Y-82540000D02*
X72060000Y-82540000D01*
X100750000Y-80690000D02*
X100750000Y-80292690D01*
X100750000Y-80292690D02*
X100892690Y-80150000D01*
X105200000Y-79900000D02*
X105200000Y-80530000D01*
X86300000Y-82600000D02*
X86240000Y-82540000D01*
X94800000Y-90000000D02*
X94400000Y-89600000D01*
D38*
X93500000Y-89200000D02*
X91300000Y-89200000D01*
X82600000Y-92700000D02*
X72060000Y-92700000D01*
X85400000Y-89900000D02*
X82600000Y-92700000D01*
X93830000Y-89530000D02*
X93500000Y-89200000D01*
X94400000Y-89530000D02*
X93830000Y-89530000D01*
X91300000Y-89200000D02*
X90600000Y-89900000D01*
X90600000Y-89900000D02*
X85400000Y-89900000D01*
D36*
X96950000Y-90000000D02*
X94800000Y-90000000D01*
D38*
X79320000Y-96550000D02*
X79300000Y-96570000D01*
X80500000Y-96550000D02*
X79320000Y-96550000D01*
X77970000Y-95240000D02*
X72060000Y-95240000D01*
X79300000Y-96570000D02*
X77970000Y-95240000D01*
X79300000Y-100070000D02*
X77010000Y-97780000D01*
D36*
X80500000Y-100050000D02*
X79320000Y-100050000D01*
D38*
X77010000Y-97780000D02*
X72060000Y-97780000D01*
D36*
X92975000Y-100275000D02*
X92975000Y-100250000D01*
X94000000Y-101300000D02*
X92975000Y-100275000D01*
D34*
X90230000Y-100250000D02*
X90200000Y-100220000D01*
X92975000Y-100250000D02*
X90230000Y-100250000D01*
D36*
X95420000Y-101300000D02*
X94000000Y-101300000D01*
X96200000Y-100520000D02*
X95420000Y-101300000D01*
D34*
X90200000Y-101200000D02*
X90200000Y-99670000D01*
X90200000Y-100220000D02*
X90200000Y-99670000D01*
D36*
X96200000Y-100070000D02*
X96200000Y-100520000D01*
X94625000Y-98150000D02*
X96120000Y-98150000D01*
X97400000Y-100280000D02*
X96250000Y-99130000D01*
X96200000Y-98070000D02*
X97260000Y-98070000D01*
X96120000Y-98150000D02*
X96200000Y-98070000D01*
X97400000Y-101800000D02*
X97400000Y-100280000D01*
X96200000Y-98070000D02*
X96200000Y-99130000D01*
X97260000Y-98070000D02*
X97330000Y-98000000D01*
X96250000Y-99130000D02*
X96200000Y-99130000D01*
D35*
X106970000Y-88800000D02*
X107700000Y-89530000D01*
X106750000Y-88800000D02*
X106970000Y-88800000D01*
X103050000Y-88730000D02*
X105180000Y-88730000D01*
X105180000Y-88730000D02*
X105250000Y-88800000D01*
X105180000Y-91270000D02*
X105250000Y-91200000D01*
X103050000Y-91270000D02*
X105180000Y-91270000D01*
D36*
X92415000Y-87600000D02*
X92415000Y-88515000D01*
X92415000Y-88515000D02*
X92200000Y-88730000D01*
X95020000Y-88300000D02*
X93765000Y-88300000D01*
X96950000Y-88730000D02*
X95450000Y-88730000D01*
X95450000Y-88730000D02*
X95020000Y-88300000D01*
X93385000Y-87920000D02*
X93385000Y-87600000D01*
X93765000Y-88300000D02*
X93385000Y-87920000D01*
D38*
X99250000Y-80570000D02*
X98130000Y-79450000D01*
X98130000Y-79450000D02*
X98130000Y-79400000D01*
X99250000Y-80690000D02*
X99250000Y-80570000D01*
D37*
X99780000Y-98720000D02*
X99900000Y-98600000D01*
X99400000Y-97800000D02*
X99800000Y-97800000D01*
X99800000Y-97800000D02*
X99869499Y-97869499D01*
X98647000Y-98000000D02*
X98847000Y-97800000D01*
X98847000Y-97800000D02*
X99400000Y-97800000D01*
X98270000Y-98000000D02*
X98647000Y-98000000D01*
X99400000Y-97800000D02*
X99299990Y-97800000D01*
X99780000Y-99180000D02*
X99780000Y-98720000D01*
D36*
X102010000Y-83720000D02*
X103050000Y-83720000D01*
X103050000Y-83720000D02*
X103500000Y-83270000D01*
X103500000Y-83270000D02*
X104000000Y-83270000D01*
X101550000Y-82810000D02*
X101550000Y-83260000D01*
X101550000Y-83260000D02*
X102010000Y-83720000D01*
D35*
X112750000Y-94025000D02*
X112750000Y-100650000D01*
X109100000Y-104300000D02*
X90000000Y-104300000D01*
X85750000Y-100050000D02*
X85750000Y-94025000D01*
X90000000Y-104300000D02*
X85750000Y-100050000D01*
X112750000Y-100650000D02*
X109100000Y-104300000D01*
X83850000Y-99100000D02*
X82500000Y-99100000D01*
X83750000Y-95600000D02*
X82400000Y-95600000D01*
G04 #@! TA.AperFunction,Conductor*
G36*
X128655404Y-78199121D02*
G01*
X128677802Y-78199160D01*
X128699642Y-78204182D01*
X128710598Y-78201703D01*
X128716027Y-78202952D01*
X128716243Y-78200425D01*
X128716244Y-78200425D01*
X128769910Y-78205005D01*
X128869629Y-78213515D01*
X128902976Y-78219249D01*
X129035549Y-78253862D01*
X129051264Y-78257965D01*
X129083163Y-78269267D01*
X129222758Y-78332556D01*
X129252271Y-78349096D01*
X129379117Y-78435117D01*
X129405402Y-78456417D01*
X129515848Y-78562697D01*
X129538144Y-78588145D01*
X129587686Y-78655475D01*
X129628974Y-78711588D01*
X129646640Y-78740451D01*
X129715244Y-78877504D01*
X129727764Y-78908946D01*
X129772152Y-79055640D01*
X129779163Y-79088744D01*
X129798098Y-79241181D01*
X129796705Y-79241354D01*
X129797394Y-79244890D01*
X129794995Y-79257527D01*
X129799426Y-79274118D01*
X129799017Y-79276271D01*
X129800001Y-79276271D01*
X129800959Y-103654691D01*
X129800879Y-103655393D01*
X129800840Y-103677802D01*
X129795818Y-103699642D01*
X129798297Y-103710598D01*
X129797048Y-103716027D01*
X129799575Y-103716243D01*
X129786485Y-103869628D01*
X129780751Y-103902976D01*
X129769947Y-103944360D01*
X129742035Y-104051264D01*
X129730733Y-104083163D01*
X129673686Y-104208991D01*
X129667446Y-104222754D01*
X129650904Y-104252271D01*
X129626395Y-104288412D01*
X129564886Y-104379113D01*
X129543583Y-104405402D01*
X129474447Y-104477248D01*
X129437306Y-104515845D01*
X129411855Y-104538144D01*
X129388468Y-104555352D01*
X129288412Y-104628974D01*
X129259548Y-104646640D01*
X129137905Y-104707531D01*
X129122496Y-104715244D01*
X129091054Y-104727764D01*
X128944360Y-104772152D01*
X128911256Y-104779163D01*
X128758819Y-104798098D01*
X128758646Y-104796703D01*
X128755104Y-104797393D01*
X128742473Y-104794995D01*
X128725882Y-104799426D01*
X128723729Y-104799017D01*
X128723729Y-104800001D01*
X109646503Y-104800320D01*
X109560161Y-104780614D01*
X109490919Y-104725397D01*
X109452491Y-104645605D01*
X109452490Y-104557042D01*
X109490914Y-104477248D01*
X109505787Y-104460606D01*
X110838994Y-103127399D01*
X126924313Y-103127399D01*
X126956328Y-103239048D01*
X126963457Y-103257053D01*
X127048685Y-103422890D01*
X127059181Y-103439176D01*
X127174989Y-103585290D01*
X127188452Y-103599231D01*
X127330439Y-103720071D01*
X127346349Y-103731129D01*
X127509099Y-103822086D01*
X127526860Y-103829846D01*
X127668673Y-103875924D01*
X127686485Y-103877527D01*
X127690000Y-103866707D01*
X127690000Y-103857982D01*
X128190000Y-103857982D01*
X128193979Y-103875416D01*
X128207868Y-103875416D01*
X128312173Y-103846293D01*
X128330224Y-103839292D01*
X128496655Y-103755221D01*
X128513011Y-103744842D01*
X128659939Y-103630049D01*
X128673960Y-103616696D01*
X128795795Y-103475550D01*
X128806961Y-103459721D01*
X128899059Y-103297599D01*
X128906935Y-103279908D01*
X128956380Y-103131274D01*
X128958107Y-103113479D01*
X128947650Y-103110000D01*
X128212423Y-103110000D01*
X128193453Y-103114330D01*
X128190000Y-103121500D01*
X128190000Y-103857982D01*
X127690000Y-103857982D01*
X127690000Y-103132423D01*
X127685670Y-103113453D01*
X127678500Y-103110000D01*
X126941747Y-103110000D01*
X126924313Y-103113979D01*
X126924313Y-103127399D01*
X110838994Y-103127399D01*
X111359945Y-102606448D01*
X126922995Y-102606448D01*
X126934192Y-102610000D01*
X127667577Y-102610000D01*
X127686547Y-102605670D01*
X127690000Y-102598500D01*
X127690000Y-102587577D01*
X128190000Y-102587577D01*
X128194330Y-102606547D01*
X128201500Y-102610000D01*
X128938958Y-102610000D01*
X128956392Y-102606021D01*
X128956392Y-102593476D01*
X128918284Y-102467258D01*
X128910901Y-102449345D01*
X128823371Y-102284726D01*
X128812645Y-102268582D01*
X128694807Y-102124097D01*
X128681153Y-102110348D01*
X128537495Y-101991503D01*
X128521431Y-101980668D01*
X128357421Y-101891989D01*
X128339566Y-101884483D01*
X128211419Y-101844815D01*
X128193589Y-101843461D01*
X128190000Y-101855057D01*
X128190000Y-102587577D01*
X127690000Y-102587577D01*
X127690000Y-101861422D01*
X127686021Y-101843988D01*
X127673049Y-101843988D01*
X127554099Y-101878997D01*
X127536135Y-101886255D01*
X127370897Y-101972639D01*
X127354691Y-101983244D01*
X127209385Y-102100074D01*
X127195544Y-102113628D01*
X127075690Y-102256464D01*
X127064752Y-102272438D01*
X126974925Y-102435832D01*
X126967296Y-102453633D01*
X126924473Y-102588627D01*
X126922995Y-102606448D01*
X111359945Y-102606448D01*
X113055484Y-100910909D01*
X113055487Y-100910905D01*
X113078050Y-100888342D01*
X113085424Y-100873870D01*
X113101745Y-100847237D01*
X113102091Y-100846761D01*
X113102093Y-100846758D01*
X113111297Y-100834089D01*
X113116318Y-100818636D01*
X113128273Y-100789774D01*
X113128537Y-100789256D01*
X113135646Y-100775304D01*
X113138188Y-100759254D01*
X113145478Y-100728889D01*
X113145660Y-100728329D01*
X113150500Y-100713433D01*
X113150500Y-100305262D01*
X126884520Y-100305262D01*
X126889212Y-100361133D01*
X126900831Y-100499500D01*
X126901759Y-100510553D01*
X126904441Y-100519908D01*
X126904442Y-100519911D01*
X126955862Y-100699234D01*
X126958544Y-100708586D01*
X126962991Y-100717239D01*
X127036314Y-100859910D01*
X127052712Y-100891818D01*
X127058759Y-100899447D01*
X127058760Y-100899449D01*
X127174628Y-101045639D01*
X127174632Y-101045643D01*
X127180677Y-101053270D01*
X127337564Y-101186791D01*
X127346057Y-101191538D01*
X127346062Y-101191541D01*
X127427481Y-101237044D01*
X127517398Y-101287297D01*
X127526653Y-101290304D01*
X127526655Y-101290305D01*
X127704070Y-101347951D01*
X127704074Y-101347952D01*
X127713329Y-101350959D01*
X127722993Y-101352111D01*
X127722996Y-101352112D01*
X127908232Y-101374199D01*
X127908233Y-101374199D01*
X127917894Y-101375351D01*
X127927590Y-101374605D01*
X127927592Y-101374605D01*
X127988037Y-101369954D01*
X128123300Y-101359546D01*
X128321725Y-101304145D01*
X128330404Y-101299761D01*
X128330409Y-101299759D01*
X128496929Y-101215643D01*
X128496928Y-101215643D01*
X128505610Y-101211258D01*
X128667951Y-101084424D01*
X128759614Y-100978231D01*
X128796208Y-100935836D01*
X128796210Y-100935834D01*
X128802564Y-100928472D01*
X128904323Y-100749344D01*
X128907931Y-100738500D01*
X128966279Y-100563098D01*
X128966279Y-100563097D01*
X128969351Y-100553863D01*
X128992263Y-100372495D01*
X128994475Y-100354984D01*
X128994475Y-100354983D01*
X128995171Y-100349474D01*
X128995270Y-100342430D01*
X128995439Y-100330268D01*
X128995583Y-100320000D01*
X128994110Y-100304971D01*
X128979387Y-100154819D01*
X128975480Y-100114970D01*
X128915935Y-99917749D01*
X128909390Y-99905438D01*
X128853461Y-99800252D01*
X128819218Y-99735849D01*
X128809253Y-99723630D01*
X128695163Y-99583743D01*
X128689011Y-99576200D01*
X128617025Y-99516648D01*
X128537776Y-99451087D01*
X128537774Y-99451085D01*
X128530275Y-99444882D01*
X128487993Y-99422020D01*
X128357618Y-99351527D01*
X128349055Y-99346897D01*
X128339757Y-99344019D01*
X128339755Y-99344018D01*
X128224297Y-99308278D01*
X128152254Y-99285977D01*
X127988376Y-99268753D01*
X127957046Y-99265460D01*
X127957045Y-99265460D01*
X127947369Y-99264443D01*
X127742203Y-99283114D01*
X127732864Y-99285863D01*
X127732862Y-99285863D01*
X127553918Y-99338529D01*
X127553915Y-99338530D01*
X127544572Y-99341280D01*
X127535941Y-99345792D01*
X127535939Y-99345793D01*
X127493339Y-99368064D01*
X127362002Y-99436726D01*
X127336825Y-99456969D01*
X127209028Y-99559719D01*
X127209024Y-99559723D01*
X127201447Y-99565815D01*
X127195194Y-99573267D01*
X127195193Y-99573268D01*
X127180322Y-99590991D01*
X127069024Y-99723630D01*
X126969776Y-99904162D01*
X126966834Y-99913437D01*
X126966833Y-99913439D01*
X126915694Y-100074652D01*
X126907484Y-100100532D01*
X126906400Y-100110196D01*
X126906399Y-100110201D01*
X126885948Y-100292527D01*
X126884520Y-100305262D01*
X113150500Y-100305262D01*
X113150500Y-97765262D01*
X126884520Y-97765262D01*
X126901759Y-97970553D01*
X126904441Y-97979908D01*
X126904442Y-97979911D01*
X126955862Y-98159234D01*
X126958544Y-98168586D01*
X126962991Y-98177239D01*
X127047444Y-98341567D01*
X127052712Y-98351818D01*
X127058759Y-98359447D01*
X127058760Y-98359449D01*
X127174628Y-98505639D01*
X127174632Y-98505643D01*
X127180677Y-98513270D01*
X127188090Y-98519579D01*
X127188091Y-98519580D01*
X127247835Y-98570426D01*
X127337564Y-98646791D01*
X127346057Y-98651538D01*
X127346062Y-98651541D01*
X127417561Y-98691500D01*
X127517398Y-98747297D01*
X127526653Y-98750304D01*
X127526655Y-98750305D01*
X127704070Y-98807951D01*
X127704074Y-98807952D01*
X127713329Y-98810959D01*
X127722993Y-98812111D01*
X127722996Y-98812112D01*
X127908232Y-98834199D01*
X127908233Y-98834199D01*
X127917894Y-98835351D01*
X127927590Y-98834605D01*
X127927592Y-98834605D01*
X128000979Y-98828958D01*
X128123300Y-98819546D01*
X128321725Y-98764145D01*
X128330404Y-98759761D01*
X128330409Y-98759759D01*
X128496929Y-98675643D01*
X128496928Y-98675643D01*
X128505610Y-98671258D01*
X128667951Y-98544424D01*
X128753307Y-98445537D01*
X128796208Y-98395836D01*
X128796210Y-98395834D01*
X128802564Y-98388472D01*
X128904323Y-98209344D01*
X128913186Y-98182703D01*
X128966279Y-98023098D01*
X128966279Y-98023097D01*
X128969351Y-98013863D01*
X128995171Y-97809474D01*
X128995583Y-97780000D01*
X128994554Y-97769500D01*
X128982779Y-97649416D01*
X128975480Y-97574970D01*
X128915935Y-97377749D01*
X128911364Y-97369151D01*
X128861141Y-97274696D01*
X128819218Y-97195849D01*
X128809253Y-97183630D01*
X128695163Y-97043743D01*
X128689011Y-97036200D01*
X128620282Y-96979342D01*
X128537776Y-96911087D01*
X128537774Y-96911085D01*
X128530275Y-96904882D01*
X128349055Y-96806897D01*
X128339757Y-96804019D01*
X128339755Y-96804018D01*
X128250655Y-96776437D01*
X128152254Y-96745977D01*
X127988376Y-96728753D01*
X127957046Y-96725460D01*
X127957045Y-96725460D01*
X127947369Y-96724443D01*
X127742203Y-96743114D01*
X127732864Y-96745863D01*
X127732862Y-96745863D01*
X127553918Y-96798529D01*
X127553915Y-96798530D01*
X127544572Y-96801280D01*
X127535941Y-96805792D01*
X127535939Y-96805793D01*
X127450028Y-96850707D01*
X127362002Y-96896726D01*
X127309525Y-96938919D01*
X127209028Y-97019719D01*
X127209024Y-97019723D01*
X127201447Y-97025815D01*
X127195194Y-97033267D01*
X127195193Y-97033268D01*
X127185747Y-97044525D01*
X127069024Y-97183630D01*
X126969776Y-97364162D01*
X126966834Y-97373437D01*
X126966833Y-97373439D01*
X126911292Y-97548529D01*
X126907484Y-97560532D01*
X126906400Y-97570196D01*
X126906399Y-97570201D01*
X126885996Y-97752104D01*
X126884520Y-97765262D01*
X113150500Y-97765262D01*
X113150500Y-95225262D01*
X126884520Y-95225262D01*
X126888233Y-95269474D01*
X126900923Y-95420595D01*
X126901759Y-95430553D01*
X126904441Y-95439908D01*
X126904442Y-95439911D01*
X126926117Y-95515500D01*
X126958544Y-95628586D01*
X126962991Y-95637239D01*
X126983842Y-95677810D01*
X127052712Y-95811818D01*
X127058759Y-95819447D01*
X127058760Y-95819449D01*
X127174628Y-95965639D01*
X127174632Y-95965643D01*
X127180677Y-95973270D01*
X127188090Y-95979579D01*
X127188091Y-95979580D01*
X127264433Y-96044552D01*
X127337564Y-96106791D01*
X127346057Y-96111538D01*
X127346062Y-96111541D01*
X127381342Y-96131258D01*
X127517398Y-96207297D01*
X127526653Y-96210304D01*
X127526655Y-96210305D01*
X127704070Y-96267951D01*
X127704074Y-96267952D01*
X127713329Y-96270959D01*
X127722993Y-96272111D01*
X127722996Y-96272112D01*
X127908232Y-96294199D01*
X127908233Y-96294199D01*
X127917894Y-96295351D01*
X127927590Y-96294605D01*
X127927592Y-96294605D01*
X127988037Y-96289954D01*
X128123300Y-96279546D01*
X128321725Y-96224145D01*
X128330404Y-96219761D01*
X128330409Y-96219759D01*
X128496929Y-96135643D01*
X128496928Y-96135643D01*
X128505610Y-96131258D01*
X128667951Y-96004424D01*
X128770283Y-95885870D01*
X128796208Y-95855836D01*
X128796210Y-95855834D01*
X128802564Y-95848472D01*
X128904323Y-95669344D01*
X128917882Y-95628586D01*
X128966279Y-95483098D01*
X128966279Y-95483097D01*
X128969351Y-95473863D01*
X128992574Y-95290033D01*
X128994475Y-95274984D01*
X128994475Y-95274983D01*
X128995171Y-95269474D01*
X128995583Y-95240000D01*
X128993796Y-95221769D01*
X128976430Y-95044661D01*
X128975480Y-95034970D01*
X128915935Y-94837749D01*
X128911364Y-94829151D01*
X128864485Y-94740985D01*
X128819218Y-94655849D01*
X128809253Y-94643630D01*
X128695163Y-94503743D01*
X128689011Y-94496200D01*
X128577070Y-94403594D01*
X128537776Y-94371087D01*
X128537774Y-94371085D01*
X128530275Y-94364882D01*
X128349055Y-94266897D01*
X128339757Y-94264019D01*
X128339755Y-94264018D01*
X128250655Y-94236437D01*
X128152254Y-94205977D01*
X127988376Y-94188753D01*
X127957046Y-94185460D01*
X127957045Y-94185460D01*
X127947369Y-94184443D01*
X127742203Y-94203114D01*
X127732864Y-94205863D01*
X127732862Y-94205863D01*
X127553918Y-94258529D01*
X127553915Y-94258530D01*
X127544572Y-94261280D01*
X127535941Y-94265792D01*
X127535939Y-94265793D01*
X127477987Y-94296090D01*
X127362002Y-94356726D01*
X127322483Y-94388500D01*
X127209028Y-94479719D01*
X127209024Y-94479723D01*
X127201447Y-94485815D01*
X127195194Y-94493267D01*
X127195193Y-94493268D01*
X127181181Y-94509967D01*
X127069024Y-94643630D01*
X126969776Y-94824162D01*
X126966834Y-94833437D01*
X126966833Y-94833439D01*
X126910466Y-95011133D01*
X126907484Y-95020532D01*
X126906400Y-95030196D01*
X126906399Y-95030201D01*
X126886739Y-95205475D01*
X126884520Y-95225262D01*
X113150500Y-95225262D01*
X113150500Y-94896569D01*
X113170207Y-94810226D01*
X113225426Y-94740985D01*
X113305218Y-94702558D01*
X113317868Y-94700500D01*
X113319748Y-94700500D01*
X113378231Y-94688867D01*
X113394526Y-94677979D01*
X113412638Y-94670477D01*
X113413370Y-94672243D01*
X113472177Y-94649794D01*
X113560427Y-94657235D01*
X113591379Y-94672141D01*
X113605475Y-94677979D01*
X113621769Y-94688867D01*
X113658053Y-94696084D01*
X113670658Y-94698592D01*
X113670662Y-94698592D01*
X113680252Y-94700500D01*
X114819748Y-94700500D01*
X114829338Y-94698592D01*
X114829342Y-94698592D01*
X114841947Y-94696084D01*
X114878231Y-94688867D01*
X114894523Y-94677981D01*
X114894525Y-94677980D01*
X114928260Y-94655438D01*
X114944552Y-94644552D01*
X114988867Y-94578231D01*
X115000500Y-94519748D01*
X115000500Y-93530252D01*
X114988867Y-93471769D01*
X114944552Y-93405448D01*
X114943706Y-93404883D01*
X114905252Y-93343685D01*
X114895336Y-93255678D01*
X114924587Y-93172085D01*
X114952371Y-93137245D01*
X115404354Y-92685262D01*
X126884520Y-92685262D01*
X126887904Y-92725555D01*
X126897555Y-92840484D01*
X126901759Y-92890553D01*
X126904441Y-92899908D01*
X126904442Y-92899911D01*
X126955634Y-93078438D01*
X126958544Y-93088586D01*
X126962991Y-93097239D01*
X127030333Y-93228272D01*
X127052712Y-93271818D01*
X127058759Y-93279447D01*
X127058760Y-93279449D01*
X127174628Y-93425639D01*
X127174632Y-93425643D01*
X127180677Y-93433270D01*
X127188090Y-93439579D01*
X127188091Y-93439580D01*
X127224329Y-93470421D01*
X127337564Y-93566791D01*
X127346057Y-93571538D01*
X127346062Y-93571541D01*
X127381342Y-93591258D01*
X127517398Y-93667297D01*
X127526653Y-93670304D01*
X127526655Y-93670305D01*
X127704070Y-93727951D01*
X127704074Y-93727952D01*
X127713329Y-93730959D01*
X127722993Y-93732111D01*
X127722996Y-93732112D01*
X127908232Y-93754199D01*
X127908233Y-93754199D01*
X127917894Y-93755351D01*
X127927590Y-93754605D01*
X127927592Y-93754605D01*
X127988037Y-93749954D01*
X128123300Y-93739546D01*
X128321725Y-93684145D01*
X128330404Y-93679761D01*
X128330409Y-93679759D01*
X128496929Y-93595643D01*
X128496928Y-93595643D01*
X128505610Y-93591258D01*
X128667951Y-93464424D01*
X128742759Y-93377757D01*
X128796208Y-93315836D01*
X128796210Y-93315834D01*
X128802564Y-93308472D01*
X128904323Y-93129344D01*
X128907738Y-93119080D01*
X128966279Y-92943098D01*
X128966279Y-92943097D01*
X128969351Y-92933863D01*
X128995171Y-92729474D01*
X128995583Y-92700000D01*
X128975480Y-92494970D01*
X128915935Y-92297749D01*
X128911364Y-92289151D01*
X128874471Y-92219767D01*
X128819218Y-92115849D01*
X128809253Y-92103630D01*
X128695163Y-91963743D01*
X128689011Y-91956200D01*
X128582781Y-91868319D01*
X128537776Y-91831087D01*
X128537774Y-91831085D01*
X128530275Y-91824882D01*
X128349055Y-91726897D01*
X128339757Y-91724019D01*
X128339755Y-91724018D01*
X128195271Y-91679293D01*
X128152254Y-91665977D01*
X127983686Y-91648260D01*
X127957046Y-91645460D01*
X127957045Y-91645460D01*
X127947369Y-91644443D01*
X127742203Y-91663114D01*
X127732864Y-91665863D01*
X127732862Y-91665863D01*
X127553918Y-91718529D01*
X127553915Y-91718530D01*
X127544572Y-91721280D01*
X127535941Y-91725792D01*
X127535939Y-91725793D01*
X127492964Y-91748260D01*
X127362002Y-91816726D01*
X127311778Y-91857107D01*
X127209028Y-91939719D01*
X127209024Y-91939723D01*
X127201447Y-91945815D01*
X127195194Y-91953267D01*
X127195193Y-91953268D01*
X127171650Y-91981326D01*
X127069024Y-92103630D01*
X126969776Y-92284162D01*
X126966834Y-92293437D01*
X126966833Y-92293439D01*
X126910649Y-92470556D01*
X126907484Y-92480532D01*
X126906400Y-92490196D01*
X126906399Y-92490201D01*
X126887862Y-92655467D01*
X126884520Y-92685262D01*
X115404354Y-92685262D01*
X117944354Y-90145262D01*
X126884520Y-90145262D01*
X126888233Y-90189474D01*
X126899574Y-90324529D01*
X126901759Y-90350553D01*
X126904441Y-90359908D01*
X126904442Y-90359911D01*
X126955757Y-90538867D01*
X126958544Y-90548586D01*
X126962991Y-90557239D01*
X127047002Y-90720707D01*
X127052712Y-90731818D01*
X127058759Y-90739447D01*
X127058760Y-90739449D01*
X127174628Y-90885639D01*
X127174632Y-90885643D01*
X127180677Y-90893270D01*
X127188090Y-90899579D01*
X127188091Y-90899580D01*
X127260249Y-90960991D01*
X127337564Y-91026791D01*
X127346057Y-91031538D01*
X127346062Y-91031541D01*
X127381342Y-91051258D01*
X127517398Y-91127297D01*
X127526653Y-91130304D01*
X127526655Y-91130305D01*
X127704070Y-91187951D01*
X127704074Y-91187952D01*
X127713329Y-91190959D01*
X127722993Y-91192111D01*
X127722996Y-91192112D01*
X127908232Y-91214199D01*
X127908233Y-91214199D01*
X127917894Y-91215351D01*
X127927590Y-91214605D01*
X127927592Y-91214605D01*
X127988037Y-91209954D01*
X128123300Y-91199546D01*
X128321725Y-91144145D01*
X128330404Y-91139761D01*
X128330409Y-91139759D01*
X128496929Y-91055643D01*
X128496928Y-91055643D01*
X128505610Y-91051258D01*
X128667951Y-90924424D01*
X128762591Y-90814782D01*
X128796208Y-90775836D01*
X128796210Y-90775834D01*
X128802564Y-90768472D01*
X128904323Y-90589344D01*
X128911000Y-90569274D01*
X128966279Y-90403098D01*
X128966279Y-90403097D01*
X128969351Y-90393863D01*
X128995171Y-90189474D01*
X128995321Y-90178786D01*
X128995505Y-90165549D01*
X128995583Y-90160000D01*
X128994070Y-90144562D01*
X128984627Y-90048260D01*
X128975480Y-89954970D01*
X128915935Y-89757749D01*
X128908622Y-89743994D01*
X128871671Y-89674500D01*
X128819218Y-89575849D01*
X128809253Y-89563630D01*
X128695163Y-89423743D01*
X128689011Y-89416200D01*
X128582675Y-89328231D01*
X128537776Y-89291087D01*
X128537774Y-89291085D01*
X128530275Y-89284882D01*
X128349055Y-89186897D01*
X128339757Y-89184019D01*
X128339755Y-89184018D01*
X128235481Y-89151740D01*
X128152254Y-89125977D01*
X127972963Y-89107133D01*
X127957046Y-89105460D01*
X127957045Y-89105460D01*
X127947369Y-89104443D01*
X127742203Y-89123114D01*
X127732864Y-89125863D01*
X127732862Y-89125863D01*
X127553918Y-89178529D01*
X127553915Y-89178530D01*
X127544572Y-89181280D01*
X127535941Y-89185792D01*
X127535939Y-89185793D01*
X127468612Y-89220991D01*
X127362002Y-89276726D01*
X127333958Y-89299274D01*
X127209028Y-89399719D01*
X127209024Y-89399723D01*
X127201447Y-89405815D01*
X127195194Y-89413267D01*
X127195193Y-89413268D01*
X127184929Y-89425500D01*
X127069024Y-89563630D01*
X126969776Y-89744162D01*
X126966834Y-89753437D01*
X126966833Y-89753439D01*
X126920485Y-89899549D01*
X126907484Y-89940532D01*
X126906400Y-89950196D01*
X126906399Y-89950201D01*
X126887297Y-90120500D01*
X126884520Y-90145262D01*
X117944354Y-90145262D01*
X120135830Y-87953786D01*
X120210818Y-87906667D01*
X120276544Y-87895500D01*
X126779551Y-87895500D01*
X126865894Y-87915207D01*
X126935135Y-87970426D01*
X126957543Y-88009100D01*
X126958544Y-88008586D01*
X127044528Y-88175893D01*
X127052712Y-88191818D01*
X127058759Y-88199447D01*
X127058760Y-88199449D01*
X127174628Y-88345639D01*
X127174632Y-88345643D01*
X127180677Y-88353270D01*
X127188090Y-88359579D01*
X127188091Y-88359580D01*
X127202379Y-88371740D01*
X127337564Y-88486791D01*
X127346057Y-88491538D01*
X127346062Y-88491541D01*
X127419381Y-88532517D01*
X127517398Y-88587297D01*
X127526653Y-88590304D01*
X127526655Y-88590305D01*
X127704070Y-88647951D01*
X127704074Y-88647952D01*
X127713329Y-88650959D01*
X127722993Y-88652111D01*
X127722996Y-88652112D01*
X127908232Y-88674199D01*
X127908233Y-88674199D01*
X127917894Y-88675351D01*
X127927590Y-88674605D01*
X127927592Y-88674605D01*
X127988037Y-88669954D01*
X128123300Y-88659546D01*
X128321725Y-88604145D01*
X128330404Y-88599761D01*
X128330409Y-88599759D01*
X128496929Y-88515643D01*
X128496928Y-88515643D01*
X128505610Y-88511258D01*
X128667951Y-88384424D01*
X128764765Y-88272263D01*
X128796208Y-88235836D01*
X128796210Y-88235834D01*
X128802564Y-88228472D01*
X128904323Y-88049344D01*
X128909677Y-88033251D01*
X128966279Y-87863098D01*
X128966279Y-87863097D01*
X128969351Y-87853863D01*
X128995171Y-87649474D01*
X128995583Y-87620000D01*
X128993017Y-87593823D01*
X128985326Y-87515384D01*
X128975480Y-87414970D01*
X128915935Y-87217749D01*
X128905701Y-87198500D01*
X128855283Y-87103679D01*
X128819218Y-87035849D01*
X128812468Y-87027572D01*
X128695163Y-86883743D01*
X128689011Y-86876200D01*
X128584713Y-86789917D01*
X128537776Y-86751087D01*
X128537774Y-86751085D01*
X128530275Y-86744882D01*
X128349055Y-86646897D01*
X128339757Y-86644019D01*
X128339755Y-86644018D01*
X128211572Y-86604339D01*
X128152254Y-86585977D01*
X127988376Y-86568753D01*
X127957046Y-86565460D01*
X127957045Y-86565460D01*
X127947369Y-86564443D01*
X127742203Y-86583114D01*
X127732864Y-86585863D01*
X127732862Y-86585863D01*
X127553918Y-86638529D01*
X127553915Y-86638530D01*
X127544572Y-86641280D01*
X127535941Y-86645792D01*
X127535939Y-86645793D01*
X127531888Y-86647911D01*
X127362002Y-86736726D01*
X127343403Y-86751680D01*
X127209028Y-86859719D01*
X127209024Y-86859723D01*
X127201447Y-86865815D01*
X127195194Y-86873267D01*
X127195193Y-86873268D01*
X127179144Y-86892394D01*
X127069024Y-87023630D01*
X127064338Y-87032154D01*
X126976496Y-87191939D01*
X126969776Y-87204162D01*
X126966835Y-87213435D01*
X126962998Y-87222386D01*
X126960179Y-87221178D01*
X126924405Y-87282014D01*
X126850835Y-87331318D01*
X126779612Y-87344500D01*
X120126732Y-87344500D01*
X120110762Y-87342927D01*
X120099224Y-87342927D01*
X120080000Y-87339103D01*
X120052867Y-87344500D01*
X120002222Y-87354574D01*
X119972505Y-87360485D01*
X119904378Y-87406006D01*
X119903486Y-87404672D01*
X119903485Y-87404673D01*
X119904377Y-87406007D01*
X119881376Y-87421376D01*
X119870490Y-87437668D01*
X119862335Y-87445823D01*
X119852145Y-87458239D01*
X114740214Y-92570170D01*
X114665226Y-92617289D01*
X114577219Y-92627205D01*
X114493626Y-92597954D01*
X114431002Y-92535330D01*
X114401751Y-92451737D01*
X114400500Y-92429456D01*
X114400500Y-90280252D01*
X114388867Y-90221769D01*
X114344552Y-90155448D01*
X114320469Y-90139356D01*
X114294525Y-90122020D01*
X114294523Y-90122019D01*
X114278231Y-90111133D01*
X114241947Y-90103916D01*
X114229342Y-90101408D01*
X114229338Y-90101408D01*
X114219748Y-90099500D01*
X112780252Y-90099500D01*
X112770662Y-90101408D01*
X112770658Y-90101408D01*
X112758053Y-90103916D01*
X112721769Y-90111133D01*
X112705477Y-90122019D01*
X112705475Y-90122020D01*
X112679531Y-90139356D01*
X112655448Y-90155448D01*
X112611133Y-90221769D01*
X112599500Y-90280252D01*
X112599500Y-92625500D01*
X112579793Y-92711843D01*
X112524574Y-92781084D01*
X112444782Y-92819511D01*
X112400500Y-92824500D01*
X109246734Y-92824500D01*
X109230754Y-92822926D01*
X109219221Y-92822926D01*
X109200000Y-92819103D01*
X109180780Y-92822926D01*
X109111729Y-92836660D01*
X109111727Y-92836661D01*
X109092506Y-92840484D01*
X109076211Y-92851372D01*
X109076209Y-92851373D01*
X109060663Y-92861761D01*
X109024378Y-92886006D01*
X109024377Y-92886007D01*
X109001376Y-92901376D01*
X108990490Y-92917668D01*
X108982335Y-92925823D01*
X108972145Y-92938239D01*
X106869170Y-95041214D01*
X106794182Y-95088333D01*
X106728456Y-95099500D01*
X105980252Y-95099500D01*
X105970662Y-95101408D01*
X105970658Y-95101408D01*
X105958053Y-95103916D01*
X105921769Y-95111133D01*
X105905477Y-95122019D01*
X105905475Y-95122020D01*
X105905197Y-95122206D01*
X105855448Y-95155448D01*
X105844562Y-95171740D01*
X105824012Y-95202495D01*
X105811133Y-95221769D01*
X105799500Y-95280252D01*
X105799500Y-96319748D01*
X105811133Y-96378231D01*
X105822019Y-96394523D01*
X105822020Y-96394525D01*
X105831448Y-96408634D01*
X105855448Y-96444552D01*
X105871740Y-96455438D01*
X105905475Y-96477980D01*
X105905477Y-96477981D01*
X105921769Y-96488867D01*
X105958053Y-96496084D01*
X105970658Y-96498592D01*
X105970662Y-96498592D01*
X105980252Y-96500500D01*
X107019748Y-96500500D01*
X107029338Y-96498592D01*
X107029342Y-96498592D01*
X107041947Y-96496084D01*
X107078231Y-96488867D01*
X107094523Y-96477981D01*
X107094525Y-96477980D01*
X107128260Y-96455438D01*
X107144552Y-96444552D01*
X107168552Y-96408634D01*
X107177980Y-96394525D01*
X107177981Y-96394523D01*
X107188867Y-96378231D01*
X107200500Y-96319748D01*
X107200500Y-95571544D01*
X107220207Y-95485201D01*
X107258786Y-95430830D01*
X109255830Y-93433786D01*
X109330818Y-93386667D01*
X109396544Y-93375500D01*
X111800500Y-93375500D01*
X111886843Y-93395207D01*
X111956084Y-93450426D01*
X111994511Y-93530218D01*
X111999500Y-93574500D01*
X111999500Y-94519748D01*
X112011133Y-94578231D01*
X112055448Y-94644552D01*
X112071740Y-94655438D01*
X112105475Y-94677980D01*
X112105477Y-94677981D01*
X112121769Y-94688867D01*
X112180252Y-94700500D01*
X112179981Y-94701863D01*
X112253993Y-94726598D01*
X112317492Y-94788334D01*
X112347916Y-94871508D01*
X112349500Y-94896569D01*
X112349500Y-100401679D01*
X112329793Y-100488022D01*
X112291214Y-100542393D01*
X108992393Y-103841214D01*
X108917405Y-103888333D01*
X108851679Y-103899500D01*
X90248321Y-103899500D01*
X90161978Y-103879793D01*
X90107607Y-103841214D01*
X86323070Y-100056677D01*
X86275951Y-99981689D01*
X86266035Y-99893682D01*
X86279178Y-99842732D01*
X86288867Y-99828231D01*
X86300500Y-99769748D01*
X86300500Y-98430252D01*
X86296649Y-98410889D01*
X86294482Y-98400000D01*
X86288867Y-98371769D01*
X86269750Y-98343158D01*
X86255659Y-98322070D01*
X86244552Y-98305448D01*
X86228260Y-98294562D01*
X86214398Y-98280700D01*
X86216809Y-98278289D01*
X86178097Y-98237339D01*
X86151204Y-98152958D01*
X86150500Y-98136236D01*
X86150500Y-96563764D01*
X86170207Y-96477421D01*
X86215600Y-96420502D01*
X86214398Y-96419300D01*
X86225064Y-96408634D01*
X86225426Y-96408180D01*
X86225768Y-96407930D01*
X86228260Y-96405438D01*
X86244552Y-96394552D01*
X86264147Y-96365226D01*
X86277980Y-96344525D01*
X86277981Y-96344523D01*
X86288867Y-96328231D01*
X86300500Y-96269748D01*
X86300500Y-94930252D01*
X86296293Y-94909099D01*
X86293158Y-94893341D01*
X86295642Y-94804812D01*
X86336291Y-94726129D01*
X86381205Y-94693323D01*
X86378229Y-94688869D01*
X86389438Y-94681379D01*
X86406447Y-94674886D01*
X86412282Y-94670624D01*
X86412739Y-94670435D01*
X86413471Y-94672205D01*
X86472177Y-94649794D01*
X86560427Y-94657235D01*
X86591379Y-94672141D01*
X86605475Y-94677979D01*
X86621769Y-94688867D01*
X86658053Y-94696084D01*
X86670658Y-94698592D01*
X86670662Y-94698592D01*
X86680252Y-94700500D01*
X87819748Y-94700500D01*
X87829338Y-94698592D01*
X87829342Y-94698592D01*
X87841947Y-94696084D01*
X87878231Y-94688867D01*
X87894523Y-94677981D01*
X87894525Y-94677980D01*
X87928260Y-94655438D01*
X87944552Y-94644552D01*
X87988867Y-94578231D01*
X88000500Y-94519748D01*
X88000500Y-93530252D01*
X87988867Y-93471769D01*
X87944552Y-93405448D01*
X87916445Y-93386667D01*
X87894525Y-93372020D01*
X87894523Y-93372019D01*
X87878231Y-93361133D01*
X87841947Y-93353916D01*
X87829342Y-93351408D01*
X87829338Y-93351408D01*
X87819748Y-93349500D01*
X86680252Y-93349500D01*
X86670662Y-93351408D01*
X86670658Y-93351408D01*
X86658053Y-93353916D01*
X86621769Y-93361133D01*
X86605474Y-93372021D01*
X86587362Y-93379523D01*
X86586630Y-93377757D01*
X86527823Y-93400206D01*
X86439573Y-93392765D01*
X86408621Y-93377859D01*
X86394524Y-93372020D01*
X86378231Y-93361133D01*
X86341947Y-93353916D01*
X86329342Y-93351408D01*
X86329338Y-93351408D01*
X86319748Y-93349500D01*
X85180252Y-93349500D01*
X85170662Y-93351408D01*
X85170658Y-93351408D01*
X85158053Y-93353916D01*
X85121769Y-93361133D01*
X85105477Y-93372019D01*
X85105475Y-93372020D01*
X85083555Y-93386667D01*
X85055448Y-93405448D01*
X85011133Y-93471769D01*
X84999500Y-93530252D01*
X84999500Y-94519748D01*
X85011133Y-94578231D01*
X85055448Y-94644552D01*
X85094184Y-94670435D01*
X85121769Y-94688867D01*
X85119099Y-94692863D01*
X85159976Y-94721833D01*
X85202858Y-94799322D01*
X85206842Y-94893341D01*
X85203708Y-94909099D01*
X85199500Y-94930252D01*
X85199500Y-96269748D01*
X85211133Y-96328231D01*
X85222019Y-96344523D01*
X85222020Y-96344525D01*
X85235853Y-96365226D01*
X85255448Y-96394552D01*
X85271740Y-96405438D01*
X85285602Y-96419300D01*
X85283191Y-96421711D01*
X85321903Y-96462661D01*
X85348796Y-96547042D01*
X85349500Y-96563764D01*
X85349500Y-98136236D01*
X85329793Y-98222579D01*
X85284400Y-98279498D01*
X85285602Y-98280700D01*
X85274936Y-98291366D01*
X85274574Y-98291820D01*
X85274232Y-98292070D01*
X85271740Y-98294562D01*
X85255448Y-98305448D01*
X85244341Y-98322070D01*
X85230251Y-98343158D01*
X85211133Y-98371769D01*
X85205518Y-98400000D01*
X85203352Y-98410889D01*
X85199500Y-98430252D01*
X85199500Y-99769748D01*
X85211133Y-99828231D01*
X85222019Y-99844523D01*
X85222020Y-99844525D01*
X85237407Y-99867552D01*
X85255448Y-99894552D01*
X85271740Y-99905438D01*
X85285602Y-99919300D01*
X85283191Y-99921711D01*
X85321903Y-99962661D01*
X85348796Y-100047042D01*
X85349500Y-100063764D01*
X85349500Y-100113433D01*
X85354339Y-100128324D01*
X85354521Y-100128884D01*
X85361813Y-100159257D01*
X85364354Y-100175304D01*
X85371464Y-100189258D01*
X85371465Y-100189261D01*
X85371732Y-100189784D01*
X85383682Y-100218634D01*
X85388704Y-100234090D01*
X85398260Y-100247242D01*
X85414575Y-100273867D01*
X85421950Y-100288342D01*
X85444513Y-100310905D01*
X85444516Y-100310909D01*
X89594550Y-104460943D01*
X89641669Y-104535931D01*
X89651585Y-104623938D01*
X89622334Y-104707531D01*
X89559710Y-104770155D01*
X89476117Y-104799406D01*
X89453839Y-104800657D01*
X86189939Y-104800712D01*
X71345304Y-104800960D01*
X71344596Y-104800879D01*
X71322198Y-104800840D01*
X71300358Y-104795818D01*
X71289402Y-104798297D01*
X71283973Y-104797048D01*
X71283757Y-104799575D01*
X71283756Y-104799575D01*
X71212579Y-104793501D01*
X71130371Y-104786485D01*
X71097024Y-104780751D01*
X70948736Y-104742035D01*
X70916837Y-104730733D01*
X70910288Y-104727764D01*
X70777242Y-104667444D01*
X70747729Y-104650904D01*
X70620883Y-104564883D01*
X70594598Y-104543583D01*
X70484152Y-104437303D01*
X70461854Y-104411852D01*
X70457111Y-104405405D01*
X70371026Y-104288412D01*
X70353360Y-104259549D01*
X70284756Y-104122496D01*
X70272236Y-104091054D01*
X70227848Y-103944360D01*
X70220837Y-103911256D01*
X70201902Y-103758819D01*
X70203295Y-103758646D01*
X70202606Y-103755110D01*
X70205005Y-103742473D01*
X70200574Y-103725882D01*
X70200983Y-103723729D01*
X70199999Y-103723729D01*
X70199976Y-103127399D01*
X71044313Y-103127399D01*
X71076328Y-103239048D01*
X71083457Y-103257053D01*
X71168685Y-103422890D01*
X71179181Y-103439176D01*
X71294989Y-103585290D01*
X71308452Y-103599231D01*
X71450439Y-103720071D01*
X71466349Y-103731129D01*
X71629099Y-103822086D01*
X71646860Y-103829846D01*
X71788673Y-103875924D01*
X71806485Y-103877527D01*
X71810000Y-103866707D01*
X71810000Y-103857982D01*
X72310000Y-103857982D01*
X72313979Y-103875416D01*
X72327868Y-103875416D01*
X72432173Y-103846293D01*
X72450224Y-103839292D01*
X72616655Y-103755221D01*
X72633011Y-103744842D01*
X72779939Y-103630049D01*
X72793960Y-103616696D01*
X72915795Y-103475550D01*
X72926961Y-103459721D01*
X73019059Y-103297599D01*
X73026935Y-103279908D01*
X73076380Y-103131274D01*
X73078107Y-103113479D01*
X73067650Y-103110000D01*
X72332423Y-103110000D01*
X72313453Y-103114330D01*
X72310000Y-103121500D01*
X72310000Y-103857982D01*
X71810000Y-103857982D01*
X71810000Y-103132423D01*
X71805670Y-103113453D01*
X71798500Y-103110000D01*
X71061747Y-103110000D01*
X71044313Y-103113979D01*
X71044313Y-103127399D01*
X70199976Y-103127399D01*
X70199955Y-102606448D01*
X71042995Y-102606448D01*
X71054192Y-102610000D01*
X71787577Y-102610000D01*
X71806547Y-102605670D01*
X71810000Y-102598500D01*
X71810000Y-102587577D01*
X72310000Y-102587577D01*
X72314330Y-102606547D01*
X72321500Y-102610000D01*
X73058958Y-102610000D01*
X73076392Y-102606021D01*
X73076392Y-102593476D01*
X73038284Y-102467258D01*
X73030901Y-102449345D01*
X72943371Y-102284726D01*
X72932645Y-102268582D01*
X72814807Y-102124097D01*
X72801153Y-102110348D01*
X72657495Y-101991503D01*
X72641431Y-101980668D01*
X72477421Y-101891989D01*
X72459566Y-101884483D01*
X72331419Y-101844815D01*
X72313589Y-101843461D01*
X72310000Y-101855057D01*
X72310000Y-102587577D01*
X71810000Y-102587577D01*
X71810000Y-101861422D01*
X71806021Y-101843988D01*
X71793049Y-101843988D01*
X71674099Y-101878997D01*
X71656135Y-101886255D01*
X71490897Y-101972639D01*
X71474691Y-101983244D01*
X71329385Y-102100074D01*
X71315544Y-102113628D01*
X71195690Y-102256464D01*
X71184752Y-102272438D01*
X71094925Y-102435832D01*
X71087296Y-102453633D01*
X71044473Y-102588627D01*
X71042995Y-102606448D01*
X70199955Y-102606448D01*
X70199931Y-101983244D01*
X70199865Y-100305262D01*
X71004520Y-100305262D01*
X71009212Y-100361133D01*
X71020831Y-100499500D01*
X71021759Y-100510553D01*
X71024441Y-100519908D01*
X71024442Y-100519911D01*
X71075862Y-100699234D01*
X71078544Y-100708586D01*
X71082991Y-100717239D01*
X71156314Y-100859910D01*
X71172712Y-100891818D01*
X71178759Y-100899447D01*
X71178760Y-100899449D01*
X71294628Y-101045639D01*
X71294632Y-101045643D01*
X71300677Y-101053270D01*
X71457564Y-101186791D01*
X71466057Y-101191538D01*
X71466062Y-101191541D01*
X71547481Y-101237044D01*
X71637398Y-101287297D01*
X71646653Y-101290304D01*
X71646655Y-101290305D01*
X71824070Y-101347951D01*
X71824074Y-101347952D01*
X71833329Y-101350959D01*
X71842993Y-101352111D01*
X71842996Y-101352112D01*
X72028232Y-101374199D01*
X72028233Y-101374199D01*
X72037894Y-101375351D01*
X72047590Y-101374605D01*
X72047592Y-101374605D01*
X72108037Y-101369954D01*
X72243300Y-101359546D01*
X72441725Y-101304145D01*
X72450404Y-101299761D01*
X72450409Y-101299759D01*
X72616929Y-101215643D01*
X72616928Y-101215643D01*
X72625610Y-101211258D01*
X72787951Y-101084424D01*
X72879614Y-100978231D01*
X72916208Y-100935836D01*
X72916210Y-100935834D01*
X72922564Y-100928472D01*
X73024323Y-100749344D01*
X73027931Y-100738500D01*
X73086279Y-100563098D01*
X73086279Y-100563097D01*
X73089351Y-100553863D01*
X73112263Y-100372495D01*
X73114475Y-100354984D01*
X73114475Y-100354983D01*
X73115171Y-100349474D01*
X73115270Y-100342430D01*
X73115439Y-100330268D01*
X73115583Y-100320000D01*
X73114110Y-100304971D01*
X73099387Y-100154819D01*
X73095480Y-100114970D01*
X73035935Y-99917749D01*
X73029390Y-99905438D01*
X72973461Y-99800252D01*
X72939218Y-99735849D01*
X72929253Y-99723630D01*
X72815163Y-99583743D01*
X72809011Y-99576200D01*
X72737025Y-99516648D01*
X72657776Y-99451087D01*
X72657774Y-99451085D01*
X72650275Y-99444882D01*
X72607993Y-99422020D01*
X72477618Y-99351527D01*
X72469055Y-99346897D01*
X72459757Y-99344019D01*
X72459755Y-99344018D01*
X72344297Y-99308278D01*
X72272254Y-99285977D01*
X72108376Y-99268753D01*
X72077046Y-99265460D01*
X72077045Y-99265460D01*
X72067369Y-99264443D01*
X71862203Y-99283114D01*
X71852864Y-99285863D01*
X71852862Y-99285863D01*
X71673918Y-99338529D01*
X71673915Y-99338530D01*
X71664572Y-99341280D01*
X71655941Y-99345792D01*
X71655939Y-99345793D01*
X71613339Y-99368064D01*
X71482002Y-99436726D01*
X71456825Y-99456969D01*
X71329028Y-99559719D01*
X71329024Y-99559723D01*
X71321447Y-99565815D01*
X71315194Y-99573267D01*
X71315193Y-99573268D01*
X71300322Y-99590991D01*
X71189024Y-99723630D01*
X71089776Y-99904162D01*
X71086834Y-99913437D01*
X71086833Y-99913439D01*
X71035694Y-100074652D01*
X71027484Y-100100532D01*
X71026400Y-100110196D01*
X71026399Y-100110201D01*
X71005948Y-100292527D01*
X71004520Y-100305262D01*
X70199865Y-100305262D01*
X70199766Y-97765262D01*
X71004520Y-97765262D01*
X71021759Y-97970553D01*
X71024441Y-97979908D01*
X71024442Y-97979911D01*
X71075862Y-98159234D01*
X71078544Y-98168586D01*
X71082991Y-98177239D01*
X71167444Y-98341567D01*
X71172712Y-98351818D01*
X71178759Y-98359447D01*
X71178760Y-98359449D01*
X71294628Y-98505639D01*
X71294632Y-98505643D01*
X71300677Y-98513270D01*
X71308090Y-98519579D01*
X71308091Y-98519580D01*
X71367835Y-98570426D01*
X71457564Y-98646791D01*
X71466057Y-98651538D01*
X71466062Y-98651541D01*
X71537561Y-98691500D01*
X71637398Y-98747297D01*
X71646653Y-98750304D01*
X71646655Y-98750305D01*
X71824070Y-98807951D01*
X71824074Y-98807952D01*
X71833329Y-98810959D01*
X71842993Y-98812111D01*
X71842996Y-98812112D01*
X72028232Y-98834199D01*
X72028233Y-98834199D01*
X72037894Y-98835351D01*
X72047590Y-98834605D01*
X72047592Y-98834605D01*
X72120979Y-98828958D01*
X72243300Y-98819546D01*
X72441725Y-98764145D01*
X72450404Y-98759761D01*
X72450409Y-98759759D01*
X72616929Y-98675643D01*
X72616928Y-98675643D01*
X72625610Y-98671258D01*
X72787951Y-98544424D01*
X72873307Y-98445537D01*
X72916208Y-98395836D01*
X72916210Y-98395834D01*
X72922564Y-98388472D01*
X73024323Y-98209344D01*
X73030197Y-98191686D01*
X73076150Y-98115978D01*
X73150401Y-98067706D01*
X73219023Y-98055500D01*
X76813456Y-98055500D01*
X76899799Y-98075207D01*
X76954170Y-98113786D01*
X78741214Y-99900830D01*
X78788333Y-99975818D01*
X78799500Y-100041544D01*
X78799500Y-100339748D01*
X78801408Y-100349338D01*
X78801408Y-100349342D01*
X78802724Y-100355956D01*
X78811133Y-100398231D01*
X78822019Y-100414523D01*
X78822020Y-100414525D01*
X78826841Y-100421740D01*
X78855448Y-100464552D01*
X78871740Y-100475438D01*
X78905475Y-100497980D01*
X78905477Y-100497981D01*
X78921769Y-100508867D01*
X78958053Y-100516084D01*
X78970658Y-100518592D01*
X78970662Y-100518592D01*
X78980252Y-100520500D01*
X79619748Y-100520500D01*
X79629338Y-100518592D01*
X79629342Y-100518592D01*
X79678231Y-100508867D01*
X79678371Y-100509572D01*
X79745615Y-100498148D01*
X79830717Y-100522666D01*
X79878504Y-100566594D01*
X79880700Y-100564398D01*
X79894562Y-100578260D01*
X79905448Y-100594552D01*
X79928886Y-100610213D01*
X79955475Y-100627980D01*
X79955477Y-100627981D01*
X79971769Y-100638867D01*
X80008053Y-100646084D01*
X80020658Y-100648592D01*
X80020662Y-100648592D01*
X80030252Y-100650500D01*
X80969748Y-100650500D01*
X80979338Y-100648592D01*
X80979342Y-100648592D01*
X80991947Y-100646084D01*
X81028231Y-100638867D01*
X81044523Y-100627981D01*
X81044525Y-100627980D01*
X81071114Y-100610213D01*
X81094552Y-100594552D01*
X81120760Y-100555330D01*
X81127980Y-100544525D01*
X81127981Y-100544523D01*
X81138867Y-100528231D01*
X81146865Y-100488022D01*
X81148592Y-100479342D01*
X81148592Y-100479338D01*
X81150500Y-100469748D01*
X81150500Y-99630252D01*
X81148591Y-99620652D01*
X81142690Y-99590991D01*
X81138867Y-99571769D01*
X81124656Y-99550500D01*
X81106713Y-99523648D01*
X81104107Y-99519748D01*
X81849500Y-99519748D01*
X81861133Y-99578231D01*
X81872019Y-99594523D01*
X81872020Y-99594525D01*
X81889356Y-99620469D01*
X81905448Y-99644552D01*
X81921740Y-99655438D01*
X81955475Y-99677980D01*
X81955477Y-99677981D01*
X81971769Y-99688867D01*
X82004824Y-99695442D01*
X82020658Y-99698592D01*
X82020662Y-99698592D01*
X82030252Y-99700500D01*
X82969748Y-99700500D01*
X82979338Y-99698592D01*
X82979342Y-99698592D01*
X83009007Y-99692691D01*
X83028231Y-99688867D01*
X83041917Y-99679722D01*
X83126518Y-99665349D01*
X83211619Y-99689868D01*
X83277655Y-99748883D01*
X83296365Y-99792327D01*
X83299809Y-99790901D01*
X83307310Y-99809010D01*
X83311133Y-99828231D01*
X83322019Y-99844523D01*
X83322020Y-99844525D01*
X83337407Y-99867552D01*
X83355448Y-99894552D01*
X83371740Y-99905438D01*
X83405475Y-99927980D01*
X83405477Y-99927981D01*
X83421769Y-99938867D01*
X83458053Y-99946084D01*
X83470658Y-99948592D01*
X83470662Y-99948592D01*
X83480252Y-99950500D01*
X84219748Y-99950500D01*
X84229338Y-99948592D01*
X84229342Y-99948592D01*
X84241947Y-99946084D01*
X84278231Y-99938867D01*
X84294523Y-99927981D01*
X84294525Y-99927980D01*
X84328260Y-99905438D01*
X84344552Y-99894552D01*
X84362593Y-99867552D01*
X84377980Y-99844525D01*
X84377981Y-99844523D01*
X84388867Y-99828231D01*
X84400500Y-99769748D01*
X84400500Y-98430252D01*
X84396649Y-98410889D01*
X84394482Y-98400000D01*
X84388867Y-98371769D01*
X84369750Y-98343158D01*
X84355659Y-98322070D01*
X84344552Y-98305448D01*
X84317456Y-98287343D01*
X84294525Y-98272020D01*
X84294523Y-98272019D01*
X84278231Y-98261133D01*
X84241947Y-98253916D01*
X84229342Y-98251408D01*
X84229338Y-98251408D01*
X84219748Y-98249500D01*
X83480252Y-98249500D01*
X83470662Y-98251408D01*
X83470658Y-98251408D01*
X83458053Y-98253916D01*
X83421769Y-98261133D01*
X83405477Y-98272019D01*
X83405475Y-98272020D01*
X83382544Y-98287343D01*
X83355448Y-98305448D01*
X83344341Y-98322070D01*
X83330251Y-98343158D01*
X83311133Y-98371769D01*
X83307310Y-98390990D01*
X83299809Y-98409099D01*
X83295902Y-98407481D01*
X83274372Y-98455610D01*
X83206712Y-98512755D01*
X83120958Y-98534885D01*
X83041998Y-98520332D01*
X83028231Y-98511133D01*
X83009007Y-98507309D01*
X82979342Y-98501408D01*
X82979338Y-98501408D01*
X82969748Y-98499500D01*
X82030252Y-98499500D01*
X82020662Y-98501408D01*
X82020658Y-98501408D01*
X82008053Y-98503916D01*
X81971769Y-98511133D01*
X81955477Y-98522019D01*
X81955475Y-98522020D01*
X81936222Y-98534885D01*
X81905448Y-98555448D01*
X81861133Y-98621769D01*
X81856156Y-98646791D01*
X81852481Y-98665267D01*
X81849500Y-98680252D01*
X81849500Y-99519748D01*
X81104107Y-99519748D01*
X81094552Y-99505448D01*
X81045234Y-99472494D01*
X81044525Y-99472020D01*
X81044523Y-99472019D01*
X81028231Y-99461133D01*
X80991947Y-99453916D01*
X80979342Y-99451408D01*
X80979338Y-99451408D01*
X80969748Y-99449500D01*
X80030252Y-99449500D01*
X79992703Y-99456969D01*
X79904179Y-99454486D01*
X79825494Y-99413838D01*
X79798299Y-99385870D01*
X79796809Y-99384001D01*
X79788500Y-99380000D01*
X79249000Y-99380000D01*
X79162657Y-99360293D01*
X79093416Y-99305074D01*
X79054989Y-99225282D01*
X79050000Y-99181000D01*
X79050000Y-98857577D01*
X79550000Y-98857577D01*
X79554330Y-98876547D01*
X79561500Y-98880000D01*
X79777577Y-98880000D01*
X79796547Y-98875670D01*
X79805315Y-98857464D01*
X79860534Y-98788223D01*
X79940328Y-98749798D01*
X80010822Y-98748809D01*
X80010987Y-98747134D01*
X80040083Y-98750000D01*
X80227577Y-98750000D01*
X80246547Y-98745670D01*
X80250000Y-98738500D01*
X80250000Y-98727577D01*
X80750000Y-98727577D01*
X80754330Y-98746547D01*
X80761500Y-98750000D01*
X80959917Y-98750000D01*
X80979293Y-98748091D01*
X81008810Y-98742220D01*
X81044335Y-98727505D01*
X81077894Y-98705082D01*
X81105082Y-98677894D01*
X81127505Y-98644335D01*
X81142220Y-98608810D01*
X81148091Y-98579293D01*
X81150000Y-98559917D01*
X81150000Y-98422423D01*
X81145670Y-98403453D01*
X81138500Y-98400000D01*
X80772423Y-98400000D01*
X80753453Y-98404330D01*
X80750000Y-98411500D01*
X80750000Y-98727577D01*
X80250000Y-98727577D01*
X80250000Y-98422423D01*
X80245670Y-98403453D01*
X80238500Y-98400000D01*
X79872423Y-98400000D01*
X79853453Y-98404330D01*
X79850000Y-98411500D01*
X79850000Y-98484083D01*
X79830293Y-98570426D01*
X79775074Y-98639667D01*
X79695282Y-98678094D01*
X79631494Y-98682125D01*
X79609919Y-98680000D01*
X79572423Y-98680000D01*
X79553453Y-98684330D01*
X79550000Y-98691500D01*
X79550000Y-98857577D01*
X79050000Y-98857577D01*
X79050000Y-98702423D01*
X79045670Y-98683453D01*
X79038500Y-98680000D01*
X78990083Y-98680000D01*
X78970707Y-98681909D01*
X78941190Y-98687780D01*
X78905665Y-98702495D01*
X78872106Y-98724918D01*
X78844918Y-98752106D01*
X78822495Y-98785665D01*
X78814268Y-98805526D01*
X78763019Y-98877755D01*
X78685506Y-98920595D01*
X78597082Y-98925560D01*
X78515261Y-98891669D01*
X78489702Y-98870086D01*
X77497193Y-97877577D01*
X79850000Y-97877577D01*
X79854330Y-97896547D01*
X79861500Y-97900000D01*
X80227577Y-97900000D01*
X80246547Y-97895670D01*
X80250000Y-97888500D01*
X80250000Y-97877577D01*
X80750000Y-97877577D01*
X80754330Y-97896547D01*
X80761500Y-97900000D01*
X81127577Y-97900000D01*
X81146547Y-97895670D01*
X81150000Y-97888500D01*
X81150000Y-97740083D01*
X81148091Y-97720707D01*
X81142220Y-97691190D01*
X81127505Y-97655665D01*
X81105082Y-97622106D01*
X81077894Y-97594918D01*
X81044335Y-97572495D01*
X81008810Y-97557780D01*
X80979293Y-97551909D01*
X80959917Y-97550000D01*
X80772423Y-97550000D01*
X80753453Y-97554330D01*
X80750000Y-97561500D01*
X80750000Y-97877577D01*
X80250000Y-97877577D01*
X80250000Y-97572423D01*
X80245670Y-97553453D01*
X80238500Y-97550000D01*
X80040083Y-97550000D01*
X80020707Y-97551909D01*
X79991190Y-97557780D01*
X79955665Y-97572495D01*
X79922106Y-97594918D01*
X79894918Y-97622106D01*
X79872495Y-97655665D01*
X79857780Y-97691190D01*
X79851909Y-97720707D01*
X79850000Y-97740083D01*
X79850000Y-97877577D01*
X77497193Y-97877577D01*
X77237855Y-97618239D01*
X77227665Y-97605823D01*
X77219510Y-97597668D01*
X77208624Y-97581376D01*
X77185623Y-97566007D01*
X77186515Y-97564673D01*
X77186514Y-97564672D01*
X77185622Y-97566006D01*
X77159465Y-97548529D01*
X77159462Y-97548527D01*
X77140644Y-97535953D01*
X77117495Y-97520485D01*
X77037133Y-97504500D01*
X77029225Y-97502927D01*
X77029224Y-97502927D01*
X77010000Y-97499103D01*
X76990776Y-97502927D01*
X76979238Y-97502927D01*
X76963268Y-97504500D01*
X73220369Y-97504500D01*
X73134026Y-97484793D01*
X73064785Y-97429574D01*
X73037683Y-97383537D01*
X73035935Y-97377749D01*
X72939218Y-97195849D01*
X72929253Y-97183630D01*
X72815163Y-97043743D01*
X72809011Y-97036200D01*
X72740282Y-96979342D01*
X72657776Y-96911087D01*
X72657774Y-96911085D01*
X72650275Y-96904882D01*
X72469055Y-96806897D01*
X72459757Y-96804019D01*
X72459755Y-96804018D01*
X72370655Y-96776437D01*
X72272254Y-96745977D01*
X72108376Y-96728753D01*
X72077046Y-96725460D01*
X72077045Y-96725460D01*
X72067369Y-96724443D01*
X71862203Y-96743114D01*
X71852864Y-96745863D01*
X71852862Y-96745863D01*
X71673918Y-96798529D01*
X71673915Y-96798530D01*
X71664572Y-96801280D01*
X71655941Y-96805792D01*
X71655939Y-96805793D01*
X71570028Y-96850707D01*
X71482002Y-96896726D01*
X71429525Y-96938919D01*
X71329028Y-97019719D01*
X71329024Y-97019723D01*
X71321447Y-97025815D01*
X71315194Y-97033267D01*
X71315193Y-97033268D01*
X71305747Y-97044525D01*
X71189024Y-97183630D01*
X71089776Y-97364162D01*
X71086834Y-97373437D01*
X71086833Y-97373439D01*
X71031292Y-97548529D01*
X71027484Y-97560532D01*
X71026400Y-97570196D01*
X71026399Y-97570201D01*
X71005996Y-97752104D01*
X71004520Y-97765262D01*
X70199766Y-97765262D01*
X70199666Y-95225262D01*
X71004520Y-95225262D01*
X71008233Y-95269474D01*
X71020923Y-95420595D01*
X71021759Y-95430553D01*
X71024441Y-95439908D01*
X71024442Y-95439911D01*
X71046117Y-95515500D01*
X71078544Y-95628586D01*
X71082991Y-95637239D01*
X71103842Y-95677810D01*
X71172712Y-95811818D01*
X71178759Y-95819447D01*
X71178760Y-95819449D01*
X71294628Y-95965639D01*
X71294632Y-95965643D01*
X71300677Y-95973270D01*
X71308090Y-95979579D01*
X71308091Y-95979580D01*
X71384433Y-96044552D01*
X71457564Y-96106791D01*
X71466057Y-96111538D01*
X71466062Y-96111541D01*
X71501342Y-96131258D01*
X71637398Y-96207297D01*
X71646653Y-96210304D01*
X71646655Y-96210305D01*
X71824070Y-96267951D01*
X71824074Y-96267952D01*
X71833329Y-96270959D01*
X71842993Y-96272111D01*
X71842996Y-96272112D01*
X72028232Y-96294199D01*
X72028233Y-96294199D01*
X72037894Y-96295351D01*
X72047590Y-96294605D01*
X72047592Y-96294605D01*
X72108037Y-96289954D01*
X72243300Y-96279546D01*
X72441725Y-96224145D01*
X72450404Y-96219761D01*
X72450409Y-96219759D01*
X72616929Y-96135643D01*
X72616928Y-96135643D01*
X72625610Y-96131258D01*
X72787951Y-96004424D01*
X72890283Y-95885870D01*
X72916208Y-95855836D01*
X72916210Y-95855834D01*
X72922564Y-95848472D01*
X73024323Y-95669344D01*
X73030197Y-95651686D01*
X73076150Y-95575978D01*
X73150401Y-95527706D01*
X73219023Y-95515500D01*
X77773456Y-95515500D01*
X77859799Y-95535207D01*
X77914170Y-95573786D01*
X78741214Y-96400830D01*
X78788333Y-96475818D01*
X78799500Y-96541544D01*
X78799500Y-96839748D01*
X78801408Y-96849338D01*
X78801408Y-96849342D01*
X78803916Y-96861947D01*
X78811133Y-96898231D01*
X78855448Y-96964552D01*
X78871740Y-96975438D01*
X78905475Y-96997980D01*
X78905477Y-96997981D01*
X78921769Y-97008867D01*
X78958053Y-97016084D01*
X78970658Y-97018592D01*
X78970662Y-97018592D01*
X78980252Y-97020500D01*
X79619748Y-97020500D01*
X79629338Y-97018592D01*
X79629342Y-97018592D01*
X79678231Y-97008867D01*
X79678371Y-97009572D01*
X79745615Y-96998148D01*
X79830717Y-97022666D01*
X79878504Y-97066594D01*
X79880700Y-97064398D01*
X79894562Y-97078260D01*
X79905448Y-97094552D01*
X79921740Y-97105438D01*
X79955475Y-97127980D01*
X79955477Y-97127981D01*
X79971769Y-97138867D01*
X80008053Y-97146084D01*
X80020658Y-97148592D01*
X80020662Y-97148592D01*
X80030252Y-97150500D01*
X80969748Y-97150500D01*
X80979338Y-97148592D01*
X80979342Y-97148592D01*
X80991947Y-97146084D01*
X81028231Y-97138867D01*
X81044523Y-97127981D01*
X81044525Y-97127980D01*
X81078260Y-97105438D01*
X81094552Y-97094552D01*
X81115154Y-97063719D01*
X81127980Y-97044525D01*
X81127981Y-97044523D01*
X81138867Y-97028231D01*
X81150500Y-96969748D01*
X81150500Y-96130252D01*
X81148362Y-96119500D01*
X81144582Y-96100500D01*
X81138867Y-96071769D01*
X81104107Y-96019748D01*
X81849500Y-96019748D01*
X81861133Y-96078231D01*
X81872019Y-96094523D01*
X81872020Y-96094525D01*
X81889356Y-96120469D01*
X81905448Y-96144552D01*
X81921740Y-96155438D01*
X81955475Y-96177980D01*
X81955477Y-96177981D01*
X81971769Y-96188867D01*
X82008053Y-96196084D01*
X82020658Y-96198592D01*
X82020662Y-96198592D01*
X82030252Y-96200500D01*
X82969748Y-96200500D01*
X82979338Y-96198592D01*
X82979342Y-96198592D01*
X83009007Y-96192691D01*
X83028231Y-96188867D01*
X83041917Y-96179722D01*
X83126518Y-96165349D01*
X83211619Y-96189868D01*
X83277655Y-96248883D01*
X83296365Y-96292327D01*
X83299809Y-96290901D01*
X83307310Y-96309010D01*
X83311133Y-96328231D01*
X83322019Y-96344523D01*
X83322020Y-96344525D01*
X83335853Y-96365226D01*
X83355448Y-96394552D01*
X83376523Y-96408634D01*
X83405475Y-96427980D01*
X83405477Y-96427981D01*
X83421769Y-96438867D01*
X83458053Y-96446084D01*
X83470658Y-96448592D01*
X83470662Y-96448592D01*
X83480252Y-96450500D01*
X84219748Y-96450500D01*
X84229338Y-96448592D01*
X84229342Y-96448592D01*
X84241947Y-96446084D01*
X84278231Y-96438867D01*
X84294523Y-96427981D01*
X84294525Y-96427980D01*
X84323477Y-96408634D01*
X84344552Y-96394552D01*
X84364147Y-96365226D01*
X84377980Y-96344525D01*
X84377981Y-96344523D01*
X84388867Y-96328231D01*
X84400500Y-96269748D01*
X84400500Y-94930252D01*
X84388867Y-94871769D01*
X84372360Y-94847064D01*
X84355438Y-94821740D01*
X84344552Y-94805448D01*
X84318940Y-94788334D01*
X84294525Y-94772020D01*
X84294523Y-94772019D01*
X84278231Y-94761133D01*
X84241947Y-94753916D01*
X84229342Y-94751408D01*
X84229338Y-94751408D01*
X84219748Y-94749500D01*
X83480252Y-94749500D01*
X83470662Y-94751408D01*
X83470658Y-94751408D01*
X83458053Y-94753916D01*
X83421769Y-94761133D01*
X83405477Y-94772019D01*
X83405475Y-94772020D01*
X83381060Y-94788334D01*
X83355448Y-94805448D01*
X83344562Y-94821740D01*
X83327641Y-94847064D01*
X83311133Y-94871769D01*
X83307310Y-94890990D01*
X83299809Y-94909099D01*
X83295902Y-94907481D01*
X83274372Y-94955610D01*
X83206712Y-95012755D01*
X83120958Y-95034885D01*
X83041998Y-95020332D01*
X83028231Y-95011133D01*
X83009007Y-95007309D01*
X82979342Y-95001408D01*
X82979338Y-95001408D01*
X82969748Y-94999500D01*
X82030252Y-94999500D01*
X82020662Y-95001408D01*
X82020658Y-95001408D01*
X82008053Y-95003916D01*
X81971769Y-95011133D01*
X81955477Y-95022019D01*
X81955475Y-95022020D01*
X81936222Y-95034885D01*
X81905448Y-95055448D01*
X81894562Y-95071740D01*
X81882339Y-95090033D01*
X81861133Y-95121769D01*
X81849500Y-95180252D01*
X81849500Y-96019748D01*
X81104107Y-96019748D01*
X81094552Y-96005448D01*
X81070469Y-95989356D01*
X81044525Y-95972020D01*
X81044523Y-95972019D01*
X81028231Y-95961133D01*
X80991947Y-95953916D01*
X80979342Y-95951408D01*
X80979338Y-95951408D01*
X80969748Y-95949500D01*
X80030252Y-95949500D01*
X79992703Y-95956969D01*
X79904179Y-95954486D01*
X79825494Y-95913838D01*
X79798299Y-95885870D01*
X79796809Y-95884001D01*
X79788500Y-95880000D01*
X79249000Y-95880000D01*
X79162657Y-95860293D01*
X79093416Y-95805074D01*
X79054989Y-95725282D01*
X79050000Y-95681000D01*
X79050000Y-95357577D01*
X79550000Y-95357577D01*
X79554330Y-95376547D01*
X79561500Y-95380000D01*
X79777577Y-95380000D01*
X79796547Y-95375670D01*
X79805315Y-95357464D01*
X79860534Y-95288223D01*
X79940328Y-95249798D01*
X80010822Y-95248809D01*
X80010987Y-95247134D01*
X80040083Y-95250000D01*
X80227577Y-95250000D01*
X80246547Y-95245670D01*
X80250000Y-95238500D01*
X80250000Y-95227577D01*
X80750000Y-95227577D01*
X80754330Y-95246547D01*
X80761500Y-95250000D01*
X80959917Y-95250000D01*
X80979293Y-95248091D01*
X81008810Y-95242220D01*
X81044335Y-95227505D01*
X81077894Y-95205082D01*
X81105082Y-95177894D01*
X81127505Y-95144335D01*
X81142220Y-95108810D01*
X81148091Y-95079293D01*
X81150000Y-95059917D01*
X81150000Y-94922423D01*
X81145670Y-94903453D01*
X81138500Y-94900000D01*
X80772423Y-94900000D01*
X80753453Y-94904330D01*
X80750000Y-94911500D01*
X80750000Y-95227577D01*
X80250000Y-95227577D01*
X80250000Y-94922423D01*
X80245670Y-94903453D01*
X80238500Y-94900000D01*
X79872423Y-94900000D01*
X79853453Y-94904330D01*
X79850000Y-94911500D01*
X79850000Y-94984083D01*
X79830293Y-95070426D01*
X79775074Y-95139667D01*
X79695282Y-95178094D01*
X79631494Y-95182125D01*
X79609919Y-95180000D01*
X79572423Y-95180000D01*
X79553453Y-95184330D01*
X79550000Y-95191500D01*
X79550000Y-95357577D01*
X79050000Y-95357577D01*
X79050000Y-95202423D01*
X79045670Y-95183453D01*
X79038500Y-95180000D01*
X78990083Y-95180000D01*
X78970707Y-95181909D01*
X78941190Y-95187780D01*
X78905665Y-95202495D01*
X78872106Y-95224918D01*
X78844918Y-95252106D01*
X78822495Y-95285665D01*
X78814268Y-95305526D01*
X78763019Y-95377755D01*
X78685506Y-95420595D01*
X78597082Y-95425560D01*
X78515261Y-95391669D01*
X78489702Y-95370086D01*
X78197855Y-95078239D01*
X78187665Y-95065823D01*
X78179510Y-95057668D01*
X78168624Y-95041376D01*
X78145623Y-95026007D01*
X78146515Y-95024673D01*
X78146514Y-95024672D01*
X78145622Y-95026006D01*
X78119465Y-95008529D01*
X78119462Y-95008527D01*
X78105952Y-94999500D01*
X78077495Y-94980485D01*
X77997133Y-94964500D01*
X77989225Y-94962927D01*
X77989224Y-94962927D01*
X77970000Y-94959103D01*
X77950776Y-94962927D01*
X77939238Y-94962927D01*
X77923268Y-94964500D01*
X73220369Y-94964500D01*
X73134026Y-94944793D01*
X73064785Y-94889574D01*
X73037683Y-94843537D01*
X73035935Y-94837749D01*
X72939218Y-94655849D01*
X72929253Y-94643630D01*
X72815163Y-94503743D01*
X72809011Y-94496200D01*
X72697070Y-94403594D01*
X72665621Y-94377577D01*
X79850000Y-94377577D01*
X79854330Y-94396547D01*
X79861500Y-94400000D01*
X80227577Y-94400000D01*
X80246547Y-94395670D01*
X80250000Y-94388500D01*
X80250000Y-94377577D01*
X80750000Y-94377577D01*
X80754330Y-94396547D01*
X80761500Y-94400000D01*
X81127577Y-94400000D01*
X81146547Y-94395670D01*
X81150000Y-94388500D01*
X81150000Y-94240083D01*
X81148091Y-94220707D01*
X81142220Y-94191190D01*
X81127505Y-94155665D01*
X81105082Y-94122106D01*
X81077894Y-94094918D01*
X81044335Y-94072495D01*
X81008810Y-94057780D01*
X80979293Y-94051909D01*
X80959917Y-94050000D01*
X80772423Y-94050000D01*
X80753453Y-94054330D01*
X80750000Y-94061500D01*
X80750000Y-94377577D01*
X80250000Y-94377577D01*
X80250000Y-94072423D01*
X80245670Y-94053453D01*
X80238500Y-94050000D01*
X80040083Y-94050000D01*
X80020707Y-94051909D01*
X79991190Y-94057780D01*
X79955665Y-94072495D01*
X79922106Y-94094918D01*
X79894918Y-94122106D01*
X79872495Y-94155665D01*
X79857780Y-94191190D01*
X79851909Y-94220707D01*
X79850000Y-94240083D01*
X79850000Y-94377577D01*
X72665621Y-94377577D01*
X72657776Y-94371087D01*
X72657774Y-94371085D01*
X72650275Y-94364882D01*
X72469055Y-94266897D01*
X72459757Y-94264019D01*
X72459755Y-94264018D01*
X72370655Y-94236437D01*
X72272254Y-94205977D01*
X72108376Y-94188753D01*
X72077046Y-94185460D01*
X72077045Y-94185460D01*
X72067369Y-94184443D01*
X71862203Y-94203114D01*
X71852864Y-94205863D01*
X71852862Y-94205863D01*
X71673918Y-94258529D01*
X71673915Y-94258530D01*
X71664572Y-94261280D01*
X71655941Y-94265792D01*
X71655939Y-94265793D01*
X71597987Y-94296090D01*
X71482002Y-94356726D01*
X71442483Y-94388500D01*
X71329028Y-94479719D01*
X71329024Y-94479723D01*
X71321447Y-94485815D01*
X71315194Y-94493267D01*
X71315193Y-94493268D01*
X71301181Y-94509967D01*
X71189024Y-94643630D01*
X71089776Y-94824162D01*
X71086834Y-94833437D01*
X71086833Y-94833439D01*
X71030466Y-95011133D01*
X71027484Y-95020532D01*
X71026400Y-95030196D01*
X71026399Y-95030201D01*
X71006739Y-95205475D01*
X71004520Y-95225262D01*
X70199666Y-95225262D01*
X70199466Y-90145262D01*
X71004520Y-90145262D01*
X71008233Y-90189474D01*
X71019574Y-90324529D01*
X71021759Y-90350553D01*
X71024441Y-90359908D01*
X71024442Y-90359911D01*
X71075757Y-90538867D01*
X71078544Y-90548586D01*
X71082991Y-90557239D01*
X71167002Y-90720707D01*
X71172712Y-90731818D01*
X71178759Y-90739447D01*
X71178760Y-90739449D01*
X71294628Y-90885639D01*
X71294632Y-90885643D01*
X71300677Y-90893270D01*
X71308090Y-90899579D01*
X71308091Y-90899580D01*
X71380249Y-90960991D01*
X71457564Y-91026791D01*
X71466057Y-91031538D01*
X71466062Y-91031541D01*
X71501342Y-91051258D01*
X71637398Y-91127297D01*
X71646653Y-91130304D01*
X71646655Y-91130305D01*
X71824070Y-91187951D01*
X71824074Y-91187952D01*
X71833329Y-91190959D01*
X71842993Y-91192111D01*
X71842996Y-91192112D01*
X72028232Y-91214199D01*
X72028233Y-91214199D01*
X72037894Y-91215351D01*
X72047590Y-91214605D01*
X72047592Y-91214605D01*
X72108037Y-91209954D01*
X72243300Y-91199546D01*
X72441725Y-91144145D01*
X72450404Y-91139761D01*
X72450409Y-91139759D01*
X72616929Y-91055643D01*
X72616928Y-91055643D01*
X72625610Y-91051258D01*
X72787951Y-90924424D01*
X72882591Y-90814782D01*
X72916208Y-90775836D01*
X72916210Y-90775834D01*
X72922564Y-90768472D01*
X73024323Y-90589344D01*
X73031000Y-90569274D01*
X73086279Y-90403098D01*
X73086279Y-90403097D01*
X73089351Y-90393863D01*
X73115171Y-90189474D01*
X73115321Y-90178786D01*
X73115505Y-90165549D01*
X73115583Y-90160000D01*
X73114070Y-90144562D01*
X73104627Y-90048260D01*
X73095480Y-89954970D01*
X73035935Y-89757749D01*
X73028622Y-89743994D01*
X72991671Y-89674500D01*
X72939218Y-89575849D01*
X72929253Y-89563630D01*
X72815163Y-89423743D01*
X72809011Y-89416200D01*
X72702675Y-89328231D01*
X72657776Y-89291087D01*
X72657774Y-89291085D01*
X72650275Y-89284882D01*
X72469055Y-89186897D01*
X72459757Y-89184019D01*
X72459755Y-89184018D01*
X72355481Y-89151740D01*
X72272254Y-89125977D01*
X72092963Y-89107133D01*
X72077046Y-89105460D01*
X72077045Y-89105460D01*
X72067369Y-89104443D01*
X71862203Y-89123114D01*
X71852864Y-89125863D01*
X71852862Y-89125863D01*
X71673918Y-89178529D01*
X71673915Y-89178530D01*
X71664572Y-89181280D01*
X71655941Y-89185792D01*
X71655939Y-89185793D01*
X71588612Y-89220991D01*
X71482002Y-89276726D01*
X71453958Y-89299274D01*
X71329028Y-89399719D01*
X71329024Y-89399723D01*
X71321447Y-89405815D01*
X71315194Y-89413267D01*
X71315193Y-89413268D01*
X71304929Y-89425500D01*
X71189024Y-89563630D01*
X71089776Y-89744162D01*
X71086834Y-89753437D01*
X71086833Y-89753439D01*
X71040485Y-89899549D01*
X71027484Y-89940532D01*
X71026400Y-89950196D01*
X71026399Y-89950201D01*
X71007297Y-90120500D01*
X71004520Y-90145262D01*
X70199466Y-90145262D01*
X70199366Y-87605262D01*
X71004520Y-87605262D01*
X71008233Y-87649474D01*
X71018780Y-87775074D01*
X71021759Y-87810553D01*
X71024441Y-87819908D01*
X71024442Y-87819911D01*
X71075455Y-87997813D01*
X71078544Y-88008586D01*
X71082991Y-88017239D01*
X71164528Y-88175893D01*
X71172712Y-88191818D01*
X71178759Y-88199447D01*
X71178760Y-88199449D01*
X71294628Y-88345639D01*
X71294632Y-88345643D01*
X71300677Y-88353270D01*
X71308090Y-88359579D01*
X71308091Y-88359580D01*
X71322379Y-88371740D01*
X71457564Y-88486791D01*
X71466057Y-88491538D01*
X71466062Y-88491541D01*
X71539381Y-88532517D01*
X71637398Y-88587297D01*
X71646653Y-88590304D01*
X71646655Y-88590305D01*
X71824070Y-88647951D01*
X71824074Y-88647952D01*
X71833329Y-88650959D01*
X71842993Y-88652111D01*
X71842996Y-88652112D01*
X72028232Y-88674199D01*
X72028233Y-88674199D01*
X72037894Y-88675351D01*
X72047590Y-88674605D01*
X72047592Y-88674605D01*
X72108037Y-88669954D01*
X72243300Y-88659546D01*
X72441725Y-88604145D01*
X72450404Y-88599761D01*
X72450409Y-88599759D01*
X72616929Y-88515643D01*
X72616928Y-88515643D01*
X72625610Y-88511258D01*
X72787951Y-88384424D01*
X72884765Y-88272263D01*
X72916208Y-88235836D01*
X72916210Y-88235834D01*
X72922564Y-88228472D01*
X73024323Y-88049344D01*
X73029677Y-88033251D01*
X73086279Y-87863098D01*
X73086279Y-87863097D01*
X73089351Y-87853863D01*
X73115171Y-87649474D01*
X73115583Y-87620000D01*
X73113017Y-87593823D01*
X73105326Y-87515384D01*
X73095480Y-87414970D01*
X73035935Y-87217749D01*
X73025701Y-87198500D01*
X72975283Y-87103679D01*
X72939218Y-87035849D01*
X72932468Y-87027572D01*
X72815163Y-86883743D01*
X72809011Y-86876200D01*
X72704713Y-86789917D01*
X72657776Y-86751087D01*
X72657774Y-86751085D01*
X72650275Y-86744882D01*
X72469055Y-86646897D01*
X72459757Y-86644019D01*
X72459755Y-86644018D01*
X72331572Y-86604339D01*
X72272254Y-86585977D01*
X72108376Y-86568753D01*
X72077046Y-86565460D01*
X72077045Y-86565460D01*
X72067369Y-86564443D01*
X71862203Y-86583114D01*
X71852864Y-86585863D01*
X71852862Y-86585863D01*
X71673918Y-86638529D01*
X71673915Y-86638530D01*
X71664572Y-86641280D01*
X71655941Y-86645792D01*
X71655939Y-86645793D01*
X71651888Y-86647911D01*
X71482002Y-86736726D01*
X71463403Y-86751680D01*
X71329028Y-86859719D01*
X71329024Y-86859723D01*
X71321447Y-86865815D01*
X71315194Y-86873267D01*
X71315193Y-86873268D01*
X71299144Y-86892394D01*
X71189024Y-87023630D01*
X71089776Y-87204162D01*
X71086834Y-87213437D01*
X71086833Y-87213439D01*
X71031654Y-87387388D01*
X71027484Y-87400532D01*
X71026400Y-87410196D01*
X71026399Y-87410201D01*
X71020121Y-87466174D01*
X71004520Y-87605262D01*
X70199366Y-87605262D01*
X70199266Y-85065262D01*
X71004520Y-85065262D01*
X71008233Y-85109474D01*
X71016575Y-85208814D01*
X71021759Y-85270553D01*
X71024441Y-85279908D01*
X71024442Y-85279911D01*
X71074313Y-85453832D01*
X71078544Y-85468586D01*
X71082991Y-85477239D01*
X71168038Y-85642723D01*
X71172712Y-85651818D01*
X71178759Y-85659447D01*
X71178760Y-85659449D01*
X71294628Y-85805639D01*
X71294632Y-85805643D01*
X71300677Y-85813270D01*
X71457564Y-85946791D01*
X71466057Y-85951538D01*
X71466062Y-85951541D01*
X71501342Y-85971258D01*
X71637398Y-86047297D01*
X71646653Y-86050304D01*
X71646655Y-86050305D01*
X71824070Y-86107951D01*
X71824074Y-86107952D01*
X71833329Y-86110959D01*
X71842993Y-86112111D01*
X71842996Y-86112112D01*
X72028232Y-86134199D01*
X72028233Y-86134199D01*
X72037894Y-86135351D01*
X72047590Y-86134605D01*
X72047592Y-86134605D01*
X72108037Y-86129954D01*
X72243300Y-86119546D01*
X72441725Y-86064145D01*
X72450404Y-86059761D01*
X72450409Y-86059759D01*
X72616929Y-85975643D01*
X72616928Y-85975643D01*
X72625610Y-85971258D01*
X72787951Y-85844424D01*
X72894740Y-85720707D01*
X72916208Y-85695836D01*
X72916210Y-85695834D01*
X72922564Y-85688472D01*
X73024323Y-85509344D01*
X73037711Y-85469100D01*
X73086279Y-85323098D01*
X73086279Y-85323097D01*
X73089351Y-85313863D01*
X73115171Y-85109474D01*
X73115297Y-85100500D01*
X73115505Y-85085549D01*
X73115583Y-85080000D01*
X73112108Y-85044552D01*
X73096430Y-84884661D01*
X73095480Y-84874970D01*
X73035935Y-84677749D01*
X73024178Y-84655636D01*
X72943787Y-84504443D01*
X72939218Y-84495849D01*
X72929253Y-84483630D01*
X72815163Y-84343743D01*
X72809011Y-84336200D01*
X72650275Y-84204882D01*
X72469055Y-84106897D01*
X72459757Y-84104019D01*
X72459755Y-84104018D01*
X72370654Y-84076437D01*
X72272254Y-84045977D01*
X72108376Y-84028753D01*
X72077046Y-84025460D01*
X72077045Y-84025460D01*
X72067369Y-84024443D01*
X71862203Y-84043114D01*
X71852864Y-84045863D01*
X71852862Y-84045863D01*
X71673918Y-84098529D01*
X71673915Y-84098530D01*
X71664572Y-84101280D01*
X71655941Y-84105792D01*
X71655939Y-84105793D01*
X71644971Y-84111527D01*
X71482002Y-84196726D01*
X71429525Y-84238919D01*
X71329028Y-84319719D01*
X71329024Y-84319723D01*
X71321447Y-84325815D01*
X71315194Y-84333267D01*
X71315193Y-84333268D01*
X71291650Y-84361326D01*
X71189024Y-84483630D01*
X71089776Y-84664162D01*
X71086834Y-84673437D01*
X71086833Y-84673439D01*
X71063748Y-84746214D01*
X71027484Y-84860532D01*
X71026400Y-84870196D01*
X71026399Y-84870201D01*
X71016438Y-84959009D01*
X71004520Y-85065262D01*
X70199266Y-85065262D01*
X70199041Y-79345309D01*
X70199121Y-79344604D01*
X70199160Y-79322198D01*
X70204182Y-79300358D01*
X70201703Y-79289402D01*
X70202952Y-79283973D01*
X70200425Y-79283757D01*
X70213515Y-79130372D01*
X70219249Y-79097021D01*
X70220824Y-79090991D01*
X70257766Y-78949500D01*
X70257965Y-78948736D01*
X70269267Y-78916837D01*
X70301458Y-78845834D01*
X70332556Y-78777242D01*
X70349096Y-78747729D01*
X70435117Y-78620883D01*
X70456417Y-78594598D01*
X70562697Y-78484152D01*
X70588145Y-78461856D01*
X70711588Y-78371026D01*
X70740451Y-78353360D01*
X70877504Y-78284756D01*
X70908946Y-78272236D01*
X71055640Y-78227848D01*
X71088744Y-78220837D01*
X71241181Y-78201902D01*
X71241354Y-78203297D01*
X71244896Y-78202607D01*
X71257527Y-78205005D01*
X71274118Y-78200574D01*
X71276271Y-78200983D01*
X71276271Y-78199999D01*
X99309386Y-78199531D01*
X99395729Y-78219237D01*
X99464971Y-78274454D01*
X99503399Y-78354246D01*
X99504565Y-78437355D01*
X99501908Y-78450712D01*
X99500860Y-78461348D01*
X99504330Y-78476547D01*
X99511500Y-78480000D01*
X100051000Y-78480000D01*
X100137343Y-78499707D01*
X100206584Y-78554926D01*
X100245011Y-78634718D01*
X100250000Y-78679000D01*
X100250000Y-78781000D01*
X100230293Y-78867343D01*
X100175074Y-78936584D01*
X100095282Y-78975011D01*
X100051000Y-78980000D01*
X99561664Y-78980000D01*
X99475321Y-78960293D01*
X99451105Y-78946462D01*
X99414528Y-78922022D01*
X99414526Y-78922021D01*
X99398231Y-78911133D01*
X99361947Y-78903916D01*
X99349342Y-78901408D01*
X99349338Y-78901408D01*
X99339748Y-78899500D01*
X98800252Y-78899500D01*
X98790662Y-78901408D01*
X98790658Y-78901408D01*
X98778053Y-78903916D01*
X98741769Y-78911133D01*
X98725476Y-78922020D01*
X98725471Y-78922022D01*
X98710561Y-78931985D01*
X98627822Y-78963571D01*
X98539572Y-78956128D01*
X98489439Y-78931985D01*
X98474529Y-78922022D01*
X98474524Y-78922020D01*
X98458231Y-78911133D01*
X98421947Y-78903916D01*
X98409342Y-78901408D01*
X98409338Y-78901408D01*
X98399748Y-78899500D01*
X97860252Y-78899500D01*
X97850662Y-78901408D01*
X97850658Y-78901408D01*
X97838053Y-78903916D01*
X97801769Y-78911133D01*
X97785477Y-78922019D01*
X97785475Y-78922020D01*
X97760812Y-78938500D01*
X97735448Y-78955448D01*
X97724562Y-78971740D01*
X97702039Y-79005448D01*
X97691133Y-79021769D01*
X97684396Y-79055640D01*
X97681495Y-79070224D01*
X97679500Y-79080252D01*
X97679500Y-79719748D01*
X97691133Y-79778231D01*
X97702019Y-79794523D01*
X97702020Y-79794525D01*
X97709315Y-79805442D01*
X97735448Y-79844552D01*
X97751740Y-79855438D01*
X97756588Y-79860286D01*
X97803707Y-79935274D01*
X97813623Y-80023281D01*
X97784372Y-80106874D01*
X97721748Y-80169498D01*
X97638155Y-80198749D01*
X97615874Y-80200000D01*
X96849000Y-80200000D01*
X96762657Y-80180293D01*
X96693416Y-80125074D01*
X96654989Y-80045282D01*
X96650000Y-80001000D01*
X96650000Y-79940083D01*
X96648091Y-79920707D01*
X96642220Y-79891190D01*
X96627505Y-79855665D01*
X96605082Y-79822106D01*
X96577894Y-79794918D01*
X96544335Y-79772495D01*
X96508810Y-79757780D01*
X96479293Y-79751909D01*
X96459917Y-79750000D01*
X96272423Y-79750000D01*
X96253453Y-79754330D01*
X96250000Y-79761500D01*
X96250000Y-80727577D01*
X96254330Y-80746547D01*
X96261500Y-80750000D01*
X96459917Y-80750000D01*
X96479293Y-80748091D01*
X96508810Y-80742220D01*
X96524846Y-80735578D01*
X96612158Y-80720743D01*
X96697260Y-80745261D01*
X96763297Y-80804275D01*
X96797188Y-80886097D01*
X96800000Y-80919430D01*
X96800000Y-81080018D01*
X96780293Y-81166361D01*
X96725074Y-81235602D01*
X96645282Y-81274029D01*
X96556718Y-81274029D01*
X96539151Y-81268430D01*
X96528231Y-81261133D01*
X96503008Y-81256116D01*
X96479342Y-81251408D01*
X96479338Y-81251408D01*
X96469748Y-81249500D01*
X95530252Y-81249500D01*
X95520662Y-81251408D01*
X95520658Y-81251408D01*
X95471769Y-81261133D01*
X95471554Y-81260054D01*
X95405958Y-81271198D01*
X95333652Y-81253159D01*
X95323988Y-81248693D01*
X95312095Y-81240985D01*
X95174739Y-81199907D01*
X95160568Y-81199820D01*
X95160565Y-81199820D01*
X95101208Y-81199458D01*
X95031376Y-81199031D01*
X94962452Y-81218730D01*
X94907160Y-81234532D01*
X94907159Y-81234533D01*
X94893529Y-81238428D01*
X94881542Y-81245991D01*
X94881538Y-81245993D01*
X94845392Y-81268800D01*
X94761853Y-81298207D01*
X94739203Y-81299500D01*
X94361225Y-81299500D01*
X94274882Y-81279793D01*
X94252987Y-81267490D01*
X94223992Y-81248696D01*
X94223990Y-81248695D01*
X94212095Y-81240985D01*
X94074739Y-81199907D01*
X94060568Y-81199820D01*
X94060565Y-81199820D01*
X94001208Y-81199458D01*
X93931376Y-81199031D01*
X93862452Y-81218730D01*
X93807160Y-81234532D01*
X93807159Y-81234533D01*
X93793529Y-81238428D01*
X93781542Y-81245991D01*
X93781538Y-81245993D01*
X93745392Y-81268800D01*
X93661853Y-81298207D01*
X93639203Y-81299500D01*
X74008321Y-81299500D01*
X73921978Y-81279793D01*
X73867607Y-81241214D01*
X73186310Y-80559917D01*
X95350000Y-80559917D01*
X95351909Y-80579293D01*
X95357780Y-80608810D01*
X95372495Y-80644335D01*
X95394918Y-80677894D01*
X95422106Y-80705082D01*
X95455665Y-80727505D01*
X95491190Y-80742220D01*
X95520707Y-80748091D01*
X95540083Y-80750000D01*
X95727577Y-80750000D01*
X95746547Y-80745670D01*
X95750000Y-80738500D01*
X95750000Y-80522423D01*
X95745670Y-80503453D01*
X95738500Y-80500000D01*
X95372423Y-80500000D01*
X95353453Y-80504330D01*
X95350000Y-80511500D01*
X95350000Y-80559917D01*
X73186310Y-80559917D01*
X73168786Y-80542393D01*
X73121667Y-80467405D01*
X73110500Y-80401679D01*
X73110500Y-79977577D01*
X95350000Y-79977577D01*
X95354330Y-79996547D01*
X95361500Y-80000000D01*
X95727577Y-80000000D01*
X95746547Y-79995670D01*
X95750000Y-79988500D01*
X95750000Y-79772423D01*
X95745670Y-79753453D01*
X95738500Y-79750000D01*
X95540083Y-79750000D01*
X95520707Y-79751909D01*
X95491190Y-79757780D01*
X95455665Y-79772495D01*
X95422106Y-79794918D01*
X95394918Y-79822106D01*
X95372495Y-79855665D01*
X95357780Y-79891190D01*
X95351909Y-79920707D01*
X95350000Y-79940083D01*
X95350000Y-79977577D01*
X73110500Y-79977577D01*
X73110500Y-79130252D01*
X73107159Y-79113453D01*
X73102690Y-79090991D01*
X73098867Y-79071769D01*
X73078302Y-79040991D01*
X73070644Y-79029531D01*
X73054552Y-79005448D01*
X73009001Y-78975011D01*
X73004525Y-78972020D01*
X73004523Y-78972019D01*
X72988231Y-78961133D01*
X72951947Y-78953916D01*
X72939342Y-78951408D01*
X72939338Y-78951408D01*
X72929748Y-78949500D01*
X71190252Y-78949500D01*
X71180662Y-78951408D01*
X71180658Y-78951408D01*
X71168053Y-78953916D01*
X71131769Y-78961133D01*
X71115477Y-78972019D01*
X71115475Y-78972020D01*
X71110999Y-78975011D01*
X71065448Y-79005448D01*
X71049356Y-79029531D01*
X71041699Y-79040991D01*
X71021133Y-79071769D01*
X71017310Y-79090991D01*
X71012842Y-79113453D01*
X71009500Y-79130252D01*
X71009500Y-80869748D01*
X71021133Y-80928231D01*
X71065448Y-80994552D01*
X71081740Y-81005438D01*
X71115475Y-81027980D01*
X71115477Y-81027981D01*
X71131769Y-81038867D01*
X71168053Y-81046084D01*
X71180658Y-81048592D01*
X71180662Y-81048592D01*
X71190252Y-81050500D01*
X72461679Y-81050500D01*
X72548022Y-81070207D01*
X72602393Y-81108786D01*
X72792207Y-81298600D01*
X72839326Y-81373588D01*
X72849242Y-81461595D01*
X72819991Y-81545188D01*
X72757367Y-81607812D01*
X72673774Y-81637063D01*
X72585767Y-81627147D01*
X72556844Y-81614364D01*
X72477618Y-81571527D01*
X72469055Y-81566897D01*
X72459757Y-81564019D01*
X72459755Y-81564018D01*
X72370655Y-81536437D01*
X72272254Y-81505977D01*
X72108376Y-81488753D01*
X72077046Y-81485460D01*
X72077045Y-81485460D01*
X72067369Y-81484443D01*
X71862203Y-81503114D01*
X71852864Y-81505863D01*
X71852862Y-81505863D01*
X71673918Y-81558529D01*
X71673915Y-81558530D01*
X71664572Y-81561280D01*
X71655941Y-81565792D01*
X71655939Y-81565793D01*
X71644971Y-81571527D01*
X71482002Y-81656726D01*
X71430952Y-81697771D01*
X71329028Y-81779719D01*
X71329024Y-81779723D01*
X71321447Y-81785815D01*
X71315194Y-81793267D01*
X71315193Y-81793268D01*
X71302988Y-81807813D01*
X71189024Y-81943630D01*
X71089776Y-82124162D01*
X71086834Y-82133437D01*
X71086833Y-82133439D01*
X71039028Y-82284142D01*
X71027484Y-82320532D01*
X71026400Y-82330196D01*
X71026399Y-82330201D01*
X71005605Y-82515587D01*
X71004520Y-82525262D01*
X71011833Y-82612354D01*
X71020290Y-82713056D01*
X71021759Y-82730553D01*
X71024441Y-82739908D01*
X71024442Y-82739911D01*
X71063307Y-82875448D01*
X71078544Y-82928586D01*
X71082991Y-82937239D01*
X71164025Y-83094914D01*
X71172712Y-83111818D01*
X71178759Y-83119447D01*
X71178760Y-83119449D01*
X71294628Y-83265639D01*
X71294632Y-83265643D01*
X71300677Y-83273270D01*
X71308090Y-83279579D01*
X71308091Y-83279580D01*
X71450152Y-83400483D01*
X71457564Y-83406791D01*
X71466057Y-83411538D01*
X71466062Y-83411541D01*
X71509188Y-83435643D01*
X71637398Y-83507297D01*
X71646653Y-83510304D01*
X71646655Y-83510305D01*
X71824070Y-83567951D01*
X71824074Y-83567952D01*
X71833329Y-83570959D01*
X71842993Y-83572111D01*
X71842996Y-83572112D01*
X72028232Y-83594199D01*
X72028233Y-83594199D01*
X72037894Y-83595351D01*
X72047590Y-83594605D01*
X72047592Y-83594605D01*
X72108037Y-83589954D01*
X72243300Y-83579546D01*
X72441725Y-83524145D01*
X72450404Y-83519761D01*
X72450409Y-83519759D01*
X72616929Y-83435643D01*
X72616928Y-83435643D01*
X72625610Y-83431258D01*
X72787951Y-83304424D01*
X72858468Y-83222729D01*
X72916208Y-83155836D01*
X72916210Y-83155834D01*
X72922564Y-83148472D01*
X72948306Y-83103158D01*
X73019516Y-82977806D01*
X73019516Y-82977805D01*
X73024323Y-82969344D01*
X73027394Y-82960113D01*
X73028087Y-82958556D01*
X73081211Y-82887694D01*
X73159819Y-82846900D01*
X73209881Y-82840500D01*
X85755585Y-82840500D01*
X85841928Y-82860207D01*
X85907914Y-82911451D01*
X85962970Y-82976948D01*
X86082313Y-83056390D01*
X86219157Y-83099142D01*
X86233329Y-83099402D01*
X86233330Y-83099402D01*
X86287626Y-83100397D01*
X86362499Y-83101770D01*
X86376171Y-83098042D01*
X86376175Y-83098042D01*
X86487143Y-83067788D01*
X86500817Y-83064060D01*
X86546374Y-83036088D01*
X86630265Y-83007703D01*
X86718165Y-83018529D01*
X86792662Y-83066421D01*
X86839002Y-83141893D01*
X86849500Y-83205672D01*
X86849500Y-88103431D01*
X86829793Y-88189774D01*
X86774574Y-88259015D01*
X86694782Y-88297442D01*
X86682132Y-88299500D01*
X86680252Y-88299500D01*
X86621769Y-88311133D01*
X86605474Y-88322021D01*
X86587362Y-88329523D01*
X86586630Y-88327757D01*
X86527823Y-88350206D01*
X86439573Y-88342765D01*
X86408621Y-88327859D01*
X86394524Y-88322020D01*
X86378231Y-88311133D01*
X86341947Y-88303916D01*
X86329342Y-88301408D01*
X86329338Y-88301408D01*
X86319748Y-88299500D01*
X85180252Y-88299500D01*
X85170662Y-88301408D01*
X85170658Y-88301408D01*
X85158053Y-88303916D01*
X85121769Y-88311133D01*
X85105477Y-88322019D01*
X85105475Y-88322020D01*
X85079531Y-88339356D01*
X85055448Y-88355448D01*
X85044562Y-88371740D01*
X85024497Y-88401769D01*
X85011133Y-88421769D01*
X85007310Y-88440991D01*
X85001533Y-88470033D01*
X84999500Y-88480252D01*
X84999500Y-89469748D01*
X85011133Y-89528231D01*
X85055448Y-89594552D01*
X85056294Y-89595117D01*
X85094748Y-89656315D01*
X85104664Y-89744322D01*
X85075413Y-89827915D01*
X85047629Y-89862755D01*
X82544170Y-92366214D01*
X82469182Y-92413333D01*
X82403456Y-92424500D01*
X73220369Y-92424500D01*
X73134026Y-92404793D01*
X73064785Y-92349574D01*
X73037683Y-92303537D01*
X73035935Y-92297749D01*
X72939218Y-92115849D01*
X72929253Y-92103630D01*
X72815163Y-91963743D01*
X72809011Y-91956200D01*
X72702781Y-91868319D01*
X72657776Y-91831087D01*
X72657774Y-91831085D01*
X72650275Y-91824882D01*
X72469055Y-91726897D01*
X72459757Y-91724019D01*
X72459755Y-91724018D01*
X72315271Y-91679293D01*
X72272254Y-91665977D01*
X72103686Y-91648260D01*
X72077046Y-91645460D01*
X72077045Y-91645460D01*
X72067369Y-91644443D01*
X71862203Y-91663114D01*
X71852864Y-91665863D01*
X71852862Y-91665863D01*
X71673918Y-91718529D01*
X71673915Y-91718530D01*
X71664572Y-91721280D01*
X71655941Y-91725792D01*
X71655939Y-91725793D01*
X71612964Y-91748260D01*
X71482002Y-91816726D01*
X71431778Y-91857107D01*
X71329028Y-91939719D01*
X71329024Y-91939723D01*
X71321447Y-91945815D01*
X71315194Y-91953267D01*
X71315193Y-91953268D01*
X71291650Y-91981326D01*
X71189024Y-92103630D01*
X71089776Y-92284162D01*
X71086834Y-92293437D01*
X71086833Y-92293439D01*
X71030649Y-92470556D01*
X71027484Y-92480532D01*
X71026400Y-92490196D01*
X71026399Y-92490201D01*
X71007862Y-92655467D01*
X71004520Y-92685262D01*
X71007904Y-92725555D01*
X71017555Y-92840484D01*
X71021759Y-92890553D01*
X71024441Y-92899908D01*
X71024442Y-92899911D01*
X71075634Y-93078438D01*
X71078544Y-93088586D01*
X71082991Y-93097239D01*
X71150333Y-93228272D01*
X71172712Y-93271818D01*
X71178759Y-93279447D01*
X71178760Y-93279449D01*
X71294628Y-93425639D01*
X71294632Y-93425643D01*
X71300677Y-93433270D01*
X71308090Y-93439579D01*
X71308091Y-93439580D01*
X71344329Y-93470421D01*
X71457564Y-93566791D01*
X71466057Y-93571538D01*
X71466062Y-93571541D01*
X71501342Y-93591258D01*
X71637398Y-93667297D01*
X71646653Y-93670304D01*
X71646655Y-93670305D01*
X71824070Y-93727951D01*
X71824074Y-93727952D01*
X71833329Y-93730959D01*
X71842993Y-93732111D01*
X71842996Y-93732112D01*
X72028232Y-93754199D01*
X72028233Y-93754199D01*
X72037894Y-93755351D01*
X72047590Y-93754605D01*
X72047592Y-93754605D01*
X72108037Y-93749954D01*
X72243300Y-93739546D01*
X72441725Y-93684145D01*
X72450404Y-93679761D01*
X72450409Y-93679759D01*
X72616929Y-93595643D01*
X72616928Y-93595643D01*
X72625610Y-93591258D01*
X72787951Y-93464424D01*
X72862759Y-93377757D01*
X72916208Y-93315836D01*
X72916210Y-93315834D01*
X72922564Y-93308472D01*
X73024323Y-93129344D01*
X73027738Y-93119080D01*
X73030197Y-93111686D01*
X73076150Y-93035978D01*
X73150401Y-92987706D01*
X73219023Y-92975500D01*
X82553268Y-92975500D01*
X82569238Y-92977073D01*
X82580776Y-92977073D01*
X82600000Y-92980897D01*
X82619224Y-92977073D01*
X82627132Y-92975500D01*
X82627133Y-92975500D01*
X82707495Y-92959515D01*
X82749608Y-92931376D01*
X82775622Y-92913994D01*
X82776514Y-92915328D01*
X82776515Y-92915327D01*
X82775623Y-92913993D01*
X82782332Y-92909510D01*
X82798624Y-92898624D01*
X82809510Y-92882332D01*
X82817665Y-92874177D01*
X82827855Y-92861761D01*
X85259786Y-90429830D01*
X85334774Y-90382711D01*
X85422781Y-90372795D01*
X85506374Y-90402046D01*
X85568998Y-90464670D01*
X85598249Y-90548263D01*
X85599500Y-90570544D01*
X85599500Y-92719748D01*
X85601408Y-92729338D01*
X85601408Y-92729342D01*
X85603916Y-92741947D01*
X85611133Y-92778231D01*
X85655448Y-92844552D01*
X85671740Y-92855438D01*
X85705475Y-92877980D01*
X85705477Y-92877981D01*
X85721769Y-92888867D01*
X85758053Y-92896084D01*
X85770658Y-92898592D01*
X85770662Y-92898592D01*
X85780252Y-92900500D01*
X87219748Y-92900500D01*
X87229338Y-92898592D01*
X87229342Y-92898592D01*
X87241947Y-92896084D01*
X87278231Y-92888867D01*
X87294523Y-92877981D01*
X87294525Y-92877980D01*
X87328260Y-92855438D01*
X87344552Y-92844552D01*
X87388867Y-92778231D01*
X87396084Y-92741947D01*
X87398592Y-92729342D01*
X87398592Y-92729338D01*
X87400500Y-92719748D01*
X87400500Y-90374500D01*
X87420207Y-90288157D01*
X87475426Y-90218916D01*
X87555218Y-90180489D01*
X87599500Y-90175500D01*
X90553268Y-90175500D01*
X90569238Y-90177073D01*
X90580776Y-90177073D01*
X90600000Y-90180897D01*
X90619224Y-90177073D01*
X90627132Y-90175500D01*
X90627133Y-90175500D01*
X90651193Y-90170714D01*
X90688272Y-90163339D01*
X90688273Y-90163338D01*
X90707495Y-90159515D01*
X90759671Y-90124652D01*
X90775622Y-90113994D01*
X90775623Y-90113993D01*
X90798624Y-90098624D01*
X90809511Y-90082331D01*
X90817664Y-90074178D01*
X90827854Y-90061762D01*
X91089868Y-89799748D01*
X91355829Y-89533786D01*
X91430817Y-89486667D01*
X91496543Y-89475500D01*
X91500500Y-89475500D01*
X91586843Y-89495207D01*
X91656084Y-89550426D01*
X91694511Y-89630218D01*
X91699500Y-89674500D01*
X91699500Y-89939748D01*
X91711133Y-89998231D01*
X91722019Y-90014523D01*
X91722020Y-90014525D01*
X91731206Y-90028272D01*
X91755448Y-90064552D01*
X91771740Y-90075438D01*
X91805475Y-90097980D01*
X91805477Y-90097981D01*
X91821769Y-90108867D01*
X91858053Y-90116084D01*
X91870658Y-90118592D01*
X91870662Y-90118592D01*
X91880252Y-90120500D01*
X92338101Y-90120500D01*
X92424444Y-90140207D01*
X92478815Y-90178786D01*
X92641214Y-90341185D01*
X92688333Y-90416173D01*
X92699500Y-90481899D01*
X92699500Y-90599748D01*
X92711133Y-90658231D01*
X92722020Y-90674524D01*
X92722022Y-90674529D01*
X92731985Y-90689439D01*
X92763571Y-90772178D01*
X92756128Y-90860428D01*
X92731985Y-90910561D01*
X92722022Y-90925471D01*
X92722020Y-90925476D01*
X92711133Y-90941769D01*
X92699500Y-91000252D01*
X92699500Y-91539748D01*
X92711133Y-91598231D01*
X92755448Y-91664552D01*
X92771740Y-91675438D01*
X92805475Y-91697980D01*
X92805477Y-91697981D01*
X92821769Y-91708867D01*
X92858053Y-91716084D01*
X92870658Y-91718592D01*
X92870662Y-91718592D01*
X92880252Y-91720500D01*
X93519748Y-91720500D01*
X93529338Y-91718592D01*
X93529342Y-91718592D01*
X93541947Y-91716084D01*
X93578231Y-91708867D01*
X93594523Y-91697981D01*
X93594525Y-91697980D01*
X93628260Y-91675438D01*
X93644552Y-91664552D01*
X93655438Y-91648260D01*
X93669300Y-91634398D01*
X93671711Y-91636809D01*
X93712661Y-91598097D01*
X93797042Y-91571204D01*
X93813764Y-91570500D01*
X95279396Y-91570500D01*
X95365739Y-91590207D01*
X95434980Y-91645426D01*
X95458591Y-91685450D01*
X95461133Y-91698231D01*
X95472021Y-91714526D01*
X95472022Y-91714528D01*
X95483381Y-91731527D01*
X95505448Y-91764552D01*
X95514596Y-91770665D01*
X95557707Y-91839274D01*
X95567623Y-91927281D01*
X95538372Y-92010874D01*
X95516905Y-92037792D01*
X95505448Y-92045448D01*
X95494562Y-92061740D01*
X95474922Y-92091133D01*
X95461133Y-92111769D01*
X95458959Y-92122700D01*
X95411999Y-92188883D01*
X95334486Y-92231723D01*
X95279396Y-92239500D01*
X95020446Y-92239500D01*
X94934103Y-92219793D01*
X94864862Y-92164574D01*
X94855599Y-92151901D01*
X94855438Y-92151740D01*
X94844552Y-92135448D01*
X94809691Y-92112154D01*
X94794525Y-92102020D01*
X94794523Y-92102019D01*
X94778231Y-92091133D01*
X94741947Y-92083916D01*
X94729342Y-92081408D01*
X94729338Y-92081408D01*
X94719748Y-92079500D01*
X94080252Y-92079500D01*
X94070662Y-92081408D01*
X94070658Y-92081408D01*
X94058053Y-92083916D01*
X94021769Y-92091133D01*
X94005477Y-92102019D01*
X94005475Y-92102020D01*
X93990309Y-92112154D01*
X93955448Y-92135448D01*
X93944562Y-92151740D01*
X93924101Y-92182362D01*
X93911133Y-92201769D01*
X93899500Y-92260252D01*
X93899500Y-92734826D01*
X93879793Y-92821169D01*
X93824574Y-92890410D01*
X93744782Y-92928837D01*
X93656218Y-92928837D01*
X93576426Y-92890410D01*
X93532852Y-92842041D01*
X93531851Y-92840476D01*
X93525984Y-92827572D01*
X93446069Y-92734826D01*
X93441654Y-92729702D01*
X93441651Y-92729700D01*
X93432400Y-92718963D01*
X93312095Y-92640985D01*
X93174739Y-92599907D01*
X93160568Y-92599820D01*
X93160565Y-92599820D01*
X93101208Y-92599458D01*
X93031376Y-92599031D01*
X92967493Y-92617289D01*
X92907160Y-92634532D01*
X92907159Y-92634533D01*
X92893529Y-92638428D01*
X92772280Y-92714930D01*
X92762898Y-92725554D01*
X92762896Y-92725555D01*
X92754569Y-92734984D01*
X92677377Y-92822388D01*
X92671353Y-92835218D01*
X92671352Y-92835220D01*
X92622479Y-92939315D01*
X92616447Y-92952163D01*
X92614266Y-92966169D01*
X92610440Y-92978684D01*
X92566349Y-93055491D01*
X92493299Y-93105563D01*
X92420136Y-93119500D01*
X91188498Y-93119500D01*
X91179122Y-93119279D01*
X91162820Y-93118510D01*
X91146740Y-93115048D01*
X91130408Y-93116981D01*
X91130407Y-93116981D01*
X91112674Y-93119080D01*
X91108494Y-93119500D01*
X91100885Y-93119500D01*
X91092780Y-93120849D01*
X91092781Y-93120849D01*
X91085235Y-93122105D01*
X91075954Y-93123426D01*
X91053337Y-93126103D01*
X91030862Y-93128763D01*
X91023239Y-93132424D01*
X91014897Y-93133812D01*
X90974964Y-93155359D01*
X90966611Y-93159615D01*
X90951646Y-93166802D01*
X90925674Y-93179273D01*
X90921726Y-93182592D01*
X90918625Y-93185693D01*
X90918605Y-93185706D01*
X90918438Y-93185859D01*
X90912206Y-93189222D01*
X90901615Y-93200679D01*
X90901614Y-93200680D01*
X90879511Y-93224591D01*
X90874095Y-93230223D01*
X89993527Y-94110791D01*
X89986743Y-94117263D01*
X89974664Y-94128254D01*
X89960848Y-94137175D01*
X89950665Y-94150092D01*
X89950664Y-94150093D01*
X89939619Y-94164103D01*
X89936953Y-94167365D01*
X89931572Y-94172746D01*
X89922329Y-94185681D01*
X89916711Y-94193163D01*
X89909562Y-94202232D01*
X89888608Y-94228811D01*
X89885807Y-94236787D01*
X89880889Y-94243669D01*
X89876177Y-94259425D01*
X89876176Y-94259427D01*
X89867880Y-94287168D01*
X89864982Y-94296086D01*
X89849945Y-94338906D01*
X89849500Y-94344044D01*
X89849500Y-94348428D01*
X89849495Y-94348451D01*
X89849485Y-94348679D01*
X89847456Y-94355464D01*
X89848069Y-94371061D01*
X89849347Y-94403594D01*
X89849500Y-94411407D01*
X89849500Y-98166236D01*
X89829793Y-98252579D01*
X89784400Y-98309498D01*
X89785602Y-98310700D01*
X89774936Y-98321366D01*
X89774574Y-98321820D01*
X89774232Y-98322070D01*
X89771740Y-98324562D01*
X89755448Y-98335448D01*
X89744562Y-98351740D01*
X89725671Y-98380012D01*
X89711133Y-98401769D01*
X89703916Y-98438053D01*
X89701440Y-98450500D01*
X89699500Y-98460252D01*
X89699500Y-98999748D01*
X89711133Y-99058231D01*
X89722020Y-99074524D01*
X89722022Y-99074529D01*
X89731985Y-99089439D01*
X89763571Y-99172178D01*
X89756128Y-99260428D01*
X89731985Y-99310561D01*
X89722022Y-99325471D01*
X89722020Y-99325476D01*
X89711133Y-99341769D01*
X89707310Y-99360991D01*
X89702733Y-99384001D01*
X89699500Y-99400252D01*
X89699500Y-99939748D01*
X89701408Y-99949338D01*
X89701408Y-99949342D01*
X89703916Y-99961947D01*
X89711133Y-99998231D01*
X89755448Y-100064552D01*
X89771740Y-100075438D01*
X89785602Y-100089300D01*
X89782733Y-100092169D01*
X89819490Y-100131058D01*
X89845698Y-100208752D01*
X89848120Y-100229212D01*
X89849500Y-100252606D01*
X89849500Y-100303431D01*
X89829793Y-100389774D01*
X89774574Y-100459015D01*
X89694782Y-100497442D01*
X89682132Y-100499500D01*
X89680252Y-100499500D01*
X89621769Y-100511133D01*
X89605477Y-100522019D01*
X89605475Y-100522020D01*
X89586149Y-100534934D01*
X89555448Y-100555448D01*
X89544562Y-100571740D01*
X89525345Y-100600500D01*
X89511133Y-100621769D01*
X89507310Y-100640991D01*
X89502974Y-100662789D01*
X89499500Y-100680252D01*
X89499500Y-101719748D01*
X89511133Y-101778231D01*
X89555448Y-101844552D01*
X89571740Y-101855438D01*
X89605475Y-101877980D01*
X89605477Y-101877981D01*
X89621769Y-101888867D01*
X89658053Y-101896084D01*
X89670658Y-101898592D01*
X89670662Y-101898592D01*
X89680252Y-101900500D01*
X90719748Y-101900500D01*
X90729338Y-101898592D01*
X90729342Y-101898592D01*
X90741947Y-101896084D01*
X90778231Y-101888867D01*
X90794523Y-101877981D01*
X90794525Y-101877980D01*
X90828260Y-101855438D01*
X90844552Y-101844552D01*
X90888867Y-101778231D01*
X90900500Y-101719748D01*
X90900500Y-100799500D01*
X90920207Y-100713157D01*
X90975426Y-100643916D01*
X91055218Y-100605489D01*
X91099500Y-100600500D01*
X92025500Y-100600500D01*
X92111843Y-100620207D01*
X92181084Y-100675426D01*
X92219511Y-100755218D01*
X92224500Y-100799500D01*
X92224500Y-100919748D01*
X92236133Y-100978231D01*
X92280448Y-101044552D01*
X92296740Y-101055438D01*
X92330475Y-101077980D01*
X92330477Y-101077981D01*
X92346769Y-101088867D01*
X92383053Y-101096084D01*
X92395658Y-101098592D01*
X92395662Y-101098592D01*
X92405252Y-101100500D01*
X93293101Y-101100500D01*
X93379444Y-101120207D01*
X93433815Y-101158786D01*
X93751971Y-101476942D01*
X93749765Y-101479148D01*
X93753912Y-101482984D01*
X93754575Y-101482269D01*
X93789468Y-101514637D01*
X93794846Y-101519817D01*
X93807277Y-101532248D01*
X93807008Y-101532517D01*
X93810355Y-101536893D01*
X93811791Y-101535345D01*
X93836646Y-101558401D01*
X93853708Y-101565208D01*
X93857211Y-101567423D01*
X93860996Y-101569100D01*
X93876146Y-101579493D01*
X93894024Y-101583736D01*
X93894025Y-101583736D01*
X93894914Y-101583947D01*
X93922709Y-101592737D01*
X93927572Y-101594677D01*
X93927574Y-101594678D01*
X93940622Y-101599883D01*
X93946915Y-101600500D01*
X93951768Y-101600500D01*
X93953437Y-101600581D01*
X93959820Y-101600737D01*
X93967187Y-101601097D01*
X93985066Y-101605340D01*
X94007273Y-101602318D01*
X94034106Y-101600500D01*
X95369735Y-101600500D01*
X95369735Y-101603620D01*
X95375379Y-101603401D01*
X95375342Y-101602425D01*
X95422897Y-101600640D01*
X95430360Y-101600500D01*
X95447948Y-101600500D01*
X95447948Y-101600882D01*
X95453409Y-101601609D01*
X95453330Y-101599498D01*
X95487208Y-101598226D01*
X95504084Y-101590975D01*
X95508129Y-101590064D01*
X95511995Y-101588572D01*
X95530053Y-101585209D01*
X95546481Y-101575083D01*
X95572339Y-101561651D01*
X95577158Y-101559581D01*
X95577160Y-101559580D01*
X95590063Y-101554036D01*
X95594949Y-101550022D01*
X95598390Y-101546581D01*
X95599643Y-101545445D01*
X95604236Y-101541070D01*
X95609706Y-101536110D01*
X95625348Y-101526468D01*
X95638916Y-101508625D01*
X95656607Y-101488364D01*
X96376942Y-100768029D01*
X96379148Y-100770235D01*
X96382984Y-100766088D01*
X96382269Y-100765425D01*
X96414637Y-100730532D01*
X96419817Y-100725154D01*
X96432248Y-100712723D01*
X96432517Y-100712992D01*
X96436893Y-100709645D01*
X96435345Y-100708209D01*
X96445906Y-100696824D01*
X96458401Y-100683354D01*
X96465208Y-100666292D01*
X96467423Y-100662789D01*
X96469100Y-100659004D01*
X96479493Y-100643854D01*
X96483735Y-100625977D01*
X96491179Y-100609179D01*
X96493513Y-100610213D01*
X96520963Y-100554440D01*
X96578538Y-100509327D01*
X96578231Y-100508867D01*
X96584303Y-100504810D01*
X96584305Y-100504808D01*
X96594525Y-100497980D01*
X96617564Y-100482585D01*
X96644552Y-100464552D01*
X96673159Y-100421740D01*
X96677980Y-100414525D01*
X96677981Y-100414523D01*
X96688867Y-100398231D01*
X96692058Y-100382191D01*
X96741660Y-100312281D01*
X96819173Y-100269441D01*
X96907597Y-100264475D01*
X96989419Y-100298366D01*
X97014978Y-100319949D01*
X97041214Y-100346185D01*
X97088333Y-100421173D01*
X97099500Y-100486899D01*
X97099500Y-100900500D01*
X97079793Y-100986843D01*
X97024574Y-101056084D01*
X96944782Y-101094511D01*
X96900500Y-101099500D01*
X96880252Y-101099500D01*
X96870662Y-101101408D01*
X96870658Y-101101408D01*
X96858053Y-101103916D01*
X96821769Y-101111133D01*
X96805477Y-101122019D01*
X96805475Y-101122020D01*
X96779531Y-101139356D01*
X96755448Y-101155448D01*
X96711133Y-101221769D01*
X96707310Y-101240991D01*
X96701675Y-101269320D01*
X96699500Y-101280252D01*
X96699500Y-102319748D01*
X96711133Y-102378231D01*
X96755448Y-102444552D01*
X96771740Y-102455438D01*
X96805475Y-102477980D01*
X96805477Y-102477981D01*
X96821769Y-102488867D01*
X96858053Y-102496084D01*
X96870658Y-102498592D01*
X96870662Y-102498592D01*
X96880252Y-102500500D01*
X97919748Y-102500500D01*
X97929338Y-102498592D01*
X97929342Y-102498592D01*
X97941947Y-102496084D01*
X97978231Y-102488867D01*
X97994523Y-102477981D01*
X97994525Y-102477980D01*
X98028260Y-102455438D01*
X98044552Y-102444552D01*
X98088867Y-102378231D01*
X98100500Y-102319748D01*
X98100500Y-101459917D01*
X98750000Y-101459917D01*
X98751909Y-101479293D01*
X98757780Y-101508810D01*
X98772495Y-101544335D01*
X98794918Y-101577894D01*
X98822106Y-101605082D01*
X98855665Y-101627505D01*
X98891190Y-101642220D01*
X98920707Y-101648091D01*
X98940083Y-101650000D01*
X98977577Y-101650000D01*
X98996547Y-101645670D01*
X99000000Y-101638500D01*
X99000000Y-101627577D01*
X99500000Y-101627577D01*
X99504330Y-101646547D01*
X99511500Y-101650000D01*
X99559917Y-101650000D01*
X99579293Y-101648091D01*
X99608810Y-101642220D01*
X99644335Y-101627505D01*
X99677894Y-101605082D01*
X99705082Y-101577894D01*
X99727505Y-101544335D01*
X99742220Y-101508810D01*
X99748091Y-101479293D01*
X99750000Y-101459917D01*
X99750000Y-101272423D01*
X99745670Y-101253453D01*
X99738500Y-101250000D01*
X99522423Y-101250000D01*
X99503453Y-101254330D01*
X99500000Y-101261500D01*
X99500000Y-101627577D01*
X99000000Y-101627577D01*
X99000000Y-101272423D01*
X98995670Y-101253453D01*
X98988500Y-101250000D01*
X98772423Y-101250000D01*
X98753453Y-101254330D01*
X98750000Y-101261500D01*
X98750000Y-101459917D01*
X98100500Y-101459917D01*
X98100500Y-101280252D01*
X98098326Y-101269320D01*
X98092690Y-101240991D01*
X98088867Y-101221769D01*
X98044552Y-101155448D01*
X98020469Y-101139356D01*
X97994525Y-101122020D01*
X97994523Y-101122019D01*
X97978231Y-101111133D01*
X97941947Y-101103916D01*
X97929342Y-101101408D01*
X97929338Y-101101408D01*
X97919748Y-101099500D01*
X97899500Y-101099500D01*
X97813157Y-101079793D01*
X97743916Y-101024574D01*
X97705489Y-100944782D01*
X97700500Y-100900500D01*
X97700500Y-100330268D01*
X97703621Y-100330268D01*
X97703401Y-100324620D01*
X97702426Y-100324657D01*
X97701687Y-100304971D01*
X97702808Y-100299041D01*
X97704421Y-100288120D01*
X97704861Y-100288185D01*
X97718141Y-100217950D01*
X97770723Y-100146685D01*
X97849019Y-100105293D01*
X97904251Y-100101807D01*
X97904301Y-100098617D01*
X98061711Y-100101090D01*
X98061715Y-100101090D01*
X98073707Y-100101278D01*
X98238858Y-100063454D01*
X98336142Y-100014525D01*
X98379501Y-99992718D01*
X98379503Y-99992716D01*
X98390219Y-99987327D01*
X98399340Y-99979537D01*
X98399343Y-99979535D01*
X98509931Y-99885083D01*
X98519052Y-99877293D01*
X98542599Y-99844525D01*
X98610920Y-99749446D01*
X98610921Y-99749444D01*
X98617920Y-99739704D01*
X98622394Y-99728575D01*
X98626616Y-99720895D01*
X98685482Y-99654726D01*
X98767228Y-99620652D01*
X98855662Y-99625420D01*
X98933271Y-99668086D01*
X98984681Y-99740200D01*
X99000000Y-99816765D01*
X99000000Y-100000000D01*
X99006381Y-100000000D01*
X99029142Y-100028540D01*
X99034946Y-100033169D01*
X99073369Y-100112963D01*
X99073365Y-100201527D01*
X99034935Y-100281318D01*
X98965690Y-100336533D01*
X98918177Y-100352413D01*
X98891185Y-100357782D01*
X98855665Y-100372495D01*
X98822106Y-100394918D01*
X98794918Y-100422106D01*
X98772495Y-100455665D01*
X98757780Y-100491190D01*
X98751909Y-100520707D01*
X98750000Y-100540083D01*
X98750000Y-100727577D01*
X98754330Y-100746547D01*
X98761500Y-100750000D01*
X99727577Y-100750000D01*
X99746547Y-100745670D01*
X99750000Y-100738500D01*
X99750000Y-100540083D01*
X99748091Y-100520707D01*
X99742220Y-100491190D01*
X99727505Y-100455665D01*
X99705082Y-100422106D01*
X99677897Y-100394921D01*
X99632313Y-100364463D01*
X99571470Y-100300107D01*
X99544575Y-100215727D01*
X99556955Y-100128033D01*
X99606158Y-100054395D01*
X99682439Y-100009398D01*
X99742871Y-100000000D01*
X100144220Y-100000000D01*
X100230563Y-100019707D01*
X100284934Y-100058286D01*
X100330761Y-100104113D01*
X100377880Y-100179101D01*
X100387796Y-100267108D01*
X100358545Y-100350701D01*
X100330761Y-100385541D01*
X100321740Y-100394562D01*
X100305448Y-100405448D01*
X100294562Y-100421740D01*
X100274678Y-100451498D01*
X100261133Y-100471769D01*
X100255886Y-100498148D01*
X100251440Y-100520500D01*
X100249500Y-100530252D01*
X100249500Y-101469748D01*
X100251408Y-101479338D01*
X100251408Y-101479342D01*
X100252133Y-101482984D01*
X100261133Y-101528231D01*
X100272019Y-101544523D01*
X100272020Y-101544525D01*
X100281292Y-101558401D01*
X100305448Y-101594552D01*
X100321740Y-101605438D01*
X100355475Y-101627980D01*
X100355477Y-101627981D01*
X100371769Y-101638867D01*
X100405970Y-101645670D01*
X100420658Y-101648592D01*
X100420662Y-101648592D01*
X100430252Y-101650500D01*
X101069748Y-101650500D01*
X101079338Y-101648592D01*
X101079342Y-101648592D01*
X101094030Y-101645670D01*
X101128231Y-101638867D01*
X101144523Y-101627981D01*
X101144525Y-101627980D01*
X101178260Y-101605438D01*
X101194552Y-101594552D01*
X101218708Y-101558401D01*
X101227980Y-101544525D01*
X101227981Y-101544523D01*
X101238867Y-101528231D01*
X101242690Y-101509010D01*
X101250191Y-101490901D01*
X101251048Y-101491256D01*
X101278534Y-101429835D01*
X101346200Y-101372698D01*
X101437535Y-101350500D01*
X102341525Y-101350500D01*
X102350901Y-101350721D01*
X102367180Y-101351489D01*
X102383261Y-101354951D01*
X102399593Y-101353018D01*
X102399594Y-101353018D01*
X102417294Y-101350923D01*
X102421505Y-101350500D01*
X102429115Y-101350500D01*
X102437213Y-101349152D01*
X102437215Y-101349152D01*
X102444785Y-101347892D01*
X102454065Y-101346571D01*
X102499138Y-101341236D01*
X102506758Y-101337577D01*
X102515103Y-101336188D01*
X102555086Y-101314614D01*
X102563390Y-101310383D01*
X102604326Y-101290726D01*
X102608274Y-101287408D01*
X102611371Y-101284311D01*
X102611385Y-101284302D01*
X102611559Y-101284142D01*
X102617794Y-101280778D01*
X102642243Y-101254330D01*
X102650489Y-101245409D01*
X102655905Y-101239777D01*
X103306473Y-100589209D01*
X103313257Y-100582737D01*
X103325336Y-100571746D01*
X103339152Y-100562825D01*
X103349336Y-100549907D01*
X103360381Y-100535897D01*
X103363047Y-100532635D01*
X103368428Y-100527254D01*
X103377671Y-100514319D01*
X103383289Y-100506837D01*
X103401209Y-100484106D01*
X103411392Y-100471189D01*
X103414193Y-100463213D01*
X103419111Y-100456331D01*
X103423823Y-100440576D01*
X103423825Y-100440571D01*
X103432118Y-100412840D01*
X103435014Y-100403925D01*
X103435962Y-100401225D01*
X103450055Y-100361094D01*
X103450500Y-100355956D01*
X103450500Y-100351572D01*
X103450505Y-100351549D01*
X103450515Y-100351319D01*
X103452543Y-100344537D01*
X103451798Y-100325549D01*
X103450653Y-100296422D01*
X103450500Y-100288611D01*
X103450500Y-98258498D01*
X103450721Y-98249125D01*
X103451490Y-98232821D01*
X103454952Y-98216740D01*
X103450922Y-98182694D01*
X103450500Y-98178491D01*
X103450500Y-98170885D01*
X103447895Y-98155235D01*
X103446572Y-98145945D01*
X103443169Y-98117192D01*
X103443169Y-98117191D01*
X103441236Y-98100862D01*
X103437577Y-98093242D01*
X103436188Y-98084897D01*
X103414614Y-98044914D01*
X103410383Y-98036610D01*
X103390726Y-97995674D01*
X103387408Y-97991726D01*
X103384311Y-97988629D01*
X103384302Y-97988615D01*
X103384142Y-97988441D01*
X103380778Y-97982206D01*
X103345409Y-97949511D01*
X103339777Y-97944095D01*
X101835896Y-96440214D01*
X101788777Y-96365226D01*
X101778861Y-96277219D01*
X101808112Y-96193626D01*
X101870736Y-96131002D01*
X101954329Y-96101751D01*
X101976610Y-96100500D01*
X104369748Y-96100500D01*
X104379338Y-96098592D01*
X104379342Y-96098592D01*
X104391947Y-96096084D01*
X104428231Y-96088867D01*
X104444523Y-96077981D01*
X104444525Y-96077980D01*
X104478260Y-96055438D01*
X104494552Y-96044552D01*
X104517358Y-96010421D01*
X104527980Y-95994525D01*
X104527981Y-95994523D01*
X104538867Y-95978231D01*
X104550500Y-95919748D01*
X104550500Y-95080252D01*
X104548546Y-95070426D01*
X104545566Y-95055448D01*
X104538867Y-95021769D01*
X104494552Y-94955448D01*
X104470469Y-94939356D01*
X104444525Y-94922020D01*
X104444523Y-94922019D01*
X104428231Y-94911133D01*
X104389621Y-94903453D01*
X104379342Y-94901408D01*
X104379338Y-94901408D01*
X104369748Y-94899500D01*
X101690252Y-94899500D01*
X101680662Y-94901408D01*
X101680658Y-94901408D01*
X101670379Y-94903453D01*
X101631769Y-94911133D01*
X101615477Y-94922019D01*
X101615475Y-94922020D01*
X101589531Y-94939356D01*
X101581427Y-94944771D01*
X101581419Y-94944776D01*
X101565448Y-94955448D01*
X101565149Y-94955000D01*
X101506718Y-94991715D01*
X101418711Y-95001631D01*
X101335118Y-94972380D01*
X101300278Y-94944596D01*
X100286913Y-93931231D01*
X104900129Y-93931231D01*
X104901909Y-93949293D01*
X104907780Y-93978810D01*
X104922495Y-94014335D01*
X104944918Y-94047894D01*
X104972106Y-94075082D01*
X105005665Y-94097505D01*
X105041190Y-94112220D01*
X105070707Y-94118091D01*
X105090083Y-94120000D01*
X105127577Y-94120000D01*
X105146547Y-94115670D01*
X105150000Y-94108500D01*
X105150000Y-94097577D01*
X105650000Y-94097577D01*
X105654330Y-94116547D01*
X105661500Y-94120000D01*
X105709917Y-94120000D01*
X105729293Y-94118091D01*
X105758810Y-94112220D01*
X105794335Y-94097505D01*
X105827894Y-94075082D01*
X105855082Y-94047894D01*
X105877505Y-94014335D01*
X105892220Y-93978810D01*
X105898091Y-93949293D01*
X105899140Y-93938652D01*
X105895670Y-93923453D01*
X105888500Y-93920000D01*
X105672423Y-93920000D01*
X105653453Y-93924330D01*
X105650000Y-93931500D01*
X105650000Y-94097577D01*
X105150000Y-94097577D01*
X105150000Y-93942423D01*
X105145670Y-93923453D01*
X105138500Y-93920000D01*
X104922423Y-93920000D01*
X104903453Y-93924330D01*
X104900129Y-93931231D01*
X100286913Y-93931231D01*
X99966396Y-93610714D01*
X99919277Y-93535726D01*
X99909361Y-93447719D01*
X99938612Y-93364126D01*
X99966396Y-93329286D01*
X100612431Y-92683251D01*
X100687419Y-92636132D01*
X100775426Y-92626216D01*
X100859019Y-92655467D01*
X100893859Y-92683251D01*
X101111658Y-92901050D01*
X101125612Y-92908160D01*
X101126138Y-92908428D01*
X101152762Y-92924744D01*
X101165910Y-92934296D01*
X101181365Y-92939317D01*
X101210221Y-92951271D01*
X101224696Y-92958646D01*
X101240323Y-92961121D01*
X101240750Y-92961189D01*
X101271115Y-92968479D01*
X101286567Y-92973499D01*
X101318477Y-92973499D01*
X101318481Y-92973500D01*
X101436236Y-92973500D01*
X101522579Y-92993207D01*
X101579498Y-93038600D01*
X101580700Y-93037398D01*
X101591366Y-93048064D01*
X101591820Y-93048426D01*
X101592070Y-93048768D01*
X101594562Y-93051260D01*
X101605448Y-93067552D01*
X101621740Y-93078438D01*
X101655475Y-93100980D01*
X101655477Y-93100981D01*
X101671769Y-93111867D01*
X101708031Y-93119080D01*
X101720658Y-93121592D01*
X101720662Y-93121592D01*
X101730252Y-93123500D01*
X104369748Y-93123500D01*
X104379338Y-93121592D01*
X104379342Y-93121592D01*
X104391969Y-93119080D01*
X104428231Y-93111867D01*
X104444523Y-93100981D01*
X104444525Y-93100980D01*
X104478260Y-93078438D01*
X104494552Y-93067552D01*
X104505438Y-93051260D01*
X104519300Y-93037398D01*
X104521711Y-93039809D01*
X104562661Y-93001097D01*
X104647042Y-92974204D01*
X104663764Y-92973500D01*
X104748149Y-92973500D01*
X104834492Y-92993207D01*
X104903733Y-93048426D01*
X104913609Y-93061938D01*
X104932286Y-93089889D01*
X104963872Y-93172629D01*
X104956429Y-93260879D01*
X104932287Y-93311011D01*
X104922494Y-93325667D01*
X104907780Y-93361190D01*
X104901909Y-93390707D01*
X104900860Y-93401348D01*
X104904330Y-93416547D01*
X104911500Y-93420000D01*
X105877577Y-93420000D01*
X105896547Y-93415670D01*
X105899871Y-93408769D01*
X105898091Y-93390707D01*
X105892220Y-93361190D01*
X105877506Y-93325667D01*
X105867713Y-93311011D01*
X105836128Y-93228272D01*
X105843571Y-93140022D01*
X105867713Y-93089891D01*
X105877978Y-93074529D01*
X105877980Y-93074524D01*
X105888867Y-93058231D01*
X105900500Y-92999748D01*
X105900500Y-92460252D01*
X105888867Y-92401769D01*
X105844552Y-92335448D01*
X105820469Y-92319356D01*
X105794525Y-92302020D01*
X105794523Y-92302019D01*
X105778231Y-92291133D01*
X105741947Y-92283916D01*
X105729342Y-92281408D01*
X105729338Y-92281408D01*
X105719748Y-92279500D01*
X105589386Y-92279500D01*
X105503043Y-92259793D01*
X105486005Y-92249613D01*
X105481342Y-92244950D01*
X105466867Y-92237575D01*
X105440242Y-92221260D01*
X105427090Y-92211704D01*
X105427089Y-92211704D01*
X105427088Y-92211703D01*
X105429413Y-92208504D01*
X105383360Y-92170060D01*
X105346730Y-92089427D01*
X105348713Y-92000885D01*
X105388917Y-91921973D01*
X105459377Y-91868319D01*
X105541684Y-91850500D01*
X105569748Y-91850500D01*
X105579338Y-91848592D01*
X105579342Y-91848592D01*
X105594030Y-91845670D01*
X105628231Y-91838867D01*
X105644523Y-91827981D01*
X105644525Y-91827980D01*
X105678260Y-91805438D01*
X105694552Y-91794552D01*
X105710644Y-91770469D01*
X105727980Y-91744525D01*
X105727981Y-91744523D01*
X105738867Y-91728231D01*
X105750500Y-91669748D01*
X105750500Y-91659917D01*
X106250000Y-91659917D01*
X106251909Y-91679293D01*
X106257780Y-91708810D01*
X106272495Y-91744335D01*
X106294918Y-91777894D01*
X106322106Y-91805082D01*
X106355665Y-91827505D01*
X106391190Y-91842220D01*
X106420707Y-91848091D01*
X106440083Y-91850000D01*
X106477577Y-91850000D01*
X106496547Y-91845670D01*
X106500000Y-91838500D01*
X106500000Y-91827577D01*
X107000000Y-91827577D01*
X107004330Y-91846547D01*
X107011500Y-91850000D01*
X107059917Y-91850000D01*
X107079293Y-91848091D01*
X107108810Y-91842220D01*
X107144335Y-91827505D01*
X107177894Y-91805082D01*
X107205082Y-91777894D01*
X107227505Y-91744335D01*
X107242220Y-91708810D01*
X107248091Y-91679293D01*
X107250000Y-91659917D01*
X107250000Y-91472423D01*
X107245670Y-91453453D01*
X107238500Y-91450000D01*
X107022423Y-91450000D01*
X107003453Y-91454330D01*
X107000000Y-91461500D01*
X107000000Y-91827577D01*
X106500000Y-91827577D01*
X106500000Y-91472423D01*
X106495670Y-91453453D01*
X106488500Y-91450000D01*
X106272423Y-91450000D01*
X106253453Y-91454330D01*
X106250000Y-91461500D01*
X106250000Y-91659917D01*
X105750500Y-91659917D01*
X105750500Y-90927577D01*
X106250000Y-90927577D01*
X106254330Y-90946547D01*
X106261500Y-90950000D01*
X106477577Y-90950000D01*
X106496547Y-90945670D01*
X106500000Y-90938500D01*
X106500000Y-90927577D01*
X107000000Y-90927577D01*
X107004330Y-90946547D01*
X107011500Y-90950000D01*
X107227577Y-90950000D01*
X107271712Y-90939927D01*
X107308380Y-90922268D01*
X107372167Y-90918236D01*
X107390079Y-90920000D01*
X107427577Y-90920000D01*
X107446547Y-90915670D01*
X107450000Y-90908500D01*
X107450000Y-90897577D01*
X107950000Y-90897577D01*
X107954330Y-90916547D01*
X107961500Y-90920000D01*
X108009917Y-90920000D01*
X108029293Y-90918091D01*
X108058810Y-90912220D01*
X108094335Y-90897505D01*
X108127894Y-90875082D01*
X108155082Y-90847894D01*
X108177505Y-90814335D01*
X108192220Y-90778810D01*
X108198091Y-90749293D01*
X108199140Y-90738652D01*
X108195670Y-90723453D01*
X108188500Y-90720000D01*
X107972423Y-90720000D01*
X107953453Y-90724330D01*
X107950000Y-90731500D01*
X107950000Y-90897577D01*
X107450000Y-90897577D01*
X107450000Y-90742423D01*
X107445670Y-90723453D01*
X107438500Y-90720000D01*
X107344858Y-90720000D01*
X107258515Y-90700293D01*
X107189274Y-90645074D01*
X107168118Y-90601143D01*
X107128491Y-90551454D01*
X107129786Y-90550422D01*
X107117324Y-90536076D01*
X107056321Y-90550000D01*
X107022423Y-90550000D01*
X107003453Y-90554330D01*
X107000000Y-90561500D01*
X107000000Y-90927577D01*
X106500000Y-90927577D01*
X106500000Y-90572423D01*
X106495670Y-90553453D01*
X106488500Y-90550000D01*
X106440083Y-90550000D01*
X106420707Y-90551909D01*
X106391190Y-90557780D01*
X106355665Y-90572495D01*
X106322106Y-90594918D01*
X106294918Y-90622106D01*
X106272495Y-90655665D01*
X106257780Y-90691190D01*
X106251909Y-90720707D01*
X106250000Y-90740083D01*
X106250000Y-90927577D01*
X105750500Y-90927577D01*
X105750500Y-90730252D01*
X105748362Y-90719500D01*
X105742690Y-90690991D01*
X105738867Y-90671769D01*
X105694552Y-90605448D01*
X105656623Y-90580104D01*
X105644525Y-90572020D01*
X105644523Y-90572019D01*
X105628231Y-90561133D01*
X105589621Y-90553453D01*
X105579342Y-90551408D01*
X105579338Y-90551408D01*
X105569748Y-90549500D01*
X104930252Y-90549500D01*
X104920662Y-90551408D01*
X104920658Y-90551408D01*
X104910379Y-90553453D01*
X104871769Y-90561133D01*
X104855474Y-90572021D01*
X104837362Y-90579523D01*
X104837046Y-90578761D01*
X104773760Y-90602918D01*
X104685510Y-90595474D01*
X104609229Y-90550477D01*
X104560026Y-90476839D01*
X104547900Y-90386366D01*
X104548592Y-90379340D01*
X104550500Y-90369748D01*
X104550500Y-89630252D01*
X104548592Y-89620658D01*
X104547900Y-89613634D01*
X104559049Y-89525775D01*
X104607215Y-89451455D01*
X104682857Y-89405392D01*
X104770994Y-89396711D01*
X104836990Y-89421374D01*
X104837362Y-89420477D01*
X104855474Y-89427979D01*
X104871769Y-89438867D01*
X104908053Y-89446084D01*
X104920658Y-89448592D01*
X104920662Y-89448592D01*
X104930252Y-89450500D01*
X105569748Y-89450500D01*
X105579338Y-89448592D01*
X105579342Y-89448592D01*
X105591947Y-89446084D01*
X105628231Y-89438867D01*
X105644523Y-89427981D01*
X105644525Y-89427980D01*
X105678260Y-89405438D01*
X105694552Y-89394552D01*
X105738867Y-89328231D01*
X105747899Y-89282824D01*
X105748592Y-89279342D01*
X105748592Y-89279338D01*
X105750500Y-89269748D01*
X105750500Y-88330252D01*
X105745937Y-88307310D01*
X105742160Y-88288322D01*
X105744644Y-88199794D01*
X105785293Y-88121110D01*
X105856056Y-88067856D01*
X105937336Y-88050500D01*
X106062664Y-88050500D01*
X106149007Y-88070207D01*
X106218248Y-88125426D01*
X106256675Y-88205218D01*
X106257840Y-88288322D01*
X106254063Y-88307310D01*
X106249500Y-88330252D01*
X106249500Y-89269748D01*
X106251408Y-89279338D01*
X106251408Y-89279342D01*
X106252101Y-89282824D01*
X106261133Y-89328231D01*
X106305448Y-89394552D01*
X106321740Y-89405438D01*
X106355475Y-89427980D01*
X106355477Y-89427981D01*
X106371769Y-89438867D01*
X106408053Y-89446084D01*
X106420658Y-89448592D01*
X106420662Y-89448592D01*
X106430252Y-89450500D01*
X106971679Y-89450500D01*
X107058022Y-89470207D01*
X107112393Y-89508786D01*
X107141214Y-89537607D01*
X107188333Y-89612595D01*
X107199500Y-89678321D01*
X107199500Y-89799748D01*
X107211133Y-89858231D01*
X107222020Y-89874524D01*
X107222022Y-89874529D01*
X107232287Y-89889891D01*
X107263872Y-89972631D01*
X107256429Y-90060881D01*
X107232287Y-90111011D01*
X107222494Y-90125667D01*
X107207780Y-90161190D01*
X107201909Y-90190707D01*
X107200860Y-90201348D01*
X107204611Y-90217779D01*
X107211903Y-90226923D01*
X107213643Y-90230536D01*
X107220221Y-90227020D01*
X107272612Y-90220000D01*
X108177577Y-90220000D01*
X108196547Y-90215670D01*
X108199871Y-90208769D01*
X108198091Y-90190707D01*
X108192220Y-90161190D01*
X108177506Y-90125667D01*
X108167713Y-90111011D01*
X108136128Y-90028272D01*
X108143571Y-89940022D01*
X108167713Y-89889891D01*
X108177978Y-89874529D01*
X108177980Y-89874524D01*
X108188867Y-89858231D01*
X108200500Y-89799748D01*
X108200500Y-89260252D01*
X108188867Y-89201769D01*
X108175177Y-89181280D01*
X108155438Y-89151740D01*
X108144552Y-89135448D01*
X108119842Y-89118937D01*
X108094525Y-89102020D01*
X108094523Y-89102019D01*
X108078231Y-89091133D01*
X108041947Y-89083916D01*
X108029342Y-89081408D01*
X108029338Y-89081408D01*
X108019748Y-89079500D01*
X107898321Y-89079500D01*
X107811978Y-89059793D01*
X107757607Y-89021214D01*
X107308786Y-88572393D01*
X107261667Y-88497405D01*
X107250500Y-88431679D01*
X107250500Y-88330252D01*
X107238867Y-88271769D01*
X107225484Y-88251740D01*
X107221847Y-88246296D01*
X107190263Y-88163556D01*
X107197706Y-88075306D01*
X107242703Y-87999025D01*
X107316341Y-87949822D01*
X107325802Y-87946481D01*
X107328879Y-87945481D01*
X107359257Y-87938187D01*
X107375304Y-87935646D01*
X107389258Y-87928536D01*
X107389261Y-87928535D01*
X107389784Y-87928268D01*
X107418634Y-87916318D01*
X107419191Y-87916137D01*
X107434090Y-87911296D01*
X107447242Y-87901740D01*
X107473869Y-87885424D01*
X107488342Y-87878050D01*
X107510905Y-87855487D01*
X107510909Y-87855484D01*
X107907606Y-87458786D01*
X107982594Y-87411667D01*
X108048320Y-87400500D01*
X112151679Y-87400500D01*
X112238022Y-87420207D01*
X112292393Y-87458786D01*
X112793393Y-87959786D01*
X112840512Y-88034774D01*
X112850428Y-88122781D01*
X112821177Y-88206374D01*
X112758553Y-88268998D01*
X112674960Y-88298249D01*
X112652679Y-88299500D01*
X112180252Y-88299500D01*
X112170662Y-88301408D01*
X112170658Y-88301408D01*
X112158053Y-88303916D01*
X112121769Y-88311133D01*
X112105477Y-88322019D01*
X112105475Y-88322020D01*
X112079531Y-88339356D01*
X112055448Y-88355448D01*
X112044562Y-88371740D01*
X112024497Y-88401769D01*
X112011133Y-88421769D01*
X112007310Y-88440991D01*
X112001533Y-88470033D01*
X111999500Y-88480252D01*
X111999500Y-89469748D01*
X112011133Y-89528231D01*
X112055448Y-89594552D01*
X112071740Y-89605438D01*
X112105475Y-89627980D01*
X112105477Y-89627981D01*
X112121769Y-89638867D01*
X112158053Y-89646084D01*
X112170658Y-89648592D01*
X112170662Y-89648592D01*
X112180252Y-89650500D01*
X113319748Y-89650500D01*
X113329338Y-89648592D01*
X113329342Y-89648592D01*
X113341947Y-89646084D01*
X113378231Y-89638867D01*
X113394526Y-89627979D01*
X113412638Y-89620477D01*
X113413370Y-89622243D01*
X113472177Y-89599794D01*
X113560427Y-89607235D01*
X113591379Y-89622141D01*
X113605475Y-89627979D01*
X113621769Y-89638867D01*
X113658053Y-89646084D01*
X113670658Y-89648592D01*
X113670662Y-89648592D01*
X113680252Y-89650500D01*
X114819748Y-89650500D01*
X114829338Y-89648592D01*
X114829342Y-89648592D01*
X114841947Y-89646084D01*
X114878231Y-89638867D01*
X114894523Y-89627981D01*
X114894525Y-89627980D01*
X114928260Y-89605438D01*
X114944552Y-89594552D01*
X114988867Y-89528231D01*
X115000500Y-89469748D01*
X115000500Y-88480252D01*
X114998468Y-88470033D01*
X114992690Y-88440991D01*
X114988867Y-88421769D01*
X114975504Y-88401769D01*
X114955438Y-88371740D01*
X114944552Y-88355448D01*
X114920469Y-88339356D01*
X114894525Y-88322020D01*
X114894523Y-88322019D01*
X114878231Y-88311133D01*
X114841947Y-88303916D01*
X114829342Y-88301408D01*
X114829338Y-88301408D01*
X114819748Y-88299500D01*
X114348321Y-88299500D01*
X114261978Y-88279793D01*
X114207607Y-88241214D01*
X112660909Y-86694516D01*
X112660905Y-86694513D01*
X112638342Y-86671950D01*
X112623867Y-86664575D01*
X112597242Y-86648260D01*
X112584090Y-86638704D01*
X112568634Y-86633682D01*
X112539784Y-86621732D01*
X112539261Y-86621465D01*
X112539258Y-86621464D01*
X112525304Y-86614354D01*
X112509257Y-86611813D01*
X112478890Y-86604522D01*
X112463433Y-86599500D01*
X108399500Y-86599500D01*
X108313157Y-86579793D01*
X108243916Y-86524574D01*
X108205489Y-86444782D01*
X108200500Y-86400500D01*
X108200500Y-83670544D01*
X108220207Y-83584201D01*
X108275426Y-83514960D01*
X108355218Y-83476533D01*
X108443782Y-83476533D01*
X108523574Y-83514960D01*
X108540214Y-83529830D01*
X110252145Y-85241761D01*
X110262335Y-85254177D01*
X110270490Y-85262332D01*
X110281376Y-85278624D01*
X110304377Y-85293993D01*
X110304378Y-85293994D01*
X110334114Y-85313863D01*
X110372505Y-85339515D01*
X110391728Y-85343339D01*
X110391729Y-85343339D01*
X110445744Y-85354083D01*
X110480000Y-85360897D01*
X110499224Y-85357073D01*
X110510762Y-85357073D01*
X110526732Y-85355500D01*
X126779551Y-85355500D01*
X126865894Y-85375207D01*
X126935135Y-85430426D01*
X126957543Y-85469100D01*
X126958544Y-85468586D01*
X127048038Y-85642723D01*
X127052712Y-85651818D01*
X127058759Y-85659447D01*
X127058760Y-85659449D01*
X127174628Y-85805639D01*
X127174632Y-85805643D01*
X127180677Y-85813270D01*
X127337564Y-85946791D01*
X127346057Y-85951538D01*
X127346062Y-85951541D01*
X127381342Y-85971258D01*
X127517398Y-86047297D01*
X127526653Y-86050304D01*
X127526655Y-86050305D01*
X127704070Y-86107951D01*
X127704074Y-86107952D01*
X127713329Y-86110959D01*
X127722993Y-86112111D01*
X127722996Y-86112112D01*
X127908232Y-86134199D01*
X127908233Y-86134199D01*
X127917894Y-86135351D01*
X127927590Y-86134605D01*
X127927592Y-86134605D01*
X127988037Y-86129954D01*
X128123300Y-86119546D01*
X128321725Y-86064145D01*
X128330404Y-86059761D01*
X128330409Y-86059759D01*
X128496929Y-85975643D01*
X128496928Y-85975643D01*
X128505610Y-85971258D01*
X128667951Y-85844424D01*
X128774740Y-85720707D01*
X128796208Y-85695836D01*
X128796210Y-85695834D01*
X128802564Y-85688472D01*
X128904323Y-85509344D01*
X128917711Y-85469100D01*
X128966279Y-85323098D01*
X128966279Y-85323097D01*
X128969351Y-85313863D01*
X128995171Y-85109474D01*
X128995297Y-85100500D01*
X128995505Y-85085549D01*
X128995583Y-85080000D01*
X128992108Y-85044552D01*
X128976430Y-84884661D01*
X128975480Y-84874970D01*
X128915935Y-84677749D01*
X128904178Y-84655636D01*
X128823787Y-84504443D01*
X128819218Y-84495849D01*
X128809253Y-84483630D01*
X128695163Y-84343743D01*
X128689011Y-84336200D01*
X128530275Y-84204882D01*
X128349055Y-84106897D01*
X128339757Y-84104019D01*
X128339755Y-84104018D01*
X128250654Y-84076437D01*
X128152254Y-84045977D01*
X127988376Y-84028753D01*
X127957046Y-84025460D01*
X127957045Y-84025460D01*
X127947369Y-84024443D01*
X127742203Y-84043114D01*
X127732864Y-84045863D01*
X127732862Y-84045863D01*
X127553918Y-84098529D01*
X127553915Y-84098530D01*
X127544572Y-84101280D01*
X127535941Y-84105792D01*
X127535939Y-84105793D01*
X127524971Y-84111527D01*
X127362002Y-84196726D01*
X127309525Y-84238919D01*
X127209028Y-84319719D01*
X127209024Y-84319723D01*
X127201447Y-84325815D01*
X127195194Y-84333267D01*
X127195193Y-84333268D01*
X127171650Y-84361326D01*
X127069024Y-84483630D01*
X126969776Y-84664162D01*
X126966835Y-84673435D01*
X126962998Y-84682386D01*
X126960179Y-84681178D01*
X126924405Y-84742014D01*
X126850835Y-84791318D01*
X126779612Y-84804500D01*
X110676544Y-84804500D01*
X110590201Y-84784793D01*
X110535830Y-84746214D01*
X108314878Y-82525262D01*
X126884520Y-82525262D01*
X126891833Y-82612354D01*
X126900290Y-82713056D01*
X126901759Y-82730553D01*
X126904441Y-82739908D01*
X126904442Y-82739911D01*
X126943307Y-82875448D01*
X126958544Y-82928586D01*
X126962991Y-82937239D01*
X127044025Y-83094914D01*
X127052712Y-83111818D01*
X127058759Y-83119447D01*
X127058760Y-83119449D01*
X127174628Y-83265639D01*
X127174632Y-83265643D01*
X127180677Y-83273270D01*
X127188090Y-83279579D01*
X127188091Y-83279580D01*
X127330152Y-83400483D01*
X127337564Y-83406791D01*
X127346057Y-83411538D01*
X127346062Y-83411541D01*
X127389188Y-83435643D01*
X127517398Y-83507297D01*
X127526653Y-83510304D01*
X127526655Y-83510305D01*
X127704070Y-83567951D01*
X127704074Y-83567952D01*
X127713329Y-83570959D01*
X127722993Y-83572111D01*
X127722996Y-83572112D01*
X127908232Y-83594199D01*
X127908233Y-83594199D01*
X127917894Y-83595351D01*
X127927590Y-83594605D01*
X127927592Y-83594605D01*
X127988037Y-83589954D01*
X128123300Y-83579546D01*
X128321725Y-83524145D01*
X128330404Y-83519761D01*
X128330409Y-83519759D01*
X128496929Y-83435643D01*
X128496928Y-83435643D01*
X128505610Y-83431258D01*
X128667951Y-83304424D01*
X128738468Y-83222729D01*
X128796208Y-83155836D01*
X128796210Y-83155834D01*
X128802564Y-83148472D01*
X128904323Y-82969344D01*
X128917882Y-82928586D01*
X128966279Y-82783098D01*
X128966279Y-82783097D01*
X128969351Y-82773863D01*
X128995171Y-82569474D01*
X128995583Y-82540000D01*
X128975480Y-82334970D01*
X128915935Y-82137749D01*
X128910875Y-82128231D01*
X128857921Y-82028640D01*
X128819218Y-81955849D01*
X128809253Y-81943630D01*
X128695163Y-81803743D01*
X128689011Y-81796200D01*
X128631187Y-81748364D01*
X128537776Y-81671087D01*
X128537774Y-81671085D01*
X128530275Y-81664882D01*
X128349055Y-81566897D01*
X128339757Y-81564019D01*
X128339755Y-81564018D01*
X128250655Y-81536437D01*
X128152254Y-81505977D01*
X127988376Y-81488753D01*
X127957046Y-81485460D01*
X127957045Y-81485460D01*
X127947369Y-81484443D01*
X127742203Y-81503114D01*
X127732864Y-81505863D01*
X127732862Y-81505863D01*
X127553918Y-81558529D01*
X127553915Y-81558530D01*
X127544572Y-81561280D01*
X127535941Y-81565792D01*
X127535939Y-81565793D01*
X127524971Y-81571527D01*
X127362002Y-81656726D01*
X127310952Y-81697771D01*
X127209028Y-81779719D01*
X127209024Y-81779723D01*
X127201447Y-81785815D01*
X127195194Y-81793267D01*
X127195193Y-81793268D01*
X127182988Y-81807813D01*
X127069024Y-81943630D01*
X126969776Y-82124162D01*
X126966834Y-82133437D01*
X126966833Y-82133439D01*
X126919028Y-82284142D01*
X126907484Y-82320532D01*
X126906400Y-82330196D01*
X126906399Y-82330201D01*
X126885605Y-82515587D01*
X126884520Y-82525262D01*
X108314878Y-82525262D01*
X106659364Y-80869748D01*
X126889500Y-80869748D01*
X126901133Y-80928231D01*
X126945448Y-80994552D01*
X126961740Y-81005438D01*
X126995475Y-81027980D01*
X126995477Y-81027981D01*
X127011769Y-81038867D01*
X127048053Y-81046084D01*
X127060658Y-81048592D01*
X127060662Y-81048592D01*
X127070252Y-81050500D01*
X128809748Y-81050500D01*
X128819338Y-81048592D01*
X128819342Y-81048592D01*
X128831947Y-81046084D01*
X128868231Y-81038867D01*
X128884523Y-81027981D01*
X128884525Y-81027980D01*
X128918260Y-81005438D01*
X128934552Y-80994552D01*
X128978867Y-80928231D01*
X128990500Y-80869748D01*
X128990500Y-79130252D01*
X128987159Y-79113453D01*
X128982690Y-79090991D01*
X128978867Y-79071769D01*
X128958302Y-79040991D01*
X128950644Y-79029531D01*
X128934552Y-79005448D01*
X128889001Y-78975011D01*
X128884525Y-78972020D01*
X128884523Y-78972019D01*
X128868231Y-78961133D01*
X128831947Y-78953916D01*
X128819342Y-78951408D01*
X128819338Y-78951408D01*
X128809748Y-78949500D01*
X127070252Y-78949500D01*
X127060662Y-78951408D01*
X127060658Y-78951408D01*
X127048053Y-78953916D01*
X127011769Y-78961133D01*
X126995477Y-78972019D01*
X126995475Y-78972020D01*
X126990999Y-78975011D01*
X126945448Y-79005448D01*
X126929356Y-79029531D01*
X126921699Y-79040991D01*
X126901133Y-79071769D01*
X126897310Y-79090991D01*
X126892842Y-79113453D01*
X126889500Y-79130252D01*
X126889500Y-80869748D01*
X106659364Y-80869748D01*
X106627855Y-80838239D01*
X106617665Y-80825823D01*
X106609510Y-80817668D01*
X106598624Y-80801376D01*
X106575623Y-80786007D01*
X106575622Y-80786006D01*
X106540450Y-80762505D01*
X106507495Y-80740485D01*
X106488271Y-80736661D01*
X106427133Y-80724500D01*
X106419225Y-80722927D01*
X106419224Y-80722927D01*
X106400000Y-80719103D01*
X106380776Y-80722927D01*
X106369238Y-80722927D01*
X106353268Y-80724500D01*
X105899500Y-80724500D01*
X105813157Y-80704793D01*
X105743916Y-80649574D01*
X105705489Y-80569782D01*
X105700500Y-80525500D01*
X105700500Y-80260252D01*
X105688867Y-80201769D01*
X105681962Y-80191436D01*
X105668181Y-80110319D01*
X105676727Y-80064018D01*
X105681710Y-80053733D01*
X105705496Y-79912354D01*
X105705647Y-79900000D01*
X105693424Y-79814649D01*
X105687333Y-79772116D01*
X105687333Y-79772115D01*
X105685323Y-79758082D01*
X105625984Y-79627572D01*
X105616731Y-79616833D01*
X105541654Y-79529702D01*
X105541651Y-79529700D01*
X105532400Y-79518963D01*
X105431331Y-79453453D01*
X105423992Y-79448696D01*
X105423991Y-79448695D01*
X105412095Y-79440985D01*
X105274739Y-79399907D01*
X105260568Y-79399820D01*
X105260565Y-79399820D01*
X105201208Y-79399458D01*
X105131376Y-79399031D01*
X105062453Y-79418729D01*
X105007160Y-79434532D01*
X105007159Y-79434533D01*
X104993529Y-79438428D01*
X104872280Y-79514930D01*
X104869140Y-79518486D01*
X104795941Y-79556659D01*
X104707423Y-79559485D01*
X104634936Y-79529623D01*
X104594335Y-79502494D01*
X104558810Y-79487780D01*
X104529293Y-79481909D01*
X104509917Y-79480000D01*
X104472423Y-79480000D01*
X104453453Y-79484330D01*
X104450000Y-79491500D01*
X104450000Y-79981000D01*
X104430293Y-80067343D01*
X104375074Y-80136584D01*
X104295282Y-80175011D01*
X104251000Y-80180000D01*
X103722423Y-80180000D01*
X103703453Y-80184330D01*
X103700129Y-80191231D01*
X103701909Y-80209293D01*
X103707780Y-80238810D01*
X103729994Y-80292440D01*
X103725925Y-80294125D01*
X103744457Y-80342649D01*
X103737028Y-80430901D01*
X103692044Y-80507189D01*
X103618414Y-80556404D01*
X103547416Y-80569500D01*
X103399000Y-80569500D01*
X103312657Y-80549793D01*
X103243416Y-80494574D01*
X103204989Y-80414782D01*
X103200000Y-80370500D01*
X103200000Y-80200000D01*
X103042871Y-80200000D01*
X102956528Y-80180293D01*
X102887287Y-80125074D01*
X102848860Y-80045282D01*
X102848860Y-79956718D01*
X102887287Y-79876926D01*
X102932313Y-79835537D01*
X102977897Y-79805079D01*
X103005082Y-79777894D01*
X103027505Y-79744335D01*
X103042220Y-79708810D01*
X103048091Y-79679293D01*
X103049859Y-79661348D01*
X103700860Y-79661348D01*
X103704330Y-79676547D01*
X103711500Y-79680000D01*
X103927577Y-79680000D01*
X103946547Y-79675670D01*
X103950000Y-79668500D01*
X103950000Y-79502423D01*
X103945670Y-79483453D01*
X103938500Y-79480000D01*
X103890083Y-79480000D01*
X103870707Y-79481909D01*
X103841190Y-79487780D01*
X103805665Y-79502495D01*
X103772106Y-79524918D01*
X103744918Y-79552106D01*
X103722495Y-79585665D01*
X103707780Y-79621190D01*
X103701909Y-79650707D01*
X103700860Y-79661348D01*
X103049859Y-79661348D01*
X103050000Y-79659917D01*
X103050000Y-79472423D01*
X103045670Y-79453453D01*
X103038500Y-79450000D01*
X102072423Y-79450000D01*
X102053453Y-79454330D01*
X102050000Y-79461500D01*
X102050000Y-79659917D01*
X102051909Y-79679293D01*
X102057780Y-79708810D01*
X102072495Y-79744335D01*
X102094918Y-79777894D01*
X102122103Y-79805079D01*
X102167687Y-79835537D01*
X102228530Y-79899893D01*
X102255425Y-79984273D01*
X102243045Y-80071967D01*
X102193842Y-80145605D01*
X102117561Y-80190602D01*
X102057129Y-80200000D01*
X101578029Y-80200000D01*
X101491686Y-80180293D01*
X101422445Y-80125074D01*
X101384018Y-80045282D01*
X101381039Y-80029214D01*
X101378047Y-80008321D01*
X101385314Y-79920059D01*
X101430157Y-79843688D01*
X101464477Y-79814649D01*
X101478256Y-79805442D01*
X101478260Y-79805438D01*
X101494552Y-79794552D01*
X101516637Y-79761500D01*
X101527980Y-79744525D01*
X101527981Y-79744523D01*
X101538867Y-79728231D01*
X101550500Y-79669748D01*
X101550500Y-78730252D01*
X101546788Y-78711588D01*
X101542690Y-78690991D01*
X101538867Y-78671769D01*
X101494552Y-78605448D01*
X101478260Y-78594562D01*
X101478258Y-78594560D01*
X101432454Y-78563954D01*
X101371613Y-78499598D01*
X101344719Y-78415217D01*
X101357100Y-78327523D01*
X101406304Y-78253886D01*
X101482586Y-78208890D01*
X101543010Y-78199493D01*
X101827603Y-78199489D01*
X102057897Y-78199485D01*
X102144240Y-78219191D01*
X102213483Y-78274408D01*
X102251910Y-78354200D01*
X102251911Y-78442764D01*
X102213486Y-78522557D01*
X102168458Y-78563948D01*
X102122103Y-78594921D01*
X102094918Y-78622106D01*
X102072495Y-78655665D01*
X102057780Y-78691190D01*
X102051909Y-78720707D01*
X102050000Y-78740083D01*
X102050000Y-78927577D01*
X102054330Y-78946547D01*
X102061500Y-78950000D01*
X103027577Y-78950000D01*
X103046547Y-78945670D01*
X103050000Y-78938500D01*
X103050000Y-78740083D01*
X103048091Y-78720707D01*
X103042220Y-78691190D01*
X103027505Y-78655665D01*
X103005082Y-78622106D01*
X102977898Y-78594922D01*
X102931516Y-78563930D01*
X102870674Y-78499574D01*
X102843780Y-78415193D01*
X102856161Y-78327499D01*
X102905365Y-78253862D01*
X102981646Y-78208865D01*
X103042071Y-78199468D01*
X128654696Y-78199040D01*
X128655404Y-78199121D01*
G37*
G04 #@! TD.AperFunction*
G04 #@! TA.AperFunction,Conductor*
G36*
X101483366Y-97089190D02*
G01*
X101525872Y-97121554D01*
X102691214Y-98286896D01*
X102738333Y-98361884D01*
X102749500Y-98427610D01*
X102749500Y-98686368D01*
X102729793Y-98772711D01*
X102674574Y-98841952D01*
X102594782Y-98880379D01*
X102506218Y-98880379D01*
X102426426Y-98841952D01*
X102418118Y-98834948D01*
X102411395Y-98828958D01*
X102402434Y-98820974D01*
X102391828Y-98815359D01*
X102391826Y-98815357D01*
X102263304Y-98747308D01*
X102263300Y-98747307D01*
X102252700Y-98741694D01*
X102088378Y-98700419D01*
X102076377Y-98700356D01*
X102076376Y-98700356D01*
X102003665Y-98699975D01*
X101918953Y-98699532D01*
X101907287Y-98702333D01*
X101907285Y-98702333D01*
X101765873Y-98736283D01*
X101765869Y-98736284D01*
X101754208Y-98739084D01*
X101743547Y-98744587D01*
X101743546Y-98744587D01*
X101728978Y-98752106D01*
X101603652Y-98816792D01*
X101594618Y-98824673D01*
X101594609Y-98824679D01*
X101530317Y-98880765D01*
X101452297Y-98922674D01*
X101363820Y-98926581D01*
X101282410Y-98891713D01*
X101224191Y-98824974D01*
X101200500Y-98730806D01*
X101200500Y-98518301D01*
X101203620Y-98518301D01*
X101203401Y-98512657D01*
X101202425Y-98512694D01*
X101200640Y-98465140D01*
X101200500Y-98457676D01*
X101200500Y-98440088D01*
X101200882Y-98440088D01*
X101201609Y-98434627D01*
X101199498Y-98434706D01*
X101199331Y-98430252D01*
X101198226Y-98400828D01*
X101190975Y-98383952D01*
X101190064Y-98379907D01*
X101188572Y-98376041D01*
X101185209Y-98357983D01*
X101175083Y-98341555D01*
X101161651Y-98315697D01*
X101159581Y-98310878D01*
X101159580Y-98310876D01*
X101154036Y-98297973D01*
X101150022Y-98293087D01*
X101146581Y-98289646D01*
X101145445Y-98288393D01*
X101141070Y-98283800D01*
X101136110Y-98278330D01*
X101126468Y-98262688D01*
X101108625Y-98249120D01*
X101088364Y-98231429D01*
X101058286Y-98201351D01*
X101011167Y-98126363D01*
X101000000Y-98060637D01*
X101000000Y-97848820D01*
X101019707Y-97762477D01*
X101058286Y-97708106D01*
X101128050Y-97638342D01*
X101185646Y-97525304D01*
X101205492Y-97400000D01*
X101188608Y-97293398D01*
X101194566Y-97205036D01*
X101238272Y-97128008D01*
X101311072Y-97077573D01*
X101398545Y-97063719D01*
X101483366Y-97089190D01*
G37*
G04 #@! TD.AperFunction*
G04 #@! TA.AperFunction,Conductor*
G36*
X93920717Y-93840207D02*
G01*
X93955313Y-93864754D01*
X93955448Y-93864552D01*
X94005475Y-93897980D01*
X94005477Y-93897981D01*
X94021769Y-93908867D01*
X94058053Y-93916084D01*
X94070658Y-93918592D01*
X94070662Y-93918592D01*
X94080252Y-93920500D01*
X94719748Y-93920500D01*
X94729338Y-93918592D01*
X94729342Y-93918592D01*
X94741947Y-93916084D01*
X94778231Y-93908867D01*
X94794523Y-93897981D01*
X94794525Y-93897980D01*
X94844552Y-93864552D01*
X94845443Y-93865885D01*
X94899900Y-93831667D01*
X94965626Y-93820500D01*
X99102390Y-93820500D01*
X99188733Y-93840207D01*
X99243104Y-93878786D01*
X100791214Y-95426896D01*
X100838333Y-95501884D01*
X100849500Y-95567610D01*
X100849500Y-96241525D01*
X100849279Y-96250901D01*
X100848511Y-96267180D01*
X100845049Y-96283261D01*
X100846982Y-96299593D01*
X100846982Y-96299594D01*
X100849077Y-96317294D01*
X100849500Y-96321505D01*
X100849500Y-96329115D01*
X100850848Y-96337213D01*
X100850848Y-96337215D01*
X100852108Y-96344785D01*
X100853429Y-96354065D01*
X100858764Y-96399138D01*
X100862423Y-96406758D01*
X100863812Y-96415103D01*
X100885386Y-96455086D01*
X100889617Y-96463390D01*
X100909274Y-96504326D01*
X100912592Y-96508274D01*
X100915689Y-96511371D01*
X100915698Y-96511385D01*
X100915858Y-96511559D01*
X100919222Y-96517794D01*
X100930679Y-96528385D01*
X100930680Y-96528386D01*
X100954591Y-96550489D01*
X100960223Y-96555905D01*
X101064604Y-96660286D01*
X101111723Y-96735274D01*
X101121639Y-96823281D01*
X101092388Y-96906874D01*
X101029764Y-96969498D01*
X100946171Y-96998749D01*
X100923890Y-97000000D01*
X100850337Y-97000000D01*
X100819206Y-96997550D01*
X100800000Y-96994508D01*
X100780794Y-96997550D01*
X100749663Y-97000000D01*
X99000000Y-97000000D01*
X99000000Y-97337080D01*
X98980293Y-97423423D01*
X98925074Y-97492664D01*
X98839825Y-97532255D01*
X98758854Y-97548361D01*
X98670327Y-97545876D01*
X98632817Y-97529091D01*
X98632638Y-97529523D01*
X98614526Y-97522021D01*
X98598231Y-97511133D01*
X98556977Y-97502927D01*
X98549342Y-97501408D01*
X98549338Y-97501408D01*
X98539748Y-97499500D01*
X98000252Y-97499500D01*
X97990662Y-97501408D01*
X97990658Y-97501408D01*
X97983023Y-97502927D01*
X97941769Y-97511133D01*
X97925476Y-97522020D01*
X97925471Y-97522022D01*
X97910561Y-97531985D01*
X97827822Y-97563571D01*
X97739572Y-97556128D01*
X97689439Y-97531985D01*
X97674529Y-97522022D01*
X97674524Y-97522020D01*
X97658231Y-97511133D01*
X97616977Y-97502927D01*
X97609342Y-97501408D01*
X97609338Y-97501408D01*
X97599748Y-97499500D01*
X97060252Y-97499500D01*
X97050662Y-97501408D01*
X97050658Y-97501408D01*
X97043023Y-97502927D01*
X97001769Y-97511133D01*
X96985474Y-97522021D01*
X96967362Y-97529523D01*
X96965467Y-97524949D01*
X96921155Y-97542425D01*
X96832829Y-97535953D01*
X96756058Y-97491798D01*
X96706047Y-97418706D01*
X96697161Y-97389979D01*
X96695672Y-97383454D01*
X96688500Y-97380000D01*
X95722423Y-97380000D01*
X95703452Y-97384330D01*
X95701915Y-97387522D01*
X95646695Y-97456762D01*
X95566901Y-97495187D01*
X95478338Y-97495185D01*
X95398546Y-97456757D01*
X95357162Y-97411734D01*
X95330440Y-97371742D01*
X95330438Y-97371740D01*
X95319552Y-97355448D01*
X95292063Y-97337080D01*
X95269525Y-97322020D01*
X95269523Y-97322019D01*
X95253231Y-97311133D01*
X95214621Y-97303453D01*
X95204342Y-97301408D01*
X95204338Y-97301408D01*
X95194748Y-97299500D01*
X94055252Y-97299500D01*
X94045662Y-97301408D01*
X94045658Y-97301408D01*
X94035379Y-97303453D01*
X93996769Y-97311133D01*
X93980477Y-97322019D01*
X93980475Y-97322020D01*
X93957937Y-97337080D01*
X93930448Y-97355448D01*
X93928461Y-97358421D01*
X93865365Y-97398068D01*
X93777358Y-97407984D01*
X93693765Y-97378733D01*
X93658925Y-97350949D01*
X93652894Y-97344918D01*
X93619335Y-97322495D01*
X93583810Y-97307780D01*
X93554293Y-97301909D01*
X93534917Y-97300000D01*
X93247423Y-97300000D01*
X93228453Y-97304330D01*
X93225000Y-97311500D01*
X93225000Y-98201000D01*
X93205293Y-98287343D01*
X93150074Y-98356584D01*
X93070282Y-98395011D01*
X93026000Y-98400000D01*
X92924000Y-98400000D01*
X92837657Y-98380293D01*
X92768416Y-98325074D01*
X92729989Y-98245282D01*
X92725000Y-98201000D01*
X92725000Y-97322423D01*
X92720670Y-97303453D01*
X92713500Y-97300000D01*
X92415083Y-97300000D01*
X92395707Y-97301909D01*
X92366190Y-97307780D01*
X92330665Y-97322495D01*
X92297106Y-97344918D01*
X92269918Y-97372106D01*
X92247495Y-97405665D01*
X92232780Y-97441190D01*
X92226909Y-97470707D01*
X92225000Y-97490083D01*
X92225000Y-97649714D01*
X92205293Y-97736057D01*
X92150074Y-97805298D01*
X92070282Y-97843725D01*
X91981718Y-97843725D01*
X91901926Y-97805298D01*
X91860537Y-97760271D01*
X91855080Y-97752104D01*
X91827894Y-97724918D01*
X91794335Y-97702495D01*
X91758810Y-97687780D01*
X91729293Y-97681909D01*
X91709917Y-97680000D01*
X91672423Y-97680000D01*
X91653453Y-97684330D01*
X91650000Y-97691500D01*
X91650000Y-98181000D01*
X91630293Y-98267343D01*
X91575074Y-98336584D01*
X91495282Y-98375011D01*
X91451000Y-98380000D01*
X91349000Y-98380000D01*
X91262657Y-98360293D01*
X91193416Y-98305074D01*
X91154989Y-98225282D01*
X91150000Y-98181000D01*
X91150000Y-97702423D01*
X91145670Y-97683453D01*
X91138500Y-97680000D01*
X91090083Y-97680000D01*
X91070707Y-97681909D01*
X91041190Y-97687780D01*
X91005665Y-97702495D01*
X90972106Y-97724918D01*
X90944920Y-97752104D01*
X90914962Y-97796939D01*
X90850607Y-97857781D01*
X90766226Y-97884676D01*
X90678532Y-97872295D01*
X90604894Y-97823092D01*
X90559898Y-97746811D01*
X90550500Y-97686380D01*
X90550500Y-96861348D01*
X95700860Y-96861348D01*
X95704330Y-96876547D01*
X95711500Y-96880000D01*
X95927577Y-96880000D01*
X95946547Y-96875670D01*
X95950000Y-96868500D01*
X95950000Y-96857577D01*
X96450000Y-96857577D01*
X96454330Y-96876547D01*
X96461500Y-96880000D01*
X96677577Y-96880000D01*
X96696547Y-96875670D01*
X96699871Y-96868769D01*
X96698091Y-96850707D01*
X96692220Y-96821190D01*
X96677505Y-96785665D01*
X96655082Y-96752106D01*
X96627894Y-96724918D01*
X96594335Y-96702495D01*
X96558810Y-96687780D01*
X96529293Y-96681909D01*
X96509917Y-96680000D01*
X96472423Y-96680000D01*
X96453453Y-96684330D01*
X96450000Y-96691500D01*
X96450000Y-96857577D01*
X95950000Y-96857577D01*
X95950000Y-96702423D01*
X95945670Y-96683453D01*
X95938500Y-96680000D01*
X95890083Y-96680000D01*
X95870707Y-96681909D01*
X95841190Y-96687780D01*
X95805665Y-96702495D01*
X95772106Y-96724918D01*
X95744918Y-96752106D01*
X95722495Y-96785665D01*
X95707780Y-96821190D01*
X95701909Y-96850707D01*
X95700860Y-96861348D01*
X90550500Y-96861348D01*
X90550500Y-95919748D01*
X95449500Y-95919748D01*
X95461133Y-95978231D01*
X95472019Y-95994523D01*
X95472020Y-95994525D01*
X95482642Y-96010421D01*
X95505448Y-96044552D01*
X95521740Y-96055438D01*
X95555475Y-96077980D01*
X95555477Y-96077981D01*
X95571769Y-96088867D01*
X95608053Y-96096084D01*
X95620658Y-96098592D01*
X95620662Y-96098592D01*
X95630252Y-96100500D01*
X99269748Y-96100500D01*
X99279338Y-96098592D01*
X99279342Y-96098592D01*
X99291947Y-96096084D01*
X99328231Y-96088867D01*
X99344523Y-96077981D01*
X99344525Y-96077980D01*
X99378260Y-96055438D01*
X99394552Y-96044552D01*
X99417358Y-96010421D01*
X99427980Y-95994525D01*
X99427981Y-95994523D01*
X99438867Y-95978231D01*
X99450500Y-95919748D01*
X99450500Y-95080252D01*
X99448546Y-95070426D01*
X99445566Y-95055448D01*
X99438867Y-95021769D01*
X99394552Y-94955448D01*
X99370469Y-94939356D01*
X99344525Y-94922020D01*
X99344523Y-94922019D01*
X99328231Y-94911133D01*
X99289621Y-94903453D01*
X99279342Y-94901408D01*
X99279338Y-94901408D01*
X99269748Y-94899500D01*
X95630252Y-94899500D01*
X95620662Y-94901408D01*
X95620658Y-94901408D01*
X95610379Y-94903453D01*
X95571769Y-94911133D01*
X95555477Y-94922019D01*
X95555475Y-94922020D01*
X95529531Y-94939356D01*
X95505448Y-94955448D01*
X95461133Y-95021769D01*
X95454434Y-95055448D01*
X95451455Y-95070426D01*
X95449500Y-95080252D01*
X95449500Y-95919748D01*
X90550500Y-95919748D01*
X90550500Y-94627610D01*
X90570207Y-94541267D01*
X90608786Y-94486896D01*
X91216896Y-93878786D01*
X91291884Y-93831667D01*
X91357610Y-93820500D01*
X93834374Y-93820500D01*
X93920717Y-93840207D01*
G37*
G04 #@! TD.AperFunction*
G04 #@! TA.AperFunction,Conductor*
G36*
X100306374Y-90837401D02*
G01*
X100368998Y-90900025D01*
X100398249Y-90983618D01*
X100399500Y-91005899D01*
X100399500Y-91822390D01*
X100379793Y-91908733D01*
X100341214Y-91963104D01*
X99243104Y-93061214D01*
X99168116Y-93108333D01*
X99102390Y-93119500D01*
X98648441Y-93119500D01*
X98562098Y-93099793D01*
X98492857Y-93044574D01*
X98454430Y-92964782D01*
X98450952Y-92909748D01*
X98450500Y-92909748D01*
X98450500Y-92556899D01*
X98470207Y-92470556D01*
X98508786Y-92416185D01*
X100059786Y-90865185D01*
X100134774Y-90818066D01*
X100222781Y-90808150D01*
X100306374Y-90837401D01*
G37*
G04 #@! TD.AperFunction*
G04 #@! TA.AperFunction,Conductor*
G36*
X105642911Y-81916095D02*
G01*
X105721595Y-81956744D01*
X105775352Y-82028640D01*
X105785720Y-82052203D01*
X105794843Y-82063056D01*
X105866693Y-82148532D01*
X105877970Y-82161948D01*
X105997313Y-82241390D01*
X106010848Y-82245619D01*
X106010849Y-82245619D01*
X106107180Y-82275714D01*
X106188553Y-82324946D01*
X106322032Y-82458425D01*
X106369151Y-82533413D01*
X106372987Y-82545624D01*
X106376142Y-82556925D01*
X106377980Y-82570979D01*
X106383687Y-82583949D01*
X106383688Y-82583953D01*
X106394860Y-82609342D01*
X106435720Y-82702203D01*
X106527970Y-82811948D01*
X106647313Y-82891390D01*
X106660848Y-82895619D01*
X106660849Y-82895619D01*
X106757180Y-82925714D01*
X106838553Y-82974946D01*
X107341214Y-83477607D01*
X107388333Y-83552595D01*
X107399500Y-83618321D01*
X107399500Y-85556380D01*
X107379793Y-85642723D01*
X107324574Y-85711964D01*
X107244782Y-85750391D01*
X107156218Y-85750391D01*
X107076426Y-85711964D01*
X107035038Y-85666939D01*
X107005080Y-85622104D01*
X106977894Y-85594918D01*
X106944335Y-85572495D01*
X106908810Y-85557780D01*
X106879293Y-85551909D01*
X106859917Y-85550000D01*
X106672423Y-85550000D01*
X106653453Y-85554330D01*
X106650000Y-85561500D01*
X106650000Y-86527577D01*
X106654330Y-86546547D01*
X106661500Y-86550000D01*
X106859917Y-86550000D01*
X106879293Y-86548091D01*
X106908810Y-86542220D01*
X106944335Y-86527505D01*
X106977894Y-86505082D01*
X107005080Y-86477896D01*
X107035038Y-86433061D01*
X107099393Y-86372219D01*
X107183774Y-86345324D01*
X107271468Y-86357705D01*
X107345106Y-86406908D01*
X107390102Y-86483189D01*
X107399500Y-86543620D01*
X107399500Y-86751680D01*
X107379793Y-86838023D01*
X107341214Y-86892393D01*
X107190124Y-87043483D01*
X107115138Y-87090601D01*
X107027131Y-87100517D01*
X106963571Y-87077270D01*
X106962638Y-87079523D01*
X106944526Y-87072021D01*
X106928231Y-87061133D01*
X106891947Y-87053916D01*
X106879342Y-87051408D01*
X106879338Y-87051408D01*
X106869748Y-87049500D01*
X105930252Y-87049500D01*
X105920663Y-87051407D01*
X105911549Y-87052305D01*
X105823690Y-87041155D01*
X105749370Y-86992989D01*
X105703308Y-86917347D01*
X105694627Y-86829210D01*
X105696869Y-86815434D01*
X105698092Y-86809286D01*
X105700000Y-86789917D01*
X105700000Y-86745917D01*
X105719707Y-86659574D01*
X105774926Y-86590333D01*
X105854718Y-86551906D01*
X105918506Y-86547875D01*
X105940081Y-86550000D01*
X106127577Y-86550000D01*
X106146547Y-86545670D01*
X106150000Y-86538500D01*
X106150000Y-85572423D01*
X106145670Y-85553453D01*
X106138500Y-85550000D01*
X105940083Y-85550000D01*
X105920707Y-85551909D01*
X105891190Y-85557780D01*
X105855665Y-85572495D01*
X105822106Y-85594918D01*
X105794918Y-85622106D01*
X105772495Y-85655665D01*
X105757780Y-85691190D01*
X105751909Y-85720707D01*
X105750000Y-85740083D01*
X105750000Y-85884083D01*
X105730293Y-85970426D01*
X105675074Y-86039667D01*
X105595282Y-86078094D01*
X105531494Y-86082125D01*
X105509919Y-86080000D01*
X105472423Y-86080000D01*
X105453453Y-86084330D01*
X105450000Y-86091500D01*
X105450000Y-86581000D01*
X105430293Y-86667343D01*
X105375074Y-86736584D01*
X105295282Y-86775011D01*
X105251000Y-86780000D01*
X104722423Y-86780000D01*
X104703453Y-86784330D01*
X104685281Y-86822063D01*
X104683128Y-86821026D01*
X104673807Y-86847667D01*
X104611186Y-86910293D01*
X104527594Y-86939548D01*
X104441234Y-86929822D01*
X104428231Y-86921133D01*
X104389621Y-86913453D01*
X104379342Y-86911408D01*
X104379338Y-86911408D01*
X104369748Y-86909500D01*
X101730252Y-86909500D01*
X101720662Y-86911408D01*
X101720658Y-86911408D01*
X101710379Y-86913453D01*
X101671769Y-86921133D01*
X101655477Y-86932019D01*
X101655475Y-86932020D01*
X101644209Y-86939548D01*
X101605448Y-86965448D01*
X101594562Y-86981740D01*
X101580700Y-86995602D01*
X101578289Y-86993191D01*
X101537339Y-87031903D01*
X101452958Y-87058796D01*
X101436236Y-87059500D01*
X101318481Y-87059500D01*
X101318477Y-87059501D01*
X101286567Y-87059501D01*
X101271115Y-87064521D01*
X101240750Y-87071811D01*
X101240323Y-87071879D01*
X101224696Y-87074354D01*
X101210742Y-87081464D01*
X101210222Y-87081729D01*
X101181365Y-87093683D01*
X101169351Y-87097586D01*
X101165904Y-87098706D01*
X101165674Y-87097997D01*
X101093687Y-87116137D01*
X101006923Y-87098373D01*
X100936459Y-87044723D01*
X100929403Y-87035092D01*
X100925984Y-87027572D01*
X100863381Y-86954918D01*
X100841654Y-86929702D01*
X100841651Y-86929700D01*
X100832400Y-86918963D01*
X100791409Y-86892394D01*
X100723992Y-86848696D01*
X100723991Y-86848695D01*
X100712095Y-86840985D01*
X100574739Y-86799907D01*
X100560568Y-86799820D01*
X100560565Y-86799820D01*
X100501208Y-86799458D01*
X100431376Y-86799031D01*
X100395495Y-86809286D01*
X100307160Y-86834532D01*
X100307159Y-86834533D01*
X100293529Y-86838428D01*
X100172280Y-86914930D01*
X100162898Y-86925554D01*
X100162896Y-86925555D01*
X100156767Y-86932495D01*
X100077377Y-87022388D01*
X100071352Y-87035221D01*
X100067533Y-87043354D01*
X100012998Y-87113135D01*
X99933587Y-87152344D01*
X99845028Y-87153215D01*
X99815871Y-87143432D01*
X99812095Y-87140985D01*
X99674739Y-87099907D01*
X99660568Y-87099820D01*
X99660565Y-87099820D01*
X99601208Y-87099458D01*
X99531376Y-87099031D01*
X99466887Y-87117462D01*
X99407160Y-87134532D01*
X99407159Y-87134533D01*
X99393529Y-87138428D01*
X99272280Y-87214930D01*
X99262898Y-87225554D01*
X99262896Y-87225555D01*
X99245077Y-87245732D01*
X99177377Y-87322388D01*
X99171353Y-87335218D01*
X99171352Y-87335220D01*
X99122473Y-87439327D01*
X99122472Y-87439330D01*
X99116447Y-87452163D01*
X99094391Y-87593823D01*
X99096229Y-87607879D01*
X99096229Y-87607880D01*
X99100942Y-87643923D01*
X99112980Y-87735979D01*
X99170720Y-87867203D01*
X99252833Y-87964888D01*
X99293303Y-88043660D01*
X99299500Y-88092933D01*
X99299500Y-89393100D01*
X99279793Y-89479443D01*
X99241214Y-89533814D01*
X98875480Y-89899549D01*
X98790214Y-89984815D01*
X98715226Y-90031934D01*
X98627219Y-90041850D01*
X98543626Y-90012599D01*
X98481002Y-89949976D01*
X98451751Y-89866382D01*
X98450500Y-89844101D01*
X98450500Y-89630252D01*
X98447195Y-89613634D01*
X98445436Y-89604793D01*
X98438867Y-89571769D01*
X98394552Y-89505448D01*
X98385404Y-89499335D01*
X98342293Y-89430726D01*
X98332377Y-89342719D01*
X98361628Y-89259126D01*
X98383095Y-89232208D01*
X98394552Y-89224552D01*
X98419713Y-89186897D01*
X98427980Y-89174525D01*
X98427981Y-89174523D01*
X98438867Y-89158231D01*
X98450500Y-89099748D01*
X98450500Y-88360252D01*
X98447594Y-88345639D01*
X98445566Y-88335448D01*
X98438867Y-88301769D01*
X98419913Y-88273402D01*
X98405438Y-88251740D01*
X98394552Y-88235448D01*
X98385173Y-88229181D01*
X98341932Y-88160365D01*
X98332016Y-88072358D01*
X98361267Y-87988765D01*
X98389051Y-87953925D01*
X98405082Y-87937894D01*
X98427505Y-87904335D01*
X98442220Y-87868810D01*
X98448091Y-87839293D01*
X98450000Y-87819917D01*
X98450000Y-87732423D01*
X98445670Y-87713453D01*
X98438500Y-87710000D01*
X95472423Y-87710000D01*
X95453453Y-87714330D01*
X95450000Y-87721500D01*
X95450000Y-87819921D01*
X95451545Y-87835609D01*
X95440395Y-87923467D01*
X95392229Y-87997788D01*
X95316587Y-88043849D01*
X95228450Y-88052530D01*
X95172881Y-88037050D01*
X95159004Y-88030901D01*
X95143854Y-88020508D01*
X95125088Y-88016055D01*
X95097295Y-88007265D01*
X95079378Y-88000117D01*
X95073085Y-87999500D01*
X95068217Y-87999500D01*
X95066560Y-87999419D01*
X95060184Y-87999263D01*
X95052812Y-87998903D01*
X95034934Y-87994660D01*
X95024393Y-87996095D01*
X94945246Y-87973913D01*
X94878784Y-87915379D01*
X94867159Y-87887879D01*
X94846473Y-87853551D01*
X94844303Y-87852130D01*
X94832436Y-87850000D01*
X94309000Y-87850000D01*
X94222657Y-87830293D01*
X94153416Y-87775074D01*
X94114989Y-87695282D01*
X94110000Y-87651000D01*
X94110000Y-87327577D01*
X94610000Y-87327577D01*
X94614330Y-87346547D01*
X94621500Y-87350000D01*
X94827735Y-87350000D01*
X94846705Y-87345670D01*
X94847281Y-87344474D01*
X94847428Y-87341329D01*
X94841904Y-87322375D01*
X94803905Y-87240887D01*
X94784235Y-87212795D01*
X94759017Y-87187577D01*
X95450000Y-87187577D01*
X95454330Y-87206547D01*
X95461500Y-87210000D01*
X96677577Y-87210000D01*
X96696547Y-87205670D01*
X96700000Y-87198500D01*
X96700000Y-87187577D01*
X97200000Y-87187577D01*
X97204330Y-87206547D01*
X97211500Y-87210000D01*
X98427577Y-87210000D01*
X98446547Y-87205670D01*
X98450000Y-87198500D01*
X98450000Y-87100083D01*
X98448091Y-87080707D01*
X98442220Y-87051190D01*
X98427505Y-87015665D01*
X98405082Y-86982106D01*
X98377894Y-86954918D01*
X98344335Y-86932495D01*
X98308810Y-86917780D01*
X98279293Y-86911909D01*
X98259917Y-86910000D01*
X97222423Y-86910000D01*
X97203453Y-86914330D01*
X97200000Y-86921500D01*
X97200000Y-87187577D01*
X96700000Y-87187577D01*
X96700000Y-86932423D01*
X96695670Y-86913453D01*
X96688500Y-86910000D01*
X95640083Y-86910000D01*
X95620707Y-86911909D01*
X95591190Y-86917780D01*
X95555665Y-86932495D01*
X95522106Y-86954918D01*
X95494918Y-86982106D01*
X95472495Y-87015665D01*
X95457780Y-87051190D01*
X95451909Y-87080707D01*
X95450000Y-87100083D01*
X95450000Y-87187577D01*
X94759017Y-87187577D01*
X94722205Y-87150765D01*
X94694113Y-87131095D01*
X94630320Y-87101347D01*
X94612841Y-87097586D01*
X94610000Y-87103679D01*
X94610000Y-87327577D01*
X94110000Y-87327577D01*
X94110000Y-87114295D01*
X94106021Y-87096861D01*
X94099301Y-87096861D01*
X94025888Y-87131094D01*
X93986664Y-87158559D01*
X93904633Y-87191939D01*
X93816241Y-87186422D01*
X93756963Y-87157556D01*
X93749018Y-87151889D01*
X93737379Y-87140270D01*
X93722604Y-87133048D01*
X93722603Y-87133047D01*
X93647169Y-87096174D01*
X93647168Y-87096174D01*
X93633294Y-87089392D01*
X93565486Y-87079500D01*
X93204514Y-87079500D01*
X93197315Y-87080560D01*
X93197312Y-87080560D01*
X93179344Y-87083205D01*
X93136116Y-87089569D01*
X93122234Y-87096385D01*
X93122233Y-87096385D01*
X93107377Y-87103679D01*
X93032120Y-87140628D01*
X93020499Y-87152269D01*
X93015876Y-87155579D01*
X92934199Y-87189817D01*
X92845754Y-87185226D01*
X92784474Y-87155781D01*
X92779020Y-87151891D01*
X92767379Y-87140270D01*
X92696141Y-87105448D01*
X92677169Y-87096174D01*
X92677168Y-87096174D01*
X92663294Y-87089392D01*
X92595486Y-87079500D01*
X92234514Y-87079500D01*
X92227315Y-87080560D01*
X92227312Y-87080560D01*
X92209344Y-87083205D01*
X92166116Y-87089569D01*
X92152234Y-87096385D01*
X92152233Y-87096385D01*
X92137377Y-87103679D01*
X92062120Y-87140628D01*
X92050500Y-87152268D01*
X92050499Y-87152269D01*
X91991890Y-87210980D01*
X91991888Y-87210982D01*
X91980270Y-87222621D01*
X91929392Y-87326706D01*
X91919500Y-87394514D01*
X91919500Y-87805486D01*
X91920560Y-87812685D01*
X91920560Y-87812688D01*
X91921624Y-87819917D01*
X91929569Y-87873884D01*
X91936385Y-87887766D01*
X91936385Y-87887767D01*
X91945664Y-87906667D01*
X91980628Y-87977880D01*
X91983856Y-87981102D01*
X92014703Y-88054691D01*
X92010111Y-88143135D01*
X91967599Y-88220829D01*
X91895588Y-88272382D01*
X91857487Y-88284028D01*
X91821769Y-88291133D01*
X91805477Y-88302019D01*
X91805475Y-88302020D01*
X91791837Y-88311133D01*
X91755448Y-88335448D01*
X91744562Y-88351740D01*
X91722723Y-88384424D01*
X91711133Y-88401769D01*
X91699500Y-88460252D01*
X91699500Y-88725500D01*
X91679793Y-88811843D01*
X91624574Y-88881084D01*
X91544782Y-88919511D01*
X91500500Y-88924500D01*
X91346729Y-88924500D01*
X91330759Y-88922927D01*
X91319221Y-88922927D01*
X91300000Y-88919104D01*
X91272871Y-88924500D01*
X91272867Y-88924500D01*
X91272822Y-88924509D01*
X91211729Y-88936661D01*
X91192505Y-88940485D01*
X91176210Y-88951373D01*
X91176208Y-88951374D01*
X91117673Y-88990486D01*
X91117671Y-88990488D01*
X91101376Y-89001376D01*
X91090488Y-89017671D01*
X91082332Y-89025827D01*
X91072143Y-89038242D01*
X90544170Y-89566214D01*
X90469181Y-89613333D01*
X90403456Y-89624500D01*
X88199500Y-89624500D01*
X88113157Y-89604793D01*
X88043916Y-89549574D01*
X88005489Y-89469782D01*
X88000500Y-89425500D01*
X88000500Y-88480252D01*
X87998468Y-88470033D01*
X87992690Y-88440991D01*
X87988867Y-88421769D01*
X87975504Y-88401769D01*
X87955438Y-88371740D01*
X87944552Y-88355448D01*
X87920469Y-88339356D01*
X87894525Y-88322020D01*
X87894523Y-88322019D01*
X87878231Y-88311133D01*
X87819748Y-88299500D01*
X87820019Y-88298137D01*
X87746007Y-88273402D01*
X87682508Y-88211666D01*
X87652084Y-88128492D01*
X87650500Y-88103431D01*
X87650500Y-84919748D01*
X95429500Y-84919748D01*
X95441133Y-84978231D01*
X95485448Y-85044552D01*
X95501740Y-85055438D01*
X95535475Y-85077980D01*
X95535477Y-85077981D01*
X95551769Y-85088867D01*
X95588053Y-85096084D01*
X95600658Y-85098592D01*
X95600662Y-85098592D01*
X95610252Y-85100500D01*
X98289748Y-85100500D01*
X98299338Y-85098592D01*
X98299342Y-85098592D01*
X98311947Y-85096084D01*
X98348231Y-85088867D01*
X98364523Y-85077981D01*
X98364525Y-85077980D01*
X98398260Y-85055438D01*
X98414552Y-85044552D01*
X98458867Y-84978231D01*
X98470500Y-84919748D01*
X98470500Y-84080252D01*
X98458867Y-84021769D01*
X98414552Y-83955448D01*
X98390469Y-83939356D01*
X98364525Y-83922020D01*
X98364523Y-83922019D01*
X98348231Y-83911133D01*
X98311947Y-83903916D01*
X98299342Y-83901408D01*
X98299338Y-83901408D01*
X98289748Y-83899500D01*
X95610252Y-83899500D01*
X95600662Y-83901408D01*
X95600658Y-83901408D01*
X95588053Y-83903916D01*
X95551769Y-83911133D01*
X95535477Y-83922019D01*
X95535475Y-83922020D01*
X95509531Y-83939356D01*
X95485448Y-83955448D01*
X95441133Y-84021769D01*
X95429500Y-84080252D01*
X95429500Y-84919748D01*
X87650500Y-84919748D01*
X87650500Y-82299500D01*
X87670207Y-82213157D01*
X87725426Y-82143916D01*
X87805218Y-82105489D01*
X87849500Y-82100500D01*
X93638174Y-82100500D01*
X93724517Y-82120207D01*
X93748443Y-82133845D01*
X93770506Y-82148532D01*
X93770514Y-82148536D01*
X93782313Y-82156390D01*
X93919157Y-82199142D01*
X93933329Y-82199402D01*
X93933330Y-82199402D01*
X93987626Y-82200397D01*
X94062499Y-82201770D01*
X94076171Y-82198042D01*
X94076175Y-82198042D01*
X94187143Y-82167788D01*
X94200817Y-82164060D01*
X94233625Y-82143916D01*
X94256428Y-82129915D01*
X94340320Y-82101531D01*
X94360553Y-82100500D01*
X94738174Y-82100500D01*
X94824517Y-82120207D01*
X94848443Y-82133845D01*
X94870506Y-82148532D01*
X94870514Y-82148536D01*
X94882313Y-82156390D01*
X95019157Y-82199142D01*
X95033329Y-82199402D01*
X95033330Y-82199402D01*
X95087626Y-82200397D01*
X95162499Y-82201770D01*
X95176171Y-82198042D01*
X95176175Y-82198042D01*
X95255221Y-82176491D01*
X95343707Y-82172794D01*
X95418124Y-82203022D01*
X95455475Y-82227980D01*
X95455477Y-82227981D01*
X95471769Y-82238867D01*
X95505714Y-82245619D01*
X95520658Y-82248592D01*
X95520662Y-82248592D01*
X95530252Y-82250500D01*
X96469748Y-82250500D01*
X96479338Y-82248592D01*
X96479342Y-82248592D01*
X96509006Y-82242691D01*
X96528231Y-82238867D01*
X96534878Y-82234425D01*
X96612157Y-82221295D01*
X96697260Y-82245812D01*
X96763296Y-82304826D01*
X96797188Y-82386648D01*
X96800000Y-82419982D01*
X96800000Y-83300000D01*
X99500500Y-83300000D01*
X99586843Y-83319707D01*
X99656084Y-83374926D01*
X99694511Y-83454718D01*
X99699500Y-83499000D01*
X99699500Y-85208814D01*
X99679793Y-85295157D01*
X99649659Y-85340544D01*
X99577377Y-85422388D01*
X99571353Y-85435218D01*
X99571352Y-85435220D01*
X99522473Y-85539327D01*
X99522472Y-85539330D01*
X99516447Y-85552163D01*
X99494391Y-85693823D01*
X99496229Y-85707879D01*
X99496229Y-85707880D01*
X99510881Y-85819930D01*
X99512980Y-85835979D01*
X99570720Y-85967203D01*
X99579843Y-85978056D01*
X99638046Y-86047297D01*
X99662970Y-86076948D01*
X99782313Y-86156390D01*
X99919157Y-86199142D01*
X99933329Y-86199402D01*
X99933330Y-86199402D01*
X99987626Y-86200397D01*
X100062499Y-86201770D01*
X100076171Y-86198042D01*
X100076175Y-86198042D01*
X100187143Y-86167788D01*
X100200817Y-86164060D01*
X100223193Y-86150321D01*
X100307085Y-86121938D01*
X100394984Y-86132765D01*
X100456910Y-86169739D01*
X100462970Y-86176948D01*
X100582313Y-86256390D01*
X100719157Y-86299142D01*
X100733329Y-86299402D01*
X100733330Y-86299402D01*
X100787626Y-86300397D01*
X100862499Y-86301770D01*
X100876171Y-86298042D01*
X100876175Y-86298042D01*
X100987143Y-86267788D01*
X101000817Y-86264060D01*
X101005234Y-86261348D01*
X104700860Y-86261348D01*
X104704330Y-86276547D01*
X104711500Y-86280000D01*
X104927577Y-86280000D01*
X104946547Y-86275670D01*
X104950000Y-86268500D01*
X104950000Y-86102423D01*
X104945670Y-86083453D01*
X104938500Y-86080000D01*
X104890083Y-86080000D01*
X104870707Y-86081909D01*
X104841190Y-86087780D01*
X104805665Y-86102495D01*
X104772106Y-86124918D01*
X104744918Y-86152106D01*
X104722495Y-86185665D01*
X104707780Y-86221190D01*
X104701909Y-86250707D01*
X104700860Y-86261348D01*
X101005234Y-86261348D01*
X101070638Y-86221190D01*
X101110912Y-86196462D01*
X101110914Y-86196460D01*
X101122991Y-86189045D01*
X101158042Y-86150321D01*
X101209686Y-86093266D01*
X101209689Y-86093262D01*
X101219200Y-86082754D01*
X101281710Y-85953733D01*
X101305496Y-85812354D01*
X101305647Y-85800000D01*
X101297066Y-85740083D01*
X101287333Y-85672116D01*
X101287333Y-85672115D01*
X101285323Y-85658082D01*
X101225984Y-85527572D01*
X101132400Y-85418963D01*
X101120508Y-85411255D01*
X101118683Y-85409663D01*
X101066573Y-85338053D01*
X101050500Y-85259704D01*
X101050500Y-83665899D01*
X101070207Y-83579556D01*
X101125426Y-83510315D01*
X101205218Y-83471888D01*
X101293782Y-83471888D01*
X101373574Y-83510315D01*
X101390205Y-83525176D01*
X101564953Y-83699924D01*
X101612070Y-83774912D01*
X101621986Y-83862918D01*
X101592735Y-83946512D01*
X101585792Y-83955218D01*
X101585448Y-83955448D01*
X101541133Y-84021769D01*
X101529500Y-84080252D01*
X101529500Y-84919748D01*
X101541133Y-84978231D01*
X101585448Y-85044552D01*
X101601740Y-85055438D01*
X101635475Y-85077980D01*
X101635477Y-85077981D01*
X101651769Y-85088867D01*
X101688053Y-85096084D01*
X101700658Y-85098592D01*
X101700662Y-85098592D01*
X101710252Y-85100500D01*
X104389748Y-85100500D01*
X104399338Y-85098592D01*
X104399342Y-85098592D01*
X104411947Y-85096084D01*
X104448231Y-85088867D01*
X104464523Y-85077981D01*
X104464525Y-85077980D01*
X104498260Y-85055438D01*
X104514552Y-85044552D01*
X104558867Y-84978231D01*
X104570500Y-84919748D01*
X104570500Y-84080252D01*
X104558867Y-84021769D01*
X104514552Y-83955448D01*
X104498260Y-83944562D01*
X104498258Y-83944560D01*
X104496588Y-83943444D01*
X104486987Y-83933289D01*
X104484398Y-83930700D01*
X104484471Y-83930627D01*
X104435744Y-83879089D01*
X104408849Y-83794708D01*
X104421229Y-83707014D01*
X104447480Y-83666508D01*
X104444552Y-83664552D01*
X104477980Y-83614525D01*
X104477981Y-83614523D01*
X104488867Y-83598231D01*
X104500500Y-83539748D01*
X104500500Y-83000252D01*
X104488867Y-82941769D01*
X104477980Y-82925476D01*
X104477978Y-82925471D01*
X104468015Y-82910561D01*
X104436429Y-82827822D01*
X104443872Y-82739572D01*
X104468015Y-82689439D01*
X104477978Y-82674529D01*
X104477980Y-82674524D01*
X104488867Y-82658231D01*
X104500500Y-82599748D01*
X104500500Y-82349500D01*
X104520207Y-82263157D01*
X104575426Y-82193916D01*
X104655218Y-82155489D01*
X104699500Y-82150500D01*
X104933433Y-82150500D01*
X104948890Y-82145478D01*
X104979257Y-82138187D01*
X104995304Y-82135646D01*
X105009258Y-82128536D01*
X105009261Y-82128535D01*
X105009784Y-82128268D01*
X105038634Y-82116318D01*
X105039191Y-82116137D01*
X105054090Y-82111296D01*
X105067242Y-82101740D01*
X105093869Y-82085424D01*
X105108342Y-82078050D01*
X105130905Y-82055487D01*
X105130909Y-82055484D01*
X105207607Y-81978786D01*
X105282595Y-81931667D01*
X105348321Y-81920500D01*
X105519748Y-81920500D01*
X105531820Y-81918099D01*
X105554383Y-81913611D01*
X105642911Y-81916095D01*
G37*
G04 #@! TD.AperFunction*
M02*
