G04 #@! TF.GenerationSoftware,KiCad,Pcbnew,5.1.5+dfsg1-2build2*
G04 #@! TF.CreationDate,2021-12-29T20:58:04+01:00*
G04 #@! TF.ProjectId,teebeutel_image_sensor,74656562-6575-4746-956c-5f696d616765,rev?*
G04 #@! TF.SameCoordinates,Original*
G04 #@! TF.FileFunction,Legend,Top*
G04 #@! TF.FilePolarity,Positive*
%FSLAX46Y46*%
G04 Gerber Fmt 4.6, Leading zero omitted, Abs format (unit mm)*
G04 Created by KiCad (PCBNEW 5.1.5+dfsg1-2build2) date 2021-12-29 20:58:04*
%MOMM*%
%LPD*%
G04 APERTURE LIST*
%ADD10C,0.150000*%
%ADD11C,0.200000*%
%ADD12C,0.010000*%
%ADD13C,0.120000*%
G04 APERTURE END LIST*
D10*
X77214285Y-103685714D02*
X77214285Y-104495238D01*
X77166666Y-104590476D01*
X77119047Y-104638095D01*
X77023809Y-104685714D01*
X76880952Y-104685714D01*
X76785714Y-104638095D01*
X77214285Y-104304761D02*
X77119047Y-104352380D01*
X76928571Y-104352380D01*
X76833333Y-104304761D01*
X76785714Y-104257142D01*
X76738095Y-104161904D01*
X76738095Y-103876190D01*
X76785714Y-103780952D01*
X76833333Y-103733333D01*
X76928571Y-103685714D01*
X77119047Y-103685714D01*
X77214285Y-103733333D01*
X77690476Y-104352380D02*
X77690476Y-103685714D01*
X77690476Y-103352380D02*
X77642857Y-103400000D01*
X77690476Y-103447619D01*
X77738095Y-103400000D01*
X77690476Y-103352380D01*
X77690476Y-103447619D01*
X78023809Y-103685714D02*
X78404761Y-103685714D01*
X78166666Y-103352380D02*
X78166666Y-104209523D01*
X78214285Y-104304761D01*
X78309523Y-104352380D01*
X78404761Y-104352380D01*
X78738095Y-104352380D02*
X78738095Y-103352380D01*
X79166666Y-104352380D02*
X79166666Y-103828571D01*
X79119047Y-103733333D01*
X79023809Y-103685714D01*
X78880952Y-103685714D01*
X78785714Y-103733333D01*
X78738095Y-103780952D01*
X80071428Y-103685714D02*
X80071428Y-104352380D01*
X79642857Y-103685714D02*
X79642857Y-104209523D01*
X79690476Y-104304761D01*
X79785714Y-104352380D01*
X79928571Y-104352380D01*
X80023809Y-104304761D01*
X80071428Y-104257142D01*
X80547619Y-104352380D02*
X80547619Y-103352380D01*
X80547619Y-103733333D02*
X80642857Y-103685714D01*
X80833333Y-103685714D01*
X80928571Y-103733333D01*
X80976190Y-103780952D01*
X81023809Y-103876190D01*
X81023809Y-104161904D01*
X80976190Y-104257142D01*
X80928571Y-104304761D01*
X80833333Y-104352380D01*
X80642857Y-104352380D01*
X80547619Y-104304761D01*
X81452380Y-104257142D02*
X81500000Y-104304761D01*
X81452380Y-104352380D01*
X81404761Y-104304761D01*
X81452380Y-104257142D01*
X81452380Y-104352380D01*
X82357142Y-104304761D02*
X82261904Y-104352380D01*
X82071428Y-104352380D01*
X81976190Y-104304761D01*
X81928571Y-104257142D01*
X81880952Y-104161904D01*
X81880952Y-103876190D01*
X81928571Y-103780952D01*
X81976190Y-103733333D01*
X82071428Y-103685714D01*
X82261904Y-103685714D01*
X82357142Y-103733333D01*
X82928571Y-104352380D02*
X82833333Y-104304761D01*
X82785714Y-104257142D01*
X82738095Y-104161904D01*
X82738095Y-103876190D01*
X82785714Y-103780952D01*
X82833333Y-103733333D01*
X82928571Y-103685714D01*
X83071428Y-103685714D01*
X83166666Y-103733333D01*
X83214285Y-103780952D01*
X83261904Y-103876190D01*
X83261904Y-104161904D01*
X83214285Y-104257142D01*
X83166666Y-104304761D01*
X83071428Y-104352380D01*
X82928571Y-104352380D01*
X83690476Y-104352380D02*
X83690476Y-103685714D01*
X83690476Y-103780952D02*
X83738095Y-103733333D01*
X83833333Y-103685714D01*
X83976190Y-103685714D01*
X84071428Y-103733333D01*
X84119047Y-103828571D01*
X84119047Y-104352380D01*
X84119047Y-103828571D02*
X84166666Y-103733333D01*
X84261904Y-103685714D01*
X84404761Y-103685714D01*
X84500000Y-103733333D01*
X84547619Y-103828571D01*
X84547619Y-104352380D01*
X85738095Y-103304761D02*
X84880952Y-104590476D01*
X86357142Y-103352380D02*
X86357142Y-104066666D01*
X86309523Y-104209523D01*
X86214285Y-104304761D01*
X86071428Y-104352380D01*
X85976190Y-104352380D01*
X87261904Y-104352380D02*
X87261904Y-103828571D01*
X87214285Y-103733333D01*
X87119047Y-103685714D01*
X86928571Y-103685714D01*
X86833333Y-103733333D01*
X87261904Y-104304761D02*
X87166666Y-104352380D01*
X86928571Y-104352380D01*
X86833333Y-104304761D01*
X86785714Y-104209523D01*
X86785714Y-104114285D01*
X86833333Y-104019047D01*
X86928571Y-103971428D01*
X87166666Y-103971428D01*
X87261904Y-103923809D01*
X87738095Y-103685714D02*
X87738095Y-104352380D01*
X87738095Y-103780952D02*
X87785714Y-103733333D01*
X87880952Y-103685714D01*
X88023809Y-103685714D01*
X88119047Y-103733333D01*
X88166666Y-103828571D01*
X88166666Y-104352380D01*
X89071428Y-104352380D02*
X89071428Y-103828571D01*
X89023809Y-103733333D01*
X88928571Y-103685714D01*
X88738095Y-103685714D01*
X88642857Y-103733333D01*
X89071428Y-104304761D02*
X88976190Y-104352380D01*
X88738095Y-104352380D01*
X88642857Y-104304761D01*
X88595238Y-104209523D01*
X88595238Y-104114285D01*
X88642857Y-104019047D01*
X88738095Y-103971428D01*
X88976190Y-103971428D01*
X89071428Y-103923809D01*
X89547619Y-103971428D02*
X90309523Y-103971428D01*
X90785714Y-104352380D02*
X90785714Y-103352380D01*
X91119047Y-104066666D01*
X91452380Y-103352380D01*
X91452380Y-104352380D01*
X92357142Y-104352380D02*
X92357142Y-103828571D01*
X92309523Y-103733333D01*
X92214285Y-103685714D01*
X92023809Y-103685714D01*
X91928571Y-103733333D01*
X92357142Y-104304761D02*
X92261904Y-104352380D01*
X92023809Y-104352380D01*
X91928571Y-104304761D01*
X91880952Y-104209523D01*
X91880952Y-104114285D01*
X91928571Y-104019047D01*
X92023809Y-103971428D01*
X92261904Y-103971428D01*
X92357142Y-103923809D01*
X92833333Y-104352380D02*
X92833333Y-103685714D01*
X92833333Y-103876190D02*
X92880952Y-103780952D01*
X92928571Y-103733333D01*
X93023809Y-103685714D01*
X93119047Y-103685714D01*
X93452380Y-104352380D02*
X93452380Y-103685714D01*
X93452380Y-103352380D02*
X93404761Y-103400000D01*
X93452380Y-103447619D01*
X93500000Y-103400000D01*
X93452380Y-103352380D01*
X93452380Y-103447619D01*
X94309523Y-104304761D02*
X94214285Y-104352380D01*
X94023809Y-104352380D01*
X93928571Y-104304761D01*
X93880952Y-104209523D01*
X93880952Y-103828571D01*
X93928571Y-103733333D01*
X94023809Y-103685714D01*
X94214285Y-103685714D01*
X94309523Y-103733333D01*
X94357142Y-103828571D01*
X94357142Y-103923809D01*
X93880952Y-104019047D01*
X95500000Y-103304761D02*
X94642857Y-104590476D01*
X95690476Y-103352380D02*
X96261904Y-103352380D01*
X95976190Y-104352380D02*
X95976190Y-103352380D01*
X96976190Y-104304761D02*
X96880952Y-104352380D01*
X96690476Y-104352380D01*
X96595238Y-104304761D01*
X96547619Y-104209523D01*
X96547619Y-103828571D01*
X96595238Y-103733333D01*
X96690476Y-103685714D01*
X96880952Y-103685714D01*
X96976190Y-103733333D01*
X97023809Y-103828571D01*
X97023809Y-103923809D01*
X96547619Y-104019047D01*
X97833333Y-104304761D02*
X97738095Y-104352380D01*
X97547619Y-104352380D01*
X97452380Y-104304761D01*
X97404761Y-104209523D01*
X97404761Y-103828571D01*
X97452380Y-103733333D01*
X97547619Y-103685714D01*
X97738095Y-103685714D01*
X97833333Y-103733333D01*
X97880952Y-103828571D01*
X97880952Y-103923809D01*
X97404761Y-104019047D01*
X98309523Y-104352380D02*
X98309523Y-103352380D01*
X98309523Y-103733333D02*
X98404761Y-103685714D01*
X98595238Y-103685714D01*
X98690476Y-103733333D01*
X98738095Y-103780952D01*
X98785714Y-103876190D01*
X98785714Y-104161904D01*
X98738095Y-104257142D01*
X98690476Y-104304761D01*
X98595238Y-104352380D01*
X98404761Y-104352380D01*
X98309523Y-104304761D01*
X99595238Y-104304761D02*
X99500000Y-104352380D01*
X99309523Y-104352380D01*
X99214285Y-104304761D01*
X99166666Y-104209523D01*
X99166666Y-103828571D01*
X99214285Y-103733333D01*
X99309523Y-103685714D01*
X99500000Y-103685714D01*
X99595238Y-103733333D01*
X99642857Y-103828571D01*
X99642857Y-103923809D01*
X99166666Y-104019047D01*
X100500000Y-103685714D02*
X100500000Y-104352380D01*
X100071428Y-103685714D02*
X100071428Y-104209523D01*
X100119047Y-104304761D01*
X100214285Y-104352380D01*
X100357142Y-104352380D01*
X100452380Y-104304761D01*
X100500000Y-104257142D01*
X100833333Y-103685714D02*
X101214285Y-103685714D01*
X100976190Y-103352380D02*
X100976190Y-104209523D01*
X101023809Y-104304761D01*
X101119047Y-104352380D01*
X101214285Y-104352380D01*
X101928571Y-104304761D02*
X101833333Y-104352380D01*
X101642857Y-104352380D01*
X101547619Y-104304761D01*
X101500000Y-104209523D01*
X101500000Y-103828571D01*
X101547619Y-103733333D01*
X101642857Y-103685714D01*
X101833333Y-103685714D01*
X101928571Y-103733333D01*
X101976190Y-103828571D01*
X101976190Y-103923809D01*
X101500000Y-104019047D01*
X102547619Y-104352380D02*
X102452380Y-104304761D01*
X102404761Y-104209523D01*
X102404761Y-103352380D01*
X102928571Y-103971428D02*
X103690476Y-103971428D01*
X104166666Y-104352380D02*
X104166666Y-103352380D01*
X104642857Y-104352380D02*
X104642857Y-103685714D01*
X104642857Y-103780952D02*
X104690476Y-103733333D01*
X104785714Y-103685714D01*
X104928571Y-103685714D01*
X105023809Y-103733333D01*
X105071428Y-103828571D01*
X105071428Y-104352380D01*
X105071428Y-103828571D02*
X105119047Y-103733333D01*
X105214285Y-103685714D01*
X105357142Y-103685714D01*
X105452380Y-103733333D01*
X105500000Y-103828571D01*
X105500000Y-104352380D01*
X106404761Y-104352380D02*
X106404761Y-103828571D01*
X106357142Y-103733333D01*
X106261904Y-103685714D01*
X106071428Y-103685714D01*
X105976190Y-103733333D01*
X106404761Y-104304761D02*
X106309523Y-104352380D01*
X106071428Y-104352380D01*
X105976190Y-104304761D01*
X105928571Y-104209523D01*
X105928571Y-104114285D01*
X105976190Y-104019047D01*
X106071428Y-103971428D01*
X106309523Y-103971428D01*
X106404761Y-103923809D01*
X107309523Y-103685714D02*
X107309523Y-104495238D01*
X107261904Y-104590476D01*
X107214285Y-104638095D01*
X107119047Y-104685714D01*
X106976190Y-104685714D01*
X106880952Y-104638095D01*
X107309523Y-104304761D02*
X107214285Y-104352380D01*
X107023809Y-104352380D01*
X106928571Y-104304761D01*
X106880952Y-104257142D01*
X106833333Y-104161904D01*
X106833333Y-103876190D01*
X106880952Y-103780952D01*
X106928571Y-103733333D01*
X107023809Y-103685714D01*
X107214285Y-103685714D01*
X107309523Y-103733333D01*
X108166666Y-104304761D02*
X108071428Y-104352380D01*
X107880952Y-104352380D01*
X107785714Y-104304761D01*
X107738095Y-104209523D01*
X107738095Y-103828571D01*
X107785714Y-103733333D01*
X107880952Y-103685714D01*
X108071428Y-103685714D01*
X108166666Y-103733333D01*
X108214285Y-103828571D01*
X108214285Y-103923809D01*
X107738095Y-104019047D01*
X108642857Y-103971428D02*
X109404761Y-103971428D01*
X109833333Y-104304761D02*
X109976190Y-104352380D01*
X110214285Y-104352380D01*
X110309523Y-104304761D01*
X110357142Y-104257142D01*
X110404761Y-104161904D01*
X110404761Y-104066666D01*
X110357142Y-103971428D01*
X110309523Y-103923809D01*
X110214285Y-103876190D01*
X110023809Y-103828571D01*
X109928571Y-103780952D01*
X109880952Y-103733333D01*
X109833333Y-103638095D01*
X109833333Y-103542857D01*
X109880952Y-103447619D01*
X109928571Y-103400000D01*
X110023809Y-103352380D01*
X110261904Y-103352380D01*
X110404761Y-103400000D01*
X111214285Y-104304761D02*
X111119047Y-104352380D01*
X110928571Y-104352380D01*
X110833333Y-104304761D01*
X110785714Y-104209523D01*
X110785714Y-103828571D01*
X110833333Y-103733333D01*
X110928571Y-103685714D01*
X111119047Y-103685714D01*
X111214285Y-103733333D01*
X111261904Y-103828571D01*
X111261904Y-103923809D01*
X110785714Y-104019047D01*
X111690476Y-103685714D02*
X111690476Y-104352380D01*
X111690476Y-103780952D02*
X111738095Y-103733333D01*
X111833333Y-103685714D01*
X111976190Y-103685714D01*
X112071428Y-103733333D01*
X112119047Y-103828571D01*
X112119047Y-104352380D01*
X112547619Y-104304761D02*
X112642857Y-104352380D01*
X112833333Y-104352380D01*
X112928571Y-104304761D01*
X112976190Y-104209523D01*
X112976190Y-104161904D01*
X112928571Y-104066666D01*
X112833333Y-104019047D01*
X112690476Y-104019047D01*
X112595238Y-103971428D01*
X112547619Y-103876190D01*
X112547619Y-103828571D01*
X112595238Y-103733333D01*
X112690476Y-103685714D01*
X112833333Y-103685714D01*
X112928571Y-103733333D01*
X113547619Y-104352380D02*
X113452380Y-104304761D01*
X113404761Y-104257142D01*
X113357142Y-104161904D01*
X113357142Y-103876190D01*
X113404761Y-103780952D01*
X113452380Y-103733333D01*
X113547619Y-103685714D01*
X113690476Y-103685714D01*
X113785714Y-103733333D01*
X113833333Y-103780952D01*
X113880952Y-103876190D01*
X113880952Y-104161904D01*
X113833333Y-104257142D01*
X113785714Y-104304761D01*
X113690476Y-104352380D01*
X113547619Y-104352380D01*
X114309523Y-104352380D02*
X114309523Y-103685714D01*
X114309523Y-103876190D02*
X114357142Y-103780952D01*
X114404761Y-103733333D01*
X114499999Y-103685714D01*
X114595238Y-103685714D01*
X114928571Y-103971428D02*
X115690476Y-103971428D01*
X116166666Y-103828571D02*
X116500000Y-103828571D01*
X116642857Y-104352380D02*
X116166666Y-104352380D01*
X116166666Y-103352380D01*
X116642857Y-103352380D01*
X116976190Y-104352380D02*
X117499999Y-103685714D01*
X116976190Y-103685714D02*
X117499999Y-104352380D01*
X117880952Y-103685714D02*
X117880952Y-104685714D01*
X117880952Y-103733333D02*
X117976190Y-103685714D01*
X118166666Y-103685714D01*
X118261904Y-103733333D01*
X118309523Y-103780952D01*
X118357142Y-103876190D01*
X118357142Y-104161904D01*
X118309523Y-104257142D01*
X118261904Y-104304761D01*
X118166666Y-104352380D01*
X117976190Y-104352380D01*
X117880952Y-104304761D01*
X119214285Y-104352380D02*
X119214285Y-103828571D01*
X119166666Y-103733333D01*
X119071428Y-103685714D01*
X118880952Y-103685714D01*
X118785714Y-103733333D01*
X119214285Y-104304761D02*
X119119047Y-104352380D01*
X118880952Y-104352380D01*
X118785714Y-104304761D01*
X118738095Y-104209523D01*
X118738095Y-104114285D01*
X118785714Y-104019047D01*
X118880952Y-103971428D01*
X119119047Y-103971428D01*
X119214285Y-103923809D01*
X119690476Y-103685714D02*
X119690476Y-104352380D01*
X119690476Y-103780952D02*
X119738095Y-103733333D01*
X119833333Y-103685714D01*
X119976190Y-103685714D01*
X120071428Y-103733333D01*
X120119047Y-103828571D01*
X120119047Y-104352380D01*
X120547619Y-104304761D02*
X120642857Y-104352380D01*
X120833333Y-104352380D01*
X120928571Y-104304761D01*
X120976190Y-104209523D01*
X120976190Y-104161904D01*
X120928571Y-104066666D01*
X120833333Y-104019047D01*
X120690476Y-104019047D01*
X120595238Y-103971428D01*
X120547619Y-103876190D01*
X120547619Y-103828571D01*
X120595238Y-103733333D01*
X120690476Y-103685714D01*
X120833333Y-103685714D01*
X120928571Y-103733333D01*
X121404761Y-104352380D02*
X121404761Y-103685714D01*
X121404761Y-103352380D02*
X121357142Y-103400000D01*
X121404761Y-103447619D01*
X121452380Y-103400000D01*
X121404761Y-103352380D01*
X121404761Y-103447619D01*
X122023809Y-104352380D02*
X121928571Y-104304761D01*
X121880952Y-104257142D01*
X121833333Y-104161904D01*
X121833333Y-103876190D01*
X121880952Y-103780952D01*
X121928571Y-103733333D01*
X122023809Y-103685714D01*
X122166666Y-103685714D01*
X122261904Y-103733333D01*
X122309523Y-103780952D01*
X122357142Y-103876190D01*
X122357142Y-104161904D01*
X122309523Y-104257142D01*
X122261904Y-104304761D01*
X122166666Y-104352380D01*
X122023809Y-104352380D01*
X122785714Y-103685714D02*
X122785714Y-104352380D01*
X122785714Y-103780952D02*
X122833333Y-103733333D01*
X122928571Y-103685714D01*
X123071428Y-103685714D01*
X123166666Y-103733333D01*
X123214285Y-103828571D01*
X123214285Y-104352380D01*
X97023809Y-88102380D02*
X97023809Y-87102380D01*
X97023809Y-88054761D02*
X96928571Y-88102380D01*
X96738095Y-88102380D01*
X96642857Y-88054761D01*
X96595238Y-88007142D01*
X96547619Y-87911904D01*
X96547619Y-87626190D01*
X96595238Y-87530952D01*
X96642857Y-87483333D01*
X96738095Y-87435714D01*
X96928571Y-87435714D01*
X97023809Y-87483333D01*
X97880952Y-88054761D02*
X97785714Y-88102380D01*
X97595238Y-88102380D01*
X97500000Y-88054761D01*
X97452380Y-87959523D01*
X97452380Y-87578571D01*
X97500000Y-87483333D01*
X97595238Y-87435714D01*
X97785714Y-87435714D01*
X97880952Y-87483333D01*
X97928571Y-87578571D01*
X97928571Y-87673809D01*
X97452380Y-87769047D01*
X98309523Y-88054761D02*
X98404761Y-88102380D01*
X98595238Y-88102380D01*
X98690476Y-88054761D01*
X98738095Y-87959523D01*
X98738095Y-87911904D01*
X98690476Y-87816666D01*
X98595238Y-87769047D01*
X98452380Y-87769047D01*
X98357142Y-87721428D01*
X98309523Y-87626190D01*
X98309523Y-87578571D01*
X98357142Y-87483333D01*
X98452380Y-87435714D01*
X98595238Y-87435714D01*
X98690476Y-87483333D01*
X99166666Y-88102380D02*
X99166666Y-87435714D01*
X99166666Y-87102380D02*
X99119047Y-87150000D01*
X99166666Y-87197619D01*
X99214285Y-87150000D01*
X99166666Y-87102380D01*
X99166666Y-87197619D01*
X100071428Y-87435714D02*
X100071428Y-88245238D01*
X100023809Y-88340476D01*
X99976190Y-88388095D01*
X99880952Y-88435714D01*
X99738095Y-88435714D01*
X99642857Y-88388095D01*
X100071428Y-88054761D02*
X99976190Y-88102380D01*
X99785714Y-88102380D01*
X99690476Y-88054761D01*
X99642857Y-88007142D01*
X99595238Y-87911904D01*
X99595238Y-87626190D01*
X99642857Y-87530952D01*
X99690476Y-87483333D01*
X99785714Y-87435714D01*
X99976190Y-87435714D01*
X100071428Y-87483333D01*
X100547619Y-87435714D02*
X100547619Y-88102380D01*
X100547619Y-87530952D02*
X100595238Y-87483333D01*
X100690476Y-87435714D01*
X100833333Y-87435714D01*
X100928571Y-87483333D01*
X100976190Y-87578571D01*
X100976190Y-88102380D01*
X102214285Y-88102380D02*
X102214285Y-87102380D01*
X102214285Y-87483333D02*
X102309523Y-87435714D01*
X102500000Y-87435714D01*
X102595238Y-87483333D01*
X102642857Y-87530952D01*
X102690476Y-87626190D01*
X102690476Y-87911904D01*
X102642857Y-88007142D01*
X102595238Y-88054761D01*
X102500000Y-88102380D01*
X102309523Y-88102380D01*
X102214285Y-88054761D01*
X103023809Y-87435714D02*
X103261904Y-88102380D01*
X103500000Y-87435714D02*
X103261904Y-88102380D01*
X103166666Y-88340476D01*
X103119047Y-88388095D01*
X103023809Y-88435714D01*
X95714285Y-89276190D02*
X95666666Y-89228571D01*
X95571428Y-89180952D01*
X95476190Y-89180952D01*
X95380952Y-89228571D01*
X95333333Y-89276190D01*
X95285714Y-89371428D01*
X95285714Y-89466666D01*
X95333333Y-89561904D01*
X95380952Y-89609523D01*
X95476190Y-89657142D01*
X95571428Y-89657142D01*
X95666666Y-89609523D01*
X95714285Y-89561904D01*
X95714285Y-89180952D02*
X95714285Y-89561904D01*
X95761904Y-89609523D01*
X95809523Y-89609523D01*
X95904761Y-89561904D01*
X95952380Y-89466666D01*
X95952380Y-89228571D01*
X95857142Y-89085714D01*
X95714285Y-88990476D01*
X95523809Y-88942857D01*
X95333333Y-88990476D01*
X95190476Y-89085714D01*
X95095238Y-89228571D01*
X95047619Y-89419047D01*
X95095238Y-89609523D01*
X95190476Y-89752380D01*
X95333333Y-89847619D01*
X95523809Y-89895238D01*
X95714285Y-89847619D01*
X95857142Y-89752380D01*
X96142857Y-89847619D02*
X96904761Y-89847619D01*
X97428571Y-88752380D02*
X97428571Y-89466666D01*
X97380952Y-89609523D01*
X97285714Y-89704761D01*
X97142857Y-89752380D01*
X97047619Y-89752380D01*
X98333333Y-89752380D02*
X98333333Y-89228571D01*
X98285714Y-89133333D01*
X98190476Y-89085714D01*
X98000000Y-89085714D01*
X97904761Y-89133333D01*
X98333333Y-89704761D02*
X98238095Y-89752380D01*
X98000000Y-89752380D01*
X97904761Y-89704761D01*
X97857142Y-89609523D01*
X97857142Y-89514285D01*
X97904761Y-89419047D01*
X98000000Y-89371428D01*
X98238095Y-89371428D01*
X98333333Y-89323809D01*
X98809523Y-89085714D02*
X98809523Y-89752380D01*
X98809523Y-89180952D02*
X98857142Y-89133333D01*
X98952380Y-89085714D01*
X99095238Y-89085714D01*
X99190476Y-89133333D01*
X99238095Y-89228571D01*
X99238095Y-89752380D01*
X100142857Y-89752380D02*
X100142857Y-89228571D01*
X100095238Y-89133333D01*
X100000000Y-89085714D01*
X99809523Y-89085714D01*
X99714285Y-89133333D01*
X100142857Y-89704761D02*
X100047619Y-89752380D01*
X99809523Y-89752380D01*
X99714285Y-89704761D01*
X99666666Y-89609523D01*
X99666666Y-89514285D01*
X99714285Y-89419047D01*
X99809523Y-89371428D01*
X100047619Y-89371428D01*
X100142857Y-89323809D01*
X100380952Y-89847619D02*
X101142857Y-89847619D01*
X101380952Y-89752380D02*
X101380952Y-88752380D01*
X101714285Y-89466666D01*
X102047619Y-88752380D01*
X102047619Y-89752380D01*
X102952380Y-89752380D02*
X102952380Y-89228571D01*
X102904761Y-89133333D01*
X102809523Y-89085714D01*
X102619047Y-89085714D01*
X102523809Y-89133333D01*
X102952380Y-89704761D02*
X102857142Y-89752380D01*
X102619047Y-89752380D01*
X102523809Y-89704761D01*
X102476190Y-89609523D01*
X102476190Y-89514285D01*
X102523809Y-89419047D01*
X102619047Y-89371428D01*
X102857142Y-89371428D01*
X102952380Y-89323809D01*
X103428571Y-89752380D02*
X103428571Y-89085714D01*
X103428571Y-89276190D02*
X103476190Y-89180952D01*
X103523809Y-89133333D01*
X103619047Y-89085714D01*
X103714285Y-89085714D01*
X104047619Y-89752380D02*
X104047619Y-89085714D01*
X104047619Y-88752380D02*
X104000000Y-88800000D01*
X104047619Y-88847619D01*
X104095238Y-88800000D01*
X104047619Y-88752380D01*
X104047619Y-88847619D01*
X104904761Y-89704761D02*
X104809523Y-89752380D01*
X104619047Y-89752380D01*
X104523809Y-89704761D01*
X104476190Y-89609523D01*
X104476190Y-89228571D01*
X104523809Y-89133333D01*
X104619047Y-89085714D01*
X104809523Y-89085714D01*
X104904761Y-89133333D01*
X104952380Y-89228571D01*
X104952380Y-89323809D01*
X104476190Y-89419047D01*
X96714285Y-90497619D02*
X96761904Y-90450000D01*
X96857142Y-90402380D01*
X97095238Y-90402380D01*
X97190476Y-90450000D01*
X97238095Y-90497619D01*
X97285714Y-90592857D01*
X97285714Y-90688095D01*
X97238095Y-90830952D01*
X96666666Y-91402380D01*
X97285714Y-91402380D01*
X97904761Y-90402380D02*
X98000000Y-90402380D01*
X98095238Y-90450000D01*
X98142857Y-90497619D01*
X98190476Y-90592857D01*
X98238095Y-90783333D01*
X98238095Y-91021428D01*
X98190476Y-91211904D01*
X98142857Y-91307142D01*
X98095238Y-91354761D01*
X98000000Y-91402380D01*
X97904761Y-91402380D01*
X97809523Y-91354761D01*
X97761904Y-91307142D01*
X97714285Y-91211904D01*
X97666666Y-91021428D01*
X97666666Y-90783333D01*
X97714285Y-90592857D01*
X97761904Y-90497619D01*
X97809523Y-90450000D01*
X97904761Y-90402380D01*
X98619047Y-90497619D02*
X98666666Y-90450000D01*
X98761904Y-90402380D01*
X99000000Y-90402380D01*
X99095238Y-90450000D01*
X99142857Y-90497619D01*
X99190476Y-90592857D01*
X99190476Y-90688095D01*
X99142857Y-90830952D01*
X98571428Y-91402380D01*
X99190476Y-91402380D01*
X100142857Y-91402380D02*
X99571428Y-91402380D01*
X99857142Y-91402380D02*
X99857142Y-90402380D01*
X99761904Y-90545238D01*
X99666666Y-90640476D01*
X99571428Y-90688095D01*
X100571428Y-91021428D02*
X101333333Y-91021428D01*
X102333333Y-91402380D02*
X101761904Y-91402380D01*
X102047619Y-91402380D02*
X102047619Y-90402380D01*
X101952380Y-90545238D01*
X101857142Y-90640476D01*
X101761904Y-90688095D01*
X102714285Y-90497619D02*
X102761904Y-90450000D01*
X102857142Y-90402380D01*
X103095238Y-90402380D01*
X103190476Y-90450000D01*
X103238095Y-90497619D01*
X103285714Y-90592857D01*
X103285714Y-90688095D01*
X103238095Y-90830952D01*
X102666666Y-91402380D01*
X103285714Y-91402380D01*
D11*
X89964285Y-80703571D02*
X90821428Y-80703571D01*
X90392857Y-82203571D02*
X90392857Y-80703571D01*
X91892857Y-82132142D02*
X91750000Y-82203571D01*
X91464285Y-82203571D01*
X91321428Y-82132142D01*
X91250000Y-81989285D01*
X91250000Y-81417857D01*
X91321428Y-81275000D01*
X91464285Y-81203571D01*
X91750000Y-81203571D01*
X91892857Y-81275000D01*
X91964285Y-81417857D01*
X91964285Y-81560714D01*
X91250000Y-81703571D01*
X93178571Y-82132142D02*
X93035714Y-82203571D01*
X92750000Y-82203571D01*
X92607142Y-82132142D01*
X92535714Y-81989285D01*
X92535714Y-81417857D01*
X92607142Y-81275000D01*
X92750000Y-81203571D01*
X93035714Y-81203571D01*
X93178571Y-81275000D01*
X93250000Y-81417857D01*
X93250000Y-81560714D01*
X92535714Y-81703571D01*
X93892857Y-82203571D02*
X93892857Y-80703571D01*
X93892857Y-81275000D02*
X94035714Y-81203571D01*
X94321428Y-81203571D01*
X94464285Y-81275000D01*
X94535714Y-81346428D01*
X94607142Y-81489285D01*
X94607142Y-81917857D01*
X94535714Y-82060714D01*
X94464285Y-82132142D01*
X94321428Y-82203571D01*
X94035714Y-82203571D01*
X93892857Y-82132142D01*
X95821428Y-82132142D02*
X95678571Y-82203571D01*
X95392857Y-82203571D01*
X95250000Y-82132142D01*
X95178571Y-81989285D01*
X95178571Y-81417857D01*
X95250000Y-81275000D01*
X95392857Y-81203571D01*
X95678571Y-81203571D01*
X95821428Y-81275000D01*
X95892857Y-81417857D01*
X95892857Y-81560714D01*
X95178571Y-81703571D01*
X97178571Y-81203571D02*
X97178571Y-82203571D01*
X96535714Y-81203571D02*
X96535714Y-81989285D01*
X96607142Y-82132142D01*
X96750000Y-82203571D01*
X96964285Y-82203571D01*
X97107142Y-82132142D01*
X97178571Y-82060714D01*
X97678571Y-81203571D02*
X98250000Y-81203571D01*
X97892857Y-80703571D02*
X97892857Y-81989285D01*
X97964285Y-82132142D01*
X98107142Y-82203571D01*
X98250000Y-82203571D01*
X99321428Y-82132142D02*
X99178571Y-82203571D01*
X98892857Y-82203571D01*
X98750000Y-82132142D01*
X98678571Y-81989285D01*
X98678571Y-81417857D01*
X98750000Y-81275000D01*
X98892857Y-81203571D01*
X99178571Y-81203571D01*
X99321428Y-81275000D01*
X99392857Y-81417857D01*
X99392857Y-81560714D01*
X98678571Y-81703571D01*
X100250000Y-82203571D02*
X100107142Y-82132142D01*
X100035714Y-81989285D01*
X100035714Y-80703571D01*
X101964285Y-82203571D02*
X101964285Y-80703571D01*
X102678571Y-82203571D02*
X102678571Y-81203571D01*
X102678571Y-81346428D02*
X102750000Y-81275000D01*
X102892857Y-81203571D01*
X103107142Y-81203571D01*
X103250000Y-81275000D01*
X103321428Y-81417857D01*
X103321428Y-82203571D01*
X103321428Y-81417857D02*
X103392857Y-81275000D01*
X103535714Y-81203571D01*
X103750000Y-81203571D01*
X103892857Y-81275000D01*
X103964285Y-81417857D01*
X103964285Y-82203571D01*
X105321428Y-82203571D02*
X105321428Y-81417857D01*
X105250000Y-81275000D01*
X105107142Y-81203571D01*
X104821428Y-81203571D01*
X104678571Y-81275000D01*
X105321428Y-82132142D02*
X105178571Y-82203571D01*
X104821428Y-82203571D01*
X104678571Y-82132142D01*
X104607142Y-81989285D01*
X104607142Y-81846428D01*
X104678571Y-81703571D01*
X104821428Y-81632142D01*
X105178571Y-81632142D01*
X105321428Y-81560714D01*
X106678571Y-81203571D02*
X106678571Y-82417857D01*
X106607142Y-82560714D01*
X106535714Y-82632142D01*
X106392857Y-82703571D01*
X106178571Y-82703571D01*
X106035714Y-82632142D01*
X106678571Y-82132142D02*
X106535714Y-82203571D01*
X106250000Y-82203571D01*
X106107142Y-82132142D01*
X106035714Y-82060714D01*
X105964285Y-81917857D01*
X105964285Y-81489285D01*
X106035714Y-81346428D01*
X106107142Y-81275000D01*
X106250000Y-81203571D01*
X106535714Y-81203571D01*
X106678571Y-81275000D01*
X107964285Y-82132142D02*
X107821428Y-82203571D01*
X107535714Y-82203571D01*
X107392857Y-82132142D01*
X107321428Y-81989285D01*
X107321428Y-81417857D01*
X107392857Y-81275000D01*
X107535714Y-81203571D01*
X107821428Y-81203571D01*
X107964285Y-81275000D01*
X108035714Y-81417857D01*
X108035714Y-81560714D01*
X107321428Y-81703571D01*
X108678571Y-81632142D02*
X109821428Y-81632142D01*
X92678571Y-84582142D02*
X92892857Y-84653571D01*
X93250000Y-84653571D01*
X93392857Y-84582142D01*
X93464285Y-84510714D01*
X93535714Y-84367857D01*
X93535714Y-84225000D01*
X93464285Y-84082142D01*
X93392857Y-84010714D01*
X93250000Y-83939285D01*
X92964285Y-83867857D01*
X92821428Y-83796428D01*
X92750000Y-83725000D01*
X92678571Y-83582142D01*
X92678571Y-83439285D01*
X92750000Y-83296428D01*
X92821428Y-83225000D01*
X92964285Y-83153571D01*
X93321428Y-83153571D01*
X93535714Y-83225000D01*
X94750000Y-84582142D02*
X94607142Y-84653571D01*
X94321428Y-84653571D01*
X94178571Y-84582142D01*
X94107142Y-84439285D01*
X94107142Y-83867857D01*
X94178571Y-83725000D01*
X94321428Y-83653571D01*
X94607142Y-83653571D01*
X94750000Y-83725000D01*
X94821428Y-83867857D01*
X94821428Y-84010714D01*
X94107142Y-84153571D01*
X95464285Y-83653571D02*
X95464285Y-84653571D01*
X95464285Y-83796428D02*
X95535714Y-83725000D01*
X95678571Y-83653571D01*
X95892857Y-83653571D01*
X96035714Y-83725000D01*
X96107142Y-83867857D01*
X96107142Y-84653571D01*
X96750000Y-84582142D02*
X96892857Y-84653571D01*
X97178571Y-84653571D01*
X97321428Y-84582142D01*
X97392857Y-84439285D01*
X97392857Y-84367857D01*
X97321428Y-84225000D01*
X97178571Y-84153571D01*
X96964285Y-84153571D01*
X96821428Y-84082142D01*
X96750000Y-83939285D01*
X96750000Y-83867857D01*
X96821428Y-83725000D01*
X96964285Y-83653571D01*
X97178571Y-83653571D01*
X97321428Y-83725000D01*
X98250000Y-84653571D02*
X98107142Y-84582142D01*
X98035714Y-84510714D01*
X97964285Y-84367857D01*
X97964285Y-83939285D01*
X98035714Y-83796428D01*
X98107142Y-83725000D01*
X98250000Y-83653571D01*
X98464285Y-83653571D01*
X98607142Y-83725000D01*
X98678571Y-83796428D01*
X98750000Y-83939285D01*
X98750000Y-84367857D01*
X98678571Y-84510714D01*
X98607142Y-84582142D01*
X98464285Y-84653571D01*
X98250000Y-84653571D01*
X99392857Y-84653571D02*
X99392857Y-83653571D01*
X99392857Y-83939285D02*
X99464285Y-83796428D01*
X99535714Y-83725000D01*
X99678571Y-83653571D01*
X99821428Y-83653571D01*
X101964285Y-83867857D02*
X102178571Y-83939285D01*
X102250000Y-84010714D01*
X102321428Y-84153571D01*
X102321428Y-84367857D01*
X102250000Y-84510714D01*
X102178571Y-84582142D01*
X102035714Y-84653571D01*
X101464285Y-84653571D01*
X101464285Y-83153571D01*
X101964285Y-83153571D01*
X102107142Y-83225000D01*
X102178571Y-83296428D01*
X102250000Y-83439285D01*
X102250000Y-83582142D01*
X102178571Y-83725000D01*
X102107142Y-83796428D01*
X101964285Y-83867857D01*
X101464285Y-83867857D01*
X103178571Y-84653571D02*
X103035714Y-84582142D01*
X102964285Y-84510714D01*
X102892857Y-84367857D01*
X102892857Y-83939285D01*
X102964285Y-83796428D01*
X103035714Y-83725000D01*
X103178571Y-83653571D01*
X103392857Y-83653571D01*
X103535714Y-83725000D01*
X103607142Y-83796428D01*
X103678571Y-83939285D01*
X103678571Y-84367857D01*
X103607142Y-84510714D01*
X103535714Y-84582142D01*
X103392857Y-84653571D01*
X103178571Y-84653571D01*
X104964285Y-84653571D02*
X104964285Y-83867857D01*
X104892857Y-83725000D01*
X104750000Y-83653571D01*
X104464285Y-83653571D01*
X104321428Y-83725000D01*
X104964285Y-84582142D02*
X104821428Y-84653571D01*
X104464285Y-84653571D01*
X104321428Y-84582142D01*
X104250000Y-84439285D01*
X104250000Y-84296428D01*
X104321428Y-84153571D01*
X104464285Y-84082142D01*
X104821428Y-84082142D01*
X104964285Y-84010714D01*
X105678571Y-84653571D02*
X105678571Y-83653571D01*
X105678571Y-83939285D02*
X105750000Y-83796428D01*
X105821428Y-83725000D01*
X105964285Y-83653571D01*
X106107142Y-83653571D01*
X107250000Y-84653571D02*
X107250000Y-83153571D01*
X107250000Y-84582142D02*
X107107142Y-84653571D01*
X106821428Y-84653571D01*
X106678571Y-84582142D01*
X106607142Y-84510714D01*
X106535714Y-84367857D01*
X106535714Y-83939285D01*
X106607142Y-83796428D01*
X106678571Y-83725000D01*
X106821428Y-83653571D01*
X107107142Y-83653571D01*
X107250000Y-83725000D01*
D10*
X94504761Y-102257142D02*
X94457142Y-102304761D01*
X94314285Y-102352380D01*
X94219047Y-102352380D01*
X94076190Y-102304761D01*
X93980952Y-102209523D01*
X93933333Y-102114285D01*
X93885714Y-101923809D01*
X93885714Y-101780952D01*
X93933333Y-101590476D01*
X93980952Y-101495238D01*
X94076190Y-101400000D01*
X94219047Y-101352380D01*
X94314285Y-101352380D01*
X94457142Y-101400000D01*
X94504761Y-101447619D01*
X95409523Y-102352380D02*
X94933333Y-102352380D01*
X94933333Y-101352380D01*
X95742857Y-102352380D02*
X95742857Y-101352380D01*
X96314285Y-102352380D02*
X95885714Y-101780952D01*
X96314285Y-101352380D02*
X95742857Y-101923809D01*
X84209523Y-101557142D02*
X84161904Y-101604761D01*
X84019047Y-101652380D01*
X83923809Y-101652380D01*
X83780952Y-101604761D01*
X83685714Y-101509523D01*
X83638095Y-101414285D01*
X83590476Y-101223809D01*
X83590476Y-101080952D01*
X83638095Y-100890476D01*
X83685714Y-100795238D01*
X83780952Y-100700000D01*
X83923809Y-100652380D01*
X84019047Y-100652380D01*
X84161904Y-100700000D01*
X84209523Y-100747619D01*
X85114285Y-101652380D02*
X84638095Y-101652380D01*
X84638095Y-100652380D01*
X85447619Y-101652380D02*
X85447619Y-100652380D01*
X86019047Y-101652380D02*
X85590476Y-101080952D01*
X86019047Y-100652380D02*
X85447619Y-101223809D01*
X86447619Y-101271428D02*
X87209523Y-101271428D01*
X87685714Y-101128571D02*
X88019047Y-101128571D01*
X88161904Y-101652380D02*
X87685714Y-101652380D01*
X87685714Y-100652380D01*
X88161904Y-100652380D01*
X88590476Y-101652380D02*
X88590476Y-100652380D01*
X89161904Y-101652380D01*
X89161904Y-100652380D01*
X93585714Y-94702380D02*
X93919047Y-95702380D01*
X94252380Y-94702380D01*
X94585714Y-95702380D02*
X94585714Y-95035714D01*
X94585714Y-94702380D02*
X94538095Y-94750000D01*
X94585714Y-94797619D01*
X94633333Y-94750000D01*
X94585714Y-94702380D01*
X94585714Y-94797619D01*
X95490476Y-95702380D02*
X95490476Y-94702380D01*
X95490476Y-95654761D02*
X95395238Y-95702380D01*
X95204761Y-95702380D01*
X95109523Y-95654761D01*
X95061904Y-95607142D01*
X95014285Y-95511904D01*
X95014285Y-95226190D01*
X95061904Y-95130952D01*
X95109523Y-95083333D01*
X95204761Y-95035714D01*
X95395238Y-95035714D01*
X95490476Y-95083333D01*
X96347619Y-95654761D02*
X96252380Y-95702380D01*
X96061904Y-95702380D01*
X95966666Y-95654761D01*
X95919047Y-95559523D01*
X95919047Y-95178571D01*
X95966666Y-95083333D01*
X96061904Y-95035714D01*
X96252380Y-95035714D01*
X96347619Y-95083333D01*
X96395238Y-95178571D01*
X96395238Y-95273809D01*
X95919047Y-95369047D01*
X96966666Y-95702380D02*
X96871428Y-95654761D01*
X96823809Y-95607142D01*
X96776190Y-95511904D01*
X96776190Y-95226190D01*
X96823809Y-95130952D01*
X96871428Y-95083333D01*
X96966666Y-95035714D01*
X97109523Y-95035714D01*
X97204761Y-95083333D01*
X97252380Y-95130952D01*
X97300000Y-95226190D01*
X97300000Y-95511904D01*
X97252380Y-95607142D01*
X97204761Y-95654761D01*
X97109523Y-95702380D01*
X96966666Y-95702380D01*
X97728571Y-95321428D02*
X98490476Y-95321428D01*
X99109523Y-95702380D02*
X99014285Y-95654761D01*
X98966666Y-95607142D01*
X98919047Y-95511904D01*
X98919047Y-95226190D01*
X98966666Y-95130952D01*
X99014285Y-95083333D01*
X99109523Y-95035714D01*
X99252380Y-95035714D01*
X99347619Y-95083333D01*
X99395238Y-95130952D01*
X99442857Y-95226190D01*
X99442857Y-95511904D01*
X99395238Y-95607142D01*
X99347619Y-95654761D01*
X99252380Y-95702380D01*
X99109523Y-95702380D01*
X100300000Y-95035714D02*
X100300000Y-95702380D01*
X99871428Y-95035714D02*
X99871428Y-95559523D01*
X99919047Y-95654761D01*
X100014285Y-95702380D01*
X100157142Y-95702380D01*
X100252380Y-95654761D01*
X100300000Y-95607142D01*
X100633333Y-95035714D02*
X101014285Y-95035714D01*
X100776190Y-94702380D02*
X100776190Y-95559523D01*
X100823809Y-95654761D01*
X100919047Y-95702380D01*
X101014285Y-95702380D01*
D12*
G36*
X120339075Y-82388253D02*
G01*
X120730006Y-82409434D01*
X121031082Y-82446224D01*
X121204810Y-82498119D01*
X121213984Y-82504307D01*
X121427384Y-82602260D01*
X121605119Y-82631307D01*
X121845200Y-82692332D01*
X122028614Y-82839323D01*
X122098000Y-83019096D01*
X122031987Y-83150564D01*
X121878822Y-83278530D01*
X121705817Y-83358560D01*
X121590606Y-83354041D01*
X121465001Y-83355093D01*
X121259694Y-83425467D01*
X121178122Y-83464788D01*
X120920298Y-83564019D01*
X120688774Y-83596568D01*
X120647726Y-83592057D01*
X120457101Y-83598180D01*
X120177849Y-83655088D01*
X119937587Y-83728012D01*
X119619374Y-83823834D01*
X119319786Y-83887753D01*
X119156048Y-83904000D01*
X118881531Y-83938504D01*
X118592424Y-84022429D01*
X118571274Y-84031000D01*
X118268698Y-84118807D01*
X117951273Y-84157876D01*
X117936274Y-84158000D01*
X117624759Y-84192687D01*
X117321344Y-84276772D01*
X117306690Y-84282737D01*
X117038355Y-84369064D01*
X116707481Y-84442189D01*
X116568576Y-84463584D01*
X116264361Y-84519206D01*
X115993789Y-84596319D01*
X115900371Y-84635181D01*
X115658862Y-84713035D01*
X115371861Y-84750154D01*
X115339516Y-84750667D01*
X115038494Y-84781029D01*
X114713045Y-84856173D01*
X114647333Y-84877667D01*
X114350108Y-84958896D01*
X114060506Y-85002373D01*
X113999573Y-85004667D01*
X113757964Y-85033392D01*
X113443272Y-85107269D01*
X113229986Y-85174000D01*
X112889113Y-85270444D01*
X112540389Y-85333179D01*
X112364268Y-85346334D01*
X112076291Y-85375160D01*
X111825051Y-85443480D01*
X111768667Y-85470334D01*
X111546771Y-85548846D01*
X111261959Y-85591815D01*
X111192962Y-85594333D01*
X110891233Y-85629500D01*
X110610538Y-85712494D01*
X110565400Y-85733607D01*
X110333578Y-85816438D01*
X110015642Y-85885446D01*
X109786438Y-85915145D01*
X109480661Y-85958044D01*
X109224280Y-86022052D01*
X109103994Y-86075205D01*
X108926833Y-86139856D01*
X108652610Y-86181421D01*
X108458195Y-86190000D01*
X108100241Y-86215739D01*
X107897421Y-86293872D01*
X107874000Y-86317000D01*
X107760816Y-86422326D01*
X107652431Y-86414772D01*
X107500743Y-86284804D01*
X107451573Y-86233298D01*
X107253629Y-86022597D01*
X107415648Y-85715091D01*
X107662461Y-85398579D01*
X108016111Y-85135224D01*
X108413394Y-84971698D01*
X108635351Y-84885966D01*
X108779275Y-84788820D01*
X108962180Y-84687842D01*
X109091532Y-84666000D01*
X109311653Y-84615021D01*
X109445318Y-84541693D01*
X109635286Y-84441578D01*
X109758140Y-84414693D01*
X109924246Y-84374390D01*
X110154779Y-84277363D01*
X110222553Y-84242667D01*
X110479425Y-84133449D01*
X110718252Y-84075940D01*
X110762212Y-84073334D01*
X110971178Y-84027849D01*
X111091333Y-83946334D01*
X111248864Y-83853044D01*
X111444571Y-83819334D01*
X111706021Y-83778660D01*
X111933317Y-83694755D01*
X112175723Y-83600966D01*
X112473835Y-83525031D01*
X112542945Y-83512920D01*
X112813225Y-83450973D01*
X113034846Y-83366756D01*
X113078672Y-83341165D01*
X113275116Y-83263930D01*
X113533443Y-83227163D01*
X113563792Y-83226667D01*
X113866160Y-83194462D01*
X114175996Y-83116017D01*
X114201120Y-83106936D01*
X114458347Y-83036238D01*
X114801846Y-82974326D01*
X115091365Y-82940832D01*
X115413159Y-82902721D01*
X115688311Y-82849125D01*
X115844144Y-82797191D01*
X115996155Y-82753961D01*
X116277761Y-82707191D01*
X116649465Y-82662375D01*
X117071770Y-82625005D01*
X117093446Y-82623435D01*
X117553437Y-82586882D01*
X118000204Y-82545101D01*
X118380475Y-82503435D01*
X118626667Y-82469655D01*
X119002084Y-82423381D01*
X119437621Y-82394725D01*
X119895782Y-82383183D01*
X120339075Y-82388253D01*
G37*
X120339075Y-82388253D02*
X120730006Y-82409434D01*
X121031082Y-82446224D01*
X121204810Y-82498119D01*
X121213984Y-82504307D01*
X121427384Y-82602260D01*
X121605119Y-82631307D01*
X121845200Y-82692332D01*
X122028614Y-82839323D01*
X122098000Y-83019096D01*
X122031987Y-83150564D01*
X121878822Y-83278530D01*
X121705817Y-83358560D01*
X121590606Y-83354041D01*
X121465001Y-83355093D01*
X121259694Y-83425467D01*
X121178122Y-83464788D01*
X120920298Y-83564019D01*
X120688774Y-83596568D01*
X120647726Y-83592057D01*
X120457101Y-83598180D01*
X120177849Y-83655088D01*
X119937587Y-83728012D01*
X119619374Y-83823834D01*
X119319786Y-83887753D01*
X119156048Y-83904000D01*
X118881531Y-83938504D01*
X118592424Y-84022429D01*
X118571274Y-84031000D01*
X118268698Y-84118807D01*
X117951273Y-84157876D01*
X117936274Y-84158000D01*
X117624759Y-84192687D01*
X117321344Y-84276772D01*
X117306690Y-84282737D01*
X117038355Y-84369064D01*
X116707481Y-84442189D01*
X116568576Y-84463584D01*
X116264361Y-84519206D01*
X115993789Y-84596319D01*
X115900371Y-84635181D01*
X115658862Y-84713035D01*
X115371861Y-84750154D01*
X115339516Y-84750667D01*
X115038494Y-84781029D01*
X114713045Y-84856173D01*
X114647333Y-84877667D01*
X114350108Y-84958896D01*
X114060506Y-85002373D01*
X113999573Y-85004667D01*
X113757964Y-85033392D01*
X113443272Y-85107269D01*
X113229986Y-85174000D01*
X112889113Y-85270444D01*
X112540389Y-85333179D01*
X112364268Y-85346334D01*
X112076291Y-85375160D01*
X111825051Y-85443480D01*
X111768667Y-85470334D01*
X111546771Y-85548846D01*
X111261959Y-85591815D01*
X111192962Y-85594333D01*
X110891233Y-85629500D01*
X110610538Y-85712494D01*
X110565400Y-85733607D01*
X110333578Y-85816438D01*
X110015642Y-85885446D01*
X109786438Y-85915145D01*
X109480661Y-85958044D01*
X109224280Y-86022052D01*
X109103994Y-86075205D01*
X108926833Y-86139856D01*
X108652610Y-86181421D01*
X108458195Y-86190000D01*
X108100241Y-86215739D01*
X107897421Y-86293872D01*
X107874000Y-86317000D01*
X107760816Y-86422326D01*
X107652431Y-86414772D01*
X107500743Y-86284804D01*
X107451573Y-86233298D01*
X107253629Y-86022597D01*
X107415648Y-85715091D01*
X107662461Y-85398579D01*
X108016111Y-85135224D01*
X108413394Y-84971698D01*
X108635351Y-84885966D01*
X108779275Y-84788820D01*
X108962180Y-84687842D01*
X109091532Y-84666000D01*
X109311653Y-84615021D01*
X109445318Y-84541693D01*
X109635286Y-84441578D01*
X109758140Y-84414693D01*
X109924246Y-84374390D01*
X110154779Y-84277363D01*
X110222553Y-84242667D01*
X110479425Y-84133449D01*
X110718252Y-84075940D01*
X110762212Y-84073334D01*
X110971178Y-84027849D01*
X111091333Y-83946334D01*
X111248864Y-83853044D01*
X111444571Y-83819334D01*
X111706021Y-83778660D01*
X111933317Y-83694755D01*
X112175723Y-83600966D01*
X112473835Y-83525031D01*
X112542945Y-83512920D01*
X112813225Y-83450973D01*
X113034846Y-83366756D01*
X113078672Y-83341165D01*
X113275116Y-83263930D01*
X113533443Y-83227163D01*
X113563792Y-83226667D01*
X113866160Y-83194462D01*
X114175996Y-83116017D01*
X114201120Y-83106936D01*
X114458347Y-83036238D01*
X114801846Y-82974326D01*
X115091365Y-82940832D01*
X115413159Y-82902721D01*
X115688311Y-82849125D01*
X115844144Y-82797191D01*
X115996155Y-82753961D01*
X116277761Y-82707191D01*
X116649465Y-82662375D01*
X117071770Y-82625005D01*
X117093446Y-82623435D01*
X117553437Y-82586882D01*
X118000204Y-82545101D01*
X118380475Y-82503435D01*
X118626667Y-82469655D01*
X119002084Y-82423381D01*
X119437621Y-82394725D01*
X119895782Y-82383183D01*
X120339075Y-82388253D01*
G36*
X80691413Y-82415716D02*
G01*
X81110612Y-82460097D01*
X81128590Y-82462338D01*
X81605330Y-82518806D01*
X82138417Y-82577129D01*
X82624451Y-82626063D01*
X82694170Y-82632567D01*
X83095815Y-82680676D01*
X83485184Y-82746255D01*
X83794166Y-82817316D01*
X83861295Y-82838010D01*
X84163041Y-82920294D01*
X84452654Y-82967925D01*
X84540952Y-82972667D01*
X84817227Y-83007222D01*
X85107187Y-83091254D01*
X85127941Y-83099667D01*
X85396012Y-83185428D01*
X85646857Y-83226141D01*
X85669775Y-83226667D01*
X85912985Y-83269403D01*
X86077682Y-83345758D01*
X86261711Y-83428785D01*
X86532578Y-83502363D01*
X86668021Y-83526755D01*
X86950630Y-83586249D01*
X87184502Y-83665952D01*
X87255339Y-83703997D01*
X87464046Y-83790429D01*
X87678672Y-83822026D01*
X87922743Y-83865030D01*
X88099349Y-83949026D01*
X88281786Y-84047529D01*
X88396936Y-84073334D01*
X88552399Y-84111580D01*
X88776398Y-84206914D01*
X88846113Y-84242667D01*
X89096075Y-84351306D01*
X89321193Y-84409110D01*
X89363659Y-84412000D01*
X89566209Y-84462492D01*
X89670667Y-84539000D01*
X89819139Y-84646805D01*
X89900803Y-84666000D01*
X90063660Y-84703479D01*
X90250270Y-84783457D01*
X90498063Y-84906868D01*
X90686667Y-84994509D01*
X90896001Y-85095457D01*
X91025333Y-85167277D01*
X91213139Y-85268611D01*
X91279333Y-85298212D01*
X91607899Y-85462851D01*
X91957788Y-85688681D01*
X92300737Y-85950763D01*
X92608480Y-86224161D01*
X92852751Y-86483938D01*
X93005285Y-86705156D01*
X93040521Y-86852032D01*
X92944106Y-86972730D01*
X92756083Y-87017614D01*
X92539342Y-86980183D01*
X92422257Y-86915948D01*
X92227839Y-86831600D01*
X91964867Y-86787197D01*
X91912005Y-86785360D01*
X91645495Y-86753474D01*
X91425662Y-86678318D01*
X91396431Y-86660386D01*
X91213521Y-86579666D01*
X90938294Y-86507979D01*
X90763758Y-86478835D01*
X90471934Y-86424264D01*
X90229084Y-86349869D01*
X90138661Y-86304782D01*
X89938756Y-86225010D01*
X89684329Y-86189579D01*
X89672994Y-86189479D01*
X89399233Y-86156147D01*
X89159222Y-86076695D01*
X89158494Y-86076316D01*
X88940105Y-85995207D01*
X88649854Y-85926183D01*
X88543201Y-85908924D01*
X88240716Y-85846877D01*
X87965287Y-85757593D01*
X87895412Y-85725753D01*
X87622476Y-85630399D01*
X87367704Y-85594333D01*
X87098526Y-85554186D01*
X86876667Y-85470334D01*
X86635379Y-85381575D01*
X86385629Y-85346334D01*
X86099928Y-85302565D01*
X85857921Y-85214914D01*
X85617142Y-85124435D01*
X85311604Y-85051730D01*
X85205959Y-85035448D01*
X84921111Y-84980029D01*
X84679822Y-84900703D01*
X84614812Y-84867535D01*
X84403376Y-84788721D01*
X84135525Y-84751178D01*
X84104484Y-84750667D01*
X83844827Y-84720999D01*
X83634095Y-84648366D01*
X83614672Y-84636296D01*
X83428089Y-84554464D01*
X83161052Y-84486719D01*
X83062896Y-84470967D01*
X82762229Y-84408988D01*
X82487544Y-84317430D01*
X82427896Y-84289526D01*
X82158771Y-84195035D01*
X81881333Y-84155522D01*
X81609609Y-84117426D01*
X81373333Y-84031000D01*
X81146860Y-83950048D01*
X80865418Y-83908346D01*
X80820672Y-83907000D01*
X80551469Y-83873374D01*
X80326612Y-83794388D01*
X80297152Y-83776154D01*
X80102899Y-83687799D01*
X79826888Y-83614721D01*
X79706813Y-83594924D01*
X79408906Y-83537973D01*
X79143702Y-83458136D01*
X79070371Y-83426436D01*
X78808597Y-83339777D01*
X78580880Y-83311334D01*
X78351312Y-83260959D01*
X78260893Y-83119287D01*
X78318646Y-82900496D01*
X78319034Y-82899771D01*
X78464737Y-82766344D01*
X78744238Y-82685354D01*
X78812387Y-82675206D01*
X79117439Y-82625779D01*
X79492803Y-82553256D01*
X79773924Y-82492165D01*
X80087361Y-82430335D01*
X80371760Y-82405324D01*
X80691413Y-82415716D01*
G37*
X80691413Y-82415716D02*
X81110612Y-82460097D01*
X81128590Y-82462338D01*
X81605330Y-82518806D01*
X82138417Y-82577129D01*
X82624451Y-82626063D01*
X82694170Y-82632567D01*
X83095815Y-82680676D01*
X83485184Y-82746255D01*
X83794166Y-82817316D01*
X83861295Y-82838010D01*
X84163041Y-82920294D01*
X84452654Y-82967925D01*
X84540952Y-82972667D01*
X84817227Y-83007222D01*
X85107187Y-83091254D01*
X85127941Y-83099667D01*
X85396012Y-83185428D01*
X85646857Y-83226141D01*
X85669775Y-83226667D01*
X85912985Y-83269403D01*
X86077682Y-83345758D01*
X86261711Y-83428785D01*
X86532578Y-83502363D01*
X86668021Y-83526755D01*
X86950630Y-83586249D01*
X87184502Y-83665952D01*
X87255339Y-83703997D01*
X87464046Y-83790429D01*
X87678672Y-83822026D01*
X87922743Y-83865030D01*
X88099349Y-83949026D01*
X88281786Y-84047529D01*
X88396936Y-84073334D01*
X88552399Y-84111580D01*
X88776398Y-84206914D01*
X88846113Y-84242667D01*
X89096075Y-84351306D01*
X89321193Y-84409110D01*
X89363659Y-84412000D01*
X89566209Y-84462492D01*
X89670667Y-84539000D01*
X89819139Y-84646805D01*
X89900803Y-84666000D01*
X90063660Y-84703479D01*
X90250270Y-84783457D01*
X90498063Y-84906868D01*
X90686667Y-84994509D01*
X90896001Y-85095457D01*
X91025333Y-85167277D01*
X91213139Y-85268611D01*
X91279333Y-85298212D01*
X91607899Y-85462851D01*
X91957788Y-85688681D01*
X92300737Y-85950763D01*
X92608480Y-86224161D01*
X92852751Y-86483938D01*
X93005285Y-86705156D01*
X93040521Y-86852032D01*
X92944106Y-86972730D01*
X92756083Y-87017614D01*
X92539342Y-86980183D01*
X92422257Y-86915948D01*
X92227839Y-86831600D01*
X91964867Y-86787197D01*
X91912005Y-86785360D01*
X91645495Y-86753474D01*
X91425662Y-86678318D01*
X91396431Y-86660386D01*
X91213521Y-86579666D01*
X90938294Y-86507979D01*
X90763758Y-86478835D01*
X90471934Y-86424264D01*
X90229084Y-86349869D01*
X90138661Y-86304782D01*
X89938756Y-86225010D01*
X89684329Y-86189579D01*
X89672994Y-86189479D01*
X89399233Y-86156147D01*
X89159222Y-86076695D01*
X89158494Y-86076316D01*
X88940105Y-85995207D01*
X88649854Y-85926183D01*
X88543201Y-85908924D01*
X88240716Y-85846877D01*
X87965287Y-85757593D01*
X87895412Y-85725753D01*
X87622476Y-85630399D01*
X87367704Y-85594333D01*
X87098526Y-85554186D01*
X86876667Y-85470334D01*
X86635379Y-85381575D01*
X86385629Y-85346334D01*
X86099928Y-85302565D01*
X85857921Y-85214914D01*
X85617142Y-85124435D01*
X85311604Y-85051730D01*
X85205959Y-85035448D01*
X84921111Y-84980029D01*
X84679822Y-84900703D01*
X84614812Y-84867535D01*
X84403376Y-84788721D01*
X84135525Y-84751178D01*
X84104484Y-84750667D01*
X83844827Y-84720999D01*
X83634095Y-84648366D01*
X83614672Y-84636296D01*
X83428089Y-84554464D01*
X83161052Y-84486719D01*
X83062896Y-84470967D01*
X82762229Y-84408988D01*
X82487544Y-84317430D01*
X82427896Y-84289526D01*
X82158771Y-84195035D01*
X81881333Y-84155522D01*
X81609609Y-84117426D01*
X81373333Y-84031000D01*
X81146860Y-83950048D01*
X80865418Y-83908346D01*
X80820672Y-83907000D01*
X80551469Y-83873374D01*
X80326612Y-83794388D01*
X80297152Y-83776154D01*
X80102899Y-83687799D01*
X79826888Y-83614721D01*
X79706813Y-83594924D01*
X79408906Y-83537973D01*
X79143702Y-83458136D01*
X79070371Y-83426436D01*
X78808597Y-83339777D01*
X78580880Y-83311334D01*
X78351312Y-83260959D01*
X78260893Y-83119287D01*
X78318646Y-82900496D01*
X78319034Y-82899771D01*
X78464737Y-82766344D01*
X78744238Y-82685354D01*
X78812387Y-82675206D01*
X79117439Y-82625779D01*
X79492803Y-82553256D01*
X79773924Y-82492165D01*
X80087361Y-82430335D01*
X80371760Y-82405324D01*
X80691413Y-82415716D01*
G36*
X87376938Y-87550119D02*
G01*
X87918695Y-87560307D01*
X88416822Y-87579208D01*
X88837900Y-87606541D01*
X89148510Y-87642027D01*
X89289667Y-87674108D01*
X89596126Y-87751663D01*
X89942157Y-87794514D01*
X90032615Y-87797392D01*
X90348587Y-87828367D01*
X90715250Y-87906228D01*
X90918681Y-87968000D01*
X91239170Y-88062373D01*
X91547665Y-88123845D01*
X91704716Y-88137334D01*
X91959030Y-88171543D01*
X92163518Y-88254597D01*
X92173318Y-88261641D01*
X92368935Y-88346998D01*
X92624835Y-88388088D01*
X92648670Y-88388641D01*
X92986067Y-88458747D01*
X93262365Y-88640025D01*
X93438256Y-88898133D01*
X93480667Y-89115548D01*
X93425176Y-89383867D01*
X93267504Y-89521146D01*
X93020850Y-89520285D01*
X92847434Y-89456180D01*
X92574310Y-89368888D01*
X92258529Y-89323515D01*
X92197871Y-89321750D01*
X91884140Y-89294518D01*
X91533299Y-89227193D01*
X91414044Y-89194750D01*
X91191374Y-89154953D01*
X90826011Y-89122009D01*
X90344456Y-89095916D01*
X89773211Y-89076669D01*
X89138778Y-89064264D01*
X88467656Y-89058698D01*
X87786349Y-89059967D01*
X87121357Y-89068067D01*
X86499182Y-89082995D01*
X85946325Y-89104746D01*
X85489288Y-89133317D01*
X85154571Y-89168704D01*
X85014000Y-89195667D01*
X84648006Y-89268749D01*
X84237464Y-89314907D01*
X84040333Y-89322913D01*
X83661637Y-89346079D01*
X83239178Y-89403054D01*
X83000042Y-89450665D01*
X82650354Y-89517526D01*
X82217281Y-89578484D01*
X81786667Y-89621704D01*
X81730042Y-89625761D01*
X81359403Y-89658763D01*
X81024484Y-89702765D01*
X80783370Y-89749726D01*
X80738333Y-89763077D01*
X80541566Y-89809024D01*
X80229615Y-89857879D01*
X79856286Y-89901764D01*
X79680000Y-89918010D01*
X79296665Y-89953482D01*
X78950087Y-89991641D01*
X78694017Y-90026323D01*
X78621667Y-90039359D01*
X78320660Y-90030395D01*
X78177167Y-89957276D01*
X78016820Y-89749273D01*
X77986667Y-89591854D01*
X78013670Y-89439920D01*
X78120028Y-89320568D01*
X78343761Y-89194161D01*
X78388833Y-89172596D01*
X78663255Y-89061428D01*
X78909855Y-88991991D01*
X79002667Y-88980582D01*
X79234452Y-88931606D01*
X79370309Y-88860430D01*
X79555167Y-88769125D01*
X79811654Y-88695070D01*
X79864062Y-88685178D01*
X80147828Y-88616722D01*
X80400386Y-88523777D01*
X80427753Y-88510244D01*
X80681205Y-88424124D01*
X80933038Y-88391855D01*
X81209776Y-88354772D01*
X81441038Y-88276049D01*
X81639838Y-88211524D01*
X81942835Y-88152466D01*
X82285041Y-88111495D01*
X82290792Y-88111030D01*
X82610181Y-88074746D01*
X82869404Y-88025789D01*
X83016236Y-87974232D01*
X83021939Y-87969987D01*
X83149748Y-87923615D01*
X83403938Y-87873219D01*
X83741952Y-87826318D01*
X83967147Y-87802997D01*
X84376693Y-87760358D01*
X84768767Y-87710035D01*
X85081933Y-87660279D01*
X85183333Y-87639679D01*
X85441969Y-87602099D01*
X85824065Y-87574634D01*
X86296205Y-87557002D01*
X86824968Y-87548924D01*
X87376938Y-87550119D01*
G37*
X87376938Y-87550119D02*
X87918695Y-87560307D01*
X88416822Y-87579208D01*
X88837900Y-87606541D01*
X89148510Y-87642027D01*
X89289667Y-87674108D01*
X89596126Y-87751663D01*
X89942157Y-87794514D01*
X90032615Y-87797392D01*
X90348587Y-87828367D01*
X90715250Y-87906228D01*
X90918681Y-87968000D01*
X91239170Y-88062373D01*
X91547665Y-88123845D01*
X91704716Y-88137334D01*
X91959030Y-88171543D01*
X92163518Y-88254597D01*
X92173318Y-88261641D01*
X92368935Y-88346998D01*
X92624835Y-88388088D01*
X92648670Y-88388641D01*
X92986067Y-88458747D01*
X93262365Y-88640025D01*
X93438256Y-88898133D01*
X93480667Y-89115548D01*
X93425176Y-89383867D01*
X93267504Y-89521146D01*
X93020850Y-89520285D01*
X92847434Y-89456180D01*
X92574310Y-89368888D01*
X92258529Y-89323515D01*
X92197871Y-89321750D01*
X91884140Y-89294518D01*
X91533299Y-89227193D01*
X91414044Y-89194750D01*
X91191374Y-89154953D01*
X90826011Y-89122009D01*
X90344456Y-89095916D01*
X89773211Y-89076669D01*
X89138778Y-89064264D01*
X88467656Y-89058698D01*
X87786349Y-89059967D01*
X87121357Y-89068067D01*
X86499182Y-89082995D01*
X85946325Y-89104746D01*
X85489288Y-89133317D01*
X85154571Y-89168704D01*
X85014000Y-89195667D01*
X84648006Y-89268749D01*
X84237464Y-89314907D01*
X84040333Y-89322913D01*
X83661637Y-89346079D01*
X83239178Y-89403054D01*
X83000042Y-89450665D01*
X82650354Y-89517526D01*
X82217281Y-89578484D01*
X81786667Y-89621704D01*
X81730042Y-89625761D01*
X81359403Y-89658763D01*
X81024484Y-89702765D01*
X80783370Y-89749726D01*
X80738333Y-89763077D01*
X80541566Y-89809024D01*
X80229615Y-89857879D01*
X79856286Y-89901764D01*
X79680000Y-89918010D01*
X79296665Y-89953482D01*
X78950087Y-89991641D01*
X78694017Y-90026323D01*
X78621667Y-90039359D01*
X78320660Y-90030395D01*
X78177167Y-89957276D01*
X78016820Y-89749273D01*
X77986667Y-89591854D01*
X78013670Y-89439920D01*
X78120028Y-89320568D01*
X78343761Y-89194161D01*
X78388833Y-89172596D01*
X78663255Y-89061428D01*
X78909855Y-88991991D01*
X79002667Y-88980582D01*
X79234452Y-88931606D01*
X79370309Y-88860430D01*
X79555167Y-88769125D01*
X79811654Y-88695070D01*
X79864062Y-88685178D01*
X80147828Y-88616722D01*
X80400386Y-88523777D01*
X80427753Y-88510244D01*
X80681205Y-88424124D01*
X80933038Y-88391855D01*
X81209776Y-88354772D01*
X81441038Y-88276049D01*
X81639838Y-88211524D01*
X81942835Y-88152466D01*
X82285041Y-88111495D01*
X82290792Y-88111030D01*
X82610181Y-88074746D01*
X82869404Y-88025789D01*
X83016236Y-87974232D01*
X83021939Y-87969987D01*
X83149748Y-87923615D01*
X83403938Y-87873219D01*
X83741952Y-87826318D01*
X83967147Y-87802997D01*
X84376693Y-87760358D01*
X84768767Y-87710035D01*
X85081933Y-87660279D01*
X85183333Y-87639679D01*
X85441969Y-87602099D01*
X85824065Y-87574634D01*
X86296205Y-87557002D01*
X86824968Y-87548924D01*
X87376938Y-87550119D01*
G36*
X115645876Y-89835460D02*
G01*
X116655832Y-89837318D01*
X117519278Y-89840402D01*
X118247624Y-89844944D01*
X118852281Y-89851173D01*
X119344660Y-89859321D01*
X119736172Y-89869617D01*
X120038228Y-89882291D01*
X120262237Y-89897575D01*
X120419611Y-89915698D01*
X120521760Y-89936891D01*
X120574000Y-89957667D01*
X120822947Y-90051013D01*
X121039667Y-90083526D01*
X121274519Y-90122185D01*
X121561344Y-90213432D01*
X121662746Y-90255860D01*
X121940976Y-90358600D01*
X122201385Y-90417710D01*
X122276579Y-90423334D01*
X122489840Y-90474908D01*
X122696504Y-90600304D01*
X122835067Y-90755531D01*
X122860000Y-90840619D01*
X122814922Y-90936482D01*
X122716028Y-91063869D01*
X122617831Y-91158663D01*
X122578786Y-91171377D01*
X122493617Y-91159857D01*
X122276085Y-91139956D01*
X121962764Y-91114847D01*
X121717000Y-91096655D01*
X121488468Y-91086197D01*
X121106934Y-91075982D01*
X120588726Y-91066185D01*
X119950176Y-91056979D01*
X119207613Y-91048539D01*
X118377368Y-91041041D01*
X117475770Y-91034659D01*
X116519150Y-91029566D01*
X115523838Y-91025939D01*
X114986000Y-91024670D01*
X113810795Y-91021939D01*
X112793318Y-91018377D01*
X111921962Y-91013736D01*
X111185121Y-91007767D01*
X110571192Y-91000221D01*
X110068568Y-90990851D01*
X109665644Y-90979408D01*
X109350814Y-90965643D01*
X109112474Y-90949307D01*
X108939017Y-90930154D01*
X108818838Y-90907933D01*
X108763000Y-90891442D01*
X108477764Y-90810815D01*
X108206479Y-90767700D01*
X108162757Y-90765716D01*
X107942237Y-90718744D01*
X107808721Y-90558476D01*
X107800000Y-90539934D01*
X107756478Y-90282016D01*
X107865231Y-90069971D01*
X108111004Y-89925013D01*
X108270228Y-89885974D01*
X108407895Y-89877037D01*
X108700283Y-89868628D01*
X109132781Y-89860867D01*
X109690780Y-89853874D01*
X110359667Y-89847772D01*
X111124832Y-89842680D01*
X111971663Y-89838721D01*
X112885550Y-89836014D01*
X113851881Y-89834680D01*
X114478000Y-89834599D01*
X115645876Y-89835460D01*
G37*
X115645876Y-89835460D02*
X116655832Y-89837318D01*
X117519278Y-89840402D01*
X118247624Y-89844944D01*
X118852281Y-89851173D01*
X119344660Y-89859321D01*
X119736172Y-89869617D01*
X120038228Y-89882291D01*
X120262237Y-89897575D01*
X120419611Y-89915698D01*
X120521760Y-89936891D01*
X120574000Y-89957667D01*
X120822947Y-90051013D01*
X121039667Y-90083526D01*
X121274519Y-90122185D01*
X121561344Y-90213432D01*
X121662746Y-90255860D01*
X121940976Y-90358600D01*
X122201385Y-90417710D01*
X122276579Y-90423334D01*
X122489840Y-90474908D01*
X122696504Y-90600304D01*
X122835067Y-90755531D01*
X122860000Y-90840619D01*
X122814922Y-90936482D01*
X122716028Y-91063869D01*
X122617831Y-91158663D01*
X122578786Y-91171377D01*
X122493617Y-91159857D01*
X122276085Y-91139956D01*
X121962764Y-91114847D01*
X121717000Y-91096655D01*
X121488468Y-91086197D01*
X121106934Y-91075982D01*
X120588726Y-91066185D01*
X119950176Y-91056979D01*
X119207613Y-91048539D01*
X118377368Y-91041041D01*
X117475770Y-91034659D01*
X116519150Y-91029566D01*
X115523838Y-91025939D01*
X114986000Y-91024670D01*
X113810795Y-91021939D01*
X112793318Y-91018377D01*
X111921962Y-91013736D01*
X111185121Y-91007767D01*
X110571192Y-91000221D01*
X110068568Y-90990851D01*
X109665644Y-90979408D01*
X109350814Y-90965643D01*
X109112474Y-90949307D01*
X108939017Y-90930154D01*
X108818838Y-90907933D01*
X108763000Y-90891442D01*
X108477764Y-90810815D01*
X108206479Y-90767700D01*
X108162757Y-90765716D01*
X107942237Y-90718744D01*
X107808721Y-90558476D01*
X107800000Y-90539934D01*
X107756478Y-90282016D01*
X107865231Y-90069971D01*
X108111004Y-89925013D01*
X108270228Y-89885974D01*
X108407895Y-89877037D01*
X108700283Y-89868628D01*
X109132781Y-89860867D01*
X109690780Y-89853874D01*
X110359667Y-89847772D01*
X111124832Y-89842680D01*
X111971663Y-89838721D01*
X112885550Y-89836014D01*
X113851881Y-89834680D01*
X114478000Y-89834599D01*
X115645876Y-89835460D01*
G36*
X109269819Y-91882261D02*
G01*
X109597753Y-91933209D01*
X109792059Y-91989667D01*
X110055432Y-92075117D01*
X110297339Y-92116057D01*
X110320834Y-92116667D01*
X110560439Y-92160839D01*
X110712661Y-92232849D01*
X110912250Y-92331581D01*
X111165422Y-92410667D01*
X111176000Y-92413000D01*
X111428912Y-92490205D01*
X111633252Y-92589006D01*
X111639339Y-92593152D01*
X111838229Y-92686576D01*
X111964942Y-92709334D01*
X112156551Y-92746990D01*
X112348270Y-92823476D01*
X112707485Y-92998870D01*
X113106926Y-93183629D01*
X113377333Y-93302127D01*
X113551999Y-93386283D01*
X113820260Y-93527143D01*
X114129072Y-93696731D01*
X114181667Y-93726337D01*
X114495846Y-93899255D01*
X114782360Y-94048936D01*
X114986162Y-94146756D01*
X115007167Y-94155581D01*
X115173016Y-94245669D01*
X115240000Y-94326283D01*
X115307195Y-94397016D01*
X115347764Y-94402667D01*
X115498684Y-94453870D01*
X115751464Y-94594203D01*
X116078415Y-94803751D01*
X116451846Y-95062601D01*
X116844067Y-95350837D01*
X117227388Y-95648547D01*
X117574120Y-95935815D01*
X117856573Y-96192728D01*
X117908291Y-96244167D01*
X118075807Y-96380567D01*
X118213042Y-96439540D01*
X118323595Y-96505307D01*
X118501859Y-96673197D01*
X118717338Y-96907392D01*
X118939533Y-97172072D01*
X119137946Y-97431417D01*
X119282079Y-97649606D01*
X119333153Y-97755102D01*
X119373750Y-97992941D01*
X119328152Y-98150808D01*
X119220512Y-98200504D01*
X119074985Y-98113831D01*
X119050000Y-98085667D01*
X118888566Y-97977247D01*
X118796000Y-97958667D01*
X118616564Y-97897604D01*
X118546517Y-97837109D01*
X118391962Y-97729569D01*
X118203333Y-97662334D01*
X117990687Y-97582867D01*
X117860150Y-97487558D01*
X117698089Y-97382230D01*
X117610667Y-97366000D01*
X117430210Y-97304940D01*
X117363561Y-97247307D01*
X117208113Y-97135898D01*
X117046633Y-97073794D01*
X116830781Y-96985242D01*
X116705391Y-96896153D01*
X116536044Y-96790950D01*
X116440452Y-96769661D01*
X116285413Y-96725059D01*
X116060305Y-96616853D01*
X115959667Y-96558570D01*
X115728321Y-96422518D01*
X115542127Y-96322691D01*
X115494000Y-96300760D01*
X115320734Y-96223386D01*
X115062472Y-96099143D01*
X114780066Y-95958330D01*
X114534365Y-95831248D01*
X114393333Y-95752683D01*
X114263690Y-95682876D01*
X114022662Y-95561698D01*
X113712032Y-95409978D01*
X113546667Y-95330602D01*
X113217113Y-95171287D01*
X112936654Y-95031949D01*
X112747088Y-94933522D01*
X112700000Y-94906542D01*
X112523199Y-94812779D01*
X112361333Y-94741485D01*
X112150435Y-94648177D01*
X112022667Y-94581521D01*
X111868436Y-94499652D01*
X111637124Y-94386740D01*
X111557000Y-94349215D01*
X111316557Y-94229379D01*
X111128195Y-94120852D01*
X111091333Y-94095215D01*
X110946045Y-94010677D01*
X110703788Y-93894128D01*
X110498667Y-93805112D01*
X110223682Y-93683031D01*
X110001010Y-93569657D01*
X109906000Y-93509474D01*
X109724406Y-93403344D01*
X109571282Y-93343178D01*
X109362648Y-93248266D01*
X109247734Y-93163830D01*
X109096359Y-93065214D01*
X109021319Y-93048000D01*
X108878415Y-92988525D01*
X108805333Y-92921000D01*
X108638689Y-92816820D01*
X108513391Y-92794000D01*
X108336330Y-92735758D01*
X108144389Y-92596518D01*
X107999405Y-92429509D01*
X107958667Y-92316469D01*
X108015115Y-92203461D01*
X108151236Y-92049953D01*
X108154623Y-92046759D01*
X108297794Y-91942616D01*
X108481088Y-91886066D01*
X108757251Y-91864412D01*
X108919343Y-91862667D01*
X109269819Y-91882261D01*
G37*
X109269819Y-91882261D02*
X109597753Y-91933209D01*
X109792059Y-91989667D01*
X110055432Y-92075117D01*
X110297339Y-92116057D01*
X110320834Y-92116667D01*
X110560439Y-92160839D01*
X110712661Y-92232849D01*
X110912250Y-92331581D01*
X111165422Y-92410667D01*
X111176000Y-92413000D01*
X111428912Y-92490205D01*
X111633252Y-92589006D01*
X111639339Y-92593152D01*
X111838229Y-92686576D01*
X111964942Y-92709334D01*
X112156551Y-92746990D01*
X112348270Y-92823476D01*
X112707485Y-92998870D01*
X113106926Y-93183629D01*
X113377333Y-93302127D01*
X113551999Y-93386283D01*
X113820260Y-93527143D01*
X114129072Y-93696731D01*
X114181667Y-93726337D01*
X114495846Y-93899255D01*
X114782360Y-94048936D01*
X114986162Y-94146756D01*
X115007167Y-94155581D01*
X115173016Y-94245669D01*
X115240000Y-94326283D01*
X115307195Y-94397016D01*
X115347764Y-94402667D01*
X115498684Y-94453870D01*
X115751464Y-94594203D01*
X116078415Y-94803751D01*
X116451846Y-95062601D01*
X116844067Y-95350837D01*
X117227388Y-95648547D01*
X117574120Y-95935815D01*
X117856573Y-96192728D01*
X117908291Y-96244167D01*
X118075807Y-96380567D01*
X118213042Y-96439540D01*
X118323595Y-96505307D01*
X118501859Y-96673197D01*
X118717338Y-96907392D01*
X118939533Y-97172072D01*
X119137946Y-97431417D01*
X119282079Y-97649606D01*
X119333153Y-97755102D01*
X119373750Y-97992941D01*
X119328152Y-98150808D01*
X119220512Y-98200504D01*
X119074985Y-98113831D01*
X119050000Y-98085667D01*
X118888566Y-97977247D01*
X118796000Y-97958667D01*
X118616564Y-97897604D01*
X118546517Y-97837109D01*
X118391962Y-97729569D01*
X118203333Y-97662334D01*
X117990687Y-97582867D01*
X117860150Y-97487558D01*
X117698089Y-97382230D01*
X117610667Y-97366000D01*
X117430210Y-97304940D01*
X117363561Y-97247307D01*
X117208113Y-97135898D01*
X117046633Y-97073794D01*
X116830781Y-96985242D01*
X116705391Y-96896153D01*
X116536044Y-96790950D01*
X116440452Y-96769661D01*
X116285413Y-96725059D01*
X116060305Y-96616853D01*
X115959667Y-96558570D01*
X115728321Y-96422518D01*
X115542127Y-96322691D01*
X115494000Y-96300760D01*
X115320734Y-96223386D01*
X115062472Y-96099143D01*
X114780066Y-95958330D01*
X114534365Y-95831248D01*
X114393333Y-95752683D01*
X114263690Y-95682876D01*
X114022662Y-95561698D01*
X113712032Y-95409978D01*
X113546667Y-95330602D01*
X113217113Y-95171287D01*
X112936654Y-95031949D01*
X112747088Y-94933522D01*
X112700000Y-94906542D01*
X112523199Y-94812779D01*
X112361333Y-94741485D01*
X112150435Y-94648177D01*
X112022667Y-94581521D01*
X111868436Y-94499652D01*
X111637124Y-94386740D01*
X111557000Y-94349215D01*
X111316557Y-94229379D01*
X111128195Y-94120852D01*
X111091333Y-94095215D01*
X110946045Y-94010677D01*
X110703788Y-93894128D01*
X110498667Y-93805112D01*
X110223682Y-93683031D01*
X110001010Y-93569657D01*
X109906000Y-93509474D01*
X109724406Y-93403344D01*
X109571282Y-93343178D01*
X109362648Y-93248266D01*
X109247734Y-93163830D01*
X109096359Y-93065214D01*
X109021319Y-93048000D01*
X108878415Y-92988525D01*
X108805333Y-92921000D01*
X108638689Y-92816820D01*
X108513391Y-92794000D01*
X108336330Y-92735758D01*
X108144389Y-92596518D01*
X107999405Y-92429509D01*
X107958667Y-92316469D01*
X108015115Y-92203461D01*
X108151236Y-92049953D01*
X108154623Y-92046759D01*
X108297794Y-91942616D01*
X108481088Y-91886066D01*
X108757251Y-91864412D01*
X108919343Y-91862667D01*
X109269819Y-91882261D01*
G36*
X93910690Y-90532679D02*
G01*
X94014537Y-90591902D01*
X94088241Y-90674719D01*
X94188431Y-90847592D01*
X94163080Y-91010137D01*
X94146191Y-91045029D01*
X93918958Y-91380071D01*
X93652096Y-91562311D01*
X93378522Y-91608667D01*
X93070680Y-91642722D01*
X92773337Y-91725163D01*
X92761519Y-91729993D01*
X92491257Y-91818647D01*
X92166955Y-91893459D01*
X92065738Y-91910321D01*
X91768501Y-91971108D01*
X91503783Y-92053658D01*
X91431704Y-92085328D01*
X91195282Y-92171708D01*
X91005106Y-92201334D01*
X90805693Y-92239413D01*
X90550781Y-92334380D01*
X90475000Y-92370667D01*
X90228592Y-92477353D01*
X90017229Y-92537804D01*
X89970264Y-92542693D01*
X89765089Y-92595250D01*
X89633318Y-92669693D01*
X89425344Y-92769776D01*
X89283851Y-92794000D01*
X89085913Y-92849011D01*
X88993333Y-92921000D01*
X88832701Y-93018008D01*
X88663116Y-93048000D01*
X88435796Y-93110351D01*
X88293312Y-93217334D01*
X88124830Y-93347074D01*
X87988529Y-93386667D01*
X87800697Y-93448194D01*
X87723333Y-93513667D01*
X87558937Y-93622222D01*
X87463963Y-93640667D01*
X87305775Y-93682701D01*
X87256874Y-93726616D01*
X87149097Y-93818325D01*
X86957117Y-93927294D01*
X86934377Y-93938106D01*
X86662882Y-94079924D01*
X86411000Y-94231900D01*
X86187059Y-94373416D01*
X85994100Y-94484721D01*
X85987667Y-94488087D01*
X85574632Y-94718233D01*
X85128895Y-94999544D01*
X84623097Y-95350521D01*
X84029879Y-95789668D01*
X83771052Y-95987192D01*
X83474525Y-96209135D01*
X83224047Y-96385707D01*
X83051782Y-96494856D01*
X82994941Y-96519334D01*
X82889522Y-96582662D01*
X82883222Y-96596251D01*
X82810441Y-96676588D01*
X82632028Y-96840536D01*
X82373910Y-97065089D01*
X82062010Y-97327243D01*
X82024835Y-97357961D01*
X81340818Y-97932501D01*
X80756489Y-98446861D01*
X80257917Y-98911167D01*
X80096553Y-99025716D01*
X79989455Y-99059334D01*
X79851292Y-99117366D01*
X79722333Y-99228667D01*
X79536861Y-99354180D01*
X79321777Y-99399530D01*
X79152883Y-99349928D01*
X79143778Y-99341556D01*
X79096768Y-99204618D01*
X79082353Y-98964357D01*
X79096663Y-98682808D01*
X79135826Y-98422008D01*
X79195972Y-98243994D01*
X79213765Y-98219769D01*
X79332008Y-98090171D01*
X79521089Y-97878651D01*
X79740332Y-97630715D01*
X79742931Y-97627760D01*
X80281240Y-97039001D01*
X80867093Y-96438761D01*
X81470374Y-95855267D01*
X82060967Y-95316748D01*
X82608755Y-94851431D01*
X83083622Y-94487544D01*
X83122201Y-94460422D01*
X83390449Y-94269935D01*
X83614314Y-94104531D01*
X83747277Y-93998624D01*
X83750702Y-93995510D01*
X83996322Y-93802007D01*
X84363013Y-93554974D01*
X84818541Y-93272794D01*
X85330672Y-92973849D01*
X85867173Y-92676524D01*
X86395809Y-92399202D01*
X86884347Y-92160264D01*
X87257667Y-91995460D01*
X87514762Y-91884681D01*
X87792482Y-91757700D01*
X87808000Y-91750335D01*
X88096160Y-91637401D01*
X88388068Y-91557123D01*
X88400667Y-91554729D01*
X88629676Y-91496134D01*
X88790304Y-91426530D01*
X88798984Y-91420247D01*
X88949097Y-91352724D01*
X89230341Y-91269453D01*
X89606289Y-91179149D01*
X90040515Y-91090527D01*
X90496593Y-91012304D01*
X90517333Y-91009124D01*
X90864931Y-90944161D01*
X91196089Y-90862700D01*
X91386880Y-90801279D01*
X91651775Y-90735191D01*
X92019239Y-90691197D01*
X92377546Y-90677334D01*
X92773357Y-90664486D01*
X93171402Y-90630765D01*
X93486942Y-90583400D01*
X93492636Y-90582190D01*
X93755539Y-90532365D01*
X93910690Y-90532679D01*
G37*
X93910690Y-90532679D02*
X94014537Y-90591902D01*
X94088241Y-90674719D01*
X94188431Y-90847592D01*
X94163080Y-91010137D01*
X94146191Y-91045029D01*
X93918958Y-91380071D01*
X93652096Y-91562311D01*
X93378522Y-91608667D01*
X93070680Y-91642722D01*
X92773337Y-91725163D01*
X92761519Y-91729993D01*
X92491257Y-91818647D01*
X92166955Y-91893459D01*
X92065738Y-91910321D01*
X91768501Y-91971108D01*
X91503783Y-92053658D01*
X91431704Y-92085328D01*
X91195282Y-92171708D01*
X91005106Y-92201334D01*
X90805693Y-92239413D01*
X90550781Y-92334380D01*
X90475000Y-92370667D01*
X90228592Y-92477353D01*
X90017229Y-92537804D01*
X89970264Y-92542693D01*
X89765089Y-92595250D01*
X89633318Y-92669693D01*
X89425344Y-92769776D01*
X89283851Y-92794000D01*
X89085913Y-92849011D01*
X88993333Y-92921000D01*
X88832701Y-93018008D01*
X88663116Y-93048000D01*
X88435796Y-93110351D01*
X88293312Y-93217334D01*
X88124830Y-93347074D01*
X87988529Y-93386667D01*
X87800697Y-93448194D01*
X87723333Y-93513667D01*
X87558937Y-93622222D01*
X87463963Y-93640667D01*
X87305775Y-93682701D01*
X87256874Y-93726616D01*
X87149097Y-93818325D01*
X86957117Y-93927294D01*
X86934377Y-93938106D01*
X86662882Y-94079924D01*
X86411000Y-94231900D01*
X86187059Y-94373416D01*
X85994100Y-94484721D01*
X85987667Y-94488087D01*
X85574632Y-94718233D01*
X85128895Y-94999544D01*
X84623097Y-95350521D01*
X84029879Y-95789668D01*
X83771052Y-95987192D01*
X83474525Y-96209135D01*
X83224047Y-96385707D01*
X83051782Y-96494856D01*
X82994941Y-96519334D01*
X82889522Y-96582662D01*
X82883222Y-96596251D01*
X82810441Y-96676588D01*
X82632028Y-96840536D01*
X82373910Y-97065089D01*
X82062010Y-97327243D01*
X82024835Y-97357961D01*
X81340818Y-97932501D01*
X80756489Y-98446861D01*
X80257917Y-98911167D01*
X80096553Y-99025716D01*
X79989455Y-99059334D01*
X79851292Y-99117366D01*
X79722333Y-99228667D01*
X79536861Y-99354180D01*
X79321777Y-99399530D01*
X79152883Y-99349928D01*
X79143778Y-99341556D01*
X79096768Y-99204618D01*
X79082353Y-98964357D01*
X79096663Y-98682808D01*
X79135826Y-98422008D01*
X79195972Y-98243994D01*
X79213765Y-98219769D01*
X79332008Y-98090171D01*
X79521089Y-97878651D01*
X79740332Y-97630715D01*
X79742931Y-97627760D01*
X80281240Y-97039001D01*
X80867093Y-96438761D01*
X81470374Y-95855267D01*
X82060967Y-95316748D01*
X82608755Y-94851431D01*
X83083622Y-94487544D01*
X83122201Y-94460422D01*
X83390449Y-94269935D01*
X83614314Y-94104531D01*
X83747277Y-93998624D01*
X83750702Y-93995510D01*
X83996322Y-93802007D01*
X84363013Y-93554974D01*
X84818541Y-93272794D01*
X85330672Y-92973849D01*
X85867173Y-92676524D01*
X86395809Y-92399202D01*
X86884347Y-92160264D01*
X87257667Y-91995460D01*
X87514762Y-91884681D01*
X87792482Y-91757700D01*
X87808000Y-91750335D01*
X88096160Y-91637401D01*
X88388068Y-91557123D01*
X88400667Y-91554729D01*
X88629676Y-91496134D01*
X88790304Y-91426530D01*
X88798984Y-91420247D01*
X88949097Y-91352724D01*
X89230341Y-91269453D01*
X89606289Y-91179149D01*
X90040515Y-91090527D01*
X90496593Y-91012304D01*
X90517333Y-91009124D01*
X90864931Y-90944161D01*
X91196089Y-90862700D01*
X91386880Y-90801279D01*
X91651775Y-90735191D01*
X92019239Y-90691197D01*
X92377546Y-90677334D01*
X92773357Y-90664486D01*
X93171402Y-90630765D01*
X93486942Y-90583400D01*
X93492636Y-90582190D01*
X93755539Y-90532365D01*
X93910690Y-90532679D01*
D13*
X126610000Y-78670000D02*
X127940000Y-78670000D01*
X126610000Y-80000000D02*
X126610000Y-78670000D01*
X126610000Y-81270000D02*
X129270000Y-81270000D01*
X129270000Y-81270000D02*
X129270000Y-104190000D01*
X126610000Y-81270000D02*
X126610000Y-104190000D01*
X126610000Y-104190000D02*
X129270000Y-104190000D01*
X70730000Y-78670000D02*
X72060000Y-78670000D01*
X70730000Y-80000000D02*
X70730000Y-78670000D01*
X70730000Y-81270000D02*
X73390000Y-81270000D01*
X73390000Y-81270000D02*
X73390000Y-104190000D01*
X70730000Y-81270000D02*
X70730000Y-104190000D01*
X70730000Y-104190000D02*
X73390000Y-104190000D01*
M02*
