G04 #@! TF.GenerationSoftware,KiCad,Pcbnew,5.1.5+dfsg1-2build2*
G04 #@! TF.CreationDate,2021-12-17T15:29:28+01:00*
G04 #@! TF.ProjectId,teebeutel_thermal_addon,74656562-6575-4746-956c-5f746865726d,rev?*
G04 #@! TF.SameCoordinates,Original*
G04 #@! TF.FileFunction,Legend,Bot*
G04 #@! TF.FilePolarity,Positive*
%FSLAX46Y46*%
G04 Gerber Fmt 4.6, Leading zero omitted, Abs format (unit mm)*
G04 Created by KiCad (PCBNEW 5.1.5+dfsg1-2build2) date 2021-12-17 15:29:28*
%MOMM*%
%LPD*%
G04 APERTURE LIST*
%ADD10C,0.120000*%
%ADD11C,0.100000*%
G04 APERTURE END LIST*
D10*
X84900000Y-94500000D02*
X85300000Y-94900000D01*
X84900000Y-89200000D02*
X84900000Y-94500000D01*
X88100000Y-93900000D02*
X88100000Y-89100000D01*
X111900000Y-94500000D02*
X112300000Y-94900000D01*
X111900000Y-89200000D02*
X111900000Y-94500000D01*
X115100000Y-93900000D02*
X115100000Y-89100000D01*
X113700000Y-95600000D02*
X113700000Y-96600000D01*
X113700000Y-99100000D02*
X113700000Y-100100000D01*
X119350000Y-95600000D02*
X119050000Y-95600000D01*
X119350000Y-99100000D02*
X119050000Y-99100000D01*
X116240000Y-97680000D02*
X117700000Y-97680000D01*
X116240000Y-94520000D02*
X118400000Y-94520000D01*
X116240000Y-94520000D02*
X116240000Y-95450000D01*
X116240000Y-97680000D02*
X116240000Y-96750000D01*
X116240000Y-101180000D02*
X117700000Y-101180000D01*
X116240000Y-98020000D02*
X118400000Y-98020000D01*
X116240000Y-98020000D02*
X116240000Y-98950000D01*
X116240000Y-101180000D02*
X116240000Y-100250000D01*
X105050000Y-87000000D02*
X105350000Y-87000000D01*
X89500000Y-100500000D02*
X89500000Y-101900000D01*
X90900000Y-100500000D02*
X89500000Y-100500000D01*
X90900000Y-101900000D02*
X90900000Y-100500000D01*
X89500000Y-101900000D02*
X90900000Y-101900000D01*
X91900000Y-94500000D02*
X91900000Y-95900000D01*
X93300000Y-94500000D02*
X91900000Y-94500000D01*
X93300000Y-95900000D02*
X93300000Y-94500000D01*
X91900000Y-95900000D02*
X93300000Y-95900000D01*
X96700000Y-101100000D02*
X96700000Y-102500000D01*
X98100000Y-101100000D02*
X96700000Y-101100000D01*
X98100000Y-102500000D02*
X98100000Y-101100000D01*
X96700000Y-102500000D02*
X98100000Y-102500000D01*
X92225000Y-101100000D02*
X92225000Y-97300000D01*
X95375000Y-101100000D02*
X92225000Y-101100000D01*
X103400000Y-80030000D02*
X102800000Y-80030000D01*
X103400000Y-80630000D02*
X103400000Y-80030000D01*
X103150000Y-80285000D02*
X103150000Y-83215000D01*
X103150000Y-80285000D02*
X96850000Y-80285000D01*
X96850000Y-80285000D02*
X96850000Y-83215000D01*
X96850000Y-83215000D02*
X103150000Y-83215000D01*
X95400000Y-83900000D02*
X95400000Y-85000000D01*
X95400000Y-83900000D02*
X96500000Y-83900000D01*
X104600000Y-83900000D02*
X103500000Y-83900000D01*
X104600000Y-83900000D02*
X104600000Y-85000000D01*
X104600000Y-96100000D02*
X103500000Y-96100000D01*
X104600000Y-96100000D02*
X104600000Y-95000000D01*
X95400000Y-96100000D02*
X95400000Y-95000000D01*
X95400000Y-96100000D02*
X99000000Y-96100000D01*
X99500000Y-98500000D02*
G75*
G03X99500000Y-98500000I0J0D01*
G01*
D11*
X100400000Y-97800000D02*
X100400000Y-97600000D01*
X100400000Y-97600000D02*
X100200000Y-97600000D01*
X99800000Y-97600000D02*
X99600000Y-97600000D01*
X99600000Y-97600000D02*
X99600000Y-97800000D01*
X99600000Y-98100000D02*
X99600000Y-98400000D01*
X99600000Y-98400000D02*
X99900000Y-98400000D01*
X100400000Y-98400000D02*
X100400000Y-98200000D01*
X100200000Y-98400000D02*
X100400000Y-98400000D01*
X100600000Y-100000000D02*
X100600000Y-99800000D01*
X99400000Y-99700000D02*
X99400000Y-100000000D01*
D10*
X99300000Y-100100000D02*
G75*
G03X99300000Y-100100000I0J0D01*
G01*
D11*
X100600000Y-99000000D02*
X100600000Y-98800000D01*
X100600000Y-98800000D02*
X100400000Y-98800000D01*
X99400000Y-100000000D02*
X99700000Y-100000000D01*
X99600000Y-98800000D02*
X99400000Y-98800000D01*
X99400000Y-98800000D02*
X99400000Y-99000000D01*
X100400000Y-100000000D02*
X100600000Y-100000000D01*
D10*
X96350000Y-99600000D02*
X96050000Y-99600000D01*
X107850000Y-90000000D02*
X107550000Y-90000000D01*
X94250000Y-90000000D02*
X94550000Y-90000000D01*
X104350000Y-80400000D02*
X104050000Y-80400000D01*
X103850000Y-82800000D02*
X104150000Y-82800000D01*
X97800000Y-97850000D02*
X97800000Y-98150000D01*
X93350000Y-90800000D02*
X93050000Y-90800000D01*
X105050000Y-81000000D02*
X105350000Y-81000000D01*
X98600000Y-79550000D02*
X98600000Y-79250000D01*
X94250000Y-93000000D02*
X94550000Y-93000000D01*
X92050000Y-89200000D02*
X92350000Y-89200000D01*
X90350000Y-99200000D02*
X90050000Y-99200000D01*
X106050000Y-86800000D02*
X106750000Y-86800000D01*
X101800000Y-78850000D02*
X101800000Y-79550000D01*
X105550000Y-93200000D02*
X105250000Y-93200000D01*
X99850000Y-79200000D02*
X100150000Y-79200000D01*
X106000000Y-90850000D02*
X106000000Y-91550000D01*
X95650000Y-81000000D02*
X96350000Y-81000000D01*
X106000000Y-88450000D02*
X106000000Y-89150000D01*
X100000000Y-101350000D02*
X100000000Y-100650000D01*
X96050000Y-97600000D02*
X96350000Y-97600000D01*
X91250000Y-98600000D02*
X91550000Y-98600000D01*
D11*
X113989285Y-97453571D02*
X114139285Y-97239285D01*
X114246428Y-97453571D02*
X114246428Y-97003571D01*
X114075000Y-97003571D01*
X114032142Y-97025000D01*
X114010714Y-97046428D01*
X113989285Y-97089285D01*
X113989285Y-97153571D01*
X114010714Y-97196428D01*
X114032142Y-97217857D01*
X114075000Y-97239285D01*
X114246428Y-97239285D01*
X113560714Y-97453571D02*
X113817857Y-97453571D01*
X113689285Y-97453571D02*
X113689285Y-97003571D01*
X113732142Y-97067857D01*
X113775000Y-97110714D01*
X113817857Y-97132142D01*
X113175000Y-97003571D02*
X113260714Y-97003571D01*
X113303571Y-97025000D01*
X113325000Y-97046428D01*
X113367857Y-97110714D01*
X113389285Y-97196428D01*
X113389285Y-97367857D01*
X113367857Y-97410714D01*
X113346428Y-97432142D01*
X113303571Y-97453571D01*
X113217857Y-97453571D01*
X113175000Y-97432142D01*
X113153571Y-97410714D01*
X113132142Y-97367857D01*
X113132142Y-97260714D01*
X113153571Y-97217857D01*
X113175000Y-97196428D01*
X113217857Y-97175000D01*
X113303571Y-97175000D01*
X113346428Y-97196428D01*
X113367857Y-97217857D01*
X113389285Y-97260714D01*
X113989285Y-100953571D02*
X114139285Y-100739285D01*
X114246428Y-100953571D02*
X114246428Y-100503571D01*
X114075000Y-100503571D01*
X114032142Y-100525000D01*
X114010714Y-100546428D01*
X113989285Y-100589285D01*
X113989285Y-100653571D01*
X114010714Y-100696428D01*
X114032142Y-100717857D01*
X114075000Y-100739285D01*
X114246428Y-100739285D01*
X113560714Y-100953571D02*
X113817857Y-100953571D01*
X113689285Y-100953571D02*
X113689285Y-100503571D01*
X113732142Y-100567857D01*
X113775000Y-100610714D01*
X113817857Y-100632142D01*
X113153571Y-100503571D02*
X113367857Y-100503571D01*
X113389285Y-100717857D01*
X113367857Y-100696428D01*
X113325000Y-100675000D01*
X113217857Y-100675000D01*
X113175000Y-100696428D01*
X113153571Y-100717857D01*
X113132142Y-100760714D01*
X113132142Y-100867857D01*
X113153571Y-100910714D01*
X113175000Y-100932142D01*
X113217857Y-100953571D01*
X113325000Y-100953571D01*
X113367857Y-100932142D01*
X113389285Y-100910714D01*
X120639285Y-95753571D02*
X120789285Y-95539285D01*
X120896428Y-95753571D02*
X120896428Y-95303571D01*
X120725000Y-95303571D01*
X120682142Y-95325000D01*
X120660714Y-95346428D01*
X120639285Y-95389285D01*
X120639285Y-95453571D01*
X120660714Y-95496428D01*
X120682142Y-95517857D01*
X120725000Y-95539285D01*
X120896428Y-95539285D01*
X120210714Y-95753571D02*
X120467857Y-95753571D01*
X120339285Y-95753571D02*
X120339285Y-95303571D01*
X120382142Y-95367857D01*
X120425000Y-95410714D01*
X120467857Y-95432142D01*
X119825000Y-95453571D02*
X119825000Y-95753571D01*
X119932142Y-95282142D02*
X120039285Y-95603571D01*
X119760714Y-95603571D01*
X120275000Y-99303571D02*
X120425000Y-99089285D01*
X120532142Y-99303571D02*
X120532142Y-98853571D01*
X120360714Y-98853571D01*
X120317857Y-98875000D01*
X120296428Y-98896428D01*
X120275000Y-98939285D01*
X120275000Y-99003571D01*
X120296428Y-99046428D01*
X120317857Y-99067857D01*
X120360714Y-99089285D01*
X120532142Y-99089285D01*
X120017857Y-99046428D02*
X120060714Y-99025000D01*
X120082142Y-99003571D01*
X120103571Y-98960714D01*
X120103571Y-98939285D01*
X120082142Y-98896428D01*
X120060714Y-98875000D01*
X120017857Y-98853571D01*
X119932142Y-98853571D01*
X119889285Y-98875000D01*
X119867857Y-98896428D01*
X119846428Y-98939285D01*
X119846428Y-98960714D01*
X119867857Y-99003571D01*
X119889285Y-99025000D01*
X119932142Y-99046428D01*
X120017857Y-99046428D01*
X120060714Y-99067857D01*
X120082142Y-99089285D01*
X120103571Y-99132142D01*
X120103571Y-99217857D01*
X120082142Y-99260714D01*
X120060714Y-99282142D01*
X120017857Y-99303571D01*
X119932142Y-99303571D01*
X119889285Y-99282142D01*
X119867857Y-99260714D01*
X119846428Y-99217857D01*
X119846428Y-99132142D01*
X119867857Y-99089285D01*
X119889285Y-99067857D01*
X119932142Y-99046428D01*
X115607142Y-95128571D02*
X115664285Y-95100000D01*
X115721428Y-95042857D01*
X115807142Y-94957142D01*
X115864285Y-94928571D01*
X115921428Y-94928571D01*
X115892857Y-95071428D02*
X115950000Y-95042857D01*
X116007142Y-94985714D01*
X116035714Y-94871428D01*
X116035714Y-94671428D01*
X116007142Y-94557142D01*
X115950000Y-94500000D01*
X115892857Y-94471428D01*
X115778571Y-94471428D01*
X115721428Y-94500000D01*
X115664285Y-94557142D01*
X115635714Y-94671428D01*
X115635714Y-94871428D01*
X115664285Y-94985714D01*
X115721428Y-95042857D01*
X115778571Y-95071428D01*
X115892857Y-95071428D01*
X115407142Y-94528571D02*
X115378571Y-94500000D01*
X115321428Y-94471428D01*
X115178571Y-94471428D01*
X115121428Y-94500000D01*
X115092857Y-94528571D01*
X115064285Y-94585714D01*
X115064285Y-94642857D01*
X115092857Y-94728571D01*
X115435714Y-95071428D01*
X115064285Y-95071428D01*
X115607142Y-98728571D02*
X115664285Y-98700000D01*
X115721428Y-98642857D01*
X115807142Y-98557142D01*
X115864285Y-98528571D01*
X115921428Y-98528571D01*
X115892857Y-98671428D02*
X115950000Y-98642857D01*
X116007142Y-98585714D01*
X116035714Y-98471428D01*
X116035714Y-98271428D01*
X116007142Y-98157142D01*
X115950000Y-98100000D01*
X115892857Y-98071428D01*
X115778571Y-98071428D01*
X115721428Y-98100000D01*
X115664285Y-98157142D01*
X115635714Y-98271428D01*
X115635714Y-98471428D01*
X115664285Y-98585714D01*
X115721428Y-98642857D01*
X115778571Y-98671428D01*
X115892857Y-98671428D01*
X115064285Y-98671428D02*
X115407142Y-98671428D01*
X115235714Y-98671428D02*
X115235714Y-98071428D01*
X115292857Y-98157142D01*
X115350000Y-98214285D01*
X115407142Y-98242857D01*
X105289285Y-85910714D02*
X105310714Y-85932142D01*
X105375000Y-85953571D01*
X105417857Y-85953571D01*
X105482142Y-85932142D01*
X105525000Y-85889285D01*
X105546428Y-85846428D01*
X105567857Y-85760714D01*
X105567857Y-85696428D01*
X105546428Y-85610714D01*
X105525000Y-85567857D01*
X105482142Y-85525000D01*
X105417857Y-85503571D01*
X105375000Y-85503571D01*
X105310714Y-85525000D01*
X105289285Y-85546428D01*
X104860714Y-85953571D02*
X105117857Y-85953571D01*
X104989285Y-85953571D02*
X104989285Y-85503571D01*
X105032142Y-85567857D01*
X105075000Y-85610714D01*
X105117857Y-85632142D01*
X104689285Y-85546428D02*
X104667857Y-85525000D01*
X104625000Y-85503571D01*
X104517857Y-85503571D01*
X104475000Y-85525000D01*
X104453571Y-85546428D01*
X104432142Y-85589285D01*
X104432142Y-85632142D01*
X104453571Y-85696428D01*
X104710714Y-85953571D01*
X104432142Y-85953571D01*
X94285714Y-101471428D02*
X93885714Y-102071428D01*
X93885714Y-101471428D02*
X94285714Y-102071428D01*
X93342857Y-102071428D02*
X93685714Y-102071428D01*
X93514285Y-102071428D02*
X93514285Y-101471428D01*
X93571428Y-101557142D01*
X93628571Y-101614285D01*
X93685714Y-101642857D01*
X100457142Y-83421428D02*
X100457142Y-83907142D01*
X100428571Y-83964285D01*
X100400000Y-83992857D01*
X100342857Y-84021428D01*
X100228571Y-84021428D01*
X100171428Y-83992857D01*
X100142857Y-83964285D01*
X100114285Y-83907142D01*
X100114285Y-83421428D01*
X99571428Y-83621428D02*
X99571428Y-84021428D01*
X99714285Y-83392857D02*
X99857142Y-83821428D01*
X99485714Y-83821428D01*
X100457142Y-96071428D02*
X100457142Y-96557142D01*
X100428571Y-96614285D01*
X100400000Y-96642857D01*
X100342857Y-96671428D01*
X100228571Y-96671428D01*
X100171428Y-96642857D01*
X100142857Y-96614285D01*
X100114285Y-96557142D01*
X100114285Y-96071428D01*
X99885714Y-96071428D02*
X99514285Y-96071428D01*
X99714285Y-96300000D01*
X99628571Y-96300000D01*
X99571428Y-96328571D01*
X99542857Y-96357142D01*
X99514285Y-96414285D01*
X99514285Y-96557142D01*
X99542857Y-96614285D01*
X99571428Y-96642857D01*
X99628571Y-96671428D01*
X99800000Y-96671428D01*
X99857142Y-96642857D01*
X99885714Y-96614285D01*
X100457142Y-96871428D02*
X100457142Y-97357142D01*
X100428571Y-97414285D01*
X100400000Y-97442857D01*
X100342857Y-97471428D01*
X100228571Y-97471428D01*
X100171428Y-97442857D01*
X100142857Y-97414285D01*
X100114285Y-97357142D01*
X100114285Y-96871428D01*
X99857142Y-96928571D02*
X99828571Y-96900000D01*
X99771428Y-96871428D01*
X99628571Y-96871428D01*
X99571428Y-96900000D01*
X99542857Y-96928571D01*
X99514285Y-96985714D01*
X99514285Y-97042857D01*
X99542857Y-97128571D01*
X99885714Y-97471428D01*
X99514285Y-97471428D01*
X103657142Y-99071428D02*
X103657142Y-99557142D01*
X103628571Y-99614285D01*
X103600000Y-99642857D01*
X103542857Y-99671428D01*
X103428571Y-99671428D01*
X103371428Y-99642857D01*
X103342857Y-99614285D01*
X103314285Y-99557142D01*
X103314285Y-99071428D01*
X102714285Y-99671428D02*
X103057142Y-99671428D01*
X102885714Y-99671428D02*
X102885714Y-99071428D01*
X102942857Y-99157142D01*
X103000000Y-99214285D01*
X103057142Y-99242857D01*
X95835714Y-102071428D02*
X96035714Y-101785714D01*
X96178571Y-102071428D02*
X96178571Y-101471428D01*
X95950000Y-101471428D01*
X95892857Y-101500000D01*
X95864285Y-101528571D01*
X95835714Y-101585714D01*
X95835714Y-101671428D01*
X95864285Y-101728571D01*
X95892857Y-101757142D01*
X95950000Y-101785714D01*
X96178571Y-101785714D01*
X95264285Y-102071428D02*
X95607142Y-102071428D01*
X95435714Y-102071428D02*
X95435714Y-101471428D01*
X95492857Y-101557142D01*
X95550000Y-101614285D01*
X95607142Y-101642857D01*
X95064285Y-101471428D02*
X94692857Y-101471428D01*
X94892857Y-101700000D01*
X94807142Y-101700000D01*
X94750000Y-101728571D01*
X94721428Y-101757142D01*
X94692857Y-101814285D01*
X94692857Y-101957142D01*
X94721428Y-102014285D01*
X94750000Y-102042857D01*
X94807142Y-102071428D01*
X94978571Y-102071428D01*
X95035714Y-102042857D01*
X95064285Y-102014285D01*
X108585714Y-91671428D02*
X108785714Y-91385714D01*
X108928571Y-91671428D02*
X108928571Y-91071428D01*
X108700000Y-91071428D01*
X108642857Y-91100000D01*
X108614285Y-91128571D01*
X108585714Y-91185714D01*
X108585714Y-91271428D01*
X108614285Y-91328571D01*
X108642857Y-91357142D01*
X108700000Y-91385714D01*
X108928571Y-91385714D01*
X108014285Y-91671428D02*
X108357142Y-91671428D01*
X108185714Y-91671428D02*
X108185714Y-91071428D01*
X108242857Y-91157142D01*
X108300000Y-91214285D01*
X108357142Y-91242857D01*
X107785714Y-91128571D02*
X107757142Y-91100000D01*
X107700000Y-91071428D01*
X107557142Y-91071428D01*
X107500000Y-91100000D01*
X107471428Y-91128571D01*
X107442857Y-91185714D01*
X107442857Y-91242857D01*
X107471428Y-91328571D01*
X107814285Y-91671428D01*
X107442857Y-91671428D01*
X94585714Y-88871428D02*
X94785714Y-88585714D01*
X94928571Y-88871428D02*
X94928571Y-88271428D01*
X94700000Y-88271428D01*
X94642857Y-88300000D01*
X94614285Y-88328571D01*
X94585714Y-88385714D01*
X94585714Y-88471428D01*
X94614285Y-88528571D01*
X94642857Y-88557142D01*
X94700000Y-88585714D01*
X94928571Y-88585714D01*
X94014285Y-88871428D02*
X94357142Y-88871428D01*
X94185714Y-88871428D02*
X94185714Y-88271428D01*
X94242857Y-88357142D01*
X94300000Y-88414285D01*
X94357142Y-88442857D01*
X93442857Y-88871428D02*
X93785714Y-88871428D01*
X93614285Y-88871428D02*
X93614285Y-88271428D01*
X93671428Y-88357142D01*
X93728571Y-88414285D01*
X93785714Y-88442857D01*
X106185714Y-79871428D02*
X106385714Y-79585714D01*
X106528571Y-79871428D02*
X106528571Y-79271428D01*
X106300000Y-79271428D01*
X106242857Y-79300000D01*
X106214285Y-79328571D01*
X106185714Y-79385714D01*
X106185714Y-79471428D01*
X106214285Y-79528571D01*
X106242857Y-79557142D01*
X106300000Y-79585714D01*
X106528571Y-79585714D01*
X105614285Y-79871428D02*
X105957142Y-79871428D01*
X105785714Y-79871428D02*
X105785714Y-79271428D01*
X105842857Y-79357142D01*
X105900000Y-79414285D01*
X105957142Y-79442857D01*
X105242857Y-79271428D02*
X105185714Y-79271428D01*
X105128571Y-79300000D01*
X105100000Y-79328571D01*
X105071428Y-79385714D01*
X105042857Y-79500000D01*
X105042857Y-79642857D01*
X105071428Y-79757142D01*
X105100000Y-79814285D01*
X105128571Y-79842857D01*
X105185714Y-79871428D01*
X105242857Y-79871428D01*
X105300000Y-79842857D01*
X105328571Y-79814285D01*
X105357142Y-79757142D01*
X105385714Y-79642857D01*
X105385714Y-79500000D01*
X105357142Y-79385714D01*
X105328571Y-79328571D01*
X105300000Y-79300000D01*
X105242857Y-79271428D01*
X105300000Y-83471428D02*
X105500000Y-83185714D01*
X105642857Y-83471428D02*
X105642857Y-82871428D01*
X105414285Y-82871428D01*
X105357142Y-82900000D01*
X105328571Y-82928571D01*
X105300000Y-82985714D01*
X105300000Y-83071428D01*
X105328571Y-83128571D01*
X105357142Y-83157142D01*
X105414285Y-83185714D01*
X105642857Y-83185714D01*
X105014285Y-83471428D02*
X104900000Y-83471428D01*
X104842857Y-83442857D01*
X104814285Y-83414285D01*
X104757142Y-83328571D01*
X104728571Y-83214285D01*
X104728571Y-82985714D01*
X104757142Y-82928571D01*
X104785714Y-82900000D01*
X104842857Y-82871428D01*
X104957142Y-82871428D01*
X105014285Y-82900000D01*
X105042857Y-82928571D01*
X105071428Y-82985714D01*
X105071428Y-83128571D01*
X105042857Y-83185714D01*
X105014285Y-83214285D01*
X104957142Y-83242857D01*
X104842857Y-83242857D01*
X104785714Y-83214285D01*
X104757142Y-83185714D01*
X104728571Y-83128571D01*
X98700000Y-97271428D02*
X98900000Y-96985714D01*
X99042857Y-97271428D02*
X99042857Y-96671428D01*
X98814285Y-96671428D01*
X98757142Y-96700000D01*
X98728571Y-96728571D01*
X98700000Y-96785714D01*
X98700000Y-96871428D01*
X98728571Y-96928571D01*
X98757142Y-96957142D01*
X98814285Y-96985714D01*
X99042857Y-96985714D01*
X98500000Y-96671428D02*
X98100000Y-96671428D01*
X98357142Y-97271428D01*
X93300000Y-92471428D02*
X93500000Y-92185714D01*
X93642857Y-92471428D02*
X93642857Y-91871428D01*
X93414285Y-91871428D01*
X93357142Y-91900000D01*
X93328571Y-91928571D01*
X93300000Y-91985714D01*
X93300000Y-92071428D01*
X93328571Y-92128571D01*
X93357142Y-92157142D01*
X93414285Y-92185714D01*
X93642857Y-92185714D01*
X92785714Y-91871428D02*
X92900000Y-91871428D01*
X92957142Y-91900000D01*
X92985714Y-91928571D01*
X93042857Y-92014285D01*
X93071428Y-92128571D01*
X93071428Y-92357142D01*
X93042857Y-92414285D01*
X93014285Y-92442857D01*
X92957142Y-92471428D01*
X92842857Y-92471428D01*
X92785714Y-92442857D01*
X92757142Y-92414285D01*
X92728571Y-92357142D01*
X92728571Y-92214285D01*
X92757142Y-92157142D01*
X92785714Y-92128571D01*
X92842857Y-92100000D01*
X92957142Y-92100000D01*
X93014285Y-92128571D01*
X93042857Y-92157142D01*
X93071428Y-92214285D01*
X105300000Y-82671428D02*
X105500000Y-82385714D01*
X105642857Y-82671428D02*
X105642857Y-82071428D01*
X105414285Y-82071428D01*
X105357142Y-82100000D01*
X105328571Y-82128571D01*
X105300000Y-82185714D01*
X105300000Y-82271428D01*
X105328571Y-82328571D01*
X105357142Y-82357142D01*
X105414285Y-82385714D01*
X105642857Y-82385714D01*
X104757142Y-82071428D02*
X105042857Y-82071428D01*
X105071428Y-82357142D01*
X105042857Y-82328571D01*
X104985714Y-82300000D01*
X104842857Y-82300000D01*
X104785714Y-82328571D01*
X104757142Y-82357142D01*
X104728571Y-82414285D01*
X104728571Y-82557142D01*
X104757142Y-82614285D01*
X104785714Y-82642857D01*
X104842857Y-82671428D01*
X104985714Y-82671428D01*
X105042857Y-82642857D01*
X105071428Y-82614285D01*
X97100000Y-79671428D02*
X97300000Y-79385714D01*
X97442857Y-79671428D02*
X97442857Y-79071428D01*
X97214285Y-79071428D01*
X97157142Y-79100000D01*
X97128571Y-79128571D01*
X97100000Y-79185714D01*
X97100000Y-79271428D01*
X97128571Y-79328571D01*
X97157142Y-79357142D01*
X97214285Y-79385714D01*
X97442857Y-79385714D01*
X96585714Y-79271428D02*
X96585714Y-79671428D01*
X96728571Y-79042857D02*
X96871428Y-79471428D01*
X96500000Y-79471428D01*
X94500000Y-94671428D02*
X94700000Y-94385714D01*
X94842857Y-94671428D02*
X94842857Y-94071428D01*
X94614285Y-94071428D01*
X94557142Y-94100000D01*
X94528571Y-94128571D01*
X94500000Y-94185714D01*
X94500000Y-94271428D01*
X94528571Y-94328571D01*
X94557142Y-94357142D01*
X94614285Y-94385714D01*
X94842857Y-94385714D01*
X94300000Y-94071428D02*
X93928571Y-94071428D01*
X94128571Y-94300000D01*
X94042857Y-94300000D01*
X93985714Y-94328571D01*
X93957142Y-94357142D01*
X93928571Y-94414285D01*
X93928571Y-94557142D01*
X93957142Y-94614285D01*
X93985714Y-94642857D01*
X94042857Y-94671428D01*
X94214285Y-94671428D01*
X94271428Y-94642857D01*
X94300000Y-94614285D01*
X92100000Y-90871428D02*
X92300000Y-90585714D01*
X92442857Y-90871428D02*
X92442857Y-90271428D01*
X92214285Y-90271428D01*
X92157142Y-90300000D01*
X92128571Y-90328571D01*
X92100000Y-90385714D01*
X92100000Y-90471428D01*
X92128571Y-90528571D01*
X92157142Y-90557142D01*
X92214285Y-90585714D01*
X92442857Y-90585714D01*
X91871428Y-90328571D02*
X91842857Y-90300000D01*
X91785714Y-90271428D01*
X91642857Y-90271428D01*
X91585714Y-90300000D01*
X91557142Y-90328571D01*
X91528571Y-90385714D01*
X91528571Y-90442857D01*
X91557142Y-90528571D01*
X91900000Y-90871428D01*
X91528571Y-90871428D01*
X90300000Y-98071428D02*
X90500000Y-97785714D01*
X90642857Y-98071428D02*
X90642857Y-97471428D01*
X90414285Y-97471428D01*
X90357142Y-97500000D01*
X90328571Y-97528571D01*
X90300000Y-97585714D01*
X90300000Y-97671428D01*
X90328571Y-97728571D01*
X90357142Y-97757142D01*
X90414285Y-97785714D01*
X90642857Y-97785714D01*
X89728571Y-98071428D02*
X90071428Y-98071428D01*
X89900000Y-98071428D02*
X89900000Y-97471428D01*
X89957142Y-97557142D01*
X90014285Y-97614285D01*
X90071428Y-97642857D01*
X93900000Y-86271428D02*
X93900000Y-86700000D01*
X93928571Y-86785714D01*
X93985714Y-86842857D01*
X94071428Y-86871428D01*
X94128571Y-86871428D01*
X93614285Y-86871428D02*
X93614285Y-86271428D01*
X93385714Y-86271428D01*
X93328571Y-86300000D01*
X93300000Y-86328571D01*
X93271428Y-86385714D01*
X93271428Y-86471428D01*
X93300000Y-86528571D01*
X93328571Y-86557142D01*
X93385714Y-86585714D01*
X93614285Y-86585714D01*
X92700000Y-86871428D02*
X93042857Y-86871428D01*
X92871428Y-86871428D02*
X92871428Y-86271428D01*
X92928571Y-86357142D01*
X92985714Y-86414285D01*
X93042857Y-86442857D01*
X106785714Y-85214285D02*
X106814285Y-85242857D01*
X106900000Y-85271428D01*
X106957142Y-85271428D01*
X107042857Y-85242857D01*
X107100000Y-85185714D01*
X107128571Y-85128571D01*
X107157142Y-85014285D01*
X107157142Y-84928571D01*
X107128571Y-84814285D01*
X107100000Y-84757142D01*
X107042857Y-84700000D01*
X106957142Y-84671428D01*
X106900000Y-84671428D01*
X106814285Y-84700000D01*
X106785714Y-84728571D01*
X106214285Y-85271428D02*
X106557142Y-85271428D01*
X106385714Y-85271428D02*
X106385714Y-84671428D01*
X106442857Y-84757142D01*
X106500000Y-84814285D01*
X106557142Y-84842857D01*
X105642857Y-85271428D02*
X105985714Y-85271428D01*
X105814285Y-85271428D02*
X105814285Y-84671428D01*
X105871428Y-84757142D01*
X105928571Y-84814285D01*
X105985714Y-84842857D01*
X104585714Y-79214285D02*
X104614285Y-79242857D01*
X104700000Y-79271428D01*
X104757142Y-79271428D01*
X104842857Y-79242857D01*
X104900000Y-79185714D01*
X104928571Y-79128571D01*
X104957142Y-79014285D01*
X104957142Y-78928571D01*
X104928571Y-78814285D01*
X104900000Y-78757142D01*
X104842857Y-78700000D01*
X104757142Y-78671428D01*
X104700000Y-78671428D01*
X104614285Y-78700000D01*
X104585714Y-78728571D01*
X104014285Y-79271428D02*
X104357142Y-79271428D01*
X104185714Y-79271428D02*
X104185714Y-78671428D01*
X104242857Y-78757142D01*
X104300000Y-78814285D01*
X104357142Y-78842857D01*
X103642857Y-78671428D02*
X103585714Y-78671428D01*
X103528571Y-78700000D01*
X103500000Y-78728571D01*
X103471428Y-78785714D01*
X103442857Y-78900000D01*
X103442857Y-79042857D01*
X103471428Y-79157142D01*
X103500000Y-79214285D01*
X103528571Y-79242857D01*
X103585714Y-79271428D01*
X103642857Y-79271428D01*
X103700000Y-79242857D01*
X103728571Y-79214285D01*
X103757142Y-79157142D01*
X103785714Y-79042857D01*
X103785714Y-78900000D01*
X103757142Y-78785714D01*
X103728571Y-78728571D01*
X103700000Y-78700000D01*
X103642857Y-78671428D01*
X105500000Y-94814285D02*
X105528571Y-94842857D01*
X105614285Y-94871428D01*
X105671428Y-94871428D01*
X105757142Y-94842857D01*
X105814285Y-94785714D01*
X105842857Y-94728571D01*
X105871428Y-94614285D01*
X105871428Y-94528571D01*
X105842857Y-94414285D01*
X105814285Y-94357142D01*
X105757142Y-94300000D01*
X105671428Y-94271428D01*
X105614285Y-94271428D01*
X105528571Y-94300000D01*
X105500000Y-94328571D01*
X105214285Y-94871428D02*
X105100000Y-94871428D01*
X105042857Y-94842857D01*
X105014285Y-94814285D01*
X104957142Y-94728571D01*
X104928571Y-94614285D01*
X104928571Y-94385714D01*
X104957142Y-94328571D01*
X104985714Y-94300000D01*
X105042857Y-94271428D01*
X105157142Y-94271428D01*
X105214285Y-94300000D01*
X105242857Y-94328571D01*
X105271428Y-94385714D01*
X105271428Y-94528571D01*
X105242857Y-94585714D01*
X105214285Y-94614285D01*
X105157142Y-94642857D01*
X105042857Y-94642857D01*
X104985714Y-94614285D01*
X104957142Y-94585714D01*
X104928571Y-94528571D01*
X97100000Y-78814285D02*
X97128571Y-78842857D01*
X97214285Y-78871428D01*
X97271428Y-78871428D01*
X97357142Y-78842857D01*
X97414285Y-78785714D01*
X97442857Y-78728571D01*
X97471428Y-78614285D01*
X97471428Y-78528571D01*
X97442857Y-78414285D01*
X97414285Y-78357142D01*
X97357142Y-78300000D01*
X97271428Y-78271428D01*
X97214285Y-78271428D01*
X97128571Y-78300000D01*
X97100000Y-78328571D01*
X96757142Y-78528571D02*
X96814285Y-78500000D01*
X96842857Y-78471428D01*
X96871428Y-78414285D01*
X96871428Y-78385714D01*
X96842857Y-78328571D01*
X96814285Y-78300000D01*
X96757142Y-78271428D01*
X96642857Y-78271428D01*
X96585714Y-78300000D01*
X96557142Y-78328571D01*
X96528571Y-78385714D01*
X96528571Y-78414285D01*
X96557142Y-78471428D01*
X96585714Y-78500000D01*
X96642857Y-78528571D01*
X96757142Y-78528571D01*
X96814285Y-78557142D01*
X96842857Y-78585714D01*
X96871428Y-78642857D01*
X96871428Y-78757142D01*
X96842857Y-78814285D01*
X96814285Y-78842857D01*
X96757142Y-78871428D01*
X96642857Y-78871428D01*
X96585714Y-78842857D01*
X96557142Y-78814285D01*
X96528571Y-78757142D01*
X96528571Y-78642857D01*
X96557142Y-78585714D01*
X96585714Y-78557142D01*
X96642857Y-78528571D01*
X106700000Y-92614285D02*
X106728571Y-92642857D01*
X106814285Y-92671428D01*
X106871428Y-92671428D01*
X106957142Y-92642857D01*
X107014285Y-92585714D01*
X107042857Y-92528571D01*
X107071428Y-92414285D01*
X107071428Y-92328571D01*
X107042857Y-92214285D01*
X107014285Y-92157142D01*
X106957142Y-92100000D01*
X106871428Y-92071428D01*
X106814285Y-92071428D01*
X106728571Y-92100000D01*
X106700000Y-92128571D01*
X106500000Y-92071428D02*
X106100000Y-92071428D01*
X106357142Y-92671428D01*
X96100000Y-83014285D02*
X96128571Y-83042857D01*
X96214285Y-83071428D01*
X96271428Y-83071428D01*
X96357142Y-83042857D01*
X96414285Y-82985714D01*
X96442857Y-82928571D01*
X96471428Y-82814285D01*
X96471428Y-82728571D01*
X96442857Y-82614285D01*
X96414285Y-82557142D01*
X96357142Y-82500000D01*
X96271428Y-82471428D01*
X96214285Y-82471428D01*
X96128571Y-82500000D01*
X96100000Y-82528571D01*
X95585714Y-82471428D02*
X95700000Y-82471428D01*
X95757142Y-82500000D01*
X95785714Y-82528571D01*
X95842857Y-82614285D01*
X95871428Y-82728571D01*
X95871428Y-82957142D01*
X95842857Y-83014285D01*
X95814285Y-83042857D01*
X95757142Y-83071428D01*
X95642857Y-83071428D01*
X95585714Y-83042857D01*
X95557142Y-83014285D01*
X95528571Y-82957142D01*
X95528571Y-82814285D01*
X95557142Y-82757142D01*
X95585714Y-82728571D01*
X95642857Y-82700000D01*
X95757142Y-82700000D01*
X95814285Y-82728571D01*
X95842857Y-82757142D01*
X95871428Y-82814285D01*
X106100000Y-90214285D02*
X106128571Y-90242857D01*
X106214285Y-90271428D01*
X106271428Y-90271428D01*
X106357142Y-90242857D01*
X106414285Y-90185714D01*
X106442857Y-90128571D01*
X106471428Y-90014285D01*
X106471428Y-89928571D01*
X106442857Y-89814285D01*
X106414285Y-89757142D01*
X106357142Y-89700000D01*
X106271428Y-89671428D01*
X106214285Y-89671428D01*
X106128571Y-89700000D01*
X106100000Y-89728571D01*
X105557142Y-89671428D02*
X105842857Y-89671428D01*
X105871428Y-89957142D01*
X105842857Y-89928571D01*
X105785714Y-89900000D01*
X105642857Y-89900000D01*
X105585714Y-89928571D01*
X105557142Y-89957142D01*
X105528571Y-90014285D01*
X105528571Y-90157142D01*
X105557142Y-90214285D01*
X105585714Y-90242857D01*
X105642857Y-90271428D01*
X105785714Y-90271428D01*
X105842857Y-90242857D01*
X105871428Y-90214285D01*
X100100000Y-102414285D02*
X100128571Y-102442857D01*
X100214285Y-102471428D01*
X100271428Y-102471428D01*
X100357142Y-102442857D01*
X100414285Y-102385714D01*
X100442857Y-102328571D01*
X100471428Y-102214285D01*
X100471428Y-102128571D01*
X100442857Y-102014285D01*
X100414285Y-101957142D01*
X100357142Y-101900000D01*
X100271428Y-101871428D01*
X100214285Y-101871428D01*
X100128571Y-101900000D01*
X100100000Y-101928571D01*
X99900000Y-101871428D02*
X99528571Y-101871428D01*
X99728571Y-102100000D01*
X99642857Y-102100000D01*
X99585714Y-102128571D01*
X99557142Y-102157142D01*
X99528571Y-102214285D01*
X99528571Y-102357142D01*
X99557142Y-102414285D01*
X99585714Y-102442857D01*
X99642857Y-102471428D01*
X99814285Y-102471428D01*
X99871428Y-102442857D01*
X99900000Y-102414285D01*
X97500000Y-97214285D02*
X97528571Y-97242857D01*
X97614285Y-97271428D01*
X97671428Y-97271428D01*
X97757142Y-97242857D01*
X97814285Y-97185714D01*
X97842857Y-97128571D01*
X97871428Y-97014285D01*
X97871428Y-96928571D01*
X97842857Y-96814285D01*
X97814285Y-96757142D01*
X97757142Y-96700000D01*
X97671428Y-96671428D01*
X97614285Y-96671428D01*
X97528571Y-96700000D01*
X97500000Y-96728571D01*
X97271428Y-96728571D02*
X97242857Y-96700000D01*
X97185714Y-96671428D01*
X97042857Y-96671428D01*
X96985714Y-96700000D01*
X96957142Y-96728571D01*
X96928571Y-96785714D01*
X96928571Y-96842857D01*
X96957142Y-96928571D01*
X97300000Y-97271428D01*
X96928571Y-97271428D01*
X91500000Y-97414285D02*
X91528571Y-97442857D01*
X91614285Y-97471428D01*
X91671428Y-97471428D01*
X91757142Y-97442857D01*
X91814285Y-97385714D01*
X91842857Y-97328571D01*
X91871428Y-97214285D01*
X91871428Y-97128571D01*
X91842857Y-97014285D01*
X91814285Y-96957142D01*
X91757142Y-96900000D01*
X91671428Y-96871428D01*
X91614285Y-96871428D01*
X91528571Y-96900000D01*
X91500000Y-96928571D01*
X90928571Y-97471428D02*
X91271428Y-97471428D01*
X91100000Y-97471428D02*
X91100000Y-96871428D01*
X91157142Y-96957142D01*
X91214285Y-97014285D01*
X91271428Y-97042857D01*
M02*
