G04 #@! TF.GenerationSoftware,KiCad,Pcbnew,5.1.5+dfsg1-2build2*
G04 #@! TF.CreationDate,2021-12-17T15:29:28+01:00*
G04 #@! TF.ProjectId,teebeutel_thermal_addon,74656562-6575-4746-956c-5f746865726d,rev?*
G04 #@! TF.SameCoordinates,Original*
G04 #@! TF.FileFunction,Copper,L1,Top*
G04 #@! TF.FilePolarity,Positive*
%FSLAX46Y46*%
G04 Gerber Fmt 4.6, Leading zero omitted, Abs format (unit mm)*
G04 Created by KiCad (PCBNEW 5.1.5+dfsg1-2build2) date 2021-12-17 15:29:28*
%MOMM*%
%LPD*%
G04 APERTURE LIST*
%ADD10R,1.000000X1.000000*%
%ADD11O,1.700000X1.700000*%
%ADD12R,1.700000X1.700000*%
%ADD13C,0.600000*%
%ADD14C,0.400000*%
%ADD15C,0.200000*%
%ADD16C,0.150000*%
%ADD17C,0.127000*%
%ADD18C,0.400000*%
G04 APERTURE END LIST*
D10*
X90200000Y-101200000D03*
X92600000Y-95200000D03*
X97400000Y-101800000D03*
D11*
X127940000Y-102860000D03*
X127940000Y-100320000D03*
X127940000Y-97780000D03*
X127940000Y-95240000D03*
X127940000Y-92700000D03*
X127940000Y-90160000D03*
X127940000Y-87620000D03*
X127940000Y-85080000D03*
X127940000Y-82540000D03*
D12*
X127940000Y-80000000D03*
D11*
X72060000Y-102860000D03*
X72060000Y-100320000D03*
X72060000Y-97780000D03*
X72060000Y-95240000D03*
X72060000Y-92700000D03*
X72060000Y-90160000D03*
X72060000Y-87620000D03*
X72060000Y-85080000D03*
X72060000Y-82540000D03*
D12*
X72060000Y-80000000D03*
D13*
X99350000Y-81750000D03*
X100650000Y-81750000D03*
X101825000Y-78475000D03*
X97360000Y-79140000D03*
X98100000Y-83500000D03*
X103550000Y-79250000D03*
X101470000Y-86530000D03*
X99255000Y-86855000D03*
X99300000Y-102000000D03*
X99900000Y-101000000D03*
X97100000Y-97000000D03*
X92800000Y-96800000D03*
X106750000Y-92250000D03*
X104530000Y-93670000D03*
X98900000Y-88300000D03*
X74000000Y-88000000D03*
X94500000Y-95500000D03*
X91000000Y-95250000D03*
X98750000Y-94250000D03*
X99000000Y-92500000D03*
X100750000Y-93500000D03*
X103250000Y-96750000D03*
X101750000Y-98250000D03*
X98250000Y-100500000D03*
X92000000Y-101500000D03*
X89250000Y-99250000D03*
X91250000Y-97250000D03*
X94500000Y-86500000D03*
X99250000Y-84000000D03*
X97000000Y-86250000D03*
X105250000Y-84000000D03*
X107000000Y-85250000D03*
X104250000Y-85750000D03*
X106000000Y-90000000D03*
X107500000Y-79750000D03*
X125500000Y-81500000D03*
X124750000Y-102250000D03*
X126250000Y-100750000D03*
X112500000Y-102800000D03*
X108700000Y-102800000D03*
X111100000Y-98000000D03*
X113900000Y-97900000D03*
X116700000Y-95000000D03*
X116900000Y-97800000D03*
X119500000Y-97500000D03*
X125100000Y-97500000D03*
X125100000Y-94200000D03*
X119600000Y-94000000D03*
X108500000Y-88100000D03*
X108700000Y-85900000D03*
X114300000Y-87200000D03*
X86100000Y-87800000D03*
X88600000Y-87900000D03*
X84000000Y-94000000D03*
X81000000Y-94000000D03*
X84000000Y-95500000D03*
X81000000Y-95500000D03*
X77500000Y-94000000D03*
X77500000Y-92000000D03*
X81000000Y-92000000D03*
X84000000Y-92000000D03*
X84000000Y-89000000D03*
X81000000Y-89000000D03*
X77500000Y-89000000D03*
X74000000Y-85500000D03*
X74000000Y-90500000D03*
X89000000Y-95500000D03*
X89000000Y-94000000D03*
X99000000Y-103000000D03*
X95000000Y-103000000D03*
X87000000Y-99500000D03*
X84500000Y-99500000D03*
X100000000Y-85700000D03*
X99600000Y-87600000D03*
X76000000Y-92500000D03*
X100800000Y-85800000D03*
X100500000Y-87300000D03*
D14*
X100100000Y-97400000D03*
X100472990Y-98700000D03*
D13*
X100450002Y-79449998D03*
X99300000Y-79900000D03*
X106215000Y-81785000D03*
X106865000Y-82435000D03*
X95100000Y-81700000D03*
X94000000Y-81700000D03*
X93100000Y-93100000D03*
X93100000Y-89800000D03*
X100892690Y-80150000D03*
X105200000Y-79900000D03*
X94700000Y-101500000D03*
D14*
X99299990Y-97800000D03*
X99900000Y-98600000D03*
D15*
X99600000Y-87300000D02*
X99600000Y-87600000D01*
X100000000Y-86900000D02*
X99600000Y-87300000D01*
X100000000Y-85700000D02*
X100000000Y-86900000D01*
X72300000Y-92700000D02*
X72060000Y-92700000D01*
D16*
X75800000Y-92700000D02*
X76000000Y-92500000D01*
X72060000Y-92700000D02*
X75800000Y-92700000D01*
D15*
X100800000Y-87000000D02*
X100500000Y-87300000D01*
X100800000Y-85800000D02*
X100800000Y-87000000D01*
D17*
X100100000Y-97400000D02*
X100472990Y-97772990D01*
X100472990Y-97772990D02*
X100472990Y-98700000D01*
D16*
X92000000Y-94600000D02*
X92600000Y-95200000D01*
X79040000Y-94600000D02*
X92000000Y-94600000D01*
X72060000Y-87620000D02*
X79040000Y-94600000D01*
D18*
X106865000Y-82435000D02*
X105530000Y-81100000D01*
X105530000Y-81100000D02*
X100800000Y-81100000D01*
X100800000Y-81100000D02*
X99900000Y-80200000D01*
X99900000Y-80000000D02*
X100450002Y-79449998D01*
X99900000Y-80200000D02*
X99900000Y-80000000D01*
X96000000Y-81700000D02*
X95100000Y-81700000D01*
X97800000Y-79900000D02*
X96000000Y-81700000D01*
X99800000Y-79900000D02*
X97800000Y-79900000D01*
X99900000Y-80000000D02*
X99800000Y-79900000D01*
X94000000Y-81700000D02*
X96000000Y-81700000D01*
X109300000Y-80000000D02*
X106865000Y-82435000D01*
X127940000Y-80000000D02*
X109300000Y-80000000D01*
D16*
X93100000Y-93100000D02*
X93100000Y-89800000D01*
D15*
X104950000Y-80150000D02*
X105200000Y-79900000D01*
X100892690Y-80150000D02*
X104950000Y-80150000D01*
X124460000Y-103800000D02*
X97000000Y-103800000D01*
X97000000Y-103800000D02*
X94999999Y-101799999D01*
X127940000Y-100320000D02*
X124460000Y-103800000D01*
X94999999Y-101799999D02*
X94700000Y-101500000D01*
D17*
X99900000Y-98400010D02*
X99900000Y-98600000D01*
X99299990Y-97800000D02*
X99900000Y-98400010D01*
D18*
G36*
X128506964Y-78452234D02*
G01*
X128754144Y-78526862D01*
X128982113Y-78648075D01*
X129182206Y-78811266D01*
X129346784Y-79010207D01*
X129469591Y-79237334D01*
X129545941Y-79483979D01*
X129575000Y-79760466D01*
X129575001Y-103229201D01*
X129547766Y-103506966D01*
X129473140Y-103754140D01*
X129351924Y-103982114D01*
X129188734Y-104182206D01*
X128989793Y-104346784D01*
X128762666Y-104469591D01*
X128516021Y-104545941D01*
X128239534Y-104575000D01*
X71770789Y-104575000D01*
X71493034Y-104547766D01*
X71245860Y-104473140D01*
X71017886Y-104351924D01*
X70817794Y-104188734D01*
X70653216Y-103989793D01*
X70530409Y-103762666D01*
X70454059Y-103516021D01*
X70425000Y-103239534D01*
X70425000Y-103104771D01*
X70834199Y-103104771D01*
X70904795Y-103337500D01*
X71020148Y-103553694D01*
X71175461Y-103743230D01*
X71364767Y-103898824D01*
X71580790Y-104014497D01*
X71815229Y-104085803D01*
X72010000Y-104009002D01*
X72010000Y-102910000D01*
X72110000Y-102910000D01*
X72110000Y-104009002D01*
X72304771Y-104085803D01*
X72539210Y-104014497D01*
X72755233Y-103898824D01*
X72944539Y-103743230D01*
X73099852Y-103553694D01*
X73215205Y-103337500D01*
X73285801Y-103104771D01*
X73208913Y-102910000D01*
X72110000Y-102910000D01*
X72010000Y-102910000D01*
X70911087Y-102910000D01*
X70834199Y-103104771D01*
X70425000Y-103104771D01*
X70425000Y-102615229D01*
X70834199Y-102615229D01*
X70911087Y-102810000D01*
X72010000Y-102810000D01*
X72010000Y-101710998D01*
X72110000Y-101710998D01*
X72110000Y-102810000D01*
X73208913Y-102810000D01*
X73285801Y-102615229D01*
X73215205Y-102382500D01*
X73099852Y-102166306D01*
X72944539Y-101976770D01*
X72755233Y-101821176D01*
X72539210Y-101705503D01*
X72304771Y-101634197D01*
X72110000Y-101710998D01*
X72010000Y-101710998D01*
X71815229Y-101634197D01*
X71580790Y-101705503D01*
X71364767Y-101821176D01*
X71175461Y-101976770D01*
X71020148Y-102166306D01*
X70904795Y-102382500D01*
X70834199Y-102615229D01*
X70425000Y-102615229D01*
X70425000Y-100196886D01*
X70810000Y-100196886D01*
X70810000Y-100443114D01*
X70858037Y-100684611D01*
X70952265Y-100912097D01*
X71089062Y-101116828D01*
X71263172Y-101290938D01*
X71467903Y-101427735D01*
X71695389Y-101521963D01*
X71936886Y-101570000D01*
X72183114Y-101570000D01*
X72424611Y-101521963D01*
X72652097Y-101427735D01*
X72856828Y-101290938D01*
X73030938Y-101116828D01*
X73167735Y-100912097D01*
X73255588Y-100700000D01*
X89298065Y-100700000D01*
X89298065Y-101700000D01*
X89305788Y-101778414D01*
X89328660Y-101853814D01*
X89365803Y-101923303D01*
X89415789Y-101984211D01*
X89476697Y-102034197D01*
X89546186Y-102071340D01*
X89621586Y-102094212D01*
X89700000Y-102101935D01*
X90700000Y-102101935D01*
X90778414Y-102094212D01*
X90853814Y-102071340D01*
X90923303Y-102034197D01*
X90984211Y-101984211D01*
X91034197Y-101923303D01*
X91071340Y-101853814D01*
X91094212Y-101778414D01*
X91101935Y-101700000D01*
X91101935Y-101431056D01*
X94000000Y-101431056D01*
X94000000Y-101568944D01*
X94026901Y-101704182D01*
X94079668Y-101831574D01*
X94156274Y-101946224D01*
X94253776Y-102043726D01*
X94368426Y-102120332D01*
X94495818Y-102173099D01*
X94631056Y-102200000D01*
X94692895Y-102200000D01*
X96629080Y-104136187D01*
X96644736Y-104155264D01*
X96720871Y-104217746D01*
X96807733Y-104264175D01*
X96891579Y-104289609D01*
X96901983Y-104292765D01*
X97000000Y-104302419D01*
X97024560Y-104300000D01*
X124435440Y-104300000D01*
X124460000Y-104302419D01*
X124484560Y-104300000D01*
X124558017Y-104292765D01*
X124652267Y-104264175D01*
X124739129Y-104217746D01*
X124815264Y-104155264D01*
X124830929Y-104136176D01*
X125862334Y-103104771D01*
X126714199Y-103104771D01*
X126784795Y-103337500D01*
X126900148Y-103553694D01*
X127055461Y-103743230D01*
X127244767Y-103898824D01*
X127460790Y-104014497D01*
X127695229Y-104085803D01*
X127890000Y-104009002D01*
X127890000Y-102910000D01*
X127990000Y-102910000D01*
X127990000Y-104009002D01*
X128184771Y-104085803D01*
X128419210Y-104014497D01*
X128635233Y-103898824D01*
X128824539Y-103743230D01*
X128979852Y-103553694D01*
X129095205Y-103337500D01*
X129165801Y-103104771D01*
X129088913Y-102910000D01*
X127990000Y-102910000D01*
X127890000Y-102910000D01*
X126791087Y-102910000D01*
X126714199Y-103104771D01*
X125862334Y-103104771D01*
X126351876Y-102615229D01*
X126714199Y-102615229D01*
X126791087Y-102810000D01*
X127890000Y-102810000D01*
X127890000Y-101710998D01*
X127990000Y-101710998D01*
X127990000Y-102810000D01*
X129088913Y-102810000D01*
X129165801Y-102615229D01*
X129095205Y-102382500D01*
X128979852Y-102166306D01*
X128824539Y-101976770D01*
X128635233Y-101821176D01*
X128419210Y-101705503D01*
X128184771Y-101634197D01*
X127990000Y-101710998D01*
X127890000Y-101710998D01*
X127695229Y-101634197D01*
X127460790Y-101705503D01*
X127244767Y-101821176D01*
X127055461Y-101976770D01*
X126900148Y-102166306D01*
X126784795Y-102382500D01*
X126714199Y-102615229D01*
X126351876Y-102615229D01*
X127483291Y-101483815D01*
X127575389Y-101521963D01*
X127816886Y-101570000D01*
X128063114Y-101570000D01*
X128304611Y-101521963D01*
X128532097Y-101427735D01*
X128736828Y-101290938D01*
X128910938Y-101116828D01*
X129047735Y-100912097D01*
X129141963Y-100684611D01*
X129190000Y-100443114D01*
X129190000Y-100196886D01*
X129141963Y-99955389D01*
X129047735Y-99727903D01*
X128910938Y-99523172D01*
X128736828Y-99349062D01*
X128532097Y-99212265D01*
X128304611Y-99118037D01*
X128063114Y-99070000D01*
X127816886Y-99070000D01*
X127575389Y-99118037D01*
X127347903Y-99212265D01*
X127143172Y-99349062D01*
X126969062Y-99523172D01*
X126832265Y-99727903D01*
X126738037Y-99955389D01*
X126690000Y-100196886D01*
X126690000Y-100443114D01*
X126738037Y-100684611D01*
X126776185Y-100776709D01*
X124252895Y-103300000D01*
X97207107Y-103300000D01*
X95400000Y-101492895D01*
X95400000Y-101431056D01*
X95373931Y-101300000D01*
X96498065Y-101300000D01*
X96498065Y-102300000D01*
X96505788Y-102378414D01*
X96528660Y-102453814D01*
X96565803Y-102523303D01*
X96615789Y-102584211D01*
X96676697Y-102634197D01*
X96746186Y-102671340D01*
X96821586Y-102694212D01*
X96900000Y-102701935D01*
X97900000Y-102701935D01*
X97978414Y-102694212D01*
X98053814Y-102671340D01*
X98123303Y-102634197D01*
X98184211Y-102584211D01*
X98234197Y-102523303D01*
X98271340Y-102453814D01*
X98294212Y-102378414D01*
X98301935Y-102300000D01*
X98301935Y-101300000D01*
X98294212Y-101221586D01*
X98271340Y-101146186D01*
X98234197Y-101076697D01*
X98184211Y-101015789D01*
X98123303Y-100965803D01*
X98053814Y-100928660D01*
X97978414Y-100905788D01*
X97900000Y-100898065D01*
X96900000Y-100898065D01*
X96821586Y-100905788D01*
X96746186Y-100928660D01*
X96676697Y-100965803D01*
X96615789Y-101015789D01*
X96565803Y-101076697D01*
X96528660Y-101146186D01*
X96505788Y-101221586D01*
X96498065Y-101300000D01*
X95373931Y-101300000D01*
X95373099Y-101295818D01*
X95320332Y-101168426D01*
X95243726Y-101053776D01*
X95146224Y-100956274D01*
X95031574Y-100879668D01*
X94904182Y-100826901D01*
X94768944Y-100800000D01*
X94631056Y-100800000D01*
X94495818Y-100826901D01*
X94368426Y-100879668D01*
X94253776Y-100956274D01*
X94156274Y-101053776D01*
X94079668Y-101168426D01*
X94026901Y-101295818D01*
X94000000Y-101431056D01*
X91101935Y-101431056D01*
X91101935Y-100700000D01*
X91094212Y-100621586D01*
X91071340Y-100546186D01*
X91034197Y-100476697D01*
X90984211Y-100415789D01*
X90923303Y-100365803D01*
X90853814Y-100328660D01*
X90778414Y-100305788D01*
X90700000Y-100298065D01*
X89700000Y-100298065D01*
X89621586Y-100305788D01*
X89546186Y-100328660D01*
X89476697Y-100365803D01*
X89415789Y-100415789D01*
X89365803Y-100476697D01*
X89328660Y-100546186D01*
X89305788Y-100621586D01*
X89298065Y-100700000D01*
X73255588Y-100700000D01*
X73261963Y-100684611D01*
X73310000Y-100443114D01*
X73310000Y-100196886D01*
X73261963Y-99955389D01*
X73167735Y-99727903D01*
X73030938Y-99523172D01*
X72856828Y-99349062D01*
X72794438Y-99307374D01*
X97059550Y-99307374D01*
X97059550Y-99492626D01*
X97095691Y-99674319D01*
X97166584Y-99845470D01*
X97269505Y-99999502D01*
X97400498Y-100130495D01*
X97554530Y-100233416D01*
X97725681Y-100304309D01*
X97907374Y-100340450D01*
X98092626Y-100340450D01*
X98274319Y-100304309D01*
X98445470Y-100233416D01*
X98599502Y-100130495D01*
X98730495Y-99999502D01*
X98833416Y-99845470D01*
X98904309Y-99674319D01*
X98940450Y-99492626D01*
X98940450Y-99307374D01*
X101059550Y-99307374D01*
X101059550Y-99492626D01*
X101095691Y-99674319D01*
X101166584Y-99845470D01*
X101269505Y-99999502D01*
X101400498Y-100130495D01*
X101554530Y-100233416D01*
X101725681Y-100304309D01*
X101907374Y-100340450D01*
X102092626Y-100340450D01*
X102274319Y-100304309D01*
X102445470Y-100233416D01*
X102599502Y-100130495D01*
X102730495Y-99999502D01*
X102833416Y-99845470D01*
X102904309Y-99674319D01*
X102940450Y-99492626D01*
X102940450Y-99307374D01*
X102904309Y-99125681D01*
X102833416Y-98954530D01*
X102730495Y-98800498D01*
X102599502Y-98669505D01*
X102445470Y-98566584D01*
X102274319Y-98495691D01*
X102092626Y-98459550D01*
X101907374Y-98459550D01*
X101725681Y-98495691D01*
X101554530Y-98566584D01*
X101400498Y-98669505D01*
X101269505Y-98800498D01*
X101166584Y-98954530D01*
X101095691Y-99125681D01*
X101059550Y-99307374D01*
X98940450Y-99307374D01*
X98904309Y-99125681D01*
X98833416Y-98954530D01*
X98730495Y-98800498D01*
X98599502Y-98669505D01*
X98445470Y-98566584D01*
X98274319Y-98495691D01*
X98092626Y-98459550D01*
X97907374Y-98459550D01*
X97725681Y-98495691D01*
X97554530Y-98566584D01*
X97400498Y-98669505D01*
X97269505Y-98800498D01*
X97166584Y-98954530D01*
X97095691Y-99125681D01*
X97059550Y-99307374D01*
X72794438Y-99307374D01*
X72652097Y-99212265D01*
X72424611Y-99118037D01*
X72183114Y-99070000D01*
X71936886Y-99070000D01*
X71695389Y-99118037D01*
X71467903Y-99212265D01*
X71263172Y-99349062D01*
X71089062Y-99523172D01*
X70952265Y-99727903D01*
X70858037Y-99955389D01*
X70810000Y-100196886D01*
X70425000Y-100196886D01*
X70425000Y-97656886D01*
X70810000Y-97656886D01*
X70810000Y-97903114D01*
X70858037Y-98144611D01*
X70952265Y-98372097D01*
X71089062Y-98576828D01*
X71263172Y-98750938D01*
X71467903Y-98887735D01*
X71695389Y-98981963D01*
X71936886Y-99030000D01*
X72183114Y-99030000D01*
X72424611Y-98981963D01*
X72652097Y-98887735D01*
X72856828Y-98750938D01*
X73030938Y-98576828D01*
X73167735Y-98372097D01*
X73261963Y-98144611D01*
X73310000Y-97903114D01*
X73310000Y-97740905D01*
X98699990Y-97740905D01*
X98699990Y-97859095D01*
X98723048Y-97975014D01*
X98768277Y-98084207D01*
X98833940Y-98182478D01*
X98917512Y-98266050D01*
X99015783Y-98331713D01*
X99124976Y-98376942D01*
X99240895Y-98400000D01*
X99244503Y-98400000D01*
X99314170Y-98469668D01*
X99300000Y-98540905D01*
X99300000Y-98659095D01*
X99323058Y-98775014D01*
X99368287Y-98884207D01*
X99433950Y-98982478D01*
X99517522Y-99066050D01*
X99615793Y-99131713D01*
X99724986Y-99176942D01*
X99840905Y-99200000D01*
X99959095Y-99200000D01*
X100075014Y-99176942D01*
X100094644Y-99168811D01*
X100188783Y-99231713D01*
X100297976Y-99276942D01*
X100413895Y-99300000D01*
X100532085Y-99300000D01*
X100648004Y-99276942D01*
X100757197Y-99231713D01*
X100855468Y-99166050D01*
X100939040Y-99082478D01*
X101004703Y-98984207D01*
X101049932Y-98875014D01*
X101072990Y-98759095D01*
X101072990Y-98640905D01*
X101049932Y-98524986D01*
X101004703Y-98415793D01*
X100939040Y-98317522D01*
X100936490Y-98314972D01*
X100936490Y-97795744D01*
X100938731Y-97772990D01*
X100936490Y-97750236D01*
X100936490Y-97750226D01*
X100929783Y-97682128D01*
X100922127Y-97656886D01*
X126690000Y-97656886D01*
X126690000Y-97903114D01*
X126738037Y-98144611D01*
X126832265Y-98372097D01*
X126969062Y-98576828D01*
X127143172Y-98750938D01*
X127347903Y-98887735D01*
X127575389Y-98981963D01*
X127816886Y-99030000D01*
X128063114Y-99030000D01*
X128304611Y-98981963D01*
X128532097Y-98887735D01*
X128736828Y-98750938D01*
X128910938Y-98576828D01*
X129047735Y-98372097D01*
X129141963Y-98144611D01*
X129190000Y-97903114D01*
X129190000Y-97656886D01*
X129141963Y-97415389D01*
X129047735Y-97187903D01*
X128910938Y-96983172D01*
X128736828Y-96809062D01*
X128532097Y-96672265D01*
X128304611Y-96578037D01*
X128063114Y-96530000D01*
X127816886Y-96530000D01*
X127575389Y-96578037D01*
X127347903Y-96672265D01*
X127143172Y-96809062D01*
X126969062Y-96983172D01*
X126832265Y-97187903D01*
X126738037Y-97415389D01*
X126690000Y-97656886D01*
X100922127Y-97656886D01*
X100903280Y-97594758D01*
X100860240Y-97514238D01*
X100824486Y-97470671D01*
X100816830Y-97461342D01*
X100816827Y-97461339D01*
X100802319Y-97443661D01*
X100784642Y-97429154D01*
X100700000Y-97344512D01*
X100700000Y-97340905D01*
X100676942Y-97224986D01*
X100631713Y-97115793D01*
X100566050Y-97017522D01*
X100482478Y-96933950D01*
X100384207Y-96868287D01*
X100275014Y-96823058D01*
X100159095Y-96800000D01*
X100040905Y-96800000D01*
X99924986Y-96823058D01*
X99815793Y-96868287D01*
X99717522Y-96933950D01*
X99633950Y-97017522D01*
X99568287Y-97115793D01*
X99523058Y-97224986D01*
X99519754Y-97241594D01*
X99475004Y-97223058D01*
X99359085Y-97200000D01*
X99240895Y-97200000D01*
X99124976Y-97223058D01*
X99015783Y-97268287D01*
X98917512Y-97333950D01*
X98833940Y-97417522D01*
X98768277Y-97515793D01*
X98723048Y-97624986D01*
X98699990Y-97740905D01*
X73310000Y-97740905D01*
X73310000Y-97656886D01*
X73261963Y-97415389D01*
X73167735Y-97187903D01*
X73030938Y-96983172D01*
X72856828Y-96809062D01*
X72652097Y-96672265D01*
X72424611Y-96578037D01*
X72183114Y-96530000D01*
X71936886Y-96530000D01*
X71695389Y-96578037D01*
X71467903Y-96672265D01*
X71263172Y-96809062D01*
X71089062Y-96983172D01*
X70952265Y-97187903D01*
X70858037Y-97415389D01*
X70810000Y-97656886D01*
X70425000Y-97656886D01*
X70425000Y-95116886D01*
X70810000Y-95116886D01*
X70810000Y-95363114D01*
X70858037Y-95604611D01*
X70952265Y-95832097D01*
X71089062Y-96036828D01*
X71263172Y-96210938D01*
X71467903Y-96347735D01*
X71695389Y-96441963D01*
X71936886Y-96490000D01*
X72183114Y-96490000D01*
X72424611Y-96441963D01*
X72652097Y-96347735D01*
X72856828Y-96210938D01*
X73030938Y-96036828D01*
X73167735Y-95832097D01*
X73261963Y-95604611D01*
X73310000Y-95363114D01*
X73310000Y-95116886D01*
X73261963Y-94875389D01*
X73167735Y-94647903D01*
X73030938Y-94443172D01*
X72856828Y-94269062D01*
X72652097Y-94132265D01*
X72424611Y-94038037D01*
X72183114Y-93990000D01*
X71936886Y-93990000D01*
X71695389Y-94038037D01*
X71467903Y-94132265D01*
X71263172Y-94269062D01*
X71089062Y-94443172D01*
X70952265Y-94647903D01*
X70858037Y-94875389D01*
X70810000Y-95116886D01*
X70425000Y-95116886D01*
X70425000Y-90036886D01*
X70810000Y-90036886D01*
X70810000Y-90283114D01*
X70858037Y-90524611D01*
X70952265Y-90752097D01*
X71089062Y-90956828D01*
X71263172Y-91130938D01*
X71467903Y-91267735D01*
X71695389Y-91361963D01*
X71936886Y-91410000D01*
X72183114Y-91410000D01*
X72424611Y-91361963D01*
X72652097Y-91267735D01*
X72856828Y-91130938D01*
X73030938Y-90956828D01*
X73167735Y-90752097D01*
X73261963Y-90524611D01*
X73310000Y-90283114D01*
X73310000Y-90036886D01*
X73261963Y-89795389D01*
X73167735Y-89567903D01*
X73030938Y-89363172D01*
X72856828Y-89189062D01*
X72652097Y-89052265D01*
X72424611Y-88958037D01*
X72183114Y-88910000D01*
X71936886Y-88910000D01*
X71695389Y-88958037D01*
X71467903Y-89052265D01*
X71263172Y-89189062D01*
X71089062Y-89363172D01*
X70952265Y-89567903D01*
X70858037Y-89795389D01*
X70810000Y-90036886D01*
X70425000Y-90036886D01*
X70425000Y-87496886D01*
X70810000Y-87496886D01*
X70810000Y-87743114D01*
X70858037Y-87984611D01*
X70952265Y-88212097D01*
X71089062Y-88416828D01*
X71263172Y-88590938D01*
X71467903Y-88727735D01*
X71695389Y-88821963D01*
X71936886Y-88870000D01*
X72183114Y-88870000D01*
X72424611Y-88821963D01*
X72541709Y-88773459D01*
X75656132Y-91887883D01*
X75553776Y-91956274D01*
X75456274Y-92053776D01*
X75379668Y-92168426D01*
X75356235Y-92225000D01*
X73216238Y-92225000D01*
X73167735Y-92107903D01*
X73030938Y-91903172D01*
X72856828Y-91729062D01*
X72652097Y-91592265D01*
X72424611Y-91498037D01*
X72183114Y-91450000D01*
X71936886Y-91450000D01*
X71695389Y-91498037D01*
X71467903Y-91592265D01*
X71263172Y-91729062D01*
X71089062Y-91903172D01*
X70952265Y-92107903D01*
X70858037Y-92335389D01*
X70810000Y-92576886D01*
X70810000Y-92823114D01*
X70858037Y-93064611D01*
X70952265Y-93292097D01*
X71089062Y-93496828D01*
X71263172Y-93670938D01*
X71467903Y-93807735D01*
X71695389Y-93901963D01*
X71936886Y-93950000D01*
X72183114Y-93950000D01*
X72424611Y-93901963D01*
X72652097Y-93807735D01*
X72856828Y-93670938D01*
X73030938Y-93496828D01*
X73167735Y-93292097D01*
X73216238Y-93175000D01*
X75776668Y-93175000D01*
X75800000Y-93177298D01*
X75811322Y-93176183D01*
X75931056Y-93200000D01*
X76068944Y-93200000D01*
X76204182Y-93173099D01*
X76331574Y-93120332D01*
X76446224Y-93043726D01*
X76543726Y-92946224D01*
X76612117Y-92843869D01*
X78687625Y-94919377D01*
X78702499Y-94937501D01*
X78774827Y-94996859D01*
X78857346Y-95040966D01*
X78946884Y-95068127D01*
X79040000Y-95077298D01*
X79063332Y-95075000D01*
X91698065Y-95075000D01*
X91698065Y-95700000D01*
X91705788Y-95778414D01*
X91728660Y-95853814D01*
X91765803Y-95923303D01*
X91815789Y-95984211D01*
X91876697Y-96034197D01*
X91946186Y-96071340D01*
X92021586Y-96094212D01*
X92100000Y-96101935D01*
X93100000Y-96101935D01*
X93178414Y-96094212D01*
X93253814Y-96071340D01*
X93323303Y-96034197D01*
X93384211Y-95984211D01*
X93434197Y-95923303D01*
X93471340Y-95853814D01*
X93494212Y-95778414D01*
X93501935Y-95700000D01*
X93501935Y-95116886D01*
X126690000Y-95116886D01*
X126690000Y-95363114D01*
X126738037Y-95604611D01*
X126832265Y-95832097D01*
X126969062Y-96036828D01*
X127143172Y-96210938D01*
X127347903Y-96347735D01*
X127575389Y-96441963D01*
X127816886Y-96490000D01*
X128063114Y-96490000D01*
X128304611Y-96441963D01*
X128532097Y-96347735D01*
X128736828Y-96210938D01*
X128910938Y-96036828D01*
X129047735Y-95832097D01*
X129141963Y-95604611D01*
X129190000Y-95363114D01*
X129190000Y-95116886D01*
X129141963Y-94875389D01*
X129047735Y-94647903D01*
X128910938Y-94443172D01*
X128736828Y-94269062D01*
X128532097Y-94132265D01*
X128304611Y-94038037D01*
X128063114Y-93990000D01*
X127816886Y-93990000D01*
X127575389Y-94038037D01*
X127347903Y-94132265D01*
X127143172Y-94269062D01*
X126969062Y-94443172D01*
X126832265Y-94647903D01*
X126738037Y-94875389D01*
X126690000Y-95116886D01*
X93501935Y-95116886D01*
X93501935Y-94700000D01*
X93494212Y-94621586D01*
X93471340Y-94546186D01*
X93434197Y-94476697D01*
X93384211Y-94415789D01*
X93323303Y-94365803D01*
X93253814Y-94328660D01*
X93178414Y-94305788D01*
X93100000Y-94298065D01*
X92369815Y-94298065D01*
X92352384Y-94280634D01*
X92337501Y-94262499D01*
X92265173Y-94203141D01*
X92182654Y-94159034D01*
X92093116Y-94131873D01*
X92023332Y-94125000D01*
X92000000Y-94122702D01*
X91976668Y-94125000D01*
X79236752Y-94125000D01*
X74842807Y-89731056D01*
X92400000Y-89731056D01*
X92400000Y-89868944D01*
X92426901Y-90004182D01*
X92479668Y-90131574D01*
X92556274Y-90246224D01*
X92625001Y-90314951D01*
X92625000Y-92585050D01*
X92556274Y-92653776D01*
X92479668Y-92768426D01*
X92426901Y-92895818D01*
X92400000Y-93031056D01*
X92400000Y-93168944D01*
X92426901Y-93304182D01*
X92479668Y-93431574D01*
X92556274Y-93546224D01*
X92653776Y-93643726D01*
X92768426Y-93720332D01*
X92895818Y-93773099D01*
X93031056Y-93800000D01*
X93168944Y-93800000D01*
X93304182Y-93773099D01*
X93431574Y-93720332D01*
X93546224Y-93643726D01*
X93643726Y-93546224D01*
X93720332Y-93431574D01*
X93773099Y-93304182D01*
X93800000Y-93168944D01*
X93800000Y-93031056D01*
X93773099Y-92895818D01*
X93720332Y-92768426D01*
X93643726Y-92653776D01*
X93575000Y-92585050D01*
X93575000Y-92576886D01*
X126690000Y-92576886D01*
X126690000Y-92823114D01*
X126738037Y-93064611D01*
X126832265Y-93292097D01*
X126969062Y-93496828D01*
X127143172Y-93670938D01*
X127347903Y-93807735D01*
X127575389Y-93901963D01*
X127816886Y-93950000D01*
X128063114Y-93950000D01*
X128304611Y-93901963D01*
X128532097Y-93807735D01*
X128736828Y-93670938D01*
X128910938Y-93496828D01*
X129047735Y-93292097D01*
X129141963Y-93064611D01*
X129190000Y-92823114D01*
X129190000Y-92576886D01*
X129141963Y-92335389D01*
X129047735Y-92107903D01*
X128910938Y-91903172D01*
X128736828Y-91729062D01*
X128532097Y-91592265D01*
X128304611Y-91498037D01*
X128063114Y-91450000D01*
X127816886Y-91450000D01*
X127575389Y-91498037D01*
X127347903Y-91592265D01*
X127143172Y-91729062D01*
X126969062Y-91903172D01*
X126832265Y-92107903D01*
X126738037Y-92335389D01*
X126690000Y-92576886D01*
X93575000Y-92576886D01*
X93575000Y-90314950D01*
X93643726Y-90246224D01*
X93720332Y-90131574D01*
X93759552Y-90036886D01*
X126690000Y-90036886D01*
X126690000Y-90283114D01*
X126738037Y-90524611D01*
X126832265Y-90752097D01*
X126969062Y-90956828D01*
X127143172Y-91130938D01*
X127347903Y-91267735D01*
X127575389Y-91361963D01*
X127816886Y-91410000D01*
X128063114Y-91410000D01*
X128304611Y-91361963D01*
X128532097Y-91267735D01*
X128736828Y-91130938D01*
X128910938Y-90956828D01*
X129047735Y-90752097D01*
X129141963Y-90524611D01*
X129190000Y-90283114D01*
X129190000Y-90036886D01*
X129141963Y-89795389D01*
X129047735Y-89567903D01*
X128910938Y-89363172D01*
X128736828Y-89189062D01*
X128532097Y-89052265D01*
X128304611Y-88958037D01*
X128063114Y-88910000D01*
X127816886Y-88910000D01*
X127575389Y-88958037D01*
X127347903Y-89052265D01*
X127143172Y-89189062D01*
X126969062Y-89363172D01*
X126832265Y-89567903D01*
X126738037Y-89795389D01*
X126690000Y-90036886D01*
X93759552Y-90036886D01*
X93773099Y-90004182D01*
X93800000Y-89868944D01*
X93800000Y-89731056D01*
X93773099Y-89595818D01*
X93720332Y-89468426D01*
X93643726Y-89353776D01*
X93546224Y-89256274D01*
X93431574Y-89179668D01*
X93304182Y-89126901D01*
X93168944Y-89100000D01*
X93031056Y-89100000D01*
X92895818Y-89126901D01*
X92768426Y-89179668D01*
X92653776Y-89256274D01*
X92556274Y-89353776D01*
X92479668Y-89468426D01*
X92426901Y-89595818D01*
X92400000Y-89731056D01*
X74842807Y-89731056D01*
X73213459Y-88101709D01*
X73261963Y-87984611D01*
X73310000Y-87743114D01*
X73310000Y-87531056D01*
X98900000Y-87531056D01*
X98900000Y-87668944D01*
X98926901Y-87804182D01*
X98979668Y-87931574D01*
X99056274Y-88046224D01*
X99153776Y-88143726D01*
X99268426Y-88220332D01*
X99395818Y-88273099D01*
X99531056Y-88300000D01*
X99668944Y-88300000D01*
X99804182Y-88273099D01*
X99931574Y-88220332D01*
X100046224Y-88143726D01*
X100143726Y-88046224D01*
X100214964Y-87939608D01*
X100295818Y-87973099D01*
X100431056Y-88000000D01*
X100568944Y-88000000D01*
X100704182Y-87973099D01*
X100831574Y-87920332D01*
X100946224Y-87843726D01*
X101043726Y-87746224D01*
X101120332Y-87631574D01*
X101173099Y-87504182D01*
X101174550Y-87496886D01*
X126690000Y-87496886D01*
X126690000Y-87743114D01*
X126738037Y-87984611D01*
X126832265Y-88212097D01*
X126969062Y-88416828D01*
X127143172Y-88590938D01*
X127347903Y-88727735D01*
X127575389Y-88821963D01*
X127816886Y-88870000D01*
X128063114Y-88870000D01*
X128304611Y-88821963D01*
X128532097Y-88727735D01*
X128736828Y-88590938D01*
X128910938Y-88416828D01*
X129047735Y-88212097D01*
X129141963Y-87984611D01*
X129190000Y-87743114D01*
X129190000Y-87496886D01*
X129141963Y-87255389D01*
X129047735Y-87027903D01*
X128910938Y-86823172D01*
X128736828Y-86649062D01*
X128532097Y-86512265D01*
X128304611Y-86418037D01*
X128063114Y-86370000D01*
X127816886Y-86370000D01*
X127575389Y-86418037D01*
X127347903Y-86512265D01*
X127143172Y-86649062D01*
X126969062Y-86823172D01*
X126832265Y-87027903D01*
X126738037Y-87255389D01*
X126690000Y-87496886D01*
X101174550Y-87496886D01*
X101200000Y-87368944D01*
X101200000Y-87300753D01*
X101217746Y-87279129D01*
X101264175Y-87192267D01*
X101292765Y-87098017D01*
X101300000Y-87024560D01*
X101300000Y-87024559D01*
X101302419Y-87000001D01*
X101300000Y-86975443D01*
X101300000Y-86289950D01*
X101343726Y-86246224D01*
X101420332Y-86131574D01*
X101473099Y-86004182D01*
X101500000Y-85868944D01*
X101500000Y-85731056D01*
X101473099Y-85595818D01*
X101420332Y-85468426D01*
X101343726Y-85353776D01*
X101246224Y-85256274D01*
X101131574Y-85179668D01*
X101004182Y-85126901D01*
X100868944Y-85100000D01*
X100731056Y-85100000D01*
X100595818Y-85126901D01*
X100469269Y-85179319D01*
X100446224Y-85156274D01*
X100331574Y-85079668D01*
X100204182Y-85026901D01*
X100068944Y-85000000D01*
X99931056Y-85000000D01*
X99795818Y-85026901D01*
X99668426Y-85079668D01*
X99553776Y-85156274D01*
X99456274Y-85253776D01*
X99379668Y-85368426D01*
X99326901Y-85495818D01*
X99300000Y-85631056D01*
X99300000Y-85768944D01*
X99326901Y-85904182D01*
X99379668Y-86031574D01*
X99456274Y-86146224D01*
X99500000Y-86189950D01*
X99500001Y-86692893D01*
X99263823Y-86929072D01*
X99244736Y-86944736D01*
X99182254Y-87020871D01*
X99168639Y-87046343D01*
X99153776Y-87056274D01*
X99056274Y-87153776D01*
X98979668Y-87268426D01*
X98926901Y-87395818D01*
X98900000Y-87531056D01*
X73310000Y-87531056D01*
X73310000Y-87496886D01*
X73261963Y-87255389D01*
X73167735Y-87027903D01*
X73030938Y-86823172D01*
X72856828Y-86649062D01*
X72652097Y-86512265D01*
X72424611Y-86418037D01*
X72183114Y-86370000D01*
X71936886Y-86370000D01*
X71695389Y-86418037D01*
X71467903Y-86512265D01*
X71263172Y-86649062D01*
X71089062Y-86823172D01*
X70952265Y-87027903D01*
X70858037Y-87255389D01*
X70810000Y-87496886D01*
X70425000Y-87496886D01*
X70425000Y-84956886D01*
X70810000Y-84956886D01*
X70810000Y-85203114D01*
X70858037Y-85444611D01*
X70952265Y-85672097D01*
X71089062Y-85876828D01*
X71263172Y-86050938D01*
X71467903Y-86187735D01*
X71695389Y-86281963D01*
X71936886Y-86330000D01*
X72183114Y-86330000D01*
X72424611Y-86281963D01*
X72652097Y-86187735D01*
X72856828Y-86050938D01*
X73030938Y-85876828D01*
X73167735Y-85672097D01*
X73261963Y-85444611D01*
X73310000Y-85203114D01*
X73310000Y-84956886D01*
X126690000Y-84956886D01*
X126690000Y-85203114D01*
X126738037Y-85444611D01*
X126832265Y-85672097D01*
X126969062Y-85876828D01*
X127143172Y-86050938D01*
X127347903Y-86187735D01*
X127575389Y-86281963D01*
X127816886Y-86330000D01*
X128063114Y-86330000D01*
X128304611Y-86281963D01*
X128532097Y-86187735D01*
X128736828Y-86050938D01*
X128910938Y-85876828D01*
X129047735Y-85672097D01*
X129141963Y-85444611D01*
X129190000Y-85203114D01*
X129190000Y-84956886D01*
X129141963Y-84715389D01*
X129047735Y-84487903D01*
X128910938Y-84283172D01*
X128736828Y-84109062D01*
X128532097Y-83972265D01*
X128304611Y-83878037D01*
X128063114Y-83830000D01*
X127816886Y-83830000D01*
X127575389Y-83878037D01*
X127347903Y-83972265D01*
X127143172Y-84109062D01*
X126969062Y-84283172D01*
X126832265Y-84487903D01*
X126738037Y-84715389D01*
X126690000Y-84956886D01*
X73310000Y-84956886D01*
X73261963Y-84715389D01*
X73167735Y-84487903D01*
X73030938Y-84283172D01*
X72856828Y-84109062D01*
X72652097Y-83972265D01*
X72424611Y-83878037D01*
X72183114Y-83830000D01*
X71936886Y-83830000D01*
X71695389Y-83878037D01*
X71467903Y-83972265D01*
X71263172Y-84109062D01*
X71089062Y-84283172D01*
X70952265Y-84487903D01*
X70858037Y-84715389D01*
X70810000Y-84956886D01*
X70425000Y-84956886D01*
X70425000Y-82416886D01*
X70810000Y-82416886D01*
X70810000Y-82663114D01*
X70858037Y-82904611D01*
X70952265Y-83132097D01*
X71089062Y-83336828D01*
X71263172Y-83510938D01*
X71467903Y-83647735D01*
X71695389Y-83741963D01*
X71936886Y-83790000D01*
X72183114Y-83790000D01*
X72424611Y-83741963D01*
X72652097Y-83647735D01*
X72856828Y-83510938D01*
X73030938Y-83336828D01*
X73167735Y-83132097D01*
X73261963Y-82904611D01*
X73310000Y-82663114D01*
X73310000Y-82416886D01*
X73261963Y-82175389D01*
X73167735Y-81947903D01*
X73030938Y-81743172D01*
X72918822Y-81631056D01*
X93300000Y-81631056D01*
X93300000Y-81768944D01*
X93326901Y-81904182D01*
X93379668Y-82031574D01*
X93456274Y-82146224D01*
X93553776Y-82243726D01*
X93668426Y-82320332D01*
X93795818Y-82373099D01*
X93931056Y-82400000D01*
X94068944Y-82400000D01*
X94204182Y-82373099D01*
X94331574Y-82320332D01*
X94362003Y-82300000D01*
X94737997Y-82300000D01*
X94768426Y-82320332D01*
X94895818Y-82373099D01*
X95031056Y-82400000D01*
X95168944Y-82400000D01*
X95304182Y-82373099D01*
X95431574Y-82320332D01*
X95462003Y-82300000D01*
X95970526Y-82300000D01*
X96000000Y-82302903D01*
X96029474Y-82300000D01*
X96117621Y-82291318D01*
X96230721Y-82257010D01*
X96334955Y-82201296D01*
X96426317Y-82126317D01*
X96445113Y-82103414D01*
X98048529Y-80500000D01*
X98937997Y-80500000D01*
X98968426Y-80520332D01*
X99095818Y-80573099D01*
X99231056Y-80600000D01*
X99368944Y-80600000D01*
X99440418Y-80585783D01*
X99473683Y-80626317D01*
X99496586Y-80645113D01*
X100354891Y-81503419D01*
X100373683Y-81526317D01*
X100465045Y-81601296D01*
X100569279Y-81657010D01*
X100682379Y-81691318D01*
X100799999Y-81702903D01*
X100829473Y-81700000D01*
X105281473Y-81700000D01*
X105534761Y-81953289D01*
X105541901Y-81989182D01*
X105594668Y-82116574D01*
X105671274Y-82231224D01*
X105768776Y-82328726D01*
X105883426Y-82405332D01*
X106010818Y-82458099D01*
X106046711Y-82465239D01*
X106184761Y-82603289D01*
X106191901Y-82639182D01*
X106244668Y-82766574D01*
X106321274Y-82881224D01*
X106418776Y-82978726D01*
X106533426Y-83055332D01*
X106660818Y-83108099D01*
X106796056Y-83135000D01*
X106933944Y-83135000D01*
X107069182Y-83108099D01*
X107196574Y-83055332D01*
X107311224Y-82978726D01*
X107408726Y-82881224D01*
X107485332Y-82766574D01*
X107538099Y-82639182D01*
X107545239Y-82603288D01*
X107731641Y-82416886D01*
X126690000Y-82416886D01*
X126690000Y-82663114D01*
X126738037Y-82904611D01*
X126832265Y-83132097D01*
X126969062Y-83336828D01*
X127143172Y-83510938D01*
X127347903Y-83647735D01*
X127575389Y-83741963D01*
X127816886Y-83790000D01*
X128063114Y-83790000D01*
X128304611Y-83741963D01*
X128532097Y-83647735D01*
X128736828Y-83510938D01*
X128910938Y-83336828D01*
X129047735Y-83132097D01*
X129141963Y-82904611D01*
X129190000Y-82663114D01*
X129190000Y-82416886D01*
X129141963Y-82175389D01*
X129047735Y-81947903D01*
X128910938Y-81743172D01*
X128736828Y-81569062D01*
X128532097Y-81432265D01*
X128304611Y-81338037D01*
X128063114Y-81290000D01*
X127816886Y-81290000D01*
X127575389Y-81338037D01*
X127347903Y-81432265D01*
X127143172Y-81569062D01*
X126969062Y-81743172D01*
X126832265Y-81947903D01*
X126738037Y-82175389D01*
X126690000Y-82416886D01*
X107731641Y-82416886D01*
X109548528Y-80600000D01*
X126688065Y-80600000D01*
X126688065Y-80850000D01*
X126695788Y-80928414D01*
X126718660Y-81003814D01*
X126755803Y-81073303D01*
X126805789Y-81134211D01*
X126866697Y-81184197D01*
X126936186Y-81221340D01*
X127011586Y-81244212D01*
X127090000Y-81251935D01*
X128790000Y-81251935D01*
X128868414Y-81244212D01*
X128943814Y-81221340D01*
X129013303Y-81184197D01*
X129074211Y-81134211D01*
X129124197Y-81073303D01*
X129161340Y-81003814D01*
X129184212Y-80928414D01*
X129191935Y-80850000D01*
X129191935Y-79150000D01*
X129184212Y-79071586D01*
X129161340Y-78996186D01*
X129124197Y-78926697D01*
X129074211Y-78865789D01*
X129013303Y-78815803D01*
X128943814Y-78778660D01*
X128868414Y-78755788D01*
X128790000Y-78748065D01*
X127090000Y-78748065D01*
X127011586Y-78755788D01*
X126936186Y-78778660D01*
X126866697Y-78815803D01*
X126805789Y-78865789D01*
X126755803Y-78926697D01*
X126718660Y-78996186D01*
X126695788Y-79071586D01*
X126688065Y-79150000D01*
X126688065Y-79400000D01*
X109329473Y-79400000D01*
X109299999Y-79397097D01*
X109197060Y-79407236D01*
X109182379Y-79408682D01*
X109069279Y-79442990D01*
X108965045Y-79498704D01*
X108873683Y-79573683D01*
X108854894Y-79596578D01*
X106882990Y-81568483D01*
X106835332Y-81453426D01*
X106758726Y-81338776D01*
X106661224Y-81241274D01*
X106546574Y-81164668D01*
X106419182Y-81111901D01*
X106383289Y-81104761D01*
X105975113Y-80696586D01*
X105956317Y-80673683D01*
X105864955Y-80598704D01*
X105760721Y-80542990D01*
X105647621Y-80508682D01*
X105561678Y-80500217D01*
X105646224Y-80443726D01*
X105743726Y-80346224D01*
X105820332Y-80231574D01*
X105873099Y-80104182D01*
X105900000Y-79968944D01*
X105900000Y-79831056D01*
X105873099Y-79695818D01*
X105820332Y-79568426D01*
X105743726Y-79453776D01*
X105646224Y-79356274D01*
X105531574Y-79279668D01*
X105404182Y-79226901D01*
X105268944Y-79200000D01*
X105131056Y-79200000D01*
X104995818Y-79226901D01*
X104868426Y-79279668D01*
X104753776Y-79356274D01*
X104656274Y-79453776D01*
X104579668Y-79568426D01*
X104545879Y-79650000D01*
X101382640Y-79650000D01*
X101338914Y-79606274D01*
X101224264Y-79529668D01*
X101150002Y-79498908D01*
X101150002Y-79381054D01*
X101123101Y-79245816D01*
X101070334Y-79118424D01*
X100993728Y-79003774D01*
X100896226Y-78906272D01*
X100781576Y-78829666D01*
X100654184Y-78776899D01*
X100518946Y-78749998D01*
X100381058Y-78749998D01*
X100245820Y-78776899D01*
X100118428Y-78829666D01*
X100003778Y-78906272D01*
X99906276Y-79003774D01*
X99829670Y-79118424D01*
X99776903Y-79245816D01*
X99769763Y-79281709D01*
X99751472Y-79300000D01*
X99662003Y-79300000D01*
X99631574Y-79279668D01*
X99504182Y-79226901D01*
X99368944Y-79200000D01*
X99231056Y-79200000D01*
X99095818Y-79226901D01*
X98968426Y-79279668D01*
X98937997Y-79300000D01*
X97829465Y-79300000D01*
X97799999Y-79297098D01*
X97770533Y-79300000D01*
X97770526Y-79300000D01*
X97693640Y-79307573D01*
X97682378Y-79308682D01*
X97648070Y-79319089D01*
X97569279Y-79342990D01*
X97465045Y-79398704D01*
X97373683Y-79473683D01*
X97354896Y-79496575D01*
X95751473Y-81100000D01*
X95462003Y-81100000D01*
X95431574Y-81079668D01*
X95304182Y-81026901D01*
X95168944Y-81000000D01*
X95031056Y-81000000D01*
X94895818Y-81026901D01*
X94768426Y-81079668D01*
X94737997Y-81100000D01*
X94362003Y-81100000D01*
X94331574Y-81079668D01*
X94204182Y-81026901D01*
X94068944Y-81000000D01*
X93931056Y-81000000D01*
X93795818Y-81026901D01*
X93668426Y-81079668D01*
X93553776Y-81156274D01*
X93456274Y-81253776D01*
X93379668Y-81368426D01*
X93326901Y-81495818D01*
X93300000Y-81631056D01*
X72918822Y-81631056D01*
X72856828Y-81569062D01*
X72652097Y-81432265D01*
X72424611Y-81338037D01*
X72183114Y-81290000D01*
X71936886Y-81290000D01*
X71695389Y-81338037D01*
X71467903Y-81432265D01*
X71263172Y-81569062D01*
X71089062Y-81743172D01*
X70952265Y-81947903D01*
X70858037Y-82175389D01*
X70810000Y-82416886D01*
X70425000Y-82416886D01*
X70425000Y-79770789D01*
X70452234Y-79493036D01*
X70526862Y-79245856D01*
X70577829Y-79150000D01*
X70808065Y-79150000D01*
X70808065Y-80850000D01*
X70815788Y-80928414D01*
X70838660Y-81003814D01*
X70875803Y-81073303D01*
X70925789Y-81134211D01*
X70986697Y-81184197D01*
X71056186Y-81221340D01*
X71131586Y-81244212D01*
X71210000Y-81251935D01*
X72910000Y-81251935D01*
X72988414Y-81244212D01*
X73063814Y-81221340D01*
X73133303Y-81184197D01*
X73194211Y-81134211D01*
X73244197Y-81073303D01*
X73281340Y-81003814D01*
X73304212Y-80928414D01*
X73311935Y-80850000D01*
X73311935Y-79150000D01*
X73304212Y-79071586D01*
X73281340Y-78996186D01*
X73244197Y-78926697D01*
X73194211Y-78865789D01*
X73133303Y-78815803D01*
X73063814Y-78778660D01*
X72988414Y-78755788D01*
X72910000Y-78748065D01*
X71210000Y-78748065D01*
X71131586Y-78755788D01*
X71056186Y-78778660D01*
X70986697Y-78815803D01*
X70925789Y-78865789D01*
X70875803Y-78926697D01*
X70838660Y-78996186D01*
X70815788Y-79071586D01*
X70808065Y-79150000D01*
X70577829Y-79150000D01*
X70648075Y-79017887D01*
X70811266Y-78817794D01*
X71010207Y-78653216D01*
X71237334Y-78530409D01*
X71483979Y-78454059D01*
X71760466Y-78425000D01*
X128229211Y-78425000D01*
X128506964Y-78452234D01*
G37*
X128506964Y-78452234D02*
X128754144Y-78526862D01*
X128982113Y-78648075D01*
X129182206Y-78811266D01*
X129346784Y-79010207D01*
X129469591Y-79237334D01*
X129545941Y-79483979D01*
X129575000Y-79760466D01*
X129575001Y-103229201D01*
X129547766Y-103506966D01*
X129473140Y-103754140D01*
X129351924Y-103982114D01*
X129188734Y-104182206D01*
X128989793Y-104346784D01*
X128762666Y-104469591D01*
X128516021Y-104545941D01*
X128239534Y-104575000D01*
X71770789Y-104575000D01*
X71493034Y-104547766D01*
X71245860Y-104473140D01*
X71017886Y-104351924D01*
X70817794Y-104188734D01*
X70653216Y-103989793D01*
X70530409Y-103762666D01*
X70454059Y-103516021D01*
X70425000Y-103239534D01*
X70425000Y-103104771D01*
X70834199Y-103104771D01*
X70904795Y-103337500D01*
X71020148Y-103553694D01*
X71175461Y-103743230D01*
X71364767Y-103898824D01*
X71580790Y-104014497D01*
X71815229Y-104085803D01*
X72010000Y-104009002D01*
X72010000Y-102910000D01*
X72110000Y-102910000D01*
X72110000Y-104009002D01*
X72304771Y-104085803D01*
X72539210Y-104014497D01*
X72755233Y-103898824D01*
X72944539Y-103743230D01*
X73099852Y-103553694D01*
X73215205Y-103337500D01*
X73285801Y-103104771D01*
X73208913Y-102910000D01*
X72110000Y-102910000D01*
X72010000Y-102910000D01*
X70911087Y-102910000D01*
X70834199Y-103104771D01*
X70425000Y-103104771D01*
X70425000Y-102615229D01*
X70834199Y-102615229D01*
X70911087Y-102810000D01*
X72010000Y-102810000D01*
X72010000Y-101710998D01*
X72110000Y-101710998D01*
X72110000Y-102810000D01*
X73208913Y-102810000D01*
X73285801Y-102615229D01*
X73215205Y-102382500D01*
X73099852Y-102166306D01*
X72944539Y-101976770D01*
X72755233Y-101821176D01*
X72539210Y-101705503D01*
X72304771Y-101634197D01*
X72110000Y-101710998D01*
X72010000Y-101710998D01*
X71815229Y-101634197D01*
X71580790Y-101705503D01*
X71364767Y-101821176D01*
X71175461Y-101976770D01*
X71020148Y-102166306D01*
X70904795Y-102382500D01*
X70834199Y-102615229D01*
X70425000Y-102615229D01*
X70425000Y-100196886D01*
X70810000Y-100196886D01*
X70810000Y-100443114D01*
X70858037Y-100684611D01*
X70952265Y-100912097D01*
X71089062Y-101116828D01*
X71263172Y-101290938D01*
X71467903Y-101427735D01*
X71695389Y-101521963D01*
X71936886Y-101570000D01*
X72183114Y-101570000D01*
X72424611Y-101521963D01*
X72652097Y-101427735D01*
X72856828Y-101290938D01*
X73030938Y-101116828D01*
X73167735Y-100912097D01*
X73255588Y-100700000D01*
X89298065Y-100700000D01*
X89298065Y-101700000D01*
X89305788Y-101778414D01*
X89328660Y-101853814D01*
X89365803Y-101923303D01*
X89415789Y-101984211D01*
X89476697Y-102034197D01*
X89546186Y-102071340D01*
X89621586Y-102094212D01*
X89700000Y-102101935D01*
X90700000Y-102101935D01*
X90778414Y-102094212D01*
X90853814Y-102071340D01*
X90923303Y-102034197D01*
X90984211Y-101984211D01*
X91034197Y-101923303D01*
X91071340Y-101853814D01*
X91094212Y-101778414D01*
X91101935Y-101700000D01*
X91101935Y-101431056D01*
X94000000Y-101431056D01*
X94000000Y-101568944D01*
X94026901Y-101704182D01*
X94079668Y-101831574D01*
X94156274Y-101946224D01*
X94253776Y-102043726D01*
X94368426Y-102120332D01*
X94495818Y-102173099D01*
X94631056Y-102200000D01*
X94692895Y-102200000D01*
X96629080Y-104136187D01*
X96644736Y-104155264D01*
X96720871Y-104217746D01*
X96807733Y-104264175D01*
X96891579Y-104289609D01*
X96901983Y-104292765D01*
X97000000Y-104302419D01*
X97024560Y-104300000D01*
X124435440Y-104300000D01*
X124460000Y-104302419D01*
X124484560Y-104300000D01*
X124558017Y-104292765D01*
X124652267Y-104264175D01*
X124739129Y-104217746D01*
X124815264Y-104155264D01*
X124830929Y-104136176D01*
X125862334Y-103104771D01*
X126714199Y-103104771D01*
X126784795Y-103337500D01*
X126900148Y-103553694D01*
X127055461Y-103743230D01*
X127244767Y-103898824D01*
X127460790Y-104014497D01*
X127695229Y-104085803D01*
X127890000Y-104009002D01*
X127890000Y-102910000D01*
X127990000Y-102910000D01*
X127990000Y-104009002D01*
X128184771Y-104085803D01*
X128419210Y-104014497D01*
X128635233Y-103898824D01*
X128824539Y-103743230D01*
X128979852Y-103553694D01*
X129095205Y-103337500D01*
X129165801Y-103104771D01*
X129088913Y-102910000D01*
X127990000Y-102910000D01*
X127890000Y-102910000D01*
X126791087Y-102910000D01*
X126714199Y-103104771D01*
X125862334Y-103104771D01*
X126351876Y-102615229D01*
X126714199Y-102615229D01*
X126791087Y-102810000D01*
X127890000Y-102810000D01*
X127890000Y-101710998D01*
X127990000Y-101710998D01*
X127990000Y-102810000D01*
X129088913Y-102810000D01*
X129165801Y-102615229D01*
X129095205Y-102382500D01*
X128979852Y-102166306D01*
X128824539Y-101976770D01*
X128635233Y-101821176D01*
X128419210Y-101705503D01*
X128184771Y-101634197D01*
X127990000Y-101710998D01*
X127890000Y-101710998D01*
X127695229Y-101634197D01*
X127460790Y-101705503D01*
X127244767Y-101821176D01*
X127055461Y-101976770D01*
X126900148Y-102166306D01*
X126784795Y-102382500D01*
X126714199Y-102615229D01*
X126351876Y-102615229D01*
X127483291Y-101483815D01*
X127575389Y-101521963D01*
X127816886Y-101570000D01*
X128063114Y-101570000D01*
X128304611Y-101521963D01*
X128532097Y-101427735D01*
X128736828Y-101290938D01*
X128910938Y-101116828D01*
X129047735Y-100912097D01*
X129141963Y-100684611D01*
X129190000Y-100443114D01*
X129190000Y-100196886D01*
X129141963Y-99955389D01*
X129047735Y-99727903D01*
X128910938Y-99523172D01*
X128736828Y-99349062D01*
X128532097Y-99212265D01*
X128304611Y-99118037D01*
X128063114Y-99070000D01*
X127816886Y-99070000D01*
X127575389Y-99118037D01*
X127347903Y-99212265D01*
X127143172Y-99349062D01*
X126969062Y-99523172D01*
X126832265Y-99727903D01*
X126738037Y-99955389D01*
X126690000Y-100196886D01*
X126690000Y-100443114D01*
X126738037Y-100684611D01*
X126776185Y-100776709D01*
X124252895Y-103300000D01*
X97207107Y-103300000D01*
X95400000Y-101492895D01*
X95400000Y-101431056D01*
X95373931Y-101300000D01*
X96498065Y-101300000D01*
X96498065Y-102300000D01*
X96505788Y-102378414D01*
X96528660Y-102453814D01*
X96565803Y-102523303D01*
X96615789Y-102584211D01*
X96676697Y-102634197D01*
X96746186Y-102671340D01*
X96821586Y-102694212D01*
X96900000Y-102701935D01*
X97900000Y-102701935D01*
X97978414Y-102694212D01*
X98053814Y-102671340D01*
X98123303Y-102634197D01*
X98184211Y-102584211D01*
X98234197Y-102523303D01*
X98271340Y-102453814D01*
X98294212Y-102378414D01*
X98301935Y-102300000D01*
X98301935Y-101300000D01*
X98294212Y-101221586D01*
X98271340Y-101146186D01*
X98234197Y-101076697D01*
X98184211Y-101015789D01*
X98123303Y-100965803D01*
X98053814Y-100928660D01*
X97978414Y-100905788D01*
X97900000Y-100898065D01*
X96900000Y-100898065D01*
X96821586Y-100905788D01*
X96746186Y-100928660D01*
X96676697Y-100965803D01*
X96615789Y-101015789D01*
X96565803Y-101076697D01*
X96528660Y-101146186D01*
X96505788Y-101221586D01*
X96498065Y-101300000D01*
X95373931Y-101300000D01*
X95373099Y-101295818D01*
X95320332Y-101168426D01*
X95243726Y-101053776D01*
X95146224Y-100956274D01*
X95031574Y-100879668D01*
X94904182Y-100826901D01*
X94768944Y-100800000D01*
X94631056Y-100800000D01*
X94495818Y-100826901D01*
X94368426Y-100879668D01*
X94253776Y-100956274D01*
X94156274Y-101053776D01*
X94079668Y-101168426D01*
X94026901Y-101295818D01*
X94000000Y-101431056D01*
X91101935Y-101431056D01*
X91101935Y-100700000D01*
X91094212Y-100621586D01*
X91071340Y-100546186D01*
X91034197Y-100476697D01*
X90984211Y-100415789D01*
X90923303Y-100365803D01*
X90853814Y-100328660D01*
X90778414Y-100305788D01*
X90700000Y-100298065D01*
X89700000Y-100298065D01*
X89621586Y-100305788D01*
X89546186Y-100328660D01*
X89476697Y-100365803D01*
X89415789Y-100415789D01*
X89365803Y-100476697D01*
X89328660Y-100546186D01*
X89305788Y-100621586D01*
X89298065Y-100700000D01*
X73255588Y-100700000D01*
X73261963Y-100684611D01*
X73310000Y-100443114D01*
X73310000Y-100196886D01*
X73261963Y-99955389D01*
X73167735Y-99727903D01*
X73030938Y-99523172D01*
X72856828Y-99349062D01*
X72794438Y-99307374D01*
X97059550Y-99307374D01*
X97059550Y-99492626D01*
X97095691Y-99674319D01*
X97166584Y-99845470D01*
X97269505Y-99999502D01*
X97400498Y-100130495D01*
X97554530Y-100233416D01*
X97725681Y-100304309D01*
X97907374Y-100340450D01*
X98092626Y-100340450D01*
X98274319Y-100304309D01*
X98445470Y-100233416D01*
X98599502Y-100130495D01*
X98730495Y-99999502D01*
X98833416Y-99845470D01*
X98904309Y-99674319D01*
X98940450Y-99492626D01*
X98940450Y-99307374D01*
X101059550Y-99307374D01*
X101059550Y-99492626D01*
X101095691Y-99674319D01*
X101166584Y-99845470D01*
X101269505Y-99999502D01*
X101400498Y-100130495D01*
X101554530Y-100233416D01*
X101725681Y-100304309D01*
X101907374Y-100340450D01*
X102092626Y-100340450D01*
X102274319Y-100304309D01*
X102445470Y-100233416D01*
X102599502Y-100130495D01*
X102730495Y-99999502D01*
X102833416Y-99845470D01*
X102904309Y-99674319D01*
X102940450Y-99492626D01*
X102940450Y-99307374D01*
X102904309Y-99125681D01*
X102833416Y-98954530D01*
X102730495Y-98800498D01*
X102599502Y-98669505D01*
X102445470Y-98566584D01*
X102274319Y-98495691D01*
X102092626Y-98459550D01*
X101907374Y-98459550D01*
X101725681Y-98495691D01*
X101554530Y-98566584D01*
X101400498Y-98669505D01*
X101269505Y-98800498D01*
X101166584Y-98954530D01*
X101095691Y-99125681D01*
X101059550Y-99307374D01*
X98940450Y-99307374D01*
X98904309Y-99125681D01*
X98833416Y-98954530D01*
X98730495Y-98800498D01*
X98599502Y-98669505D01*
X98445470Y-98566584D01*
X98274319Y-98495691D01*
X98092626Y-98459550D01*
X97907374Y-98459550D01*
X97725681Y-98495691D01*
X97554530Y-98566584D01*
X97400498Y-98669505D01*
X97269505Y-98800498D01*
X97166584Y-98954530D01*
X97095691Y-99125681D01*
X97059550Y-99307374D01*
X72794438Y-99307374D01*
X72652097Y-99212265D01*
X72424611Y-99118037D01*
X72183114Y-99070000D01*
X71936886Y-99070000D01*
X71695389Y-99118037D01*
X71467903Y-99212265D01*
X71263172Y-99349062D01*
X71089062Y-99523172D01*
X70952265Y-99727903D01*
X70858037Y-99955389D01*
X70810000Y-100196886D01*
X70425000Y-100196886D01*
X70425000Y-97656886D01*
X70810000Y-97656886D01*
X70810000Y-97903114D01*
X70858037Y-98144611D01*
X70952265Y-98372097D01*
X71089062Y-98576828D01*
X71263172Y-98750938D01*
X71467903Y-98887735D01*
X71695389Y-98981963D01*
X71936886Y-99030000D01*
X72183114Y-99030000D01*
X72424611Y-98981963D01*
X72652097Y-98887735D01*
X72856828Y-98750938D01*
X73030938Y-98576828D01*
X73167735Y-98372097D01*
X73261963Y-98144611D01*
X73310000Y-97903114D01*
X73310000Y-97740905D01*
X98699990Y-97740905D01*
X98699990Y-97859095D01*
X98723048Y-97975014D01*
X98768277Y-98084207D01*
X98833940Y-98182478D01*
X98917512Y-98266050D01*
X99015783Y-98331713D01*
X99124976Y-98376942D01*
X99240895Y-98400000D01*
X99244503Y-98400000D01*
X99314170Y-98469668D01*
X99300000Y-98540905D01*
X99300000Y-98659095D01*
X99323058Y-98775014D01*
X99368287Y-98884207D01*
X99433950Y-98982478D01*
X99517522Y-99066050D01*
X99615793Y-99131713D01*
X99724986Y-99176942D01*
X99840905Y-99200000D01*
X99959095Y-99200000D01*
X100075014Y-99176942D01*
X100094644Y-99168811D01*
X100188783Y-99231713D01*
X100297976Y-99276942D01*
X100413895Y-99300000D01*
X100532085Y-99300000D01*
X100648004Y-99276942D01*
X100757197Y-99231713D01*
X100855468Y-99166050D01*
X100939040Y-99082478D01*
X101004703Y-98984207D01*
X101049932Y-98875014D01*
X101072990Y-98759095D01*
X101072990Y-98640905D01*
X101049932Y-98524986D01*
X101004703Y-98415793D01*
X100939040Y-98317522D01*
X100936490Y-98314972D01*
X100936490Y-97795744D01*
X100938731Y-97772990D01*
X100936490Y-97750236D01*
X100936490Y-97750226D01*
X100929783Y-97682128D01*
X100922127Y-97656886D01*
X126690000Y-97656886D01*
X126690000Y-97903114D01*
X126738037Y-98144611D01*
X126832265Y-98372097D01*
X126969062Y-98576828D01*
X127143172Y-98750938D01*
X127347903Y-98887735D01*
X127575389Y-98981963D01*
X127816886Y-99030000D01*
X128063114Y-99030000D01*
X128304611Y-98981963D01*
X128532097Y-98887735D01*
X128736828Y-98750938D01*
X128910938Y-98576828D01*
X129047735Y-98372097D01*
X129141963Y-98144611D01*
X129190000Y-97903114D01*
X129190000Y-97656886D01*
X129141963Y-97415389D01*
X129047735Y-97187903D01*
X128910938Y-96983172D01*
X128736828Y-96809062D01*
X128532097Y-96672265D01*
X128304611Y-96578037D01*
X128063114Y-96530000D01*
X127816886Y-96530000D01*
X127575389Y-96578037D01*
X127347903Y-96672265D01*
X127143172Y-96809062D01*
X126969062Y-96983172D01*
X126832265Y-97187903D01*
X126738037Y-97415389D01*
X126690000Y-97656886D01*
X100922127Y-97656886D01*
X100903280Y-97594758D01*
X100860240Y-97514238D01*
X100824486Y-97470671D01*
X100816830Y-97461342D01*
X100816827Y-97461339D01*
X100802319Y-97443661D01*
X100784642Y-97429154D01*
X100700000Y-97344512D01*
X100700000Y-97340905D01*
X100676942Y-97224986D01*
X100631713Y-97115793D01*
X100566050Y-97017522D01*
X100482478Y-96933950D01*
X100384207Y-96868287D01*
X100275014Y-96823058D01*
X100159095Y-96800000D01*
X100040905Y-96800000D01*
X99924986Y-96823058D01*
X99815793Y-96868287D01*
X99717522Y-96933950D01*
X99633950Y-97017522D01*
X99568287Y-97115793D01*
X99523058Y-97224986D01*
X99519754Y-97241594D01*
X99475004Y-97223058D01*
X99359085Y-97200000D01*
X99240895Y-97200000D01*
X99124976Y-97223058D01*
X99015783Y-97268287D01*
X98917512Y-97333950D01*
X98833940Y-97417522D01*
X98768277Y-97515793D01*
X98723048Y-97624986D01*
X98699990Y-97740905D01*
X73310000Y-97740905D01*
X73310000Y-97656886D01*
X73261963Y-97415389D01*
X73167735Y-97187903D01*
X73030938Y-96983172D01*
X72856828Y-96809062D01*
X72652097Y-96672265D01*
X72424611Y-96578037D01*
X72183114Y-96530000D01*
X71936886Y-96530000D01*
X71695389Y-96578037D01*
X71467903Y-96672265D01*
X71263172Y-96809062D01*
X71089062Y-96983172D01*
X70952265Y-97187903D01*
X70858037Y-97415389D01*
X70810000Y-97656886D01*
X70425000Y-97656886D01*
X70425000Y-95116886D01*
X70810000Y-95116886D01*
X70810000Y-95363114D01*
X70858037Y-95604611D01*
X70952265Y-95832097D01*
X71089062Y-96036828D01*
X71263172Y-96210938D01*
X71467903Y-96347735D01*
X71695389Y-96441963D01*
X71936886Y-96490000D01*
X72183114Y-96490000D01*
X72424611Y-96441963D01*
X72652097Y-96347735D01*
X72856828Y-96210938D01*
X73030938Y-96036828D01*
X73167735Y-95832097D01*
X73261963Y-95604611D01*
X73310000Y-95363114D01*
X73310000Y-95116886D01*
X73261963Y-94875389D01*
X73167735Y-94647903D01*
X73030938Y-94443172D01*
X72856828Y-94269062D01*
X72652097Y-94132265D01*
X72424611Y-94038037D01*
X72183114Y-93990000D01*
X71936886Y-93990000D01*
X71695389Y-94038037D01*
X71467903Y-94132265D01*
X71263172Y-94269062D01*
X71089062Y-94443172D01*
X70952265Y-94647903D01*
X70858037Y-94875389D01*
X70810000Y-95116886D01*
X70425000Y-95116886D01*
X70425000Y-90036886D01*
X70810000Y-90036886D01*
X70810000Y-90283114D01*
X70858037Y-90524611D01*
X70952265Y-90752097D01*
X71089062Y-90956828D01*
X71263172Y-91130938D01*
X71467903Y-91267735D01*
X71695389Y-91361963D01*
X71936886Y-91410000D01*
X72183114Y-91410000D01*
X72424611Y-91361963D01*
X72652097Y-91267735D01*
X72856828Y-91130938D01*
X73030938Y-90956828D01*
X73167735Y-90752097D01*
X73261963Y-90524611D01*
X73310000Y-90283114D01*
X73310000Y-90036886D01*
X73261963Y-89795389D01*
X73167735Y-89567903D01*
X73030938Y-89363172D01*
X72856828Y-89189062D01*
X72652097Y-89052265D01*
X72424611Y-88958037D01*
X72183114Y-88910000D01*
X71936886Y-88910000D01*
X71695389Y-88958037D01*
X71467903Y-89052265D01*
X71263172Y-89189062D01*
X71089062Y-89363172D01*
X70952265Y-89567903D01*
X70858037Y-89795389D01*
X70810000Y-90036886D01*
X70425000Y-90036886D01*
X70425000Y-87496886D01*
X70810000Y-87496886D01*
X70810000Y-87743114D01*
X70858037Y-87984611D01*
X70952265Y-88212097D01*
X71089062Y-88416828D01*
X71263172Y-88590938D01*
X71467903Y-88727735D01*
X71695389Y-88821963D01*
X71936886Y-88870000D01*
X72183114Y-88870000D01*
X72424611Y-88821963D01*
X72541709Y-88773459D01*
X75656132Y-91887883D01*
X75553776Y-91956274D01*
X75456274Y-92053776D01*
X75379668Y-92168426D01*
X75356235Y-92225000D01*
X73216238Y-92225000D01*
X73167735Y-92107903D01*
X73030938Y-91903172D01*
X72856828Y-91729062D01*
X72652097Y-91592265D01*
X72424611Y-91498037D01*
X72183114Y-91450000D01*
X71936886Y-91450000D01*
X71695389Y-91498037D01*
X71467903Y-91592265D01*
X71263172Y-91729062D01*
X71089062Y-91903172D01*
X70952265Y-92107903D01*
X70858037Y-92335389D01*
X70810000Y-92576886D01*
X70810000Y-92823114D01*
X70858037Y-93064611D01*
X70952265Y-93292097D01*
X71089062Y-93496828D01*
X71263172Y-93670938D01*
X71467903Y-93807735D01*
X71695389Y-93901963D01*
X71936886Y-93950000D01*
X72183114Y-93950000D01*
X72424611Y-93901963D01*
X72652097Y-93807735D01*
X72856828Y-93670938D01*
X73030938Y-93496828D01*
X73167735Y-93292097D01*
X73216238Y-93175000D01*
X75776668Y-93175000D01*
X75800000Y-93177298D01*
X75811322Y-93176183D01*
X75931056Y-93200000D01*
X76068944Y-93200000D01*
X76204182Y-93173099D01*
X76331574Y-93120332D01*
X76446224Y-93043726D01*
X76543726Y-92946224D01*
X76612117Y-92843869D01*
X78687625Y-94919377D01*
X78702499Y-94937501D01*
X78774827Y-94996859D01*
X78857346Y-95040966D01*
X78946884Y-95068127D01*
X79040000Y-95077298D01*
X79063332Y-95075000D01*
X91698065Y-95075000D01*
X91698065Y-95700000D01*
X91705788Y-95778414D01*
X91728660Y-95853814D01*
X91765803Y-95923303D01*
X91815789Y-95984211D01*
X91876697Y-96034197D01*
X91946186Y-96071340D01*
X92021586Y-96094212D01*
X92100000Y-96101935D01*
X93100000Y-96101935D01*
X93178414Y-96094212D01*
X93253814Y-96071340D01*
X93323303Y-96034197D01*
X93384211Y-95984211D01*
X93434197Y-95923303D01*
X93471340Y-95853814D01*
X93494212Y-95778414D01*
X93501935Y-95700000D01*
X93501935Y-95116886D01*
X126690000Y-95116886D01*
X126690000Y-95363114D01*
X126738037Y-95604611D01*
X126832265Y-95832097D01*
X126969062Y-96036828D01*
X127143172Y-96210938D01*
X127347903Y-96347735D01*
X127575389Y-96441963D01*
X127816886Y-96490000D01*
X128063114Y-96490000D01*
X128304611Y-96441963D01*
X128532097Y-96347735D01*
X128736828Y-96210938D01*
X128910938Y-96036828D01*
X129047735Y-95832097D01*
X129141963Y-95604611D01*
X129190000Y-95363114D01*
X129190000Y-95116886D01*
X129141963Y-94875389D01*
X129047735Y-94647903D01*
X128910938Y-94443172D01*
X128736828Y-94269062D01*
X128532097Y-94132265D01*
X128304611Y-94038037D01*
X128063114Y-93990000D01*
X127816886Y-93990000D01*
X127575389Y-94038037D01*
X127347903Y-94132265D01*
X127143172Y-94269062D01*
X126969062Y-94443172D01*
X126832265Y-94647903D01*
X126738037Y-94875389D01*
X126690000Y-95116886D01*
X93501935Y-95116886D01*
X93501935Y-94700000D01*
X93494212Y-94621586D01*
X93471340Y-94546186D01*
X93434197Y-94476697D01*
X93384211Y-94415789D01*
X93323303Y-94365803D01*
X93253814Y-94328660D01*
X93178414Y-94305788D01*
X93100000Y-94298065D01*
X92369815Y-94298065D01*
X92352384Y-94280634D01*
X92337501Y-94262499D01*
X92265173Y-94203141D01*
X92182654Y-94159034D01*
X92093116Y-94131873D01*
X92023332Y-94125000D01*
X92000000Y-94122702D01*
X91976668Y-94125000D01*
X79236752Y-94125000D01*
X74842807Y-89731056D01*
X92400000Y-89731056D01*
X92400000Y-89868944D01*
X92426901Y-90004182D01*
X92479668Y-90131574D01*
X92556274Y-90246224D01*
X92625001Y-90314951D01*
X92625000Y-92585050D01*
X92556274Y-92653776D01*
X92479668Y-92768426D01*
X92426901Y-92895818D01*
X92400000Y-93031056D01*
X92400000Y-93168944D01*
X92426901Y-93304182D01*
X92479668Y-93431574D01*
X92556274Y-93546224D01*
X92653776Y-93643726D01*
X92768426Y-93720332D01*
X92895818Y-93773099D01*
X93031056Y-93800000D01*
X93168944Y-93800000D01*
X93304182Y-93773099D01*
X93431574Y-93720332D01*
X93546224Y-93643726D01*
X93643726Y-93546224D01*
X93720332Y-93431574D01*
X93773099Y-93304182D01*
X93800000Y-93168944D01*
X93800000Y-93031056D01*
X93773099Y-92895818D01*
X93720332Y-92768426D01*
X93643726Y-92653776D01*
X93575000Y-92585050D01*
X93575000Y-92576886D01*
X126690000Y-92576886D01*
X126690000Y-92823114D01*
X126738037Y-93064611D01*
X126832265Y-93292097D01*
X126969062Y-93496828D01*
X127143172Y-93670938D01*
X127347903Y-93807735D01*
X127575389Y-93901963D01*
X127816886Y-93950000D01*
X128063114Y-93950000D01*
X128304611Y-93901963D01*
X128532097Y-93807735D01*
X128736828Y-93670938D01*
X128910938Y-93496828D01*
X129047735Y-93292097D01*
X129141963Y-93064611D01*
X129190000Y-92823114D01*
X129190000Y-92576886D01*
X129141963Y-92335389D01*
X129047735Y-92107903D01*
X128910938Y-91903172D01*
X128736828Y-91729062D01*
X128532097Y-91592265D01*
X128304611Y-91498037D01*
X128063114Y-91450000D01*
X127816886Y-91450000D01*
X127575389Y-91498037D01*
X127347903Y-91592265D01*
X127143172Y-91729062D01*
X126969062Y-91903172D01*
X126832265Y-92107903D01*
X126738037Y-92335389D01*
X126690000Y-92576886D01*
X93575000Y-92576886D01*
X93575000Y-90314950D01*
X93643726Y-90246224D01*
X93720332Y-90131574D01*
X93759552Y-90036886D01*
X126690000Y-90036886D01*
X126690000Y-90283114D01*
X126738037Y-90524611D01*
X126832265Y-90752097D01*
X126969062Y-90956828D01*
X127143172Y-91130938D01*
X127347903Y-91267735D01*
X127575389Y-91361963D01*
X127816886Y-91410000D01*
X128063114Y-91410000D01*
X128304611Y-91361963D01*
X128532097Y-91267735D01*
X128736828Y-91130938D01*
X128910938Y-90956828D01*
X129047735Y-90752097D01*
X129141963Y-90524611D01*
X129190000Y-90283114D01*
X129190000Y-90036886D01*
X129141963Y-89795389D01*
X129047735Y-89567903D01*
X128910938Y-89363172D01*
X128736828Y-89189062D01*
X128532097Y-89052265D01*
X128304611Y-88958037D01*
X128063114Y-88910000D01*
X127816886Y-88910000D01*
X127575389Y-88958037D01*
X127347903Y-89052265D01*
X127143172Y-89189062D01*
X126969062Y-89363172D01*
X126832265Y-89567903D01*
X126738037Y-89795389D01*
X126690000Y-90036886D01*
X93759552Y-90036886D01*
X93773099Y-90004182D01*
X93800000Y-89868944D01*
X93800000Y-89731056D01*
X93773099Y-89595818D01*
X93720332Y-89468426D01*
X93643726Y-89353776D01*
X93546224Y-89256274D01*
X93431574Y-89179668D01*
X93304182Y-89126901D01*
X93168944Y-89100000D01*
X93031056Y-89100000D01*
X92895818Y-89126901D01*
X92768426Y-89179668D01*
X92653776Y-89256274D01*
X92556274Y-89353776D01*
X92479668Y-89468426D01*
X92426901Y-89595818D01*
X92400000Y-89731056D01*
X74842807Y-89731056D01*
X73213459Y-88101709D01*
X73261963Y-87984611D01*
X73310000Y-87743114D01*
X73310000Y-87531056D01*
X98900000Y-87531056D01*
X98900000Y-87668944D01*
X98926901Y-87804182D01*
X98979668Y-87931574D01*
X99056274Y-88046224D01*
X99153776Y-88143726D01*
X99268426Y-88220332D01*
X99395818Y-88273099D01*
X99531056Y-88300000D01*
X99668944Y-88300000D01*
X99804182Y-88273099D01*
X99931574Y-88220332D01*
X100046224Y-88143726D01*
X100143726Y-88046224D01*
X100214964Y-87939608D01*
X100295818Y-87973099D01*
X100431056Y-88000000D01*
X100568944Y-88000000D01*
X100704182Y-87973099D01*
X100831574Y-87920332D01*
X100946224Y-87843726D01*
X101043726Y-87746224D01*
X101120332Y-87631574D01*
X101173099Y-87504182D01*
X101174550Y-87496886D01*
X126690000Y-87496886D01*
X126690000Y-87743114D01*
X126738037Y-87984611D01*
X126832265Y-88212097D01*
X126969062Y-88416828D01*
X127143172Y-88590938D01*
X127347903Y-88727735D01*
X127575389Y-88821963D01*
X127816886Y-88870000D01*
X128063114Y-88870000D01*
X128304611Y-88821963D01*
X128532097Y-88727735D01*
X128736828Y-88590938D01*
X128910938Y-88416828D01*
X129047735Y-88212097D01*
X129141963Y-87984611D01*
X129190000Y-87743114D01*
X129190000Y-87496886D01*
X129141963Y-87255389D01*
X129047735Y-87027903D01*
X128910938Y-86823172D01*
X128736828Y-86649062D01*
X128532097Y-86512265D01*
X128304611Y-86418037D01*
X128063114Y-86370000D01*
X127816886Y-86370000D01*
X127575389Y-86418037D01*
X127347903Y-86512265D01*
X127143172Y-86649062D01*
X126969062Y-86823172D01*
X126832265Y-87027903D01*
X126738037Y-87255389D01*
X126690000Y-87496886D01*
X101174550Y-87496886D01*
X101200000Y-87368944D01*
X101200000Y-87300753D01*
X101217746Y-87279129D01*
X101264175Y-87192267D01*
X101292765Y-87098017D01*
X101300000Y-87024560D01*
X101300000Y-87024559D01*
X101302419Y-87000001D01*
X101300000Y-86975443D01*
X101300000Y-86289950D01*
X101343726Y-86246224D01*
X101420332Y-86131574D01*
X101473099Y-86004182D01*
X101500000Y-85868944D01*
X101500000Y-85731056D01*
X101473099Y-85595818D01*
X101420332Y-85468426D01*
X101343726Y-85353776D01*
X101246224Y-85256274D01*
X101131574Y-85179668D01*
X101004182Y-85126901D01*
X100868944Y-85100000D01*
X100731056Y-85100000D01*
X100595818Y-85126901D01*
X100469269Y-85179319D01*
X100446224Y-85156274D01*
X100331574Y-85079668D01*
X100204182Y-85026901D01*
X100068944Y-85000000D01*
X99931056Y-85000000D01*
X99795818Y-85026901D01*
X99668426Y-85079668D01*
X99553776Y-85156274D01*
X99456274Y-85253776D01*
X99379668Y-85368426D01*
X99326901Y-85495818D01*
X99300000Y-85631056D01*
X99300000Y-85768944D01*
X99326901Y-85904182D01*
X99379668Y-86031574D01*
X99456274Y-86146224D01*
X99500000Y-86189950D01*
X99500001Y-86692893D01*
X99263823Y-86929072D01*
X99244736Y-86944736D01*
X99182254Y-87020871D01*
X99168639Y-87046343D01*
X99153776Y-87056274D01*
X99056274Y-87153776D01*
X98979668Y-87268426D01*
X98926901Y-87395818D01*
X98900000Y-87531056D01*
X73310000Y-87531056D01*
X73310000Y-87496886D01*
X73261963Y-87255389D01*
X73167735Y-87027903D01*
X73030938Y-86823172D01*
X72856828Y-86649062D01*
X72652097Y-86512265D01*
X72424611Y-86418037D01*
X72183114Y-86370000D01*
X71936886Y-86370000D01*
X71695389Y-86418037D01*
X71467903Y-86512265D01*
X71263172Y-86649062D01*
X71089062Y-86823172D01*
X70952265Y-87027903D01*
X70858037Y-87255389D01*
X70810000Y-87496886D01*
X70425000Y-87496886D01*
X70425000Y-84956886D01*
X70810000Y-84956886D01*
X70810000Y-85203114D01*
X70858037Y-85444611D01*
X70952265Y-85672097D01*
X71089062Y-85876828D01*
X71263172Y-86050938D01*
X71467903Y-86187735D01*
X71695389Y-86281963D01*
X71936886Y-86330000D01*
X72183114Y-86330000D01*
X72424611Y-86281963D01*
X72652097Y-86187735D01*
X72856828Y-86050938D01*
X73030938Y-85876828D01*
X73167735Y-85672097D01*
X73261963Y-85444611D01*
X73310000Y-85203114D01*
X73310000Y-84956886D01*
X126690000Y-84956886D01*
X126690000Y-85203114D01*
X126738037Y-85444611D01*
X126832265Y-85672097D01*
X126969062Y-85876828D01*
X127143172Y-86050938D01*
X127347903Y-86187735D01*
X127575389Y-86281963D01*
X127816886Y-86330000D01*
X128063114Y-86330000D01*
X128304611Y-86281963D01*
X128532097Y-86187735D01*
X128736828Y-86050938D01*
X128910938Y-85876828D01*
X129047735Y-85672097D01*
X129141963Y-85444611D01*
X129190000Y-85203114D01*
X129190000Y-84956886D01*
X129141963Y-84715389D01*
X129047735Y-84487903D01*
X128910938Y-84283172D01*
X128736828Y-84109062D01*
X128532097Y-83972265D01*
X128304611Y-83878037D01*
X128063114Y-83830000D01*
X127816886Y-83830000D01*
X127575389Y-83878037D01*
X127347903Y-83972265D01*
X127143172Y-84109062D01*
X126969062Y-84283172D01*
X126832265Y-84487903D01*
X126738037Y-84715389D01*
X126690000Y-84956886D01*
X73310000Y-84956886D01*
X73261963Y-84715389D01*
X73167735Y-84487903D01*
X73030938Y-84283172D01*
X72856828Y-84109062D01*
X72652097Y-83972265D01*
X72424611Y-83878037D01*
X72183114Y-83830000D01*
X71936886Y-83830000D01*
X71695389Y-83878037D01*
X71467903Y-83972265D01*
X71263172Y-84109062D01*
X71089062Y-84283172D01*
X70952265Y-84487903D01*
X70858037Y-84715389D01*
X70810000Y-84956886D01*
X70425000Y-84956886D01*
X70425000Y-82416886D01*
X70810000Y-82416886D01*
X70810000Y-82663114D01*
X70858037Y-82904611D01*
X70952265Y-83132097D01*
X71089062Y-83336828D01*
X71263172Y-83510938D01*
X71467903Y-83647735D01*
X71695389Y-83741963D01*
X71936886Y-83790000D01*
X72183114Y-83790000D01*
X72424611Y-83741963D01*
X72652097Y-83647735D01*
X72856828Y-83510938D01*
X73030938Y-83336828D01*
X73167735Y-83132097D01*
X73261963Y-82904611D01*
X73310000Y-82663114D01*
X73310000Y-82416886D01*
X73261963Y-82175389D01*
X73167735Y-81947903D01*
X73030938Y-81743172D01*
X72918822Y-81631056D01*
X93300000Y-81631056D01*
X93300000Y-81768944D01*
X93326901Y-81904182D01*
X93379668Y-82031574D01*
X93456274Y-82146224D01*
X93553776Y-82243726D01*
X93668426Y-82320332D01*
X93795818Y-82373099D01*
X93931056Y-82400000D01*
X94068944Y-82400000D01*
X94204182Y-82373099D01*
X94331574Y-82320332D01*
X94362003Y-82300000D01*
X94737997Y-82300000D01*
X94768426Y-82320332D01*
X94895818Y-82373099D01*
X95031056Y-82400000D01*
X95168944Y-82400000D01*
X95304182Y-82373099D01*
X95431574Y-82320332D01*
X95462003Y-82300000D01*
X95970526Y-82300000D01*
X96000000Y-82302903D01*
X96029474Y-82300000D01*
X96117621Y-82291318D01*
X96230721Y-82257010D01*
X96334955Y-82201296D01*
X96426317Y-82126317D01*
X96445113Y-82103414D01*
X98048529Y-80500000D01*
X98937997Y-80500000D01*
X98968426Y-80520332D01*
X99095818Y-80573099D01*
X99231056Y-80600000D01*
X99368944Y-80600000D01*
X99440418Y-80585783D01*
X99473683Y-80626317D01*
X99496586Y-80645113D01*
X100354891Y-81503419D01*
X100373683Y-81526317D01*
X100465045Y-81601296D01*
X100569279Y-81657010D01*
X100682379Y-81691318D01*
X100799999Y-81702903D01*
X100829473Y-81700000D01*
X105281473Y-81700000D01*
X105534761Y-81953289D01*
X105541901Y-81989182D01*
X105594668Y-82116574D01*
X105671274Y-82231224D01*
X105768776Y-82328726D01*
X105883426Y-82405332D01*
X106010818Y-82458099D01*
X106046711Y-82465239D01*
X106184761Y-82603289D01*
X106191901Y-82639182D01*
X106244668Y-82766574D01*
X106321274Y-82881224D01*
X106418776Y-82978726D01*
X106533426Y-83055332D01*
X106660818Y-83108099D01*
X106796056Y-83135000D01*
X106933944Y-83135000D01*
X107069182Y-83108099D01*
X107196574Y-83055332D01*
X107311224Y-82978726D01*
X107408726Y-82881224D01*
X107485332Y-82766574D01*
X107538099Y-82639182D01*
X107545239Y-82603288D01*
X107731641Y-82416886D01*
X126690000Y-82416886D01*
X126690000Y-82663114D01*
X126738037Y-82904611D01*
X126832265Y-83132097D01*
X126969062Y-83336828D01*
X127143172Y-83510938D01*
X127347903Y-83647735D01*
X127575389Y-83741963D01*
X127816886Y-83790000D01*
X128063114Y-83790000D01*
X128304611Y-83741963D01*
X128532097Y-83647735D01*
X128736828Y-83510938D01*
X128910938Y-83336828D01*
X129047735Y-83132097D01*
X129141963Y-82904611D01*
X129190000Y-82663114D01*
X129190000Y-82416886D01*
X129141963Y-82175389D01*
X129047735Y-81947903D01*
X128910938Y-81743172D01*
X128736828Y-81569062D01*
X128532097Y-81432265D01*
X128304611Y-81338037D01*
X128063114Y-81290000D01*
X127816886Y-81290000D01*
X127575389Y-81338037D01*
X127347903Y-81432265D01*
X127143172Y-81569062D01*
X126969062Y-81743172D01*
X126832265Y-81947903D01*
X126738037Y-82175389D01*
X126690000Y-82416886D01*
X107731641Y-82416886D01*
X109548528Y-80600000D01*
X126688065Y-80600000D01*
X126688065Y-80850000D01*
X126695788Y-80928414D01*
X126718660Y-81003814D01*
X126755803Y-81073303D01*
X126805789Y-81134211D01*
X126866697Y-81184197D01*
X126936186Y-81221340D01*
X127011586Y-81244212D01*
X127090000Y-81251935D01*
X128790000Y-81251935D01*
X128868414Y-81244212D01*
X128943814Y-81221340D01*
X129013303Y-81184197D01*
X129074211Y-81134211D01*
X129124197Y-81073303D01*
X129161340Y-81003814D01*
X129184212Y-80928414D01*
X129191935Y-80850000D01*
X129191935Y-79150000D01*
X129184212Y-79071586D01*
X129161340Y-78996186D01*
X129124197Y-78926697D01*
X129074211Y-78865789D01*
X129013303Y-78815803D01*
X128943814Y-78778660D01*
X128868414Y-78755788D01*
X128790000Y-78748065D01*
X127090000Y-78748065D01*
X127011586Y-78755788D01*
X126936186Y-78778660D01*
X126866697Y-78815803D01*
X126805789Y-78865789D01*
X126755803Y-78926697D01*
X126718660Y-78996186D01*
X126695788Y-79071586D01*
X126688065Y-79150000D01*
X126688065Y-79400000D01*
X109329473Y-79400000D01*
X109299999Y-79397097D01*
X109197060Y-79407236D01*
X109182379Y-79408682D01*
X109069279Y-79442990D01*
X108965045Y-79498704D01*
X108873683Y-79573683D01*
X108854894Y-79596578D01*
X106882990Y-81568483D01*
X106835332Y-81453426D01*
X106758726Y-81338776D01*
X106661224Y-81241274D01*
X106546574Y-81164668D01*
X106419182Y-81111901D01*
X106383289Y-81104761D01*
X105975113Y-80696586D01*
X105956317Y-80673683D01*
X105864955Y-80598704D01*
X105760721Y-80542990D01*
X105647621Y-80508682D01*
X105561678Y-80500217D01*
X105646224Y-80443726D01*
X105743726Y-80346224D01*
X105820332Y-80231574D01*
X105873099Y-80104182D01*
X105900000Y-79968944D01*
X105900000Y-79831056D01*
X105873099Y-79695818D01*
X105820332Y-79568426D01*
X105743726Y-79453776D01*
X105646224Y-79356274D01*
X105531574Y-79279668D01*
X105404182Y-79226901D01*
X105268944Y-79200000D01*
X105131056Y-79200000D01*
X104995818Y-79226901D01*
X104868426Y-79279668D01*
X104753776Y-79356274D01*
X104656274Y-79453776D01*
X104579668Y-79568426D01*
X104545879Y-79650000D01*
X101382640Y-79650000D01*
X101338914Y-79606274D01*
X101224264Y-79529668D01*
X101150002Y-79498908D01*
X101150002Y-79381054D01*
X101123101Y-79245816D01*
X101070334Y-79118424D01*
X100993728Y-79003774D01*
X100896226Y-78906272D01*
X100781576Y-78829666D01*
X100654184Y-78776899D01*
X100518946Y-78749998D01*
X100381058Y-78749998D01*
X100245820Y-78776899D01*
X100118428Y-78829666D01*
X100003778Y-78906272D01*
X99906276Y-79003774D01*
X99829670Y-79118424D01*
X99776903Y-79245816D01*
X99769763Y-79281709D01*
X99751472Y-79300000D01*
X99662003Y-79300000D01*
X99631574Y-79279668D01*
X99504182Y-79226901D01*
X99368944Y-79200000D01*
X99231056Y-79200000D01*
X99095818Y-79226901D01*
X98968426Y-79279668D01*
X98937997Y-79300000D01*
X97829465Y-79300000D01*
X97799999Y-79297098D01*
X97770533Y-79300000D01*
X97770526Y-79300000D01*
X97693640Y-79307573D01*
X97682378Y-79308682D01*
X97648070Y-79319089D01*
X97569279Y-79342990D01*
X97465045Y-79398704D01*
X97373683Y-79473683D01*
X97354896Y-79496575D01*
X95751473Y-81100000D01*
X95462003Y-81100000D01*
X95431574Y-81079668D01*
X95304182Y-81026901D01*
X95168944Y-81000000D01*
X95031056Y-81000000D01*
X94895818Y-81026901D01*
X94768426Y-81079668D01*
X94737997Y-81100000D01*
X94362003Y-81100000D01*
X94331574Y-81079668D01*
X94204182Y-81026901D01*
X94068944Y-81000000D01*
X93931056Y-81000000D01*
X93795818Y-81026901D01*
X93668426Y-81079668D01*
X93553776Y-81156274D01*
X93456274Y-81253776D01*
X93379668Y-81368426D01*
X93326901Y-81495818D01*
X93300000Y-81631056D01*
X72918822Y-81631056D01*
X72856828Y-81569062D01*
X72652097Y-81432265D01*
X72424611Y-81338037D01*
X72183114Y-81290000D01*
X71936886Y-81290000D01*
X71695389Y-81338037D01*
X71467903Y-81432265D01*
X71263172Y-81569062D01*
X71089062Y-81743172D01*
X70952265Y-81947903D01*
X70858037Y-82175389D01*
X70810000Y-82416886D01*
X70425000Y-82416886D01*
X70425000Y-79770789D01*
X70452234Y-79493036D01*
X70526862Y-79245856D01*
X70577829Y-79150000D01*
X70808065Y-79150000D01*
X70808065Y-80850000D01*
X70815788Y-80928414D01*
X70838660Y-81003814D01*
X70875803Y-81073303D01*
X70925789Y-81134211D01*
X70986697Y-81184197D01*
X71056186Y-81221340D01*
X71131586Y-81244212D01*
X71210000Y-81251935D01*
X72910000Y-81251935D01*
X72988414Y-81244212D01*
X73063814Y-81221340D01*
X73133303Y-81184197D01*
X73194211Y-81134211D01*
X73244197Y-81073303D01*
X73281340Y-81003814D01*
X73304212Y-80928414D01*
X73311935Y-80850000D01*
X73311935Y-79150000D01*
X73304212Y-79071586D01*
X73281340Y-78996186D01*
X73244197Y-78926697D01*
X73194211Y-78865789D01*
X73133303Y-78815803D01*
X73063814Y-78778660D01*
X72988414Y-78755788D01*
X72910000Y-78748065D01*
X71210000Y-78748065D01*
X71131586Y-78755788D01*
X71056186Y-78778660D01*
X70986697Y-78815803D01*
X70925789Y-78865789D01*
X70875803Y-78926697D01*
X70838660Y-78996186D01*
X70815788Y-79071586D01*
X70808065Y-79150000D01*
X70577829Y-79150000D01*
X70648075Y-79017887D01*
X70811266Y-78817794D01*
X71010207Y-78653216D01*
X71237334Y-78530409D01*
X71483979Y-78454059D01*
X71760466Y-78425000D01*
X128229211Y-78425000D01*
X128506964Y-78452234D01*
M02*
