G04 #@! TF.GenerationSoftware,KiCad,Pcbnew,5.1.5+dfsg1-2build2*
G04 #@! TF.CreationDate,2021-12-29T20:58:04+01:00*
G04 #@! TF.ProjectId,teebeutel_image_sensor,74656562-6575-4746-956c-5f696d616765,rev?*
G04 #@! TF.SameCoordinates,Original*
G04 #@! TF.FileFunction,Copper,L2,Bot*
G04 #@! TF.FilePolarity,Positive*
%FSLAX46Y46*%
G04 Gerber Fmt 4.6, Leading zero omitted, Abs format (unit mm)*
G04 Created by KiCad (PCBNEW 5.1.5+dfsg1-2build2) date 2021-12-29 20:58:04*
%MOMM*%
%LPD*%
G04 APERTURE LIST*
%ADD10R,1.400000X2.400000*%
%ADD11R,1.100000X0.950000*%
%ADD12R,0.700000X1.300000*%
%ADD13R,0.600000X0.500000*%
%ADD14R,0.900000X0.800000*%
%ADD15R,1.000000X1.000000*%
%ADD16R,1.100000X1.300000*%
%ADD17R,0.500000X0.500000*%
%ADD18C,0.100000*%
%ADD19R,2.316000X1.200000*%
%ADD20R,2.600000X0.700000*%
%ADD21R,2.640000X0.800000*%
%ADD22R,3.600000X0.800000*%
%ADD23C,0.130000*%
%ADD24C,0.180000*%
%ADD25R,0.500000X0.600000*%
%ADD26R,0.900000X0.600000*%
%ADD27R,0.600000X0.900000*%
%ADD28O,1.700000X1.700000*%
%ADD29R,1.700000X1.700000*%
%ADD30C,0.600000*%
%ADD31C,0.400000*%
%ADD32C,0.400000*%
%ADD33C,0.300000*%
%ADD34C,0.200000*%
%ADD35C,0.127000*%
%ADD36C,0.150000*%
G04 APERTURE END LIST*
D10*
X86500000Y-91500000D03*
D11*
X85750000Y-88975000D03*
X87250000Y-94025000D03*
X87250000Y-88975000D03*
X85750000Y-94025000D03*
D10*
X113500000Y-91500000D03*
D11*
X112750000Y-88975000D03*
X114250000Y-94025000D03*
X114250000Y-88975000D03*
X112750000Y-94025000D03*
D12*
X114650000Y-96100000D03*
X112750000Y-96100000D03*
X114650000Y-99600000D03*
X112750000Y-99600000D03*
D13*
X119200000Y-96070000D03*
X119200000Y-95130000D03*
X119200000Y-99570000D03*
X119200000Y-98630000D03*
D14*
X116000000Y-96100000D03*
X118000000Y-97050000D03*
X118000000Y-95150000D03*
X116000000Y-99600000D03*
X118000000Y-100550000D03*
X118000000Y-98650000D03*
D13*
X105200000Y-86530000D03*
X105200000Y-87470000D03*
D15*
X90200000Y-101200000D03*
X92600000Y-95200000D03*
X97400000Y-101800000D03*
D16*
X94625000Y-100250000D03*
X94625000Y-98150000D03*
X92975000Y-98150000D03*
X92975000Y-100250000D03*
D17*
X99250000Y-82810000D03*
X97700000Y-80690000D03*
X98450000Y-82810000D03*
X100750000Y-80690000D03*
G04 #@! TA.AperFunction,SMDPad,CuDef*
D18*
G36*
X102550000Y-81050000D02*
G01*
X102310000Y-81050000D01*
X102310000Y-80940000D01*
X102050000Y-80940000D01*
X102050000Y-80440000D01*
X102550000Y-80440000D01*
X102550000Y-81050000D01*
G37*
G04 #@! TD.AperFunction*
D17*
X99250000Y-80690000D03*
X102710000Y-81750000D03*
X102300000Y-82810000D03*
X101550000Y-82810000D03*
X100000000Y-80690000D03*
X100000000Y-82810000D03*
X97300000Y-81750000D03*
X101550000Y-80690000D03*
D19*
X100000000Y-81750000D03*
D17*
X97700000Y-82810000D03*
X98450000Y-80690000D03*
X100750000Y-82810000D03*
D20*
X103050000Y-92573000D03*
D21*
X103030000Y-95500000D03*
D20*
X103050000Y-91270000D03*
X103050000Y-90000000D03*
X103050000Y-88730000D03*
X103050000Y-87460000D03*
D21*
X103050000Y-84500000D03*
X96950000Y-84500000D03*
D20*
X96950000Y-87460000D03*
X96950000Y-88730000D03*
X96950000Y-90000000D03*
X96950000Y-91270000D03*
X96950000Y-92540000D03*
D22*
X97450000Y-95500000D03*
D23*
X100125000Y-98125000D03*
X100125000Y-97875000D03*
X99875000Y-97875000D03*
X99875000Y-98125000D03*
D24*
X99801213Y-99598787D02*
X99758787Y-99641213D01*
X100241213Y-99158787D02*
X100198787Y-99201213D01*
X99801213Y-99201213D02*
X99758787Y-99158787D01*
X100241213Y-99641213D02*
X100198787Y-99598787D01*
D13*
X96200000Y-100070000D03*
X96200000Y-99130000D03*
X107700000Y-90470000D03*
X107700000Y-89530000D03*
X94400000Y-89530000D03*
X94400000Y-90470000D03*
X104200000Y-80870000D03*
X104200000Y-79930000D03*
X104000000Y-82330000D03*
X104000000Y-83270000D03*
D25*
X98270000Y-98000000D03*
X97330000Y-98000000D03*
D13*
X93200000Y-91270000D03*
X93200000Y-90330000D03*
X105200000Y-80530000D03*
X105200000Y-81470000D03*
D25*
X98130000Y-79400000D03*
X99070000Y-79400000D03*
D13*
X94400000Y-92530000D03*
X94400000Y-93470000D03*
X92200000Y-88730000D03*
X92200000Y-89670000D03*
X90200000Y-99670000D03*
X90200000Y-98730000D03*
G04 #@! TA.AperFunction,SMDPad,CuDef*
D18*
G36*
X94521958Y-87280710D02*
G01*
X94536276Y-87282834D01*
X94550317Y-87286351D01*
X94563946Y-87291228D01*
X94577031Y-87297417D01*
X94589447Y-87304858D01*
X94601073Y-87313481D01*
X94611798Y-87323202D01*
X94621519Y-87333927D01*
X94630142Y-87345553D01*
X94637583Y-87357969D01*
X94643772Y-87371054D01*
X94648649Y-87384683D01*
X94652166Y-87398724D01*
X94654290Y-87413042D01*
X94655000Y-87427500D01*
X94655000Y-87772500D01*
X94654290Y-87786958D01*
X94652166Y-87801276D01*
X94648649Y-87815317D01*
X94643772Y-87828946D01*
X94637583Y-87842031D01*
X94630142Y-87854447D01*
X94621519Y-87866073D01*
X94611798Y-87876798D01*
X94601073Y-87886519D01*
X94589447Y-87895142D01*
X94577031Y-87902583D01*
X94563946Y-87908772D01*
X94550317Y-87913649D01*
X94536276Y-87917166D01*
X94521958Y-87919290D01*
X94507500Y-87920000D01*
X94212500Y-87920000D01*
X94198042Y-87919290D01*
X94183724Y-87917166D01*
X94169683Y-87913649D01*
X94156054Y-87908772D01*
X94142969Y-87902583D01*
X94130553Y-87895142D01*
X94118927Y-87886519D01*
X94108202Y-87876798D01*
X94098481Y-87866073D01*
X94089858Y-87854447D01*
X94082417Y-87842031D01*
X94076228Y-87828946D01*
X94071351Y-87815317D01*
X94067834Y-87801276D01*
X94065710Y-87786958D01*
X94065000Y-87772500D01*
X94065000Y-87427500D01*
X94065710Y-87413042D01*
X94067834Y-87398724D01*
X94071351Y-87384683D01*
X94076228Y-87371054D01*
X94082417Y-87357969D01*
X94089858Y-87345553D01*
X94098481Y-87333927D01*
X94108202Y-87323202D01*
X94118927Y-87313481D01*
X94130553Y-87304858D01*
X94142969Y-87297417D01*
X94156054Y-87291228D01*
X94169683Y-87286351D01*
X94183724Y-87282834D01*
X94198042Y-87280710D01*
X94212500Y-87280000D01*
X94507500Y-87280000D01*
X94521958Y-87280710D01*
G37*
G04 #@! TD.AperFunction*
G04 #@! TA.AperFunction,SMDPad,CuDef*
G36*
X92576958Y-87280710D02*
G01*
X92591276Y-87282834D01*
X92605317Y-87286351D01*
X92618946Y-87291228D01*
X92632031Y-87297417D01*
X92644447Y-87304858D01*
X92656073Y-87313481D01*
X92666798Y-87323202D01*
X92676519Y-87333927D01*
X92685142Y-87345553D01*
X92692583Y-87357969D01*
X92698772Y-87371054D01*
X92703649Y-87384683D01*
X92707166Y-87398724D01*
X92709290Y-87413042D01*
X92710000Y-87427500D01*
X92710000Y-87772500D01*
X92709290Y-87786958D01*
X92707166Y-87801276D01*
X92703649Y-87815317D01*
X92698772Y-87828946D01*
X92692583Y-87842031D01*
X92685142Y-87854447D01*
X92676519Y-87866073D01*
X92666798Y-87876798D01*
X92656073Y-87886519D01*
X92644447Y-87895142D01*
X92632031Y-87902583D01*
X92618946Y-87908772D01*
X92605317Y-87913649D01*
X92591276Y-87917166D01*
X92576958Y-87919290D01*
X92562500Y-87920000D01*
X92267500Y-87920000D01*
X92253042Y-87919290D01*
X92238724Y-87917166D01*
X92224683Y-87913649D01*
X92211054Y-87908772D01*
X92197969Y-87902583D01*
X92185553Y-87895142D01*
X92173927Y-87886519D01*
X92163202Y-87876798D01*
X92153481Y-87866073D01*
X92144858Y-87854447D01*
X92137417Y-87842031D01*
X92131228Y-87828946D01*
X92126351Y-87815317D01*
X92122834Y-87801276D01*
X92120710Y-87786958D01*
X92120000Y-87772500D01*
X92120000Y-87427500D01*
X92120710Y-87413042D01*
X92122834Y-87398724D01*
X92126351Y-87384683D01*
X92131228Y-87371054D01*
X92137417Y-87357969D01*
X92144858Y-87345553D01*
X92153481Y-87333927D01*
X92163202Y-87323202D01*
X92173927Y-87313481D01*
X92185553Y-87304858D01*
X92197969Y-87297417D01*
X92211054Y-87291228D01*
X92224683Y-87286351D01*
X92238724Y-87282834D01*
X92253042Y-87280710D01*
X92267500Y-87280000D01*
X92562500Y-87280000D01*
X92576958Y-87280710D01*
G37*
G04 #@! TD.AperFunction*
G04 #@! TA.AperFunction,SMDPad,CuDef*
G36*
X93546958Y-87280710D02*
G01*
X93561276Y-87282834D01*
X93575317Y-87286351D01*
X93588946Y-87291228D01*
X93602031Y-87297417D01*
X93614447Y-87304858D01*
X93626073Y-87313481D01*
X93636798Y-87323202D01*
X93646519Y-87333927D01*
X93655142Y-87345553D01*
X93662583Y-87357969D01*
X93668772Y-87371054D01*
X93673649Y-87384683D01*
X93677166Y-87398724D01*
X93679290Y-87413042D01*
X93680000Y-87427500D01*
X93680000Y-87772500D01*
X93679290Y-87786958D01*
X93677166Y-87801276D01*
X93673649Y-87815317D01*
X93668772Y-87828946D01*
X93662583Y-87842031D01*
X93655142Y-87854447D01*
X93646519Y-87866073D01*
X93636798Y-87876798D01*
X93626073Y-87886519D01*
X93614447Y-87895142D01*
X93602031Y-87902583D01*
X93588946Y-87908772D01*
X93575317Y-87913649D01*
X93561276Y-87917166D01*
X93546958Y-87919290D01*
X93532500Y-87920000D01*
X93237500Y-87920000D01*
X93223042Y-87919290D01*
X93208724Y-87917166D01*
X93194683Y-87913649D01*
X93181054Y-87908772D01*
X93167969Y-87902583D01*
X93155553Y-87895142D01*
X93143927Y-87886519D01*
X93133202Y-87876798D01*
X93123481Y-87866073D01*
X93114858Y-87854447D01*
X93107417Y-87842031D01*
X93101228Y-87828946D01*
X93096351Y-87815317D01*
X93092834Y-87801276D01*
X93090710Y-87786958D01*
X93090000Y-87772500D01*
X93090000Y-87427500D01*
X93090710Y-87413042D01*
X93092834Y-87398724D01*
X93096351Y-87384683D01*
X93101228Y-87371054D01*
X93107417Y-87357969D01*
X93114858Y-87345553D01*
X93123481Y-87333927D01*
X93133202Y-87323202D01*
X93143927Y-87313481D01*
X93155553Y-87304858D01*
X93167969Y-87297417D01*
X93181054Y-87291228D01*
X93194683Y-87286351D01*
X93208724Y-87282834D01*
X93223042Y-87280710D01*
X93237500Y-87280000D01*
X93532500Y-87280000D01*
X93546958Y-87280710D01*
G37*
G04 #@! TD.AperFunction*
D26*
X106400000Y-86050000D03*
X106400000Y-87550000D03*
D27*
X102550000Y-79200000D03*
X101050000Y-79200000D03*
D13*
X105400000Y-93670000D03*
X105400000Y-92730000D03*
X100000000Y-78730000D03*
X100000000Y-79670000D03*
D27*
X106750000Y-91200000D03*
X105250000Y-91200000D03*
D26*
X96000000Y-80250000D03*
X96000000Y-81750000D03*
D27*
X106750000Y-88800000D03*
X105250000Y-88800000D03*
X99250000Y-101000000D03*
X100750000Y-101000000D03*
D13*
X96200000Y-97130000D03*
X96200000Y-98070000D03*
X91400000Y-98130000D03*
X91400000Y-99070000D03*
D28*
X127940000Y-102860000D03*
X127940000Y-100320000D03*
X127940000Y-97780000D03*
X127940000Y-95240000D03*
X127940000Y-92700000D03*
X127940000Y-90160000D03*
X127940000Y-87620000D03*
X127940000Y-85080000D03*
X127940000Y-82540000D03*
D29*
X127940000Y-80000000D03*
D28*
X72060000Y-102860000D03*
X72060000Y-100320000D03*
X72060000Y-97780000D03*
X72060000Y-95240000D03*
X72060000Y-92700000D03*
X72060000Y-90160000D03*
X72060000Y-87620000D03*
X72060000Y-85080000D03*
X72060000Y-82540000D03*
D29*
X72060000Y-80000000D03*
D30*
X99350000Y-81750000D03*
X100650000Y-81750000D03*
X101825000Y-78475000D03*
X97360000Y-79140000D03*
X98100000Y-83500000D03*
X103550000Y-79250000D03*
X101470000Y-86530000D03*
X99255000Y-86855000D03*
X99300000Y-102000000D03*
X99900000Y-101000000D03*
X97100000Y-97000000D03*
X92800000Y-96800000D03*
X106750000Y-92250000D03*
X104530000Y-93670000D03*
X98900000Y-88300000D03*
X74000000Y-88000000D03*
X94500000Y-95500000D03*
X91000000Y-95250000D03*
X98750000Y-94250000D03*
X99000000Y-92500000D03*
X100750000Y-93500000D03*
X103250000Y-96750000D03*
X101750000Y-98250000D03*
X98250000Y-100500000D03*
X92000000Y-101500000D03*
X89250000Y-99250000D03*
X91250000Y-97250000D03*
X94500000Y-86500000D03*
X99250000Y-84000000D03*
X97000000Y-86250000D03*
X105250000Y-84000000D03*
X107000000Y-85250000D03*
X104250000Y-85750000D03*
X106000000Y-90000000D03*
X107500000Y-79750000D03*
X125500000Y-81500000D03*
X124750000Y-102250000D03*
X126250000Y-100750000D03*
X112500000Y-102800000D03*
X108700000Y-102800000D03*
X111100000Y-98000000D03*
X113900000Y-97900000D03*
X116700000Y-95000000D03*
X116900000Y-97800000D03*
X119500000Y-97500000D03*
X125100000Y-97500000D03*
X125100000Y-94200000D03*
X119600000Y-94000000D03*
X108500000Y-88100000D03*
X108700000Y-85900000D03*
X114300000Y-87200000D03*
X86100000Y-87800000D03*
X88600000Y-87900000D03*
X84000000Y-94000000D03*
X81000000Y-94000000D03*
X84000000Y-95500000D03*
X81000000Y-95500000D03*
X77500000Y-94000000D03*
X77500000Y-92000000D03*
X81000000Y-92000000D03*
X84000000Y-92000000D03*
X84000000Y-89000000D03*
X81000000Y-89000000D03*
X77500000Y-89000000D03*
X74000000Y-85500000D03*
X74000000Y-90500000D03*
X89000000Y-95500000D03*
X89000000Y-94000000D03*
X99000000Y-103000000D03*
X95000000Y-103000000D03*
X87000000Y-99500000D03*
X84500000Y-99500000D03*
X100000000Y-85700000D03*
X99600000Y-87600000D03*
X76000000Y-92500000D03*
X100800000Y-85800000D03*
X100500000Y-87300000D03*
D31*
X100100000Y-97400000D03*
X100472990Y-98700000D03*
D30*
X100450002Y-79449998D03*
X99300000Y-79900000D03*
X106215000Y-81785000D03*
X106865000Y-82435000D03*
X95100000Y-81700000D03*
X94000000Y-81700000D03*
X93100000Y-93100000D03*
X93100000Y-89800000D03*
X100892690Y-80150000D03*
X105200000Y-79900000D03*
X94700000Y-101500000D03*
D31*
X99299990Y-97800000D03*
X99900000Y-98600000D03*
D32*
X104500000Y-86530000D02*
X105200000Y-86530000D01*
X98650000Y-87460000D02*
X99255000Y-86855000D01*
X99580000Y-86530000D02*
X101470000Y-86530000D01*
X96950000Y-87460000D02*
X98650000Y-87460000D01*
X105920000Y-86530000D02*
X106400000Y-86050000D01*
X105200000Y-86530000D02*
X105920000Y-86530000D01*
D33*
X101725010Y-78375010D02*
X101825000Y-78475000D01*
X100354990Y-78375010D02*
X101725010Y-78375010D01*
X100000000Y-78730000D02*
X100354990Y-78375010D01*
X96110000Y-80140000D02*
X96000000Y-80250000D01*
X97700000Y-80180000D02*
X97700000Y-80690000D01*
X97740000Y-80140000D02*
X97700000Y-80180000D01*
X101550000Y-80200000D02*
X102550000Y-79200000D01*
X101550000Y-80690000D02*
X101550000Y-80200000D01*
X101550000Y-81240000D02*
X101550000Y-80690000D01*
X101550000Y-81720002D02*
X101550000Y-81240000D01*
X102300000Y-82470002D02*
X101550000Y-81720002D01*
X102300000Y-82810000D02*
X102300000Y-82470002D01*
X101520002Y-81750000D02*
X101550000Y-81720002D01*
X100000000Y-81750000D02*
X100650000Y-81750000D01*
X98450000Y-81658000D02*
X98450000Y-80690000D01*
X98542000Y-81750000D02*
X98450000Y-81658000D01*
X100000000Y-81750000D02*
X99350000Y-81750000D01*
X98450000Y-81842000D02*
X98450000Y-82810000D01*
X98542000Y-81750000D02*
X98450000Y-81842000D01*
X97700000Y-83360000D02*
X97700000Y-82810000D01*
X98310000Y-83500000D02*
X98100000Y-83500000D01*
X98450000Y-83360000D02*
X98310000Y-83500000D01*
X97840000Y-83500000D02*
X97700000Y-83360000D01*
X98450000Y-82810000D02*
X98450000Y-83360000D01*
X96150000Y-80250000D02*
X96000000Y-80250000D01*
X100000000Y-78730000D02*
X97670000Y-78730000D01*
X97360000Y-79040000D02*
X97670000Y-78730000D01*
X97360000Y-80140000D02*
X97360000Y-79140000D01*
X97740000Y-80140000D02*
X97360000Y-80140000D01*
X97360000Y-80140000D02*
X96110000Y-80140000D01*
X103500000Y-79200000D02*
X102550000Y-79200000D01*
X104200000Y-79900000D02*
X103550000Y-79250000D01*
X104200000Y-79930000D02*
X104200000Y-79900000D01*
D34*
X94500000Y-87460000D02*
X94360000Y-87600000D01*
X96950000Y-87460000D02*
X94500000Y-87460000D01*
D35*
X99250000Y-100150000D02*
X99780000Y-99620000D01*
D34*
X99250000Y-101000000D02*
X99250000Y-100150000D01*
X99250000Y-98550000D02*
X99600000Y-98200000D01*
X99250000Y-100150000D02*
X99250000Y-98550000D01*
D35*
X99600000Y-98200000D02*
X99669499Y-98130501D01*
X99669499Y-98130501D02*
X99869499Y-98130501D01*
D32*
X106970000Y-91200000D02*
X107700000Y-90470000D01*
X106750000Y-91200000D02*
X106970000Y-91200000D01*
D33*
X92955000Y-98130000D02*
X92975000Y-98150000D01*
X91400000Y-98130000D02*
X92955000Y-98130000D01*
X92975000Y-98025000D02*
X92975000Y-98150000D01*
X93900000Y-97100000D02*
X92975000Y-98025000D01*
X96170000Y-97100000D02*
X93900000Y-97100000D01*
X96200000Y-97130000D02*
X96170000Y-97100000D01*
D32*
X105400000Y-93670000D02*
X104530000Y-93670000D01*
D33*
X106000000Y-93670000D02*
X105400000Y-93670000D01*
X106750000Y-92920000D02*
X106000000Y-93670000D01*
X106750000Y-91200000D02*
X106750000Y-92250000D01*
X99350000Y-81750000D02*
X98542000Y-81750000D01*
X100650000Y-81750000D02*
X101520002Y-81750000D01*
X101825000Y-78475000D02*
X102550000Y-79200000D01*
X97360000Y-79140000D02*
X97360000Y-79040000D01*
X98100000Y-83500000D02*
X97840000Y-83500000D01*
X103550000Y-79250000D02*
X103500000Y-79200000D01*
D32*
X101470000Y-86530000D02*
X104500000Y-86530000D01*
X99255000Y-86855000D02*
X99580000Y-86530000D01*
X99250000Y-101950000D02*
X99300000Y-102000000D01*
X99250000Y-101000000D02*
X99250000Y-101950000D01*
X99250000Y-101000000D02*
X99900000Y-101000000D01*
X96970000Y-97130000D02*
X97100000Y-97000000D01*
X96200000Y-97130000D02*
X96970000Y-97130000D01*
X92975000Y-96975000D02*
X92800000Y-96800000D01*
X92975000Y-98150000D02*
X92975000Y-96975000D01*
D33*
X98422999Y-81222999D02*
X97740000Y-81222999D01*
X98450000Y-81250000D02*
X98422999Y-81222999D01*
X97740000Y-81222999D02*
X97740000Y-80140000D01*
X98450000Y-80690000D02*
X98450000Y-81250000D01*
X106750000Y-92250000D02*
X106750000Y-92920000D01*
D32*
X98900000Y-87875736D02*
X98900000Y-88300000D01*
X98900000Y-87710000D02*
X98900000Y-87875736D01*
X98650000Y-87460000D02*
X98900000Y-87710000D01*
D34*
X100000000Y-82810000D02*
X100000000Y-83260000D01*
X100000000Y-83260000D02*
X100000000Y-85700000D01*
X99600000Y-88024264D02*
X99600000Y-87600000D01*
X99600000Y-89600000D02*
X99600000Y-88024264D01*
X97930000Y-91270000D02*
X99600000Y-89600000D01*
X96950000Y-91270000D02*
X97930000Y-91270000D01*
X96950000Y-91270000D02*
X93200000Y-91270000D01*
D36*
X76299999Y-92799999D02*
X76000000Y-92500000D01*
X90199999Y-93000001D02*
X76500001Y-93000001D01*
X76500001Y-93000001D02*
X76299999Y-92799999D01*
X93200000Y-91270000D02*
X91930000Y-91270000D01*
X91930000Y-91270000D02*
X90199999Y-93000001D01*
D34*
X100750000Y-85750000D02*
X100800000Y-85800000D01*
X100750000Y-82810000D02*
X100750000Y-85750000D01*
X97960000Y-92540000D02*
X96950000Y-92540000D01*
X100200001Y-90299999D02*
X97960000Y-92540000D01*
X100200001Y-87599999D02*
X100200001Y-90299999D01*
X100500000Y-87300000D02*
X100200001Y-87599999D01*
X94410000Y-92540000D02*
X94400000Y-92530000D01*
X96950000Y-92540000D02*
X94410000Y-92540000D01*
D36*
X72909999Y-91009999D02*
X72060000Y-90160000D01*
X75177012Y-93277012D02*
X72909999Y-91009999D01*
X90314740Y-93277012D02*
X75177012Y-93277012D01*
X91061752Y-92530000D02*
X90314740Y-93277012D01*
X94400000Y-92530000D02*
X91061752Y-92530000D01*
D35*
X100200000Y-97800000D02*
X100130501Y-97869499D01*
X100200000Y-97500000D02*
X100200000Y-97800000D01*
X100100000Y-97400000D02*
X100200000Y-97500000D01*
X100220000Y-99180000D02*
X100220000Y-98952990D01*
X100220000Y-98952990D02*
X100272991Y-98899999D01*
X100272991Y-98899999D02*
X100472990Y-98700000D01*
D36*
X93800000Y-96400000D02*
X92600000Y-95200000D01*
X99100000Y-96400000D02*
X93800000Y-96400000D01*
X100100000Y-97400000D02*
X99100000Y-96400000D01*
D34*
X94800000Y-90000000D02*
X94400000Y-89600000D01*
X96950000Y-90000000D02*
X94800000Y-90000000D01*
D36*
X93950000Y-89530000D02*
X94400000Y-89530000D01*
X93620000Y-89200000D02*
X93950000Y-89530000D01*
X91300000Y-89200000D02*
X93620000Y-89200000D01*
X90700000Y-89800000D02*
X91300000Y-89200000D01*
X76780000Y-89800000D02*
X90700000Y-89800000D01*
X72060000Y-85080000D02*
X76780000Y-89800000D01*
D32*
X105190000Y-87460000D02*
X105200000Y-87470000D01*
X103050000Y-87460000D02*
X105190000Y-87460000D01*
X106320000Y-87470000D02*
X106400000Y-87550000D01*
X105200000Y-87470000D02*
X106320000Y-87470000D01*
X105243000Y-92573000D02*
X105400000Y-92730000D01*
X103050000Y-92573000D02*
X105243000Y-92573000D01*
X101350000Y-87460000D02*
X100800000Y-88010000D01*
X103050000Y-87460000D02*
X101350000Y-87460000D01*
X101350000Y-92573000D02*
X103050000Y-92573000D01*
X100800000Y-92023000D02*
X101350000Y-92573000D01*
X100800000Y-88010000D02*
X100800000Y-92023000D01*
X96000000Y-81750000D02*
X97300000Y-81750000D01*
X102710000Y-81750000D02*
X103420000Y-81750000D01*
X104870000Y-81750000D02*
X103420000Y-81750000D01*
X105150000Y-81470000D02*
X104870000Y-81750000D01*
X105200000Y-81470000D02*
X105150000Y-81470000D01*
X104000000Y-81800000D02*
X104000000Y-82330000D01*
X103950000Y-81750000D02*
X104000000Y-81800000D01*
X103420000Y-81750000D02*
X103950000Y-81750000D01*
X100000000Y-80690000D02*
X100000000Y-79670000D01*
X99340000Y-79670000D02*
X99070000Y-79400000D01*
X100000000Y-79670000D02*
X100220002Y-79449998D01*
X100220002Y-79449998D02*
X100450002Y-79449998D01*
X100800002Y-79449998D02*
X101050000Y-79200000D01*
D34*
X100750000Y-101000000D02*
X100750000Y-100350000D01*
D35*
X100750000Y-100150000D02*
X100220000Y-99620000D01*
X100750000Y-100350000D02*
X100750000Y-100150000D01*
X100530501Y-98130501D02*
X100130501Y-98130501D01*
X100600000Y-98200000D02*
X100530501Y-98130501D01*
D34*
X100750000Y-100350000D02*
X100900000Y-100200000D01*
X100900000Y-100200000D02*
X100900000Y-98468036D01*
X100900000Y-98468036D02*
X100631964Y-98200000D01*
D32*
X100450002Y-79449998D02*
X100800002Y-79449998D01*
X99300000Y-79900000D02*
X99340000Y-79670000D01*
X99300000Y-79600000D02*
X99300000Y-79900000D01*
X99930000Y-79600000D02*
X99300000Y-79600000D01*
X100000000Y-79670000D02*
X99930000Y-79600000D01*
D33*
X94625000Y-100125000D02*
X94625000Y-100250000D01*
X93700000Y-99200000D02*
X94625000Y-100125000D01*
X92130000Y-99200000D02*
X93700000Y-99200000D01*
X92000000Y-99070000D02*
X92130000Y-99200000D01*
X91400000Y-99070000D02*
X92000000Y-99070000D01*
X91060000Y-98730000D02*
X91400000Y-99070000D01*
X90200000Y-98730000D02*
X91060000Y-98730000D01*
X90200000Y-98730000D02*
X90200000Y-94400000D01*
X90200000Y-94400000D02*
X91130000Y-93470000D01*
X99330000Y-93470000D02*
X94400000Y-93470000D01*
X100777000Y-92023000D02*
X99330000Y-93470000D01*
X100800000Y-92023000D02*
X100777000Y-92023000D01*
X100750000Y-101000000D02*
X102400000Y-101000000D01*
X102400000Y-101000000D02*
X103100000Y-100300000D01*
X103100000Y-100300000D02*
X103100000Y-98200000D01*
X103100000Y-98200000D02*
X101200000Y-96300000D01*
X101200000Y-95340000D02*
X99330000Y-93470000D01*
X101200000Y-96300000D02*
X101200000Y-95340000D01*
D32*
X107250000Y-87550000D02*
X107800000Y-87000000D01*
X106400000Y-87550000D02*
X107250000Y-87550000D01*
X105900000Y-81470000D02*
X105200000Y-81470000D01*
X107800000Y-83370000D02*
X106865000Y-82435000D01*
X107800000Y-87000000D02*
X107800000Y-83370000D01*
X106215000Y-81785000D02*
X105900000Y-81470000D01*
X106865000Y-82435000D02*
X106215000Y-81785000D01*
X73760000Y-81700000D02*
X72060000Y-80000000D01*
D34*
X94300000Y-90400000D02*
X94400000Y-90500000D01*
X93300000Y-90400000D02*
X94300000Y-90400000D01*
X93200000Y-90300000D02*
X93300000Y-90400000D01*
X92425000Y-89700000D02*
X92200000Y-89700000D01*
X93125000Y-90400000D02*
X92425000Y-89700000D01*
X93200000Y-90400000D02*
X93125000Y-90400000D01*
X93200000Y-90330000D02*
X93200000Y-90400000D01*
D36*
X93070000Y-93130000D02*
X93100000Y-93100000D01*
X93070000Y-93470000D02*
X93070000Y-93130000D01*
D33*
X91130000Y-93470000D02*
X93070000Y-93470000D01*
X93070000Y-93470000D02*
X94400000Y-93470000D01*
D36*
X93100000Y-90230000D02*
X93200000Y-90330000D01*
X93100000Y-89800000D02*
X93100000Y-90230000D01*
D32*
X96000000Y-81700000D02*
X94000000Y-81700000D01*
X87250000Y-81750000D02*
X87250000Y-88975000D01*
X87200000Y-81700000D02*
X87250000Y-81750000D01*
X94000000Y-81700000D02*
X87200000Y-81700000D01*
X87200000Y-81700000D02*
X73760000Y-81700000D01*
X114250000Y-88850000D02*
X114250000Y-88975000D01*
X112400000Y-87000000D02*
X114250000Y-88850000D01*
X107800000Y-87000000D02*
X112400000Y-87000000D01*
D34*
X100750000Y-80690000D02*
X100750000Y-80292690D01*
X100750000Y-80292690D02*
X100892690Y-80150000D01*
X105200000Y-79900000D02*
X105200000Y-80530000D01*
D36*
X125930000Y-80530000D02*
X127940000Y-82540000D01*
X105200000Y-80530000D02*
X125930000Y-80530000D01*
D34*
X102300000Y-80690000D02*
X102310000Y-80690000D01*
X102490000Y-80870000D02*
X104200000Y-80870000D01*
X102310000Y-80690000D02*
X102490000Y-80870000D01*
D36*
X123860000Y-81000000D02*
X127940000Y-85080000D01*
X104780000Y-81000000D02*
X123860000Y-81000000D01*
X104650000Y-80870000D02*
X104780000Y-81000000D01*
X104200000Y-80870000D02*
X104650000Y-80870000D01*
D34*
X119180000Y-95150000D02*
X119200000Y-95130000D01*
X118000000Y-95150000D02*
X119180000Y-95150000D01*
X127830000Y-95130000D02*
X127940000Y-95240000D01*
X119200000Y-95130000D02*
X127830000Y-95130000D01*
X119180000Y-98650000D02*
X119200000Y-98630000D01*
X118000000Y-98650000D02*
X119180000Y-98650000D01*
X127090001Y-98629999D02*
X127940000Y-97780000D01*
X119200000Y-98630000D02*
X127090001Y-98629999D01*
D33*
X90200000Y-101200000D02*
X90200000Y-99670000D01*
X90200000Y-100220000D02*
X90200000Y-99670000D01*
X90230000Y-100250000D02*
X90200000Y-100220000D01*
X92975000Y-100250000D02*
X90230000Y-100250000D01*
D34*
X95220000Y-101500000D02*
X94700000Y-101500000D01*
X96200000Y-100070000D02*
X96200000Y-100520000D01*
X96200000Y-100520000D02*
X95220000Y-101500000D01*
X94275736Y-101500000D02*
X94700000Y-101500000D01*
X94200000Y-101500000D02*
X94275736Y-101500000D01*
X92975000Y-100275000D02*
X94200000Y-101500000D01*
X92975000Y-100250000D02*
X92975000Y-100275000D01*
X96120000Y-98150000D02*
X96200000Y-98070000D01*
X94625000Y-98150000D02*
X96120000Y-98150000D01*
X97260000Y-98070000D02*
X97330000Y-98000000D01*
X96200000Y-98070000D02*
X97260000Y-98070000D01*
X96200000Y-98070000D02*
X96200000Y-99130000D01*
X97400000Y-100280000D02*
X96250000Y-99130000D01*
X96250000Y-99130000D02*
X96200000Y-99130000D01*
X97400000Y-101800000D02*
X97400000Y-100280000D01*
D32*
X106970000Y-88800000D02*
X107700000Y-89530000D01*
X106750000Y-88800000D02*
X106970000Y-88800000D01*
X105180000Y-88730000D02*
X105250000Y-88800000D01*
X103050000Y-88730000D02*
X105180000Y-88730000D01*
X105180000Y-91270000D02*
X105250000Y-91200000D01*
X103050000Y-91270000D02*
X105180000Y-91270000D01*
D34*
X92415000Y-88515000D02*
X92200000Y-88730000D01*
X92415000Y-87600000D02*
X92415000Y-88515000D01*
X93385000Y-87920000D02*
X93385000Y-87600000D01*
X93765000Y-88300000D02*
X93385000Y-87920000D01*
X95020000Y-88300000D02*
X93765000Y-88300000D01*
X95450000Y-88730000D02*
X95020000Y-88300000D01*
X96950000Y-88730000D02*
X95450000Y-88730000D01*
D36*
X98130000Y-79450000D02*
X98130000Y-79400000D01*
X99250000Y-80570000D02*
X98130000Y-79450000D01*
X99250000Y-80690000D02*
X99250000Y-80570000D01*
D35*
X99800000Y-97800000D02*
X99869499Y-97869499D01*
X98647000Y-98000000D02*
X98847000Y-97800000D01*
X98270000Y-98000000D02*
X98647000Y-98000000D01*
X99400000Y-97800000D02*
X99800000Y-97800000D01*
X98847000Y-97800000D02*
X99400000Y-97800000D01*
X99400000Y-97800000D02*
X99299990Y-97800000D01*
X99780000Y-98720000D02*
X99900000Y-98600000D01*
X99780000Y-99180000D02*
X99780000Y-98720000D01*
D34*
X103500000Y-83270000D02*
X104000000Y-83270000D01*
X103050000Y-83720000D02*
X103500000Y-83270000D01*
X102010000Y-83720000D02*
X103050000Y-83720000D01*
X101550000Y-83260000D02*
X102010000Y-83720000D01*
X101550000Y-82810000D02*
X101550000Y-83260000D01*
D32*
X85750000Y-100050000D02*
X85750000Y-94025000D01*
X90000000Y-104300000D02*
X85750000Y-100050000D01*
X109100000Y-104300000D02*
X90000000Y-104300000D01*
X112750000Y-100650000D02*
X109100000Y-104300000D01*
X112750000Y-94025000D02*
X112750000Y-100650000D01*
X114650000Y-99600000D02*
X116000000Y-99600000D01*
X114650000Y-96100000D02*
X116000000Y-96100000D01*
G36*
X128869747Y-78442722D02*
G01*
X129033027Y-78492019D01*
X129183621Y-78572091D01*
X129315797Y-78679891D01*
X129424516Y-78811310D01*
X129505638Y-78961343D01*
X129557070Y-79127491D01*
X129575000Y-79275630D01*
X129575001Y-103689000D01*
X129557278Y-103869747D01*
X129507981Y-104033027D01*
X129427909Y-104183621D01*
X129320109Y-104315798D01*
X129188693Y-104424514D01*
X129038657Y-104505638D01*
X128872509Y-104557070D01*
X128724370Y-104575000D01*
X109673527Y-104575000D01*
X111143756Y-103104771D01*
X126714199Y-103104771D01*
X126784795Y-103337500D01*
X126900148Y-103553694D01*
X127055461Y-103743230D01*
X127244767Y-103898824D01*
X127460790Y-104014497D01*
X127695229Y-104085803D01*
X127890000Y-104009002D01*
X127890000Y-102910000D01*
X127990000Y-102910000D01*
X127990000Y-104009002D01*
X128184771Y-104085803D01*
X128419210Y-104014497D01*
X128635233Y-103898824D01*
X128824539Y-103743230D01*
X128979852Y-103553694D01*
X129095205Y-103337500D01*
X129165801Y-103104771D01*
X129088913Y-102910000D01*
X127990000Y-102910000D01*
X127890000Y-102910000D01*
X126791087Y-102910000D01*
X126714199Y-103104771D01*
X111143756Y-103104771D01*
X111633298Y-102615229D01*
X126714199Y-102615229D01*
X126791087Y-102810000D01*
X127890000Y-102810000D01*
X127890000Y-101710998D01*
X127990000Y-101710998D01*
X127990000Y-102810000D01*
X129088913Y-102810000D01*
X129165801Y-102615229D01*
X129095205Y-102382500D01*
X128979852Y-102166306D01*
X128824539Y-101976770D01*
X128635233Y-101821176D01*
X128419210Y-101705503D01*
X128184771Y-101634197D01*
X127990000Y-101710998D01*
X127890000Y-101710998D01*
X127695229Y-101634197D01*
X127460790Y-101705503D01*
X127244767Y-101821176D01*
X127055461Y-101976770D01*
X126900148Y-102166306D01*
X126784795Y-102382500D01*
X126714199Y-102615229D01*
X111633298Y-102615229D01*
X113153419Y-101095109D01*
X113176317Y-101076317D01*
X113251296Y-100984955D01*
X113269979Y-100950000D01*
X117148065Y-100950000D01*
X117155788Y-101028414D01*
X117178660Y-101103814D01*
X117215803Y-101173303D01*
X117265789Y-101234211D01*
X117326697Y-101284197D01*
X117396186Y-101321340D01*
X117471586Y-101344212D01*
X117550000Y-101351935D01*
X117850000Y-101350000D01*
X117950000Y-101250000D01*
X117950000Y-100600000D01*
X118050000Y-100600000D01*
X118050000Y-101250000D01*
X118150000Y-101350000D01*
X118450000Y-101351935D01*
X118528414Y-101344212D01*
X118603814Y-101321340D01*
X118673303Y-101284197D01*
X118734211Y-101234211D01*
X118784197Y-101173303D01*
X118821340Y-101103814D01*
X118844212Y-101028414D01*
X118851935Y-100950000D01*
X118850000Y-100700000D01*
X118750000Y-100600000D01*
X118050000Y-100600000D01*
X117950000Y-100600000D01*
X117250000Y-100600000D01*
X117150000Y-100700000D01*
X117148065Y-100950000D01*
X113269979Y-100950000D01*
X113307010Y-100880721D01*
X113327197Y-100814174D01*
X113341319Y-100767621D01*
X113352903Y-100650000D01*
X113350000Y-100620524D01*
X113350000Y-100562287D01*
X113384211Y-100534211D01*
X113434197Y-100473303D01*
X113471340Y-100403814D01*
X113494212Y-100328414D01*
X113501935Y-100250000D01*
X113501935Y-98950000D01*
X113898065Y-98950000D01*
X113898065Y-100250000D01*
X113905788Y-100328414D01*
X113928660Y-100403814D01*
X113965803Y-100473303D01*
X114015789Y-100534211D01*
X114076697Y-100584197D01*
X114146186Y-100621340D01*
X114221586Y-100644212D01*
X114300000Y-100651935D01*
X115000000Y-100651935D01*
X115078414Y-100644212D01*
X115153814Y-100621340D01*
X115223303Y-100584197D01*
X115284211Y-100534211D01*
X115334197Y-100473303D01*
X115371340Y-100403814D01*
X115383283Y-100364443D01*
X115396186Y-100371340D01*
X115471586Y-100394212D01*
X115550000Y-100401935D01*
X116450000Y-100401935D01*
X116528414Y-100394212D01*
X116603814Y-100371340D01*
X116673303Y-100334197D01*
X116734211Y-100284211D01*
X116784197Y-100223303D01*
X116821340Y-100153814D01*
X116822496Y-100150000D01*
X117148065Y-100150000D01*
X117150000Y-100400000D01*
X117250000Y-100500000D01*
X117950000Y-100500000D01*
X117950000Y-99850000D01*
X118050000Y-99850000D01*
X118050000Y-100500000D01*
X118750000Y-100500000D01*
X118850000Y-100400000D01*
X118851415Y-100217150D01*
X118900000Y-100221935D01*
X119050000Y-100220000D01*
X119150000Y-100120000D01*
X119150000Y-99620000D01*
X119250000Y-99620000D01*
X119250000Y-100120000D01*
X119350000Y-100220000D01*
X119500000Y-100221935D01*
X119578414Y-100214212D01*
X119635531Y-100196886D01*
X126690000Y-100196886D01*
X126690000Y-100443114D01*
X126738037Y-100684611D01*
X126832265Y-100912097D01*
X126969062Y-101116828D01*
X127143172Y-101290938D01*
X127347903Y-101427735D01*
X127575389Y-101521963D01*
X127816886Y-101570000D01*
X128063114Y-101570000D01*
X128304611Y-101521963D01*
X128532097Y-101427735D01*
X128736828Y-101290938D01*
X128910938Y-101116828D01*
X129047735Y-100912097D01*
X129141963Y-100684611D01*
X129190000Y-100443114D01*
X129190000Y-100196886D01*
X129141963Y-99955389D01*
X129047735Y-99727903D01*
X128910938Y-99523172D01*
X128736828Y-99349062D01*
X128532097Y-99212265D01*
X128304611Y-99118037D01*
X128063114Y-99070000D01*
X127816886Y-99070000D01*
X127575389Y-99118037D01*
X127347903Y-99212265D01*
X127143172Y-99349062D01*
X126969062Y-99523172D01*
X126832265Y-99727903D01*
X126738037Y-99955389D01*
X126690000Y-100196886D01*
X119635531Y-100196886D01*
X119653814Y-100191340D01*
X119723303Y-100154197D01*
X119784211Y-100104211D01*
X119834197Y-100043303D01*
X119871340Y-99973814D01*
X119894212Y-99898414D01*
X119901935Y-99820000D01*
X119900000Y-99720000D01*
X119800000Y-99620000D01*
X119250000Y-99620000D01*
X119150000Y-99620000D01*
X118600000Y-99620000D01*
X118500000Y-99720000D01*
X118499363Y-99752927D01*
X118450000Y-99748065D01*
X118150000Y-99750000D01*
X118050000Y-99850000D01*
X117950000Y-99850000D01*
X117850000Y-99750000D01*
X117550000Y-99748065D01*
X117471586Y-99755788D01*
X117396186Y-99778660D01*
X117326697Y-99815803D01*
X117265789Y-99865789D01*
X117215803Y-99926697D01*
X117178660Y-99996186D01*
X117155788Y-100071586D01*
X117148065Y-100150000D01*
X116822496Y-100150000D01*
X116844212Y-100078414D01*
X116851935Y-100000000D01*
X116851935Y-99200000D01*
X116844212Y-99121586D01*
X116821340Y-99046186D01*
X116784197Y-98976697D01*
X116734211Y-98915789D01*
X116673303Y-98865803D01*
X116603814Y-98828660D01*
X116528414Y-98805788D01*
X116450000Y-98798065D01*
X115550000Y-98798065D01*
X115471586Y-98805788D01*
X115396186Y-98828660D01*
X115383283Y-98835557D01*
X115371340Y-98796186D01*
X115334197Y-98726697D01*
X115284211Y-98665789D01*
X115223303Y-98615803D01*
X115153814Y-98578660D01*
X115078414Y-98555788D01*
X115000000Y-98548065D01*
X114300000Y-98548065D01*
X114221586Y-98555788D01*
X114146186Y-98578660D01*
X114076697Y-98615803D01*
X114015789Y-98665789D01*
X113965803Y-98726697D01*
X113928660Y-98796186D01*
X113905788Y-98871586D01*
X113898065Y-98950000D01*
X113501935Y-98950000D01*
X113494212Y-98871586D01*
X113471340Y-98796186D01*
X113434197Y-98726697D01*
X113384211Y-98665789D01*
X113350000Y-98637713D01*
X113350000Y-97450000D01*
X117148065Y-97450000D01*
X117155788Y-97528414D01*
X117178660Y-97603814D01*
X117215803Y-97673303D01*
X117265789Y-97734211D01*
X117326697Y-97784197D01*
X117396186Y-97821340D01*
X117471586Y-97844212D01*
X117530353Y-97850000D01*
X117471586Y-97855788D01*
X117396186Y-97878660D01*
X117326697Y-97915803D01*
X117265789Y-97965789D01*
X117215803Y-98026697D01*
X117178660Y-98096186D01*
X117155788Y-98171586D01*
X117148065Y-98250000D01*
X117148065Y-99050000D01*
X117155788Y-99128414D01*
X117178660Y-99203814D01*
X117215803Y-99273303D01*
X117265789Y-99334211D01*
X117326697Y-99384197D01*
X117396186Y-99421340D01*
X117471586Y-99444212D01*
X117550000Y-99451935D01*
X118450000Y-99451935D01*
X118524589Y-99444589D01*
X118600000Y-99520000D01*
X119150000Y-99520000D01*
X119150000Y-99500000D01*
X119250000Y-99500000D01*
X119250000Y-99520000D01*
X119800000Y-99520000D01*
X119900000Y-99420000D01*
X119901935Y-99320000D01*
X119894212Y-99241586D01*
X119871340Y-99166186D01*
X119851998Y-99130000D01*
X127065431Y-99129998D01*
X127090001Y-99132418D01*
X127188018Y-99122764D01*
X127282268Y-99094173D01*
X127300905Y-99084211D01*
X127369130Y-99047744D01*
X127445265Y-98985262D01*
X127460925Y-98966180D01*
X127483291Y-98943814D01*
X127575389Y-98981963D01*
X127816886Y-99030000D01*
X128063114Y-99030000D01*
X128304611Y-98981963D01*
X128532097Y-98887735D01*
X128736828Y-98750938D01*
X128910938Y-98576828D01*
X129047735Y-98372097D01*
X129141963Y-98144611D01*
X129190000Y-97903114D01*
X129190000Y-97656886D01*
X129141963Y-97415389D01*
X129047735Y-97187903D01*
X128910938Y-96983172D01*
X128736828Y-96809062D01*
X128532097Y-96672265D01*
X128304611Y-96578037D01*
X128063114Y-96530000D01*
X127816886Y-96530000D01*
X127575389Y-96578037D01*
X127347903Y-96672265D01*
X127143172Y-96809062D01*
X126969062Y-96983172D01*
X126832265Y-97187903D01*
X126738037Y-97415389D01*
X126690000Y-97656886D01*
X126690000Y-97903114D01*
X126735130Y-98129999D01*
X119812288Y-98130001D01*
X119784211Y-98095789D01*
X119723303Y-98045803D01*
X119653814Y-98008660D01*
X119578414Y-97985788D01*
X119500000Y-97978065D01*
X118900000Y-97978065D01*
X118821586Y-97985788D01*
X118764768Y-98003023D01*
X118734211Y-97965789D01*
X118673303Y-97915803D01*
X118603814Y-97878660D01*
X118528414Y-97855788D01*
X118469647Y-97850000D01*
X118528414Y-97844212D01*
X118603814Y-97821340D01*
X118673303Y-97784197D01*
X118734211Y-97734211D01*
X118784197Y-97673303D01*
X118821340Y-97603814D01*
X118844212Y-97528414D01*
X118851935Y-97450000D01*
X118850000Y-97200000D01*
X118750000Y-97100000D01*
X118050000Y-97100000D01*
X118050000Y-97120000D01*
X117950000Y-97120000D01*
X117950000Y-97100000D01*
X117250000Y-97100000D01*
X117150000Y-97200000D01*
X117148065Y-97450000D01*
X113350000Y-97450000D01*
X113350000Y-97062287D01*
X113384211Y-97034211D01*
X113434197Y-96973303D01*
X113471340Y-96903814D01*
X113494212Y-96828414D01*
X113501935Y-96750000D01*
X113501935Y-95450000D01*
X113898065Y-95450000D01*
X113898065Y-96750000D01*
X113905788Y-96828414D01*
X113928660Y-96903814D01*
X113965803Y-96973303D01*
X114015789Y-97034211D01*
X114076697Y-97084197D01*
X114146186Y-97121340D01*
X114221586Y-97144212D01*
X114300000Y-97151935D01*
X115000000Y-97151935D01*
X115078414Y-97144212D01*
X115153814Y-97121340D01*
X115223303Y-97084197D01*
X115284211Y-97034211D01*
X115334197Y-96973303D01*
X115371340Y-96903814D01*
X115383283Y-96864443D01*
X115396186Y-96871340D01*
X115471586Y-96894212D01*
X115550000Y-96901935D01*
X116450000Y-96901935D01*
X116528414Y-96894212D01*
X116603814Y-96871340D01*
X116673303Y-96834197D01*
X116734211Y-96784211D01*
X116784197Y-96723303D01*
X116821340Y-96653814D01*
X116822496Y-96650000D01*
X117148065Y-96650000D01*
X117150000Y-96900000D01*
X117250000Y-97000000D01*
X117950000Y-97000000D01*
X117950000Y-96350000D01*
X118050000Y-96350000D01*
X118050000Y-97000000D01*
X118750000Y-97000000D01*
X118850000Y-96900000D01*
X118851415Y-96717150D01*
X118900000Y-96721935D01*
X119050000Y-96720000D01*
X119150000Y-96620000D01*
X119150000Y-96120000D01*
X119250000Y-96120000D01*
X119250000Y-96620000D01*
X119350000Y-96720000D01*
X119500000Y-96721935D01*
X119578414Y-96714212D01*
X119653814Y-96691340D01*
X119723303Y-96654197D01*
X119784211Y-96604211D01*
X119834197Y-96543303D01*
X119871340Y-96473814D01*
X119894212Y-96398414D01*
X119901935Y-96320000D01*
X119900000Y-96220000D01*
X119800000Y-96120000D01*
X119250000Y-96120000D01*
X119150000Y-96120000D01*
X118600000Y-96120000D01*
X118500000Y-96220000D01*
X118499363Y-96252927D01*
X118450000Y-96248065D01*
X118150000Y-96250000D01*
X118050000Y-96350000D01*
X117950000Y-96350000D01*
X117850000Y-96250000D01*
X117550000Y-96248065D01*
X117471586Y-96255788D01*
X117396186Y-96278660D01*
X117326697Y-96315803D01*
X117265789Y-96365789D01*
X117215803Y-96426697D01*
X117178660Y-96496186D01*
X117155788Y-96571586D01*
X117148065Y-96650000D01*
X116822496Y-96650000D01*
X116844212Y-96578414D01*
X116851935Y-96500000D01*
X116851935Y-95700000D01*
X116844212Y-95621586D01*
X116821340Y-95546186D01*
X116784197Y-95476697D01*
X116734211Y-95415789D01*
X116673303Y-95365803D01*
X116603814Y-95328660D01*
X116528414Y-95305788D01*
X116450000Y-95298065D01*
X115550000Y-95298065D01*
X115471586Y-95305788D01*
X115396186Y-95328660D01*
X115383283Y-95335557D01*
X115371340Y-95296186D01*
X115334197Y-95226697D01*
X115284211Y-95165789D01*
X115223303Y-95115803D01*
X115153814Y-95078660D01*
X115078414Y-95055788D01*
X115000000Y-95048065D01*
X114300000Y-95048065D01*
X114221586Y-95055788D01*
X114146186Y-95078660D01*
X114076697Y-95115803D01*
X114015789Y-95165789D01*
X113965803Y-95226697D01*
X113928660Y-95296186D01*
X113905788Y-95371586D01*
X113898065Y-95450000D01*
X113501935Y-95450000D01*
X113494212Y-95371586D01*
X113471340Y-95296186D01*
X113434197Y-95226697D01*
X113384211Y-95165789D01*
X113350000Y-95137713D01*
X113350000Y-94897010D01*
X113378414Y-94894212D01*
X113453814Y-94871340D01*
X113500000Y-94846653D01*
X113546186Y-94871340D01*
X113621586Y-94894212D01*
X113700000Y-94901935D01*
X114800000Y-94901935D01*
X114878414Y-94894212D01*
X114953814Y-94871340D01*
X115023303Y-94834197D01*
X115084211Y-94784211D01*
X115112287Y-94750000D01*
X117148065Y-94750000D01*
X117148065Y-95550000D01*
X117155788Y-95628414D01*
X117178660Y-95703814D01*
X117215803Y-95773303D01*
X117265789Y-95834211D01*
X117326697Y-95884197D01*
X117396186Y-95921340D01*
X117471586Y-95944212D01*
X117550000Y-95951935D01*
X118450000Y-95951935D01*
X118524589Y-95944589D01*
X118600000Y-96020000D01*
X119150000Y-96020000D01*
X119150000Y-96000000D01*
X119250000Y-96000000D01*
X119250000Y-96020000D01*
X119800000Y-96020000D01*
X119900000Y-95920000D01*
X119901935Y-95820000D01*
X119894212Y-95741586D01*
X119871340Y-95666186D01*
X119851998Y-95630000D01*
X126748553Y-95630000D01*
X126832265Y-95832097D01*
X126969062Y-96036828D01*
X127143172Y-96210938D01*
X127347903Y-96347735D01*
X127575389Y-96441963D01*
X127816886Y-96490000D01*
X128063114Y-96490000D01*
X128304611Y-96441963D01*
X128532097Y-96347735D01*
X128736828Y-96210938D01*
X128910938Y-96036828D01*
X129047735Y-95832097D01*
X129141963Y-95604611D01*
X129190000Y-95363114D01*
X129190000Y-95116886D01*
X129141963Y-94875389D01*
X129047735Y-94647903D01*
X128910938Y-94443172D01*
X128736828Y-94269062D01*
X128532097Y-94132265D01*
X128304611Y-94038037D01*
X128063114Y-93990000D01*
X127816886Y-93990000D01*
X127575389Y-94038037D01*
X127347903Y-94132265D01*
X127143172Y-94269062D01*
X126969062Y-94443172D01*
X126844227Y-94630000D01*
X119812287Y-94630000D01*
X119784211Y-94595789D01*
X119723303Y-94545803D01*
X119653814Y-94508660D01*
X119578414Y-94485788D01*
X119500000Y-94478065D01*
X118900000Y-94478065D01*
X118821586Y-94485788D01*
X118764768Y-94503023D01*
X118734211Y-94465789D01*
X118673303Y-94415803D01*
X118603814Y-94378660D01*
X118528414Y-94355788D01*
X118450000Y-94348065D01*
X117550000Y-94348065D01*
X117471586Y-94355788D01*
X117396186Y-94378660D01*
X117326697Y-94415803D01*
X117265789Y-94465789D01*
X117215803Y-94526697D01*
X117178660Y-94596186D01*
X117155788Y-94671586D01*
X117148065Y-94750000D01*
X115112287Y-94750000D01*
X115134197Y-94723303D01*
X115171340Y-94653814D01*
X115194212Y-94578414D01*
X115201935Y-94500000D01*
X115201935Y-93550000D01*
X115194212Y-93471586D01*
X115171340Y-93396186D01*
X115134197Y-93326697D01*
X115084211Y-93265789D01*
X115023303Y-93215803D01*
X114953814Y-93178660D01*
X114878414Y-93155788D01*
X114800000Y-93148065D01*
X113700000Y-93148065D01*
X113621586Y-93155788D01*
X113546186Y-93178660D01*
X113500000Y-93203347D01*
X113453814Y-93178660D01*
X113378414Y-93155788D01*
X113300000Y-93148065D01*
X112200000Y-93148065D01*
X112121586Y-93155788D01*
X112046186Y-93178660D01*
X111976697Y-93215803D01*
X111915789Y-93265789D01*
X111865803Y-93326697D01*
X111828660Y-93396186D01*
X111805788Y-93471586D01*
X111798065Y-93550000D01*
X111798065Y-94500000D01*
X111805788Y-94578414D01*
X111828660Y-94653814D01*
X111865803Y-94723303D01*
X111915789Y-94784211D01*
X111976697Y-94834197D01*
X112046186Y-94871340D01*
X112121586Y-94894212D01*
X112150000Y-94897011D01*
X112150000Y-95137713D01*
X112115789Y-95165789D01*
X112065803Y-95226697D01*
X112028660Y-95296186D01*
X112005788Y-95371586D01*
X111998065Y-95450000D01*
X111998065Y-96750000D01*
X112005788Y-96828414D01*
X112028660Y-96903814D01*
X112065803Y-96973303D01*
X112115789Y-97034211D01*
X112150000Y-97062288D01*
X112150001Y-98637712D01*
X112115789Y-98665789D01*
X112065803Y-98726697D01*
X112028660Y-98796186D01*
X112005788Y-98871586D01*
X111998065Y-98950000D01*
X111998065Y-100250000D01*
X112005788Y-100328414D01*
X112028660Y-100403814D01*
X112065803Y-100473303D01*
X112071377Y-100480095D01*
X108851473Y-103700000D01*
X90248528Y-103700000D01*
X86350000Y-99801473D01*
X86350000Y-94897010D01*
X86378414Y-94894212D01*
X86453814Y-94871340D01*
X86500000Y-94846653D01*
X86546186Y-94871340D01*
X86621586Y-94894212D01*
X86700000Y-94901935D01*
X87800000Y-94901935D01*
X87878414Y-94894212D01*
X87953814Y-94871340D01*
X88023303Y-94834197D01*
X88084211Y-94784211D01*
X88134197Y-94723303D01*
X88171340Y-94653814D01*
X88194212Y-94578414D01*
X88201935Y-94500000D01*
X88201935Y-93752012D01*
X90070171Y-93752012D01*
X89830191Y-93991992D01*
X89809211Y-94009210D01*
X89791993Y-94030190D01*
X89791987Y-94030196D01*
X89740479Y-94092958D01*
X89719470Y-94132265D01*
X89689409Y-94188506D01*
X89657959Y-94292181D01*
X89656619Y-94305788D01*
X89647340Y-94400000D01*
X89650001Y-94427018D01*
X89650000Y-98167713D01*
X89615789Y-98195789D01*
X89565803Y-98256697D01*
X89528660Y-98326186D01*
X89505788Y-98401586D01*
X89498065Y-98480000D01*
X89498065Y-98980000D01*
X89505788Y-99058414D01*
X89528660Y-99133814D01*
X89564037Y-99200000D01*
X89528660Y-99266186D01*
X89505788Y-99341586D01*
X89498065Y-99420000D01*
X89498065Y-99920000D01*
X89505788Y-99998414D01*
X89528660Y-100073814D01*
X89565803Y-100143303D01*
X89615789Y-100204211D01*
X89648423Y-100230993D01*
X89650000Y-100247008D01*
X89650000Y-100247017D01*
X89650001Y-100247023D01*
X89650001Y-100302989D01*
X89621586Y-100305788D01*
X89546186Y-100328660D01*
X89476697Y-100365803D01*
X89415789Y-100415789D01*
X89365803Y-100476697D01*
X89328660Y-100546186D01*
X89305788Y-100621586D01*
X89298065Y-100700000D01*
X89298065Y-101700000D01*
X89305788Y-101778414D01*
X89328660Y-101853814D01*
X89365803Y-101923303D01*
X89415789Y-101984211D01*
X89476697Y-102034197D01*
X89546186Y-102071340D01*
X89621586Y-102094212D01*
X89700000Y-102101935D01*
X90700000Y-102101935D01*
X90778414Y-102094212D01*
X90853814Y-102071340D01*
X90923303Y-102034197D01*
X90984211Y-101984211D01*
X91034197Y-101923303D01*
X91071340Y-101853814D01*
X91094212Y-101778414D01*
X91101935Y-101700000D01*
X91101935Y-100800000D01*
X92023065Y-100800000D01*
X92023065Y-100900000D01*
X92030788Y-100978414D01*
X92053660Y-101053814D01*
X92090803Y-101123303D01*
X92140789Y-101184211D01*
X92201697Y-101234197D01*
X92271186Y-101271340D01*
X92346586Y-101294212D01*
X92425000Y-101301935D01*
X93294829Y-101301935D01*
X93829080Y-101836187D01*
X93844736Y-101855264D01*
X93920871Y-101917746D01*
X94007733Y-101964175D01*
X94100338Y-101992266D01*
X94101983Y-101992765D01*
X94200000Y-102002419D01*
X94211351Y-102001301D01*
X94253776Y-102043726D01*
X94368426Y-102120332D01*
X94495818Y-102173099D01*
X94631056Y-102200000D01*
X94768944Y-102200000D01*
X94904182Y-102173099D01*
X95031574Y-102120332D01*
X95146224Y-102043726D01*
X95189950Y-102000000D01*
X95195440Y-102000000D01*
X95220000Y-102002419D01*
X95244560Y-102000000D01*
X95318017Y-101992765D01*
X95412267Y-101964175D01*
X95499129Y-101917746D01*
X95575264Y-101855264D01*
X95590929Y-101836176D01*
X96536187Y-100890920D01*
X96555264Y-100875264D01*
X96617746Y-100799129D01*
X96664175Y-100712267D01*
X96673757Y-100680680D01*
X96723303Y-100654197D01*
X96784211Y-100604211D01*
X96834197Y-100543303D01*
X96871340Y-100473814D01*
X96874917Y-100462023D01*
X96900001Y-100487108D01*
X96900001Y-100898065D01*
X96900000Y-100898065D01*
X96821586Y-100905788D01*
X96746186Y-100928660D01*
X96676697Y-100965803D01*
X96615789Y-101015789D01*
X96565803Y-101076697D01*
X96528660Y-101146186D01*
X96505788Y-101221586D01*
X96498065Y-101300000D01*
X96498065Y-102300000D01*
X96505788Y-102378414D01*
X96528660Y-102453814D01*
X96565803Y-102523303D01*
X96615789Y-102584211D01*
X96676697Y-102634197D01*
X96746186Y-102671340D01*
X96821586Y-102694212D01*
X96900000Y-102701935D01*
X97900000Y-102701935D01*
X97978414Y-102694212D01*
X98053814Y-102671340D01*
X98123303Y-102634197D01*
X98184211Y-102584211D01*
X98234197Y-102523303D01*
X98271340Y-102453814D01*
X98294212Y-102378414D01*
X98301935Y-102300000D01*
X98301935Y-101450000D01*
X98548065Y-101450000D01*
X98555788Y-101528414D01*
X98578660Y-101603814D01*
X98615803Y-101673303D01*
X98665789Y-101734211D01*
X98726697Y-101784197D01*
X98796186Y-101821340D01*
X98871586Y-101844212D01*
X98950000Y-101851935D01*
X99100000Y-101850000D01*
X99200000Y-101750000D01*
X99200000Y-101050000D01*
X99300000Y-101050000D01*
X99300000Y-101750000D01*
X99400000Y-101850000D01*
X99550000Y-101851935D01*
X99628414Y-101844212D01*
X99703814Y-101821340D01*
X99773303Y-101784197D01*
X99834211Y-101734211D01*
X99884197Y-101673303D01*
X99921340Y-101603814D01*
X99944212Y-101528414D01*
X99951935Y-101450000D01*
X99950000Y-101150000D01*
X99850000Y-101050000D01*
X99300000Y-101050000D01*
X99200000Y-101050000D01*
X98650000Y-101050000D01*
X98550000Y-101150000D01*
X98548065Y-101450000D01*
X98301935Y-101450000D01*
X98301935Y-101300000D01*
X98294212Y-101221586D01*
X98271340Y-101146186D01*
X98234197Y-101076697D01*
X98184211Y-101015789D01*
X98123303Y-100965803D01*
X98053814Y-100928660D01*
X97978414Y-100905788D01*
X97900000Y-100898065D01*
X97900000Y-100338983D01*
X97907374Y-100340450D01*
X98092626Y-100340450D01*
X98274319Y-100304309D01*
X98445470Y-100233416D01*
X98599502Y-100130495D01*
X98730495Y-99999502D01*
X98800000Y-99895481D01*
X98800000Y-100000000D01*
X98803843Y-100039018D01*
X98815224Y-100076537D01*
X98833706Y-100111114D01*
X98858579Y-100141421D01*
X98875603Y-100155392D01*
X98871586Y-100155788D01*
X98796186Y-100178660D01*
X98726697Y-100215803D01*
X98665789Y-100265789D01*
X98615803Y-100326697D01*
X98578660Y-100396186D01*
X98555788Y-100471586D01*
X98548065Y-100550000D01*
X98550000Y-100850000D01*
X98650000Y-100950000D01*
X99200000Y-100950000D01*
X99200000Y-100930000D01*
X99300000Y-100930000D01*
X99300000Y-100950000D01*
X99850000Y-100950000D01*
X99950000Y-100850000D01*
X99951935Y-100550000D01*
X99944212Y-100471586D01*
X99921340Y-100396186D01*
X99884197Y-100326697D01*
X99834211Y-100265789D01*
X99773303Y-100215803D01*
X99743738Y-100200000D01*
X100144513Y-100200000D01*
X100190237Y-100245725D01*
X100165789Y-100265789D01*
X100115803Y-100326697D01*
X100078660Y-100396186D01*
X100055788Y-100471586D01*
X100048065Y-100550000D01*
X100048065Y-101450000D01*
X100055788Y-101528414D01*
X100078660Y-101603814D01*
X100115803Y-101673303D01*
X100165789Y-101734211D01*
X100226697Y-101784197D01*
X100296186Y-101821340D01*
X100371586Y-101844212D01*
X100450000Y-101851935D01*
X101050000Y-101851935D01*
X101128414Y-101844212D01*
X101203814Y-101821340D01*
X101273303Y-101784197D01*
X101334211Y-101734211D01*
X101384197Y-101673303D01*
X101421340Y-101603814D01*
X101437664Y-101550000D01*
X102372992Y-101550000D01*
X102400000Y-101552660D01*
X102427008Y-101550000D01*
X102427018Y-101550000D01*
X102507819Y-101542042D01*
X102611494Y-101510592D01*
X102707042Y-101459521D01*
X102790790Y-101390790D01*
X102808013Y-101369804D01*
X103469804Y-100708013D01*
X103490790Y-100690790D01*
X103559521Y-100607042D01*
X103610592Y-100511494D01*
X103642042Y-100407819D01*
X103650000Y-100327018D01*
X103650000Y-100327009D01*
X103652660Y-100300001D01*
X103650000Y-100272993D01*
X103650000Y-98227011D01*
X103652660Y-98200000D01*
X103650000Y-98172989D01*
X103650000Y-98172982D01*
X103642042Y-98092181D01*
X103638347Y-98080000D01*
X103610592Y-97988505D01*
X103559521Y-97892958D01*
X103508013Y-97830196D01*
X103490790Y-97809210D01*
X103469804Y-97791987D01*
X101979752Y-96301935D01*
X104350000Y-96301935D01*
X104428414Y-96294212D01*
X104503814Y-96271340D01*
X104573303Y-96234197D01*
X104634211Y-96184211D01*
X104684197Y-96123303D01*
X104721340Y-96053814D01*
X104744212Y-95978414D01*
X104751935Y-95900000D01*
X104751935Y-95100000D01*
X104744212Y-95021586D01*
X104721340Y-94946186D01*
X104684197Y-94876697D01*
X104634211Y-94815789D01*
X104573303Y-94765803D01*
X104503814Y-94728660D01*
X104428414Y-94705788D01*
X104350000Y-94698065D01*
X101710000Y-94698065D01*
X101631586Y-94705788D01*
X101556186Y-94728660D01*
X101486697Y-94765803D01*
X101441068Y-94803250D01*
X100557818Y-93920000D01*
X104698065Y-93920000D01*
X104705788Y-93998414D01*
X104728660Y-94073814D01*
X104765803Y-94143303D01*
X104815789Y-94204211D01*
X104876697Y-94254197D01*
X104946186Y-94291340D01*
X105021586Y-94314212D01*
X105100000Y-94321935D01*
X105250000Y-94320000D01*
X105350000Y-94220000D01*
X105350000Y-93720000D01*
X105450000Y-93720000D01*
X105450000Y-94220000D01*
X105550000Y-94320000D01*
X105700000Y-94321935D01*
X105778414Y-94314212D01*
X105853814Y-94291340D01*
X105923303Y-94254197D01*
X105984211Y-94204211D01*
X106034197Y-94143303D01*
X106071340Y-94073814D01*
X106094212Y-93998414D01*
X106101935Y-93920000D01*
X106100000Y-93820000D01*
X106000000Y-93720000D01*
X105450000Y-93720000D01*
X105350000Y-93720000D01*
X104800000Y-93720000D01*
X104700000Y-93820000D01*
X104698065Y-93920000D01*
X100557818Y-93920000D01*
X100107817Y-93470000D01*
X100753145Y-92824673D01*
X100904895Y-92976424D01*
X100923683Y-92999317D01*
X101015045Y-93074296D01*
X101119279Y-93130010D01*
X101189596Y-93151340D01*
X101232378Y-93164318D01*
X101243640Y-93165427D01*
X101320526Y-93173000D01*
X101320533Y-93173000D01*
X101349999Y-93175902D01*
X101379465Y-93173000D01*
X101437713Y-93173000D01*
X101465789Y-93207211D01*
X101526697Y-93257197D01*
X101596186Y-93294340D01*
X101671586Y-93317212D01*
X101750000Y-93324935D01*
X104350000Y-93324935D01*
X104428414Y-93317212D01*
X104503814Y-93294340D01*
X104573303Y-93257197D01*
X104634211Y-93207211D01*
X104662287Y-93173000D01*
X104749606Y-93173000D01*
X104764037Y-93200000D01*
X104728660Y-93266186D01*
X104705788Y-93341586D01*
X104698065Y-93420000D01*
X104700000Y-93520000D01*
X104800000Y-93620000D01*
X105350000Y-93620000D01*
X105350000Y-93600000D01*
X105450000Y-93600000D01*
X105450000Y-93620000D01*
X106000000Y-93620000D01*
X106100000Y-93520000D01*
X106101935Y-93420000D01*
X106094212Y-93341586D01*
X106071340Y-93266186D01*
X106035963Y-93200000D01*
X106071340Y-93133814D01*
X106094212Y-93058414D01*
X106101935Y-92980000D01*
X106101935Y-92480000D01*
X106094212Y-92401586D01*
X106071340Y-92326186D01*
X106034197Y-92256697D01*
X105984211Y-92195789D01*
X105923303Y-92145803D01*
X105853814Y-92108660D01*
X105778414Y-92085788D01*
X105700000Y-92078065D01*
X105585706Y-92078065D01*
X105577955Y-92071704D01*
X105540970Y-92051935D01*
X105550000Y-92051935D01*
X105628414Y-92044212D01*
X105703814Y-92021340D01*
X105773303Y-91984197D01*
X105834211Y-91934211D01*
X105884197Y-91873303D01*
X105921340Y-91803814D01*
X105944212Y-91728414D01*
X105951935Y-91650000D01*
X106048065Y-91650000D01*
X106055788Y-91728414D01*
X106078660Y-91803814D01*
X106115803Y-91873303D01*
X106165789Y-91934211D01*
X106226697Y-91984197D01*
X106296186Y-92021340D01*
X106371586Y-92044212D01*
X106450000Y-92051935D01*
X106600000Y-92050000D01*
X106700000Y-91950000D01*
X106700000Y-91250000D01*
X106800000Y-91250000D01*
X106800000Y-91950000D01*
X106900000Y-92050000D01*
X107050000Y-92051935D01*
X107128414Y-92044212D01*
X107203814Y-92021340D01*
X107273303Y-91984197D01*
X107334211Y-91934211D01*
X107384197Y-91873303D01*
X107421340Y-91803814D01*
X107444212Y-91728414D01*
X107451935Y-91650000D01*
X107450000Y-91350000D01*
X107350000Y-91250000D01*
X106800000Y-91250000D01*
X106700000Y-91250000D01*
X106150000Y-91250000D01*
X106050000Y-91350000D01*
X106048065Y-91650000D01*
X105951935Y-91650000D01*
X105951935Y-90750000D01*
X106048065Y-90750000D01*
X106050000Y-91050000D01*
X106150000Y-91150000D01*
X106700000Y-91150000D01*
X106700000Y-90450000D01*
X106600000Y-90350000D01*
X106450000Y-90348065D01*
X106371586Y-90355788D01*
X106296186Y-90378660D01*
X106226697Y-90415803D01*
X106165789Y-90465789D01*
X106115803Y-90526697D01*
X106078660Y-90596186D01*
X106055788Y-90671586D01*
X106048065Y-90750000D01*
X105951935Y-90750000D01*
X105944212Y-90671586D01*
X105921340Y-90596186D01*
X105884197Y-90526697D01*
X105834211Y-90465789D01*
X105773303Y-90415803D01*
X105703814Y-90378660D01*
X105628414Y-90355788D01*
X105550000Y-90348065D01*
X104950000Y-90348065D01*
X104871586Y-90355788D01*
X104796186Y-90378660D01*
X104746496Y-90405220D01*
X104751935Y-90350000D01*
X104751935Y-89650000D01*
X104746496Y-89594780D01*
X104796186Y-89621340D01*
X104871586Y-89644212D01*
X104950000Y-89651935D01*
X105550000Y-89651935D01*
X105628414Y-89644212D01*
X105703814Y-89621340D01*
X105773303Y-89584197D01*
X105834211Y-89534211D01*
X105884197Y-89473303D01*
X105921340Y-89403814D01*
X105944212Y-89328414D01*
X105951935Y-89250000D01*
X105951935Y-88350000D01*
X105944212Y-88271586D01*
X105937889Y-88250742D01*
X105950000Y-88251935D01*
X106061749Y-88251935D01*
X106055788Y-88271586D01*
X106048065Y-88350000D01*
X106048065Y-89250000D01*
X106055788Y-89328414D01*
X106078660Y-89403814D01*
X106115803Y-89473303D01*
X106165789Y-89534211D01*
X106226697Y-89584197D01*
X106296186Y-89621340D01*
X106371586Y-89644212D01*
X106450000Y-89651935D01*
X106973407Y-89651935D01*
X106998065Y-89676593D01*
X106998065Y-89780000D01*
X107005788Y-89858414D01*
X107028660Y-89933814D01*
X107064037Y-90000000D01*
X107028660Y-90066186D01*
X107005788Y-90141586D01*
X106998065Y-90220000D01*
X107000000Y-90320000D01*
X107028344Y-90348344D01*
X106900000Y-90350000D01*
X106800000Y-90450000D01*
X106800000Y-91150000D01*
X107350000Y-91150000D01*
X107380032Y-91119968D01*
X107400000Y-91121935D01*
X107550000Y-91120000D01*
X107650000Y-91020000D01*
X107650000Y-90520000D01*
X107750000Y-90520000D01*
X107750000Y-91020000D01*
X107850000Y-91120000D01*
X108000000Y-91121935D01*
X108078414Y-91114212D01*
X108153814Y-91091340D01*
X108223303Y-91054197D01*
X108284211Y-91004211D01*
X108334197Y-90943303D01*
X108371340Y-90873814D01*
X108394212Y-90798414D01*
X108401935Y-90720000D01*
X108400000Y-90620000D01*
X108300000Y-90520000D01*
X107750000Y-90520000D01*
X107650000Y-90520000D01*
X107630000Y-90520000D01*
X107630000Y-90420000D01*
X107650000Y-90420000D01*
X107650000Y-90400000D01*
X107750000Y-90400000D01*
X107750000Y-90420000D01*
X108300000Y-90420000D01*
X108400000Y-90320000D01*
X108400387Y-90300000D01*
X112398065Y-90300000D01*
X112398065Y-92700000D01*
X112405788Y-92778414D01*
X112428660Y-92853814D01*
X112465803Y-92923303D01*
X112515789Y-92984211D01*
X112576697Y-93034197D01*
X112646186Y-93071340D01*
X112721586Y-93094212D01*
X112800000Y-93101935D01*
X114200000Y-93101935D01*
X114278414Y-93094212D01*
X114353814Y-93071340D01*
X114423303Y-93034197D01*
X114484211Y-92984211D01*
X114534197Y-92923303D01*
X114571340Y-92853814D01*
X114594212Y-92778414D01*
X114601935Y-92700000D01*
X114601935Y-92576886D01*
X126690000Y-92576886D01*
X126690000Y-92823114D01*
X126738037Y-93064611D01*
X126832265Y-93292097D01*
X126969062Y-93496828D01*
X127143172Y-93670938D01*
X127347903Y-93807735D01*
X127575389Y-93901963D01*
X127816886Y-93950000D01*
X128063114Y-93950000D01*
X128304611Y-93901963D01*
X128532097Y-93807735D01*
X128736828Y-93670938D01*
X128910938Y-93496828D01*
X129047735Y-93292097D01*
X129141963Y-93064611D01*
X129190000Y-92823114D01*
X129190000Y-92576886D01*
X129141963Y-92335389D01*
X129047735Y-92107903D01*
X128910938Y-91903172D01*
X128736828Y-91729062D01*
X128532097Y-91592265D01*
X128304611Y-91498037D01*
X128063114Y-91450000D01*
X127816886Y-91450000D01*
X127575389Y-91498037D01*
X127347903Y-91592265D01*
X127143172Y-91729062D01*
X126969062Y-91903172D01*
X126832265Y-92107903D01*
X126738037Y-92335389D01*
X126690000Y-92576886D01*
X114601935Y-92576886D01*
X114601935Y-90300000D01*
X114594212Y-90221586D01*
X114571340Y-90146186D01*
X114534197Y-90076697D01*
X114501525Y-90036886D01*
X126690000Y-90036886D01*
X126690000Y-90283114D01*
X126738037Y-90524611D01*
X126832265Y-90752097D01*
X126969062Y-90956828D01*
X127143172Y-91130938D01*
X127347903Y-91267735D01*
X127575389Y-91361963D01*
X127816886Y-91410000D01*
X128063114Y-91410000D01*
X128304611Y-91361963D01*
X128532097Y-91267735D01*
X128736828Y-91130938D01*
X128910938Y-90956828D01*
X129047735Y-90752097D01*
X129141963Y-90524611D01*
X129190000Y-90283114D01*
X129190000Y-90036886D01*
X129141963Y-89795389D01*
X129047735Y-89567903D01*
X128910938Y-89363172D01*
X128736828Y-89189062D01*
X128532097Y-89052265D01*
X128304611Y-88958037D01*
X128063114Y-88910000D01*
X127816886Y-88910000D01*
X127575389Y-88958037D01*
X127347903Y-89052265D01*
X127143172Y-89189062D01*
X126969062Y-89363172D01*
X126832265Y-89567903D01*
X126738037Y-89795389D01*
X126690000Y-90036886D01*
X114501525Y-90036886D01*
X114484211Y-90015789D01*
X114423303Y-89965803D01*
X114353814Y-89928660D01*
X114278414Y-89905788D01*
X114200000Y-89898065D01*
X112800000Y-89898065D01*
X112721586Y-89905788D01*
X112646186Y-89928660D01*
X112576697Y-89965803D01*
X112515789Y-90015789D01*
X112465803Y-90076697D01*
X112428660Y-90146186D01*
X112405788Y-90221586D01*
X112398065Y-90300000D01*
X108400387Y-90300000D01*
X108401935Y-90220000D01*
X108394212Y-90141586D01*
X108371340Y-90066186D01*
X108335963Y-90000000D01*
X108371340Y-89933814D01*
X108394212Y-89858414D01*
X108401935Y-89780000D01*
X108401935Y-89280000D01*
X108394212Y-89201586D01*
X108371340Y-89126186D01*
X108334197Y-89056697D01*
X108284211Y-88995789D01*
X108223303Y-88945803D01*
X108153814Y-88908660D01*
X108078414Y-88885788D01*
X108000000Y-88878065D01*
X107896593Y-88878065D01*
X107451935Y-88433408D01*
X107451935Y-88350000D01*
X107444212Y-88271586D01*
X107421340Y-88196186D01*
X107388609Y-88134951D01*
X107480721Y-88107010D01*
X107584955Y-88051296D01*
X107676317Y-87976317D01*
X107695113Y-87953415D01*
X108048528Y-87600000D01*
X112151473Y-87600000D01*
X112649538Y-88098065D01*
X112200000Y-88098065D01*
X112121586Y-88105788D01*
X112046186Y-88128660D01*
X111976697Y-88165803D01*
X111915789Y-88215789D01*
X111865803Y-88276697D01*
X111828660Y-88346186D01*
X111805788Y-88421586D01*
X111798065Y-88500000D01*
X111798065Y-89450000D01*
X111805788Y-89528414D01*
X111828660Y-89603814D01*
X111865803Y-89673303D01*
X111915789Y-89734211D01*
X111976697Y-89784197D01*
X112046186Y-89821340D01*
X112121586Y-89844212D01*
X112200000Y-89851935D01*
X113300000Y-89851935D01*
X113378414Y-89844212D01*
X113453814Y-89821340D01*
X113500000Y-89796653D01*
X113546186Y-89821340D01*
X113621586Y-89844212D01*
X113700000Y-89851935D01*
X114800000Y-89851935D01*
X114878414Y-89844212D01*
X114953814Y-89821340D01*
X115023303Y-89784197D01*
X115084211Y-89734211D01*
X115134197Y-89673303D01*
X115171340Y-89603814D01*
X115194212Y-89528414D01*
X115201935Y-89450000D01*
X115201935Y-88500000D01*
X115194212Y-88421586D01*
X115171340Y-88346186D01*
X115134197Y-88276697D01*
X115084211Y-88215789D01*
X115023303Y-88165803D01*
X114953814Y-88128660D01*
X114878414Y-88105788D01*
X114800000Y-88098065D01*
X114346593Y-88098065D01*
X113745414Y-87496886D01*
X126690000Y-87496886D01*
X126690000Y-87743114D01*
X126738037Y-87984611D01*
X126832265Y-88212097D01*
X126969062Y-88416828D01*
X127143172Y-88590938D01*
X127347903Y-88727735D01*
X127575389Y-88821963D01*
X127816886Y-88870000D01*
X128063114Y-88870000D01*
X128304611Y-88821963D01*
X128532097Y-88727735D01*
X128736828Y-88590938D01*
X128910938Y-88416828D01*
X129047735Y-88212097D01*
X129141963Y-87984611D01*
X129190000Y-87743114D01*
X129190000Y-87496886D01*
X129141963Y-87255389D01*
X129047735Y-87027903D01*
X128910938Y-86823172D01*
X128736828Y-86649062D01*
X128532097Y-86512265D01*
X128304611Y-86418037D01*
X128063114Y-86370000D01*
X127816886Y-86370000D01*
X127575389Y-86418037D01*
X127347903Y-86512265D01*
X127143172Y-86649062D01*
X126969062Y-86823172D01*
X126832265Y-87027903D01*
X126738037Y-87255389D01*
X126690000Y-87496886D01*
X113745414Y-87496886D01*
X112845113Y-86596586D01*
X112826317Y-86573683D01*
X112734955Y-86498704D01*
X112630721Y-86442990D01*
X112517621Y-86408682D01*
X112429474Y-86400000D01*
X112400000Y-86397097D01*
X112370526Y-86400000D01*
X108400000Y-86400000D01*
X108400000Y-83399474D01*
X108402903Y-83370000D01*
X108391318Y-83252379D01*
X108357010Y-83139279D01*
X108324113Y-83077733D01*
X108301296Y-83035045D01*
X108226317Y-82943683D01*
X108203419Y-82924891D01*
X107545239Y-82266712D01*
X107538099Y-82230818D01*
X107485332Y-82103426D01*
X107408726Y-81988776D01*
X107311224Y-81891274D01*
X107196574Y-81814668D01*
X107069182Y-81761901D01*
X107033289Y-81754761D01*
X106895239Y-81616711D01*
X106888099Y-81580818D01*
X106844268Y-81475000D01*
X123663250Y-81475000D01*
X126786541Y-84598291D01*
X126738037Y-84715389D01*
X126690000Y-84956886D01*
X126690000Y-85203114D01*
X126738037Y-85444611D01*
X126832265Y-85672097D01*
X126969062Y-85876828D01*
X127143172Y-86050938D01*
X127347903Y-86187735D01*
X127575389Y-86281963D01*
X127816886Y-86330000D01*
X128063114Y-86330000D01*
X128304611Y-86281963D01*
X128532097Y-86187735D01*
X128736828Y-86050938D01*
X128910938Y-85876828D01*
X129047735Y-85672097D01*
X129141963Y-85444611D01*
X129190000Y-85203114D01*
X129190000Y-84956886D01*
X129141963Y-84715389D01*
X129047735Y-84487903D01*
X128910938Y-84283172D01*
X128736828Y-84109062D01*
X128532097Y-83972265D01*
X128304611Y-83878037D01*
X128063114Y-83830000D01*
X127816886Y-83830000D01*
X127575389Y-83878037D01*
X127458291Y-83926541D01*
X124536750Y-81005000D01*
X125733250Y-81005000D01*
X126786541Y-82058291D01*
X126738037Y-82175389D01*
X126690000Y-82416886D01*
X126690000Y-82663114D01*
X126738037Y-82904611D01*
X126832265Y-83132097D01*
X126969062Y-83336828D01*
X127143172Y-83510938D01*
X127347903Y-83647735D01*
X127575389Y-83741963D01*
X127816886Y-83790000D01*
X128063114Y-83790000D01*
X128304611Y-83741963D01*
X128532097Y-83647735D01*
X128736828Y-83510938D01*
X128910938Y-83336828D01*
X129047735Y-83132097D01*
X129141963Y-82904611D01*
X129190000Y-82663114D01*
X129190000Y-82416886D01*
X129141963Y-82175389D01*
X129047735Y-81947903D01*
X128910938Y-81743172D01*
X128736828Y-81569062D01*
X128532097Y-81432265D01*
X128304611Y-81338037D01*
X128063114Y-81290000D01*
X127816886Y-81290000D01*
X127575389Y-81338037D01*
X127458291Y-81386541D01*
X127323686Y-81251935D01*
X128790000Y-81251935D01*
X128868414Y-81244212D01*
X128943814Y-81221340D01*
X129013303Y-81184197D01*
X129074211Y-81134211D01*
X129124197Y-81073303D01*
X129161340Y-81003814D01*
X129184212Y-80928414D01*
X129191935Y-80850000D01*
X129191935Y-79150000D01*
X129184212Y-79071586D01*
X129161340Y-78996186D01*
X129124197Y-78926697D01*
X129074211Y-78865789D01*
X129013303Y-78815803D01*
X128943814Y-78778660D01*
X128868414Y-78755788D01*
X128790000Y-78748065D01*
X127090000Y-78748065D01*
X127011586Y-78755788D01*
X126936186Y-78778660D01*
X126866697Y-78815803D01*
X126805789Y-78865789D01*
X126755803Y-78926697D01*
X126718660Y-78996186D01*
X126695788Y-79071586D01*
X126688065Y-79150000D01*
X126688065Y-80616315D01*
X126282384Y-80210634D01*
X126267501Y-80192499D01*
X126195173Y-80133141D01*
X126112654Y-80089034D01*
X126023116Y-80061873D01*
X125953332Y-80055000D01*
X125930000Y-80052702D01*
X125906668Y-80055000D01*
X105882882Y-80055000D01*
X105900000Y-79968944D01*
X105900000Y-79831056D01*
X105873099Y-79695818D01*
X105820332Y-79568426D01*
X105743726Y-79453776D01*
X105646224Y-79356274D01*
X105531574Y-79279668D01*
X105404182Y-79226901D01*
X105268944Y-79200000D01*
X105131056Y-79200000D01*
X104995818Y-79226901D01*
X104868426Y-79279668D01*
X104753776Y-79356274D01*
X104745791Y-79364259D01*
X104723303Y-79345803D01*
X104653814Y-79308660D01*
X104578414Y-79285788D01*
X104500000Y-79278065D01*
X104350000Y-79280000D01*
X104250000Y-79380000D01*
X104250000Y-79880000D01*
X104270000Y-79880000D01*
X104270000Y-79980000D01*
X104250000Y-79980000D01*
X104250000Y-80000000D01*
X104150000Y-80000000D01*
X104150000Y-79980000D01*
X103600000Y-79980000D01*
X103500000Y-80080000D01*
X103498065Y-80180000D01*
X103505788Y-80258414D01*
X103528660Y-80333814D01*
X103548002Y-80370000D01*
X103400000Y-80370000D01*
X103400000Y-80200000D01*
X103396157Y-80160982D01*
X103384776Y-80123463D01*
X103366294Y-80088886D01*
X103341421Y-80058579D01*
X103311114Y-80033706D01*
X103276537Y-80015224D01*
X103239018Y-80003843D01*
X103200000Y-80000000D01*
X103043738Y-80000000D01*
X103073303Y-79984197D01*
X103134211Y-79934211D01*
X103184197Y-79873303D01*
X103221340Y-79803814D01*
X103244212Y-79728414D01*
X103248980Y-79680000D01*
X103498065Y-79680000D01*
X103500000Y-79780000D01*
X103600000Y-79880000D01*
X104150000Y-79880000D01*
X104150000Y-79380000D01*
X104050000Y-79280000D01*
X103900000Y-79278065D01*
X103821586Y-79285788D01*
X103746186Y-79308660D01*
X103676697Y-79345803D01*
X103615789Y-79395789D01*
X103565803Y-79456697D01*
X103528660Y-79526186D01*
X103505788Y-79601586D01*
X103498065Y-79680000D01*
X103248980Y-79680000D01*
X103251935Y-79650000D01*
X103250000Y-79350000D01*
X103150000Y-79250000D01*
X102600000Y-79250000D01*
X102600000Y-79270000D01*
X102500000Y-79270000D01*
X102500000Y-79250000D01*
X101950000Y-79250000D01*
X101850000Y-79350000D01*
X101848065Y-79650000D01*
X101855788Y-79728414D01*
X101878660Y-79803814D01*
X101915803Y-79873303D01*
X101965789Y-79934211D01*
X102026697Y-79984197D01*
X102056262Y-80000000D01*
X101576567Y-80000000D01*
X101573406Y-79984112D01*
X101634211Y-79934211D01*
X101684197Y-79873303D01*
X101721340Y-79803814D01*
X101744212Y-79728414D01*
X101751935Y-79650000D01*
X101751935Y-78750000D01*
X101744212Y-78671586D01*
X101721340Y-78596186D01*
X101684197Y-78526697D01*
X101634211Y-78465789D01*
X101583891Y-78424492D01*
X102016118Y-78424485D01*
X101965789Y-78465789D01*
X101915803Y-78526697D01*
X101878660Y-78596186D01*
X101855788Y-78671586D01*
X101848065Y-78750000D01*
X101850000Y-79050000D01*
X101950000Y-79150000D01*
X102500000Y-79150000D01*
X102500000Y-79130000D01*
X102600000Y-79130000D01*
X102600000Y-79150000D01*
X103150000Y-79150000D01*
X103250000Y-79050000D01*
X103251935Y-78750000D01*
X103244212Y-78671586D01*
X103221340Y-78596186D01*
X103184197Y-78526697D01*
X103134211Y-78465789D01*
X103083860Y-78424467D01*
X128679207Y-78424039D01*
X128869747Y-78442722D01*
G37*
X128869747Y-78442722D02*
X129033027Y-78492019D01*
X129183621Y-78572091D01*
X129315797Y-78679891D01*
X129424516Y-78811310D01*
X129505638Y-78961343D01*
X129557070Y-79127491D01*
X129575000Y-79275630D01*
X129575001Y-103689000D01*
X129557278Y-103869747D01*
X129507981Y-104033027D01*
X129427909Y-104183621D01*
X129320109Y-104315798D01*
X129188693Y-104424514D01*
X129038657Y-104505638D01*
X128872509Y-104557070D01*
X128724370Y-104575000D01*
X109673527Y-104575000D01*
X111143756Y-103104771D01*
X126714199Y-103104771D01*
X126784795Y-103337500D01*
X126900148Y-103553694D01*
X127055461Y-103743230D01*
X127244767Y-103898824D01*
X127460790Y-104014497D01*
X127695229Y-104085803D01*
X127890000Y-104009002D01*
X127890000Y-102910000D01*
X127990000Y-102910000D01*
X127990000Y-104009002D01*
X128184771Y-104085803D01*
X128419210Y-104014497D01*
X128635233Y-103898824D01*
X128824539Y-103743230D01*
X128979852Y-103553694D01*
X129095205Y-103337500D01*
X129165801Y-103104771D01*
X129088913Y-102910000D01*
X127990000Y-102910000D01*
X127890000Y-102910000D01*
X126791087Y-102910000D01*
X126714199Y-103104771D01*
X111143756Y-103104771D01*
X111633298Y-102615229D01*
X126714199Y-102615229D01*
X126791087Y-102810000D01*
X127890000Y-102810000D01*
X127890000Y-101710998D01*
X127990000Y-101710998D01*
X127990000Y-102810000D01*
X129088913Y-102810000D01*
X129165801Y-102615229D01*
X129095205Y-102382500D01*
X128979852Y-102166306D01*
X128824539Y-101976770D01*
X128635233Y-101821176D01*
X128419210Y-101705503D01*
X128184771Y-101634197D01*
X127990000Y-101710998D01*
X127890000Y-101710998D01*
X127695229Y-101634197D01*
X127460790Y-101705503D01*
X127244767Y-101821176D01*
X127055461Y-101976770D01*
X126900148Y-102166306D01*
X126784795Y-102382500D01*
X126714199Y-102615229D01*
X111633298Y-102615229D01*
X113153419Y-101095109D01*
X113176317Y-101076317D01*
X113251296Y-100984955D01*
X113269979Y-100950000D01*
X117148065Y-100950000D01*
X117155788Y-101028414D01*
X117178660Y-101103814D01*
X117215803Y-101173303D01*
X117265789Y-101234211D01*
X117326697Y-101284197D01*
X117396186Y-101321340D01*
X117471586Y-101344212D01*
X117550000Y-101351935D01*
X117850000Y-101350000D01*
X117950000Y-101250000D01*
X117950000Y-100600000D01*
X118050000Y-100600000D01*
X118050000Y-101250000D01*
X118150000Y-101350000D01*
X118450000Y-101351935D01*
X118528414Y-101344212D01*
X118603814Y-101321340D01*
X118673303Y-101284197D01*
X118734211Y-101234211D01*
X118784197Y-101173303D01*
X118821340Y-101103814D01*
X118844212Y-101028414D01*
X118851935Y-100950000D01*
X118850000Y-100700000D01*
X118750000Y-100600000D01*
X118050000Y-100600000D01*
X117950000Y-100600000D01*
X117250000Y-100600000D01*
X117150000Y-100700000D01*
X117148065Y-100950000D01*
X113269979Y-100950000D01*
X113307010Y-100880721D01*
X113327197Y-100814174D01*
X113341319Y-100767621D01*
X113352903Y-100650000D01*
X113350000Y-100620524D01*
X113350000Y-100562287D01*
X113384211Y-100534211D01*
X113434197Y-100473303D01*
X113471340Y-100403814D01*
X113494212Y-100328414D01*
X113501935Y-100250000D01*
X113501935Y-98950000D01*
X113898065Y-98950000D01*
X113898065Y-100250000D01*
X113905788Y-100328414D01*
X113928660Y-100403814D01*
X113965803Y-100473303D01*
X114015789Y-100534211D01*
X114076697Y-100584197D01*
X114146186Y-100621340D01*
X114221586Y-100644212D01*
X114300000Y-100651935D01*
X115000000Y-100651935D01*
X115078414Y-100644212D01*
X115153814Y-100621340D01*
X115223303Y-100584197D01*
X115284211Y-100534211D01*
X115334197Y-100473303D01*
X115371340Y-100403814D01*
X115383283Y-100364443D01*
X115396186Y-100371340D01*
X115471586Y-100394212D01*
X115550000Y-100401935D01*
X116450000Y-100401935D01*
X116528414Y-100394212D01*
X116603814Y-100371340D01*
X116673303Y-100334197D01*
X116734211Y-100284211D01*
X116784197Y-100223303D01*
X116821340Y-100153814D01*
X116822496Y-100150000D01*
X117148065Y-100150000D01*
X117150000Y-100400000D01*
X117250000Y-100500000D01*
X117950000Y-100500000D01*
X117950000Y-99850000D01*
X118050000Y-99850000D01*
X118050000Y-100500000D01*
X118750000Y-100500000D01*
X118850000Y-100400000D01*
X118851415Y-100217150D01*
X118900000Y-100221935D01*
X119050000Y-100220000D01*
X119150000Y-100120000D01*
X119150000Y-99620000D01*
X119250000Y-99620000D01*
X119250000Y-100120000D01*
X119350000Y-100220000D01*
X119500000Y-100221935D01*
X119578414Y-100214212D01*
X119635531Y-100196886D01*
X126690000Y-100196886D01*
X126690000Y-100443114D01*
X126738037Y-100684611D01*
X126832265Y-100912097D01*
X126969062Y-101116828D01*
X127143172Y-101290938D01*
X127347903Y-101427735D01*
X127575389Y-101521963D01*
X127816886Y-101570000D01*
X128063114Y-101570000D01*
X128304611Y-101521963D01*
X128532097Y-101427735D01*
X128736828Y-101290938D01*
X128910938Y-101116828D01*
X129047735Y-100912097D01*
X129141963Y-100684611D01*
X129190000Y-100443114D01*
X129190000Y-100196886D01*
X129141963Y-99955389D01*
X129047735Y-99727903D01*
X128910938Y-99523172D01*
X128736828Y-99349062D01*
X128532097Y-99212265D01*
X128304611Y-99118037D01*
X128063114Y-99070000D01*
X127816886Y-99070000D01*
X127575389Y-99118037D01*
X127347903Y-99212265D01*
X127143172Y-99349062D01*
X126969062Y-99523172D01*
X126832265Y-99727903D01*
X126738037Y-99955389D01*
X126690000Y-100196886D01*
X119635531Y-100196886D01*
X119653814Y-100191340D01*
X119723303Y-100154197D01*
X119784211Y-100104211D01*
X119834197Y-100043303D01*
X119871340Y-99973814D01*
X119894212Y-99898414D01*
X119901935Y-99820000D01*
X119900000Y-99720000D01*
X119800000Y-99620000D01*
X119250000Y-99620000D01*
X119150000Y-99620000D01*
X118600000Y-99620000D01*
X118500000Y-99720000D01*
X118499363Y-99752927D01*
X118450000Y-99748065D01*
X118150000Y-99750000D01*
X118050000Y-99850000D01*
X117950000Y-99850000D01*
X117850000Y-99750000D01*
X117550000Y-99748065D01*
X117471586Y-99755788D01*
X117396186Y-99778660D01*
X117326697Y-99815803D01*
X117265789Y-99865789D01*
X117215803Y-99926697D01*
X117178660Y-99996186D01*
X117155788Y-100071586D01*
X117148065Y-100150000D01*
X116822496Y-100150000D01*
X116844212Y-100078414D01*
X116851935Y-100000000D01*
X116851935Y-99200000D01*
X116844212Y-99121586D01*
X116821340Y-99046186D01*
X116784197Y-98976697D01*
X116734211Y-98915789D01*
X116673303Y-98865803D01*
X116603814Y-98828660D01*
X116528414Y-98805788D01*
X116450000Y-98798065D01*
X115550000Y-98798065D01*
X115471586Y-98805788D01*
X115396186Y-98828660D01*
X115383283Y-98835557D01*
X115371340Y-98796186D01*
X115334197Y-98726697D01*
X115284211Y-98665789D01*
X115223303Y-98615803D01*
X115153814Y-98578660D01*
X115078414Y-98555788D01*
X115000000Y-98548065D01*
X114300000Y-98548065D01*
X114221586Y-98555788D01*
X114146186Y-98578660D01*
X114076697Y-98615803D01*
X114015789Y-98665789D01*
X113965803Y-98726697D01*
X113928660Y-98796186D01*
X113905788Y-98871586D01*
X113898065Y-98950000D01*
X113501935Y-98950000D01*
X113494212Y-98871586D01*
X113471340Y-98796186D01*
X113434197Y-98726697D01*
X113384211Y-98665789D01*
X113350000Y-98637713D01*
X113350000Y-97450000D01*
X117148065Y-97450000D01*
X117155788Y-97528414D01*
X117178660Y-97603814D01*
X117215803Y-97673303D01*
X117265789Y-97734211D01*
X117326697Y-97784197D01*
X117396186Y-97821340D01*
X117471586Y-97844212D01*
X117530353Y-97850000D01*
X117471586Y-97855788D01*
X117396186Y-97878660D01*
X117326697Y-97915803D01*
X117265789Y-97965789D01*
X117215803Y-98026697D01*
X117178660Y-98096186D01*
X117155788Y-98171586D01*
X117148065Y-98250000D01*
X117148065Y-99050000D01*
X117155788Y-99128414D01*
X117178660Y-99203814D01*
X117215803Y-99273303D01*
X117265789Y-99334211D01*
X117326697Y-99384197D01*
X117396186Y-99421340D01*
X117471586Y-99444212D01*
X117550000Y-99451935D01*
X118450000Y-99451935D01*
X118524589Y-99444589D01*
X118600000Y-99520000D01*
X119150000Y-99520000D01*
X119150000Y-99500000D01*
X119250000Y-99500000D01*
X119250000Y-99520000D01*
X119800000Y-99520000D01*
X119900000Y-99420000D01*
X119901935Y-99320000D01*
X119894212Y-99241586D01*
X119871340Y-99166186D01*
X119851998Y-99130000D01*
X127065431Y-99129998D01*
X127090001Y-99132418D01*
X127188018Y-99122764D01*
X127282268Y-99094173D01*
X127300905Y-99084211D01*
X127369130Y-99047744D01*
X127445265Y-98985262D01*
X127460925Y-98966180D01*
X127483291Y-98943814D01*
X127575389Y-98981963D01*
X127816886Y-99030000D01*
X128063114Y-99030000D01*
X128304611Y-98981963D01*
X128532097Y-98887735D01*
X128736828Y-98750938D01*
X128910938Y-98576828D01*
X129047735Y-98372097D01*
X129141963Y-98144611D01*
X129190000Y-97903114D01*
X129190000Y-97656886D01*
X129141963Y-97415389D01*
X129047735Y-97187903D01*
X128910938Y-96983172D01*
X128736828Y-96809062D01*
X128532097Y-96672265D01*
X128304611Y-96578037D01*
X128063114Y-96530000D01*
X127816886Y-96530000D01*
X127575389Y-96578037D01*
X127347903Y-96672265D01*
X127143172Y-96809062D01*
X126969062Y-96983172D01*
X126832265Y-97187903D01*
X126738037Y-97415389D01*
X126690000Y-97656886D01*
X126690000Y-97903114D01*
X126735130Y-98129999D01*
X119812288Y-98130001D01*
X119784211Y-98095789D01*
X119723303Y-98045803D01*
X119653814Y-98008660D01*
X119578414Y-97985788D01*
X119500000Y-97978065D01*
X118900000Y-97978065D01*
X118821586Y-97985788D01*
X118764768Y-98003023D01*
X118734211Y-97965789D01*
X118673303Y-97915803D01*
X118603814Y-97878660D01*
X118528414Y-97855788D01*
X118469647Y-97850000D01*
X118528414Y-97844212D01*
X118603814Y-97821340D01*
X118673303Y-97784197D01*
X118734211Y-97734211D01*
X118784197Y-97673303D01*
X118821340Y-97603814D01*
X118844212Y-97528414D01*
X118851935Y-97450000D01*
X118850000Y-97200000D01*
X118750000Y-97100000D01*
X118050000Y-97100000D01*
X118050000Y-97120000D01*
X117950000Y-97120000D01*
X117950000Y-97100000D01*
X117250000Y-97100000D01*
X117150000Y-97200000D01*
X117148065Y-97450000D01*
X113350000Y-97450000D01*
X113350000Y-97062287D01*
X113384211Y-97034211D01*
X113434197Y-96973303D01*
X113471340Y-96903814D01*
X113494212Y-96828414D01*
X113501935Y-96750000D01*
X113501935Y-95450000D01*
X113898065Y-95450000D01*
X113898065Y-96750000D01*
X113905788Y-96828414D01*
X113928660Y-96903814D01*
X113965803Y-96973303D01*
X114015789Y-97034211D01*
X114076697Y-97084197D01*
X114146186Y-97121340D01*
X114221586Y-97144212D01*
X114300000Y-97151935D01*
X115000000Y-97151935D01*
X115078414Y-97144212D01*
X115153814Y-97121340D01*
X115223303Y-97084197D01*
X115284211Y-97034211D01*
X115334197Y-96973303D01*
X115371340Y-96903814D01*
X115383283Y-96864443D01*
X115396186Y-96871340D01*
X115471586Y-96894212D01*
X115550000Y-96901935D01*
X116450000Y-96901935D01*
X116528414Y-96894212D01*
X116603814Y-96871340D01*
X116673303Y-96834197D01*
X116734211Y-96784211D01*
X116784197Y-96723303D01*
X116821340Y-96653814D01*
X116822496Y-96650000D01*
X117148065Y-96650000D01*
X117150000Y-96900000D01*
X117250000Y-97000000D01*
X117950000Y-97000000D01*
X117950000Y-96350000D01*
X118050000Y-96350000D01*
X118050000Y-97000000D01*
X118750000Y-97000000D01*
X118850000Y-96900000D01*
X118851415Y-96717150D01*
X118900000Y-96721935D01*
X119050000Y-96720000D01*
X119150000Y-96620000D01*
X119150000Y-96120000D01*
X119250000Y-96120000D01*
X119250000Y-96620000D01*
X119350000Y-96720000D01*
X119500000Y-96721935D01*
X119578414Y-96714212D01*
X119653814Y-96691340D01*
X119723303Y-96654197D01*
X119784211Y-96604211D01*
X119834197Y-96543303D01*
X119871340Y-96473814D01*
X119894212Y-96398414D01*
X119901935Y-96320000D01*
X119900000Y-96220000D01*
X119800000Y-96120000D01*
X119250000Y-96120000D01*
X119150000Y-96120000D01*
X118600000Y-96120000D01*
X118500000Y-96220000D01*
X118499363Y-96252927D01*
X118450000Y-96248065D01*
X118150000Y-96250000D01*
X118050000Y-96350000D01*
X117950000Y-96350000D01*
X117850000Y-96250000D01*
X117550000Y-96248065D01*
X117471586Y-96255788D01*
X117396186Y-96278660D01*
X117326697Y-96315803D01*
X117265789Y-96365789D01*
X117215803Y-96426697D01*
X117178660Y-96496186D01*
X117155788Y-96571586D01*
X117148065Y-96650000D01*
X116822496Y-96650000D01*
X116844212Y-96578414D01*
X116851935Y-96500000D01*
X116851935Y-95700000D01*
X116844212Y-95621586D01*
X116821340Y-95546186D01*
X116784197Y-95476697D01*
X116734211Y-95415789D01*
X116673303Y-95365803D01*
X116603814Y-95328660D01*
X116528414Y-95305788D01*
X116450000Y-95298065D01*
X115550000Y-95298065D01*
X115471586Y-95305788D01*
X115396186Y-95328660D01*
X115383283Y-95335557D01*
X115371340Y-95296186D01*
X115334197Y-95226697D01*
X115284211Y-95165789D01*
X115223303Y-95115803D01*
X115153814Y-95078660D01*
X115078414Y-95055788D01*
X115000000Y-95048065D01*
X114300000Y-95048065D01*
X114221586Y-95055788D01*
X114146186Y-95078660D01*
X114076697Y-95115803D01*
X114015789Y-95165789D01*
X113965803Y-95226697D01*
X113928660Y-95296186D01*
X113905788Y-95371586D01*
X113898065Y-95450000D01*
X113501935Y-95450000D01*
X113494212Y-95371586D01*
X113471340Y-95296186D01*
X113434197Y-95226697D01*
X113384211Y-95165789D01*
X113350000Y-95137713D01*
X113350000Y-94897010D01*
X113378414Y-94894212D01*
X113453814Y-94871340D01*
X113500000Y-94846653D01*
X113546186Y-94871340D01*
X113621586Y-94894212D01*
X113700000Y-94901935D01*
X114800000Y-94901935D01*
X114878414Y-94894212D01*
X114953814Y-94871340D01*
X115023303Y-94834197D01*
X115084211Y-94784211D01*
X115112287Y-94750000D01*
X117148065Y-94750000D01*
X117148065Y-95550000D01*
X117155788Y-95628414D01*
X117178660Y-95703814D01*
X117215803Y-95773303D01*
X117265789Y-95834211D01*
X117326697Y-95884197D01*
X117396186Y-95921340D01*
X117471586Y-95944212D01*
X117550000Y-95951935D01*
X118450000Y-95951935D01*
X118524589Y-95944589D01*
X118600000Y-96020000D01*
X119150000Y-96020000D01*
X119150000Y-96000000D01*
X119250000Y-96000000D01*
X119250000Y-96020000D01*
X119800000Y-96020000D01*
X119900000Y-95920000D01*
X119901935Y-95820000D01*
X119894212Y-95741586D01*
X119871340Y-95666186D01*
X119851998Y-95630000D01*
X126748553Y-95630000D01*
X126832265Y-95832097D01*
X126969062Y-96036828D01*
X127143172Y-96210938D01*
X127347903Y-96347735D01*
X127575389Y-96441963D01*
X127816886Y-96490000D01*
X128063114Y-96490000D01*
X128304611Y-96441963D01*
X128532097Y-96347735D01*
X128736828Y-96210938D01*
X128910938Y-96036828D01*
X129047735Y-95832097D01*
X129141963Y-95604611D01*
X129190000Y-95363114D01*
X129190000Y-95116886D01*
X129141963Y-94875389D01*
X129047735Y-94647903D01*
X128910938Y-94443172D01*
X128736828Y-94269062D01*
X128532097Y-94132265D01*
X128304611Y-94038037D01*
X128063114Y-93990000D01*
X127816886Y-93990000D01*
X127575389Y-94038037D01*
X127347903Y-94132265D01*
X127143172Y-94269062D01*
X126969062Y-94443172D01*
X126844227Y-94630000D01*
X119812287Y-94630000D01*
X119784211Y-94595789D01*
X119723303Y-94545803D01*
X119653814Y-94508660D01*
X119578414Y-94485788D01*
X119500000Y-94478065D01*
X118900000Y-94478065D01*
X118821586Y-94485788D01*
X118764768Y-94503023D01*
X118734211Y-94465789D01*
X118673303Y-94415803D01*
X118603814Y-94378660D01*
X118528414Y-94355788D01*
X118450000Y-94348065D01*
X117550000Y-94348065D01*
X117471586Y-94355788D01*
X117396186Y-94378660D01*
X117326697Y-94415803D01*
X117265789Y-94465789D01*
X117215803Y-94526697D01*
X117178660Y-94596186D01*
X117155788Y-94671586D01*
X117148065Y-94750000D01*
X115112287Y-94750000D01*
X115134197Y-94723303D01*
X115171340Y-94653814D01*
X115194212Y-94578414D01*
X115201935Y-94500000D01*
X115201935Y-93550000D01*
X115194212Y-93471586D01*
X115171340Y-93396186D01*
X115134197Y-93326697D01*
X115084211Y-93265789D01*
X115023303Y-93215803D01*
X114953814Y-93178660D01*
X114878414Y-93155788D01*
X114800000Y-93148065D01*
X113700000Y-93148065D01*
X113621586Y-93155788D01*
X113546186Y-93178660D01*
X113500000Y-93203347D01*
X113453814Y-93178660D01*
X113378414Y-93155788D01*
X113300000Y-93148065D01*
X112200000Y-93148065D01*
X112121586Y-93155788D01*
X112046186Y-93178660D01*
X111976697Y-93215803D01*
X111915789Y-93265789D01*
X111865803Y-93326697D01*
X111828660Y-93396186D01*
X111805788Y-93471586D01*
X111798065Y-93550000D01*
X111798065Y-94500000D01*
X111805788Y-94578414D01*
X111828660Y-94653814D01*
X111865803Y-94723303D01*
X111915789Y-94784211D01*
X111976697Y-94834197D01*
X112046186Y-94871340D01*
X112121586Y-94894212D01*
X112150000Y-94897011D01*
X112150000Y-95137713D01*
X112115789Y-95165789D01*
X112065803Y-95226697D01*
X112028660Y-95296186D01*
X112005788Y-95371586D01*
X111998065Y-95450000D01*
X111998065Y-96750000D01*
X112005788Y-96828414D01*
X112028660Y-96903814D01*
X112065803Y-96973303D01*
X112115789Y-97034211D01*
X112150000Y-97062288D01*
X112150001Y-98637712D01*
X112115789Y-98665789D01*
X112065803Y-98726697D01*
X112028660Y-98796186D01*
X112005788Y-98871586D01*
X111998065Y-98950000D01*
X111998065Y-100250000D01*
X112005788Y-100328414D01*
X112028660Y-100403814D01*
X112065803Y-100473303D01*
X112071377Y-100480095D01*
X108851473Y-103700000D01*
X90248528Y-103700000D01*
X86350000Y-99801473D01*
X86350000Y-94897010D01*
X86378414Y-94894212D01*
X86453814Y-94871340D01*
X86500000Y-94846653D01*
X86546186Y-94871340D01*
X86621586Y-94894212D01*
X86700000Y-94901935D01*
X87800000Y-94901935D01*
X87878414Y-94894212D01*
X87953814Y-94871340D01*
X88023303Y-94834197D01*
X88084211Y-94784211D01*
X88134197Y-94723303D01*
X88171340Y-94653814D01*
X88194212Y-94578414D01*
X88201935Y-94500000D01*
X88201935Y-93752012D01*
X90070171Y-93752012D01*
X89830191Y-93991992D01*
X89809211Y-94009210D01*
X89791993Y-94030190D01*
X89791987Y-94030196D01*
X89740479Y-94092958D01*
X89719470Y-94132265D01*
X89689409Y-94188506D01*
X89657959Y-94292181D01*
X89656619Y-94305788D01*
X89647340Y-94400000D01*
X89650001Y-94427018D01*
X89650000Y-98167713D01*
X89615789Y-98195789D01*
X89565803Y-98256697D01*
X89528660Y-98326186D01*
X89505788Y-98401586D01*
X89498065Y-98480000D01*
X89498065Y-98980000D01*
X89505788Y-99058414D01*
X89528660Y-99133814D01*
X89564037Y-99200000D01*
X89528660Y-99266186D01*
X89505788Y-99341586D01*
X89498065Y-99420000D01*
X89498065Y-99920000D01*
X89505788Y-99998414D01*
X89528660Y-100073814D01*
X89565803Y-100143303D01*
X89615789Y-100204211D01*
X89648423Y-100230993D01*
X89650000Y-100247008D01*
X89650000Y-100247017D01*
X89650001Y-100247023D01*
X89650001Y-100302989D01*
X89621586Y-100305788D01*
X89546186Y-100328660D01*
X89476697Y-100365803D01*
X89415789Y-100415789D01*
X89365803Y-100476697D01*
X89328660Y-100546186D01*
X89305788Y-100621586D01*
X89298065Y-100700000D01*
X89298065Y-101700000D01*
X89305788Y-101778414D01*
X89328660Y-101853814D01*
X89365803Y-101923303D01*
X89415789Y-101984211D01*
X89476697Y-102034197D01*
X89546186Y-102071340D01*
X89621586Y-102094212D01*
X89700000Y-102101935D01*
X90700000Y-102101935D01*
X90778414Y-102094212D01*
X90853814Y-102071340D01*
X90923303Y-102034197D01*
X90984211Y-101984211D01*
X91034197Y-101923303D01*
X91071340Y-101853814D01*
X91094212Y-101778414D01*
X91101935Y-101700000D01*
X91101935Y-100800000D01*
X92023065Y-100800000D01*
X92023065Y-100900000D01*
X92030788Y-100978414D01*
X92053660Y-101053814D01*
X92090803Y-101123303D01*
X92140789Y-101184211D01*
X92201697Y-101234197D01*
X92271186Y-101271340D01*
X92346586Y-101294212D01*
X92425000Y-101301935D01*
X93294829Y-101301935D01*
X93829080Y-101836187D01*
X93844736Y-101855264D01*
X93920871Y-101917746D01*
X94007733Y-101964175D01*
X94100338Y-101992266D01*
X94101983Y-101992765D01*
X94200000Y-102002419D01*
X94211351Y-102001301D01*
X94253776Y-102043726D01*
X94368426Y-102120332D01*
X94495818Y-102173099D01*
X94631056Y-102200000D01*
X94768944Y-102200000D01*
X94904182Y-102173099D01*
X95031574Y-102120332D01*
X95146224Y-102043726D01*
X95189950Y-102000000D01*
X95195440Y-102000000D01*
X95220000Y-102002419D01*
X95244560Y-102000000D01*
X95318017Y-101992765D01*
X95412267Y-101964175D01*
X95499129Y-101917746D01*
X95575264Y-101855264D01*
X95590929Y-101836176D01*
X96536187Y-100890920D01*
X96555264Y-100875264D01*
X96617746Y-100799129D01*
X96664175Y-100712267D01*
X96673757Y-100680680D01*
X96723303Y-100654197D01*
X96784211Y-100604211D01*
X96834197Y-100543303D01*
X96871340Y-100473814D01*
X96874917Y-100462023D01*
X96900001Y-100487108D01*
X96900001Y-100898065D01*
X96900000Y-100898065D01*
X96821586Y-100905788D01*
X96746186Y-100928660D01*
X96676697Y-100965803D01*
X96615789Y-101015789D01*
X96565803Y-101076697D01*
X96528660Y-101146186D01*
X96505788Y-101221586D01*
X96498065Y-101300000D01*
X96498065Y-102300000D01*
X96505788Y-102378414D01*
X96528660Y-102453814D01*
X96565803Y-102523303D01*
X96615789Y-102584211D01*
X96676697Y-102634197D01*
X96746186Y-102671340D01*
X96821586Y-102694212D01*
X96900000Y-102701935D01*
X97900000Y-102701935D01*
X97978414Y-102694212D01*
X98053814Y-102671340D01*
X98123303Y-102634197D01*
X98184211Y-102584211D01*
X98234197Y-102523303D01*
X98271340Y-102453814D01*
X98294212Y-102378414D01*
X98301935Y-102300000D01*
X98301935Y-101450000D01*
X98548065Y-101450000D01*
X98555788Y-101528414D01*
X98578660Y-101603814D01*
X98615803Y-101673303D01*
X98665789Y-101734211D01*
X98726697Y-101784197D01*
X98796186Y-101821340D01*
X98871586Y-101844212D01*
X98950000Y-101851935D01*
X99100000Y-101850000D01*
X99200000Y-101750000D01*
X99200000Y-101050000D01*
X99300000Y-101050000D01*
X99300000Y-101750000D01*
X99400000Y-101850000D01*
X99550000Y-101851935D01*
X99628414Y-101844212D01*
X99703814Y-101821340D01*
X99773303Y-101784197D01*
X99834211Y-101734211D01*
X99884197Y-101673303D01*
X99921340Y-101603814D01*
X99944212Y-101528414D01*
X99951935Y-101450000D01*
X99950000Y-101150000D01*
X99850000Y-101050000D01*
X99300000Y-101050000D01*
X99200000Y-101050000D01*
X98650000Y-101050000D01*
X98550000Y-101150000D01*
X98548065Y-101450000D01*
X98301935Y-101450000D01*
X98301935Y-101300000D01*
X98294212Y-101221586D01*
X98271340Y-101146186D01*
X98234197Y-101076697D01*
X98184211Y-101015789D01*
X98123303Y-100965803D01*
X98053814Y-100928660D01*
X97978414Y-100905788D01*
X97900000Y-100898065D01*
X97900000Y-100338983D01*
X97907374Y-100340450D01*
X98092626Y-100340450D01*
X98274319Y-100304309D01*
X98445470Y-100233416D01*
X98599502Y-100130495D01*
X98730495Y-99999502D01*
X98800000Y-99895481D01*
X98800000Y-100000000D01*
X98803843Y-100039018D01*
X98815224Y-100076537D01*
X98833706Y-100111114D01*
X98858579Y-100141421D01*
X98875603Y-100155392D01*
X98871586Y-100155788D01*
X98796186Y-100178660D01*
X98726697Y-100215803D01*
X98665789Y-100265789D01*
X98615803Y-100326697D01*
X98578660Y-100396186D01*
X98555788Y-100471586D01*
X98548065Y-100550000D01*
X98550000Y-100850000D01*
X98650000Y-100950000D01*
X99200000Y-100950000D01*
X99200000Y-100930000D01*
X99300000Y-100930000D01*
X99300000Y-100950000D01*
X99850000Y-100950000D01*
X99950000Y-100850000D01*
X99951935Y-100550000D01*
X99944212Y-100471586D01*
X99921340Y-100396186D01*
X99884197Y-100326697D01*
X99834211Y-100265789D01*
X99773303Y-100215803D01*
X99743738Y-100200000D01*
X100144513Y-100200000D01*
X100190237Y-100245725D01*
X100165789Y-100265789D01*
X100115803Y-100326697D01*
X100078660Y-100396186D01*
X100055788Y-100471586D01*
X100048065Y-100550000D01*
X100048065Y-101450000D01*
X100055788Y-101528414D01*
X100078660Y-101603814D01*
X100115803Y-101673303D01*
X100165789Y-101734211D01*
X100226697Y-101784197D01*
X100296186Y-101821340D01*
X100371586Y-101844212D01*
X100450000Y-101851935D01*
X101050000Y-101851935D01*
X101128414Y-101844212D01*
X101203814Y-101821340D01*
X101273303Y-101784197D01*
X101334211Y-101734211D01*
X101384197Y-101673303D01*
X101421340Y-101603814D01*
X101437664Y-101550000D01*
X102372992Y-101550000D01*
X102400000Y-101552660D01*
X102427008Y-101550000D01*
X102427018Y-101550000D01*
X102507819Y-101542042D01*
X102611494Y-101510592D01*
X102707042Y-101459521D01*
X102790790Y-101390790D01*
X102808013Y-101369804D01*
X103469804Y-100708013D01*
X103490790Y-100690790D01*
X103559521Y-100607042D01*
X103610592Y-100511494D01*
X103642042Y-100407819D01*
X103650000Y-100327018D01*
X103650000Y-100327009D01*
X103652660Y-100300001D01*
X103650000Y-100272993D01*
X103650000Y-98227011D01*
X103652660Y-98200000D01*
X103650000Y-98172989D01*
X103650000Y-98172982D01*
X103642042Y-98092181D01*
X103638347Y-98080000D01*
X103610592Y-97988505D01*
X103559521Y-97892958D01*
X103508013Y-97830196D01*
X103490790Y-97809210D01*
X103469804Y-97791987D01*
X101979752Y-96301935D01*
X104350000Y-96301935D01*
X104428414Y-96294212D01*
X104503814Y-96271340D01*
X104573303Y-96234197D01*
X104634211Y-96184211D01*
X104684197Y-96123303D01*
X104721340Y-96053814D01*
X104744212Y-95978414D01*
X104751935Y-95900000D01*
X104751935Y-95100000D01*
X104744212Y-95021586D01*
X104721340Y-94946186D01*
X104684197Y-94876697D01*
X104634211Y-94815789D01*
X104573303Y-94765803D01*
X104503814Y-94728660D01*
X104428414Y-94705788D01*
X104350000Y-94698065D01*
X101710000Y-94698065D01*
X101631586Y-94705788D01*
X101556186Y-94728660D01*
X101486697Y-94765803D01*
X101441068Y-94803250D01*
X100557818Y-93920000D01*
X104698065Y-93920000D01*
X104705788Y-93998414D01*
X104728660Y-94073814D01*
X104765803Y-94143303D01*
X104815789Y-94204211D01*
X104876697Y-94254197D01*
X104946186Y-94291340D01*
X105021586Y-94314212D01*
X105100000Y-94321935D01*
X105250000Y-94320000D01*
X105350000Y-94220000D01*
X105350000Y-93720000D01*
X105450000Y-93720000D01*
X105450000Y-94220000D01*
X105550000Y-94320000D01*
X105700000Y-94321935D01*
X105778414Y-94314212D01*
X105853814Y-94291340D01*
X105923303Y-94254197D01*
X105984211Y-94204211D01*
X106034197Y-94143303D01*
X106071340Y-94073814D01*
X106094212Y-93998414D01*
X106101935Y-93920000D01*
X106100000Y-93820000D01*
X106000000Y-93720000D01*
X105450000Y-93720000D01*
X105350000Y-93720000D01*
X104800000Y-93720000D01*
X104700000Y-93820000D01*
X104698065Y-93920000D01*
X100557818Y-93920000D01*
X100107817Y-93470000D01*
X100753145Y-92824673D01*
X100904895Y-92976424D01*
X100923683Y-92999317D01*
X101015045Y-93074296D01*
X101119279Y-93130010D01*
X101189596Y-93151340D01*
X101232378Y-93164318D01*
X101243640Y-93165427D01*
X101320526Y-93173000D01*
X101320533Y-93173000D01*
X101349999Y-93175902D01*
X101379465Y-93173000D01*
X101437713Y-93173000D01*
X101465789Y-93207211D01*
X101526697Y-93257197D01*
X101596186Y-93294340D01*
X101671586Y-93317212D01*
X101750000Y-93324935D01*
X104350000Y-93324935D01*
X104428414Y-93317212D01*
X104503814Y-93294340D01*
X104573303Y-93257197D01*
X104634211Y-93207211D01*
X104662287Y-93173000D01*
X104749606Y-93173000D01*
X104764037Y-93200000D01*
X104728660Y-93266186D01*
X104705788Y-93341586D01*
X104698065Y-93420000D01*
X104700000Y-93520000D01*
X104800000Y-93620000D01*
X105350000Y-93620000D01*
X105350000Y-93600000D01*
X105450000Y-93600000D01*
X105450000Y-93620000D01*
X106000000Y-93620000D01*
X106100000Y-93520000D01*
X106101935Y-93420000D01*
X106094212Y-93341586D01*
X106071340Y-93266186D01*
X106035963Y-93200000D01*
X106071340Y-93133814D01*
X106094212Y-93058414D01*
X106101935Y-92980000D01*
X106101935Y-92480000D01*
X106094212Y-92401586D01*
X106071340Y-92326186D01*
X106034197Y-92256697D01*
X105984211Y-92195789D01*
X105923303Y-92145803D01*
X105853814Y-92108660D01*
X105778414Y-92085788D01*
X105700000Y-92078065D01*
X105585706Y-92078065D01*
X105577955Y-92071704D01*
X105540970Y-92051935D01*
X105550000Y-92051935D01*
X105628414Y-92044212D01*
X105703814Y-92021340D01*
X105773303Y-91984197D01*
X105834211Y-91934211D01*
X105884197Y-91873303D01*
X105921340Y-91803814D01*
X105944212Y-91728414D01*
X105951935Y-91650000D01*
X106048065Y-91650000D01*
X106055788Y-91728414D01*
X106078660Y-91803814D01*
X106115803Y-91873303D01*
X106165789Y-91934211D01*
X106226697Y-91984197D01*
X106296186Y-92021340D01*
X106371586Y-92044212D01*
X106450000Y-92051935D01*
X106600000Y-92050000D01*
X106700000Y-91950000D01*
X106700000Y-91250000D01*
X106800000Y-91250000D01*
X106800000Y-91950000D01*
X106900000Y-92050000D01*
X107050000Y-92051935D01*
X107128414Y-92044212D01*
X107203814Y-92021340D01*
X107273303Y-91984197D01*
X107334211Y-91934211D01*
X107384197Y-91873303D01*
X107421340Y-91803814D01*
X107444212Y-91728414D01*
X107451935Y-91650000D01*
X107450000Y-91350000D01*
X107350000Y-91250000D01*
X106800000Y-91250000D01*
X106700000Y-91250000D01*
X106150000Y-91250000D01*
X106050000Y-91350000D01*
X106048065Y-91650000D01*
X105951935Y-91650000D01*
X105951935Y-90750000D01*
X106048065Y-90750000D01*
X106050000Y-91050000D01*
X106150000Y-91150000D01*
X106700000Y-91150000D01*
X106700000Y-90450000D01*
X106600000Y-90350000D01*
X106450000Y-90348065D01*
X106371586Y-90355788D01*
X106296186Y-90378660D01*
X106226697Y-90415803D01*
X106165789Y-90465789D01*
X106115803Y-90526697D01*
X106078660Y-90596186D01*
X106055788Y-90671586D01*
X106048065Y-90750000D01*
X105951935Y-90750000D01*
X105944212Y-90671586D01*
X105921340Y-90596186D01*
X105884197Y-90526697D01*
X105834211Y-90465789D01*
X105773303Y-90415803D01*
X105703814Y-90378660D01*
X105628414Y-90355788D01*
X105550000Y-90348065D01*
X104950000Y-90348065D01*
X104871586Y-90355788D01*
X104796186Y-90378660D01*
X104746496Y-90405220D01*
X104751935Y-90350000D01*
X104751935Y-89650000D01*
X104746496Y-89594780D01*
X104796186Y-89621340D01*
X104871586Y-89644212D01*
X104950000Y-89651935D01*
X105550000Y-89651935D01*
X105628414Y-89644212D01*
X105703814Y-89621340D01*
X105773303Y-89584197D01*
X105834211Y-89534211D01*
X105884197Y-89473303D01*
X105921340Y-89403814D01*
X105944212Y-89328414D01*
X105951935Y-89250000D01*
X105951935Y-88350000D01*
X105944212Y-88271586D01*
X105937889Y-88250742D01*
X105950000Y-88251935D01*
X106061749Y-88251935D01*
X106055788Y-88271586D01*
X106048065Y-88350000D01*
X106048065Y-89250000D01*
X106055788Y-89328414D01*
X106078660Y-89403814D01*
X106115803Y-89473303D01*
X106165789Y-89534211D01*
X106226697Y-89584197D01*
X106296186Y-89621340D01*
X106371586Y-89644212D01*
X106450000Y-89651935D01*
X106973407Y-89651935D01*
X106998065Y-89676593D01*
X106998065Y-89780000D01*
X107005788Y-89858414D01*
X107028660Y-89933814D01*
X107064037Y-90000000D01*
X107028660Y-90066186D01*
X107005788Y-90141586D01*
X106998065Y-90220000D01*
X107000000Y-90320000D01*
X107028344Y-90348344D01*
X106900000Y-90350000D01*
X106800000Y-90450000D01*
X106800000Y-91150000D01*
X107350000Y-91150000D01*
X107380032Y-91119968D01*
X107400000Y-91121935D01*
X107550000Y-91120000D01*
X107650000Y-91020000D01*
X107650000Y-90520000D01*
X107750000Y-90520000D01*
X107750000Y-91020000D01*
X107850000Y-91120000D01*
X108000000Y-91121935D01*
X108078414Y-91114212D01*
X108153814Y-91091340D01*
X108223303Y-91054197D01*
X108284211Y-91004211D01*
X108334197Y-90943303D01*
X108371340Y-90873814D01*
X108394212Y-90798414D01*
X108401935Y-90720000D01*
X108400000Y-90620000D01*
X108300000Y-90520000D01*
X107750000Y-90520000D01*
X107650000Y-90520000D01*
X107630000Y-90520000D01*
X107630000Y-90420000D01*
X107650000Y-90420000D01*
X107650000Y-90400000D01*
X107750000Y-90400000D01*
X107750000Y-90420000D01*
X108300000Y-90420000D01*
X108400000Y-90320000D01*
X108400387Y-90300000D01*
X112398065Y-90300000D01*
X112398065Y-92700000D01*
X112405788Y-92778414D01*
X112428660Y-92853814D01*
X112465803Y-92923303D01*
X112515789Y-92984211D01*
X112576697Y-93034197D01*
X112646186Y-93071340D01*
X112721586Y-93094212D01*
X112800000Y-93101935D01*
X114200000Y-93101935D01*
X114278414Y-93094212D01*
X114353814Y-93071340D01*
X114423303Y-93034197D01*
X114484211Y-92984211D01*
X114534197Y-92923303D01*
X114571340Y-92853814D01*
X114594212Y-92778414D01*
X114601935Y-92700000D01*
X114601935Y-92576886D01*
X126690000Y-92576886D01*
X126690000Y-92823114D01*
X126738037Y-93064611D01*
X126832265Y-93292097D01*
X126969062Y-93496828D01*
X127143172Y-93670938D01*
X127347903Y-93807735D01*
X127575389Y-93901963D01*
X127816886Y-93950000D01*
X128063114Y-93950000D01*
X128304611Y-93901963D01*
X128532097Y-93807735D01*
X128736828Y-93670938D01*
X128910938Y-93496828D01*
X129047735Y-93292097D01*
X129141963Y-93064611D01*
X129190000Y-92823114D01*
X129190000Y-92576886D01*
X129141963Y-92335389D01*
X129047735Y-92107903D01*
X128910938Y-91903172D01*
X128736828Y-91729062D01*
X128532097Y-91592265D01*
X128304611Y-91498037D01*
X128063114Y-91450000D01*
X127816886Y-91450000D01*
X127575389Y-91498037D01*
X127347903Y-91592265D01*
X127143172Y-91729062D01*
X126969062Y-91903172D01*
X126832265Y-92107903D01*
X126738037Y-92335389D01*
X126690000Y-92576886D01*
X114601935Y-92576886D01*
X114601935Y-90300000D01*
X114594212Y-90221586D01*
X114571340Y-90146186D01*
X114534197Y-90076697D01*
X114501525Y-90036886D01*
X126690000Y-90036886D01*
X126690000Y-90283114D01*
X126738037Y-90524611D01*
X126832265Y-90752097D01*
X126969062Y-90956828D01*
X127143172Y-91130938D01*
X127347903Y-91267735D01*
X127575389Y-91361963D01*
X127816886Y-91410000D01*
X128063114Y-91410000D01*
X128304611Y-91361963D01*
X128532097Y-91267735D01*
X128736828Y-91130938D01*
X128910938Y-90956828D01*
X129047735Y-90752097D01*
X129141963Y-90524611D01*
X129190000Y-90283114D01*
X129190000Y-90036886D01*
X129141963Y-89795389D01*
X129047735Y-89567903D01*
X128910938Y-89363172D01*
X128736828Y-89189062D01*
X128532097Y-89052265D01*
X128304611Y-88958037D01*
X128063114Y-88910000D01*
X127816886Y-88910000D01*
X127575389Y-88958037D01*
X127347903Y-89052265D01*
X127143172Y-89189062D01*
X126969062Y-89363172D01*
X126832265Y-89567903D01*
X126738037Y-89795389D01*
X126690000Y-90036886D01*
X114501525Y-90036886D01*
X114484211Y-90015789D01*
X114423303Y-89965803D01*
X114353814Y-89928660D01*
X114278414Y-89905788D01*
X114200000Y-89898065D01*
X112800000Y-89898065D01*
X112721586Y-89905788D01*
X112646186Y-89928660D01*
X112576697Y-89965803D01*
X112515789Y-90015789D01*
X112465803Y-90076697D01*
X112428660Y-90146186D01*
X112405788Y-90221586D01*
X112398065Y-90300000D01*
X108400387Y-90300000D01*
X108401935Y-90220000D01*
X108394212Y-90141586D01*
X108371340Y-90066186D01*
X108335963Y-90000000D01*
X108371340Y-89933814D01*
X108394212Y-89858414D01*
X108401935Y-89780000D01*
X108401935Y-89280000D01*
X108394212Y-89201586D01*
X108371340Y-89126186D01*
X108334197Y-89056697D01*
X108284211Y-88995789D01*
X108223303Y-88945803D01*
X108153814Y-88908660D01*
X108078414Y-88885788D01*
X108000000Y-88878065D01*
X107896593Y-88878065D01*
X107451935Y-88433408D01*
X107451935Y-88350000D01*
X107444212Y-88271586D01*
X107421340Y-88196186D01*
X107388609Y-88134951D01*
X107480721Y-88107010D01*
X107584955Y-88051296D01*
X107676317Y-87976317D01*
X107695113Y-87953415D01*
X108048528Y-87600000D01*
X112151473Y-87600000D01*
X112649538Y-88098065D01*
X112200000Y-88098065D01*
X112121586Y-88105788D01*
X112046186Y-88128660D01*
X111976697Y-88165803D01*
X111915789Y-88215789D01*
X111865803Y-88276697D01*
X111828660Y-88346186D01*
X111805788Y-88421586D01*
X111798065Y-88500000D01*
X111798065Y-89450000D01*
X111805788Y-89528414D01*
X111828660Y-89603814D01*
X111865803Y-89673303D01*
X111915789Y-89734211D01*
X111976697Y-89784197D01*
X112046186Y-89821340D01*
X112121586Y-89844212D01*
X112200000Y-89851935D01*
X113300000Y-89851935D01*
X113378414Y-89844212D01*
X113453814Y-89821340D01*
X113500000Y-89796653D01*
X113546186Y-89821340D01*
X113621586Y-89844212D01*
X113700000Y-89851935D01*
X114800000Y-89851935D01*
X114878414Y-89844212D01*
X114953814Y-89821340D01*
X115023303Y-89784197D01*
X115084211Y-89734211D01*
X115134197Y-89673303D01*
X115171340Y-89603814D01*
X115194212Y-89528414D01*
X115201935Y-89450000D01*
X115201935Y-88500000D01*
X115194212Y-88421586D01*
X115171340Y-88346186D01*
X115134197Y-88276697D01*
X115084211Y-88215789D01*
X115023303Y-88165803D01*
X114953814Y-88128660D01*
X114878414Y-88105788D01*
X114800000Y-88098065D01*
X114346593Y-88098065D01*
X113745414Y-87496886D01*
X126690000Y-87496886D01*
X126690000Y-87743114D01*
X126738037Y-87984611D01*
X126832265Y-88212097D01*
X126969062Y-88416828D01*
X127143172Y-88590938D01*
X127347903Y-88727735D01*
X127575389Y-88821963D01*
X127816886Y-88870000D01*
X128063114Y-88870000D01*
X128304611Y-88821963D01*
X128532097Y-88727735D01*
X128736828Y-88590938D01*
X128910938Y-88416828D01*
X129047735Y-88212097D01*
X129141963Y-87984611D01*
X129190000Y-87743114D01*
X129190000Y-87496886D01*
X129141963Y-87255389D01*
X129047735Y-87027903D01*
X128910938Y-86823172D01*
X128736828Y-86649062D01*
X128532097Y-86512265D01*
X128304611Y-86418037D01*
X128063114Y-86370000D01*
X127816886Y-86370000D01*
X127575389Y-86418037D01*
X127347903Y-86512265D01*
X127143172Y-86649062D01*
X126969062Y-86823172D01*
X126832265Y-87027903D01*
X126738037Y-87255389D01*
X126690000Y-87496886D01*
X113745414Y-87496886D01*
X112845113Y-86596586D01*
X112826317Y-86573683D01*
X112734955Y-86498704D01*
X112630721Y-86442990D01*
X112517621Y-86408682D01*
X112429474Y-86400000D01*
X112400000Y-86397097D01*
X112370526Y-86400000D01*
X108400000Y-86400000D01*
X108400000Y-83399474D01*
X108402903Y-83370000D01*
X108391318Y-83252379D01*
X108357010Y-83139279D01*
X108324113Y-83077733D01*
X108301296Y-83035045D01*
X108226317Y-82943683D01*
X108203419Y-82924891D01*
X107545239Y-82266712D01*
X107538099Y-82230818D01*
X107485332Y-82103426D01*
X107408726Y-81988776D01*
X107311224Y-81891274D01*
X107196574Y-81814668D01*
X107069182Y-81761901D01*
X107033289Y-81754761D01*
X106895239Y-81616711D01*
X106888099Y-81580818D01*
X106844268Y-81475000D01*
X123663250Y-81475000D01*
X126786541Y-84598291D01*
X126738037Y-84715389D01*
X126690000Y-84956886D01*
X126690000Y-85203114D01*
X126738037Y-85444611D01*
X126832265Y-85672097D01*
X126969062Y-85876828D01*
X127143172Y-86050938D01*
X127347903Y-86187735D01*
X127575389Y-86281963D01*
X127816886Y-86330000D01*
X128063114Y-86330000D01*
X128304611Y-86281963D01*
X128532097Y-86187735D01*
X128736828Y-86050938D01*
X128910938Y-85876828D01*
X129047735Y-85672097D01*
X129141963Y-85444611D01*
X129190000Y-85203114D01*
X129190000Y-84956886D01*
X129141963Y-84715389D01*
X129047735Y-84487903D01*
X128910938Y-84283172D01*
X128736828Y-84109062D01*
X128532097Y-83972265D01*
X128304611Y-83878037D01*
X128063114Y-83830000D01*
X127816886Y-83830000D01*
X127575389Y-83878037D01*
X127458291Y-83926541D01*
X124536750Y-81005000D01*
X125733250Y-81005000D01*
X126786541Y-82058291D01*
X126738037Y-82175389D01*
X126690000Y-82416886D01*
X126690000Y-82663114D01*
X126738037Y-82904611D01*
X126832265Y-83132097D01*
X126969062Y-83336828D01*
X127143172Y-83510938D01*
X127347903Y-83647735D01*
X127575389Y-83741963D01*
X127816886Y-83790000D01*
X128063114Y-83790000D01*
X128304611Y-83741963D01*
X128532097Y-83647735D01*
X128736828Y-83510938D01*
X128910938Y-83336828D01*
X129047735Y-83132097D01*
X129141963Y-82904611D01*
X129190000Y-82663114D01*
X129190000Y-82416886D01*
X129141963Y-82175389D01*
X129047735Y-81947903D01*
X128910938Y-81743172D01*
X128736828Y-81569062D01*
X128532097Y-81432265D01*
X128304611Y-81338037D01*
X128063114Y-81290000D01*
X127816886Y-81290000D01*
X127575389Y-81338037D01*
X127458291Y-81386541D01*
X127323686Y-81251935D01*
X128790000Y-81251935D01*
X128868414Y-81244212D01*
X128943814Y-81221340D01*
X129013303Y-81184197D01*
X129074211Y-81134211D01*
X129124197Y-81073303D01*
X129161340Y-81003814D01*
X129184212Y-80928414D01*
X129191935Y-80850000D01*
X129191935Y-79150000D01*
X129184212Y-79071586D01*
X129161340Y-78996186D01*
X129124197Y-78926697D01*
X129074211Y-78865789D01*
X129013303Y-78815803D01*
X128943814Y-78778660D01*
X128868414Y-78755788D01*
X128790000Y-78748065D01*
X127090000Y-78748065D01*
X127011586Y-78755788D01*
X126936186Y-78778660D01*
X126866697Y-78815803D01*
X126805789Y-78865789D01*
X126755803Y-78926697D01*
X126718660Y-78996186D01*
X126695788Y-79071586D01*
X126688065Y-79150000D01*
X126688065Y-80616315D01*
X126282384Y-80210634D01*
X126267501Y-80192499D01*
X126195173Y-80133141D01*
X126112654Y-80089034D01*
X126023116Y-80061873D01*
X125953332Y-80055000D01*
X125930000Y-80052702D01*
X125906668Y-80055000D01*
X105882882Y-80055000D01*
X105900000Y-79968944D01*
X105900000Y-79831056D01*
X105873099Y-79695818D01*
X105820332Y-79568426D01*
X105743726Y-79453776D01*
X105646224Y-79356274D01*
X105531574Y-79279668D01*
X105404182Y-79226901D01*
X105268944Y-79200000D01*
X105131056Y-79200000D01*
X104995818Y-79226901D01*
X104868426Y-79279668D01*
X104753776Y-79356274D01*
X104745791Y-79364259D01*
X104723303Y-79345803D01*
X104653814Y-79308660D01*
X104578414Y-79285788D01*
X104500000Y-79278065D01*
X104350000Y-79280000D01*
X104250000Y-79380000D01*
X104250000Y-79880000D01*
X104270000Y-79880000D01*
X104270000Y-79980000D01*
X104250000Y-79980000D01*
X104250000Y-80000000D01*
X104150000Y-80000000D01*
X104150000Y-79980000D01*
X103600000Y-79980000D01*
X103500000Y-80080000D01*
X103498065Y-80180000D01*
X103505788Y-80258414D01*
X103528660Y-80333814D01*
X103548002Y-80370000D01*
X103400000Y-80370000D01*
X103400000Y-80200000D01*
X103396157Y-80160982D01*
X103384776Y-80123463D01*
X103366294Y-80088886D01*
X103341421Y-80058579D01*
X103311114Y-80033706D01*
X103276537Y-80015224D01*
X103239018Y-80003843D01*
X103200000Y-80000000D01*
X103043738Y-80000000D01*
X103073303Y-79984197D01*
X103134211Y-79934211D01*
X103184197Y-79873303D01*
X103221340Y-79803814D01*
X103244212Y-79728414D01*
X103248980Y-79680000D01*
X103498065Y-79680000D01*
X103500000Y-79780000D01*
X103600000Y-79880000D01*
X104150000Y-79880000D01*
X104150000Y-79380000D01*
X104050000Y-79280000D01*
X103900000Y-79278065D01*
X103821586Y-79285788D01*
X103746186Y-79308660D01*
X103676697Y-79345803D01*
X103615789Y-79395789D01*
X103565803Y-79456697D01*
X103528660Y-79526186D01*
X103505788Y-79601586D01*
X103498065Y-79680000D01*
X103248980Y-79680000D01*
X103251935Y-79650000D01*
X103250000Y-79350000D01*
X103150000Y-79250000D01*
X102600000Y-79250000D01*
X102600000Y-79270000D01*
X102500000Y-79270000D01*
X102500000Y-79250000D01*
X101950000Y-79250000D01*
X101850000Y-79350000D01*
X101848065Y-79650000D01*
X101855788Y-79728414D01*
X101878660Y-79803814D01*
X101915803Y-79873303D01*
X101965789Y-79934211D01*
X102026697Y-79984197D01*
X102056262Y-80000000D01*
X101576567Y-80000000D01*
X101573406Y-79984112D01*
X101634211Y-79934211D01*
X101684197Y-79873303D01*
X101721340Y-79803814D01*
X101744212Y-79728414D01*
X101751935Y-79650000D01*
X101751935Y-78750000D01*
X101744212Y-78671586D01*
X101721340Y-78596186D01*
X101684197Y-78526697D01*
X101634211Y-78465789D01*
X101583891Y-78424492D01*
X102016118Y-78424485D01*
X101965789Y-78465789D01*
X101915803Y-78526697D01*
X101878660Y-78596186D01*
X101855788Y-78671586D01*
X101848065Y-78750000D01*
X101850000Y-79050000D01*
X101950000Y-79150000D01*
X102500000Y-79150000D01*
X102500000Y-79130000D01*
X102600000Y-79130000D01*
X102600000Y-79150000D01*
X103150000Y-79150000D01*
X103250000Y-79050000D01*
X103251935Y-78750000D01*
X103244212Y-78671586D01*
X103221340Y-78596186D01*
X103184197Y-78526697D01*
X103134211Y-78465789D01*
X103083860Y-78424467D01*
X128679207Y-78424039D01*
X128869747Y-78442722D01*
G36*
X99298065Y-78480000D02*
G01*
X99300000Y-78580000D01*
X99399998Y-78679998D01*
X99300000Y-78679998D01*
X99300000Y-78698065D01*
X98820000Y-78698065D01*
X98741586Y-78705788D01*
X98666186Y-78728660D01*
X98600000Y-78764037D01*
X98533814Y-78728660D01*
X98458414Y-78705788D01*
X98380000Y-78698065D01*
X97880000Y-78698065D01*
X97801586Y-78705788D01*
X97726186Y-78728660D01*
X97656697Y-78765803D01*
X97595789Y-78815789D01*
X97545803Y-78876697D01*
X97508660Y-78946186D01*
X97485788Y-79021586D01*
X97478065Y-79100000D01*
X97478065Y-79700000D01*
X97485788Y-79778414D01*
X97508660Y-79853814D01*
X97545803Y-79923303D01*
X97595789Y-79984211D01*
X97615028Y-80000000D01*
X96851290Y-80000000D01*
X96851935Y-79950000D01*
X96844212Y-79871586D01*
X96821340Y-79796186D01*
X96784197Y-79726697D01*
X96734211Y-79665789D01*
X96673303Y-79615803D01*
X96603814Y-79578660D01*
X96528414Y-79555788D01*
X96450000Y-79548065D01*
X96150000Y-79550000D01*
X96050000Y-79650000D01*
X96050000Y-80200000D01*
X96070000Y-80200000D01*
X96070000Y-80300000D01*
X96050000Y-80300000D01*
X96050000Y-80850000D01*
X96150000Y-80950000D01*
X96450000Y-80951935D01*
X96528414Y-80944212D01*
X96600000Y-80922497D01*
X96600000Y-81077503D01*
X96528414Y-81055788D01*
X96450000Y-81048065D01*
X95550000Y-81048065D01*
X95471586Y-81055788D01*
X95415209Y-81072889D01*
X95304182Y-81026901D01*
X95168944Y-81000000D01*
X95031056Y-81000000D01*
X94895818Y-81026901D01*
X94768426Y-81079668D01*
X94737997Y-81100000D01*
X94362003Y-81100000D01*
X94331574Y-81079668D01*
X94204182Y-81026901D01*
X94068944Y-81000000D01*
X93931056Y-81000000D01*
X93795818Y-81026901D01*
X93668426Y-81079668D01*
X93637997Y-81100000D01*
X87229474Y-81100000D01*
X87200000Y-81097097D01*
X87170526Y-81100000D01*
X74008528Y-81100000D01*
X73458528Y-80550000D01*
X95148065Y-80550000D01*
X95155788Y-80628414D01*
X95178660Y-80703814D01*
X95215803Y-80773303D01*
X95265789Y-80834211D01*
X95326697Y-80884197D01*
X95396186Y-80921340D01*
X95471586Y-80944212D01*
X95550000Y-80951935D01*
X95850000Y-80950000D01*
X95950000Y-80850000D01*
X95950000Y-80300000D01*
X95250000Y-80300000D01*
X95150000Y-80400000D01*
X95148065Y-80550000D01*
X73458528Y-80550000D01*
X73311935Y-80403408D01*
X73311935Y-79950000D01*
X95148065Y-79950000D01*
X95150000Y-80100000D01*
X95250000Y-80200000D01*
X95950000Y-80200000D01*
X95950000Y-79650000D01*
X95850000Y-79550000D01*
X95550000Y-79548065D01*
X95471586Y-79555788D01*
X95396186Y-79578660D01*
X95326697Y-79615803D01*
X95265789Y-79665789D01*
X95215803Y-79726697D01*
X95178660Y-79796186D01*
X95155788Y-79871586D01*
X95148065Y-79950000D01*
X73311935Y-79950000D01*
X73311935Y-79150000D01*
X73304212Y-79071586D01*
X73281340Y-78996186D01*
X73244197Y-78926697D01*
X73194211Y-78865789D01*
X73133303Y-78815803D01*
X73063814Y-78778660D01*
X72988414Y-78755788D01*
X72910000Y-78748065D01*
X71210000Y-78748065D01*
X71131586Y-78755788D01*
X71056186Y-78778660D01*
X70986697Y-78815803D01*
X70925789Y-78865789D01*
X70875803Y-78926697D01*
X70838660Y-78996186D01*
X70815788Y-79071586D01*
X70808065Y-79150000D01*
X70808065Y-80850000D01*
X70815788Y-80928414D01*
X70838660Y-81003814D01*
X70875803Y-81073303D01*
X70925789Y-81134211D01*
X70986697Y-81184197D01*
X71056186Y-81221340D01*
X71131586Y-81244212D01*
X71210000Y-81251935D01*
X72463408Y-81251935D01*
X72637826Y-81426354D01*
X72424611Y-81338037D01*
X72183114Y-81290000D01*
X71936886Y-81290000D01*
X71695389Y-81338037D01*
X71467903Y-81432265D01*
X71263172Y-81569062D01*
X71089062Y-81743172D01*
X70952265Y-81947903D01*
X70858037Y-82175389D01*
X70810000Y-82416886D01*
X70810000Y-82663114D01*
X70858037Y-82904611D01*
X70952265Y-83132097D01*
X71089062Y-83336828D01*
X71263172Y-83510938D01*
X71467903Y-83647735D01*
X71695389Y-83741963D01*
X71936886Y-83790000D01*
X72183114Y-83790000D01*
X72424611Y-83741963D01*
X72652097Y-83647735D01*
X72856828Y-83510938D01*
X73030938Y-83336828D01*
X73167735Y-83132097D01*
X73261963Y-82904611D01*
X73310000Y-82663114D01*
X73310000Y-82416886D01*
X73261963Y-82175389D01*
X73173646Y-81962174D01*
X73314891Y-82103419D01*
X73333683Y-82126317D01*
X73425045Y-82201296D01*
X73529279Y-82257010D01*
X73618950Y-82284211D01*
X73642379Y-82291318D01*
X73759999Y-82302903D01*
X73789473Y-82300000D01*
X86650000Y-82300000D01*
X86650001Y-88102989D01*
X86621586Y-88105788D01*
X86546186Y-88128660D01*
X86500000Y-88153347D01*
X86453814Y-88128660D01*
X86378414Y-88105788D01*
X86300000Y-88098065D01*
X85200000Y-88098065D01*
X85121586Y-88105788D01*
X85046186Y-88128660D01*
X84976697Y-88165803D01*
X84915789Y-88215789D01*
X84865803Y-88276697D01*
X84828660Y-88346186D01*
X84805788Y-88421586D01*
X84798065Y-88500000D01*
X84798065Y-89325000D01*
X76976751Y-89325000D01*
X73213459Y-85561709D01*
X73261963Y-85444611D01*
X73310000Y-85203114D01*
X73310000Y-84956886D01*
X73261963Y-84715389D01*
X73167735Y-84487903D01*
X73030938Y-84283172D01*
X72856828Y-84109062D01*
X72652097Y-83972265D01*
X72424611Y-83878037D01*
X72183114Y-83830000D01*
X71936886Y-83830000D01*
X71695389Y-83878037D01*
X71467903Y-83972265D01*
X71263172Y-84109062D01*
X71089062Y-84283172D01*
X70952265Y-84487903D01*
X70858037Y-84715389D01*
X70810000Y-84956886D01*
X70810000Y-85203114D01*
X70858037Y-85444611D01*
X70952265Y-85672097D01*
X71089062Y-85876828D01*
X71263172Y-86050938D01*
X71467903Y-86187735D01*
X71695389Y-86281963D01*
X71936886Y-86330000D01*
X72183114Y-86330000D01*
X72424611Y-86281963D01*
X72541709Y-86233459D01*
X76427621Y-90119372D01*
X76442499Y-90137501D01*
X76514827Y-90196859D01*
X76597346Y-90240966D01*
X76659722Y-90259888D01*
X76686883Y-90268127D01*
X76779999Y-90277298D01*
X76803332Y-90275000D01*
X85400527Y-90275000D01*
X85398065Y-90300000D01*
X85398065Y-92525001D01*
X76700000Y-92525001D01*
X76700000Y-92431056D01*
X76673099Y-92295818D01*
X76620332Y-92168426D01*
X76543726Y-92053776D01*
X76446224Y-91956274D01*
X76331574Y-91879668D01*
X76204182Y-91826901D01*
X76068944Y-91800000D01*
X75931056Y-91800000D01*
X75795818Y-91826901D01*
X75668426Y-91879668D01*
X75553776Y-91956274D01*
X75456274Y-92053776D01*
X75379668Y-92168426D01*
X75326901Y-92295818D01*
X75300000Y-92431056D01*
X75300000Y-92568944D01*
X75326901Y-92704182D01*
X75362940Y-92791188D01*
X73262376Y-90690626D01*
X73262372Y-90690621D01*
X73213459Y-90641709D01*
X73261963Y-90524611D01*
X73310000Y-90283114D01*
X73310000Y-90036886D01*
X73261963Y-89795389D01*
X73167735Y-89567903D01*
X73030938Y-89363172D01*
X72856828Y-89189062D01*
X72652097Y-89052265D01*
X72424611Y-88958037D01*
X72183114Y-88910000D01*
X71936886Y-88910000D01*
X71695389Y-88958037D01*
X71467903Y-89052265D01*
X71263172Y-89189062D01*
X71089062Y-89363172D01*
X70952265Y-89567903D01*
X70858037Y-89795389D01*
X70810000Y-90036886D01*
X70810000Y-90283114D01*
X70858037Y-90524611D01*
X70952265Y-90752097D01*
X71089062Y-90956828D01*
X71263172Y-91130938D01*
X71467903Y-91267735D01*
X71695389Y-91361963D01*
X71936886Y-91410000D01*
X72183114Y-91410000D01*
X72424611Y-91361963D01*
X72541709Y-91313459D01*
X72590621Y-91362372D01*
X72590626Y-91362376D01*
X74824637Y-93596389D01*
X74839511Y-93614513D01*
X74857633Y-93629385D01*
X74857634Y-93629386D01*
X74911839Y-93673871D01*
X74994358Y-93717978D01*
X75083896Y-93745139D01*
X75177012Y-93754310D01*
X75200344Y-93752012D01*
X84798065Y-93752012D01*
X84798065Y-94500000D01*
X84805788Y-94578414D01*
X84828660Y-94653814D01*
X84865803Y-94723303D01*
X84915789Y-94784211D01*
X84976697Y-94834197D01*
X85046186Y-94871340D01*
X85121586Y-94894212D01*
X85150001Y-94897011D01*
X85150000Y-100020526D01*
X85147097Y-100050000D01*
X85150000Y-100079473D01*
X85158682Y-100167620D01*
X85192990Y-100280720D01*
X85248704Y-100384954D01*
X85323683Y-100476317D01*
X85346586Y-100495113D01*
X89426472Y-104575000D01*
X71310990Y-104575000D01*
X71130253Y-104557278D01*
X70966973Y-104507981D01*
X70816379Y-104427909D01*
X70684202Y-104320109D01*
X70575486Y-104188693D01*
X70494362Y-104038657D01*
X70442930Y-103872509D01*
X70425000Y-103724370D01*
X70425000Y-103104771D01*
X70834199Y-103104771D01*
X70904795Y-103337500D01*
X71020148Y-103553694D01*
X71175461Y-103743230D01*
X71364767Y-103898824D01*
X71580790Y-104014497D01*
X71815229Y-104085803D01*
X72010000Y-104009002D01*
X72010000Y-102910000D01*
X72110000Y-102910000D01*
X72110000Y-104009002D01*
X72304771Y-104085803D01*
X72539210Y-104014497D01*
X72755233Y-103898824D01*
X72944539Y-103743230D01*
X73099852Y-103553694D01*
X73215205Y-103337500D01*
X73285801Y-103104771D01*
X73208913Y-102910000D01*
X72110000Y-102910000D01*
X72010000Y-102910000D01*
X70911087Y-102910000D01*
X70834199Y-103104771D01*
X70425000Y-103104771D01*
X70425000Y-102615229D01*
X70834199Y-102615229D01*
X70911087Y-102810000D01*
X72010000Y-102810000D01*
X72010000Y-101710998D01*
X72110000Y-101710998D01*
X72110000Y-102810000D01*
X73208913Y-102810000D01*
X73285801Y-102615229D01*
X73215205Y-102382500D01*
X73099852Y-102166306D01*
X72944539Y-101976770D01*
X72755233Y-101821176D01*
X72539210Y-101705503D01*
X72304771Y-101634197D01*
X72110000Y-101710998D01*
X72010000Y-101710998D01*
X71815229Y-101634197D01*
X71580790Y-101705503D01*
X71364767Y-101821176D01*
X71175461Y-101976770D01*
X71020148Y-102166306D01*
X70904795Y-102382500D01*
X70834199Y-102615229D01*
X70425000Y-102615229D01*
X70425000Y-100196886D01*
X70810000Y-100196886D01*
X70810000Y-100443114D01*
X70858037Y-100684611D01*
X70952265Y-100912097D01*
X71089062Y-101116828D01*
X71263172Y-101290938D01*
X71467903Y-101427735D01*
X71695389Y-101521963D01*
X71936886Y-101570000D01*
X72183114Y-101570000D01*
X72424611Y-101521963D01*
X72652097Y-101427735D01*
X72856828Y-101290938D01*
X73030938Y-101116828D01*
X73167735Y-100912097D01*
X73261963Y-100684611D01*
X73310000Y-100443114D01*
X73310000Y-100196886D01*
X73261963Y-99955389D01*
X73167735Y-99727903D01*
X73030938Y-99523172D01*
X72856828Y-99349062D01*
X72652097Y-99212265D01*
X72424611Y-99118037D01*
X72183114Y-99070000D01*
X71936886Y-99070000D01*
X71695389Y-99118037D01*
X71467903Y-99212265D01*
X71263172Y-99349062D01*
X71089062Y-99523172D01*
X70952265Y-99727903D01*
X70858037Y-99955389D01*
X70810000Y-100196886D01*
X70425000Y-100196886D01*
X70425000Y-97656886D01*
X70810000Y-97656886D01*
X70810000Y-97903114D01*
X70858037Y-98144611D01*
X70952265Y-98372097D01*
X71089062Y-98576828D01*
X71263172Y-98750938D01*
X71467903Y-98887735D01*
X71695389Y-98981963D01*
X71936886Y-99030000D01*
X72183114Y-99030000D01*
X72424611Y-98981963D01*
X72652097Y-98887735D01*
X72856828Y-98750938D01*
X73030938Y-98576828D01*
X73167735Y-98372097D01*
X73261963Y-98144611D01*
X73310000Y-97903114D01*
X73310000Y-97656886D01*
X73261963Y-97415389D01*
X73167735Y-97187903D01*
X73030938Y-96983172D01*
X72856828Y-96809062D01*
X72652097Y-96672265D01*
X72424611Y-96578037D01*
X72183114Y-96530000D01*
X71936886Y-96530000D01*
X71695389Y-96578037D01*
X71467903Y-96672265D01*
X71263172Y-96809062D01*
X71089062Y-96983172D01*
X70952265Y-97187903D01*
X70858037Y-97415389D01*
X70810000Y-97656886D01*
X70425000Y-97656886D01*
X70425000Y-95116886D01*
X70810000Y-95116886D01*
X70810000Y-95363114D01*
X70858037Y-95604611D01*
X70952265Y-95832097D01*
X71089062Y-96036828D01*
X71263172Y-96210938D01*
X71467903Y-96347735D01*
X71695389Y-96441963D01*
X71936886Y-96490000D01*
X72183114Y-96490000D01*
X72424611Y-96441963D01*
X72652097Y-96347735D01*
X72856828Y-96210938D01*
X73030938Y-96036828D01*
X73167735Y-95832097D01*
X73261963Y-95604611D01*
X73310000Y-95363114D01*
X73310000Y-95116886D01*
X73261963Y-94875389D01*
X73167735Y-94647903D01*
X73030938Y-94443172D01*
X72856828Y-94269062D01*
X72652097Y-94132265D01*
X72424611Y-94038037D01*
X72183114Y-93990000D01*
X71936886Y-93990000D01*
X71695389Y-94038037D01*
X71467903Y-94132265D01*
X71263172Y-94269062D01*
X71089062Y-94443172D01*
X70952265Y-94647903D01*
X70858037Y-94875389D01*
X70810000Y-95116886D01*
X70425000Y-95116886D01*
X70425000Y-92576886D01*
X70810000Y-92576886D01*
X70810000Y-92823114D01*
X70858037Y-93064611D01*
X70952265Y-93292097D01*
X71089062Y-93496828D01*
X71263172Y-93670938D01*
X71467903Y-93807735D01*
X71695389Y-93901963D01*
X71936886Y-93950000D01*
X72183114Y-93950000D01*
X72424611Y-93901963D01*
X72652097Y-93807735D01*
X72856828Y-93670938D01*
X73030938Y-93496828D01*
X73167735Y-93292097D01*
X73261963Y-93064611D01*
X73310000Y-92823114D01*
X73310000Y-92576886D01*
X73261963Y-92335389D01*
X73167735Y-92107903D01*
X73030938Y-91903172D01*
X72856828Y-91729062D01*
X72652097Y-91592265D01*
X72424611Y-91498037D01*
X72183114Y-91450000D01*
X71936886Y-91450000D01*
X71695389Y-91498037D01*
X71467903Y-91592265D01*
X71263172Y-91729062D01*
X71089062Y-91903172D01*
X70952265Y-92107903D01*
X70858037Y-92335389D01*
X70810000Y-92576886D01*
X70425000Y-92576886D01*
X70425000Y-87496886D01*
X70810000Y-87496886D01*
X70810000Y-87743114D01*
X70858037Y-87984611D01*
X70952265Y-88212097D01*
X71089062Y-88416828D01*
X71263172Y-88590938D01*
X71467903Y-88727735D01*
X71695389Y-88821963D01*
X71936886Y-88870000D01*
X72183114Y-88870000D01*
X72424611Y-88821963D01*
X72652097Y-88727735D01*
X72856828Y-88590938D01*
X73030938Y-88416828D01*
X73167735Y-88212097D01*
X73261963Y-87984611D01*
X73310000Y-87743114D01*
X73310000Y-87496886D01*
X73261963Y-87255389D01*
X73167735Y-87027903D01*
X73030938Y-86823172D01*
X72856828Y-86649062D01*
X72652097Y-86512265D01*
X72424611Y-86418037D01*
X72183114Y-86370000D01*
X71936886Y-86370000D01*
X71695389Y-86418037D01*
X71467903Y-86512265D01*
X71263172Y-86649062D01*
X71089062Y-86823172D01*
X70952265Y-87027903D01*
X70858037Y-87255389D01*
X70810000Y-87496886D01*
X70425000Y-87496886D01*
X70425000Y-79310989D01*
X70442722Y-79130253D01*
X70492019Y-78966973D01*
X70572091Y-78816379D01*
X70679891Y-78684203D01*
X70811310Y-78575484D01*
X70961343Y-78494362D01*
X71127491Y-78442930D01*
X71275636Y-78424999D01*
X99303528Y-78424530D01*
X99298065Y-78480000D01*
G37*
X99298065Y-78480000D02*
X99300000Y-78580000D01*
X99399998Y-78679998D01*
X99300000Y-78679998D01*
X99300000Y-78698065D01*
X98820000Y-78698065D01*
X98741586Y-78705788D01*
X98666186Y-78728660D01*
X98600000Y-78764037D01*
X98533814Y-78728660D01*
X98458414Y-78705788D01*
X98380000Y-78698065D01*
X97880000Y-78698065D01*
X97801586Y-78705788D01*
X97726186Y-78728660D01*
X97656697Y-78765803D01*
X97595789Y-78815789D01*
X97545803Y-78876697D01*
X97508660Y-78946186D01*
X97485788Y-79021586D01*
X97478065Y-79100000D01*
X97478065Y-79700000D01*
X97485788Y-79778414D01*
X97508660Y-79853814D01*
X97545803Y-79923303D01*
X97595789Y-79984211D01*
X97615028Y-80000000D01*
X96851290Y-80000000D01*
X96851935Y-79950000D01*
X96844212Y-79871586D01*
X96821340Y-79796186D01*
X96784197Y-79726697D01*
X96734211Y-79665789D01*
X96673303Y-79615803D01*
X96603814Y-79578660D01*
X96528414Y-79555788D01*
X96450000Y-79548065D01*
X96150000Y-79550000D01*
X96050000Y-79650000D01*
X96050000Y-80200000D01*
X96070000Y-80200000D01*
X96070000Y-80300000D01*
X96050000Y-80300000D01*
X96050000Y-80850000D01*
X96150000Y-80950000D01*
X96450000Y-80951935D01*
X96528414Y-80944212D01*
X96600000Y-80922497D01*
X96600000Y-81077503D01*
X96528414Y-81055788D01*
X96450000Y-81048065D01*
X95550000Y-81048065D01*
X95471586Y-81055788D01*
X95415209Y-81072889D01*
X95304182Y-81026901D01*
X95168944Y-81000000D01*
X95031056Y-81000000D01*
X94895818Y-81026901D01*
X94768426Y-81079668D01*
X94737997Y-81100000D01*
X94362003Y-81100000D01*
X94331574Y-81079668D01*
X94204182Y-81026901D01*
X94068944Y-81000000D01*
X93931056Y-81000000D01*
X93795818Y-81026901D01*
X93668426Y-81079668D01*
X93637997Y-81100000D01*
X87229474Y-81100000D01*
X87200000Y-81097097D01*
X87170526Y-81100000D01*
X74008528Y-81100000D01*
X73458528Y-80550000D01*
X95148065Y-80550000D01*
X95155788Y-80628414D01*
X95178660Y-80703814D01*
X95215803Y-80773303D01*
X95265789Y-80834211D01*
X95326697Y-80884197D01*
X95396186Y-80921340D01*
X95471586Y-80944212D01*
X95550000Y-80951935D01*
X95850000Y-80950000D01*
X95950000Y-80850000D01*
X95950000Y-80300000D01*
X95250000Y-80300000D01*
X95150000Y-80400000D01*
X95148065Y-80550000D01*
X73458528Y-80550000D01*
X73311935Y-80403408D01*
X73311935Y-79950000D01*
X95148065Y-79950000D01*
X95150000Y-80100000D01*
X95250000Y-80200000D01*
X95950000Y-80200000D01*
X95950000Y-79650000D01*
X95850000Y-79550000D01*
X95550000Y-79548065D01*
X95471586Y-79555788D01*
X95396186Y-79578660D01*
X95326697Y-79615803D01*
X95265789Y-79665789D01*
X95215803Y-79726697D01*
X95178660Y-79796186D01*
X95155788Y-79871586D01*
X95148065Y-79950000D01*
X73311935Y-79950000D01*
X73311935Y-79150000D01*
X73304212Y-79071586D01*
X73281340Y-78996186D01*
X73244197Y-78926697D01*
X73194211Y-78865789D01*
X73133303Y-78815803D01*
X73063814Y-78778660D01*
X72988414Y-78755788D01*
X72910000Y-78748065D01*
X71210000Y-78748065D01*
X71131586Y-78755788D01*
X71056186Y-78778660D01*
X70986697Y-78815803D01*
X70925789Y-78865789D01*
X70875803Y-78926697D01*
X70838660Y-78996186D01*
X70815788Y-79071586D01*
X70808065Y-79150000D01*
X70808065Y-80850000D01*
X70815788Y-80928414D01*
X70838660Y-81003814D01*
X70875803Y-81073303D01*
X70925789Y-81134211D01*
X70986697Y-81184197D01*
X71056186Y-81221340D01*
X71131586Y-81244212D01*
X71210000Y-81251935D01*
X72463408Y-81251935D01*
X72637826Y-81426354D01*
X72424611Y-81338037D01*
X72183114Y-81290000D01*
X71936886Y-81290000D01*
X71695389Y-81338037D01*
X71467903Y-81432265D01*
X71263172Y-81569062D01*
X71089062Y-81743172D01*
X70952265Y-81947903D01*
X70858037Y-82175389D01*
X70810000Y-82416886D01*
X70810000Y-82663114D01*
X70858037Y-82904611D01*
X70952265Y-83132097D01*
X71089062Y-83336828D01*
X71263172Y-83510938D01*
X71467903Y-83647735D01*
X71695389Y-83741963D01*
X71936886Y-83790000D01*
X72183114Y-83790000D01*
X72424611Y-83741963D01*
X72652097Y-83647735D01*
X72856828Y-83510938D01*
X73030938Y-83336828D01*
X73167735Y-83132097D01*
X73261963Y-82904611D01*
X73310000Y-82663114D01*
X73310000Y-82416886D01*
X73261963Y-82175389D01*
X73173646Y-81962174D01*
X73314891Y-82103419D01*
X73333683Y-82126317D01*
X73425045Y-82201296D01*
X73529279Y-82257010D01*
X73618950Y-82284211D01*
X73642379Y-82291318D01*
X73759999Y-82302903D01*
X73789473Y-82300000D01*
X86650000Y-82300000D01*
X86650001Y-88102989D01*
X86621586Y-88105788D01*
X86546186Y-88128660D01*
X86500000Y-88153347D01*
X86453814Y-88128660D01*
X86378414Y-88105788D01*
X86300000Y-88098065D01*
X85200000Y-88098065D01*
X85121586Y-88105788D01*
X85046186Y-88128660D01*
X84976697Y-88165803D01*
X84915789Y-88215789D01*
X84865803Y-88276697D01*
X84828660Y-88346186D01*
X84805788Y-88421586D01*
X84798065Y-88500000D01*
X84798065Y-89325000D01*
X76976751Y-89325000D01*
X73213459Y-85561709D01*
X73261963Y-85444611D01*
X73310000Y-85203114D01*
X73310000Y-84956886D01*
X73261963Y-84715389D01*
X73167735Y-84487903D01*
X73030938Y-84283172D01*
X72856828Y-84109062D01*
X72652097Y-83972265D01*
X72424611Y-83878037D01*
X72183114Y-83830000D01*
X71936886Y-83830000D01*
X71695389Y-83878037D01*
X71467903Y-83972265D01*
X71263172Y-84109062D01*
X71089062Y-84283172D01*
X70952265Y-84487903D01*
X70858037Y-84715389D01*
X70810000Y-84956886D01*
X70810000Y-85203114D01*
X70858037Y-85444611D01*
X70952265Y-85672097D01*
X71089062Y-85876828D01*
X71263172Y-86050938D01*
X71467903Y-86187735D01*
X71695389Y-86281963D01*
X71936886Y-86330000D01*
X72183114Y-86330000D01*
X72424611Y-86281963D01*
X72541709Y-86233459D01*
X76427621Y-90119372D01*
X76442499Y-90137501D01*
X76514827Y-90196859D01*
X76597346Y-90240966D01*
X76659722Y-90259888D01*
X76686883Y-90268127D01*
X76779999Y-90277298D01*
X76803332Y-90275000D01*
X85400527Y-90275000D01*
X85398065Y-90300000D01*
X85398065Y-92525001D01*
X76700000Y-92525001D01*
X76700000Y-92431056D01*
X76673099Y-92295818D01*
X76620332Y-92168426D01*
X76543726Y-92053776D01*
X76446224Y-91956274D01*
X76331574Y-91879668D01*
X76204182Y-91826901D01*
X76068944Y-91800000D01*
X75931056Y-91800000D01*
X75795818Y-91826901D01*
X75668426Y-91879668D01*
X75553776Y-91956274D01*
X75456274Y-92053776D01*
X75379668Y-92168426D01*
X75326901Y-92295818D01*
X75300000Y-92431056D01*
X75300000Y-92568944D01*
X75326901Y-92704182D01*
X75362940Y-92791188D01*
X73262376Y-90690626D01*
X73262372Y-90690621D01*
X73213459Y-90641709D01*
X73261963Y-90524611D01*
X73310000Y-90283114D01*
X73310000Y-90036886D01*
X73261963Y-89795389D01*
X73167735Y-89567903D01*
X73030938Y-89363172D01*
X72856828Y-89189062D01*
X72652097Y-89052265D01*
X72424611Y-88958037D01*
X72183114Y-88910000D01*
X71936886Y-88910000D01*
X71695389Y-88958037D01*
X71467903Y-89052265D01*
X71263172Y-89189062D01*
X71089062Y-89363172D01*
X70952265Y-89567903D01*
X70858037Y-89795389D01*
X70810000Y-90036886D01*
X70810000Y-90283114D01*
X70858037Y-90524611D01*
X70952265Y-90752097D01*
X71089062Y-90956828D01*
X71263172Y-91130938D01*
X71467903Y-91267735D01*
X71695389Y-91361963D01*
X71936886Y-91410000D01*
X72183114Y-91410000D01*
X72424611Y-91361963D01*
X72541709Y-91313459D01*
X72590621Y-91362372D01*
X72590626Y-91362376D01*
X74824637Y-93596389D01*
X74839511Y-93614513D01*
X74857633Y-93629385D01*
X74857634Y-93629386D01*
X74911839Y-93673871D01*
X74994358Y-93717978D01*
X75083896Y-93745139D01*
X75177012Y-93754310D01*
X75200344Y-93752012D01*
X84798065Y-93752012D01*
X84798065Y-94500000D01*
X84805788Y-94578414D01*
X84828660Y-94653814D01*
X84865803Y-94723303D01*
X84915789Y-94784211D01*
X84976697Y-94834197D01*
X85046186Y-94871340D01*
X85121586Y-94894212D01*
X85150001Y-94897011D01*
X85150000Y-100020526D01*
X85147097Y-100050000D01*
X85150000Y-100079473D01*
X85158682Y-100167620D01*
X85192990Y-100280720D01*
X85248704Y-100384954D01*
X85323683Y-100476317D01*
X85346586Y-100495113D01*
X89426472Y-104575000D01*
X71310990Y-104575000D01*
X71130253Y-104557278D01*
X70966973Y-104507981D01*
X70816379Y-104427909D01*
X70684202Y-104320109D01*
X70575486Y-104188693D01*
X70494362Y-104038657D01*
X70442930Y-103872509D01*
X70425000Y-103724370D01*
X70425000Y-103104771D01*
X70834199Y-103104771D01*
X70904795Y-103337500D01*
X71020148Y-103553694D01*
X71175461Y-103743230D01*
X71364767Y-103898824D01*
X71580790Y-104014497D01*
X71815229Y-104085803D01*
X72010000Y-104009002D01*
X72010000Y-102910000D01*
X72110000Y-102910000D01*
X72110000Y-104009002D01*
X72304771Y-104085803D01*
X72539210Y-104014497D01*
X72755233Y-103898824D01*
X72944539Y-103743230D01*
X73099852Y-103553694D01*
X73215205Y-103337500D01*
X73285801Y-103104771D01*
X73208913Y-102910000D01*
X72110000Y-102910000D01*
X72010000Y-102910000D01*
X70911087Y-102910000D01*
X70834199Y-103104771D01*
X70425000Y-103104771D01*
X70425000Y-102615229D01*
X70834199Y-102615229D01*
X70911087Y-102810000D01*
X72010000Y-102810000D01*
X72010000Y-101710998D01*
X72110000Y-101710998D01*
X72110000Y-102810000D01*
X73208913Y-102810000D01*
X73285801Y-102615229D01*
X73215205Y-102382500D01*
X73099852Y-102166306D01*
X72944539Y-101976770D01*
X72755233Y-101821176D01*
X72539210Y-101705503D01*
X72304771Y-101634197D01*
X72110000Y-101710998D01*
X72010000Y-101710998D01*
X71815229Y-101634197D01*
X71580790Y-101705503D01*
X71364767Y-101821176D01*
X71175461Y-101976770D01*
X71020148Y-102166306D01*
X70904795Y-102382500D01*
X70834199Y-102615229D01*
X70425000Y-102615229D01*
X70425000Y-100196886D01*
X70810000Y-100196886D01*
X70810000Y-100443114D01*
X70858037Y-100684611D01*
X70952265Y-100912097D01*
X71089062Y-101116828D01*
X71263172Y-101290938D01*
X71467903Y-101427735D01*
X71695389Y-101521963D01*
X71936886Y-101570000D01*
X72183114Y-101570000D01*
X72424611Y-101521963D01*
X72652097Y-101427735D01*
X72856828Y-101290938D01*
X73030938Y-101116828D01*
X73167735Y-100912097D01*
X73261963Y-100684611D01*
X73310000Y-100443114D01*
X73310000Y-100196886D01*
X73261963Y-99955389D01*
X73167735Y-99727903D01*
X73030938Y-99523172D01*
X72856828Y-99349062D01*
X72652097Y-99212265D01*
X72424611Y-99118037D01*
X72183114Y-99070000D01*
X71936886Y-99070000D01*
X71695389Y-99118037D01*
X71467903Y-99212265D01*
X71263172Y-99349062D01*
X71089062Y-99523172D01*
X70952265Y-99727903D01*
X70858037Y-99955389D01*
X70810000Y-100196886D01*
X70425000Y-100196886D01*
X70425000Y-97656886D01*
X70810000Y-97656886D01*
X70810000Y-97903114D01*
X70858037Y-98144611D01*
X70952265Y-98372097D01*
X71089062Y-98576828D01*
X71263172Y-98750938D01*
X71467903Y-98887735D01*
X71695389Y-98981963D01*
X71936886Y-99030000D01*
X72183114Y-99030000D01*
X72424611Y-98981963D01*
X72652097Y-98887735D01*
X72856828Y-98750938D01*
X73030938Y-98576828D01*
X73167735Y-98372097D01*
X73261963Y-98144611D01*
X73310000Y-97903114D01*
X73310000Y-97656886D01*
X73261963Y-97415389D01*
X73167735Y-97187903D01*
X73030938Y-96983172D01*
X72856828Y-96809062D01*
X72652097Y-96672265D01*
X72424611Y-96578037D01*
X72183114Y-96530000D01*
X71936886Y-96530000D01*
X71695389Y-96578037D01*
X71467903Y-96672265D01*
X71263172Y-96809062D01*
X71089062Y-96983172D01*
X70952265Y-97187903D01*
X70858037Y-97415389D01*
X70810000Y-97656886D01*
X70425000Y-97656886D01*
X70425000Y-95116886D01*
X70810000Y-95116886D01*
X70810000Y-95363114D01*
X70858037Y-95604611D01*
X70952265Y-95832097D01*
X71089062Y-96036828D01*
X71263172Y-96210938D01*
X71467903Y-96347735D01*
X71695389Y-96441963D01*
X71936886Y-96490000D01*
X72183114Y-96490000D01*
X72424611Y-96441963D01*
X72652097Y-96347735D01*
X72856828Y-96210938D01*
X73030938Y-96036828D01*
X73167735Y-95832097D01*
X73261963Y-95604611D01*
X73310000Y-95363114D01*
X73310000Y-95116886D01*
X73261963Y-94875389D01*
X73167735Y-94647903D01*
X73030938Y-94443172D01*
X72856828Y-94269062D01*
X72652097Y-94132265D01*
X72424611Y-94038037D01*
X72183114Y-93990000D01*
X71936886Y-93990000D01*
X71695389Y-94038037D01*
X71467903Y-94132265D01*
X71263172Y-94269062D01*
X71089062Y-94443172D01*
X70952265Y-94647903D01*
X70858037Y-94875389D01*
X70810000Y-95116886D01*
X70425000Y-95116886D01*
X70425000Y-92576886D01*
X70810000Y-92576886D01*
X70810000Y-92823114D01*
X70858037Y-93064611D01*
X70952265Y-93292097D01*
X71089062Y-93496828D01*
X71263172Y-93670938D01*
X71467903Y-93807735D01*
X71695389Y-93901963D01*
X71936886Y-93950000D01*
X72183114Y-93950000D01*
X72424611Y-93901963D01*
X72652097Y-93807735D01*
X72856828Y-93670938D01*
X73030938Y-93496828D01*
X73167735Y-93292097D01*
X73261963Y-93064611D01*
X73310000Y-92823114D01*
X73310000Y-92576886D01*
X73261963Y-92335389D01*
X73167735Y-92107903D01*
X73030938Y-91903172D01*
X72856828Y-91729062D01*
X72652097Y-91592265D01*
X72424611Y-91498037D01*
X72183114Y-91450000D01*
X71936886Y-91450000D01*
X71695389Y-91498037D01*
X71467903Y-91592265D01*
X71263172Y-91729062D01*
X71089062Y-91903172D01*
X70952265Y-92107903D01*
X70858037Y-92335389D01*
X70810000Y-92576886D01*
X70425000Y-92576886D01*
X70425000Y-87496886D01*
X70810000Y-87496886D01*
X70810000Y-87743114D01*
X70858037Y-87984611D01*
X70952265Y-88212097D01*
X71089062Y-88416828D01*
X71263172Y-88590938D01*
X71467903Y-88727735D01*
X71695389Y-88821963D01*
X71936886Y-88870000D01*
X72183114Y-88870000D01*
X72424611Y-88821963D01*
X72652097Y-88727735D01*
X72856828Y-88590938D01*
X73030938Y-88416828D01*
X73167735Y-88212097D01*
X73261963Y-87984611D01*
X73310000Y-87743114D01*
X73310000Y-87496886D01*
X73261963Y-87255389D01*
X73167735Y-87027903D01*
X73030938Y-86823172D01*
X72856828Y-86649062D01*
X72652097Y-86512265D01*
X72424611Y-86418037D01*
X72183114Y-86370000D01*
X71936886Y-86370000D01*
X71695389Y-86418037D01*
X71467903Y-86512265D01*
X71263172Y-86649062D01*
X71089062Y-86823172D01*
X70952265Y-87027903D01*
X70858037Y-87255389D01*
X70810000Y-87496886D01*
X70425000Y-87496886D01*
X70425000Y-79310989D01*
X70442722Y-79130253D01*
X70492019Y-78966973D01*
X70572091Y-78816379D01*
X70679891Y-78684203D01*
X70811310Y-78575484D01*
X70961343Y-78494362D01*
X71127491Y-78442930D01*
X71275636Y-78424999D01*
X99303528Y-78424530D01*
X99298065Y-78480000D01*
G36*
X99199998Y-100249998D02*
G01*
X99150000Y-100200000D01*
X99199998Y-100200000D01*
X99199998Y-100249998D01*
G37*
X99199998Y-100249998D02*
X99150000Y-100200000D01*
X99199998Y-100200000D01*
X99199998Y-100249998D01*
G36*
X99300002Y-100249998D02*
G01*
X99300002Y-100200000D01*
X99350000Y-100200000D01*
X99300002Y-100249998D01*
G37*
X99300002Y-100249998D02*
X99300002Y-100200000D01*
X99350000Y-100200000D01*
X99300002Y-100249998D01*
G36*
X102550001Y-98427818D02*
G01*
X102550001Y-98636429D01*
X102445470Y-98566584D01*
X102274319Y-98495691D01*
X102092626Y-98459550D01*
X101907374Y-98459550D01*
X101725681Y-98495691D01*
X101554530Y-98566584D01*
X101400498Y-98669505D01*
X101400000Y-98670003D01*
X101400000Y-98492593D01*
X101402419Y-98468035D01*
X101400000Y-98443476D01*
X101392765Y-98370019D01*
X101364175Y-98275769D01*
X101317746Y-98188907D01*
X101255264Y-98112772D01*
X101236176Y-98097107D01*
X101200000Y-98060931D01*
X101200000Y-97077817D01*
X102550001Y-98427818D01*
G37*
X102550001Y-98427818D02*
X102550001Y-98636429D01*
X102445470Y-98566584D01*
X102274319Y-98495691D01*
X102092626Y-98459550D01*
X101907374Y-98459550D01*
X101725681Y-98495691D01*
X101554530Y-98566584D01*
X101400498Y-98669505D01*
X101400000Y-98670003D01*
X101400000Y-98492593D01*
X101402419Y-98468035D01*
X101400000Y-98443476D01*
X101392765Y-98370019D01*
X101364175Y-98275769D01*
X101317746Y-98188907D01*
X101255264Y-98112772D01*
X101236176Y-98097107D01*
X101200000Y-98060931D01*
X101200000Y-97077817D01*
X102550001Y-98427818D01*
G36*
X93876697Y-94054197D02*
G01*
X93946186Y-94091340D01*
X94021586Y-94114212D01*
X94100000Y-94121935D01*
X94700000Y-94121935D01*
X94778414Y-94114212D01*
X94853814Y-94091340D01*
X94923303Y-94054197D01*
X94964972Y-94020000D01*
X99102183Y-94020000D01*
X100650001Y-95567819D01*
X100650000Y-96272992D01*
X100647340Y-96300000D01*
X100650000Y-96327008D01*
X100650000Y-96327017D01*
X100657958Y-96407818D01*
X100689408Y-96511493D01*
X100740479Y-96607042D01*
X100809210Y-96690790D01*
X100830196Y-96708013D01*
X100922183Y-96800000D01*
X100171751Y-96800000D01*
X99544015Y-96172265D01*
X99584197Y-96123303D01*
X99621340Y-96053814D01*
X99644212Y-95978414D01*
X99651935Y-95900000D01*
X99651935Y-95100000D01*
X99644212Y-95021586D01*
X99621340Y-94946186D01*
X99584197Y-94876697D01*
X99534211Y-94815789D01*
X99473303Y-94765803D01*
X99403814Y-94728660D01*
X99328414Y-94705788D01*
X99250000Y-94698065D01*
X95650000Y-94698065D01*
X95571586Y-94705788D01*
X95496186Y-94728660D01*
X95426697Y-94765803D01*
X95365789Y-94815789D01*
X95315803Y-94876697D01*
X95278660Y-94946186D01*
X95255788Y-95021586D01*
X95248065Y-95100000D01*
X95248065Y-95900000D01*
X95250527Y-95925000D01*
X93996751Y-95925000D01*
X93501935Y-95430185D01*
X93501935Y-94700000D01*
X93494212Y-94621586D01*
X93471340Y-94546186D01*
X93434197Y-94476697D01*
X93384211Y-94415789D01*
X93323303Y-94365803D01*
X93253814Y-94328660D01*
X93178414Y-94305788D01*
X93100000Y-94298065D01*
X92100000Y-94298065D01*
X92021586Y-94305788D01*
X91946186Y-94328660D01*
X91876697Y-94365803D01*
X91815789Y-94415789D01*
X91765803Y-94476697D01*
X91728660Y-94546186D01*
X91705788Y-94621586D01*
X91698065Y-94700000D01*
X91698065Y-95700000D01*
X91705788Y-95778414D01*
X91728660Y-95853814D01*
X91765803Y-95923303D01*
X91815789Y-95984211D01*
X91876697Y-96034197D01*
X91946186Y-96071340D01*
X92021586Y-96094212D01*
X92100000Y-96101935D01*
X92830185Y-96101935D01*
X93447620Y-96719371D01*
X93462499Y-96737501D01*
X93534827Y-96796859D01*
X93617346Y-96840966D01*
X93679722Y-96859888D01*
X93706883Y-96868127D01*
X93799999Y-96877298D01*
X93823331Y-96875000D01*
X95498557Y-96875000D01*
X95498065Y-96880000D01*
X95500000Y-96980000D01*
X95600000Y-97080000D01*
X96150000Y-97080000D01*
X96150000Y-97060000D01*
X96250000Y-97060000D01*
X96250000Y-97080000D01*
X96800000Y-97080000D01*
X96900000Y-96980000D01*
X96901935Y-96880000D01*
X96901443Y-96875000D01*
X98845102Y-96875000D01*
X98833706Y-96888886D01*
X98815224Y-96923463D01*
X98803843Y-96960982D01*
X98800000Y-97000000D01*
X98800000Y-97338887D01*
X98756138Y-97343207D01*
X98720981Y-97353872D01*
X98673814Y-97328660D01*
X98598414Y-97305788D01*
X98520000Y-97298065D01*
X98020000Y-97298065D01*
X97941586Y-97305788D01*
X97866186Y-97328660D01*
X97800000Y-97364037D01*
X97733814Y-97328660D01*
X97658414Y-97305788D01*
X97580000Y-97298065D01*
X97080000Y-97298065D01*
X97001586Y-97305788D01*
X96926186Y-97328660D01*
X96901200Y-97342015D01*
X96900000Y-97280000D01*
X96800000Y-97180000D01*
X96250000Y-97180000D01*
X96250000Y-97200000D01*
X96150000Y-97200000D01*
X96150000Y-97180000D01*
X95600000Y-97180000D01*
X95506540Y-97273460D01*
X95459211Y-97215789D01*
X95398303Y-97165803D01*
X95328814Y-97128660D01*
X95253414Y-97105788D01*
X95175000Y-97098065D01*
X94075000Y-97098065D01*
X93996586Y-97105788D01*
X93921186Y-97128660D01*
X93851697Y-97165803D01*
X93800000Y-97208230D01*
X93748303Y-97165803D01*
X93678814Y-97128660D01*
X93603414Y-97105788D01*
X93525000Y-97098065D01*
X93125000Y-97100000D01*
X93025000Y-97200000D01*
X93025000Y-98100000D01*
X93045000Y-98100000D01*
X93045000Y-98200000D01*
X93025000Y-98200000D01*
X93025000Y-98220000D01*
X92925000Y-98220000D01*
X92925000Y-98200000D01*
X92125000Y-98200000D01*
X92072500Y-98252500D01*
X92000000Y-98180000D01*
X91450000Y-98180000D01*
X91450000Y-98200000D01*
X91350000Y-98200000D01*
X91350000Y-98180000D01*
X91330000Y-98180000D01*
X91330000Y-98080000D01*
X91350000Y-98080000D01*
X91350000Y-97580000D01*
X91450000Y-97580000D01*
X91450000Y-98080000D01*
X92000000Y-98080000D01*
X92052500Y-98027500D01*
X92125000Y-98100000D01*
X92925000Y-98100000D01*
X92925000Y-97200000D01*
X92825000Y-97100000D01*
X92425000Y-97098065D01*
X92346586Y-97105788D01*
X92271186Y-97128660D01*
X92201697Y-97165803D01*
X92140789Y-97215789D01*
X92090803Y-97276697D01*
X92053660Y-97346186D01*
X92030788Y-97421586D01*
X92023065Y-97500000D01*
X92023622Y-97643811D01*
X91984211Y-97595789D01*
X91923303Y-97545803D01*
X91853814Y-97508660D01*
X91778414Y-97485788D01*
X91700000Y-97478065D01*
X91550000Y-97480000D01*
X91450000Y-97580000D01*
X91350000Y-97580000D01*
X91250000Y-97480000D01*
X91100000Y-97478065D01*
X91021586Y-97485788D01*
X90946186Y-97508660D01*
X90876697Y-97545803D01*
X90815789Y-97595789D01*
X90765803Y-97656697D01*
X90750000Y-97686262D01*
X90750000Y-94627817D01*
X91357817Y-94020000D01*
X93835028Y-94020000D01*
X93876697Y-94054197D01*
G37*
X93876697Y-94054197D02*
X93946186Y-94091340D01*
X94021586Y-94114212D01*
X94100000Y-94121935D01*
X94700000Y-94121935D01*
X94778414Y-94114212D01*
X94853814Y-94091340D01*
X94923303Y-94054197D01*
X94964972Y-94020000D01*
X99102183Y-94020000D01*
X100650001Y-95567819D01*
X100650000Y-96272992D01*
X100647340Y-96300000D01*
X100650000Y-96327008D01*
X100650000Y-96327017D01*
X100657958Y-96407818D01*
X100689408Y-96511493D01*
X100740479Y-96607042D01*
X100809210Y-96690790D01*
X100830196Y-96708013D01*
X100922183Y-96800000D01*
X100171751Y-96800000D01*
X99544015Y-96172265D01*
X99584197Y-96123303D01*
X99621340Y-96053814D01*
X99644212Y-95978414D01*
X99651935Y-95900000D01*
X99651935Y-95100000D01*
X99644212Y-95021586D01*
X99621340Y-94946186D01*
X99584197Y-94876697D01*
X99534211Y-94815789D01*
X99473303Y-94765803D01*
X99403814Y-94728660D01*
X99328414Y-94705788D01*
X99250000Y-94698065D01*
X95650000Y-94698065D01*
X95571586Y-94705788D01*
X95496186Y-94728660D01*
X95426697Y-94765803D01*
X95365789Y-94815789D01*
X95315803Y-94876697D01*
X95278660Y-94946186D01*
X95255788Y-95021586D01*
X95248065Y-95100000D01*
X95248065Y-95900000D01*
X95250527Y-95925000D01*
X93996751Y-95925000D01*
X93501935Y-95430185D01*
X93501935Y-94700000D01*
X93494212Y-94621586D01*
X93471340Y-94546186D01*
X93434197Y-94476697D01*
X93384211Y-94415789D01*
X93323303Y-94365803D01*
X93253814Y-94328660D01*
X93178414Y-94305788D01*
X93100000Y-94298065D01*
X92100000Y-94298065D01*
X92021586Y-94305788D01*
X91946186Y-94328660D01*
X91876697Y-94365803D01*
X91815789Y-94415789D01*
X91765803Y-94476697D01*
X91728660Y-94546186D01*
X91705788Y-94621586D01*
X91698065Y-94700000D01*
X91698065Y-95700000D01*
X91705788Y-95778414D01*
X91728660Y-95853814D01*
X91765803Y-95923303D01*
X91815789Y-95984211D01*
X91876697Y-96034197D01*
X91946186Y-96071340D01*
X92021586Y-96094212D01*
X92100000Y-96101935D01*
X92830185Y-96101935D01*
X93447620Y-96719371D01*
X93462499Y-96737501D01*
X93534827Y-96796859D01*
X93617346Y-96840966D01*
X93679722Y-96859888D01*
X93706883Y-96868127D01*
X93799999Y-96877298D01*
X93823331Y-96875000D01*
X95498557Y-96875000D01*
X95498065Y-96880000D01*
X95500000Y-96980000D01*
X95600000Y-97080000D01*
X96150000Y-97080000D01*
X96150000Y-97060000D01*
X96250000Y-97060000D01*
X96250000Y-97080000D01*
X96800000Y-97080000D01*
X96900000Y-96980000D01*
X96901935Y-96880000D01*
X96901443Y-96875000D01*
X98845102Y-96875000D01*
X98833706Y-96888886D01*
X98815224Y-96923463D01*
X98803843Y-96960982D01*
X98800000Y-97000000D01*
X98800000Y-97338887D01*
X98756138Y-97343207D01*
X98720981Y-97353872D01*
X98673814Y-97328660D01*
X98598414Y-97305788D01*
X98520000Y-97298065D01*
X98020000Y-97298065D01*
X97941586Y-97305788D01*
X97866186Y-97328660D01*
X97800000Y-97364037D01*
X97733814Y-97328660D01*
X97658414Y-97305788D01*
X97580000Y-97298065D01*
X97080000Y-97298065D01*
X97001586Y-97305788D01*
X96926186Y-97328660D01*
X96901200Y-97342015D01*
X96900000Y-97280000D01*
X96800000Y-97180000D01*
X96250000Y-97180000D01*
X96250000Y-97200000D01*
X96150000Y-97200000D01*
X96150000Y-97180000D01*
X95600000Y-97180000D01*
X95506540Y-97273460D01*
X95459211Y-97215789D01*
X95398303Y-97165803D01*
X95328814Y-97128660D01*
X95253414Y-97105788D01*
X95175000Y-97098065D01*
X94075000Y-97098065D01*
X93996586Y-97105788D01*
X93921186Y-97128660D01*
X93851697Y-97165803D01*
X93800000Y-97208230D01*
X93748303Y-97165803D01*
X93678814Y-97128660D01*
X93603414Y-97105788D01*
X93525000Y-97098065D01*
X93125000Y-97100000D01*
X93025000Y-97200000D01*
X93025000Y-98100000D01*
X93045000Y-98100000D01*
X93045000Y-98200000D01*
X93025000Y-98200000D01*
X93025000Y-98220000D01*
X92925000Y-98220000D01*
X92925000Y-98200000D01*
X92125000Y-98200000D01*
X92072500Y-98252500D01*
X92000000Y-98180000D01*
X91450000Y-98180000D01*
X91450000Y-98200000D01*
X91350000Y-98200000D01*
X91350000Y-98180000D01*
X91330000Y-98180000D01*
X91330000Y-98080000D01*
X91350000Y-98080000D01*
X91350000Y-97580000D01*
X91450000Y-97580000D01*
X91450000Y-98080000D01*
X92000000Y-98080000D01*
X92052500Y-98027500D01*
X92125000Y-98100000D01*
X92925000Y-98100000D01*
X92925000Y-97200000D01*
X92825000Y-97100000D01*
X92425000Y-97098065D01*
X92346586Y-97105788D01*
X92271186Y-97128660D01*
X92201697Y-97165803D01*
X92140789Y-97215789D01*
X92090803Y-97276697D01*
X92053660Y-97346186D01*
X92030788Y-97421586D01*
X92023065Y-97500000D01*
X92023622Y-97643811D01*
X91984211Y-97595789D01*
X91923303Y-97545803D01*
X91853814Y-97508660D01*
X91778414Y-97485788D01*
X91700000Y-97478065D01*
X91550000Y-97480000D01*
X91450000Y-97580000D01*
X91350000Y-97580000D01*
X91250000Y-97480000D01*
X91100000Y-97478065D01*
X91021586Y-97485788D01*
X90946186Y-97508660D01*
X90876697Y-97545803D01*
X90815789Y-97595789D01*
X90765803Y-97656697D01*
X90750000Y-97686262D01*
X90750000Y-94627817D01*
X91357817Y-94020000D01*
X93835028Y-94020000D01*
X93876697Y-94054197D01*
G36*
X100200001Y-91822181D02*
G01*
X99102183Y-92920000D01*
X98648980Y-92920000D01*
X98651935Y-92890000D01*
X98651935Y-92555170D01*
X100200001Y-91007106D01*
X100200001Y-91822181D01*
G37*
X100200001Y-91822181D02*
X99102183Y-92920000D01*
X98648980Y-92920000D01*
X98651935Y-92890000D01*
X98651935Y-92555170D01*
X100200001Y-91007106D01*
X100200001Y-91822181D01*
G36*
X105594668Y-82116574D02*
G01*
X105671274Y-82231224D01*
X105768776Y-82328726D01*
X105883426Y-82405332D01*
X106010818Y-82458099D01*
X106046711Y-82465239D01*
X106184761Y-82603289D01*
X106191901Y-82639182D01*
X106244668Y-82766574D01*
X106321274Y-82881224D01*
X106418776Y-82978726D01*
X106533426Y-83055332D01*
X106660818Y-83108099D01*
X106696712Y-83115239D01*
X107200001Y-83618529D01*
X107200000Y-85556263D01*
X107184197Y-85526697D01*
X107134211Y-85465789D01*
X107073303Y-85415803D01*
X107003814Y-85378660D01*
X106928414Y-85355788D01*
X106850000Y-85348065D01*
X106550000Y-85350000D01*
X106450000Y-85450000D01*
X106450000Y-86000000D01*
X106470000Y-86000000D01*
X106470000Y-86100000D01*
X106450000Y-86100000D01*
X106450000Y-86650000D01*
X106550000Y-86750000D01*
X106850000Y-86751935D01*
X106928414Y-86744212D01*
X107003814Y-86721340D01*
X107073303Y-86684197D01*
X107134211Y-86634211D01*
X107184197Y-86573303D01*
X107200000Y-86543738D01*
X107200000Y-86751472D01*
X107048778Y-86902694D01*
X107003814Y-86878660D01*
X106928414Y-86855788D01*
X106850000Y-86848065D01*
X105950000Y-86848065D01*
X105894695Y-86853512D01*
X105901935Y-86780000D01*
X105901299Y-86747138D01*
X105950000Y-86751935D01*
X106250000Y-86750000D01*
X106350000Y-86650000D01*
X106350000Y-86100000D01*
X106330000Y-86100000D01*
X106330000Y-86000000D01*
X106350000Y-86000000D01*
X106350000Y-85450000D01*
X106250000Y-85350000D01*
X105950000Y-85348065D01*
X105871586Y-85355788D01*
X105796186Y-85378660D01*
X105726697Y-85415803D01*
X105665789Y-85465789D01*
X105615803Y-85526697D01*
X105578660Y-85596186D01*
X105555788Y-85671586D01*
X105548065Y-85750000D01*
X105549780Y-85882968D01*
X105500000Y-85878065D01*
X105350000Y-85880000D01*
X105250000Y-85980000D01*
X105250000Y-86480000D01*
X105270000Y-86480000D01*
X105270000Y-86580000D01*
X105250000Y-86580000D01*
X105250000Y-86600000D01*
X105150000Y-86600000D01*
X105150000Y-86580000D01*
X104600000Y-86580000D01*
X104500000Y-86680000D01*
X104498894Y-86737167D01*
X104428414Y-86715788D01*
X104350000Y-86708065D01*
X101750000Y-86708065D01*
X101671586Y-86715788D01*
X101596186Y-86738660D01*
X101526697Y-86775803D01*
X101465789Y-86825789D01*
X101437713Y-86860000D01*
X101379465Y-86860000D01*
X101349999Y-86857098D01*
X101320533Y-86860000D01*
X101320526Y-86860000D01*
X101243640Y-86867573D01*
X101232378Y-86868682D01*
X101201447Y-86878065D01*
X101119279Y-86902990D01*
X101087838Y-86919795D01*
X101043726Y-86853776D01*
X100946224Y-86756274D01*
X100831574Y-86679668D01*
X100704182Y-86626901D01*
X100568944Y-86600000D01*
X100431056Y-86600000D01*
X100295818Y-86626901D01*
X100168426Y-86679668D01*
X100053776Y-86756274D01*
X99956274Y-86853776D01*
X99885036Y-86960392D01*
X99804182Y-86926901D01*
X99668944Y-86900000D01*
X99531056Y-86900000D01*
X99395818Y-86926901D01*
X99268426Y-86979668D01*
X99153776Y-87056274D01*
X99056274Y-87153776D01*
X98979668Y-87268426D01*
X98926901Y-87395818D01*
X98900000Y-87531056D01*
X98900000Y-87668944D01*
X98926901Y-87804182D01*
X98979668Y-87931574D01*
X99056274Y-88046224D01*
X99100001Y-88089951D01*
X99100000Y-89392893D01*
X98651935Y-89840959D01*
X98651935Y-89650000D01*
X98644212Y-89571586D01*
X98621340Y-89496186D01*
X98584197Y-89426697D01*
X98534211Y-89365789D01*
X98533250Y-89365000D01*
X98534211Y-89364211D01*
X98584197Y-89303303D01*
X98621340Y-89233814D01*
X98644212Y-89158414D01*
X98651935Y-89080000D01*
X98651935Y-88380000D01*
X98644212Y-88301586D01*
X98621340Y-88226186D01*
X98584197Y-88156697D01*
X98534211Y-88095789D01*
X98533250Y-88095000D01*
X98534211Y-88094211D01*
X98584197Y-88033303D01*
X98621340Y-87963814D01*
X98644212Y-87888414D01*
X98651935Y-87810000D01*
X98650000Y-87610000D01*
X98550000Y-87510000D01*
X97000000Y-87510000D01*
X97000000Y-87530000D01*
X96900000Y-87530000D01*
X96900000Y-87510000D01*
X95350000Y-87510000D01*
X95250000Y-87610000D01*
X95248065Y-87810000D01*
X95252739Y-87857458D01*
X95212267Y-87835825D01*
X95118017Y-87807235D01*
X95055581Y-87801086D01*
X95055000Y-87750000D01*
X94955000Y-87650000D01*
X94410000Y-87650000D01*
X94410000Y-87670000D01*
X94310000Y-87670000D01*
X94310000Y-87650000D01*
X94290000Y-87650000D01*
X94290000Y-87550000D01*
X94310000Y-87550000D01*
X94310000Y-86980000D01*
X94410000Y-86980000D01*
X94410000Y-87550000D01*
X94955000Y-87550000D01*
X95055000Y-87450000D01*
X95056935Y-87280000D01*
X95049212Y-87201586D01*
X95026340Y-87126186D01*
X95017689Y-87110000D01*
X95248065Y-87110000D01*
X95250000Y-87310000D01*
X95350000Y-87410000D01*
X96900000Y-87410000D01*
X96900000Y-86810000D01*
X97000000Y-86810000D01*
X97000000Y-87410000D01*
X98550000Y-87410000D01*
X98650000Y-87310000D01*
X98651935Y-87110000D01*
X98644212Y-87031586D01*
X98621340Y-86956186D01*
X98584197Y-86886697D01*
X98534211Y-86825789D01*
X98473303Y-86775803D01*
X98403814Y-86738660D01*
X98328414Y-86715788D01*
X98250000Y-86708065D01*
X97100000Y-86710000D01*
X97000000Y-86810000D01*
X96900000Y-86810000D01*
X96800000Y-86710000D01*
X95650000Y-86708065D01*
X95571586Y-86715788D01*
X95496186Y-86738660D01*
X95426697Y-86775803D01*
X95365789Y-86825789D01*
X95315803Y-86886697D01*
X95278660Y-86956186D01*
X95255788Y-87031586D01*
X95248065Y-87110000D01*
X95017689Y-87110000D01*
X94989197Y-87056697D01*
X94939211Y-86995789D01*
X94878303Y-86945803D01*
X94808814Y-86908660D01*
X94733414Y-86885788D01*
X94655000Y-86878065D01*
X94510000Y-86880000D01*
X94410000Y-86980000D01*
X94310000Y-86980000D01*
X94210000Y-86880000D01*
X94065000Y-86878065D01*
X93986586Y-86885788D01*
X93911186Y-86908660D01*
X93841697Y-86945803D01*
X93821797Y-86962134D01*
X93742760Y-86919888D01*
X93639689Y-86888622D01*
X93532500Y-86878065D01*
X93237500Y-86878065D01*
X93130311Y-86888622D01*
X93027240Y-86919888D01*
X92932250Y-86970661D01*
X92900000Y-86997128D01*
X92867750Y-86970661D01*
X92772760Y-86919888D01*
X92669689Y-86888622D01*
X92562500Y-86878065D01*
X92267500Y-86878065D01*
X92160311Y-86888622D01*
X92057240Y-86919888D01*
X91962250Y-86970661D01*
X91878991Y-87038991D01*
X91810661Y-87122250D01*
X91759888Y-87217240D01*
X91728622Y-87320311D01*
X91718065Y-87427500D01*
X91718065Y-87772500D01*
X91728622Y-87879689D01*
X91759888Y-87982760D01*
X91810661Y-88077750D01*
X91818120Y-88086839D01*
X91746186Y-88108660D01*
X91676697Y-88145803D01*
X91615789Y-88195789D01*
X91565803Y-88256697D01*
X91528660Y-88326186D01*
X91505788Y-88401586D01*
X91498065Y-88480000D01*
X91498065Y-88725000D01*
X91323331Y-88725000D01*
X91299999Y-88722702D01*
X91206883Y-88731873D01*
X91179722Y-88740112D01*
X91117346Y-88759034D01*
X91034827Y-88803141D01*
X90962499Y-88862499D01*
X90947620Y-88880629D01*
X90503250Y-89325000D01*
X88201935Y-89325000D01*
X88201935Y-88500000D01*
X88194212Y-88421586D01*
X88171340Y-88346186D01*
X88134197Y-88276697D01*
X88084211Y-88215789D01*
X88023303Y-88165803D01*
X87953814Y-88128660D01*
X87878414Y-88105788D01*
X87850000Y-88102990D01*
X87850000Y-84100000D01*
X95228065Y-84100000D01*
X95228065Y-84900000D01*
X95235788Y-84978414D01*
X95258660Y-85053814D01*
X95295803Y-85123303D01*
X95345789Y-85184211D01*
X95406697Y-85234197D01*
X95476186Y-85271340D01*
X95551586Y-85294212D01*
X95630000Y-85301935D01*
X98270000Y-85301935D01*
X98348414Y-85294212D01*
X98423814Y-85271340D01*
X98493303Y-85234197D01*
X98554211Y-85184211D01*
X98604197Y-85123303D01*
X98641340Y-85053814D01*
X98664212Y-84978414D01*
X98671935Y-84900000D01*
X98671935Y-84100000D01*
X98664212Y-84021586D01*
X98641340Y-83946186D01*
X98604197Y-83876697D01*
X98554211Y-83815789D01*
X98493303Y-83765803D01*
X98423814Y-83728660D01*
X98348414Y-83705788D01*
X98270000Y-83698065D01*
X95630000Y-83698065D01*
X95551586Y-83705788D01*
X95476186Y-83728660D01*
X95406697Y-83765803D01*
X95345789Y-83815789D01*
X95295803Y-83876697D01*
X95258660Y-83946186D01*
X95235788Y-84021586D01*
X95228065Y-84100000D01*
X87850000Y-84100000D01*
X87850000Y-82300000D01*
X93637997Y-82300000D01*
X93668426Y-82320332D01*
X93795818Y-82373099D01*
X93931056Y-82400000D01*
X94068944Y-82400000D01*
X94204182Y-82373099D01*
X94331574Y-82320332D01*
X94362003Y-82300000D01*
X94737997Y-82300000D01*
X94768426Y-82320332D01*
X94895818Y-82373099D01*
X95031056Y-82400000D01*
X95168944Y-82400000D01*
X95304182Y-82373099D01*
X95310158Y-82370624D01*
X95326697Y-82384197D01*
X95396186Y-82421340D01*
X95471586Y-82444212D01*
X95550000Y-82451935D01*
X96450000Y-82451935D01*
X96528414Y-82444212D01*
X96600000Y-82422497D01*
X96600000Y-83300000D01*
X96603843Y-83339018D01*
X96615224Y-83376537D01*
X96633706Y-83411114D01*
X96658579Y-83441421D01*
X96688886Y-83466294D01*
X96723463Y-83484776D01*
X96760982Y-83496157D01*
X96800000Y-83500000D01*
X99500000Y-83500000D01*
X99500001Y-85210049D01*
X99456274Y-85253776D01*
X99379668Y-85368426D01*
X99326901Y-85495818D01*
X99300000Y-85631056D01*
X99300000Y-85768944D01*
X99326901Y-85904182D01*
X99379668Y-86031574D01*
X99456274Y-86146224D01*
X99553776Y-86243726D01*
X99668426Y-86320332D01*
X99795818Y-86373099D01*
X99931056Y-86400000D01*
X100068944Y-86400000D01*
X100204182Y-86373099D01*
X100330731Y-86320681D01*
X100353776Y-86343726D01*
X100468426Y-86420332D01*
X100595818Y-86473099D01*
X100731056Y-86500000D01*
X100868944Y-86500000D01*
X101004182Y-86473099D01*
X101131574Y-86420332D01*
X101246224Y-86343726D01*
X101309950Y-86280000D01*
X104498065Y-86280000D01*
X104500000Y-86380000D01*
X104600000Y-86480000D01*
X105150000Y-86480000D01*
X105150000Y-85980000D01*
X105050000Y-85880000D01*
X104900000Y-85878065D01*
X104821586Y-85885788D01*
X104746186Y-85908660D01*
X104676697Y-85945803D01*
X104615789Y-85995789D01*
X104565803Y-86056697D01*
X104528660Y-86126186D01*
X104505788Y-86201586D01*
X104498065Y-86280000D01*
X101309950Y-86280000D01*
X101343726Y-86246224D01*
X101420332Y-86131574D01*
X101473099Y-86004182D01*
X101500000Y-85868944D01*
X101500000Y-85731056D01*
X101473099Y-85595818D01*
X101420332Y-85468426D01*
X101343726Y-85353776D01*
X101250000Y-85260050D01*
X101250000Y-83667105D01*
X101424556Y-83841662D01*
X101395803Y-83876697D01*
X101358660Y-83946186D01*
X101335788Y-84021586D01*
X101328065Y-84100000D01*
X101328065Y-84900000D01*
X101335788Y-84978414D01*
X101358660Y-85053814D01*
X101395803Y-85123303D01*
X101445789Y-85184211D01*
X101506697Y-85234197D01*
X101576186Y-85271340D01*
X101651586Y-85294212D01*
X101730000Y-85301935D01*
X104370000Y-85301935D01*
X104448414Y-85294212D01*
X104523814Y-85271340D01*
X104593303Y-85234197D01*
X104654211Y-85184211D01*
X104704197Y-85123303D01*
X104741340Y-85053814D01*
X104764212Y-84978414D01*
X104771935Y-84900000D01*
X104771935Y-84100000D01*
X104764212Y-84021586D01*
X104741340Y-83946186D01*
X104704197Y-83876697D01*
X104654211Y-83815789D01*
X104606705Y-83776802D01*
X104634197Y-83743303D01*
X104671340Y-83673814D01*
X104694212Y-83598414D01*
X104701935Y-83520000D01*
X104701935Y-83020000D01*
X104694212Y-82941586D01*
X104671340Y-82866186D01*
X104635963Y-82800000D01*
X104671340Y-82733814D01*
X104694212Y-82658414D01*
X104701935Y-82580000D01*
X104701935Y-82350000D01*
X104840526Y-82350000D01*
X104870000Y-82352903D01*
X104899474Y-82350000D01*
X104987621Y-82341318D01*
X105100721Y-82307010D01*
X105204955Y-82251296D01*
X105296317Y-82176317D01*
X105315113Y-82153414D01*
X105346592Y-82121935D01*
X105500000Y-82121935D01*
X105578414Y-82114212D01*
X105591985Y-82110095D01*
X105594668Y-82116574D01*
G37*
X105594668Y-82116574D02*
X105671274Y-82231224D01*
X105768776Y-82328726D01*
X105883426Y-82405332D01*
X106010818Y-82458099D01*
X106046711Y-82465239D01*
X106184761Y-82603289D01*
X106191901Y-82639182D01*
X106244668Y-82766574D01*
X106321274Y-82881224D01*
X106418776Y-82978726D01*
X106533426Y-83055332D01*
X106660818Y-83108099D01*
X106696712Y-83115239D01*
X107200001Y-83618529D01*
X107200000Y-85556263D01*
X107184197Y-85526697D01*
X107134211Y-85465789D01*
X107073303Y-85415803D01*
X107003814Y-85378660D01*
X106928414Y-85355788D01*
X106850000Y-85348065D01*
X106550000Y-85350000D01*
X106450000Y-85450000D01*
X106450000Y-86000000D01*
X106470000Y-86000000D01*
X106470000Y-86100000D01*
X106450000Y-86100000D01*
X106450000Y-86650000D01*
X106550000Y-86750000D01*
X106850000Y-86751935D01*
X106928414Y-86744212D01*
X107003814Y-86721340D01*
X107073303Y-86684197D01*
X107134211Y-86634211D01*
X107184197Y-86573303D01*
X107200000Y-86543738D01*
X107200000Y-86751472D01*
X107048778Y-86902694D01*
X107003814Y-86878660D01*
X106928414Y-86855788D01*
X106850000Y-86848065D01*
X105950000Y-86848065D01*
X105894695Y-86853512D01*
X105901935Y-86780000D01*
X105901299Y-86747138D01*
X105950000Y-86751935D01*
X106250000Y-86750000D01*
X106350000Y-86650000D01*
X106350000Y-86100000D01*
X106330000Y-86100000D01*
X106330000Y-86000000D01*
X106350000Y-86000000D01*
X106350000Y-85450000D01*
X106250000Y-85350000D01*
X105950000Y-85348065D01*
X105871586Y-85355788D01*
X105796186Y-85378660D01*
X105726697Y-85415803D01*
X105665789Y-85465789D01*
X105615803Y-85526697D01*
X105578660Y-85596186D01*
X105555788Y-85671586D01*
X105548065Y-85750000D01*
X105549780Y-85882968D01*
X105500000Y-85878065D01*
X105350000Y-85880000D01*
X105250000Y-85980000D01*
X105250000Y-86480000D01*
X105270000Y-86480000D01*
X105270000Y-86580000D01*
X105250000Y-86580000D01*
X105250000Y-86600000D01*
X105150000Y-86600000D01*
X105150000Y-86580000D01*
X104600000Y-86580000D01*
X104500000Y-86680000D01*
X104498894Y-86737167D01*
X104428414Y-86715788D01*
X104350000Y-86708065D01*
X101750000Y-86708065D01*
X101671586Y-86715788D01*
X101596186Y-86738660D01*
X101526697Y-86775803D01*
X101465789Y-86825789D01*
X101437713Y-86860000D01*
X101379465Y-86860000D01*
X101349999Y-86857098D01*
X101320533Y-86860000D01*
X101320526Y-86860000D01*
X101243640Y-86867573D01*
X101232378Y-86868682D01*
X101201447Y-86878065D01*
X101119279Y-86902990D01*
X101087838Y-86919795D01*
X101043726Y-86853776D01*
X100946224Y-86756274D01*
X100831574Y-86679668D01*
X100704182Y-86626901D01*
X100568944Y-86600000D01*
X100431056Y-86600000D01*
X100295818Y-86626901D01*
X100168426Y-86679668D01*
X100053776Y-86756274D01*
X99956274Y-86853776D01*
X99885036Y-86960392D01*
X99804182Y-86926901D01*
X99668944Y-86900000D01*
X99531056Y-86900000D01*
X99395818Y-86926901D01*
X99268426Y-86979668D01*
X99153776Y-87056274D01*
X99056274Y-87153776D01*
X98979668Y-87268426D01*
X98926901Y-87395818D01*
X98900000Y-87531056D01*
X98900000Y-87668944D01*
X98926901Y-87804182D01*
X98979668Y-87931574D01*
X99056274Y-88046224D01*
X99100001Y-88089951D01*
X99100000Y-89392893D01*
X98651935Y-89840959D01*
X98651935Y-89650000D01*
X98644212Y-89571586D01*
X98621340Y-89496186D01*
X98584197Y-89426697D01*
X98534211Y-89365789D01*
X98533250Y-89365000D01*
X98534211Y-89364211D01*
X98584197Y-89303303D01*
X98621340Y-89233814D01*
X98644212Y-89158414D01*
X98651935Y-89080000D01*
X98651935Y-88380000D01*
X98644212Y-88301586D01*
X98621340Y-88226186D01*
X98584197Y-88156697D01*
X98534211Y-88095789D01*
X98533250Y-88095000D01*
X98534211Y-88094211D01*
X98584197Y-88033303D01*
X98621340Y-87963814D01*
X98644212Y-87888414D01*
X98651935Y-87810000D01*
X98650000Y-87610000D01*
X98550000Y-87510000D01*
X97000000Y-87510000D01*
X97000000Y-87530000D01*
X96900000Y-87530000D01*
X96900000Y-87510000D01*
X95350000Y-87510000D01*
X95250000Y-87610000D01*
X95248065Y-87810000D01*
X95252739Y-87857458D01*
X95212267Y-87835825D01*
X95118017Y-87807235D01*
X95055581Y-87801086D01*
X95055000Y-87750000D01*
X94955000Y-87650000D01*
X94410000Y-87650000D01*
X94410000Y-87670000D01*
X94310000Y-87670000D01*
X94310000Y-87650000D01*
X94290000Y-87650000D01*
X94290000Y-87550000D01*
X94310000Y-87550000D01*
X94310000Y-86980000D01*
X94410000Y-86980000D01*
X94410000Y-87550000D01*
X94955000Y-87550000D01*
X95055000Y-87450000D01*
X95056935Y-87280000D01*
X95049212Y-87201586D01*
X95026340Y-87126186D01*
X95017689Y-87110000D01*
X95248065Y-87110000D01*
X95250000Y-87310000D01*
X95350000Y-87410000D01*
X96900000Y-87410000D01*
X96900000Y-86810000D01*
X97000000Y-86810000D01*
X97000000Y-87410000D01*
X98550000Y-87410000D01*
X98650000Y-87310000D01*
X98651935Y-87110000D01*
X98644212Y-87031586D01*
X98621340Y-86956186D01*
X98584197Y-86886697D01*
X98534211Y-86825789D01*
X98473303Y-86775803D01*
X98403814Y-86738660D01*
X98328414Y-86715788D01*
X98250000Y-86708065D01*
X97100000Y-86710000D01*
X97000000Y-86810000D01*
X96900000Y-86810000D01*
X96800000Y-86710000D01*
X95650000Y-86708065D01*
X95571586Y-86715788D01*
X95496186Y-86738660D01*
X95426697Y-86775803D01*
X95365789Y-86825789D01*
X95315803Y-86886697D01*
X95278660Y-86956186D01*
X95255788Y-87031586D01*
X95248065Y-87110000D01*
X95017689Y-87110000D01*
X94989197Y-87056697D01*
X94939211Y-86995789D01*
X94878303Y-86945803D01*
X94808814Y-86908660D01*
X94733414Y-86885788D01*
X94655000Y-86878065D01*
X94510000Y-86880000D01*
X94410000Y-86980000D01*
X94310000Y-86980000D01*
X94210000Y-86880000D01*
X94065000Y-86878065D01*
X93986586Y-86885788D01*
X93911186Y-86908660D01*
X93841697Y-86945803D01*
X93821797Y-86962134D01*
X93742760Y-86919888D01*
X93639689Y-86888622D01*
X93532500Y-86878065D01*
X93237500Y-86878065D01*
X93130311Y-86888622D01*
X93027240Y-86919888D01*
X92932250Y-86970661D01*
X92900000Y-86997128D01*
X92867750Y-86970661D01*
X92772760Y-86919888D01*
X92669689Y-86888622D01*
X92562500Y-86878065D01*
X92267500Y-86878065D01*
X92160311Y-86888622D01*
X92057240Y-86919888D01*
X91962250Y-86970661D01*
X91878991Y-87038991D01*
X91810661Y-87122250D01*
X91759888Y-87217240D01*
X91728622Y-87320311D01*
X91718065Y-87427500D01*
X91718065Y-87772500D01*
X91728622Y-87879689D01*
X91759888Y-87982760D01*
X91810661Y-88077750D01*
X91818120Y-88086839D01*
X91746186Y-88108660D01*
X91676697Y-88145803D01*
X91615789Y-88195789D01*
X91565803Y-88256697D01*
X91528660Y-88326186D01*
X91505788Y-88401586D01*
X91498065Y-88480000D01*
X91498065Y-88725000D01*
X91323331Y-88725000D01*
X91299999Y-88722702D01*
X91206883Y-88731873D01*
X91179722Y-88740112D01*
X91117346Y-88759034D01*
X91034827Y-88803141D01*
X90962499Y-88862499D01*
X90947620Y-88880629D01*
X90503250Y-89325000D01*
X88201935Y-89325000D01*
X88201935Y-88500000D01*
X88194212Y-88421586D01*
X88171340Y-88346186D01*
X88134197Y-88276697D01*
X88084211Y-88215789D01*
X88023303Y-88165803D01*
X87953814Y-88128660D01*
X87878414Y-88105788D01*
X87850000Y-88102990D01*
X87850000Y-84100000D01*
X95228065Y-84100000D01*
X95228065Y-84900000D01*
X95235788Y-84978414D01*
X95258660Y-85053814D01*
X95295803Y-85123303D01*
X95345789Y-85184211D01*
X95406697Y-85234197D01*
X95476186Y-85271340D01*
X95551586Y-85294212D01*
X95630000Y-85301935D01*
X98270000Y-85301935D01*
X98348414Y-85294212D01*
X98423814Y-85271340D01*
X98493303Y-85234197D01*
X98554211Y-85184211D01*
X98604197Y-85123303D01*
X98641340Y-85053814D01*
X98664212Y-84978414D01*
X98671935Y-84900000D01*
X98671935Y-84100000D01*
X98664212Y-84021586D01*
X98641340Y-83946186D01*
X98604197Y-83876697D01*
X98554211Y-83815789D01*
X98493303Y-83765803D01*
X98423814Y-83728660D01*
X98348414Y-83705788D01*
X98270000Y-83698065D01*
X95630000Y-83698065D01*
X95551586Y-83705788D01*
X95476186Y-83728660D01*
X95406697Y-83765803D01*
X95345789Y-83815789D01*
X95295803Y-83876697D01*
X95258660Y-83946186D01*
X95235788Y-84021586D01*
X95228065Y-84100000D01*
X87850000Y-84100000D01*
X87850000Y-82300000D01*
X93637997Y-82300000D01*
X93668426Y-82320332D01*
X93795818Y-82373099D01*
X93931056Y-82400000D01*
X94068944Y-82400000D01*
X94204182Y-82373099D01*
X94331574Y-82320332D01*
X94362003Y-82300000D01*
X94737997Y-82300000D01*
X94768426Y-82320332D01*
X94895818Y-82373099D01*
X95031056Y-82400000D01*
X95168944Y-82400000D01*
X95304182Y-82373099D01*
X95310158Y-82370624D01*
X95326697Y-82384197D01*
X95396186Y-82421340D01*
X95471586Y-82444212D01*
X95550000Y-82451935D01*
X96450000Y-82451935D01*
X96528414Y-82444212D01*
X96600000Y-82422497D01*
X96600000Y-83300000D01*
X96603843Y-83339018D01*
X96615224Y-83376537D01*
X96633706Y-83411114D01*
X96658579Y-83441421D01*
X96688886Y-83466294D01*
X96723463Y-83484776D01*
X96760982Y-83496157D01*
X96800000Y-83500000D01*
X99500000Y-83500000D01*
X99500001Y-85210049D01*
X99456274Y-85253776D01*
X99379668Y-85368426D01*
X99326901Y-85495818D01*
X99300000Y-85631056D01*
X99300000Y-85768944D01*
X99326901Y-85904182D01*
X99379668Y-86031574D01*
X99456274Y-86146224D01*
X99553776Y-86243726D01*
X99668426Y-86320332D01*
X99795818Y-86373099D01*
X99931056Y-86400000D01*
X100068944Y-86400000D01*
X100204182Y-86373099D01*
X100330731Y-86320681D01*
X100353776Y-86343726D01*
X100468426Y-86420332D01*
X100595818Y-86473099D01*
X100731056Y-86500000D01*
X100868944Y-86500000D01*
X101004182Y-86473099D01*
X101131574Y-86420332D01*
X101246224Y-86343726D01*
X101309950Y-86280000D01*
X104498065Y-86280000D01*
X104500000Y-86380000D01*
X104600000Y-86480000D01*
X105150000Y-86480000D01*
X105150000Y-85980000D01*
X105050000Y-85880000D01*
X104900000Y-85878065D01*
X104821586Y-85885788D01*
X104746186Y-85908660D01*
X104676697Y-85945803D01*
X104615789Y-85995789D01*
X104565803Y-86056697D01*
X104528660Y-86126186D01*
X104505788Y-86201586D01*
X104498065Y-86280000D01*
X101309950Y-86280000D01*
X101343726Y-86246224D01*
X101420332Y-86131574D01*
X101473099Y-86004182D01*
X101500000Y-85868944D01*
X101500000Y-85731056D01*
X101473099Y-85595818D01*
X101420332Y-85468426D01*
X101343726Y-85353776D01*
X101250000Y-85260050D01*
X101250000Y-83667105D01*
X101424556Y-83841662D01*
X101395803Y-83876697D01*
X101358660Y-83946186D01*
X101335788Y-84021586D01*
X101328065Y-84100000D01*
X101328065Y-84900000D01*
X101335788Y-84978414D01*
X101358660Y-85053814D01*
X101395803Y-85123303D01*
X101445789Y-85184211D01*
X101506697Y-85234197D01*
X101576186Y-85271340D01*
X101651586Y-85294212D01*
X101730000Y-85301935D01*
X104370000Y-85301935D01*
X104448414Y-85294212D01*
X104523814Y-85271340D01*
X104593303Y-85234197D01*
X104654211Y-85184211D01*
X104704197Y-85123303D01*
X104741340Y-85053814D01*
X104764212Y-84978414D01*
X104771935Y-84900000D01*
X104771935Y-84100000D01*
X104764212Y-84021586D01*
X104741340Y-83946186D01*
X104704197Y-83876697D01*
X104654211Y-83815789D01*
X104606705Y-83776802D01*
X104634197Y-83743303D01*
X104671340Y-83673814D01*
X104694212Y-83598414D01*
X104701935Y-83520000D01*
X104701935Y-83020000D01*
X104694212Y-82941586D01*
X104671340Y-82866186D01*
X104635963Y-82800000D01*
X104671340Y-82733814D01*
X104694212Y-82658414D01*
X104701935Y-82580000D01*
X104701935Y-82350000D01*
X104840526Y-82350000D01*
X104870000Y-82352903D01*
X104899474Y-82350000D01*
X104987621Y-82341318D01*
X105100721Y-82307010D01*
X105204955Y-82251296D01*
X105296317Y-82176317D01*
X105315113Y-82153414D01*
X105346592Y-82121935D01*
X105500000Y-82121935D01*
X105578414Y-82114212D01*
X105591985Y-82110095D01*
X105594668Y-82116574D01*
G36*
X100050000Y-78680000D02*
G01*
X100070000Y-78680000D01*
X100070000Y-78780000D01*
X100050000Y-78780000D01*
X100050000Y-78800000D01*
X99950000Y-78800000D01*
X99950000Y-78780000D01*
X99930000Y-78780000D01*
X99930000Y-78680000D01*
X99950000Y-78680000D01*
X99950000Y-78660000D01*
X100050000Y-78660000D01*
X100050000Y-78680000D01*
G37*
X100050000Y-78680000D02*
X100070000Y-78680000D01*
X100070000Y-78780000D01*
X100050000Y-78780000D01*
X100050000Y-78800000D01*
X99950000Y-78800000D01*
X99950000Y-78780000D01*
X99930000Y-78780000D01*
X99930000Y-78680000D01*
X99950000Y-78680000D01*
X99950000Y-78660000D01*
X100050000Y-78660000D01*
X100050000Y-78680000D01*
M02*
