G04 #@! TF.GenerationSoftware,KiCad,Pcbnew,6.0.0-d3dd2cf0fa~116~ubuntu20.04.1*
G04 #@! TF.CreationDate,2022-01-03T21:45:18+01:00*
G04 #@! TF.ProjectId,teebeutel_image_sensor,74656562-6575-4746-956c-5f696d616765,rev?*
G04 #@! TF.SameCoordinates,Original*
G04 #@! TF.FileFunction,Copper,L1,Top*
G04 #@! TF.FilePolarity,Positive*
%FSLAX46Y46*%
G04 Gerber Fmt 4.6, Leading zero omitted, Abs format (unit mm)*
G04 Created by KiCad (PCBNEW 6.0.0-d3dd2cf0fa~116~ubuntu20.04.1) date 2022-01-03 21:45:18*
%MOMM*%
%LPD*%
G01*
G04 APERTURE LIST*
G04 #@! TA.AperFunction,ComponentPad*
%ADD10R,1.700000X1.700000*%
G04 #@! TD*
G04 #@! TA.AperFunction,ComponentPad*
%ADD11O,1.700000X1.700000*%
G04 #@! TD*
G04 #@! TA.AperFunction,ComponentPad*
%ADD12R,1.000000X1.000000*%
G04 #@! TD*
G04 #@! TA.AperFunction,ViaPad*
%ADD13C,0.600000*%
G04 #@! TD*
G04 #@! TA.AperFunction,ViaPad*
%ADD14C,0.400000*%
G04 #@! TD*
G04 #@! TA.AperFunction,Conductor*
%ADD15C,0.300000*%
G04 #@! TD*
G04 #@! TA.AperFunction,Conductor*
%ADD16C,0.200000*%
G04 #@! TD*
G04 #@! TA.AperFunction,Conductor*
%ADD17C,0.127000*%
G04 #@! TD*
G04 #@! TA.AperFunction,Conductor*
%ADD18C,0.400000*%
G04 #@! TD*
G04 #@! TA.AperFunction,Conductor*
%ADD19C,0.150000*%
G04 #@! TD*
G04 APERTURE END LIST*
D10*
X127940000Y-80000000D03*
D11*
X127940000Y-82540000D03*
X127940000Y-85080000D03*
X127940000Y-87620000D03*
X127940000Y-90160000D03*
X127940000Y-92700000D03*
X127940000Y-95240000D03*
X127940000Y-97780000D03*
X127940000Y-100320000D03*
X127940000Y-102860000D03*
D10*
X72060000Y-80000000D03*
D11*
X72060000Y-82540000D03*
X72060000Y-85080000D03*
X72060000Y-87620000D03*
X72060000Y-90160000D03*
X72060000Y-92700000D03*
X72060000Y-95240000D03*
X72060000Y-97780000D03*
X72060000Y-100320000D03*
X72060000Y-102860000D03*
D12*
X97400000Y-101800000D03*
X106500000Y-95800000D03*
X90200000Y-101200000D03*
D13*
X105000000Y-96100000D03*
X89800000Y-102600000D03*
X74900000Y-99200000D03*
X84700000Y-92500000D03*
X88600000Y-87900000D03*
X108900000Y-84700000D03*
X89000000Y-95500000D03*
X109200000Y-94300000D03*
X74700000Y-83600000D03*
X111400000Y-94000000D03*
X106700000Y-94300000D03*
X99000000Y-92500000D03*
X115700000Y-93400000D03*
X99250000Y-84000000D03*
X101750000Y-98250000D03*
X106000000Y-90000000D03*
X94500000Y-86500000D03*
X86100000Y-87800000D03*
X125800000Y-86700000D03*
X89000000Y-94000000D03*
X120500000Y-88500000D03*
X95200000Y-94300000D03*
X98250000Y-100500000D03*
X91000000Y-95250000D03*
X98750000Y-94250000D03*
X98900000Y-88300000D03*
X92000000Y-101500000D03*
X97226856Y-79028560D03*
X98100000Y-83500000D03*
X74800000Y-94000000D03*
X74900000Y-96600000D03*
X107500000Y-79750000D03*
X91250000Y-97250000D03*
X117100000Y-84100000D03*
X82200000Y-97900000D03*
X106200000Y-97300000D03*
X125800000Y-88500000D03*
X125800000Y-84000000D03*
X99350000Y-81750000D03*
X106800000Y-83800000D03*
X92800000Y-96800000D03*
X86300000Y-102200000D03*
X95100000Y-91900000D03*
X100750000Y-93500000D03*
X120400000Y-86800000D03*
X118400000Y-92200000D03*
X108000000Y-95800000D03*
X100650000Y-81750000D03*
X125600000Y-81100000D03*
X111900000Y-92200000D03*
X101470000Y-86530000D03*
X111100000Y-98000000D03*
X106750000Y-92250000D03*
X125800000Y-92600000D03*
X99900000Y-101000000D03*
X99255000Y-86855000D03*
X102900000Y-96600000D03*
X104100000Y-98200000D03*
X82200000Y-94400000D03*
X125600000Y-78900000D03*
X91200000Y-90600000D03*
X99000000Y-103000000D03*
X86900000Y-97300000D03*
X89250000Y-99250000D03*
X100300000Y-96400000D03*
X86600000Y-80600000D03*
X114800000Y-92000000D03*
X85100000Y-83500000D03*
X74600000Y-80600000D03*
X109000000Y-82100000D03*
X84700000Y-97300000D03*
X101825000Y-78475000D03*
X107900000Y-93100000D03*
X114300000Y-87200000D03*
X99300000Y-102000000D03*
X94400000Y-80200000D03*
X104530000Y-93670000D03*
X97000000Y-86250000D03*
X74700000Y-88900000D03*
X108500000Y-88100000D03*
X92000000Y-92400000D03*
X94500000Y-95500000D03*
X88500000Y-82800000D03*
X111600000Y-89900000D03*
X97100000Y-97000000D03*
X119000000Y-90000000D03*
X108700000Y-102800000D03*
X105200000Y-82800000D03*
X87000000Y-99500000D03*
X84700000Y-100300000D03*
X95000000Y-103000000D03*
X115400000Y-90000000D03*
X103550000Y-79250000D03*
X105100000Y-85400000D03*
X112500000Y-102800000D03*
X100000000Y-85700000D03*
X99600000Y-87600000D03*
X100500000Y-87300000D03*
X100800000Y-85800000D03*
D14*
X100472990Y-98700000D03*
X100800000Y-97400000D03*
D13*
X95100000Y-81700000D03*
X94000000Y-81700000D03*
X93100000Y-93100000D03*
X106215000Y-81785000D03*
X93100000Y-89800000D03*
X100450002Y-79449998D03*
X99300000Y-79900000D03*
X106865000Y-82435000D03*
X86300000Y-82600000D03*
X100892690Y-80150000D03*
X105200000Y-79900000D03*
D14*
X99299990Y-97800000D03*
X99900000Y-98600000D03*
D15*
X97780416Y-78475000D02*
X97226856Y-79028560D01*
X101825000Y-78475000D02*
X97780416Y-78475000D01*
D16*
X103226511Y-91226511D02*
X126466511Y-91226511D01*
X100000000Y-86900000D02*
X99600000Y-87300000D01*
X99600000Y-87300000D02*
X99600000Y-87600000D01*
X99600000Y-87600000D02*
X103226511Y-91226511D01*
X126466511Y-91226511D02*
X127940000Y-92700000D01*
X100000000Y-85700000D02*
X100000000Y-86900000D01*
X100500000Y-88000000D02*
X103400000Y-90900000D01*
X103400000Y-90900000D02*
X127200000Y-90900000D01*
X127200000Y-90900000D02*
X127940000Y-90160000D01*
X100500000Y-87300000D02*
X100500000Y-88000000D01*
X100800000Y-85800000D02*
X100800000Y-87000000D01*
X100800000Y-87000000D02*
X100500000Y-87300000D01*
D17*
X104900000Y-97400000D02*
X106500000Y-95800000D01*
X100472990Y-97727010D02*
X100800000Y-97400000D01*
X100472990Y-98700000D02*
X100472990Y-97727010D01*
X100800000Y-97400000D02*
X104900000Y-97400000D01*
D18*
X99800000Y-79900000D02*
X98100000Y-79900000D01*
X106865000Y-82435000D02*
X105530000Y-81100000D01*
X127940000Y-80000000D02*
X109300000Y-80000000D01*
X99900000Y-80000000D02*
X99800000Y-79900000D01*
X105530000Y-81100000D02*
X100800000Y-81100000D01*
X99900000Y-80000000D02*
X100450002Y-79449998D01*
X96000000Y-81700000D02*
X95100000Y-81700000D01*
X94000000Y-81700000D02*
X96000000Y-81700000D01*
X100800000Y-81100000D02*
X99900000Y-80200000D01*
X96300000Y-81700000D02*
X96000000Y-81700000D01*
X109300000Y-80000000D02*
X106865000Y-82435000D01*
X98100000Y-79900000D02*
X96300000Y-81700000D01*
X99900000Y-80200000D02*
X99900000Y-80000000D01*
D19*
X93100000Y-93100000D02*
X93100000Y-89800000D01*
D16*
X104950000Y-80150000D02*
X105200000Y-79900000D01*
X100892690Y-80150000D02*
X104950000Y-80150000D01*
X101200000Y-79842690D02*
X100892690Y-80150000D01*
X100776510Y-78876510D02*
X101200000Y-79300000D01*
X98448489Y-78851511D02*
X100719045Y-78851511D01*
X100719045Y-78851511D02*
X100744044Y-78876510D01*
X96200000Y-81100000D02*
X98448489Y-78851511D01*
X86300000Y-82600000D02*
X87800000Y-81100000D01*
X100744044Y-78876510D02*
X100776510Y-78876510D01*
X87800000Y-81100000D02*
X96200000Y-81100000D01*
X101200000Y-79300000D02*
X101200000Y-79842690D01*
X72300000Y-92700000D02*
X72060000Y-92700000D01*
D19*
X72060000Y-100320000D02*
X72940000Y-101200000D01*
X72940000Y-101200000D02*
X90200000Y-101200000D01*
D17*
X99900000Y-98400010D02*
X99900000Y-98600000D01*
X99299990Y-97800000D02*
X99900000Y-98400010D01*
G04 #@! TA.AperFunction,Conductor*
G36*
X128655404Y-78199121D02*
G01*
X128677802Y-78199160D01*
X128699642Y-78204182D01*
X128710598Y-78201703D01*
X128716027Y-78202952D01*
X128716243Y-78200425D01*
X128716244Y-78200425D01*
X128769910Y-78205005D01*
X128869629Y-78213515D01*
X128902976Y-78219249D01*
X129041541Y-78255426D01*
X129051264Y-78257965D01*
X129083163Y-78269267D01*
X129222758Y-78332556D01*
X129252271Y-78349096D01*
X129379117Y-78435117D01*
X129405402Y-78456417D01*
X129515848Y-78562697D01*
X129538144Y-78588145D01*
X129579237Y-78643993D01*
X129628974Y-78711588D01*
X129646640Y-78740451D01*
X129715244Y-78877504D01*
X129727764Y-78908946D01*
X129772152Y-79055640D01*
X129779163Y-79088744D01*
X129798098Y-79241181D01*
X129796705Y-79241354D01*
X129797394Y-79244890D01*
X129794995Y-79257527D01*
X129799426Y-79274118D01*
X129799017Y-79276271D01*
X129800001Y-79276271D01*
X129800959Y-103654691D01*
X129800879Y-103655393D01*
X129800840Y-103677802D01*
X129795818Y-103699642D01*
X129798297Y-103710598D01*
X129797048Y-103716027D01*
X129799575Y-103716243D01*
X129786485Y-103869628D01*
X129780751Y-103902976D01*
X129769947Y-103944360D01*
X129742035Y-104051264D01*
X129730733Y-104083163D01*
X129673686Y-104208991D01*
X129667446Y-104222754D01*
X129650904Y-104252271D01*
X129626395Y-104288412D01*
X129564886Y-104379113D01*
X129543583Y-104405402D01*
X129524211Y-104425533D01*
X129437306Y-104515845D01*
X129411855Y-104538144D01*
X129388468Y-104555352D01*
X129288412Y-104628974D01*
X129259549Y-104646640D01*
X129122496Y-104715244D01*
X129091054Y-104727764D01*
X128944360Y-104772152D01*
X128911256Y-104779163D01*
X128758819Y-104798098D01*
X128758646Y-104796703D01*
X128755104Y-104797393D01*
X128742473Y-104794995D01*
X128725882Y-104799426D01*
X128723729Y-104799017D01*
X128723729Y-104800001D01*
X71345304Y-104800960D01*
X71344596Y-104800879D01*
X71322198Y-104800840D01*
X71300358Y-104795818D01*
X71289402Y-104798297D01*
X71283973Y-104797048D01*
X71283757Y-104799575D01*
X71283756Y-104799575D01*
X71212579Y-104793501D01*
X71130371Y-104786485D01*
X71097024Y-104780751D01*
X70948736Y-104742035D01*
X70916837Y-104730733D01*
X70882673Y-104715244D01*
X70777242Y-104667444D01*
X70747729Y-104650904D01*
X70620883Y-104564883D01*
X70594598Y-104543583D01*
X70484152Y-104437303D01*
X70461854Y-104411852D01*
X70457111Y-104405405D01*
X70371026Y-104288412D01*
X70353360Y-104259549D01*
X70284756Y-104122496D01*
X70272236Y-104091054D01*
X70227848Y-103944360D01*
X70220837Y-103911256D01*
X70201902Y-103758819D01*
X70203295Y-103758646D01*
X70202606Y-103755110D01*
X70205005Y-103742473D01*
X70200574Y-103725882D01*
X70200983Y-103723729D01*
X70199999Y-103723729D01*
X70199976Y-103127399D01*
X71044313Y-103127399D01*
X71076328Y-103239048D01*
X71083457Y-103257053D01*
X71168685Y-103422890D01*
X71179181Y-103439176D01*
X71294989Y-103585290D01*
X71308452Y-103599231D01*
X71450439Y-103720071D01*
X71466349Y-103731129D01*
X71629099Y-103822086D01*
X71646860Y-103829846D01*
X71788673Y-103875924D01*
X71806485Y-103877527D01*
X71810000Y-103866707D01*
X71810000Y-103857982D01*
X72310000Y-103857982D01*
X72313979Y-103875416D01*
X72327868Y-103875416D01*
X72432173Y-103846293D01*
X72450224Y-103839292D01*
X72616655Y-103755221D01*
X72633011Y-103744842D01*
X72779939Y-103630049D01*
X72793960Y-103616696D01*
X72915795Y-103475550D01*
X72926961Y-103459721D01*
X73019059Y-103297599D01*
X73026935Y-103279908D01*
X73076380Y-103131274D01*
X73076756Y-103127399D01*
X126924313Y-103127399D01*
X126956328Y-103239048D01*
X126963457Y-103257053D01*
X127048685Y-103422890D01*
X127059181Y-103439176D01*
X127174989Y-103585290D01*
X127188452Y-103599231D01*
X127330439Y-103720071D01*
X127346349Y-103731129D01*
X127509099Y-103822086D01*
X127526860Y-103829846D01*
X127668673Y-103875924D01*
X127686485Y-103877527D01*
X127690000Y-103866707D01*
X127690000Y-103857982D01*
X128190000Y-103857982D01*
X128193979Y-103875416D01*
X128207868Y-103875416D01*
X128312173Y-103846293D01*
X128330224Y-103839292D01*
X128496655Y-103755221D01*
X128513011Y-103744842D01*
X128659939Y-103630049D01*
X128673960Y-103616696D01*
X128795795Y-103475550D01*
X128806961Y-103459721D01*
X128899059Y-103297599D01*
X128906935Y-103279908D01*
X128956380Y-103131274D01*
X128958107Y-103113479D01*
X128947650Y-103110000D01*
X128212423Y-103110000D01*
X128193453Y-103114330D01*
X128190000Y-103121500D01*
X128190000Y-103857982D01*
X127690000Y-103857982D01*
X127690000Y-103132423D01*
X127685670Y-103113453D01*
X127678500Y-103110000D01*
X126941747Y-103110000D01*
X126924313Y-103113979D01*
X126924313Y-103127399D01*
X73076756Y-103127399D01*
X73078107Y-103113479D01*
X73067650Y-103110000D01*
X72332423Y-103110000D01*
X72313453Y-103114330D01*
X72310000Y-103121500D01*
X72310000Y-103857982D01*
X71810000Y-103857982D01*
X71810000Y-103132423D01*
X71805670Y-103113453D01*
X71798500Y-103110000D01*
X71061747Y-103110000D01*
X71044313Y-103113979D01*
X71044313Y-103127399D01*
X70199976Y-103127399D01*
X70199955Y-102606448D01*
X71042995Y-102606448D01*
X71054192Y-102610000D01*
X71787577Y-102610000D01*
X71806547Y-102605670D01*
X71810000Y-102598500D01*
X71810000Y-102587577D01*
X72310000Y-102587577D01*
X72314330Y-102606547D01*
X72321500Y-102610000D01*
X73058958Y-102610000D01*
X73074521Y-102606448D01*
X126922995Y-102606448D01*
X126934192Y-102610000D01*
X127667577Y-102610000D01*
X127686547Y-102605670D01*
X127690000Y-102598500D01*
X127690000Y-102587577D01*
X128190000Y-102587577D01*
X128194330Y-102606547D01*
X128201500Y-102610000D01*
X128938958Y-102610000D01*
X128956392Y-102606021D01*
X128956392Y-102593476D01*
X128918284Y-102467258D01*
X128910901Y-102449345D01*
X128823371Y-102284726D01*
X128812645Y-102268582D01*
X128694807Y-102124097D01*
X128681153Y-102110348D01*
X128537495Y-101991503D01*
X128521431Y-101980668D01*
X128357421Y-101891989D01*
X128339566Y-101884483D01*
X128211419Y-101844815D01*
X128193589Y-101843461D01*
X128190000Y-101855057D01*
X128190000Y-102587577D01*
X127690000Y-102587577D01*
X127690000Y-101861422D01*
X127686021Y-101843988D01*
X127673049Y-101843988D01*
X127554099Y-101878997D01*
X127536135Y-101886255D01*
X127370897Y-101972639D01*
X127354691Y-101983244D01*
X127209385Y-102100074D01*
X127195544Y-102113628D01*
X127075690Y-102256464D01*
X127064752Y-102272438D01*
X126974925Y-102435832D01*
X126967296Y-102453633D01*
X126924473Y-102588627D01*
X126922995Y-102606448D01*
X73074521Y-102606448D01*
X73076392Y-102606021D01*
X73076392Y-102593476D01*
X73038284Y-102467258D01*
X73030901Y-102449345D01*
X72961993Y-102319748D01*
X96699500Y-102319748D01*
X96711133Y-102378231D01*
X96755448Y-102444552D01*
X96771740Y-102455438D01*
X96805475Y-102477980D01*
X96805477Y-102477981D01*
X96821769Y-102488867D01*
X96858053Y-102496084D01*
X96870658Y-102498592D01*
X96870662Y-102498592D01*
X96880252Y-102500500D01*
X97919748Y-102500500D01*
X97929338Y-102498592D01*
X97929342Y-102498592D01*
X97941947Y-102496084D01*
X97978231Y-102488867D01*
X97994523Y-102477981D01*
X97994525Y-102477980D01*
X98028260Y-102455438D01*
X98044552Y-102444552D01*
X98088867Y-102378231D01*
X98100500Y-102319748D01*
X98100500Y-101280252D01*
X98088867Y-101221769D01*
X98044552Y-101155448D01*
X98020469Y-101139356D01*
X97994525Y-101122020D01*
X97994523Y-101122019D01*
X97978231Y-101111133D01*
X97941947Y-101103916D01*
X97929342Y-101101408D01*
X97929338Y-101101408D01*
X97919748Y-101099500D01*
X96880252Y-101099500D01*
X96870662Y-101101408D01*
X96870658Y-101101408D01*
X96858053Y-101103916D01*
X96821769Y-101111133D01*
X96805477Y-101122019D01*
X96805475Y-101122020D01*
X96779531Y-101139356D01*
X96755448Y-101155448D01*
X96711133Y-101221769D01*
X96699500Y-101280252D01*
X96699500Y-102319748D01*
X72961993Y-102319748D01*
X72943371Y-102284726D01*
X72932645Y-102268582D01*
X72814807Y-102124097D01*
X72801153Y-102110348D01*
X72657495Y-101991503D01*
X72641431Y-101980668D01*
X72477421Y-101891989D01*
X72459566Y-101884483D01*
X72331419Y-101844815D01*
X72313589Y-101843461D01*
X72310000Y-101855057D01*
X72310000Y-102587577D01*
X71810000Y-102587577D01*
X71810000Y-101861422D01*
X71806021Y-101843988D01*
X71793049Y-101843988D01*
X71674099Y-101878997D01*
X71656135Y-101886255D01*
X71490897Y-101972639D01*
X71474691Y-101983244D01*
X71329385Y-102100074D01*
X71315544Y-102113628D01*
X71195690Y-102256464D01*
X71184752Y-102272438D01*
X71094925Y-102435832D01*
X71087296Y-102453633D01*
X71044473Y-102588627D01*
X71042995Y-102606448D01*
X70199955Y-102606448D01*
X70199931Y-101983244D01*
X70199865Y-100305262D01*
X71004520Y-100305262D01*
X71008233Y-100349474D01*
X71020831Y-100499500D01*
X71021759Y-100510553D01*
X71024441Y-100519908D01*
X71024442Y-100519911D01*
X71059161Y-100640991D01*
X71078544Y-100708586D01*
X71082991Y-100717239D01*
X71167196Y-100881084D01*
X71172712Y-100891818D01*
X71178759Y-100899447D01*
X71178760Y-100899449D01*
X71294628Y-101045639D01*
X71294632Y-101045643D01*
X71300677Y-101053270D01*
X71457564Y-101186791D01*
X71466057Y-101191538D01*
X71466062Y-101191541D01*
X71539755Y-101232726D01*
X71637398Y-101287297D01*
X71646653Y-101290304D01*
X71646655Y-101290305D01*
X71824070Y-101347951D01*
X71824074Y-101347952D01*
X71833329Y-101350959D01*
X71842993Y-101352111D01*
X71842996Y-101352112D01*
X72028232Y-101374199D01*
X72028233Y-101374199D01*
X72037894Y-101375351D01*
X72047590Y-101374605D01*
X72047592Y-101374605D01*
X72108037Y-101369954D01*
X72243300Y-101359546D01*
X72381049Y-101321086D01*
X72432349Y-101306763D01*
X72432351Y-101306762D01*
X72441725Y-101304145D01*
X72454530Y-101297677D01*
X72457987Y-101296818D01*
X72459486Y-101296237D01*
X72459560Y-101296428D01*
X72540483Y-101276336D01*
X72627184Y-101294402D01*
X72684970Y-101334586D01*
X72712145Y-101361761D01*
X72722335Y-101374177D01*
X72730490Y-101382332D01*
X72741376Y-101398624D01*
X72764377Y-101413993D01*
X72764378Y-101413994D01*
X72790535Y-101431471D01*
X72832505Y-101459515D01*
X72912867Y-101475500D01*
X72920775Y-101477073D01*
X72920776Y-101477073D01*
X72940000Y-101480897D01*
X72959224Y-101477073D01*
X72970762Y-101477073D01*
X72986732Y-101475500D01*
X89300500Y-101475500D01*
X89386843Y-101495207D01*
X89456084Y-101550426D01*
X89494511Y-101630218D01*
X89499500Y-101674500D01*
X89499500Y-101719748D01*
X89511133Y-101778231D01*
X89555448Y-101844552D01*
X89571740Y-101855438D01*
X89605475Y-101877980D01*
X89605477Y-101877981D01*
X89621769Y-101888867D01*
X89658053Y-101896084D01*
X89670658Y-101898592D01*
X89670662Y-101898592D01*
X89680252Y-101900500D01*
X90719748Y-101900500D01*
X90729338Y-101898592D01*
X90729342Y-101898592D01*
X90741947Y-101896084D01*
X90778231Y-101888867D01*
X90794523Y-101877981D01*
X90794525Y-101877980D01*
X90828260Y-101855438D01*
X90844552Y-101844552D01*
X90888867Y-101778231D01*
X90900500Y-101719748D01*
X90900500Y-100680252D01*
X90888867Y-100621769D01*
X90844552Y-100555448D01*
X90820469Y-100539356D01*
X90794525Y-100522020D01*
X90794523Y-100522019D01*
X90778231Y-100511133D01*
X90741947Y-100503916D01*
X90729342Y-100501408D01*
X90729338Y-100501408D01*
X90719748Y-100499500D01*
X89680252Y-100499500D01*
X89670662Y-100501408D01*
X89670658Y-100501408D01*
X89658053Y-100503916D01*
X89621769Y-100511133D01*
X89605477Y-100522019D01*
X89605475Y-100522020D01*
X89579531Y-100539356D01*
X89555448Y-100555448D01*
X89511133Y-100621769D01*
X89499500Y-100680252D01*
X89499500Y-100725500D01*
X89479793Y-100811843D01*
X89424574Y-100881084D01*
X89344782Y-100919511D01*
X89300500Y-100924500D01*
X73241976Y-100924500D01*
X73155633Y-100904793D01*
X73086392Y-100849574D01*
X73047965Y-100769782D01*
X73047965Y-100681218D01*
X73053146Y-100662698D01*
X73089351Y-100553863D01*
X73115171Y-100349474D01*
X73115583Y-100320000D01*
X73114138Y-100305262D01*
X126884520Y-100305262D01*
X126888233Y-100349474D01*
X126900831Y-100499500D01*
X126901759Y-100510553D01*
X126904441Y-100519908D01*
X126904442Y-100519911D01*
X126939161Y-100640991D01*
X126958544Y-100708586D01*
X126962991Y-100717239D01*
X127047196Y-100881084D01*
X127052712Y-100891818D01*
X127058759Y-100899447D01*
X127058760Y-100899449D01*
X127174628Y-101045639D01*
X127174632Y-101045643D01*
X127180677Y-101053270D01*
X127337564Y-101186791D01*
X127346057Y-101191538D01*
X127346062Y-101191541D01*
X127419755Y-101232726D01*
X127517398Y-101287297D01*
X127526653Y-101290304D01*
X127526655Y-101290305D01*
X127704070Y-101347951D01*
X127704074Y-101347952D01*
X127713329Y-101350959D01*
X127722993Y-101352111D01*
X127722996Y-101352112D01*
X127908232Y-101374199D01*
X127908233Y-101374199D01*
X127917894Y-101375351D01*
X127927590Y-101374605D01*
X127927592Y-101374605D01*
X127988037Y-101369954D01*
X128123300Y-101359546D01*
X128321725Y-101304145D01*
X128330404Y-101299761D01*
X128330409Y-101299759D01*
X128496929Y-101215643D01*
X128496928Y-101215643D01*
X128505610Y-101211258D01*
X128667951Y-101084424D01*
X128802564Y-100928472D01*
X128904323Y-100749344D01*
X128917882Y-100708586D01*
X128966279Y-100563098D01*
X128966280Y-100563094D01*
X128969351Y-100553863D01*
X128995171Y-100349474D01*
X128995583Y-100320000D01*
X128975480Y-100114970D01*
X128915935Y-99917749D01*
X128898567Y-99885083D01*
X128874471Y-99839767D01*
X128819218Y-99735849D01*
X128809253Y-99723630D01*
X128695163Y-99583743D01*
X128689011Y-99576200D01*
X128530275Y-99444882D01*
X128349055Y-99346897D01*
X128339757Y-99344019D01*
X128339755Y-99344018D01*
X128189136Y-99297394D01*
X128152254Y-99285977D01*
X127988376Y-99268753D01*
X127957046Y-99265460D01*
X127957045Y-99265460D01*
X127947369Y-99264443D01*
X127742203Y-99283114D01*
X127732864Y-99285863D01*
X127732862Y-99285863D01*
X127553918Y-99338529D01*
X127553915Y-99338530D01*
X127544572Y-99341280D01*
X127535941Y-99345792D01*
X127535939Y-99345793D01*
X127435459Y-99398323D01*
X127362002Y-99436726D01*
X127309525Y-99478919D01*
X127209028Y-99559719D01*
X127209024Y-99559723D01*
X127201447Y-99565815D01*
X127195194Y-99573267D01*
X127195193Y-99573268D01*
X127178774Y-99592836D01*
X127069024Y-99723630D01*
X126969776Y-99904162D01*
X126966834Y-99913437D01*
X126966833Y-99913439D01*
X126918397Y-100066131D01*
X126907484Y-100100532D01*
X126906400Y-100110196D01*
X126906399Y-100110201D01*
X126885605Y-100295587D01*
X126884520Y-100305262D01*
X73114138Y-100305262D01*
X73095480Y-100114970D01*
X73035935Y-99917749D01*
X73018567Y-99885083D01*
X72994471Y-99839767D01*
X72939218Y-99735849D01*
X72929253Y-99723630D01*
X72815163Y-99583743D01*
X72809011Y-99576200D01*
X72650275Y-99444882D01*
X72553611Y-99392616D01*
X97294898Y-99392616D01*
X97295713Y-99400000D01*
X97313490Y-99561020D01*
X97325133Y-99592836D01*
X97362682Y-99695442D01*
X97371715Y-99720127D01*
X97466212Y-99860754D01*
X97475085Y-99868828D01*
X97475086Y-99868829D01*
X97513917Y-99904162D01*
X97591525Y-99974780D01*
X97740420Y-100055624D01*
X97752029Y-100058669D01*
X97752030Y-100058670D01*
X97794514Y-100069815D01*
X97904301Y-100098617D01*
X97916298Y-100098805D01*
X97916302Y-100098806D01*
X98061711Y-100101090D01*
X98061715Y-100101090D01*
X98073707Y-100101278D01*
X98238858Y-100063454D01*
X98315522Y-100024896D01*
X98379501Y-99992718D01*
X98379503Y-99992716D01*
X98390219Y-99987327D01*
X98399340Y-99979537D01*
X98399343Y-99979535D01*
X98509931Y-99885083D01*
X98519052Y-99877293D01*
X98538092Y-99850797D01*
X98610915Y-99749452D01*
X98617920Y-99739704D01*
X98681114Y-99582504D01*
X98682895Y-99569994D01*
X98704068Y-99421217D01*
X98704986Y-99414767D01*
X98705141Y-99400000D01*
X98704358Y-99393528D01*
X98704248Y-99392616D01*
X101294898Y-99392616D01*
X101295713Y-99400000D01*
X101313490Y-99561020D01*
X101325133Y-99592836D01*
X101362682Y-99695442D01*
X101371715Y-99720127D01*
X101466212Y-99860754D01*
X101475085Y-99868828D01*
X101475086Y-99868829D01*
X101513917Y-99904162D01*
X101591525Y-99974780D01*
X101740420Y-100055624D01*
X101752029Y-100058669D01*
X101752030Y-100058670D01*
X101794514Y-100069815D01*
X101904301Y-100098617D01*
X101916298Y-100098805D01*
X101916302Y-100098806D01*
X102061711Y-100101090D01*
X102061715Y-100101090D01*
X102073707Y-100101278D01*
X102238858Y-100063454D01*
X102315522Y-100024896D01*
X102379501Y-99992718D01*
X102379503Y-99992716D01*
X102390219Y-99987327D01*
X102399340Y-99979537D01*
X102399343Y-99979535D01*
X102509931Y-99885083D01*
X102519052Y-99877293D01*
X102538092Y-99850797D01*
X102610915Y-99749452D01*
X102617920Y-99739704D01*
X102681114Y-99582504D01*
X102682895Y-99569994D01*
X102704068Y-99421217D01*
X102704986Y-99414767D01*
X102705141Y-99400000D01*
X102704358Y-99393528D01*
X102686229Y-99243712D01*
X102686228Y-99243708D01*
X102684787Y-99231800D01*
X102624898Y-99073311D01*
X102528934Y-98933682D01*
X102519980Y-98925704D01*
X102519978Y-98925702D01*
X102411394Y-98828957D01*
X102411393Y-98828957D01*
X102402434Y-98820974D01*
X102391828Y-98815359D01*
X102391826Y-98815357D01*
X102263304Y-98747308D01*
X102263300Y-98747307D01*
X102252700Y-98741694D01*
X102088378Y-98700419D01*
X102076377Y-98700356D01*
X102076376Y-98700356D01*
X102003665Y-98699975D01*
X101918953Y-98699532D01*
X101907287Y-98702333D01*
X101907285Y-98702333D01*
X101765873Y-98736283D01*
X101765869Y-98736284D01*
X101754208Y-98739084D01*
X101743547Y-98744587D01*
X101743546Y-98744587D01*
X101738274Y-98747308D01*
X101603652Y-98816792D01*
X101594616Y-98824675D01*
X101594614Y-98824676D01*
X101577896Y-98839260D01*
X101475978Y-98928169D01*
X101469080Y-98937984D01*
X101385456Y-99056968D01*
X101385454Y-99056971D01*
X101378557Y-99066785D01*
X101374198Y-99077965D01*
X101374197Y-99077967D01*
X101371203Y-99085646D01*
X101317012Y-99224639D01*
X101315447Y-99236530D01*
X101315446Y-99236532D01*
X101311656Y-99265325D01*
X101294898Y-99392616D01*
X98704248Y-99392616D01*
X98686229Y-99243712D01*
X98686228Y-99243708D01*
X98684787Y-99231800D01*
X98624898Y-99073311D01*
X98528934Y-98933682D01*
X98519980Y-98925704D01*
X98519978Y-98925702D01*
X98411394Y-98828957D01*
X98411393Y-98828957D01*
X98402434Y-98820974D01*
X98391828Y-98815359D01*
X98391826Y-98815357D01*
X98263304Y-98747308D01*
X98263300Y-98747307D01*
X98252700Y-98741694D01*
X98088378Y-98700419D01*
X98076377Y-98700356D01*
X98076376Y-98700356D01*
X98003665Y-98699975D01*
X97918953Y-98699532D01*
X97907287Y-98702333D01*
X97907285Y-98702333D01*
X97765873Y-98736283D01*
X97765869Y-98736284D01*
X97754208Y-98739084D01*
X97743547Y-98744587D01*
X97743546Y-98744587D01*
X97738274Y-98747308D01*
X97603652Y-98816792D01*
X97594616Y-98824675D01*
X97594614Y-98824676D01*
X97577896Y-98839260D01*
X97475978Y-98928169D01*
X97469080Y-98937984D01*
X97385456Y-99056968D01*
X97385454Y-99056971D01*
X97378557Y-99066785D01*
X97374198Y-99077965D01*
X97374197Y-99077967D01*
X97371203Y-99085646D01*
X97317012Y-99224639D01*
X97315447Y-99236530D01*
X97315446Y-99236532D01*
X97311656Y-99265325D01*
X97294898Y-99392616D01*
X72553611Y-99392616D01*
X72469055Y-99346897D01*
X72459757Y-99344019D01*
X72459755Y-99344018D01*
X72309136Y-99297394D01*
X72272254Y-99285977D01*
X72108376Y-99268753D01*
X72077046Y-99265460D01*
X72077045Y-99265460D01*
X72067369Y-99264443D01*
X71862203Y-99283114D01*
X71852864Y-99285863D01*
X71852862Y-99285863D01*
X71673918Y-99338529D01*
X71673915Y-99338530D01*
X71664572Y-99341280D01*
X71655941Y-99345792D01*
X71655939Y-99345793D01*
X71555459Y-99398323D01*
X71482002Y-99436726D01*
X71429525Y-99478919D01*
X71329028Y-99559719D01*
X71329024Y-99559723D01*
X71321447Y-99565815D01*
X71315194Y-99573267D01*
X71315193Y-99573268D01*
X71298774Y-99592836D01*
X71189024Y-99723630D01*
X71089776Y-99904162D01*
X71086834Y-99913437D01*
X71086833Y-99913439D01*
X71038397Y-100066131D01*
X71027484Y-100100532D01*
X71026400Y-100110196D01*
X71026399Y-100110201D01*
X71005605Y-100295587D01*
X71004520Y-100305262D01*
X70199865Y-100305262D01*
X70199766Y-97765262D01*
X71004520Y-97765262D01*
X71007898Y-97805492D01*
X71019325Y-97941563D01*
X71021759Y-97970553D01*
X71024441Y-97979908D01*
X71024442Y-97979911D01*
X71063745Y-98116976D01*
X71078544Y-98168586D01*
X71082991Y-98177239D01*
X71167974Y-98342598D01*
X71172712Y-98351818D01*
X71178759Y-98359447D01*
X71178760Y-98359449D01*
X71294628Y-98505639D01*
X71294632Y-98505643D01*
X71300677Y-98513270D01*
X71308090Y-98519579D01*
X71308091Y-98519580D01*
X71420761Y-98615469D01*
X71457564Y-98646791D01*
X71466057Y-98651538D01*
X71466062Y-98651541D01*
X71547481Y-98697044D01*
X71637398Y-98747297D01*
X71646653Y-98750304D01*
X71646655Y-98750305D01*
X71824070Y-98807951D01*
X71824074Y-98807952D01*
X71833329Y-98810959D01*
X71842993Y-98812111D01*
X71842996Y-98812112D01*
X72028232Y-98834199D01*
X72028233Y-98834199D01*
X72037894Y-98835351D01*
X72047590Y-98834605D01*
X72047592Y-98834605D01*
X72120992Y-98828957D01*
X72243300Y-98819546D01*
X72441725Y-98764145D01*
X72450404Y-98759761D01*
X72450409Y-98759759D01*
X72616929Y-98675643D01*
X72616928Y-98675643D01*
X72625610Y-98671258D01*
X72787951Y-98544424D01*
X72879888Y-98437913D01*
X72916208Y-98395836D01*
X72916210Y-98395834D01*
X72922564Y-98388472D01*
X73024323Y-98209344D01*
X73031392Y-98188096D01*
X73086279Y-98023098D01*
X73086279Y-98023097D01*
X73089351Y-98013863D01*
X73115171Y-97809474D01*
X73115304Y-97800000D01*
X98894498Y-97800000D01*
X98914344Y-97925304D01*
X98971940Y-98038342D01*
X99061648Y-98128050D01*
X99174686Y-98185646D01*
X99190155Y-98188096D01*
X99274317Y-98201426D01*
X99356514Y-98234398D01*
X99383900Y-98257262D01*
X99454549Y-98327911D01*
X99501668Y-98402899D01*
X99510385Y-98499755D01*
X99507245Y-98519580D01*
X99494508Y-98600000D01*
X99514354Y-98725304D01*
X99521465Y-98739260D01*
X99563101Y-98820974D01*
X99571950Y-98838342D01*
X99661658Y-98928050D01*
X99774696Y-98985646D01*
X99900000Y-99005492D01*
X100025304Y-98985646D01*
X100036105Y-98980143D01*
X100121832Y-98972427D01*
X100204748Y-99003546D01*
X100212089Y-99008631D01*
X100223571Y-99016973D01*
X100234648Y-99028050D01*
X100347686Y-99085646D01*
X100472990Y-99105492D01*
X100598294Y-99085646D01*
X100644670Y-99062016D01*
X100697378Y-99035160D01*
X100711332Y-99028050D01*
X100801040Y-98938342D01*
X100858636Y-98825304D01*
X100878482Y-98700000D01*
X100858636Y-98574696D01*
X100823450Y-98505639D01*
X100808150Y-98475612D01*
X100801040Y-98461658D01*
X100789966Y-98450584D01*
X100780760Y-98437913D01*
X100782969Y-98436308D01*
X100748157Y-98380906D01*
X100736990Y-98315180D01*
X100736990Y-97985434D01*
X100756697Y-97899091D01*
X100811916Y-97829850D01*
X100891708Y-97791423D01*
X100904860Y-97788884D01*
X100905391Y-97788800D01*
X100925304Y-97785646D01*
X100965310Y-97765262D01*
X126884520Y-97765262D01*
X126887898Y-97805492D01*
X126899325Y-97941563D01*
X126901759Y-97970553D01*
X126904441Y-97979908D01*
X126904442Y-97979911D01*
X126943745Y-98116976D01*
X126958544Y-98168586D01*
X126962991Y-98177239D01*
X127047974Y-98342598D01*
X127052712Y-98351818D01*
X127058759Y-98359447D01*
X127058760Y-98359449D01*
X127174628Y-98505639D01*
X127174632Y-98505643D01*
X127180677Y-98513270D01*
X127188090Y-98519579D01*
X127188091Y-98519580D01*
X127300761Y-98615469D01*
X127337564Y-98646791D01*
X127346057Y-98651538D01*
X127346062Y-98651541D01*
X127427481Y-98697044D01*
X127517398Y-98747297D01*
X127526653Y-98750304D01*
X127526655Y-98750305D01*
X127704070Y-98807951D01*
X127704074Y-98807952D01*
X127713329Y-98810959D01*
X127722993Y-98812111D01*
X127722996Y-98812112D01*
X127908232Y-98834199D01*
X127908233Y-98834199D01*
X127917894Y-98835351D01*
X127927590Y-98834605D01*
X127927592Y-98834605D01*
X128000992Y-98828957D01*
X128123300Y-98819546D01*
X128321725Y-98764145D01*
X128330404Y-98759761D01*
X128330409Y-98759759D01*
X128496929Y-98675643D01*
X128496928Y-98675643D01*
X128505610Y-98671258D01*
X128667951Y-98544424D01*
X128759888Y-98437913D01*
X128796208Y-98395836D01*
X128796210Y-98395834D01*
X128802564Y-98388472D01*
X128904323Y-98209344D01*
X128911392Y-98188096D01*
X128966279Y-98023098D01*
X128966279Y-98023097D01*
X128969351Y-98013863D01*
X128995171Y-97809474D01*
X128995304Y-97800000D01*
X128995505Y-97785549D01*
X128995583Y-97780000D01*
X128994859Y-97772609D01*
X128981640Y-97637792D01*
X128975480Y-97574970D01*
X128915935Y-97377749D01*
X128819218Y-97195849D01*
X128809253Y-97183630D01*
X128695163Y-97043743D01*
X128689011Y-97036200D01*
X128530275Y-96904882D01*
X128349055Y-96806897D01*
X128339757Y-96804019D01*
X128339755Y-96804018D01*
X128250655Y-96776437D01*
X128152254Y-96745977D01*
X127988376Y-96728753D01*
X127957046Y-96725460D01*
X127957045Y-96725460D01*
X127947369Y-96724443D01*
X127742203Y-96743114D01*
X127732864Y-96745863D01*
X127732862Y-96745863D01*
X127553918Y-96798529D01*
X127553915Y-96798530D01*
X127544572Y-96801280D01*
X127535941Y-96805792D01*
X127535939Y-96805793D01*
X127524971Y-96811527D01*
X127362002Y-96896726D01*
X127309525Y-96938919D01*
X127209028Y-97019719D01*
X127209024Y-97019723D01*
X127201447Y-97025815D01*
X127195194Y-97033267D01*
X127195193Y-97033268D01*
X127171650Y-97061326D01*
X127069024Y-97183630D01*
X126969776Y-97364162D01*
X126966834Y-97373437D01*
X126966833Y-97373439D01*
X126910640Y-97550584D01*
X126907484Y-97560532D01*
X126906400Y-97570196D01*
X126906399Y-97570201D01*
X126888694Y-97728050D01*
X126884520Y-97765262D01*
X100965310Y-97765262D01*
X101038342Y-97728050D01*
X101049416Y-97716976D01*
X101062087Y-97707770D01*
X101063692Y-97709979D01*
X101119094Y-97675167D01*
X101184820Y-97664000D01*
X104854401Y-97664000D01*
X104868086Y-97665348D01*
X104880775Y-97665348D01*
X104900000Y-97669172D01*
X104926002Y-97664000D01*
X105003008Y-97648683D01*
X105090333Y-97590333D01*
X105101222Y-97574037D01*
X105110191Y-97565068D01*
X105118920Y-97554432D01*
X106114567Y-96558786D01*
X106189556Y-96511667D01*
X106255281Y-96500500D01*
X107019748Y-96500500D01*
X107029338Y-96498592D01*
X107029342Y-96498592D01*
X107041947Y-96496084D01*
X107078231Y-96488867D01*
X107094523Y-96477981D01*
X107094525Y-96477980D01*
X107128260Y-96455438D01*
X107144552Y-96444552D01*
X107188867Y-96378231D01*
X107200500Y-96319748D01*
X107200500Y-95280252D01*
X107189562Y-95225262D01*
X126884520Y-95225262D01*
X126901759Y-95430553D01*
X126958544Y-95628586D01*
X126962991Y-95637239D01*
X126983842Y-95677810D01*
X127052712Y-95811818D01*
X127058759Y-95819447D01*
X127058760Y-95819449D01*
X127174628Y-95965639D01*
X127174632Y-95965643D01*
X127180677Y-95973270D01*
X127337564Y-96106791D01*
X127346057Y-96111538D01*
X127346062Y-96111541D01*
X127381342Y-96131258D01*
X127517398Y-96207297D01*
X127526653Y-96210304D01*
X127526655Y-96210305D01*
X127704070Y-96267951D01*
X127704074Y-96267952D01*
X127713329Y-96270959D01*
X127722993Y-96272111D01*
X127722996Y-96272112D01*
X127908232Y-96294199D01*
X127908233Y-96294199D01*
X127917894Y-96295351D01*
X127927590Y-96294605D01*
X127927592Y-96294605D01*
X127988037Y-96289954D01*
X128123300Y-96279546D01*
X128321725Y-96224145D01*
X128330404Y-96219761D01*
X128330409Y-96219759D01*
X128496929Y-96135643D01*
X128496928Y-96135643D01*
X128505610Y-96131258D01*
X128667951Y-96004424D01*
X128802564Y-95848472D01*
X128904323Y-95669344D01*
X128917882Y-95628586D01*
X128966279Y-95483098D01*
X128966279Y-95483097D01*
X128969351Y-95473863D01*
X128995171Y-95269474D01*
X128995583Y-95240000D01*
X128993796Y-95221769D01*
X128976430Y-95044661D01*
X128975480Y-95034970D01*
X128915935Y-94837749D01*
X128819218Y-94655849D01*
X128809253Y-94643630D01*
X128695163Y-94503743D01*
X128689011Y-94496200D01*
X128530275Y-94364882D01*
X128349055Y-94266897D01*
X128339757Y-94264019D01*
X128339755Y-94264018D01*
X128250655Y-94236437D01*
X128152254Y-94205977D01*
X127988376Y-94188753D01*
X127957046Y-94185460D01*
X127957045Y-94185460D01*
X127947369Y-94184443D01*
X127742203Y-94203114D01*
X127732864Y-94205863D01*
X127732862Y-94205863D01*
X127553918Y-94258529D01*
X127553915Y-94258530D01*
X127544572Y-94261280D01*
X127535941Y-94265792D01*
X127535939Y-94265793D01*
X127524971Y-94271527D01*
X127362002Y-94356726D01*
X127309525Y-94398919D01*
X127209028Y-94479719D01*
X127209024Y-94479723D01*
X127201447Y-94485815D01*
X127195194Y-94493267D01*
X127195193Y-94493268D01*
X127171650Y-94521326D01*
X127069024Y-94643630D01*
X126969776Y-94824162D01*
X126907484Y-95020532D01*
X126906400Y-95030196D01*
X126906399Y-95030201D01*
X126896100Y-95122020D01*
X126884520Y-95225262D01*
X107189562Y-95225262D01*
X107188867Y-95221769D01*
X107144552Y-95155448D01*
X107120469Y-95139356D01*
X107094525Y-95122020D01*
X107094523Y-95122019D01*
X107078231Y-95111133D01*
X107041947Y-95103916D01*
X107029342Y-95101408D01*
X107029338Y-95101408D01*
X107019748Y-95099500D01*
X105980252Y-95099500D01*
X105970662Y-95101408D01*
X105970658Y-95101408D01*
X105958053Y-95103916D01*
X105921769Y-95111133D01*
X105905477Y-95122019D01*
X105905475Y-95122020D01*
X105879531Y-95139356D01*
X105855448Y-95155448D01*
X105811133Y-95221769D01*
X105799500Y-95280252D01*
X105799500Y-96044719D01*
X105779793Y-96131062D01*
X105741214Y-96185433D01*
X104848934Y-97077714D01*
X104773946Y-97124833D01*
X104708220Y-97136000D01*
X101184820Y-97136000D01*
X101098477Y-97116293D01*
X101062930Y-97091070D01*
X101062087Y-97092230D01*
X101049416Y-97083024D01*
X101038342Y-97071950D01*
X100925304Y-97014354D01*
X100800000Y-96994508D01*
X100674696Y-97014354D01*
X100561658Y-97071950D01*
X100471950Y-97161658D01*
X100414354Y-97274696D01*
X100411904Y-97290165D01*
X100398574Y-97374327D01*
X100365602Y-97456524D01*
X100342738Y-97483910D01*
X100318558Y-97508090D01*
X100307922Y-97516819D01*
X100298953Y-97525788D01*
X100282657Y-97536677D01*
X100267928Y-97558720D01*
X100224307Y-97624002D01*
X100203818Y-97727010D01*
X100207642Y-97746235D01*
X100207642Y-97758924D01*
X100208990Y-97772609D01*
X100208990Y-97855220D01*
X100189283Y-97941563D01*
X100134064Y-98010804D01*
X100054272Y-98049231D01*
X99965708Y-98049231D01*
X99885916Y-98010804D01*
X99869276Y-97995934D01*
X99757252Y-97883910D01*
X99710133Y-97808922D01*
X99701416Y-97774327D01*
X99688086Y-97690165D01*
X99685636Y-97674696D01*
X99628040Y-97561658D01*
X99538332Y-97471950D01*
X99425294Y-97414354D01*
X99362642Y-97404431D01*
X99315459Y-97396958D01*
X99299990Y-97394508D01*
X99284521Y-97396958D01*
X99237338Y-97404431D01*
X99174686Y-97414354D01*
X99061648Y-97471950D01*
X98971940Y-97561658D01*
X98914344Y-97674696D01*
X98911894Y-97690165D01*
X98898542Y-97774470D01*
X98894498Y-97800000D01*
X73115304Y-97800000D01*
X73115505Y-97785549D01*
X73115583Y-97780000D01*
X73114859Y-97772609D01*
X73101640Y-97637792D01*
X73095480Y-97574970D01*
X73035935Y-97377749D01*
X72939218Y-97195849D01*
X72929253Y-97183630D01*
X72815163Y-97043743D01*
X72809011Y-97036200D01*
X72650275Y-96904882D01*
X72469055Y-96806897D01*
X72459757Y-96804019D01*
X72459755Y-96804018D01*
X72370655Y-96776437D01*
X72272254Y-96745977D01*
X72108376Y-96728753D01*
X72077046Y-96725460D01*
X72077045Y-96725460D01*
X72067369Y-96724443D01*
X71862203Y-96743114D01*
X71852864Y-96745863D01*
X71852862Y-96745863D01*
X71673918Y-96798529D01*
X71673915Y-96798530D01*
X71664572Y-96801280D01*
X71655941Y-96805792D01*
X71655939Y-96805793D01*
X71644971Y-96811527D01*
X71482002Y-96896726D01*
X71429525Y-96938919D01*
X71329028Y-97019719D01*
X71329024Y-97019723D01*
X71321447Y-97025815D01*
X71315194Y-97033267D01*
X71315193Y-97033268D01*
X71291650Y-97061326D01*
X71189024Y-97183630D01*
X71089776Y-97364162D01*
X71086834Y-97373437D01*
X71086833Y-97373439D01*
X71030640Y-97550584D01*
X71027484Y-97560532D01*
X71026400Y-97570196D01*
X71026399Y-97570201D01*
X71008694Y-97728050D01*
X71004520Y-97765262D01*
X70199766Y-97765262D01*
X70199666Y-95225262D01*
X71004520Y-95225262D01*
X71021759Y-95430553D01*
X71078544Y-95628586D01*
X71082991Y-95637239D01*
X71103842Y-95677810D01*
X71172712Y-95811818D01*
X71178759Y-95819447D01*
X71178760Y-95819449D01*
X71294628Y-95965639D01*
X71294632Y-95965643D01*
X71300677Y-95973270D01*
X71457564Y-96106791D01*
X71466057Y-96111538D01*
X71466062Y-96111541D01*
X71501342Y-96131258D01*
X71637398Y-96207297D01*
X71646653Y-96210304D01*
X71646655Y-96210305D01*
X71824070Y-96267951D01*
X71824074Y-96267952D01*
X71833329Y-96270959D01*
X71842993Y-96272111D01*
X71842996Y-96272112D01*
X72028232Y-96294199D01*
X72028233Y-96294199D01*
X72037894Y-96295351D01*
X72047590Y-96294605D01*
X72047592Y-96294605D01*
X72108037Y-96289954D01*
X72243300Y-96279546D01*
X72441725Y-96224145D01*
X72450404Y-96219761D01*
X72450409Y-96219759D01*
X72616929Y-96135643D01*
X72616928Y-96135643D01*
X72625610Y-96131258D01*
X72787951Y-96004424D01*
X72922564Y-95848472D01*
X73024323Y-95669344D01*
X73037882Y-95628586D01*
X73086279Y-95483098D01*
X73086279Y-95483097D01*
X73089351Y-95473863D01*
X73115171Y-95269474D01*
X73115583Y-95240000D01*
X73113796Y-95221769D01*
X73096430Y-95044661D01*
X73095480Y-95034970D01*
X73035935Y-94837749D01*
X72939218Y-94655849D01*
X72929253Y-94643630D01*
X72815163Y-94503743D01*
X72809011Y-94496200D01*
X72650275Y-94364882D01*
X72469055Y-94266897D01*
X72459757Y-94264019D01*
X72459755Y-94264018D01*
X72370655Y-94236437D01*
X72272254Y-94205977D01*
X72108376Y-94188753D01*
X72077046Y-94185460D01*
X72077045Y-94185460D01*
X72067369Y-94184443D01*
X71862203Y-94203114D01*
X71852864Y-94205863D01*
X71852862Y-94205863D01*
X71673918Y-94258529D01*
X71673915Y-94258530D01*
X71664572Y-94261280D01*
X71655941Y-94265792D01*
X71655939Y-94265793D01*
X71644971Y-94271527D01*
X71482002Y-94356726D01*
X71429525Y-94398919D01*
X71329028Y-94479719D01*
X71329024Y-94479723D01*
X71321447Y-94485815D01*
X71315194Y-94493267D01*
X71315193Y-94493268D01*
X71291650Y-94521326D01*
X71189024Y-94643630D01*
X71089776Y-94824162D01*
X71027484Y-95020532D01*
X71026400Y-95030196D01*
X71026399Y-95030201D01*
X71016100Y-95122020D01*
X71004520Y-95225262D01*
X70199666Y-95225262D01*
X70199566Y-92685262D01*
X71004520Y-92685262D01*
X71021759Y-92890553D01*
X71024441Y-92899908D01*
X71024442Y-92899911D01*
X71075862Y-93079234D01*
X71078544Y-93088586D01*
X71082991Y-93097239D01*
X71163418Y-93253733D01*
X71172712Y-93271818D01*
X71178759Y-93279447D01*
X71178760Y-93279449D01*
X71294628Y-93425639D01*
X71294632Y-93425643D01*
X71300677Y-93433270D01*
X71308090Y-93439579D01*
X71308091Y-93439580D01*
X71436111Y-93548533D01*
X71457564Y-93566791D01*
X71466057Y-93571538D01*
X71466062Y-93571541D01*
X71501342Y-93591258D01*
X71637398Y-93667297D01*
X71646653Y-93670304D01*
X71646655Y-93670305D01*
X71824070Y-93727951D01*
X71824074Y-93727952D01*
X71833329Y-93730959D01*
X71842993Y-93732111D01*
X71842996Y-93732112D01*
X72028232Y-93754199D01*
X72028233Y-93754199D01*
X72037894Y-93755351D01*
X72047590Y-93754605D01*
X72047592Y-93754605D01*
X72108037Y-93749954D01*
X72243300Y-93739546D01*
X72441725Y-93684145D01*
X72450404Y-93679761D01*
X72450409Y-93679759D01*
X72616929Y-93595643D01*
X72616928Y-93595643D01*
X72625610Y-93591258D01*
X72787951Y-93464424D01*
X72922564Y-93308472D01*
X73024323Y-93129344D01*
X73032029Y-93106181D01*
X73036140Y-93093823D01*
X92594391Y-93093823D01*
X92596229Y-93107879D01*
X92596229Y-93107880D01*
X92599036Y-93129344D01*
X92612980Y-93235979D01*
X92670720Y-93367203D01*
X92679843Y-93378056D01*
X92752443Y-93464424D01*
X92762970Y-93476948D01*
X92882313Y-93556390D01*
X93019157Y-93599142D01*
X93033329Y-93599402D01*
X93033330Y-93599402D01*
X93087626Y-93600397D01*
X93162499Y-93601770D01*
X93176171Y-93598042D01*
X93176175Y-93598042D01*
X93287143Y-93567788D01*
X93300817Y-93564060D01*
X93328691Y-93546946D01*
X93410912Y-93496462D01*
X93410914Y-93496460D01*
X93422991Y-93489045D01*
X93445277Y-93464424D01*
X93509686Y-93393266D01*
X93509689Y-93393262D01*
X93519200Y-93382754D01*
X93581710Y-93253733D01*
X93605496Y-93112354D01*
X93605647Y-93100000D01*
X93585323Y-92958082D01*
X93525984Y-92827572D01*
X93432400Y-92718963D01*
X93433740Y-92717808D01*
X93391574Y-92659865D01*
X93375500Y-92581513D01*
X93375500Y-90318200D01*
X93395207Y-90231857D01*
X93426963Y-90184657D01*
X93509685Y-90093266D01*
X93519200Y-90082754D01*
X93581710Y-89953733D01*
X93605496Y-89812354D01*
X93605647Y-89800000D01*
X93598366Y-89749159D01*
X93587333Y-89672116D01*
X93587333Y-89672115D01*
X93585323Y-89658082D01*
X93525984Y-89527572D01*
X93512363Y-89511764D01*
X93441654Y-89429702D01*
X93441651Y-89429700D01*
X93432400Y-89418963D01*
X93312095Y-89340985D01*
X93174739Y-89299907D01*
X93160568Y-89299820D01*
X93160565Y-89299820D01*
X93101208Y-89299458D01*
X93031376Y-89299031D01*
X92962453Y-89318729D01*
X92907160Y-89334532D01*
X92907159Y-89334533D01*
X92893529Y-89338428D01*
X92772280Y-89414930D01*
X92677377Y-89522388D01*
X92671353Y-89535218D01*
X92671352Y-89535220D01*
X92622473Y-89639327D01*
X92622472Y-89639330D01*
X92616447Y-89652163D01*
X92594391Y-89793823D01*
X92612980Y-89935979D01*
X92670720Y-90067203D01*
X92679843Y-90078056D01*
X92744491Y-90154964D01*
X92762970Y-90176948D01*
X92763246Y-90177132D01*
X92809373Y-90242180D01*
X92824500Y-90318283D01*
X92824500Y-92581175D01*
X92804793Y-92667518D01*
X92769858Y-92712791D01*
X92772280Y-92714930D01*
X92677377Y-92822388D01*
X92671353Y-92835218D01*
X92671352Y-92835220D01*
X92622473Y-92939327D01*
X92622472Y-92939330D01*
X92616447Y-92952163D01*
X92594391Y-93093823D01*
X73036140Y-93093823D01*
X73086279Y-92943098D01*
X73086279Y-92943097D01*
X73089351Y-92933863D01*
X73115171Y-92729474D01*
X73115583Y-92700000D01*
X73113817Y-92681982D01*
X73096430Y-92504661D01*
X73095480Y-92494970D01*
X73035935Y-92297749D01*
X72939218Y-92115849D01*
X72929253Y-92103630D01*
X72815163Y-91963743D01*
X72809011Y-91956200D01*
X72650275Y-91824882D01*
X72469055Y-91726897D01*
X72459757Y-91724019D01*
X72459755Y-91724018D01*
X72370654Y-91696437D01*
X72272254Y-91665977D01*
X72108376Y-91648753D01*
X72077046Y-91645460D01*
X72077045Y-91645460D01*
X72067369Y-91644443D01*
X71862203Y-91663114D01*
X71852864Y-91665863D01*
X71852862Y-91665863D01*
X71673918Y-91718529D01*
X71673915Y-91718530D01*
X71664572Y-91721280D01*
X71655941Y-91725792D01*
X71655939Y-91725793D01*
X71560605Y-91775633D01*
X71482002Y-91816726D01*
X71429525Y-91858919D01*
X71329028Y-91939719D01*
X71329024Y-91939723D01*
X71321447Y-91945815D01*
X71315194Y-91953267D01*
X71315193Y-91953268D01*
X71291650Y-91981326D01*
X71189024Y-92103630D01*
X71089776Y-92284162D01*
X71027484Y-92480532D01*
X71026400Y-92490196D01*
X71026399Y-92490201D01*
X71006510Y-92667518D01*
X71004520Y-92685262D01*
X70199566Y-92685262D01*
X70199466Y-90145262D01*
X71004520Y-90145262D01*
X71021759Y-90350553D01*
X71024441Y-90359908D01*
X71024442Y-90359911D01*
X71075862Y-90539234D01*
X71078544Y-90548586D01*
X71082991Y-90557239D01*
X71103842Y-90597810D01*
X71172712Y-90731818D01*
X71178759Y-90739447D01*
X71178760Y-90739449D01*
X71294628Y-90885639D01*
X71294632Y-90885643D01*
X71300677Y-90893270D01*
X71457564Y-91026791D01*
X71466057Y-91031538D01*
X71466062Y-91031541D01*
X71501342Y-91051258D01*
X71637398Y-91127297D01*
X71646653Y-91130304D01*
X71646655Y-91130305D01*
X71824070Y-91187951D01*
X71824074Y-91187952D01*
X71833329Y-91190959D01*
X71842993Y-91192111D01*
X71842996Y-91192112D01*
X72028232Y-91214199D01*
X72028233Y-91214199D01*
X72037894Y-91215351D01*
X72047590Y-91214605D01*
X72047592Y-91214605D01*
X72108037Y-91209954D01*
X72243300Y-91199546D01*
X72441725Y-91144145D01*
X72450404Y-91139761D01*
X72450409Y-91139759D01*
X72616929Y-91055643D01*
X72616928Y-91055643D01*
X72625610Y-91051258D01*
X72787951Y-90924424D01*
X72922564Y-90768472D01*
X73024323Y-90589344D01*
X73037882Y-90548586D01*
X73086279Y-90403098D01*
X73086279Y-90403097D01*
X73089351Y-90393863D01*
X73115171Y-90189474D01*
X73115583Y-90160000D01*
X73107549Y-90078056D01*
X73096430Y-89964661D01*
X73095480Y-89954970D01*
X73035935Y-89757749D01*
X72939218Y-89575849D01*
X72929253Y-89563630D01*
X72815163Y-89423743D01*
X72809011Y-89416200D01*
X72727413Y-89348696D01*
X72657776Y-89291087D01*
X72657774Y-89291085D01*
X72650275Y-89284882D01*
X72469055Y-89186897D01*
X72459757Y-89184019D01*
X72459755Y-89184018D01*
X72370655Y-89156437D01*
X72272254Y-89125977D01*
X72108376Y-89108753D01*
X72077046Y-89105460D01*
X72077045Y-89105460D01*
X72067369Y-89104443D01*
X71862203Y-89123114D01*
X71852864Y-89125863D01*
X71852862Y-89125863D01*
X71673918Y-89178529D01*
X71673915Y-89178530D01*
X71664572Y-89181280D01*
X71655941Y-89185792D01*
X71655939Y-89185793D01*
X71644971Y-89191527D01*
X71482002Y-89276726D01*
X71448120Y-89303968D01*
X71329028Y-89399719D01*
X71329024Y-89399723D01*
X71321447Y-89405815D01*
X71315194Y-89413267D01*
X71315193Y-89413268D01*
X71304883Y-89425555D01*
X71189024Y-89563630D01*
X71089776Y-89744162D01*
X71086834Y-89753437D01*
X71086833Y-89753439D01*
X71069564Y-89807880D01*
X71027484Y-89940532D01*
X71026400Y-89950196D01*
X71026399Y-89950201D01*
X71012962Y-90069996D01*
X71004520Y-90145262D01*
X70199466Y-90145262D01*
X70199366Y-87605262D01*
X71004520Y-87605262D01*
X71008233Y-87649474D01*
X71020082Y-87790580D01*
X71021759Y-87810553D01*
X71024441Y-87819908D01*
X71024442Y-87819911D01*
X71075862Y-87999234D01*
X71078544Y-88008586D01*
X71082991Y-88017239D01*
X71136755Y-88121852D01*
X71172712Y-88191818D01*
X71178759Y-88199447D01*
X71178760Y-88199449D01*
X71294628Y-88345639D01*
X71294632Y-88345643D01*
X71300677Y-88353270D01*
X71457564Y-88486791D01*
X71466057Y-88491538D01*
X71466062Y-88491541D01*
X71501342Y-88511258D01*
X71637398Y-88587297D01*
X71646653Y-88590304D01*
X71646655Y-88590305D01*
X71824070Y-88647951D01*
X71824074Y-88647952D01*
X71833329Y-88650959D01*
X71842993Y-88652111D01*
X71842996Y-88652112D01*
X72028232Y-88674199D01*
X72028233Y-88674199D01*
X72037894Y-88675351D01*
X72047590Y-88674605D01*
X72047592Y-88674605D01*
X72108037Y-88669954D01*
X72243300Y-88659546D01*
X72441725Y-88604145D01*
X72450404Y-88599761D01*
X72450409Y-88599759D01*
X72616929Y-88515643D01*
X72616928Y-88515643D01*
X72625610Y-88511258D01*
X72787951Y-88384424D01*
X72922564Y-88228472D01*
X73024323Y-88049344D01*
X73037882Y-88008586D01*
X73086279Y-87863098D01*
X73086279Y-87863097D01*
X73089351Y-87853863D01*
X73115171Y-87649474D01*
X73115583Y-87620000D01*
X73114834Y-87612354D01*
X73113017Y-87593823D01*
X99094391Y-87593823D01*
X99096229Y-87607879D01*
X99096229Y-87607880D01*
X99108829Y-87704237D01*
X99112980Y-87735979D01*
X99170720Y-87867203D01*
X99262970Y-87976948D01*
X99382313Y-88056390D01*
X99519157Y-88099142D01*
X99533329Y-88099402D01*
X99533330Y-88099402D01*
X99568795Y-88100052D01*
X99596781Y-88100565D01*
X99682748Y-88121852D01*
X99733847Y-88158818D01*
X102978482Y-91403453D01*
X102976276Y-91405659D01*
X102980423Y-91409495D01*
X102981086Y-91408780D01*
X103015979Y-91441148D01*
X103021357Y-91446328D01*
X103033788Y-91458759D01*
X103033519Y-91459028D01*
X103036866Y-91463404D01*
X103038302Y-91461856D01*
X103063157Y-91484912D01*
X103080220Y-91491720D01*
X103083715Y-91493929D01*
X103087504Y-91495608D01*
X103102657Y-91506003D01*
X103121423Y-91510456D01*
X103149216Y-91519246D01*
X103167133Y-91526394D01*
X103173426Y-91527011D01*
X103178294Y-91527011D01*
X103179950Y-91527092D01*
X103186329Y-91527248D01*
X103193699Y-91527608D01*
X103211577Y-91531851D01*
X103233784Y-91528829D01*
X103260617Y-91527011D01*
X126259612Y-91527011D01*
X126345955Y-91546718D01*
X126400326Y-91585297D01*
X126915387Y-92100358D01*
X126962506Y-92175346D01*
X126972422Y-92263353D01*
X126964359Y-92301237D01*
X126907484Y-92480532D01*
X126906400Y-92490196D01*
X126906399Y-92490201D01*
X126886510Y-92667518D01*
X126884520Y-92685262D01*
X126901759Y-92890553D01*
X126904441Y-92899908D01*
X126904442Y-92899911D01*
X126955862Y-93079234D01*
X126958544Y-93088586D01*
X126962991Y-93097239D01*
X127043418Y-93253733D01*
X127052712Y-93271818D01*
X127058759Y-93279447D01*
X127058760Y-93279449D01*
X127174628Y-93425639D01*
X127174632Y-93425643D01*
X127180677Y-93433270D01*
X127188090Y-93439579D01*
X127188091Y-93439580D01*
X127316111Y-93548533D01*
X127337564Y-93566791D01*
X127346057Y-93571538D01*
X127346062Y-93571541D01*
X127381342Y-93591258D01*
X127517398Y-93667297D01*
X127526653Y-93670304D01*
X127526655Y-93670305D01*
X127704070Y-93727951D01*
X127704074Y-93727952D01*
X127713329Y-93730959D01*
X127722993Y-93732111D01*
X127722996Y-93732112D01*
X127908232Y-93754199D01*
X127908233Y-93754199D01*
X127917894Y-93755351D01*
X127927590Y-93754605D01*
X127927592Y-93754605D01*
X127988037Y-93749954D01*
X128123300Y-93739546D01*
X128321725Y-93684145D01*
X128330404Y-93679761D01*
X128330409Y-93679759D01*
X128496929Y-93595643D01*
X128496928Y-93595643D01*
X128505610Y-93591258D01*
X128667951Y-93464424D01*
X128802564Y-93308472D01*
X128904323Y-93129344D01*
X128912029Y-93106181D01*
X128966279Y-92943098D01*
X128966279Y-92943097D01*
X128969351Y-92933863D01*
X128995171Y-92729474D01*
X128995583Y-92700000D01*
X128993817Y-92681982D01*
X128976430Y-92504661D01*
X128975480Y-92494970D01*
X128915935Y-92297749D01*
X128819218Y-92115849D01*
X128809253Y-92103630D01*
X128695163Y-91963743D01*
X128689011Y-91956200D01*
X128530275Y-91824882D01*
X128349055Y-91726897D01*
X128339757Y-91724019D01*
X128339755Y-91724018D01*
X128250654Y-91696437D01*
X128152254Y-91665977D01*
X127988376Y-91648753D01*
X127957046Y-91645460D01*
X127957045Y-91645460D01*
X127947369Y-91644443D01*
X127742203Y-91663114D01*
X127732864Y-91665863D01*
X127732862Y-91665863D01*
X127544572Y-91721280D01*
X127544171Y-91719916D01*
X127467228Y-91732300D01*
X127382343Y-91707042D01*
X127339403Y-91674432D01*
X127190116Y-91525145D01*
X127142997Y-91450157D01*
X127133081Y-91362150D01*
X127162332Y-91278557D01*
X127224956Y-91215933D01*
X127267471Y-91198390D01*
X127267371Y-91198156D01*
X127267721Y-91198006D01*
X127270310Y-91197219D01*
X127274902Y-91195325D01*
X127274849Y-91195188D01*
X127280769Y-91192904D01*
X127287079Y-91190300D01*
X127288130Y-91190063D01*
X127291992Y-91188573D01*
X127310053Y-91185209D01*
X127326481Y-91175083D01*
X127352339Y-91161651D01*
X127370063Y-91154036D01*
X127374459Y-91150425D01*
X127453453Y-91124039D01*
X127534411Y-91132825D01*
X127626605Y-91162781D01*
X127704070Y-91187951D01*
X127704074Y-91187952D01*
X127713329Y-91190959D01*
X127722993Y-91192111D01*
X127722996Y-91192112D01*
X127908232Y-91214199D01*
X127908233Y-91214199D01*
X127917894Y-91215351D01*
X127927590Y-91214605D01*
X127927592Y-91214605D01*
X127988037Y-91209954D01*
X128123300Y-91199546D01*
X128321725Y-91144145D01*
X128330404Y-91139761D01*
X128330409Y-91139759D01*
X128496929Y-91055643D01*
X128496928Y-91055643D01*
X128505610Y-91051258D01*
X128667951Y-90924424D01*
X128802564Y-90768472D01*
X128904323Y-90589344D01*
X128917882Y-90548586D01*
X128966279Y-90403098D01*
X128966279Y-90403097D01*
X128969351Y-90393863D01*
X128995171Y-90189474D01*
X128995583Y-90160000D01*
X128987549Y-90078056D01*
X128976430Y-89964661D01*
X128975480Y-89954970D01*
X128915935Y-89757749D01*
X128819218Y-89575849D01*
X128809253Y-89563630D01*
X128695163Y-89423743D01*
X128689011Y-89416200D01*
X128607413Y-89348696D01*
X128537776Y-89291087D01*
X128537774Y-89291085D01*
X128530275Y-89284882D01*
X128349055Y-89186897D01*
X128339757Y-89184019D01*
X128339755Y-89184018D01*
X128250655Y-89156437D01*
X128152254Y-89125977D01*
X127988376Y-89108753D01*
X127957046Y-89105460D01*
X127957045Y-89105460D01*
X127947369Y-89104443D01*
X127742203Y-89123114D01*
X127732864Y-89125863D01*
X127732862Y-89125863D01*
X127553918Y-89178529D01*
X127553915Y-89178530D01*
X127544572Y-89181280D01*
X127535941Y-89185792D01*
X127535939Y-89185793D01*
X127524971Y-89191527D01*
X127362002Y-89276726D01*
X127328120Y-89303968D01*
X127209028Y-89399719D01*
X127209024Y-89399723D01*
X127201447Y-89405815D01*
X127195194Y-89413267D01*
X127195193Y-89413268D01*
X127184883Y-89425555D01*
X127069024Y-89563630D01*
X126969776Y-89744162D01*
X126966834Y-89753437D01*
X126966833Y-89753439D01*
X126949564Y-89807880D01*
X126907484Y-89940532D01*
X126906400Y-89950196D01*
X126906399Y-89950201D01*
X126892962Y-90069996D01*
X126884520Y-90145262D01*
X126901759Y-90350553D01*
X126904441Y-90359908D01*
X126905298Y-90364575D01*
X126901502Y-90453057D01*
X126859691Y-90531130D01*
X126788146Y-90583329D01*
X126709568Y-90599500D01*
X103606899Y-90599500D01*
X103520556Y-90579793D01*
X103466185Y-90541214D01*
X100858786Y-87933815D01*
X100811667Y-87858827D01*
X100800500Y-87793101D01*
X100800500Y-87790580D01*
X100820207Y-87704237D01*
X100851963Y-87657037D01*
X100898827Y-87605262D01*
X126884520Y-87605262D01*
X126888233Y-87649474D01*
X126900082Y-87790580D01*
X126901759Y-87810553D01*
X126904441Y-87819908D01*
X126904442Y-87819911D01*
X126955862Y-87999234D01*
X126958544Y-88008586D01*
X126962991Y-88017239D01*
X127016755Y-88121852D01*
X127052712Y-88191818D01*
X127058759Y-88199447D01*
X127058760Y-88199449D01*
X127174628Y-88345639D01*
X127174632Y-88345643D01*
X127180677Y-88353270D01*
X127337564Y-88486791D01*
X127346057Y-88491538D01*
X127346062Y-88491541D01*
X127381342Y-88511258D01*
X127517398Y-88587297D01*
X127526653Y-88590304D01*
X127526655Y-88590305D01*
X127704070Y-88647951D01*
X127704074Y-88647952D01*
X127713329Y-88650959D01*
X127722993Y-88652111D01*
X127722996Y-88652112D01*
X127908232Y-88674199D01*
X127908233Y-88674199D01*
X127917894Y-88675351D01*
X127927590Y-88674605D01*
X127927592Y-88674605D01*
X127988037Y-88669954D01*
X128123300Y-88659546D01*
X128321725Y-88604145D01*
X128330404Y-88599761D01*
X128330409Y-88599759D01*
X128496929Y-88515643D01*
X128496928Y-88515643D01*
X128505610Y-88511258D01*
X128667951Y-88384424D01*
X128802564Y-88228472D01*
X128904323Y-88049344D01*
X128917882Y-88008586D01*
X128966279Y-87863098D01*
X128966279Y-87863097D01*
X128969351Y-87853863D01*
X128995171Y-87649474D01*
X128995583Y-87620000D01*
X128994834Y-87612354D01*
X128980532Y-87466492D01*
X128975480Y-87414970D01*
X128915935Y-87217749D01*
X128905529Y-87198177D01*
X128858833Y-87110355D01*
X128819218Y-87035849D01*
X128809253Y-87023630D01*
X128695163Y-86883743D01*
X128689011Y-86876200D01*
X128595730Y-86799031D01*
X128537776Y-86751087D01*
X128537774Y-86751085D01*
X128530275Y-86744882D01*
X128349055Y-86646897D01*
X128339757Y-86644019D01*
X128339755Y-86644018D01*
X128250655Y-86616437D01*
X128152254Y-86585977D01*
X127988376Y-86568753D01*
X127957046Y-86565460D01*
X127957045Y-86565460D01*
X127947369Y-86564443D01*
X127742203Y-86583114D01*
X127732864Y-86585863D01*
X127732862Y-86585863D01*
X127553918Y-86638529D01*
X127553915Y-86638530D01*
X127544572Y-86641280D01*
X127535941Y-86645792D01*
X127535939Y-86645793D01*
X127524971Y-86651527D01*
X127362002Y-86736726D01*
X127313741Y-86775529D01*
X127209028Y-86859719D01*
X127209024Y-86859723D01*
X127201447Y-86865815D01*
X127195194Y-86873267D01*
X127195193Y-86873268D01*
X127171650Y-86901326D01*
X127069024Y-87023630D01*
X126969776Y-87204162D01*
X126966834Y-87213437D01*
X126966833Y-87213439D01*
X126932273Y-87322388D01*
X126907484Y-87400532D01*
X126906400Y-87410196D01*
X126906399Y-87410201D01*
X126885803Y-87593823D01*
X126884520Y-87605262D01*
X100898827Y-87605262D01*
X100909685Y-87593266D01*
X100919200Y-87582754D01*
X100981710Y-87453733D01*
X101005496Y-87312354D01*
X101005647Y-87300000D01*
X101006008Y-87300004D01*
X101006277Y-87297010D01*
X101008098Y-87297173D01*
X101019862Y-87224031D01*
X101036173Y-87192221D01*
X101045908Y-87176822D01*
X101058401Y-87163354D01*
X101065208Y-87146292D01*
X101067419Y-87142795D01*
X101069098Y-87139005D01*
X101079492Y-87123854D01*
X101083945Y-87105088D01*
X101092735Y-87077295D01*
X101099883Y-87059378D01*
X101100500Y-87053085D01*
X101100500Y-87048217D01*
X101100581Y-87046561D01*
X101100737Y-87040182D01*
X101101097Y-87032812D01*
X101105340Y-87014934D01*
X101102318Y-86992727D01*
X101100500Y-86965894D01*
X101100500Y-86290580D01*
X101120207Y-86204237D01*
X101151963Y-86157037D01*
X101209685Y-86093266D01*
X101219200Y-86082754D01*
X101281710Y-85953733D01*
X101305496Y-85812354D01*
X101305647Y-85800000D01*
X101290730Y-85695836D01*
X101287333Y-85672116D01*
X101287333Y-85672115D01*
X101285323Y-85658082D01*
X101225984Y-85527572D01*
X101202316Y-85500104D01*
X101141654Y-85429702D01*
X101141651Y-85429700D01*
X101132400Y-85418963D01*
X101028753Y-85351782D01*
X101023992Y-85348696D01*
X101023991Y-85348695D01*
X101012095Y-85340985D01*
X100874739Y-85299907D01*
X100860568Y-85299820D01*
X100860565Y-85299820D01*
X100801208Y-85299458D01*
X100731376Y-85299031D01*
X100679480Y-85313863D01*
X100607160Y-85334532D01*
X100607159Y-85334533D01*
X100593529Y-85338428D01*
X100581539Y-85345993D01*
X100581537Y-85345994D01*
X100578502Y-85347909D01*
X100572656Y-85349967D01*
X100568598Y-85351782D01*
X100568448Y-85351448D01*
X100494963Y-85377314D01*
X100406938Y-85367561D01*
X100341574Y-85329610D01*
X100332400Y-85318963D01*
X100320512Y-85311257D01*
X100320509Y-85311255D01*
X100223992Y-85248696D01*
X100223991Y-85248695D01*
X100212095Y-85240985D01*
X100074739Y-85199907D01*
X100060568Y-85199820D01*
X100060565Y-85199820D01*
X100001208Y-85199458D01*
X99931376Y-85199031D01*
X99862452Y-85218730D01*
X99807160Y-85234532D01*
X99807159Y-85234533D01*
X99793529Y-85238428D01*
X99672280Y-85314930D01*
X99662898Y-85325554D01*
X99662896Y-85325555D01*
X99625798Y-85367561D01*
X99577377Y-85422388D01*
X99571353Y-85435218D01*
X99571352Y-85435220D01*
X99522473Y-85539327D01*
X99522472Y-85539330D01*
X99516447Y-85552163D01*
X99494391Y-85693823D01*
X99496229Y-85707879D01*
X99496229Y-85707880D01*
X99510881Y-85819930D01*
X99512980Y-85835979D01*
X99570720Y-85967203D01*
X99652833Y-86064888D01*
X99693303Y-86143660D01*
X99699500Y-86192933D01*
X99699500Y-86693101D01*
X99679793Y-86779444D01*
X99641214Y-86833815D01*
X99423058Y-87051971D01*
X99420852Y-87049765D01*
X99417016Y-87053912D01*
X99417731Y-87054575D01*
X99385363Y-87089468D01*
X99380183Y-87094846D01*
X99367752Y-87107277D01*
X99367483Y-87107008D01*
X99363107Y-87110355D01*
X99364655Y-87111791D01*
X99341599Y-87136646D01*
X99335220Y-87152636D01*
X99292573Y-87195248D01*
X99295066Y-87198177D01*
X99284270Y-87207365D01*
X99272280Y-87214930D01*
X99262898Y-87225554D01*
X99262896Y-87225555D01*
X99258183Y-87230892D01*
X99177377Y-87322388D01*
X99171353Y-87335218D01*
X99171352Y-87335220D01*
X99122473Y-87439327D01*
X99122472Y-87439330D01*
X99116447Y-87452163D01*
X99094391Y-87593823D01*
X73113017Y-87593823D01*
X73100532Y-87466492D01*
X73095480Y-87414970D01*
X73035935Y-87217749D01*
X73025529Y-87198177D01*
X72978833Y-87110355D01*
X72939218Y-87035849D01*
X72929253Y-87023630D01*
X72815163Y-86883743D01*
X72809011Y-86876200D01*
X72715730Y-86799031D01*
X72657776Y-86751087D01*
X72657774Y-86751085D01*
X72650275Y-86744882D01*
X72469055Y-86646897D01*
X72459757Y-86644019D01*
X72459755Y-86644018D01*
X72370655Y-86616437D01*
X72272254Y-86585977D01*
X72108376Y-86568753D01*
X72077046Y-86565460D01*
X72077045Y-86565460D01*
X72067369Y-86564443D01*
X71862203Y-86583114D01*
X71852864Y-86585863D01*
X71852862Y-86585863D01*
X71673918Y-86638529D01*
X71673915Y-86638530D01*
X71664572Y-86641280D01*
X71655941Y-86645792D01*
X71655939Y-86645793D01*
X71644971Y-86651527D01*
X71482002Y-86736726D01*
X71433741Y-86775529D01*
X71329028Y-86859719D01*
X71329024Y-86859723D01*
X71321447Y-86865815D01*
X71315194Y-86873267D01*
X71315193Y-86873268D01*
X71291650Y-86901326D01*
X71189024Y-87023630D01*
X71089776Y-87204162D01*
X71086834Y-87213437D01*
X71086833Y-87213439D01*
X71052273Y-87322388D01*
X71027484Y-87400532D01*
X71026400Y-87410196D01*
X71026399Y-87410201D01*
X71005803Y-87593823D01*
X71004520Y-87605262D01*
X70199366Y-87605262D01*
X70199266Y-85065262D01*
X71004520Y-85065262D01*
X71008233Y-85109474D01*
X71019924Y-85248696D01*
X71021759Y-85270553D01*
X71024441Y-85279908D01*
X71024442Y-85279911D01*
X71065297Y-85422388D01*
X71078544Y-85468586D01*
X71082991Y-85477239D01*
X71121497Y-85552163D01*
X71172712Y-85651818D01*
X71178759Y-85659447D01*
X71178760Y-85659449D01*
X71294628Y-85805639D01*
X71294632Y-85805643D01*
X71300677Y-85813270D01*
X71457564Y-85946791D01*
X71466057Y-85951538D01*
X71466062Y-85951541D01*
X71547481Y-85997044D01*
X71637398Y-86047297D01*
X71646653Y-86050304D01*
X71646655Y-86050305D01*
X71824070Y-86107951D01*
X71824074Y-86107952D01*
X71833329Y-86110959D01*
X71842993Y-86112111D01*
X71842996Y-86112112D01*
X72028232Y-86134199D01*
X72028233Y-86134199D01*
X72037894Y-86135351D01*
X72047590Y-86134605D01*
X72047592Y-86134605D01*
X72108037Y-86129954D01*
X72243300Y-86119546D01*
X72441725Y-86064145D01*
X72450404Y-86059761D01*
X72450409Y-86059759D01*
X72616929Y-85975643D01*
X72616928Y-85975643D01*
X72625610Y-85971258D01*
X72787951Y-85844424D01*
X72922564Y-85688472D01*
X73024323Y-85509344D01*
X73037882Y-85468586D01*
X73086279Y-85323098D01*
X73086279Y-85323097D01*
X73089351Y-85313863D01*
X73115171Y-85109474D01*
X73115583Y-85080000D01*
X73114138Y-85065262D01*
X126884520Y-85065262D01*
X126888233Y-85109474D01*
X126899924Y-85248696D01*
X126901759Y-85270553D01*
X126904441Y-85279908D01*
X126904442Y-85279911D01*
X126945297Y-85422388D01*
X126958544Y-85468586D01*
X126962991Y-85477239D01*
X127001497Y-85552163D01*
X127052712Y-85651818D01*
X127058759Y-85659447D01*
X127058760Y-85659449D01*
X127174628Y-85805639D01*
X127174632Y-85805643D01*
X127180677Y-85813270D01*
X127337564Y-85946791D01*
X127346057Y-85951538D01*
X127346062Y-85951541D01*
X127427481Y-85997044D01*
X127517398Y-86047297D01*
X127526653Y-86050304D01*
X127526655Y-86050305D01*
X127704070Y-86107951D01*
X127704074Y-86107952D01*
X127713329Y-86110959D01*
X127722993Y-86112111D01*
X127722996Y-86112112D01*
X127908232Y-86134199D01*
X127908233Y-86134199D01*
X127917894Y-86135351D01*
X127927590Y-86134605D01*
X127927592Y-86134605D01*
X127988037Y-86129954D01*
X128123300Y-86119546D01*
X128321725Y-86064145D01*
X128330404Y-86059761D01*
X128330409Y-86059759D01*
X128496929Y-85975643D01*
X128496928Y-85975643D01*
X128505610Y-85971258D01*
X128667951Y-85844424D01*
X128802564Y-85688472D01*
X128904323Y-85509344D01*
X128917882Y-85468586D01*
X128966279Y-85323098D01*
X128966279Y-85323097D01*
X128969351Y-85313863D01*
X128995171Y-85109474D01*
X128995583Y-85080000D01*
X128975480Y-84874970D01*
X128915935Y-84677749D01*
X128819218Y-84495849D01*
X128809253Y-84483630D01*
X128695163Y-84343743D01*
X128689011Y-84336200D01*
X128530275Y-84204882D01*
X128349055Y-84106897D01*
X128339757Y-84104019D01*
X128339755Y-84104018D01*
X128250654Y-84076437D01*
X128152254Y-84045977D01*
X127988376Y-84028753D01*
X127957046Y-84025460D01*
X127957045Y-84025460D01*
X127947369Y-84024443D01*
X127742203Y-84043114D01*
X127732864Y-84045863D01*
X127732862Y-84045863D01*
X127553918Y-84098529D01*
X127553915Y-84098530D01*
X127544572Y-84101280D01*
X127535941Y-84105792D01*
X127535939Y-84105793D01*
X127524971Y-84111527D01*
X127362002Y-84196726D01*
X127309525Y-84238919D01*
X127209028Y-84319719D01*
X127209024Y-84319723D01*
X127201447Y-84325815D01*
X127195194Y-84333267D01*
X127195193Y-84333268D01*
X127171650Y-84361326D01*
X127069024Y-84483630D01*
X126969776Y-84664162D01*
X126907484Y-84860532D01*
X126906400Y-84870196D01*
X126906399Y-84870201D01*
X126885605Y-85055587D01*
X126884520Y-85065262D01*
X73114138Y-85065262D01*
X73095480Y-84874970D01*
X73035935Y-84677749D01*
X72939218Y-84495849D01*
X72929253Y-84483630D01*
X72815163Y-84343743D01*
X72809011Y-84336200D01*
X72650275Y-84204882D01*
X72469055Y-84106897D01*
X72459757Y-84104019D01*
X72459755Y-84104018D01*
X72370654Y-84076437D01*
X72272254Y-84045977D01*
X72108376Y-84028753D01*
X72077046Y-84025460D01*
X72077045Y-84025460D01*
X72067369Y-84024443D01*
X71862203Y-84043114D01*
X71852864Y-84045863D01*
X71852862Y-84045863D01*
X71673918Y-84098529D01*
X71673915Y-84098530D01*
X71664572Y-84101280D01*
X71655941Y-84105792D01*
X71655939Y-84105793D01*
X71644971Y-84111527D01*
X71482002Y-84196726D01*
X71429525Y-84238919D01*
X71329028Y-84319719D01*
X71329024Y-84319723D01*
X71321447Y-84325815D01*
X71315194Y-84333267D01*
X71315193Y-84333268D01*
X71291650Y-84361326D01*
X71189024Y-84483630D01*
X71089776Y-84664162D01*
X71027484Y-84860532D01*
X71026400Y-84870196D01*
X71026399Y-84870201D01*
X71005605Y-85055587D01*
X71004520Y-85065262D01*
X70199266Y-85065262D01*
X70199166Y-82525262D01*
X71004520Y-82525262D01*
X71008146Y-82568442D01*
X71020290Y-82713056D01*
X71021759Y-82730553D01*
X71024441Y-82739908D01*
X71024442Y-82739911D01*
X71075862Y-82919234D01*
X71078544Y-82928586D01*
X71082991Y-82937239D01*
X71164025Y-83094914D01*
X71172712Y-83111818D01*
X71178759Y-83119447D01*
X71178760Y-83119449D01*
X71294628Y-83265639D01*
X71294632Y-83265643D01*
X71300677Y-83273270D01*
X71457564Y-83406791D01*
X71466057Y-83411538D01*
X71466062Y-83411541D01*
X71501342Y-83431258D01*
X71637398Y-83507297D01*
X71646653Y-83510304D01*
X71646655Y-83510305D01*
X71824070Y-83567951D01*
X71824074Y-83567952D01*
X71833329Y-83570959D01*
X71842993Y-83572111D01*
X71842996Y-83572112D01*
X72028232Y-83594199D01*
X72028233Y-83594199D01*
X72037894Y-83595351D01*
X72047590Y-83594605D01*
X72047592Y-83594605D01*
X72108037Y-83589954D01*
X72243300Y-83579546D01*
X72441725Y-83524145D01*
X72450404Y-83519761D01*
X72450409Y-83519759D01*
X72616929Y-83435643D01*
X72616928Y-83435643D01*
X72625610Y-83431258D01*
X72787951Y-83304424D01*
X72922564Y-83148472D01*
X73024323Y-82969344D01*
X73035246Y-82936510D01*
X73086279Y-82783098D01*
X73086279Y-82783097D01*
X73089351Y-82773863D01*
X73115171Y-82569474D01*
X73115583Y-82540000D01*
X73112222Y-82505716D01*
X73096430Y-82344661D01*
X73095480Y-82334970D01*
X73035935Y-82137749D01*
X73015349Y-82099031D01*
X72981388Y-82035160D01*
X72939218Y-81955849D01*
X72929253Y-81943630D01*
X72815163Y-81803743D01*
X72809011Y-81796200D01*
X72737379Y-81736941D01*
X72657776Y-81671087D01*
X72657774Y-81671085D01*
X72650275Y-81664882D01*
X72469055Y-81566897D01*
X72459757Y-81564019D01*
X72459755Y-81564018D01*
X72335248Y-81525477D01*
X72272254Y-81505977D01*
X72103010Y-81488189D01*
X72077046Y-81485460D01*
X72077045Y-81485460D01*
X72067369Y-81484443D01*
X71862203Y-81503114D01*
X71852864Y-81505863D01*
X71852862Y-81505863D01*
X71673918Y-81558529D01*
X71673915Y-81558530D01*
X71664572Y-81561280D01*
X71655941Y-81565792D01*
X71655939Y-81565793D01*
X71644971Y-81571527D01*
X71482002Y-81656726D01*
X71429525Y-81698919D01*
X71329028Y-81779719D01*
X71329024Y-81779723D01*
X71321447Y-81785815D01*
X71315194Y-81793267D01*
X71315193Y-81793268D01*
X71302475Y-81808425D01*
X71189024Y-81943630D01*
X71089776Y-82124162D01*
X71086834Y-82133437D01*
X71086833Y-82133439D01*
X71039028Y-82284142D01*
X71027484Y-82320532D01*
X71026400Y-82330196D01*
X71026399Y-82330201D01*
X71005605Y-82515587D01*
X71004520Y-82525262D01*
X70199166Y-82525262D01*
X70199101Y-80869748D01*
X71009500Y-80869748D01*
X71021133Y-80928231D01*
X71065448Y-80994552D01*
X71081740Y-81005438D01*
X71115475Y-81027980D01*
X71115477Y-81027981D01*
X71131769Y-81038867D01*
X71168053Y-81046084D01*
X71180658Y-81048592D01*
X71180662Y-81048592D01*
X71190252Y-81050500D01*
X72929748Y-81050500D01*
X72939338Y-81048592D01*
X72939342Y-81048592D01*
X72951947Y-81046084D01*
X72988231Y-81038867D01*
X73004523Y-81027981D01*
X73004525Y-81027980D01*
X73038260Y-81005438D01*
X73054552Y-80994552D01*
X73098867Y-80928231D01*
X73110500Y-80869748D01*
X73110500Y-79130252D01*
X73107159Y-79113453D01*
X73103890Y-79097021D01*
X73098867Y-79071769D01*
X73054552Y-79005448D01*
X73030469Y-78989356D01*
X73004525Y-78972020D01*
X73004523Y-78972019D01*
X72988231Y-78961133D01*
X72951947Y-78953916D01*
X72939342Y-78951408D01*
X72939338Y-78951408D01*
X72929748Y-78949500D01*
X71190252Y-78949500D01*
X71180662Y-78951408D01*
X71180658Y-78951408D01*
X71168053Y-78953916D01*
X71131769Y-78961133D01*
X71115477Y-78972019D01*
X71115475Y-78972020D01*
X71089531Y-78989356D01*
X71065448Y-79005448D01*
X71021133Y-79071769D01*
X71016110Y-79097021D01*
X71012842Y-79113453D01*
X71009500Y-79130252D01*
X71009500Y-80869748D01*
X70199101Y-80869748D01*
X70199041Y-79345309D01*
X70199121Y-79344604D01*
X70199160Y-79322198D01*
X70204182Y-79300358D01*
X70201703Y-79289402D01*
X70202952Y-79283973D01*
X70200425Y-79283757D01*
X70209832Y-79173531D01*
X70213515Y-79130371D01*
X70219249Y-79097021D01*
X70220824Y-79090991D01*
X70257965Y-78948736D01*
X70269267Y-78916837D01*
X70301458Y-78845834D01*
X70332556Y-78777242D01*
X70349096Y-78747729D01*
X70435117Y-78620883D01*
X70456417Y-78594598D01*
X70562697Y-78484152D01*
X70588145Y-78461856D01*
X70711588Y-78371026D01*
X70740451Y-78353360D01*
X70877504Y-78284756D01*
X70908946Y-78272236D01*
X71055640Y-78227848D01*
X71088744Y-78220837D01*
X71241181Y-78201902D01*
X71241354Y-78203297D01*
X71244896Y-78202607D01*
X71257527Y-78205005D01*
X71274118Y-78200574D01*
X71276271Y-78200983D01*
X71276271Y-78199999D01*
X98231336Y-78199549D01*
X98317679Y-78219255D01*
X98386921Y-78274472D01*
X98425349Y-78354264D01*
X98425350Y-78442827D01*
X98386926Y-78522621D01*
X98335762Y-78567950D01*
X98322004Y-78576431D01*
X98296151Y-78589860D01*
X98278427Y-78597475D01*
X98273540Y-78601488D01*
X98270090Y-78604938D01*
X98268847Y-78606065D01*
X98264232Y-78610460D01*
X98258782Y-78615402D01*
X98243141Y-78625043D01*
X98232021Y-78639667D01*
X98229576Y-78642882D01*
X98211885Y-78663143D01*
X96133815Y-80741214D01*
X96058827Y-80788333D01*
X95993101Y-80799500D01*
X87850265Y-80799500D01*
X87850265Y-80796380D01*
X87844621Y-80796599D01*
X87844658Y-80797575D01*
X87822919Y-80798391D01*
X87797103Y-80799360D01*
X87789639Y-80799500D01*
X87772052Y-80799500D01*
X87772052Y-80799118D01*
X87766591Y-80798391D01*
X87766670Y-80800502D01*
X87732791Y-80801774D01*
X87715908Y-80809028D01*
X87711869Y-80809938D01*
X87708008Y-80811428D01*
X87689947Y-80814791D01*
X87673519Y-80824917D01*
X87647661Y-80838349D01*
X87642842Y-80840419D01*
X87642840Y-80840420D01*
X87629937Y-80845964D01*
X87625051Y-80849978D01*
X87621610Y-80853419D01*
X87620357Y-80854555D01*
X87615764Y-80858930D01*
X87610294Y-80863890D01*
X87594652Y-80873532D01*
X87583531Y-80888157D01*
X87583530Y-80888158D01*
X87581084Y-80891375D01*
X87563393Y-80911636D01*
X86433910Y-82041119D01*
X86358922Y-82088238D01*
X86291981Y-82099401D01*
X86270223Y-82099268D01*
X86231376Y-82099031D01*
X86173287Y-82115633D01*
X86107160Y-82134532D01*
X86107159Y-82134533D01*
X86093529Y-82138428D01*
X86081539Y-82145993D01*
X86046996Y-82167788D01*
X85972280Y-82214930D01*
X85962898Y-82225554D01*
X85962896Y-82225555D01*
X85948911Y-82241390D01*
X85877377Y-82322388D01*
X85871353Y-82335218D01*
X85871352Y-82335220D01*
X85822473Y-82439327D01*
X85822472Y-82439330D01*
X85816447Y-82452163D01*
X85794391Y-82593823D01*
X85796229Y-82607879D01*
X85796229Y-82607880D01*
X85809982Y-82713056D01*
X85812980Y-82735979D01*
X85870720Y-82867203D01*
X85879843Y-82878056D01*
X85922318Y-82928586D01*
X85962970Y-82976948D01*
X86082313Y-83056390D01*
X86219157Y-83099142D01*
X86233329Y-83099402D01*
X86233330Y-83099402D01*
X86287626Y-83100397D01*
X86362499Y-83101770D01*
X86376171Y-83098042D01*
X86376175Y-83098042D01*
X86487143Y-83067788D01*
X86500817Y-83064060D01*
X86528691Y-83046946D01*
X86610912Y-82996462D01*
X86610914Y-82996460D01*
X86622991Y-82989045D01*
X86672451Y-82934402D01*
X86709686Y-82893266D01*
X86709689Y-82893262D01*
X86719200Y-82882754D01*
X86781710Y-82753733D01*
X86805496Y-82612354D01*
X86805647Y-82600000D01*
X86806008Y-82600004D01*
X86806277Y-82597010D01*
X86808840Y-82597240D01*
X86820023Y-82527406D01*
X86863877Y-82461094D01*
X87360529Y-81964443D01*
X87866186Y-81458786D01*
X87941175Y-81411667D01*
X88006900Y-81400500D01*
X93307679Y-81400500D01*
X93394022Y-81420207D01*
X93463263Y-81475426D01*
X93501690Y-81555218D01*
X93504310Y-81630114D01*
X93494391Y-81693823D01*
X93496229Y-81707879D01*
X93496229Y-81707880D01*
X93500029Y-81736941D01*
X93512980Y-81835979D01*
X93570720Y-81967203D01*
X93579843Y-81978056D01*
X93651293Y-82063056D01*
X93662970Y-82076948D01*
X93782313Y-82156390D01*
X93919157Y-82199142D01*
X93933329Y-82199402D01*
X93933330Y-82199402D01*
X93987626Y-82200397D01*
X94062499Y-82201770D01*
X94076171Y-82198042D01*
X94076175Y-82198042D01*
X94187143Y-82167788D01*
X94200817Y-82164060D01*
X94250027Y-82133845D01*
X94256428Y-82129915D01*
X94340320Y-82101531D01*
X94360553Y-82100500D01*
X94738174Y-82100500D01*
X94824517Y-82120207D01*
X94848443Y-82133845D01*
X94870506Y-82148532D01*
X94870514Y-82148536D01*
X94882313Y-82156390D01*
X95019157Y-82199142D01*
X95033329Y-82199402D01*
X95033330Y-82199402D01*
X95087626Y-82200397D01*
X95162499Y-82201770D01*
X95176171Y-82198042D01*
X95176175Y-82198042D01*
X95287143Y-82167788D01*
X95300817Y-82164060D01*
X95350027Y-82133845D01*
X95356428Y-82129915D01*
X95440320Y-82101531D01*
X95460553Y-82100500D01*
X96363433Y-82100500D01*
X96378890Y-82095478D01*
X96409257Y-82088187D01*
X96425304Y-82085646D01*
X96439258Y-82078536D01*
X96439261Y-82078535D01*
X96439784Y-82078268D01*
X96468634Y-82066318D01*
X96469191Y-82066137D01*
X96484090Y-82061296D01*
X96497242Y-82051740D01*
X96523869Y-82035424D01*
X96538342Y-82028050D01*
X96560905Y-82005487D01*
X96560909Y-82005484D01*
X98207606Y-80358786D01*
X98282594Y-80311667D01*
X98348320Y-80300500D01*
X98938174Y-80300500D01*
X99024517Y-80320207D01*
X99048443Y-80333845D01*
X99070506Y-80348532D01*
X99070514Y-80348536D01*
X99082313Y-80356390D01*
X99219157Y-80399142D01*
X99233329Y-80399402D01*
X99233330Y-80399402D01*
X99287626Y-80400397D01*
X99362499Y-80401770D01*
X99376171Y-80398042D01*
X99376175Y-80398042D01*
X99383735Y-80395981D01*
X99386935Y-80395108D01*
X99475420Y-80391409D01*
X99556748Y-80426469D01*
X99579994Y-80446386D01*
X99594513Y-80460905D01*
X99594516Y-80460909D01*
X100471950Y-81338342D01*
X100561658Y-81428050D01*
X100575612Y-81435160D01*
X100576138Y-81435428D01*
X100602762Y-81451744D01*
X100615910Y-81461296D01*
X100631365Y-81466317D01*
X100660221Y-81478271D01*
X100674696Y-81485646D01*
X100690323Y-81488121D01*
X100690750Y-81488189D01*
X100721115Y-81495479D01*
X100736567Y-81500499D01*
X100768477Y-81500499D01*
X100768481Y-81500500D01*
X105281679Y-81500500D01*
X105368022Y-81520207D01*
X105422393Y-81558786D01*
X105672032Y-81808425D01*
X105719151Y-81883413D01*
X105722987Y-81895624D01*
X105726142Y-81906925D01*
X105727980Y-81920979D01*
X105733687Y-81933949D01*
X105733688Y-81933953D01*
X105765163Y-82005484D01*
X105785720Y-82052203D01*
X105794843Y-82063056D01*
X105866694Y-82148533D01*
X105877970Y-82161948D01*
X105997313Y-82241390D01*
X106086308Y-82269193D01*
X106107183Y-82275715D01*
X106188555Y-82324947D01*
X106322032Y-82458424D01*
X106369151Y-82533412D01*
X106372988Y-82545624D01*
X106376141Y-82556917D01*
X106377980Y-82570979D01*
X106435720Y-82702203D01*
X106527970Y-82811948D01*
X106647313Y-82891390D01*
X106784157Y-82934142D01*
X106798329Y-82934402D01*
X106798330Y-82934402D01*
X106852626Y-82935397D01*
X106927499Y-82936770D01*
X106941171Y-82933042D01*
X106941175Y-82933042D01*
X107052143Y-82902788D01*
X107065817Y-82899060D01*
X107100025Y-82878056D01*
X107175912Y-82831462D01*
X107175914Y-82831460D01*
X107187991Y-82824045D01*
X107240085Y-82766492D01*
X107274686Y-82728266D01*
X107274689Y-82728262D01*
X107284200Y-82717754D01*
X107346710Y-82588733D01*
X107350124Y-82568439D01*
X107367927Y-82525262D01*
X126884520Y-82525262D01*
X126888146Y-82568442D01*
X126900290Y-82713056D01*
X126901759Y-82730553D01*
X126904441Y-82739908D01*
X126904442Y-82739911D01*
X126955862Y-82919234D01*
X126958544Y-82928586D01*
X126962991Y-82937239D01*
X127044025Y-83094914D01*
X127052712Y-83111818D01*
X127058759Y-83119447D01*
X127058760Y-83119449D01*
X127174628Y-83265639D01*
X127174632Y-83265643D01*
X127180677Y-83273270D01*
X127337564Y-83406791D01*
X127346057Y-83411538D01*
X127346062Y-83411541D01*
X127381342Y-83431258D01*
X127517398Y-83507297D01*
X127526653Y-83510304D01*
X127526655Y-83510305D01*
X127704070Y-83567951D01*
X127704074Y-83567952D01*
X127713329Y-83570959D01*
X127722993Y-83572111D01*
X127722996Y-83572112D01*
X127908232Y-83594199D01*
X127908233Y-83594199D01*
X127917894Y-83595351D01*
X127927590Y-83594605D01*
X127927592Y-83594605D01*
X127988037Y-83589954D01*
X128123300Y-83579546D01*
X128321725Y-83524145D01*
X128330404Y-83519761D01*
X128330409Y-83519759D01*
X128496929Y-83435643D01*
X128496928Y-83435643D01*
X128505610Y-83431258D01*
X128667951Y-83304424D01*
X128802564Y-83148472D01*
X128904323Y-82969344D01*
X128915246Y-82936510D01*
X128966279Y-82783098D01*
X128966279Y-82783097D01*
X128969351Y-82773863D01*
X128995171Y-82569474D01*
X128995583Y-82540000D01*
X128992222Y-82505716D01*
X128976430Y-82344661D01*
X128975480Y-82334970D01*
X128915935Y-82137749D01*
X128895349Y-82099031D01*
X128861388Y-82035160D01*
X128819218Y-81955849D01*
X128809253Y-81943630D01*
X128695163Y-81803743D01*
X128689011Y-81796200D01*
X128617379Y-81736941D01*
X128537776Y-81671087D01*
X128537774Y-81671085D01*
X128530275Y-81664882D01*
X128349055Y-81566897D01*
X128339757Y-81564019D01*
X128339755Y-81564018D01*
X128215248Y-81525477D01*
X128152254Y-81505977D01*
X127983010Y-81488189D01*
X127957046Y-81485460D01*
X127957045Y-81485460D01*
X127947369Y-81484443D01*
X127742203Y-81503114D01*
X127732864Y-81505863D01*
X127732862Y-81505863D01*
X127553918Y-81558529D01*
X127553915Y-81558530D01*
X127544572Y-81561280D01*
X127535941Y-81565792D01*
X127535939Y-81565793D01*
X127524971Y-81571527D01*
X127362002Y-81656726D01*
X127309525Y-81698919D01*
X127209028Y-81779719D01*
X127209024Y-81779723D01*
X127201447Y-81785815D01*
X127195194Y-81793267D01*
X127195193Y-81793268D01*
X127182475Y-81808425D01*
X127069024Y-81943630D01*
X126969776Y-82124162D01*
X126966834Y-82133437D01*
X126966833Y-82133439D01*
X126919028Y-82284142D01*
X126907484Y-82320532D01*
X126906400Y-82330196D01*
X126906399Y-82330201D01*
X126885605Y-82515587D01*
X126884520Y-82525262D01*
X107367927Y-82525262D01*
X107383882Y-82486565D01*
X107405652Y-82460741D01*
X109407607Y-80458786D01*
X109482595Y-80411667D01*
X109548321Y-80400500D01*
X126690500Y-80400500D01*
X126776843Y-80420207D01*
X126846084Y-80475426D01*
X126884511Y-80555218D01*
X126889500Y-80599500D01*
X126889500Y-80869748D01*
X126901133Y-80928231D01*
X126945448Y-80994552D01*
X126961740Y-81005438D01*
X126995475Y-81027980D01*
X126995477Y-81027981D01*
X127011769Y-81038867D01*
X127048053Y-81046084D01*
X127060658Y-81048592D01*
X127060662Y-81048592D01*
X127070252Y-81050500D01*
X128809748Y-81050500D01*
X128819338Y-81048592D01*
X128819342Y-81048592D01*
X128831947Y-81046084D01*
X128868231Y-81038867D01*
X128884523Y-81027981D01*
X128884525Y-81027980D01*
X128918260Y-81005438D01*
X128934552Y-80994552D01*
X128978867Y-80928231D01*
X128990500Y-80869748D01*
X128990500Y-79130252D01*
X128987159Y-79113453D01*
X128983890Y-79097021D01*
X128978867Y-79071769D01*
X128934552Y-79005448D01*
X128910469Y-78989356D01*
X128884525Y-78972020D01*
X128884523Y-78972019D01*
X128868231Y-78961133D01*
X128831947Y-78953916D01*
X128819342Y-78951408D01*
X128819338Y-78951408D01*
X128809748Y-78949500D01*
X127070252Y-78949500D01*
X127060662Y-78951408D01*
X127060658Y-78951408D01*
X127048053Y-78953916D01*
X127011769Y-78961133D01*
X126995477Y-78972019D01*
X126995475Y-78972020D01*
X126969531Y-78989356D01*
X126945448Y-79005448D01*
X126901133Y-79071769D01*
X126896110Y-79097021D01*
X126892842Y-79113453D01*
X126889500Y-79130252D01*
X126889500Y-79400500D01*
X126869793Y-79486843D01*
X126814574Y-79556084D01*
X126734782Y-79594511D01*
X126690500Y-79599500D01*
X109236567Y-79599500D01*
X109221110Y-79604522D01*
X109190743Y-79611813D01*
X109174696Y-79614354D01*
X109160742Y-79621464D01*
X109160739Y-79621465D01*
X109160216Y-79621732D01*
X109131366Y-79633682D01*
X109115910Y-79638704D01*
X109102758Y-79648260D01*
X109076133Y-79664575D01*
X109061658Y-79671950D01*
X109039095Y-79694513D01*
X109039091Y-79694516D01*
X107024450Y-81709157D01*
X106949462Y-81756276D01*
X106861455Y-81766192D01*
X106777862Y-81736941D01*
X106715238Y-81674317D01*
X106701040Y-81642756D01*
X106700323Y-81643082D01*
X106640984Y-81512572D01*
X106630582Y-81500500D01*
X106556654Y-81414702D01*
X106556651Y-81414700D01*
X106547400Y-81403963D01*
X106535505Y-81396253D01*
X106438992Y-81333696D01*
X106438991Y-81333695D01*
X106427095Y-81325985D01*
X106413512Y-81321923D01*
X106413508Y-81321921D01*
X106325852Y-81295706D01*
X106248776Y-81252086D01*
X106242157Y-81245764D01*
X105790909Y-80794516D01*
X105790905Y-80794513D01*
X105768342Y-80771950D01*
X105753867Y-80764575D01*
X105727242Y-80748260D01*
X105714090Y-80738704D01*
X105698634Y-80733682D01*
X105669784Y-80721732D01*
X105669261Y-80721465D01*
X105669258Y-80721464D01*
X105655304Y-80714354D01*
X105639257Y-80711813D01*
X105608890Y-80704522D01*
X105593433Y-80699500D01*
X105558924Y-80699500D01*
X105472581Y-80679793D01*
X105403340Y-80624574D01*
X105364913Y-80544782D01*
X105364913Y-80456218D01*
X105403340Y-80376426D01*
X105454799Y-80330915D01*
X105510912Y-80296462D01*
X105510914Y-80296460D01*
X105522991Y-80289045D01*
X105539957Y-80270301D01*
X105609686Y-80193266D01*
X105609689Y-80193262D01*
X105619200Y-80182754D01*
X105681710Y-80053733D01*
X105705496Y-79912354D01*
X105705647Y-79900000D01*
X105694485Y-79822060D01*
X105687333Y-79772116D01*
X105687333Y-79772115D01*
X105685323Y-79758082D01*
X105625984Y-79627572D01*
X105614595Y-79614354D01*
X105541654Y-79529702D01*
X105541651Y-79529700D01*
X105532400Y-79518963D01*
X105412095Y-79440985D01*
X105274739Y-79399907D01*
X105260568Y-79399820D01*
X105260565Y-79399820D01*
X105201208Y-79399458D01*
X105131376Y-79399031D01*
X105062453Y-79418729D01*
X105007160Y-79434532D01*
X105007159Y-79434533D01*
X104993529Y-79438428D01*
X104872280Y-79514930D01*
X104777377Y-79622388D01*
X104771353Y-79635218D01*
X104771352Y-79635220D01*
X104724470Y-79735074D01*
X104669936Y-79804856D01*
X104590525Y-79844065D01*
X104544336Y-79849500D01*
X101699500Y-79849500D01*
X101613157Y-79829793D01*
X101543916Y-79774574D01*
X101505489Y-79694782D01*
X101500500Y-79650500D01*
X101500500Y-79350265D01*
X101503620Y-79350265D01*
X101503401Y-79344621D01*
X101502425Y-79344658D01*
X101500640Y-79297103D01*
X101500500Y-79289639D01*
X101500500Y-79272052D01*
X101500882Y-79272052D01*
X101501609Y-79266591D01*
X101499498Y-79266670D01*
X101499185Y-79258333D01*
X101498226Y-79232791D01*
X101490972Y-79215908D01*
X101490062Y-79211869D01*
X101488572Y-79208008D01*
X101485209Y-79189947D01*
X101475083Y-79173519D01*
X101461651Y-79147661D01*
X101459581Y-79142842D01*
X101459580Y-79142840D01*
X101454036Y-79129937D01*
X101450022Y-79125051D01*
X101446581Y-79121610D01*
X101445445Y-79120357D01*
X101441070Y-79115764D01*
X101436110Y-79110294D01*
X101426468Y-79094652D01*
X101408625Y-79081084D01*
X101388364Y-79063393D01*
X101024539Y-78699568D01*
X101026745Y-78697362D01*
X101022598Y-78693526D01*
X101021935Y-78694241D01*
X100987042Y-78661873D01*
X100981664Y-78656693D01*
X100969233Y-78644262D01*
X100969502Y-78643993D01*
X100966155Y-78639617D01*
X100964719Y-78641165D01*
X100953332Y-78630602D01*
X100953331Y-78630602D01*
X100939864Y-78618109D01*
X100922804Y-78611303D01*
X100919304Y-78609090D01*
X100915513Y-78607410D01*
X100900364Y-78597018D01*
X100882488Y-78592776D01*
X100867829Y-78586280D01*
X100863438Y-78584800D01*
X100858051Y-78582413D01*
X100842899Y-78572019D01*
X100842061Y-78571820D01*
X100782651Y-78527450D01*
X100741714Y-78448916D01*
X100738906Y-78360397D01*
X100774782Y-78279426D01*
X100842238Y-78222039D01*
X100934220Y-78199504D01*
X116677901Y-78199240D01*
X128654696Y-78199040D01*
X128655404Y-78199121D01*
G37*
G04 #@! TD.AperFunction*
M02*
