G04 #@! TF.GenerationSoftware,KiCad,Pcbnew,5.1.5+dfsg1-2build2*
G04 #@! TF.CreationDate,2021-12-29T20:58:04+01:00*
G04 #@! TF.ProjectId,teebeutel_image_sensor,74656562-6575-4746-956c-5f696d616765,rev?*
G04 #@! TF.SameCoordinates,Original*
G04 #@! TF.FileFunction,Soldermask,Bot*
G04 #@! TF.FilePolarity,Negative*
%FSLAX46Y46*%
G04 Gerber Fmt 4.6, Leading zero omitted, Abs format (unit mm)*
G04 Created by KiCad (PCBNEW 5.1.5+dfsg1-2build2) date 2021-12-29 20:58:04*
%MOMM*%
%LPD*%
G04 APERTURE LIST*
%ADD10R,1.400000X2.400000*%
%ADD11R,1.100000X0.950000*%
%ADD12R,0.700000X1.300000*%
%ADD13R,0.600000X0.500000*%
%ADD14R,0.900000X0.800000*%
%ADD15R,1.000000X1.000000*%
%ADD16R,1.100000X1.300000*%
%ADD17R,0.500000X0.500000*%
%ADD18C,0.100000*%
%ADD19R,2.316000X1.200000*%
%ADD20R,2.600000X0.700000*%
%ADD21R,2.640000X0.800000*%
%ADD22R,3.600000X0.800000*%
%ADD23C,0.130000*%
%ADD24C,0.180000*%
%ADD25R,0.500000X0.600000*%
%ADD26R,0.900000X0.600000*%
%ADD27R,0.600000X0.900000*%
%ADD28O,1.700000X1.700000*%
%ADD29R,1.700000X1.700000*%
G04 APERTURE END LIST*
D10*
X86500000Y-91500000D03*
D11*
X85750000Y-88975000D03*
X87250000Y-94025000D03*
X87250000Y-88975000D03*
X85750000Y-94025000D03*
D10*
X113500000Y-91500000D03*
D11*
X112750000Y-88975000D03*
X114250000Y-94025000D03*
X114250000Y-88975000D03*
X112750000Y-94025000D03*
D12*
X114650000Y-96100000D03*
X112750000Y-96100000D03*
X114650000Y-99600000D03*
X112750000Y-99600000D03*
D13*
X119200000Y-96070000D03*
X119200000Y-95130000D03*
X119200000Y-99570000D03*
X119200000Y-98630000D03*
D14*
X116000000Y-96100000D03*
X118000000Y-97050000D03*
X118000000Y-95150000D03*
X116000000Y-99600000D03*
X118000000Y-100550000D03*
X118000000Y-98650000D03*
D13*
X105200000Y-86530000D03*
X105200000Y-87470000D03*
D15*
X90200000Y-101200000D03*
X92600000Y-95200000D03*
X97400000Y-101800000D03*
D16*
X94625000Y-100250000D03*
X94625000Y-98150000D03*
X92975000Y-98150000D03*
X92975000Y-100250000D03*
D17*
X99250000Y-82810000D03*
X97700000Y-80690000D03*
X98450000Y-82810000D03*
X100750000Y-80690000D03*
D18*
G36*
X102550000Y-81050000D02*
G01*
X102310000Y-81050000D01*
X102310000Y-80940000D01*
X102050000Y-80940000D01*
X102050000Y-80440000D01*
X102550000Y-80440000D01*
X102550000Y-81050000D01*
G37*
D17*
X99250000Y-80690000D03*
X102710000Y-81750000D03*
X102300000Y-82810000D03*
X101550000Y-82810000D03*
X100000000Y-80690000D03*
X100000000Y-82810000D03*
X97300000Y-81750000D03*
X101550000Y-80690000D03*
D19*
X100000000Y-81750000D03*
D17*
X97700000Y-82810000D03*
X98450000Y-80690000D03*
X100750000Y-82810000D03*
D20*
X103050000Y-92573000D03*
D21*
X103030000Y-95500000D03*
D20*
X103050000Y-91270000D03*
X103050000Y-90000000D03*
X103050000Y-88730000D03*
X103050000Y-87460000D03*
D21*
X103050000Y-84500000D03*
X96950000Y-84500000D03*
D20*
X96950000Y-87460000D03*
X96950000Y-88730000D03*
X96950000Y-90000000D03*
X96950000Y-91270000D03*
X96950000Y-92540000D03*
D22*
X97450000Y-95500000D03*
D23*
X100125000Y-98125000D03*
X100125000Y-97875000D03*
X99875000Y-97875000D03*
X99875000Y-98125000D03*
D24*
X99801213Y-99598787D02*
X99758787Y-99641213D01*
X100241213Y-99158787D02*
X100198787Y-99201213D01*
X99801213Y-99201213D02*
X99758787Y-99158787D01*
X100241213Y-99641213D02*
X100198787Y-99598787D01*
D13*
X96200000Y-100070000D03*
X96200000Y-99130000D03*
X107700000Y-90470000D03*
X107700000Y-89530000D03*
X94400000Y-89530000D03*
X94400000Y-90470000D03*
X104200000Y-80870000D03*
X104200000Y-79930000D03*
X104000000Y-82330000D03*
X104000000Y-83270000D03*
D25*
X98270000Y-98000000D03*
X97330000Y-98000000D03*
D13*
X93200000Y-91270000D03*
X93200000Y-90330000D03*
X105200000Y-80530000D03*
X105200000Y-81470000D03*
D25*
X98130000Y-79400000D03*
X99070000Y-79400000D03*
D13*
X94400000Y-92530000D03*
X94400000Y-93470000D03*
X92200000Y-88730000D03*
X92200000Y-89670000D03*
X90200000Y-99670000D03*
X90200000Y-98730000D03*
D18*
G36*
X94521958Y-87280710D02*
G01*
X94536276Y-87282834D01*
X94550317Y-87286351D01*
X94563946Y-87291228D01*
X94577031Y-87297417D01*
X94589447Y-87304858D01*
X94601073Y-87313481D01*
X94611798Y-87323202D01*
X94621519Y-87333927D01*
X94630142Y-87345553D01*
X94637583Y-87357969D01*
X94643772Y-87371054D01*
X94648649Y-87384683D01*
X94652166Y-87398724D01*
X94654290Y-87413042D01*
X94655000Y-87427500D01*
X94655000Y-87772500D01*
X94654290Y-87786958D01*
X94652166Y-87801276D01*
X94648649Y-87815317D01*
X94643772Y-87828946D01*
X94637583Y-87842031D01*
X94630142Y-87854447D01*
X94621519Y-87866073D01*
X94611798Y-87876798D01*
X94601073Y-87886519D01*
X94589447Y-87895142D01*
X94577031Y-87902583D01*
X94563946Y-87908772D01*
X94550317Y-87913649D01*
X94536276Y-87917166D01*
X94521958Y-87919290D01*
X94507500Y-87920000D01*
X94212500Y-87920000D01*
X94198042Y-87919290D01*
X94183724Y-87917166D01*
X94169683Y-87913649D01*
X94156054Y-87908772D01*
X94142969Y-87902583D01*
X94130553Y-87895142D01*
X94118927Y-87886519D01*
X94108202Y-87876798D01*
X94098481Y-87866073D01*
X94089858Y-87854447D01*
X94082417Y-87842031D01*
X94076228Y-87828946D01*
X94071351Y-87815317D01*
X94067834Y-87801276D01*
X94065710Y-87786958D01*
X94065000Y-87772500D01*
X94065000Y-87427500D01*
X94065710Y-87413042D01*
X94067834Y-87398724D01*
X94071351Y-87384683D01*
X94076228Y-87371054D01*
X94082417Y-87357969D01*
X94089858Y-87345553D01*
X94098481Y-87333927D01*
X94108202Y-87323202D01*
X94118927Y-87313481D01*
X94130553Y-87304858D01*
X94142969Y-87297417D01*
X94156054Y-87291228D01*
X94169683Y-87286351D01*
X94183724Y-87282834D01*
X94198042Y-87280710D01*
X94212500Y-87280000D01*
X94507500Y-87280000D01*
X94521958Y-87280710D01*
G37*
G36*
X92576958Y-87280710D02*
G01*
X92591276Y-87282834D01*
X92605317Y-87286351D01*
X92618946Y-87291228D01*
X92632031Y-87297417D01*
X92644447Y-87304858D01*
X92656073Y-87313481D01*
X92666798Y-87323202D01*
X92676519Y-87333927D01*
X92685142Y-87345553D01*
X92692583Y-87357969D01*
X92698772Y-87371054D01*
X92703649Y-87384683D01*
X92707166Y-87398724D01*
X92709290Y-87413042D01*
X92710000Y-87427500D01*
X92710000Y-87772500D01*
X92709290Y-87786958D01*
X92707166Y-87801276D01*
X92703649Y-87815317D01*
X92698772Y-87828946D01*
X92692583Y-87842031D01*
X92685142Y-87854447D01*
X92676519Y-87866073D01*
X92666798Y-87876798D01*
X92656073Y-87886519D01*
X92644447Y-87895142D01*
X92632031Y-87902583D01*
X92618946Y-87908772D01*
X92605317Y-87913649D01*
X92591276Y-87917166D01*
X92576958Y-87919290D01*
X92562500Y-87920000D01*
X92267500Y-87920000D01*
X92253042Y-87919290D01*
X92238724Y-87917166D01*
X92224683Y-87913649D01*
X92211054Y-87908772D01*
X92197969Y-87902583D01*
X92185553Y-87895142D01*
X92173927Y-87886519D01*
X92163202Y-87876798D01*
X92153481Y-87866073D01*
X92144858Y-87854447D01*
X92137417Y-87842031D01*
X92131228Y-87828946D01*
X92126351Y-87815317D01*
X92122834Y-87801276D01*
X92120710Y-87786958D01*
X92120000Y-87772500D01*
X92120000Y-87427500D01*
X92120710Y-87413042D01*
X92122834Y-87398724D01*
X92126351Y-87384683D01*
X92131228Y-87371054D01*
X92137417Y-87357969D01*
X92144858Y-87345553D01*
X92153481Y-87333927D01*
X92163202Y-87323202D01*
X92173927Y-87313481D01*
X92185553Y-87304858D01*
X92197969Y-87297417D01*
X92211054Y-87291228D01*
X92224683Y-87286351D01*
X92238724Y-87282834D01*
X92253042Y-87280710D01*
X92267500Y-87280000D01*
X92562500Y-87280000D01*
X92576958Y-87280710D01*
G37*
G36*
X93546958Y-87280710D02*
G01*
X93561276Y-87282834D01*
X93575317Y-87286351D01*
X93588946Y-87291228D01*
X93602031Y-87297417D01*
X93614447Y-87304858D01*
X93626073Y-87313481D01*
X93636798Y-87323202D01*
X93646519Y-87333927D01*
X93655142Y-87345553D01*
X93662583Y-87357969D01*
X93668772Y-87371054D01*
X93673649Y-87384683D01*
X93677166Y-87398724D01*
X93679290Y-87413042D01*
X93680000Y-87427500D01*
X93680000Y-87772500D01*
X93679290Y-87786958D01*
X93677166Y-87801276D01*
X93673649Y-87815317D01*
X93668772Y-87828946D01*
X93662583Y-87842031D01*
X93655142Y-87854447D01*
X93646519Y-87866073D01*
X93636798Y-87876798D01*
X93626073Y-87886519D01*
X93614447Y-87895142D01*
X93602031Y-87902583D01*
X93588946Y-87908772D01*
X93575317Y-87913649D01*
X93561276Y-87917166D01*
X93546958Y-87919290D01*
X93532500Y-87920000D01*
X93237500Y-87920000D01*
X93223042Y-87919290D01*
X93208724Y-87917166D01*
X93194683Y-87913649D01*
X93181054Y-87908772D01*
X93167969Y-87902583D01*
X93155553Y-87895142D01*
X93143927Y-87886519D01*
X93133202Y-87876798D01*
X93123481Y-87866073D01*
X93114858Y-87854447D01*
X93107417Y-87842031D01*
X93101228Y-87828946D01*
X93096351Y-87815317D01*
X93092834Y-87801276D01*
X93090710Y-87786958D01*
X93090000Y-87772500D01*
X93090000Y-87427500D01*
X93090710Y-87413042D01*
X93092834Y-87398724D01*
X93096351Y-87384683D01*
X93101228Y-87371054D01*
X93107417Y-87357969D01*
X93114858Y-87345553D01*
X93123481Y-87333927D01*
X93133202Y-87323202D01*
X93143927Y-87313481D01*
X93155553Y-87304858D01*
X93167969Y-87297417D01*
X93181054Y-87291228D01*
X93194683Y-87286351D01*
X93208724Y-87282834D01*
X93223042Y-87280710D01*
X93237500Y-87280000D01*
X93532500Y-87280000D01*
X93546958Y-87280710D01*
G37*
D26*
X106400000Y-86050000D03*
X106400000Y-87550000D03*
D27*
X102550000Y-79200000D03*
X101050000Y-79200000D03*
D13*
X105400000Y-93670000D03*
X105400000Y-92730000D03*
X100000000Y-78730000D03*
X100000000Y-79670000D03*
D27*
X106750000Y-91200000D03*
X105250000Y-91200000D03*
D26*
X96000000Y-80250000D03*
X96000000Y-81750000D03*
D27*
X106750000Y-88800000D03*
X105250000Y-88800000D03*
X99250000Y-101000000D03*
X100750000Y-101000000D03*
D13*
X96200000Y-97130000D03*
X96200000Y-98070000D03*
X91400000Y-98130000D03*
X91400000Y-99070000D03*
D28*
X127940000Y-102860000D03*
X127940000Y-100320000D03*
X127940000Y-97780000D03*
X127940000Y-95240000D03*
X127940000Y-92700000D03*
X127940000Y-90160000D03*
X127940000Y-87620000D03*
X127940000Y-85080000D03*
X127940000Y-82540000D03*
D29*
X127940000Y-80000000D03*
D28*
X72060000Y-102860000D03*
X72060000Y-100320000D03*
X72060000Y-97780000D03*
X72060000Y-95240000D03*
X72060000Y-92700000D03*
X72060000Y-90160000D03*
X72060000Y-87620000D03*
X72060000Y-85080000D03*
X72060000Y-82540000D03*
D29*
X72060000Y-80000000D03*
M02*
