G04 #@! TF.GenerationSoftware,KiCad,Pcbnew,6.0.0-d3dd2cf0fa~116~ubuntu20.04.1*
G04 #@! TF.CreationDate,2022-01-03T21:45:18+01:00*
G04 #@! TF.ProjectId,teebeutel_image_sensor,74656562-6575-4746-956c-5f696d616765,rev?*
G04 #@! TF.SameCoordinates,Original*
G04 #@! TF.FileFunction,Soldermask,Bot*
G04 #@! TF.FilePolarity,Negative*
%FSLAX46Y46*%
G04 Gerber Fmt 4.6, Leading zero omitted, Abs format (unit mm)*
G04 Created by KiCad (PCBNEW 6.0.0-d3dd2cf0fa~116~ubuntu20.04.1) date 2022-01-03 21:45:18*
%MOMM*%
%LPD*%
G01*
G04 APERTURE LIST*
G04 Aperture macros list*
%AMRoundRect*
0 Rectangle with rounded corners*
0 $1 Rounding radius*
0 $2 $3 $4 $5 $6 $7 $8 $9 X,Y pos of 4 corners*
0 Add a 4 corners polygon primitive as box body*
4,1,4,$2,$3,$4,$5,$6,$7,$8,$9,$2,$3,0*
0 Add four circle primitives for the rounded corners*
1,1,$1+$1,$2,$3*
1,1,$1+$1,$4,$5*
1,1,$1+$1,$6,$7*
1,1,$1+$1,$8,$9*
0 Add four rect primitives between the rounded corners*
20,1,$1+$1,$2,$3,$4,$5,0*
20,1,$1+$1,$4,$5,$6,$7,0*
20,1,$1+$1,$6,$7,$8,$9,0*
20,1,$1+$1,$8,$9,$2,$3,0*%
%AMHorizOval*
0 Thick line with rounded ends*
0 $1 width*
0 $2 $3 position (X,Y) of the first rounded end (center of the circle)*
0 $4 $5 position (X,Y) of the second rounded end (center of the circle)*
0 Add line between two ends*
20,1,$1,$2,$3,$4,$5,0*
0 Add two circle primitives to create the rounded ends*
1,1,$1,$2,$3*
1,1,$1,$4,$5*%
%AMFreePoly0*
4,1,7,0.250000,-0.360000,0.010000,-0.360000,0.010000,-0.250000,-0.250000,-0.250000,-0.250000,0.250000,0.250000,0.250000,0.250000,-0.360000,0.250000,-0.360000,$1*%
G04 Aperture macros list end*
%ADD10R,1.700000X1.700000*%
%ADD11O,1.700000X1.700000*%
%ADD12R,0.600000X0.500000*%
%ADD13R,0.600000X0.900000*%
%ADD14R,0.900000X0.600000*%
%ADD15RoundRect,0.147500X0.147500X0.172500X-0.147500X0.172500X-0.147500X-0.172500X0.147500X-0.172500X0*%
%ADD16R,0.500000X0.600000*%
%ADD17R,1.000000X1.000000*%
%ADD18HorizOval,0.180000X-0.021213X-0.021213X0.021213X0.021213X0*%
%ADD19HorizOval,0.180000X-0.021213X0.021213X0.021213X-0.021213X0*%
%ADD20C,0.130000*%
%ADD21R,3.600000X0.800000*%
%ADD22R,2.600000X0.700000*%
%ADD23R,2.640000X0.800000*%
%ADD24FreePoly0,0.000000*%
%ADD25R,0.500000X0.500000*%
%ADD26R,2.316000X1.200000*%
%ADD27R,1.100000X1.300000*%
%ADD28R,1.100000X0.950000*%
%ADD29R,1.400000X2.400000*%
%ADD30R,0.900000X0.800000*%
%ADD31R,0.700000X1.300000*%
G04 APERTURE END LIST*
D10*
X127940000Y-80000000D03*
D11*
X127940000Y-82540000D03*
X127940000Y-85080000D03*
X127940000Y-87620000D03*
X127940000Y-90160000D03*
X127940000Y-92700000D03*
X127940000Y-95240000D03*
X127940000Y-97780000D03*
X127940000Y-100320000D03*
X127940000Y-102860000D03*
D10*
X72060000Y-80000000D03*
D11*
X72060000Y-82540000D03*
X72060000Y-85080000D03*
X72060000Y-87620000D03*
X72060000Y-90160000D03*
X72060000Y-92700000D03*
X72060000Y-95240000D03*
X72060000Y-97780000D03*
X72060000Y-100320000D03*
X72060000Y-102860000D03*
D12*
X91400000Y-99070000D03*
X91400000Y-98130000D03*
X96200000Y-98070000D03*
X96200000Y-97130000D03*
D13*
X100750000Y-101000000D03*
X99250000Y-101000000D03*
X105250000Y-88800000D03*
X106750000Y-88800000D03*
D14*
X96000000Y-81750000D03*
X96000000Y-80250000D03*
D13*
X105250000Y-91200000D03*
X106750000Y-91200000D03*
D12*
X100000000Y-79670000D03*
X100000000Y-78730000D03*
X105400000Y-92730000D03*
X105400000Y-93670000D03*
D13*
X101050000Y-79200000D03*
X102550000Y-79200000D03*
D14*
X106400000Y-87550000D03*
X106400000Y-86050000D03*
D15*
X94360000Y-87600000D03*
X93385000Y-87600000D03*
X92415000Y-87600000D03*
D12*
X90200000Y-98730000D03*
X90200000Y-99670000D03*
X92200000Y-89670000D03*
X92200000Y-88730000D03*
X94400000Y-93470000D03*
X94400000Y-92530000D03*
D16*
X99070000Y-79400000D03*
X98130000Y-79400000D03*
D12*
X105200000Y-81470000D03*
X105200000Y-80530000D03*
X93200000Y-90330000D03*
X93200000Y-91270000D03*
D16*
X97330000Y-98000000D03*
X98270000Y-98000000D03*
D12*
X104000000Y-83270000D03*
X104000000Y-82330000D03*
X104200000Y-79930000D03*
X104200000Y-80870000D03*
X94400000Y-90470000D03*
X94400000Y-89530000D03*
X107700000Y-89530000D03*
X107700000Y-90470000D03*
X96200000Y-99130000D03*
X96200000Y-100070000D03*
D17*
X97400000Y-101800000D03*
X106500000Y-95800000D03*
X90200000Y-101200000D03*
D18*
X99780000Y-99620000D03*
D19*
X100220000Y-99620000D03*
X99780000Y-99180000D03*
D18*
X100220000Y-99180000D03*
D20*
X99875000Y-98125000D03*
X100125000Y-98125000D03*
X99875000Y-97875000D03*
X100125000Y-97875000D03*
D21*
X97450000Y-95500000D03*
D22*
X96950000Y-92540000D03*
X96950000Y-91270000D03*
X96950000Y-90000000D03*
X96950000Y-88730000D03*
X96950000Y-87460000D03*
D23*
X96950000Y-84500000D03*
X103050000Y-84500000D03*
D22*
X103050000Y-87460000D03*
X103050000Y-88730000D03*
X103050000Y-90000000D03*
X103050000Y-91270000D03*
X103050000Y-92573000D03*
D23*
X103030000Y-95500000D03*
D24*
X102300000Y-80690000D03*
D25*
X101550000Y-80690000D03*
X100750000Y-80690000D03*
X100000000Y-80690000D03*
X99250000Y-80690000D03*
X98450000Y-80690000D03*
X97700000Y-80690000D03*
X102710000Y-81750000D03*
D26*
X100000000Y-81750000D03*
D25*
X97300000Y-81750000D03*
X102300000Y-82810000D03*
X101550000Y-82810000D03*
X100750000Y-82810000D03*
X100000000Y-82810000D03*
X99250000Y-82810000D03*
X98450000Y-82810000D03*
X97700000Y-82810000D03*
D27*
X92975000Y-100250000D03*
X92975000Y-98150000D03*
X94625000Y-98150000D03*
X94625000Y-100250000D03*
D12*
X105200000Y-87470000D03*
X105200000Y-86530000D03*
D28*
X87250000Y-94025000D03*
X85750000Y-88975000D03*
D29*
X86500000Y-91500000D03*
D28*
X85750000Y-94025000D03*
X87250000Y-88975000D03*
X114250000Y-94025000D03*
X112750000Y-88975000D03*
D29*
X113500000Y-91500000D03*
D28*
X112750000Y-94025000D03*
X114250000Y-88975000D03*
D30*
X80500000Y-100050000D03*
X80500000Y-98150000D03*
X82500000Y-99100000D03*
X80500000Y-96550000D03*
X80500000Y-94650000D03*
X82500000Y-95600000D03*
D12*
X79300000Y-100070000D03*
X79300000Y-99130000D03*
X79300000Y-96570000D03*
X79300000Y-95630000D03*
D31*
X85750000Y-99100000D03*
X83850000Y-99100000D03*
X85750000Y-95600000D03*
X83850000Y-95600000D03*
M02*
