M48
; DRILL file {KiCad 5.1.5+dfsg1-2build2} date Fri 17 Dec 2021 03:29:33 PM CET
; FORMAT={-:-/ absolute / metric / decimal}
; #@! TF.CreationDate,2021-12-17T15:29:33+01:00
; #@! TF.GenerationSoftware,Kicad,Pcbnew,5.1.5+dfsg1-2build2
; #@! TF.FileFunction,Plated,1,2,PTH
FMAT,2
METRIC
T1C0.254
T2C0.350
T3C0.500
T4C1.000
%
G90
G05
T1
X99.3Y-97.8
X99.9Y-98.6
X100.1Y-97.4
X100.473Y-98.7
T2
X74.0Y-85.5
X74.0Y-88.0
X74.0Y-90.5
X76.0Y-92.5
X77.5Y-89.0
X77.5Y-92.0
X77.5Y-94.0
X81.0Y-89.0
X81.0Y-92.0
X81.0Y-94.0
X81.0Y-95.5
X84.0Y-89.0
X84.0Y-92.0
X84.0Y-94.0
X84.0Y-95.5
X84.5Y-99.5
X86.1Y-87.8
X87.0Y-99.5
X88.6Y-87.9
X89.0Y-94.0
X89.0Y-95.5
X89.25Y-99.25
X91.0Y-95.25
X91.25Y-97.25
X92.0Y-101.5
X92.8Y-96.8
X93.1Y-89.8
X93.1Y-93.1
X94.0Y-81.7
X94.5Y-86.5
X94.5Y-95.5
X94.7Y-101.5
X95.0Y-103.0
X95.1Y-81.7
X97.0Y-86.25
X97.1Y-97.0
X97.36Y-79.14
X98.1Y-83.5
X98.25Y-100.5
X98.75Y-94.25
X98.9Y-88.3
X99.0Y-92.5
X99.0Y-103.0
X99.25Y-84.0
X99.255Y-86.855
X99.3Y-79.9
X99.3Y-102.0
X99.35Y-81.75
X99.6Y-87.6
X99.9Y-101.0
X100.0Y-85.7
X100.45Y-79.45
X100.5Y-87.3
X100.65Y-81.75
X100.75Y-93.5
X100.8Y-85.8
X100.893Y-80.15
X101.47Y-86.53
X101.75Y-98.25
X101.825Y-78.475
X103.25Y-96.75
X103.55Y-79.25
X104.25Y-85.75
X104.53Y-93.67
X105.2Y-79.9
X105.25Y-84.0
X106.0Y-90.0
X106.215Y-81.785
X106.75Y-92.25
X106.865Y-82.435
X107.0Y-85.25
X107.5Y-79.75
X108.5Y-88.1
X108.7Y-85.9
X108.7Y-102.8
X111.1Y-98.0
X112.5Y-102.8
X113.9Y-97.9
X114.3Y-87.2
X116.7Y-95.0
X116.9Y-97.8
X119.5Y-97.5
X119.6Y-94.0
X124.75Y-102.25
X125.1Y-94.2
X125.1Y-97.5
X125.5Y-81.5
X126.25Y-100.75
T3
X97.4Y-101.8
X92.6Y-95.2
X90.2Y-101.2
T4
X127.94Y-80.0
X127.94Y-82.54
X127.94Y-85.08
X127.94Y-87.62
X127.94Y-90.16
X127.94Y-92.7
X127.94Y-95.24
X127.94Y-97.78
X127.94Y-100.32
X127.94Y-102.86
X72.06Y-80.0
X72.06Y-82.54
X72.06Y-85.08
X72.06Y-87.62
X72.06Y-90.16
X72.06Y-92.7
X72.06Y-95.24
X72.06Y-97.78
X72.06Y-100.32
X72.06Y-102.86
T0
M30
